<svg xmlns="http://www.w3.org/2000/svg" viewBox="0 0 505.32 248.28">
  <defs>
    <style>
      .cls-1{fill:#12c1b0;}.cls-1,.cls-2,.cls-3{stroke-width:0px;}.cls-2{fill:#fff;}.cls-3{fill:#030303;}
    </style>
  </defs>
  <path class="cls-2" d="M360.39,248.28H0V0c168.44,0,336.88,0,505.32,0v195.75c-.22.25-.52.16-.79.16-3.2,0-6.4,0-9.6,0-.95,0-.96-.01-.96-1,0-2.6,0-5.2,0-7.8,0-.95-.01-.96-1-.97-2.48,0-4.96,0-7.44,0-1.01,0-1.02.01-1.02,1.07,0,2.52,0,5.04,0,7.56,0,1.32.02,1.13-1.18,1.14-2.6,0-5.2.02-7.8-.01-.58,0-.75.18-.74.75.03,2.12,0,4.24.01,6.36,0,.84.02.85.85.86,2.52,0,5.04,0,7.56,0q1.29,0,1.3,1.24c0,3.76,0,7.52,0,11.27,0,1.68.11,3.36.42,5.01.8,4.29,3.17,7.36,7.25,8.99,4,1.6,8.11,1.51,12.27.73.7-.13.64-.54.55-1.04-.35-1.84-.68-3.69-1.04-5.53-.3-1.58-.31-1.59-1.94-1.37-1.44.19-2.87.24-4.29-.09-2.12-.49-3.39-1.88-3.68-4.05-.04-.32-.07-.64-.07-.96,0-4.52,0-9.03-.03-13.55,0-.53.17-.68.68-.67,3.56.03,7.12.03,10.67.05v44.38h-135.09c8.02-17.41,16.03-34.82,24.05-52.23-.45-.2-.77-.13-1.08-.13-2.56,0-5.12.04-7.68-.03-.85-.02-1.25.27-1.59,1.03-2.77,6.24-5.58,12.45-8.39,18.67-.16.35-.22.77-.63,1.05-.24-.47-.47-.91-.69-1.37-3-6.13-6.01-12.26-8.97-18.4-.34-.7-.68-1.01-1.51-.99-2.72.07-5.44.02-8.16.03-.35,0-.72-.11-1.08.17.31.64.61,1.29.93,1.92,4.71,9.47,9.42,18.94,14.16,28.39.33.67.4,1.19.05,1.88-.93,1.85-1.76,3.76-2.63,5.64-2.21,4.78-4.41,9.56-6.62,14.35ZM41.76,152.03c11.44,0,22.87.01,34.31,0,4.84,0,9.65-.41,14.42-1.33,13.96-2.69,26.28-8.74,36.75-18.32,15.03-13.77,23.29-30.91,24.8-51.24.49-6.52.08-13.03-1.2-19.45-3.19-15.97-10.64-29.63-22.51-40.77C114.75,8.15,98.55,1.37,79.96.31c-6.33-.36-12.63.14-18.84,1.44-15.68,3.28-29.13,10.67-40.07,22.38C7.45,38.7.51,56.03.44,75.97c-.09,24.83-.02,49.66-.02,74.48,0,1.83-.13,1.57,1.63,1.57,13.24,0,26.47,0,39.71,0ZM50.42,230.89c.09-.52-.21-.88-.37-1.27-3-7.01-6-14.01-9.01-21.02-3.9-9.1-7.81-18.19-11.68-27.3-.3-.7-.62-.98-1.38-.95-1.64.06-3.28.05-4.92,0-.74-.02-1.12.2-1.42.91-6.94,16.26-13.91,32.5-20.87,48.75-.12.27-.39.54-.16.92,2.98,0,5.98-.02,8.97.02.75.01,1.13-.21,1.42-.92,1.29-3.14,2.65-6.24,3.95-9.38.28-.69.63-.95,1.39-.94,6.08.03,12.16.04,18.23,0,.82,0,1.17.26,1.47,1,1.3,3.18,2.69,6.32,4.01,9.48.23.56.54.77,1.15.76,2.92-.03,5.84-.01,8.76-.02.15,0,.3-.03.46-.05ZM92.1,198.25v-1.29c0-5.44,0-10.87,0-16.31,0-.98-.01-1-.96-1-2.48,0-4.96,0-7.44,0-1.04,0-1.04,0-1.05,1.03,0,.12,0,.24,0,.36,0,16.15,0,32.3,0,48.45,0,.24.02.48,0,.72-.06.59.21.74.77.74,2.52-.02,5.04-.03,7.56,0,.61,0,.74-.23.73-.78,0-.6-.13-1.23.14-1.91,3.48,2.75,7.36,3.76,11.65,3.24,4.29-.52,8.01-2.24,10.88-5.48,4.39-4.97,5.68-10.8,4.22-17.21-1.16-5.08-3.96-9.11-8.59-11.56-6.01-3.19-11.97-2.81-17.91.99ZM206.81,228.47c0,.57.04,1.13,0,1.68-.06.65.22.8.83.8,2.44-.03,4.88,0,7.31-.01.92,0,.92-.02.94-.92,0-.24,0-.48,0-.72,0-13.98,0-27.97,0-41.95,0-2.28,0-4.55,0-6.83,0-.84-.02-.86-.86-.86-2.56,0-5.12,0-7.67,0-.16,0-.32,0-.48,0-.28,0-.44.14-.44.44,0,.28,0,.56,0,.84,0,5.31,0,10.63,0,15.94,0,.42-.03.83-.05,1.21-.3.08-.4-.06-.52-.15-5.76-4.14-15.56-3.97-21.52,2.59-4.5,4.96-5.85,10.82-4.41,17.26,1.41,6.3,5.18,10.74,11.35,12.86,5.29,1.82,10.38,1.38,15.01-2.06.12-.09.23-.23.54-.11ZM150.76,220.09c-.25.23-.54.5-.84.77-1.88,1.64-4.02,2.73-6.51,3.08-4.41.62-9.27-1.72-10.57-6.79-.35-1.37-.36-1.37,1.09-1.37,7.28,0,14.55,0,21.83,0,1.24,0,1.11,0,1.2-1.08.24-2.79-.09-5.5-.99-8.14-2.21-6.47-7.78-10.9-14.09-11.34-8.08-.56-13.81,3.82-16.47,9.47-2.2,4.68-2.56,9.53-1.14,14.48,1.56,5.43,5.06,9.15,10.32,11.19,3.16,1.22,6.44,1.56,9.78,1.12,4.28-.57,8.06-2.23,11.12-5.35.24-.24.53-.46.6-.71-1.81-1.81-3.56-3.56-5.32-5.32ZM466.72,220.09c-.29.27-.58.55-.88.81-2.9,2.43-6.17,3.71-9.98,2.89-3.68-.79-6.06-3.06-7.08-6.7-.11-.4-.22-.83-.07-1.32.49,0,.93,0,1.36,0,6.88,0,13.75.02,20.63-.01,2.51-.01,2.2.53,2.27-2.21.15-5.4-1.56-10.14-5.45-13.98-6.94-6.86-19.94-5.91-25.52,3.88-2.3,4.04-3.03,8.39-2.39,12.95.76,5.35,3.3,9.63,7.97,12.49,6.75,4.15,16.22,3.52,22.4-1.45.77-.62,1.52-1.28,2.06-2.05-1.78-1.78-3.53-3.53-5.33-5.33ZM408.07,198.62c0-.85-.03-1.44,0-2.03.03-.52-.16-.7-.68-.7-2.6.02-5.2.02-7.79,0-.47,0-.65.17-.61.63.02.24,0,.48,0,.72v17.26c0,5.07,0,10.15,0,15.22,0,1.34-.09,1.2,1.24,1.2,2.24,0,4.48.01,6.71,0,1.66,0,1.44.23,1.44-1.48,0-6.75,0-13.51,0-20.26,0-.56-.02-1.08.43-1.55,2.47-2.61,5.43-4.03,9.08-3.74,3.02.24,5.29,2.15,6,5.03.21.85.33,1.72.33,2.61,0,4.36.01,8.71.02,13.07,0,1.88.01,3.76,0,5.63,0,.52.17.7.69.7,2.68-.02,5.36-.02,8.03,0,.6,0,.78-.24.73-.78-.02-.2,0-.4,0-.6,0-5.27.02-10.55,0-15.82,0-1.75-.09-3.51-.32-5.26-1.19-9.4-10.41-15.04-19.32-12.85-2.12.52-4,1.52-5.98,2.98ZM281.9,230.89c-.2-1.1-.38-2.12-.57-3.14-.19-1.02-.39-2.04-.57-3.06-.31-1.73-.3-1.74-2.05-1.51-1.4.18-2.79.22-4.17-.09-2.1-.47-3.34-1.79-3.67-3.91-.11-.71-.18-1.42-.18-2.15,0-4,0-8,0-11.99,0-1.23-.19-1.18,1.13-1.18,3.16,0,6.32,0,9.48,0,.92,0,.93-.01.94-.9,0-2,0-4,0-6,0-1.14.09-1.05-1.01-1.05-3.16,0-6.32,0-9.48,0-1.05,0-1.06,0-1.06-1.03,0-2.64-.01-5.28,0-7.92,0-.58-.1-.85-.78-.83-2.6.04-5.2.01-7.8.02-.82,0-.83.02-.83.88,0,2.48,0,4.96,0,7.44,0,.24-.02.48,0,.72.07.6-.21.79-.77.73-.24-.02-.48,0-.72,0-2.44,0-4.88,0-7.32,0-.95,0-.96.01-.97,1,0,1.96,0,3.92,0,5.88,0,1.22.02,1.07,1.14,1.07,2.52,0,5.04,0,7.56,0,1.25,0,1.07-.03,1.07,1.12,0,3.6,0,7.2,0,10.79,0,1.52.07,3.03.25,4.55.61,5.35,3.72,9.08,8.88,10.58,2.05.6,4.16.83,6.28.73,1.71-.08,3.43-.15,5.2-.74ZM226.4,220.31c-.26.1-.36.28-.47.44-1.21,1.78-2.42,3.57-3.63,5.35-.57.85-.58.87.29,1.43,4.82,3.13,10.06,4.62,15.82,3.93,3.12-.37,5.96-1.47,8.3-3.65,4.36-4.06,4.12-10.94-.49-14.65-1.22-.99-2.61-1.7-4.04-2.3-1.77-.74-3.6-1.29-5.41-1.92-.9-.32-1.81-.64-2.62-1.16-1.8-1.14-1.73-2.9.15-3.92.75-.41,1.56-.6,2.4-.67,2.49-.21,4.73.53,6.82,1.82.8.5.81.49,1.34-.31,1.13-1.74,2.27-3.48,3.39-5.22.5-.78.5-.79-.25-1.28-.23-.15-.48-.3-.72-.42-3.97-2.05-8.18-2.96-12.63-2.45-3.3.38-6.22,1.66-8.58,4.1-3.54,3.65-4.14,10.81,1.78,14.33,1.31.78,2.68,1.41,4.11,1.93,1.72.63,3.45,1.24,5.17,1.88.79.29,1.54.67,2.19,1.21,1.51,1.25,1.4,3.01-.26,4.08-.9.58-1.91.79-2.97.8-3.61.03-6.83-1.04-9.69-3.33ZM328.41,220.21c-1.42,2.09-2.76,4.08-4.1,6.06-.45.67-.45.7.25,1.16,4.87,3.22,10.18,4.73,16.03,4.02,3.07-.37,5.86-1.5,8.2-3.6,4.44-3.99,4.15-11.48-.79-14.96-1.18-.83-2.44-1.51-3.77-2.06-1.77-.74-3.61-1.28-5.41-1.92-.98-.34-1.96-.69-2.81-1.31-1.42-1.02-1.39-2.55.05-3.54.85-.58,1.81-.81,2.82-.89,2.54-.21,4.8.59,6.91,1.93.34.21.61.5.96-.05,1.26-1.99,2.55-3.96,3.84-5.93.19-.29.19-.5-.11-.69-.24-.15-.46-.32-.71-.45-4.51-2.42-9.28-3.41-14.35-2.44-2.8.54-5.26,1.81-7.27,3.9-3.52,3.66-4.03,10.83,1.76,14.26.62.37,1.25.71,1.89,1.02,1.15.57,2.35.99,3.55,1.42,1.35.48,2.71.95,4.05,1.48.82.32,1.61.72,2.25,1.34,1.15,1.09,1.09,2.65-.14,3.64-.7.56-1.52.88-2.41.97-1.2.13-2.39.08-3.58-.12-2.6-.45-4.96-1.45-7.11-3.24ZM317.97,205.34c0-8.23,0-16.47,0-24.7,0-1.03.09-.99-.95-.99-2.36,0-4.72,0-7.08,0-1.61,0-1.37-.22-1.37,1.41,0,16.15,0,32.3,0,48.44,0,.16,0,.32,0,.48.02.93.02.94.9.95,2.56,0,5.12-.01,7.68.02.61,0,.91-.14.83-.79-.03-.24,0-.48,0-.72,0-8.03,0-16.07,0-24.1ZM54.59,196.01c-.16.43-.08.88-.08,1.31,0,9.95,0,19.9,0,29.86,0,1,.02,2,0,3-.02.55.12.79.73.78,2.68-.03,5.36-.02,8.04,0,.52,0,.71-.19.69-.7-.02-1,0-2,0-3,0-5.8,0-11.59,0-17.39,0-.56,0-1.1.38-1.59,2.12-2.74,4.79-4.41,8.36-4.41,1.03,0,2.06.09,3.17.29.34-2.8.67-5.53,1.01-8.26.06-.5-.29-.51-.59-.55-1.11-.17-2.23-.2-3.35-.15-3.43.17-6.49,1.24-8.96,3.72-.07.07-.16.2-.39,0,0-.71-.03-1.5.01-2.28.03-.59-.18-.75-.75-.74-2.2.03-4.4,0-6.6.02-.55,0-1.12-.1-1.66.09ZM172.93,213.43c0-5.51,0-11.02,0-16.53,0-.9.17-.99-.97-.99-2.56,0-5.11.02-7.67,0-.59,0-.92.13-.82.79.03.2,0,.4,0,.6,0,10.74,0,21.48,0,32.23,0,.24.02.48,0,.72-.04.5.14.71.68.71,2.72-.02,5.43-.01,8.15,0,.45,0,.67-.16.64-.63-.02-.28,0-.56,0-.84,0-5.35,0-10.7,0-16.05ZM299.21,213.51v-.72c0-5.31,0-10.62,0-15.93,0-.95.02-.95-.89-.95-2.56,0-5.11,0-7.67,0-.81,0-.81.02-.82.88,0,.12,0,.24,0,.36v32.47c0,.2.02.4,0,.6-.07.6.21.74.77.73,2.16-.02,4.31,0,6.47,0,.52,0,1.04-.01,1.56,0,.39.01.61-.11.59-.54-.01-.28,0-.56,0-.84,0-5.35,0-10.7,0-16.05ZM168.21,177.49c-3.45,0-6.17,2.64-6.18,6,0,3.33,2.75,6.01,6.18,6.01,3.44,0,6.16-2.65,6.16-6.01,0-3.37-2.69-6-6.16-6ZM288.38,183.53c.01,3.37,2.72,5.99,6.18,5.98,3.44-.01,6.13-2.68,6.11-6.05-.02-3.38-2.71-5.97-6.19-5.96-3.47.01-6.12,2.63-6.1,6.03Z"/>
  <path class="cls-3" d="M360.39,248.28c2.21-4.78,4.41-9.56,6.62-14.35.87-1.88,1.7-3.79,2.63-5.64.35-.69.28-1.21-.05-1.88-4.74-9.46-9.44-18.93-14.16-28.39-.32-.64-.62-1.29-.93-1.92.36-.29.73-.17,1.08-.17,2.72-.01,5.44.04,8.16-.03.83-.02,1.17.29,1.51.99,2.96,6.15,5.97,12.27,8.97,18.4.22.45.45.9.69,1.37.41-.28.47-.7.63-1.05,2.81-6.22,5.62-12.44,8.39-18.67.34-.77.74-1.05,1.59-1.03,2.56.06,5.12.02,7.68.03.31,0,.63-.07,1.08.13-8.02,17.42-16.04,34.83-24.05,52.23h-9.84Z"/>
  <path class="cls-3" d="M505.32,203.9c-3.56-.01-7.12-.02-10.67-.05-.51,0-.69.14-.68.67.02,4.52.02,9.03.03,13.55,0,.32.03.64.07.96.29,2.17,1.55,3.56,3.68,4.05,1.42.33,2.85.28,4.29.09,1.63-.21,1.64-.2,1.94,1.37.35,1.84.69,3.69,1.04,5.53.1.5.15.91-.55,1.04-4.15.78-8.27.87-12.27-.73-4.08-1.64-6.45-4.7-7.25-8.99-.31-1.65-.42-3.33-.42-5.01-.01-3.76,0-7.52,0-11.27q0-1.24-1.3-1.24c-2.52,0-5.04,0-7.56,0-.83,0-.85-.02-.85-.86,0-2.12.02-4.24-.01-6.36,0-.57.16-.76.74-.75,2.6.03,5.2.02,7.8.01,1.2,0,1.18.18,1.18-1.14,0-2.52,0-5.04,0-7.56,0-1.06,0-1.06,1.02-1.07,2.48,0,4.96,0,7.44,0,.99,0,1,.01,1,.97,0,2.6,0,5.2,0,7.8,0,.98.01,1,.96,1,3.2,0,6.4,0,9.6,0,.27,0,.57.09.79-.16v8.16Z"/>
  <path class="cls-1" d="M41.76,152.03c-13.24,0-26.47,0-39.71,0-1.76,0-1.63.26-1.63-1.57,0-24.83-.07-49.66.02-74.48.07-19.95,7.01-37.28,20.62-51.84C31.99,12.42,45.44,5.03,61.12,1.75c6.21-1.3,12.5-1.8,18.84-1.44,18.59,1.05,34.79,7.84,48.38,20.59,11.87,11.15,19.32,24.81,22.51,40.77,1.28,6.42,1.69,12.93,1.2,19.45-1.51,20.33-9.77,37.47-24.8,51.24-10.47,9.59-22.79,15.64-36.75,18.32-4.77.92-9.58,1.32-14.42,1.33-11.44.02-22.87,0-34.31,0ZM61.2,42.67v.04s0-.03,0-.03c-1.04-1.22-3.08-1.63-4.68-.61-.57.36-1.16.71-1.73,1.06-1.15.71-2.31,1.35-3.85,1.04,1.53,1.78,3.2,2.04,4.95.87.53-.35,1.04-.73,1.56-1.11,1.12-.82,2.32-1.39,3.76-1.27ZM76.53,23.26h.02c.17-.58.74-.69,1.19-.89.98-.44,2-.81,2.99-1.22.22-.09.54-.11.56-.54-4.2.22-7.73,1.65-10.18,5.2-.28.4-.51.73-1.05.88-2.29.63-4.2,1.92-5.81,3.65-.44.48-.94.85-1.51,1.15-1.49.79-2.87,1.74-4.14,2.85-1.05.91-1.05,1.16-.07,2.2.05.06.1.13.17.17.94.58,1.37,1.51,1.7,2.51.26.76.66,1.46,1.12,2.11.24.35.48.73.9.93.84-2.07,2.45-2.88,4.51-2.97,1.11-.05,1.61.34,1.98,1.37.43,1.19-.09,2.35-1.45,2.85-1.46.55-2.97.9-4.53.27-.06.99.3,2.59.71,3.36.19.35.42.43.78.33,2-.59,4.07-.76,6.14-1.02,2.4-.3,1.89-.15,1.61,1.76-.34,2.36-1.29,2.98-3.63,2.57-1.38-.24-2.76-.46-4.16-.51-1.77-.06-3.5.15-5.23,1.31,1.72.38,3.4-.06,4.94.9-.74.45-1.41.5-2.08.56-2.51.22-4.87.88-7,2.25-.8.52-.77.45-1.29-.3-3.16-4.63-5.91-9.49-8.08-14.67-.57-1.36-1.1-2.75-1.35-4.21-.18-1.07.2-1.78,1.15-2.26.52-.26,1.07-.3,1.63-.31.76,0,1.52.01,2.27-.12,1.95-.34,2.95-1.37,3.21-3.31.28-2.03-.03-3.98-.73-5.88-.29-.78-.31-.79-1.09-.4-3.86,1.89-7.42,4.23-10.82,6.85-1.57,1.21-2.14,2.69-2.06,4.57.06,1.37.41,2.68.66,4.01.21,1.14.46,2.27.8,3.38.09.29.28.67-.02.9-.36.27-.67-.07-.95-.26-.26-.18-.49-.41-.74-.6-.19-.15-.3-.48-.67-.33-.06.84.27,1.57.61,2.29.72,1.51,1.85,2.69,3.18,3.68.46.34,1.03.59,1.31,1.25-.92.33-1.65-.34-2.53-.34.26,1.33.97,2.33,1.69,3.32,1.09,1.51,2.5,2.69,3.92,3.86.37.31.84.57.92,1.18-.87.16-1.51-.58-2.33-.48.76,2.4,2.29,4.98,4.33,7.21.43.47.5.77.1,1.29-1.12,1.47-1.99,3.08-2.65,4.81-.22.58-.13,1.4-.69,1.72-.55.32-1.25-.07-1.87-.17-5.01-.84-9.94-2.01-14.7-3.83-.75-.29-1.47-.63-2.12-1.11-1.45-1.08-1.56-2.09-.34-3.4.54-.58,1.16-1.09,1.74-1.65,1.76-1.71,1.93-3.28.57-5.35-1.05-1.6-2.43-2.85-4.07-3.83-.79-.47-.81-.47-1.19.41-1.78,4.12-3.03,8.4-3.86,12.82-.25,1.35.11,2.43.85,3.47.89,1.25,2.02,2.26,3.3,3.11,1.3.86,2.62,1.69,4.05,2.33.21.09.47.2.47.48,0,.37-.33.41-.57.51-.66.26-1.39.1-2.19.32,1.05.92,2.21,1.27,3.43,1.48,1.32.23,2.62.1,3.93-.15.54-.1,1.11-.44,1.72-.02-.53.78-1.38,1.01-2.12,1.51.74.48,1.52.64,2.29.8,2.23.46,4.45.29,6.67-.09.57-.1,1.14-.22,1.8,0-.48.86-1.48.82-2.05,1.47.9.27,1.72.45,2.55.55,1.23.15,2.46.3,3.69.42.42.04.56.22.5.62-.04.24-.07.47-.1.71-.23,1.96-.19,3.91.39,5.82.25.82.53,1.63,1.15,2.52.22-1.4-.18-2.65.47-4.14,1.81,4.84,5.38,7.51,9.93,9.32-1.27.62-2.34,1.14-3.34,1.8-3,1.99-4.69,4.71-4.7,8.39,0,1.93.24,3.82.62,5.71.28,1.38.23,1.52-.96,2.21-2.81,1.64-5.81,1.89-8.91,1.11-1.33-.33-1.32-.4-1.47-1.78-.21-1.95-.53-3.87-1.52-5.62-.55-.97-1.3-1.43-2.42-1.46-2.29-.05-4.43.52-6.5,1.44q-1.3.59-.48,1.7c3.03,4.11,6.57,7.72,10.49,10.99,1.33,1.11,2.69,1.42,4.32,1.12,1.22-.22,2.43-.45,3.6-.89.21-.08.47-.27.64,0,.14.23-.03.46-.18.65-.26.35-.53.69-.8,1.04-.08.04-.23.08-.13.2.08.09.2.03.28-.05,1.23-.28,2.32-.85,3.3-1.63.34-.27.64-.61.97-.9.15-.13.33-.25.52-.07.13.12.11.3.06.45-.18.5-.38.99-.61,1.57.85-.26,1.43-.68,2.01-1.1.59-.42,1.08-.94,1.62-1.42.5-.45.78-1.19,1.6-1.37.15.99-.65,1.71-.61,2.69,2.19-1.13,4-2.51,5.31-4.52.6-.92,1.05-1.77.42-2.85-.12-.2-.13-.46-.18-.69-.46-2.08.32-3.71,2.23-4.66.94-.46,1.95-.71,2.95-.99,2.77-.76,5.56-1.47,8.19-2.69.85-.4,1.65-.91,2.5-1.4.22.48.38.84.54,1.2,1.54,3.43,4.13,5.49,7.89,6.08,2.47.39,4.94.27,7.41.06,1.56-.13,3.11-.22,4.67-.15,1.02.05,1.98.32,2.85.84,2.09,1.27,4.08,2.68,5.74,4.5.61.67.62,1.2.02,1.88-.61.68-1.43.84-2.28.89-.72.04-1.44,0-2.16.03-1.74.07-2.76.83-3.26,2.48-.76,2.52-.39,4.96.61,7.36.17-.04.3-.05.4-.1,5.25-2.37,10.04-5.45,14.35-9.27,1.11-.98,1.33-2.28.61-3.58-.54-.98-1.22-1.87-1.82-2.82-.18-.28-.52-.52-.35-.94.33-.25.76.07,1.17-.16-.42-.74-.97-1.16-1.69-1.35-.62-.16-1.25-.28-1.86-.47-.44-.13-1.08-.23-.97-.84.09-.52.71-.39,1.13-.43.52-.06,1.06.21,1.69-.05-1.22-1.28-2.58-2.08-4.17-2.47-.74-.18-1.49-.31-2.23-.46-3.15-.63-5.14-2.59-6.27-5.51-.1-.27-.3-.56-.12-.94.67.11,1.33.23,1.99.32,2.09.28,4.14.18,6.13-.63,6.38-2.59,8.31-10.07,5.21-14.94-.95-1.49-1.99-2.9-3.1-4.26-1.69-2.08-3.37-4.17-4.73-6.48-1.37-2.32-1.74-4.78-.94-7.37,1.45-4.7,6.53-7.51,11.44-6.38,2.14.5,3.77,1.65,4.9,3.55.75,1.26.85,2.88-.62,4.06-1.43,1.15-2.7,2.5-3.79,3.99-.85,1.15-1.41,2.41-1.49,3.85-.06,1.08.06,2.11.66,3.3.6-1.13,1.04-2.1,1.67-2.96.66-.89,1.37-1.7,2.72-2.09-.33.89-.79,1.45-1.15,2.04-.78,1.26-1.53,2.55-1.8,4.03-.6,3.28.75,6.06,2.27,8.85.2-.13.31-.17.39-.25,1.55-1.73,2.96-3.57,4.08-5.62.76-1.39,1.18-2.86,1.22-4.46.05-1.92,0-3.83-.37-5.73-.04-.23-.19-.51.08-.65.33-.18.51.14.66.35.31.42.5.9.68,1.4.36,1.03.53,2.09.7,3.3.12-.25.2-.34.22-.46.1-.51.21-1.02.27-1.53.49-4.28,0-8.35-2.35-12.1-2.91-4.66-8.25-7.11-13.69-6.17-8.96,1.56-13.64,11.34-8.78,19.14,1.31,2.11,2.79,4.09,4.35,6.02,1.16,1.43,2.29,2.87,3.25,4.45,1.72,2.82.99,7.63-3.57,9.11-2.46.8-4.81.4-7.09-.67-.3-.14-.49-.39-.69-.65-2.41-3.23-5.66-5.1-9.57-5.9-1.41-.29-2.83-.53-4.24-.79-.43-.08-.85-.19-1.22-.45-4.58-3.29-6.91-7.83-7.43-13.38-.06-.64.24-.84.75-1,1.41-.45,2.77-1.04,4.13-1.61,1.51-.64,2.77-1.59,3.84-2.8,2-2.26,3.3-4.89,4.05-7.79.17-.66.33-1.32.53-1.96.07-.23.12-.57.58-.57.17.4.12.83.12,1.26.02,2.44-.56,4.74-1.51,6.97-.15.07-.24.22-.12.33.14.12.21-.08.3-.16,2.55-1.66,4.49-3.81,5.5-6.73.6-1.75,1-3.53,1.08-5.38.06-1.48.06-2.95-.16-4.42-.1-.67-.27-1.39.25-2.25.93,1.57,1.18,3.19,1.51,4.76.34,1.62.11,3.29.19,4.96,1.16-1.64,2.23-3.31,2.77-5.24.75-2.68.65-5.37.12-8.07-.46-2.33-1.26-4.53-2.37-6.63-.38-.72-.81-1.45-.81-2.34.72.25.73.24,1.02.6,1.65,2.02,3.09,4.17,3.89,6.69.07.23-.02.59.37.67.2-.2.11-.45.12-.66.05-1.04-.03-2.07-.15-3.11-.63-5.44-2.96-9.99-7.17-13.51-3.27-2.73-7.07-3.92-11.34-3.66-2.01.12-3.95.55-5.86,1.14-.36.11-.71.41-1.11.12Z"/>
  <path class="cls-3" d="M50.42,230.89c-.15.02-.3.05-.46.05-2.92,0-5.84-.01-8.76.02-.61,0-.91-.2-1.15-.76-1.32-3.17-2.71-6.31-4.01-9.48-.3-.74-.65-1-1.47-1-6.08.04-12.16.04-18.23,0-.77,0-1.11.26-1.39.94-1.29,3.14-2.66,6.24-3.95,9.38-.29.7-.67.93-1.42.92-3-.04-6-.02-8.97-.02-.23-.38.04-.65.16-.92,6.95-16.25,13.93-32.5,20.87-48.75.3-.71.68-.93,1.42-.91,1.64.05,3.28.06,4.92,0,.76-.03,1.09.25,1.38.95,3.87,9.11,7.78,18.2,11.68,27.3,3,7.01,6.01,14.01,9.01,21.02.17.39.47.75.37,1.27ZM19.09,211.01h12.75c-2.12-4.92-4.19-9.74-6.37-14.83-2.19,5.1-4.26,9.91-6.37,14.83Z"/>
  <path class="cls-3" d="M92.1,198.25c5.94-3.8,11.9-4.18,17.91-.99,4.63,2.46,7.44,6.48,8.59,11.56,1.46,6.41.17,12.24-4.22,17.21-2.87,3.24-6.6,4.96-10.88,5.48-4.29.52-8.16-.49-11.65-3.24-.27.68-.15,1.31-.14,1.91,0,.54-.12.78-.73.78-2.52-.03-5.04-.03-7.56,0-.56,0-.84-.14-.77-.74.03-.24,0-.48,0-.72,0-16.15,0-32.3,0-48.45,0-.12,0-.24,0-.36.01-1.03.01-1.03,1.05-1.03,2.48,0,4.96,0,7.44,0,.95,0,.96.01.96,1,0,5.44,0,10.87,0,16.31v1.29ZM92.1,213.44c0,1.08.15,2.18-.03,3.23-.32,1.88.67,3.02,1.98,4.03.5.39,1.04.75,1.6,1.04,3.94,2.1,8.71,1.43,11.57-1.64,2.23-2.4,2.89-5.31,2.35-8.45-.57-3.36-2.36-5.92-5.62-7.2-3.63-1.42-8.52-.34-11.55,3.33-.28.34-.3.71-.3,1.11,0,1.52,0,3.03,0,4.55Z"/>
  <path class="cls-3" d="M206.81,228.47c-.31-.12-.42.02-.54.11-4.62,3.44-9.71,3.88-15.01,2.06-6.17-2.12-9.94-6.56-11.35-12.86-1.44-6.44-.08-12.31,4.41-17.26,5.96-6.57,15.75-6.73,21.52-2.59.12.09.23.23.52.15.02-.37.05-.79.05-1.21,0-5.31,0-10.63,0-15.94,0-.28,0-.56,0-.84,0-.3.16-.43.44-.44.16,0,.32,0,.48,0,2.56,0,5.12,0,7.67,0,.84,0,.85.02.86.86,0,2.28,0,4.55,0,6.83,0,13.98,0,27.97,0,41.95,0,.24,0,.48,0,.72-.02.9-.02.91-.94.92-2.44,0-4.88-.01-7.31.01-.61,0-.89-.14-.83-.8.05-.55,0-1.12,0-1.68ZM206.42,213.44c0-1.52-.02-3.03.01-4.55.01-.56-.17-.99-.54-1.39-1.43-1.58-3.16-2.68-5.21-3.25-4.54-1.27-8.84.54-10.81,4.59-1.37,2.8-1.47,5.69-.29,8.58,1.02,2.49,2.85,4.19,5.42,5.06,3.81,1.28,8.4-.06,10.94-3.18.32-.39.48-.79.48-1.3-.02-1.52,0-3.03,0-4.55Z"/>
  <path class="cls-3" d="M150.76,220.09c1.76,1.76,3.51,3.51,5.32,5.32-.06.26-.36.47-.6.71-3.06,3.12-6.84,4.78-11.12,5.35-3.34.45-6.62.1-9.78-1.12-5.26-2.04-8.76-5.76-10.32-11.19-1.42-4.95-1.06-9.8,1.14-14.48,2.66-5.65,8.39-10.03,16.47-9.47,6.31.44,11.88,4.87,14.09,11.34.91,2.65,1.24,5.36.99,8.14-.09,1.08.03,1.08-1.2,1.08-7.28,0-14.55,0-21.83,0-1.45,0-1.44,0-1.09,1.37,1.3,5.07,6.15,7.41,10.57,6.79,2.49-.35,4.63-1.44,6.51-3.08.3-.26.59-.54.84-.77ZM133.13,208.85h14.16c-.06-3.13-3.13-5.94-6.6-6.09-3.58-.16-7.2,2.71-7.56,6.09Z"/>
  <path class="cls-3" d="M466.72,220.09c1.8,1.8,3.55,3.55,5.33,5.33-.54.77-1.29,1.42-2.06,2.05-6.18,4.97-15.65,5.6-22.4,1.45-4.67-2.87-7.21-7.15-7.97-12.49-.65-4.56.09-8.92,2.39-12.95,5.58-9.8,18.58-10.74,25.52-3.88,3.89,3.84,5.6,8.58,5.45,13.98-.08,2.74.24,2.2-2.27,2.21-6.88.03-13.75.01-20.63.01-.43,0-.87,0-1.36,0-.15.49-.05.91.07,1.32,1.02,3.64,3.4,5.91,7.08,6.7,3.81.82,7.08-.47,9.98-2.89.31-.26.59-.54.88-.81ZM463.29,208.85c-.19-3.24-3.2-5.97-6.67-6.09-3.61-.12-7.13,2.7-7.54,6.09h14.2Z"/>
  <path class="cls-3" d="M408.07,198.62c1.98-1.46,3.86-2.46,5.98-2.98,8.92-2.19,18.14,3.45,19.32,12.85.22,1.75.31,3.5.32,5.26.03,5.27,0,10.55,0,15.82,0,.2-.02.4,0,.6.05.54-.13.79-.73.78-2.68-.03-5.36-.02-8.03,0-.52,0-.7-.18-.69-.7.02-1.88.01-3.76,0-5.63,0-4.36-.02-8.71-.02-13.07,0-.89-.12-1.76-.33-2.61-.71-2.88-2.97-4.78-6-5.03-3.65-.29-6.6,1.13-9.08,3.74-.45.47-.43.99-.43,1.55,0,6.75,0,13.51,0,20.26,0,1.71.21,1.47-1.44,1.48-2.24.01-4.48,0-6.71,0-1.34,0-1.24.14-1.24-1.2,0-5.07,0-10.15,0-15.22v-17.26c0-.24.02-.48,0-.72-.04-.46.14-.63.61-.63,2.6.01,5.2.02,7.79,0,.52,0,.71.18.68.7-.03.59,0,1.18,0,2.03Z"/>
  <path class="cls-3" d="M281.9,230.89c-1.77.59-3.49.66-5.2.74-2.12.1-4.23-.13-6.28-.73-5.16-1.5-8.27-5.23-8.88-10.58-.17-1.51-.25-3.02-.25-4.55.01-3.6,0-7.2,0-10.79,0-1.15.18-1.12-1.07-1.12-2.52,0-5.04,0-7.56,0-1.12,0-1.15.15-1.14-1.07,0-1.96,0-3.92,0-5.88,0-.99.01-1,.97-1,2.44,0,4.88,0,7.32,0,.24,0,.48-.02.72,0,.55.06.84-.13.77-.73-.03-.24,0-.48,0-.72,0-2.48,0-4.96,0-7.44,0-.86.02-.88.83-.88,2.6,0,5.2.02,7.8-.02.68-.01.78.25.78.83-.02,2.64-.01,5.28,0,7.92,0,1.02,0,1.03,1.06,1.03,3.16,0,6.32,0,9.48,0,1.1,0,1.01-.09,1.01,1.05,0,2,0,4,0,6,0,.89-.02.9-.94.9-3.16,0-6.32,0-9.48,0-1.32,0-1.13-.05-1.13,1.18,0,4,0,8,0,11.99,0,.72.06,1.44.18,2.15.33,2.12,1.57,3.43,3.67,3.91,1.38.31,2.78.27,4.17.09,1.75-.23,1.74-.22,2.05,1.51.18,1.02.38,2.04.57,3.06.19,1.02.37,2.04.57,3.14Z"/>
  <path class="cls-3" d="M226.4,220.31c2.86,2.3,6.09,3.37,9.69,3.33,1.06,0,2.07-.22,2.97-.8,1.66-1.07,1.77-2.83.26-4.08-.65-.54-1.41-.91-2.19-1.21-1.72-.64-3.45-1.25-5.17-1.88-1.43-.52-2.8-1.15-4.11-1.93-5.92-3.52-5.32-10.68-1.78-14.33,2.36-2.44,5.28-3.72,8.58-4.1,4.44-.51,8.66.41,12.63,2.45.25.13.49.27.72.42.74.49.75.49.25,1.28-1.13,1.74-2.26,3.48-3.39,5.22-.53.81-.54.81-1.34.31-2.09-1.3-4.32-2.04-6.82-1.82-.84.07-1.65.26-2.4.67-1.88,1.03-1.95,2.79-.15,3.92.82.52,1.72.84,2.62,1.16,1.81.63,3.65,1.18,5.41,1.92,1.44.61,2.82,1.32,4.04,2.3,4.61,3.71,4.85,10.59.49,14.65-2.34,2.18-5.19,3.28-8.3,3.65-5.75.69-11-.8-15.82-3.93-.87-.56-.86-.58-.29-1.43,1.21-1.79,2.42-3.57,3.63-5.35.11-.16.21-.34.47-.44Z"/>
  <path class="cls-3" d="M328.41,220.21c2.14,1.79,4.5,2.79,7.11,3.24,1.19.21,2.38.25,3.58.12.89-.09,1.71-.41,2.41-.97,1.23-.99,1.29-2.55.14-3.64-.65-.62-1.44-1.02-2.25-1.34-1.34-.52-2.69-.99-4.05-1.48-1.2-.43-2.41-.85-3.55-1.42-.64-.32-1.28-.66-1.89-1.02-5.79-3.44-5.28-10.6-1.76-14.26,2.01-2.09,4.47-3.37,7.27-3.9,5.07-.97,9.84.03,14.35,2.44.25.13.47.3.71.45.31.19.3.39.11.69-1.29,1.97-2.59,3.94-3.84,5.93-.35.55-.62.27-.96.05-2.11-1.34-4.37-2.13-6.91-1.93-1.01.08-1.98.31-2.82.89-1.45.99-1.47,2.52-.05,3.54.85.61,1.83.96,2.81,1.31,1.81.63,3.64,1.18,5.41,1.92,1.33.56,2.59,1.23,3.77,2.06,4.94,3.48,5.23,10.97.79,14.96-2.34,2.11-5.13,3.23-8.2,3.6-5.84.71-11.16-.8-16.03-4.02-.7-.47-.7-.49-.25-1.16,1.34-1.99,2.68-3.97,4.1-6.06Z"/>
  <path class="cls-3" d="M317.97,205.34c0,8.03,0,16.07,0,24.1,0,.24-.02.48,0,.72.08.65-.22.8-.83.79-2.56-.03-5.12,0-7.68-.02-.88,0-.88-.02-.9-.95,0-.16,0-.32,0-.48,0-16.15,0-32.3,0-48.44,0-1.63-.24-1.4,1.37-1.41,2.36-.01,4.72,0,7.08,0,1.04,0,.95-.05.95.99,0,8.23,0,16.47,0,24.7Z"/>
  <path class="cls-3" d="M54.59,196.01c.55-.19,1.11-.09,1.66-.09,2.2-.01,4.4.01,6.6-.02.57,0,.78.16.75.74-.05.78-.01,1.57-.01,2.28.22.19.31.07.39,0,2.47-2.48,5.53-3.55,8.96-3.72,1.12-.05,2.24-.02,3.35.15.3.04.65.06.59.55-.34,2.73-.67,5.45-1.01,8.26-1.12-.19-2.14-.28-3.17-.29-3.57,0-6.24,1.67-8.36,4.41-.38.48-.38,1.02-.38,1.59,0,5.8,0,11.59,0,17.39,0,1-.02,2,0,3,.01.51-.17.7-.69.7-2.68-.02-5.36-.02-8.04,0-.61,0-.75-.24-.73-.78.03-1,0-2,0-3,0-9.95,0-19.9,0-29.86,0-.43-.08-.87.08-1.31Z"/>
  <path class="cls-3" d="M172.93,213.43c0,5.35,0,10.7,0,16.05,0,.28-.01.56,0,.84.03.47-.19.63-.64.63-2.72-.01-5.43-.02-8.15,0-.53,0-.72-.21-.68-.71.02-.24,0-.48,0-.72,0-10.74,0-21.48,0-32.23,0-.2.02-.4,0-.6-.1-.66.23-.8.82-.79,2.56.02,5.11.01,7.67,0,1.14,0,.97.09.97.99,0,5.51,0,11.02,0,16.53Z"/>
  <path class="cls-3" d="M299.21,213.51c0,5.35,0,10.7,0,16.05,0,.28-.01.56,0,.84.02.43-.2.55-.59.54-.52-.01-1.04,0-1.56,0-2.16,0-4.31-.01-6.47,0-.55,0-.84-.13-.77-.73.02-.2,0-.4,0-.6v-32.47c0-.12,0-.24,0-.36.02-.86.02-.87.82-.88,2.56,0,5.11,0,7.67,0,.91,0,.89,0,.89.95,0,5.31,0,10.62,0,15.93v.72Z"/>
  <path class="cls-3" d="M168.21,177.49c3.46,0,6.16,2.62,6.16,6,0,3.36-2.72,6.01-6.16,6.01-3.43,0-6.18-2.68-6.18-6.01,0-3.36,2.72-6,6.18-6Z"/>
  <path class="cls-3" d="M288.38,183.53c-.01-3.4,2.64-6.02,6.1-6.03,3.47-.01,6.17,2.58,6.19,5.96.02,3.37-2.67,6.04-6.11,6.05-3.45.01-6.16-2.61-6.18-5.98Z"/>
  <path class="cls-2" d="M47.46,123.5c.27-.35.54-.69.8-1.04.15-.19.32-.42.18-.65-.17-.27-.42-.09-.64,0-1.16.44-2.37.67-3.6.89-1.63.29-3-.02-4.32-1.12-3.92-3.27-7.46-6.88-10.49-10.99q-.82-1.11.48-1.7c2.06-.93,4.21-1.49,6.5-1.44,1.12.02,1.87.49,2.42,1.46.99,1.75,1.31,3.67,1.52,5.62.15,1.38.14,1.44,1.47,1.78,3.11.78,6.1.52,8.91-1.11,1.2-.7,1.24-.84.96-2.21-.38-1.88-.63-3.77-.62-5.71,0-3.69,1.7-6.4,4.7-8.39,1-.66,2.07-1.18,3.34-1.8-4.55-1.81-8.12-4.48-9.93-9.32-.65,1.48-.25,2.73-.47,4.14-.62-.89-.9-1.7-1.15-2.52-.58-1.91-.62-3.85-.39-5.82.03-.24.06-.48.1-.71.07-.4-.08-.57-.5-.62-1.23-.12-2.46-.27-3.69-.42-.83-.1-1.65-.28-2.55-.55.57-.65,1.57-.61,2.05-1.47-.66-.23-1.23-.1-1.8,0-2.22.38-4.44.55-6.67.09-.77-.16-1.55-.32-2.29-.8.74-.5,1.59-.73,2.12-1.51-.61-.42-1.19-.08-1.72.02-1.31.24-2.61.38-3.93.15-1.22-.21-2.38-.57-3.43-1.48.8-.22,1.53-.06,2.19-.32.25-.1.58-.14.57-.51,0-.29-.26-.39-.47-.48-1.43-.64-2.75-1.47-4.05-2.33-1.27-.85-2.4-1.86-3.3-3.11-.74-1.04-1.11-2.13-.85-3.47.83-4.41,2.08-8.69,3.86-12.82.38-.88.4-.88,1.19-.41,1.64.98,3.02,2.23,4.07,3.83,1.36,2.06,1.2,3.64-.57,5.35-.57.56-1.19,1.07-1.74,1.65-1.22,1.31-1.1,2.33.34,3.4.65.48,1.37.82,2.12,1.11,4.76,1.82,9.69,2.99,14.7,3.83.62.1,1.31.49,1.87.17.56-.32.47-1.13.69-1.72.66-1.73,1.54-3.34,2.65-4.81.4-.52.33-.83-.1-1.29-2.04-2.23-3.57-4.81-4.33-7.21.82-.1,1.46.64,2.33.48-.08-.61-.54-.87-.92-1.18-1.42-1.18-2.83-2.35-3.92-3.86-.72-.99-1.43-1.99-1.69-3.32.88,0,1.61.68,2.53.34-.27-.66-.85-.9-1.31-1.25-1.33-1-2.46-2.17-3.18-3.68-.34-.72-.67-1.45-.61-2.29.37-.15.48.19.67.33.25.19.48.42.74.6.28.19.59.54.95.26.3-.23.11-.61.02-.9-.34-1.11-.59-2.24-.8-3.38-.24-1.33-.59-2.65-.66-4.01-.08-1.88.49-3.37,2.06-4.57,3.4-2.62,6.96-4.96,10.82-6.85.78-.38.8-.38,1.09.4.71,1.9,1.01,3.85.73,5.88-.26,1.94-1.26,2.97-3.21,3.31-.76.13-1.51.11-2.27.12-.56,0-1.12.05-1.63.31-.95.48-1.33,1.19-1.15,2.26.25,1.47.78,2.85,1.35,4.21,2.17,5.18,4.91,10.04,8.08,14.67.51.75.48.81,1.29.3,2.13-1.37,4.5-2.04,7-2.25.67-.06,1.34-.11,2.08-.56-1.53-.96-3.22-.52-4.94-.9,1.73-1.16,3.46-1.37,5.23-1.31,1.4.05,2.78.27,4.16.51,2.35.41,3.29-.21,3.63-2.57.28-1.91.79-2.06-1.61-1.76-2.06.26-4.13.44-6.14,1.02-.36.1-.59.03-.78-.33-.41-.77-.78-2.37-.71-3.36,1.55.63,3.07.28,4.53-.27,1.36-.51,1.88-1.67,1.45-2.85-.37-1.02-.87-1.41-1.98-1.37-2.06.08-3.67.9-4.51,2.97-.43-.2-.66-.58-.9-.93-.46-.66-.86-1.35-1.12-2.11-.34-1-.76-1.93-1.7-2.51-.07-.04-.11-.11-.17-.17-.98-1.04-.98-1.28.07-2.2,1.27-1.11,2.65-2.06,4.14-2.85.57-.3,1.06-.67,1.51-1.15,1.61-1.73,3.52-3.02,5.81-3.65.54-.15.77-.48,1.05-.88,2.46-3.55,5.99-4.98,10.18-5.2-.02.44-.34.45-.56.54-1,.41-2.01.78-2.99,1.22-.45.2-1.01.31-1.19.9-.04.04-.08.09-.11.13.03,0,.07.02.1,0,.09-.05.08-.1,0-.15.41.29.76-.01,1.11-.12,1.91-.6,3.85-1.02,5.86-1.14,4.27-.26,8.07.93,11.34,3.66,4.22,3.52,6.55,8.07,7.17,13.51.12,1.03.2,2.07.15,3.11,0,.22.07.47-.12.66-.38-.08-.29-.43-.37-.67-.8-2.52-2.24-4.67-3.89-6.69-.29-.36-.31-.34-1.02-.6,0,.9.43,1.62.81,2.34,1.1,2.1,1.91,4.3,2.37,6.63.53,2.7.64,5.39-.12,8.07-.54,1.93-1.61,3.6-2.77,5.24-.09-1.68.14-3.34-.19-4.96-.33-1.57-.57-3.19-1.51-4.76-.52.85-.35,1.58-.25,2.25.22,1.47.23,2.95.16,4.42-.08,1.85-.48,3.64-1.08,5.38-1.01,2.92-2.95,5.08-5.5,6.73-.06-.05-.12-.11-.18-.16.96-2.22,1.53-4.53,1.51-6.97,0-.42.05-.86-.12-1.26-.46,0-.5.33-.58.57-.2.65-.36,1.31-.53,1.96-.75,2.91-2.05,5.54-4.05,7.79-1.08,1.21-2.34,2.16-3.84,2.8-1.36.58-2.72,1.16-4.13,1.61-.51.16-.81.36-.75,1,.52,5.55,2.85,10.09,7.43,13.38.37.27.79.37,1.22.45,1.41.27,2.83.5,4.24.79,3.9.81,7.16,2.68,9.57,5.9.19.26.39.51.69.65,2.29,1.07,4.63,1.47,7.09.67,4.57-1.48,5.29-6.3,3.57-9.11-.96-1.58-2.1-3.02-3.25-4.45-1.56-1.93-3.04-3.91-4.35-6.02-4.86-7.8-.17-17.58,8.78-19.14,5.44-.95,10.77,1.51,13.69,6.17,2.34,3.75,2.84,7.82,2.35,12.1-.06.51-.17,1.02-.27,1.53-.02.11-.1.21-.22.46-.17-1.21-.34-2.28-.7-3.3-.17-.49-.36-.98-.68-1.4-.16-.21-.33-.53-.66-.35-.26.14-.12.42-.08.65.37,1.89.43,3.8.37,5.73-.04,1.6-.46,3.07-1.22,4.46-1.12,2.05-2.52,3.89-4.08,5.62-.07.08-.19.13-.39.25-1.52-2.79-2.87-5.57-2.27-8.85.27-1.48,1.02-2.76,1.8-4.03.37-.6.82-1.15,1.15-2.04-1.35.38-2.06,1.2-2.72,2.09-.63.86-1.07,1.83-1.67,2.96-.59-1.19-.72-2.22-.66-3.3.08-1.45.65-2.7,1.49-3.85,1.1-1.49,2.36-2.84,3.79-3.99,1.47-1.18,1.37-2.8.62-4.06-1.13-1.9-2.76-3.05-4.9-3.55-4.91-1.14-9.99,1.68-11.44,6.38-.8,2.6-.43,5.06.94,7.37,1.36,2.32,3.04,4.41,4.73,6.48,1.11,1.36,2.15,2.77,3.1,4.26,3.11,4.87,1.17,12.35-5.21,14.94-1.99.81-4.04.91-6.13.63-.67-.09-1.33-.21-1.99-.32-.19.38.01.68.12.94,1.14,2.91,3.13,4.87,6.27,5.51.74.15,1.49.28,2.23.46,1.59.39,2.95,1.19,4.17,2.47-.63.26-1.17,0-1.69.05-.42.05-1.03-.09-1.13.43-.11.61.53.7.97.84.61.19,1.24.3,1.86.47.72.19,1.27.61,1.69,1.35-.4.24-.84-.08-1.17.16-.17.42.17.66.35.94.6.95,1.28,1.84,1.82,2.82.72,1.3.5,2.6-.61,3.58-4.31,3.81-9.1,6.9-14.35,9.27-.11.05-.23.06-.4.1-1-2.4-1.37-4.83-.61-7.36.5-1.66,1.51-2.41,3.26-2.48.72-.03,1.44.02,2.16-.03.85-.05,1.67-.21,2.28-.89.6-.67.6-1.2-.02-1.88-1.66-1.82-3.65-3.23-5.74-4.5-.86-.53-1.83-.79-2.85-.84-1.56-.08-3.11.01-4.67.15-2.47.21-4.94.33-7.41-.06-3.75-.59-6.34-2.65-7.89-6.08-.16-.36-.33-.72-.54-1.2-.85.49-1.64,1-2.5,1.4-2.62,1.22-5.41,1.92-8.19,2.69-1,.28-2.01.53-2.95.99-1.91.94-2.69,2.57-2.23,4.66.05.23.07.49.18.69.63,1.07.18,1.93-.42,2.85-1.31,2.01-3.12,3.39-5.31,4.52-.04-.98.76-1.7.61-2.69-.82.18-1.09.91-1.6,1.37-.54.48-1.03,1.01-1.62,1.42-.59.41-1.17.84-2.01,1.1.23-.59.43-1.08.61-1.57.05-.15.07-.32-.06-.45-.19-.18-.38-.05-.52.07-.33.29-.62.62-.97.9-.98.78-2.07,1.36-3.3,1.63-.05-.05-.1-.1-.15-.15ZM82.85,35.38c2.56.29,4.27-.75,4.82-2.79.49-1.81-.49-3.75-2.27-4.51-1.64-.7-3.58-.24-4.39,1.05,2.11-.55,3.3.05,3.98,2,.69,1.99.1,3.24-2.15,4.25ZM65.37,32.76c.41.16.62.02.84-.07.82-.32,1.58-.44,2.31.29.44.44,1.1.43,1.71.32.72-.13,1.15-.53,1.24-1.12.09-.62-.26-1.24-.89-1.55-.61-.3-1.26-.26-1.87-.07-1.28.39-2.33,1.15-3.33,2.2ZM65.19,32.94l-.05.05h.07s-.03-.05-.03-.05Z"/>
  <path class="cls-2" d="M61.2,42.67c-1.44-.12-2.64.45-3.76,1.27-.51.38-1.03.75-1.56,1.11-1.75,1.17-3.42.91-4.95-.87,1.54.32,2.7-.33,3.85-1.04.58-.35,1.16-.7,1.73-1.06,1.6-1.02,3.64-.61,4.68.61h0Z"/>
  <path class="cls-2" d="M88.68,66.34c-.09.08-.17.28-.3.16-.11-.1-.02-.26.12-.33.06.05.12.11.18.16Z"/>
  <polygon class="cls-2" points="61.19 42.69 61.21 42.72 61.2 42.67 61.19 42.69"/>
  <path class="cls-2" d="M47.61,123.64c-.08.08-.2.15-.28.05-.1-.12.05-.16.13-.2.05.05.1.1.15.15Z"/>
  <path class="cls-2" d="M19.09,211.01c2.11-4.92,4.18-9.73,6.37-14.83,2.19,5.08,4.26,9.91,6.37,14.83h-12.75Z"/>
  <path class="cls-2" d="M92.1,213.44c0-1.52,0-3.03,0-4.55,0-.4.02-.77.3-1.11,3.03-3.67,7.92-4.75,11.55-3.33,3.26,1.28,5.05,3.84,5.62,7.2.53,3.13-.12,6.05-2.35,8.45-2.86,3.08-7.64,3.74-11.57,1.64-.56-.3-1.1-.66-1.6-1.04-1.32-1.01-2.3-2.14-1.98-4.03.18-1.05.03-2.15.03-3.23Z"/>
  <path class="cls-2" d="M206.42,213.44c0,1.52-.02,3.03,0,4.55,0,.51-.16.91-.48,1.3-2.54,3.11-7.13,4.46-10.94,3.18-2.57-.86-4.4-2.56-5.42-5.06-1.18-2.88-1.08-5.78.29-8.58,1.98-4.05,6.28-5.85,10.81-4.59,2.05.57,3.77,1.67,5.21,3.25.37.41.55.83.54,1.39-.03,1.52-.01,3.03-.01,4.55Z"/>
  <path class="cls-2" d="M133.13,208.85c.36-3.38,3.98-6.25,7.56-6.09,3.47.15,6.54,2.96,6.6,6.09h-14.16Z"/>
  <path class="cls-2" d="M463.29,208.85h-14.2c.41-3.39,3.93-6.22,7.54-6.09,3.46.12,6.48,2.85,6.67,6.09Z"/>
  <path class="cls-1" d="M82.85,35.38c2.26-1,2.84-2.26,2.15-4.25-.68-1.95-1.87-2.55-3.98-2,.81-1.29,2.74-1.75,4.39-1.05,1.78.76,2.75,2.7,2.27,4.51-.55,2.04-2.26,3.08-4.82,2.79Z"/>
  <path class="cls-1" d="M65.37,32.76c1-1.05,2.05-1.81,3.33-2.2.61-.19,1.26-.22,1.87.07.63.31.99.93.89,1.55-.09.59-.52.99-1.24,1.12-.61.11-1.26.12-1.71-.32-.73-.73-1.49-.61-2.31-.29-.22.09-.43.23-.84.07Z"/>
  <path class="cls-1" d="M76.53,23.26c.08.05.09.11,0,.15-.02.01-.06,0-.1,0,.04-.04.08-.09.11-.13,0,0-.02-.01-.02-.01Z"/>
  <polygon class="cls-1" points="65.19 32.94 65.21 33.01 65.14 32.99 65.19 32.94"/>
</svg>
