<?xml version="1.0" encoding="UTF-8"?>
<svg id="Layer_1" data-name="Layer 1" xmlns="http://www.w3.org/2000/svg" viewBox="0 0 1917 1919.88">
  <defs>
    <style>
      .cls-1 {
        fill: #324947;
      }
    </style>
  </defs>
  <path class="cls-1" d="M959.91,571.08l-25.05-271.62-25.05-271.62c-.69-7.49,1.9-14.43,6.55-19.5,4.65-5.07,11.35-8.28,18.87-8.3h46.08c7.52-.02,14.24,3.18,18.91,8.27,4.68,5.08,7.31,12.05,6.66,19.54l-23.49,271.62-23.49,271.62Z"/>
  <path class="cls-1" d="M589.41,839.07l-265.93-60.07-265.93-60.07c-7.33-1.66-13.17-6.28-16.59-12.28-3.42-6-4.44-13.37-2.14-20.53l7.06-21.93,7.06-21.93c2.3-7.16,7.43-12.56,13.71-15.43s13.72-3.23,20.64-.3l251.06,106.27,251.06,106.27Z"/>
  <path class="cls-1" d="M729.79,1274.25l-139.31,234.35-139.31,234.35c-3.84,6.46-10.04,10.58-16.81,11.99-6.76,1.4-14.09,.09-20.19-4.31l-18.68-13.49-18.68-13.49c-6.1-4.4-9.65-10.94-10.44-17.81s1.17-14.04,6.09-19.72l178.65-205.94,178.65-205.94Z"/>
  <path class="cls-1" d="M1187.05,1275.21l179.84,204.91,179.84,204.91c4.96,5.65,6.96,12.82,6.21,19.69s-4.27,13.43-10.34,17.87l-18.6,13.6-18.6,13.6c-6.07,4.44-13.39,5.79-20.16,4.43s-13-5.45-16.88-11.89l-140.65-233.55-140.65-233.55Z"/>
  <path class="cls-1" d="M845.65,802.58l-237.56-283.8L370.53,234.98c-4.75-5.68-6.61-12.77-5.78-19.54,.83-6.77,4.34-13.21,10.32-17.57l19.12-13.95,19.12-13.95c5.98-4.36,13.18-5.74,19.88-4.47s12.89,5.21,16.85,11.47l197.81,312.81,197.81,312.81Z"/>
  <path class="cls-1" d="M1329.27,840.63l250.45-107.71,250.45-107.71c6.91-2.97,14.34-2.66,20.64,.18s11.45,8.21,13.8,15.35l7.18,21.89,7.18,21.89c2.34,7.14,1.37,14.52-2.02,20.54s-9.2,10.68-16.52,12.38l-265.58,61.6-265.58,61.6Z"/>
  <path class="cls-1" d="M774.28,1019.27l-343.32,138.24-343.32,138.24c-6.87,2.77-14.19,2.34-20.37-.54-6.18-2.88-11.22-8.21-13.52-15.24l-7.36-22.49-7.36-22.49c-2.3-7.04-1.39-14.31,1.89-20.29s8.94-10.65,16.11-12.48l358.63-91.47,358.63-91.47Z"/>
  <path class="cls-1" d="M958.3,1154.11l25.38,369.24,25.38,369.24c.51,7.39-2.16,14.22-6.81,19.21-4.65,4.99-11.27,8.13-18.68,8.15h-47.33c-7.4,.02-14.04-3.13-18.71-8.12-4.67-5-7.37-11.84-6.89-19.23l23.83-369.24,23.83-369.24Z"/>
  <path class="cls-1" d="M1143.41,1020.76l359.01,89.96,359.01,89.96c7.18,1.8,12.85,6.45,16.16,12.41s4.25,13.23,1.98,20.28l-7.27,22.52-7.27,22.52c-2.27,7.05-7.29,12.4-13.46,15.3-6.17,2.9-13.49,3.36-20.37,.63l-343.9-136.8-343.9-136.8Z"/>
  <path class="cls-1" d="M1073.79,803.51l196.5-313.63,196.5-313.63c3.93-6.27,10.11-10.23,16.8-11.54s13.9,.05,19.9,4.39l19.18,13.87,19.18,13.87c6,4.34,9.54,10.76,10.39,17.53s-.97,13.87-5.7,19.56l-236.37,284.79-236.37,284.79Z"/>
  <path class="cls-1" d="M1034.55,725.08l82.62-333.66,82.62-333.66c1.79-7.21,6.44-12.91,12.42-16.23,5.98-3.32,13.27-4.26,20.34-1.97l22.38,7.27,22.38,7.27c7.07,2.3,12.41,7.35,15.3,13.55s3.3,13.54,.51,20.43l-129.28,318.5-129.28,318.5Z"/>
  <path class="cls-1" d="M882.8,1192.1l-82.62,333.66-82.62,333.66c-1.79,7.21-6.44,12.91-12.42,16.23-5.98,3.32-13.27,4.26-20.34,1.97l-22.38-7.27-22.38-7.27c-7.07-2.3-12.41-7.35-15.3-13.55-2.88-6.2-3.3-13.54-.51-20.43l129.28-318.5,129.28-318.5Z"/>
  <path class="cls-1" d="M882.8,725.08l-129.28-318.5L624.24,88.08c-2.79-6.88-2.37-14.23,.51-20.43s8.23-11.25,15.3-13.55l22.38-7.27,22.38-7.27c7.07-2.3,14.36-1.35,20.34,1.97,5.98,3.32,10.63,9.02,12.42,16.23l82.62,333.66,82.62,333.66Z"/>
  <path class="cls-1" d="M1034.55,1192.1l129.28,318.5,129.28,318.5c2.79,6.88,2.37,14.23-.51,20.43-2.88,6.2-8.23,11.25-15.3,13.55l-22.38,7.27-22.38,7.27c-7.07,2.3-14.36,1.35-20.34-1.97-5.98-3.32-10.63-9.02-12.42-16.23l-82.62-333.66-82.62-333.66Z"/>
  <path class="cls-1" d="M760.04,814.27l-291.8-181.68L176.44,450.91c-6.31-3.93-10.28-10.12-11.59-16.83-1.31-6.71,.05-13.94,4.41-19.95l13.83-19.04,13.83-19.04c4.37-6.01,10.82-9.54,17.61-10.36s13.9,1.04,19.59,5.83l262.96,221.38,262.96,221.38Z"/>
  <path class="cls-1" d="M1157.31,1102.9l291.8,181.68,291.8,181.68c6.31,3.93,10.28,10.12,11.59,16.83,1.31,6.71-.05,13.94-4.41,19.95l-13.83,19.04-13.83,19.04c-4.37,6.01-10.82,9.54-17.61,10.36-6.79,.83-13.9-1.04-19.59-5.83l-262.96-221.38-262.96-221.38Z"/>
  <path class="cls-1" d="M713.15,958.59l-342.86,24.53-342.86,24.53c-7.41,.53-14.27-2.14-19.27-6.8s-8.16-11.31-8.16-18.74v-47.06c0-7.43,3.15-14.08,8.16-18.74s11.86-7.33,19.27-6.8l342.86,24.53,342.86,24.53Z"/>
  <path class="cls-1" d="M1204.21,958.59l342.86-24.53,342.86-24.53c7.41-.53,14.27,2.14,19.27,6.8s8.16,11.31,8.16,18.74v47.06c0,7.43-3.15,14.08-8.16,18.74-5,4.66-11.86,7.33-19.27,6.8l-342.86-24.53-342.86-24.53Z"/>
  <path class="cls-1" d="M760.04,1102.9l-262.96,221.38-262.96,221.38c-5.68,4.78-12.8,6.66-19.59,5.83-6.79-.83-13.24-4.35-17.61-10.36l-13.83-19.04-13.83-19.04c-4.37-6.01-5.72-13.24-4.41-19.95,1.31-6.71,5.29-12.9,11.59-16.83l291.8-181.68,291.8-181.68Z"/>
  <path class="cls-1" d="M1157.31,814.27l262.96-221.38,262.96-221.38c5.68-4.78,12.8-6.66,19.59-5.83s13.24,4.35,17.61,10.36l13.83,19.04,13.83,19.04c4.37,6.01,5.72,13.24,4.41,19.95s-5.29,12.9-11.59,16.83l-291.8,181.68-291.8,181.68Z"/>
</svg>