<svg width="27" height="42" viewBox="0 0 27 42" fill="none" xmlns="http://www.w3.org/2000/svg">
<path d="M26.04 24.01C25.83 24.8 25.5 25.55 25.05 26.23C24.61 27.13 21.63 30.93 21.41 31.23C21.41 31.23 21.41 31.24 21.41 31.25C21.48 31.57 21.45 31.89 21.35 32.2C21.3 32.34 21.2 32.45 21.07 32.52C21.02 32.56 20.96 32.57 20.9 32.55C20.86 32.51 20.94 32.49 20.95 32.44C20.99 32.32 20.98 32.2 20.91 32.09C20.88 32.05 20.85 32.02 20.82 31.99C20.81 31.99 20.79 31.99 20.78 31.99C19.24 34.25 18.57 37.15 19.97 38.45C20.25 38.75 20.63 38.94 21.04 38.97C21.04 38.97 22.69 39.01 22.86 38.06C22.88 37.92 22.84 37.78 22.77 37.67C22.63 37.44 22.45 37.23 22.24 37.07L22.2 37.04C21.71 36.64 21.44 36.9 21.35 37.01C21.35 37.01 21.35 37.01 21.34 37.01C21.33 37.01 21.31 37.01 21.3 37C21.28 36.96 21.27 36.93 21.27 36.89C21.31 36.18 22.35 35.95 22.7 35.88C23.05 35.81 23.41 36.16 23.63 35.68C23.76 35.45 23.93 35.25 24.13 35.08C24.27 34.94 24.39 34.78 24.48 34.61C24.48 34.61 24.48 34.61 24.49 34.6C24.5 34.6 24.52 34.6 24.53 34.62C24.78 35.28 24.81 36 24.61 36.68C24.55 36.88 24.47 37.08 24.39 37.27C24.35 37.37 24.3 37.46 24.24 37.55C24.13 37.74 24 37.92 23.86 38.09C23.7 38.27 23.53 38.45 23.35 38.61C22.69 39.37 21.75 39.83 20.75 39.87C20.07 39.86 19.43 39.56 18.97 39.05C16.43 36.24 17.75 31.06 17.83 30.79C17.91 30.52 18.03 30.07 18.03 30.07C18.03 30.07 18.05 30.02 18.07 29.95C18.09 29.86 18.05 29.76 17.97 29.7C17.93 29.67 17.88 29.64 17.83 29.63C17.71 29.6 17.59 29.63 17.49 29.7C17.45 29.73 17.45 29.8 17.4 29.78C17.36 29.73 17.35 29.67 17.37 29.62C17.4 29.48 17.48 29.35 17.59 29.25C17.85 29.05 18.16 28.93 18.49 28.9H18.52C19.74 26.82 21.43 25.07 23.46 23.79C24.21 23.29 25.1 23.03 26 23.05C26.21 23.19 24.55 24.94 24.88 25.23C25 25.34 25.62 24.47 25.86 23.85C25.91 23.73 26.05 23.78 26.05 24.01H26.04ZM24.18 24.78C24.18 24.58 24.02 24.42 23.82 24.42C23.62 24.42 23.46 24.58 23.46 24.78C23.46 24.98 23.62 25.14 23.82 25.14C24.02 25.14 24.18 24.98 24.18 24.78ZM23.81 24.6C23.71 24.6 23.63 24.68 23.63 24.78C23.63 24.88 23.71 24.96 23.81 24.96C23.91 24.96 23.99 24.88 23.99 24.78C23.99 24.68 23.91 24.6 23.81 24.6ZM15.6 24.38C15.82 24.44 16.05 24.39 16.22 24.25C16.4 24.1 16.6 23.33 15.91 23.18C15.24 23.03 15.13 23.43 14.56 23.44C13.99 23.45 14.02 23 14.04 22.67C14.04 22.45 13.93 22.24 13.75 22.11C13.89 22.3 13.91 22.56 13.81 22.77C13.7 23.11 13.81 23.48 14.1 23.7C14.41 23.89 14.79 23.89 15.1 23.71C15.35 23.57 15.92 23.31 16.04 23.83C16.16 24.35 15.58 24.37 15.58 24.37L15.6 24.38ZM17.04 22.19C17.04 22.19 16.67 22.37 16.2 21.91C15.72 21.44 15.23 21.51 15.19 21.95C15.15 22.38 15.59 22.95 14.78 22.99C14.78 22.99 15.38 23.1 15.46 22.75C15.54 22.41 15.28 21.9 15.71 21.91C16.08 21.91 16.36 22.58 17.04 22.19ZM4.28999 19.84C4.28999 19.84 1.17999 10.7 1.19999 9.76001C1.21999 8.81001 2.01998 8.45001 3.23998 8.36001C4.34999 8.28001 5.46999 8.43001 6.51999 8.80001C6.78999 8.52001 7.15999 8.38001 7.54999 8.40001C9.19999 8.40001 10.85 8.63001 12.43 9.09001V8.06001C11.56 7.94001 10.88 7.26001 10.76 6.39001C10.61 5.31001 11.35 4.32001 12.43 4.17001V2.47001H10.75V1.87001H12.43V0.200012H12.98V1.87001H14.66V2.47001H12.98V4.17001C13.85 4.29001 14.54 4.98001 14.66 5.85001C14.81 6.93001 14.06 7.92001 12.98 8.07001V9.10001C14.57 8.64001 16.21 8.41001 17.86 8.41001C18.24 8.38001 18.62 8.53001 18.89 8.80001C19.94 8.43001 21.06 8.28001 22.17 8.36001C23.39 8.45001 24.19 8.82001 24.21 9.76001C24.23 10.7 21.12 19.84 21.12 19.84H4.28999ZM18.41 12.72C19.21 12.72 19.34 13.03 19.31 13.28C19.27 13.58 18.27 14.56 18.12 14.73C17.96 14.89 18.07 14.98 18.12 14.97C18.17 14.95 18.24 14.97 18.84 14.42C19.44 13.85 19.65 14.26 19.61 14.72C19.57 15.18 19.27 16.45 18.84 16.4C18.41 16.35 18.15 15.7 18.1 15.57C18.04 15.44 17.98 15.34 17.84 15.72C17.72 16.15 17.74 16.61 17.9 17.02C18.05 17.36 18.42 17.54 19.69 17.54C20.84 17.59 21.83 16.74 21.95 15.6C22.03 15.19 21.77 15.45 21.65 15.6C21.53 15.75 20.91 16.58 20.63 16.3C20.35 15.62 20.39 14.84 20.74 14.2C21.24 13.7 21.75 15.24 21.95 15.03C22.18 14.8 21.1 13.85 21.31 13.25C21.51 12.65 22.6 12.92 22.6 12.92L22.55 12.9C22.55 12.9 23.17 11.11 23.32 10.37C23.42 10.05 23.37 9.70001 23.17 9.42001C22.79 9.08001 22.28 8.93001 21.77 8.99001C20.24 8.99001 19.48 9.19001 19.22 9.64001C19.1 9.85001 18.63 11.74 18.39 12.72H18.41ZM14.39 16.09C14.22 16.6 13.79 16.36 13.62 16.22C13.49 16.1 13.05 15.38 12.94 15.43C12.87 15.46 12.8 15.59 12.93 16.29C13.06 16.99 13.26 17.3 13.54 17.43C14 17.53 14.47 17.57 14.94 17.55C15.47 17.63 16.01 17.55 16.5 17.34C16.88 16.99 17.19 16.56 17.39 16.08C17.47 15.89 17.61 15.39 17.51 15.39C17.41 15.38 16.9 16.26 16.52 16.26C16.39 16.26 16.1 16.03 16.1 15.22C16.1 13.87 16.48 14.05 16.63 14.09C16.78 14.14 17.47 14.95 17.58 14.92C17.7 14.89 17.64 14.68 17.64 14.68C17.38 14.16 17.19 13.61 17.09 13.04C17.15 12.66 17.87 12.71 17.87 12.71H17.81C18.03 11.65 18.19 10.59 18.3 9.52001C18.28 9.31001 18 9.21001 17.77 9.16001C17.22 9.08001 16.66 9.07001 16.1 9.16001C15.02 9.27001 13.55 9.46001 13.26 9.80001C13.04 10.75 12.95 11.73 12.99 12.71H12.93C13.71 12.78 13.73 13.07 13.73 13.27C13.47 13.76 13.18 14.24 12.87 14.7C12.84 14.84 12.97 15.04 13.17 14.85C13.37 14.66 13.91 14.19 14.28 14.36C14.65 14.52 14.54 15.59 14.36 16.1L14.39 16.09ZM7.07999 9.52001C7.18999 10.59 7.34998 11.65 7.56998 12.7H7.50999C7.50999 12.7 8.22999 12.66 8.28999 13.04C8.18999 13.61 7.99998 14.17 7.73998 14.68C7.73998 14.68 7.68999 14.89 7.79999 14.92C7.91999 14.95 8.59999 14.14 8.74999 14.09C8.90999 14.04 9.27999 13.87 9.27999 15.22C9.27999 16.03 8.99999 16.26 8.85999 16.26C8.47999 16.26 7.96999 15.38 7.86999 15.39C7.76999 15.39 7.90998 15.89 7.98998 16.08C8.18998 16.56 8.49999 16.99 8.87999 17.34C9.36999 17.55 9.90999 17.62 10.44 17.55C10.91 17.57 11.38 17.53 11.85 17.43C12.13 17.29 12.34 16.99 12.46 16.29C12.59 15.59 12.51 15.46 12.45 15.43C12.34 15.38 11.9 16.11 11.77 16.22C11.6 16.37 11.18 16.6 11 16.09C10.83 15.58 10.71 14.52 11.08 14.35C11.45 14.19 11.99 14.65 12.19 14.84C12.39 15.03 12.52 14.84 12.49 14.69C12.18 14.23 11.89 13.75 11.63 13.26C11.63 13.06 11.65 12.77 12.43 12.7H12.37C12.41 11.72 12.32 10.75 12.09 9.79001C11.8 9.45001 10.33 9.26001 9.24999 9.15001C7.80999 9.00001 7.32999 9.20001 7.16999 9.33001C7.10999 9.37001 7.06999 9.44001 7.05999 9.52001H7.07999ZM5.69999 17.53C6.96999 17.53 7.34998 17.35 7.48998 17.01C7.65998 16.59 7.67999 16.14 7.54999 15.71C7.40999 15.34 7.33999 15.44 7.28999 15.56C7.22999 15.69 6.96999 16.34 6.53999 16.39C6.10999 16.44 5.80999 15.16 5.77999 14.71C5.73999 14.26 5.94999 13.85 6.54999 14.41C7.14999 14.97 7.21999 14.95 7.26999 14.96C7.32999 14.98 7.42999 14.89 7.26999 14.72C7.11999 14.56 6.11999 13.57 6.07999 13.27C6.04999 13.02 6.16999 12.7 6.97999 12.71C6.73999 11.73 6.26999 9.83001 6.15999 9.63001C5.89999 9.17001 5.12999 8.98001 3.60999 8.98001C3.09999 8.92001 2.58999 9.07001 2.20999 9.41001C2.01999 9.69001 1.95999 10.04 2.05999 10.36C2.20999 11.1 2.81999 12.87 2.81999 12.89L2.75999 12.91C2.75999 12.91 3.84999 12.64 4.05999 13.24C4.25999 13.84 3.17999 14.79 3.41999 15.02C3.61999 15.23 4.12999 13.69 4.62999 14.19C4.97999 14.84 5.01998 15.61 4.73998 16.29C4.45998 16.57 3.83999 15.74 3.71999 15.59C3.59999 15.44 3.33999 15.18 3.41999 15.59C3.54999 16.73 4.53999 17.58 5.67999 17.53H5.69999ZM15.18 26C15.45 26.18 15.71 26.38 15.96 26.59C16.36 26.87 16.8 27.11 17.26 27.29C17.35 27.31 17.43 27.32 17.52 27.31C17.55 27.31 17.58 27.29 17.6 27.26C17.85 27.09 18.09 26.89 18.3 26.67C18.44 26.5 18.74 26.11 18.88 25.94C19.01 25.78 19.29 25.47 19.41 25.3C19.48 25.23 19.58 25.18 19.68 25.16C19.76 25.15 19.83 25.13 19.91 25.13C19.95 25.13 20 25.12 20.04 25.11C20.08 25.09 20.11 25.05 20.15 25.01C20.15 25.01 20.24 24.98 20.28 24.98C20.38 24.97 20.46 24.96 20.55 24.94C20.59 24.94 20.65 24.92 20.68 24.89C20.73 24.83 20.68 24.77 20.61 24.75C20.54 24.74 20.47 24.74 20.39 24.75C20.34 24.75 20.28 24.77 20.23 24.77C20.22 24.77 20.18 24.77 20.18 24.77C20.18 24.75 20.22 24.7 20.23 24.68C20.25 24.65 20.27 24.62 20.29 24.59C20.31 24.56 20.33 24.53 20.35 24.5C20.35 24.5 20.36 24.48 20.37 24.47C20.38 24.44 20.41 24.41 20.43 24.39H20.44C20.44 24.39 20.47 24.35 20.49 24.33C20.53 24.3 20.56 24.31 20.6 24.3C20.61 24.3 20.62 24.3 20.64 24.29C20.65 24.29 20.66 24.28 20.68 24.27C20.69 24.27 20.71 24.28 20.72 24.28C20.75 24.28 20.78 24.28 20.8 24.27C20.83 24.27 20.86 24.25 20.88 24.23C20.88 24.21 20.88 24.19 20.88 24.18C20.86 24.16 20.82 24.18 20.8 24.18C20.77 24.18 20.74 24.18 20.72 24.16C20.75 24.14 20.78 24.14 20.81 24.11C20.84 24.09 20.88 24.06 20.9 24.03C20.92 24 20.95 23.99 20.99 23.98C21 23.98 21.02 23.97 21.03 23.96C21.09 23.91 21.06 23.84 21 23.86C21 23.84 20.97 23.84 20.95 23.84C20.93 23.84 20.91 23.87 20.89 23.87C20.86 23.88 20.82 23.87 20.78 23.89C20.74 23.9 20.71 23.91 20.67 23.92C20.63 23.92 20.6 23.94 20.56 23.95C20.52 23.95 20.48 23.97 20.45 24C20.42 24.02 20.38 24.05 20.35 24.07C20.32 24.1 20.28 24.12 20.25 24.15C20.18 24.19 20.11 24.24 20.05 24.29C19.94 24.44 19.81 24.58 19.67 24.71C19.56 24.79 19.43 24.85 19.29 24.88C19.17 24.93 19.06 25.01 18.99 25.12C18.69 25.44 18.37 25.74 18.02 26.01C17.9 26.09 17.6 26.28 17.39 26.42C17.35 26.44 17.31 26.44 17.28 26.42C17.19 26.34 17.09 26.21 17.01 26.14C16.88 26.02 16.48 25.69 16.36 25.59C16.23 25.47 16.12 25.35 16.01 25.22C15.87 25.07 15.72 24.92 15.57 24.78C15.13 24.39 14.41 24.55 14.25 24.41C13.83 24.13 13.54 23.69 13.44 23.19C13.44 22.88 13.81 21.86 13.46 21.46C13.22 21.14 12.85 20.95 12.44 20.94C11.08 20.94 10.96 21.57 10.79 21.88C10.58 22.27 10.48 22.01 10.41 21.81C10.37 21.7 10.32 21.6 10.25 21.52C9.94999 21.22 9.65999 21.81 9.65999 21.81C10.2 21.38 10.11 21.74 10.38 22.23C10.64 22.72 10.95 22.29 11.05 22.13C11.15 21.97 11.22 21.84 11.22 21.84L11.2 21.95C11.2 22.01 11.2 22.07 11.2 22.13C11.2 22.15 11.2 22.18 11.2 22.2C11.2 22.26 11.2 22.31 11.22 22.37C11.24 22.43 11.26 22.49 11.29 22.55L11.31 22.61C11.31 22.61 11.33 22.7 11.33 22.75C11.33 22.8 11.33 22.85 11.31 22.89C11.29 22.95 11.27 23.01 11.24 23.07C11.21 23.12 11.21 23.14 11.21 23.17C11.21 23.19 11.23 23.21 11.25 23.22C11.28 23.23 11.32 23.24 11.35 23.25C11.38 23.25 11.42 23.25 11.43 23.29C11.43 23.31 11.43 23.32 11.43 23.34C11.43 23.34 11.4 23.42 11.43 23.45C11.44 23.46 11.46 23.47 11.47 23.47C11.48 23.47 11.49 23.47 11.5 23.49C11.5 23.49 11.48 23.52 11.48 23.53C11.48 23.53 11.45 23.62 11.54 23.63C11.57 23.63 11.59 23.65 11.6 23.68C11.61 23.7 11.62 23.73 11.61 23.75C11.6 23.81 11.61 23.87 11.66 23.92C11.68 23.94 11.7 23.96 11.73 23.97C11.76 23.99 11.8 24 11.84 24C11.92 24 12 23.97 12.08 23.94C12.27 23.85 12.45 23.71 12.55 23.82C12.67 23.96 12.88 24.49 11.67 24.62C11.41 24.61 11.14 24.65 10.9 24.74C10.84 24.76 10.78 24.8 10.73 24.84C10.57 24.96 10.43 25.1 10.29 25.25C10.29 25.25 10.02 25.53 9.89999 25.63C9.77999 25.73 9.37999 26.06 9.24999 26.18C9.14999 26.27 9.01999 26.44 8.91999 26.51C8.70999 26.38 8.34999 26.16 8.21999 26.07C7.86999 25.8 7.54999 25.5 7.24999 25.18C7.17999 25.07 7.06999 24.98 6.94999 24.94C6.80999 24.91 6.68999 24.85 6.56999 24.76C6.42999 24.64 6.29999 24.5 6.18999 24.34C6.12999 24.28 6.05998 24.23 5.98998 24.2C5.95998 24.18 5.91999 24.15 5.88999 24.12C5.85999 24.09 5.81999 24.07 5.78999 24.05C5.75999 24.02 5.71999 24.01 5.67999 24C5.63999 24 5.60999 23.98 5.56999 23.97C5.52999 23.97 5.49999 23.95 5.45999 23.94C5.41999 23.93 5.37999 23.94 5.34999 23.92C5.32999 23.92 5.30999 23.89 5.28999 23.89C5.27999 23.89 5.24998 23.89 5.23998 23.91C5.17998 23.89 5.14999 23.97 5.20999 24.01C5.21999 24.01 5.22999 24.03 5.24999 24.03C5.27999 24.03 5.30999 24.06 5.33999 24.08C5.36999 24.11 5.39999 24.14 5.42999 24.16C5.45999 24.18 5.48999 24.18 5.51999 24.21C5.48999 24.22 5.46999 24.23 5.43999 24.23C5.41999 24.23 5.37999 24.23 5.35999 24.23C5.34999 24.24 5.33999 24.26 5.35999 24.28C5.37999 24.3 5.40999 24.32 5.43999 24.32C5.46999 24.32 5.49999 24.32 5.51999 24.33C5.53999 24.33 5.54999 24.32 5.55999 24.32C5.56999 24.32 5.57999 24.32 5.59999 24.34C5.60999 24.34 5.61999 24.34 5.63999 24.35C5.67999 24.35 5.71999 24.35 5.74999 24.38C5.76999 24.39 5.77999 24.41 5.79999 24.43H5.80999C5.80999 24.43 5.85999 24.49 5.86999 24.52C5.86999 24.53 5.87999 24.54 5.88999 24.55C5.90999 24.58 5.92999 24.61 5.94999 24.64C5.96999 24.67 5.99999 24.7 6.00999 24.73C6.01999 24.75 6.06999 24.81 6.05999 24.82C6.05999 24.82 6.01999 24.83 6.00999 24.82C5.95999 24.82 5.89999 24.81 5.84999 24.8C5.77999 24.79 5.70999 24.79 5.62999 24.8C5.56999 24.82 5.50999 24.88 5.55999 24.94C5.58999 24.97 5.64999 24.98 5.68999 24.99C5.77999 25.01 5.85999 25.02 5.95999 25.03C6.00999 25.03 6.04999 25.04 6.08999 25.06C6.08999 25.06 6.15999 25.15 6.19999 25.16C6.23999 25.17 6.28999 25.18 6.32999 25.18C6.40999 25.18 6.47999 25.2 6.55999 25.21C6.65999 25.23 6.75999 25.27 6.82999 25.35C6.94999 25.52 7.21998 25.83 7.35998 25.99C7.49998 26.15 7.78998 26.54 7.93998 26.72C8.14998 26.94 8.37999 27.14 8.63999 27.31C8.64999 27.33 8.66999 27.34 8.68999 27.35C8.78999 27.35 8.88999 27.35 8.97999 27.33C9.43999 27.18 9.87999 26.96 10.27 26.68C10.27 26.68 10.77 26.23 10.88 26.15C10.98 26.07 11.1 26.03 11.22 26.04C11.28 26.04 11.34 26.06 11.39 26.09C11.53 26.18 11.56 26.4 11.41 26.69C11.41 26.69 11.41 26.69 11.41 26.7C11.16 27.07 11.26 27.57 11.63 27.82C11.63 27.82 11.64 27.82 11.64 27.83C11.65 27.93 11.67 28.08 11.72 28.33C11.74 28.43 11.76 28.55 11.79 28.7C11.86 29.28 11.41 29.67 10.84 30.9C10.16 32.37 10.38 35.73 10.38 35.73C10.46 36.87 10.7 37.99 11.1 39.06C11.65 40.75 13.37 42.23 15.11 41.86C15.64 41.7 16.1 41.33 16.37 40.84C16.57 40.51 16.69 40.14 16.74 39.76C16.77 39.5 16.8 39.26 16.81 39.04C16.81 38.82 16.81 38.6 16.77 38.38C16.76 38.28 16.74 38.17 16.71 38.07C16.64 37.77 16.53 37.49 16.4 37.22C16.31 37.04 16.21 36.87 16.1 36.7C16.04 36.62 15.97 36.55 15.9 36.47C15.83 36.37 15.75 36.28 15.66 36.19C15.59 36.14 15.52 36.1 15.45 36.06C15.37 36.01 15.29 35.97 15.23 35.94L15.17 35.92C15.17 35.92 15.12 35.96 15.11 35.99C15.13 36.12 15.14 36.25 15.14 36.38C15.15 36.52 15.22 36.62 15.19 36.77C15.14 36.95 15.12 37.14 15.13 37.33C15.13 37.68 14.69 37.93 14.69 37.93C14.56 38.02 14.46 38.13 14.38 38.26C14.36 38.29 14.33 38.31 14.31 38.34C14.29 38.37 14.27 38.4 14.25 38.43C14.06 38.7 13.95 39.01 13.92 39.34C13.92 39.49 13.96 39.63 14.05 39.75C14.08 39.81 14.13 39.84 14.19 39.84C14.24 39.82 14.19 39.77 14.19 39.72C14.19 39.6 14.26 39.49 14.37 39.42C14.42 39.39 14.47 39.37 14.53 39.36C14.56 39.36 14.58 39.33 14.61 39.32C14.7 39.3 14.79 39.29 14.88 39.29C15.17 39.29 15.45 39.33 15.72 39.42C15.85 39.48 15.96 39.56 16.04 39.67C16.18 39.79 16.25 39.98 16.2 40.16C16.17 40.32 16.1 40.48 15.99 40.6C15.95 40.64 15.9 40.68 15.85 40.72C15.55 40.91 15.21 41.02 14.86 41.04C14.54 41.04 14.24 40.91 14.03 40.68C13.36 40 13.29 39.33 13.34 37.99C13.41 36.83 13.67 35.69 14.13 34.62C14.13 34.62 15.42 32.29 14.79 30.78C14.31 29.63 14.08 29.37 14.18 28.92C14.33 28.52 14.42 28.23 14.47 28.05C14.49 27.98 14.51 27.91 14.52 27.86C14.52 27.84 14.55 27.82 14.57 27.81C14.72 27.76 15.18 27.45 14.87 26.68C14.66 26.17 14.94 25.91 15.18 26.03V26ZM2.31999 24.6C2.21999 24.6 2.13999 24.68 2.13999 24.78C2.13999 24.88 2.21999 24.96 2.31999 24.96C2.41999 24.96 2.49999 24.88 2.49999 24.78C2.49999 24.68 2.41999 24.6 2.31999 24.6ZM8.55999 29.25C8.66999 29.34 8.74999 29.47 8.77999 29.62C8.79999 29.68 8.78999 29.74 8.74999 29.78C8.69999 29.8 8.69999 29.73 8.65999 29.7C8.55999 29.63 8.43999 29.6 8.31999 29.63C8.26999 29.64 8.21999 29.67 8.17999 29.7C8.09999 29.75 8.05999 29.85 8.07999 29.95C8.09999 30.02 8.11999 30.07 8.11999 30.07C8.11999 30.07 8.23999 30.52 8.31999 30.79C8.39999 31.06 9.71999 36.24 7.17999 39.05C6.72999 39.56 6.07999 39.86 5.39999 39.87C4.38999 39.82 3.44999 39.37 2.78999 38.61C2.60999 38.45 2.43999 38.27 2.27999 38.09C2.13999 37.92 2.00999 37.74 1.89999 37.55C1.83999 37.46 1.78999 37.37 1.74999 37.27C1.65999 37.08 1.58999 36.88 1.52999 36.68C1.32999 36 1.35999 35.28 1.60999 34.62C1.60999 34.62 1.60999 34.61 1.61999 34.61C1.62999 34.61 1.64999 34.61 1.65999 34.62C1.75999 34.79 1.87999 34.95 2.00999 35.09C2.20999 35.26 2.38999 35.46 2.50999 35.69C2.71999 36.17 3.08999 35.82 3.43999 35.89C3.78999 35.96 4.82999 36.19 4.86999 36.9C4.86999 36.9 4.84999 36.98 4.83999 37.02C4.83999 37.02 4.83999 37.02 4.83999 37.03C4.82999 37.03 4.80999 37.03 4.79999 37.03C4.71999 36.93 4.43999 36.67 3.94999 37.06L3.90999 37.09C3.69999 37.26 3.51999 37.46 3.37999 37.69C3.29999 37.81 3.26999 37.95 3.28999 38.08C3.44999 39.03 5.10999 38.99 5.10999 38.99C5.51999 38.96 5.89999 38.77 6.17999 38.47C7.57999 37.17 6.90999 34.27 5.36999 32.01C5.35999 32 5.33999 32 5.32999 32.01C5.28999 32.04 5.25998 32.07 5.23998 32.11C5.17998 32.21 5.15999 32.34 5.19999 32.46C5.21999 32.5 5.28999 32.53 5.24999 32.57C5.18999 32.59 5.12999 32.58 5.07999 32.54C4.94999 32.47 4.84999 32.35 4.79999 32.22C4.68999 31.91 4.66998 31.59 4.73998 31.27C4.73998 31.27 4.73998 31.26 4.73998 31.25C4.52998 30.95 1.53999 27.15 1.09999 26.25C0.649985 25.57 0.319985 24.82 0.109985 24.03C0.109985 23.8 0.249985 23.75 0.299985 23.87C0.539985 24.49 1.15999 25.35 1.27999 25.25C1.60999 24.96 -0.0500147 23.21 0.159985 23.07C1.05999 23.05 1.94999 23.31 2.69999 23.81C4.72999 25.09 6.42999 26.84 7.63999 28.92H7.66999C7.99999 28.96 8.30999 29.08 8.56999 29.27L8.55999 29.25ZM2.67999 24.78C2.67999 24.58 2.51999 24.42 2.31999 24.42C2.11999 24.42 1.95999 24.58 1.95999 24.78C1.95999 24.98 2.11999 25.14 2.31999 25.14C2.51999 25.14 2.67999 24.98 2.67999 24.78Z" fill="white"/>
</svg>
