<?xml version="1.0" encoding="UTF-8"?>
<svg id="Layer_1" data-name="Layer 1" xmlns="http://www.w3.org/2000/svg" version="1.1" viewBox="0 0 159 58">
  <defs>
    <style>
      .cls-1 {
        fill: #fff;
      }

      .cls-1, .cls-2 {
        stroke-width: 0px;
      }

      .cls-2 {
        fill: #6cace4;
      }
    </style>
  </defs>
  <path class="cls-2" d="M36.3,7.2c0,4-3.2,7.2-7.2,7.2s-7.2-3.2-7.2-7.2S25.1,0,29.1,0s7.2,3.2,7.2,7.2Z"/>
  <path class="cls-1" d="M36.3,29c0,3.9-3.2,7.2-7.2,7.2s-7.2-3.2-7.2-7.2,3.2-7.2,7.2-7.2,7.2,3.2,7.2,7.2Z"/>
  <path class="cls-2" d="M14.4,29c0,3.9-3.2,7.2-7.2,7.2s-7.2-3.2-7.2-7.2,3.2-7.2,7.2-7.2,7.2,3.2,7.2,7.2Z"/>
  <path class="cls-2" d="M58.1,29c0,3.9-3.2,7.2-7.2,7.2s-7.2-3.2-7.2-7.2,3.2-7.2,7.2-7.2,7.2,3.2,7.2,7.2Z"/>
  <path class="cls-2" d="M36.3,50.8c0,3.9-3.2,7.2-7.2,7.2s-7.2-3.2-7.2-7.2,3.2-7.2,7.2-7.2,7.2,3.3,7.2,7.2Z"/>
  <path class="cls-1" d="M86.7,36.1v-8.3h-9.9v8.3h-3.7v-19.3h3.7v7.7h9.9v-7.7h3.7v19.4h-3.7Z"/>
  <path class="cls-1" d="M95.7,36.1v-19.3h11.8v3.1h-8.1v4.8h6.6v3.1h-6.6v5.2h8.5v3.1h-12.2Z"/>
  <path class="cls-1" d="M128.3,36.1v-14.2c-.1,1-.1,1.1-.7,2.8l-4.4,11.4h-3.3l-4-11.2c-.4-1.1-.4-1.4-.7-3.1v14.3h-3.3v-19.3h4.4l5.2,13.8c.2.6.3.8.4,1.5,0-.9.2-1,.4-1.5l5.4-13.8h4.4v19.4h-3.8Z"/>
  <path class="cls-1" d="M137.2,16.8h3.7v19.4h-3.7v-19.4Z"/>
  <path class="cls-1" d="M153.2,19.9v16.2h-3.7v-16.2h-5.8v-3.1h15.3v3.1h-5.8Z"/>
</svg>