<svg version="1.2" xmlns="http://www.w3.org/2000/svg" viewBox="0 0 270 182" width="270" height="182">
	<title>HKdir-primær-bokmål-frg-lys bunn-cmyk</title>
	<style>
		.s0 { fill: #ed3779 } 
		.s1 { fill: #f5894f } 
		.s2 { fill: #f0632c } 
	</style>
	<g id="Layer 1">
		<g id="&lt;Group&gt;">
		</g>
		<g id="&lt;Group&gt;">
			<path id="&lt;Path&gt;" class="s0" d="m66.28 68.01c-3.31 0-6.01-2.7-6.01-6.01v-38.08c0-3.3-2.71-6.01-6.01-6.01h-38.08c-3.31 0-6.01 2.71-6.01 6.01v38.08 12.02 38.08 12.02 38.08c0 3.31 2.7 6.01 6.01 6.01h38.08c3.3 0 6.01-2.7 6.01-6.01v-38.08c0-3.3 2.7-6.01 6.01-6.01h38.08c3.3 0 6.01-2.7 6.01-6.01v-38.08c0-3.3-2.71-6.01-6.01-6.01z"/>
			<path id="&lt;Path&gt;" class="s1" d="m160.47 162.2c0 3.3-2.71 6.01-6.02 6.01h-38.07c-3.31 0-6.01-2.71-6.01-6.01v-38.08c0-3.3 2.7-6.01 6.01-6.01h38.07c3.31 0 6.02 2.71 6.02 6.01z"/>
			<path id="&lt;Path&gt;" class="s2" d="m259.49 163.66c2.18 2.5 1.24 4.55-2.08 4.55h-47.4c-4.59 0-7-1.14-9.99-4.55l-35.6-41c-2.85-3.63-3.95-5.8-3.95-10.56v-38.08c0-5.28 0.95-7.08 3.95-10.56l35.6-41c2.91-3.29 5.32-4.55 9.99-4.55h47.4c3.32 0 4.26 2.05 2.08 4.55l-57.41 66.06c-2.17 2.5-2.17 6.59 0 9.09z"/>
		</g>
	</g>
</svg>