<svg width="54" height="55" viewBox="0 0 54 55" fill="none" xmlns="http://www.w3.org/2000/svg">
<path d="M14.7927 54.3795C10.1027 54.3795 5.41619 54.3795 0.726171 54.3795C0.102725 54.3795 0.148775 54.4716 0.148775 53.8234C0.148775 45.0278 0.123978 36.2322 0.155859 27.4402C0.180655 20.3733 2.63902 14.2345 7.4601 9.07689C11.3318 4.92531 16.0963 2.30754 21.6506 1.14566C23.8504 0.685163 26.0785 0.508047 28.3243 0.63557C34.9095 1.00751 40.648 3.41274 45.462 7.92919C49.6667 11.8789 52.3057 16.7177 53.4357 22.3712C53.8892 24.6453 54.0344 26.9514 53.8608 29.261C53.3259 36.4625 50.4 42.534 45.0759 47.4118C41.3671 50.8088 37.003 52.9519 32.0579 53.9013C30.3682 54.2272 28.6644 54.3689 26.9499 54.3724C22.8975 54.3795 18.8486 54.3724 14.7962 54.3724L14.7927 54.3795ZM21.6789 15.6408V15.655V15.6443C21.3105 15.2122 20.5879 15.0669 20.0211 15.4283C19.8192 15.5558 19.6102 15.6798 19.4083 15.8037C19.0009 16.0552 18.59 16.282 18.0445 16.1721C18.5865 16.8027 19.1781 16.8948 19.798 16.4803C19.9857 16.3563 20.1664 16.2217 20.3506 16.0871C20.7473 15.7967 21.1724 15.5947 21.6825 15.6373L21.6789 15.6408ZM27.1093 8.76517H27.1164C27.1766 8.55972 27.3785 8.52075 27.5379 8.44991C27.8851 8.29404 28.2464 8.16298 28.5971 8.01774C28.675 7.98586 28.7883 7.97878 28.7954 7.82646C27.3077 7.90439 26.0572 8.41094 25.1894 9.66846C25.0902 9.81015 25.0087 9.92705 24.8174 9.98018C24.0062 10.2033 23.3296 10.6603 22.7593 11.2731C22.6035 11.4432 22.4264 11.5742 22.2244 11.6805C21.6966 11.9603 21.2078 12.2969 20.7579 12.6901C20.386 13.0124 20.386 13.101 20.7331 13.4694C20.7508 13.4906 20.7686 13.5154 20.7934 13.5296C21.1263 13.735 21.2787 14.0645 21.3955 14.4187C21.4876 14.6879 21.6293 14.9359 21.7923 15.1661C21.8773 15.2901 21.9623 15.4247 22.1111 15.4956C22.4086 14.7623 22.979 14.4754 23.7087 14.4435C24.1019 14.4258 24.279 14.5639 24.4101 14.9288C24.5624 15.3503 24.3782 15.7612 23.8964 15.9383C23.3792 16.1332 22.8444 16.2572 22.2918 16.034C22.2705 16.3847 22.398 16.9514 22.5433 17.2242C22.6106 17.3482 22.692 17.3765 22.8196 17.3411C23.528 17.1321 24.2613 17.0719 24.9945 16.9798C25.8447 16.8735 25.664 16.9267 25.5648 17.6032C25.4444 18.4392 25.1079 18.6588 24.279 18.5136C23.7901 18.4286 23.3013 18.3507 22.8054 18.333C22.1784 18.3117 21.5656 18.3861 20.9528 18.797C21.562 18.9316 22.1571 18.7757 22.7027 19.1158C22.4405 19.2752 22.2032 19.2929 21.9659 19.3142C21.0767 19.3921 20.2408 19.6259 19.4862 20.1112C19.2029 20.2954 19.2135 20.2706 19.0293 20.0049C17.9099 18.3648 16.9358 16.6433 16.1671 14.8084C15.9652 14.3266 15.7774 13.8342 15.6889 13.317C15.6251 12.938 15.7597 12.6865 16.0963 12.5165C16.2805 12.4244 16.4753 12.4102 16.6736 12.4067C16.9429 12.4067 17.2121 12.4102 17.4778 12.3642C18.1685 12.2437 18.5227 11.8789 18.6148 11.1917C18.714 10.4726 18.6042 9.78181 18.3562 9.10877C18.2535 8.83247 18.2464 8.82893 17.9701 8.96708C16.6028 9.63658 15.3417 10.4655 14.1374 11.3936C13.5812 11.8222 13.3793 12.3464 13.4076 13.0124C13.4289 13.4977 13.5529 13.9617 13.6414 14.4329C13.7158 14.8367 13.8044 15.237 13.9248 15.6302C13.9567 15.7329 14.024 15.8675 13.9177 15.949C13.7902 16.0446 13.6804 15.9242 13.5812 15.8569C13.4891 15.7931 13.4076 15.7116 13.3191 15.6443C13.2518 15.5912 13.2128 15.4743 13.0817 15.5274C13.0605 15.825 13.1774 16.0836 13.2978 16.3386C13.5529 16.8735 13.9532 17.2915 14.4243 17.6422C14.5872 17.7626 14.7891 17.8512 14.8883 18.085C14.5624 18.2019 14.3038 17.9645 13.9921 17.9645C14.0842 18.4357 14.3357 18.7899 14.5908 19.1406C14.9769 19.6755 15.4763 20.0935 15.9794 20.5079C16.1104 20.6177 16.2769 20.7098 16.3052 20.9259C15.9971 20.9826 15.7704 20.7205 15.4799 20.7559C15.7491 21.606 16.2911 22.52 17.0137 23.3099C17.166 23.4764 17.1908 23.5827 17.0491 23.7669C16.6524 24.2876 16.3442 24.8579 16.1104 25.4707C16.0325 25.6762 16.0644 25.9666 15.866 26.08C15.6712 26.1933 15.4232 26.0552 15.2036 26.0198C13.4289 25.7222 11.6825 25.3078 9.9964 24.6631C9.73072 24.5603 9.47568 24.4399 9.24543 24.2699C8.73179 23.8873 8.69283 23.5295 9.12499 23.0655C9.31627 22.86 9.5359 22.6794 9.74135 22.481C10.3648 21.8753 10.425 21.3191 9.94326 20.5859C9.57132 20.0191 9.08248 19.5763 8.50154 19.2292C8.2217 19.0627 8.21461 19.0627 8.08001 19.3744C7.44947 20.8338 7.00669 22.3499 6.71267 23.9156C6.62412 24.3938 6.75164 24.7764 7.01377 25.1448C7.32904 25.5876 7.72932 25.9454 8.18273 26.2465C8.64323 26.5511 9.11082 26.8451 9.61737 27.0718C9.69176 27.1037 9.78386 27.1427 9.78386 27.2419C9.78386 27.3729 9.66696 27.3871 9.58195 27.4225C9.34815 27.5146 9.08956 27.4579 8.80618 27.5359C9.17812 27.8618 9.58903 27.9857 10.0212 28.0601C10.4888 28.1416 10.9493 28.0956 11.4133 28.007C11.6046 27.9716 11.8065 27.8511 12.0226 27.9999C11.8349 28.2762 11.5338 28.3577 11.2716 28.5348C11.5338 28.7048 11.8101 28.7615 12.0828 28.8182C12.8728 28.9811 13.6591 28.9209 14.4455 28.7863C14.6474 28.7509 14.8494 28.7084 15.0832 28.7863C14.9131 29.0909 14.5589 29.0768 14.357 29.307C14.6758 29.4027 14.9663 29.4664 15.2603 29.5019C15.696 29.555 16.1317 29.6081 16.5674 29.6506C16.7162 29.6648 16.7657 29.7286 16.7445 29.8703C16.7303 29.9553 16.7197 30.0367 16.7091 30.1218C16.6276 30.8161 16.6418 31.5068 16.8472 32.1834C16.9358 32.4739 17.035 32.7608 17.2546 33.076C17.3325 32.5801 17.1908 32.1373 17.4211 31.6095C18.0622 33.324 19.3268 34.2698 20.9386 34.911C20.4887 35.1306 20.1097 35.3148 19.7555 35.5486C18.6928 36.2535 18.0941 37.217 18.0906 38.5206C18.0906 39.2042 18.1756 39.8737 18.3102 40.5432C18.4094 41.0321 18.3917 41.0817 17.9701 41.3261C16.9747 41.907 15.9121 41.9956 14.8139 41.7193C14.3428 41.6024 14.3464 41.5776 14.2932 41.0887C14.2188 40.398 14.1055 39.7179 13.7548 39.098C13.56 38.7544 13.2943 38.5914 12.8975 38.5808C12.0864 38.5631 11.3283 38.765 10.595 39.0909C10.288 39.2302 10.2314 39.4309 10.425 39.6931C11.4983 41.149 12.7523 42.4277 14.1409 43.5861C14.612 43.9793 15.0938 44.0891 15.6712 43.9828C16.1033 43.9049 16.532 43.8234 16.9464 43.6675C17.0208 43.6392 17.1129 43.5719 17.1731 43.6675C17.2227 43.749 17.1625 43.8305 17.1094 43.8978C17.0173 44.0218 16.9216 44.1422 16.826 44.2662C16.7976 44.2804 16.7445 44.2945 16.7799 44.337C16.8083 44.3689 16.8508 44.3477 16.8791 44.3193C17.3148 44.2201 17.7009 44.0182 18.0481 43.7419C18.1685 43.6463 18.2748 43.5259 18.3917 43.4231C18.4448 43.3771 18.5086 43.3346 18.5759 43.3983C18.6219 43.4408 18.6148 43.5046 18.5971 43.5577C18.5334 43.7349 18.4625 43.9084 18.381 44.1139C18.6821 44.0218 18.8876 43.873 19.093 43.7242C19.302 43.5754 19.4756 43.3912 19.6669 43.2212C19.844 43.0618 19.9432 42.7997 20.2337 42.7359C20.2868 43.0866 20.0034 43.3417 20.0176 43.6888C20.7934 43.2885 21.4345 42.7997 21.8986 42.0877C22.1111 41.7618 22.2705 41.4607 22.0473 41.0781C22.0048 41.0073 22.0013 40.9152 21.9836 40.8337C21.8206 40.0969 22.0969 39.5195 22.7735 39.183C23.1065 39.02 23.4643 38.9315 23.8185 38.8323C24.7997 38.5631 25.788 38.3116 26.7196 37.8794C27.0207 37.7377 27.3041 37.5571 27.6052 37.3835C27.6831 37.5535 27.7398 37.681 27.7965 37.8086C28.342 39.0236 29.2595 39.7533 30.5914 39.9623C31.4663 40.1004 32.3413 40.0579 33.2162 39.9835C33.7688 39.9375 34.3179 39.9056 34.8705 39.9304C35.2318 39.9481 35.5719 40.0438 35.8801 40.228C36.6204 40.6778 37.3253 41.1773 37.9133 41.822C38.1294 42.0593 38.133 42.2471 37.9204 42.488C37.7043 42.7288 37.4139 42.7855 37.1128 42.8032C36.8577 42.8174 36.6027 42.8032 36.3476 42.8139C35.7313 42.8386 35.37 43.1079 35.1928 43.6923C34.9236 44.585 35.0547 45.4493 35.4089 46.2995C35.4691 46.2853 35.5152 46.2818 35.5506 46.2641C37.4103 45.4245 39.1071 44.3335 40.6338 42.9803C41.027 42.6332 41.105 42.1727 40.8499 41.7122C40.6586 41.365 40.4178 41.0498 40.2052 40.7133C40.1415 40.6141 40.021 40.5291 40.0812 40.3803C40.1981 40.2917 40.3504 40.4051 40.4957 40.3236C40.3469 40.0615 40.1521 39.9127 39.897 39.8454C39.6774 39.7887 39.4542 39.7462 39.2382 39.6789C39.0823 39.6329 38.8556 39.5974 38.8946 39.3814C38.9264 39.1972 39.1461 39.2432 39.2948 39.229C39.479 39.2078 39.6703 39.3034 39.8935 39.2113C39.4613 38.7579 38.9796 38.4745 38.4163 38.3364C38.1542 38.2726 37.8885 38.2266 37.6264 38.1734C36.5106 37.9503 35.8057 37.256 35.4054 36.2216C35.37 36.126 35.2991 36.0232 35.3629 35.8886C35.6002 35.9276 35.834 35.9701 36.0678 36.002C36.8081 36.1012 37.5343 36.0658 38.2392 35.7788C40.4992 34.8614 41.1829 32.2117 40.0848 30.4866C39.7483 29.9588 39.3799 29.4593 38.9867 28.9776C38.388 28.2408 37.7929 27.5004 37.3111 26.6822C36.8258 25.8604 36.6948 24.989 36.9782 24.0715C37.4918 22.4066 39.2913 21.4112 41.0306 21.8115C41.7886 21.9886 42.366 22.396 42.7663 23.069C43.032 23.5153 43.0674 24.0892 42.5467 24.5072C42.0401 24.9146 41.5903 25.3928 41.2041 25.9206C40.903 26.3279 40.7047 26.7743 40.6763 27.2844C40.6551 27.6669 40.6976 28.0318 40.9101 28.4533C41.1227 28.053 41.2785 27.7094 41.5017 27.4048C41.7355 27.0895 41.987 26.8026 42.4652 26.6645C42.3483 26.9797 42.1854 27.1781 42.0578 27.3871C41.7815 27.8334 41.5159 28.2904 41.4202 28.8146C41.2077 29.9765 41.6859 30.9613 42.2243 31.9496C42.2952 31.9035 42.3341 31.8894 42.3625 31.861C42.9115 31.2482 43.411 30.5964 43.8077 29.8703C44.077 29.3779 44.2257 28.8572 44.2399 28.2904C44.2576 27.6103 44.2399 26.9337 44.1088 26.2606C44.0947 26.1792 44.0415 26.08 44.1372 26.0304C44.2541 25.9666 44.3178 26.08 44.371 26.1544C44.4808 26.3031 44.5481 26.4732 44.6118 26.6503C44.7394 27.0152 44.7996 27.3906 44.8598 27.8193C44.9023 27.7307 44.9307 27.6988 44.9377 27.6563C44.9732 27.4757 45.0121 27.295 45.0334 27.1143C45.207 25.5982 45.0334 24.1565 44.2009 22.8281C43.1701 21.1774 41.2785 20.3096 39.3515 20.6425C36.1776 21.1951 34.5198 24.6595 36.2414 27.4225C36.7054 28.1699 37.2297 28.8713 37.7823 29.555C38.1932 30.0615 38.5935 30.5716 38.9335 31.1313C39.5428 32.1302 39.2842 33.8341 37.6689 34.3584C36.7975 34.6417 35.9651 34.5001 35.1574 34.121C35.0512 34.0714 34.9838 33.9829 34.913 33.8908C34.0593 32.7466 32.9081 32.0842 31.523 31.8008C31.0235 31.6981 30.5205 31.6131 30.0211 31.521C29.8688 31.4926 29.72 31.4537 29.5889 31.3616C27.9665 30.1961 27.1412 28.5879 26.957 26.622C26.9357 26.3952 27.042 26.3244 27.2226 26.2677C27.7221 26.1083 28.2039 25.8993 28.6856 25.6974C29.2205 25.4707 29.6668 25.1342 30.0459 24.7056C30.7543 23.905 31.2148 22.9734 31.4805 21.9461C31.5407 21.7123 31.5974 21.4785 31.6682 21.2518C31.693 21.1703 31.7108 21.0499 31.8737 21.0499C31.9339 21.1916 31.9162 21.3439 31.9162 21.4962C31.9233 22.3606 31.7178 23.1753 31.3813 23.9652C31.3282 23.99 31.2963 24.0432 31.3388 24.0821C31.3884 24.1246 31.4132 24.0538 31.4451 24.0254C32.3484 23.4374 33.0356 22.6758 33.3933 21.6415C33.6059 21.0216 33.7476 20.391 33.7759 19.7357C33.7972 19.2114 33.7972 18.6907 33.7192 18.17C33.6838 17.9327 33.6236 17.6776 33.8078 17.373C34.1372 17.9291 34.2258 18.503 34.3427 19.0591C34.4631 19.633 34.3817 20.2245 34.41 20.8161C34.8209 20.2352 35.1999 19.6436 35.3912 18.9599C35.6569 18.0106 35.6215 17.0577 35.4337 16.1013C35.2708 15.2759 34.9874 14.4966 34.5942 13.7527C34.4596 13.4977 34.3073 13.2391 34.3073 12.9238C34.5623 13.0124 34.5659 13.0089 34.6686 13.1364C35.2531 13.8519 35.7632 14.6135 36.0465 15.5062C36.0713 15.5877 36.0395 15.7152 36.1776 15.7435C36.2485 15.6727 36.2166 15.5841 36.2201 15.5097C36.2378 15.1413 36.2095 14.7765 36.167 14.4081C35.9438 12.4811 35.1185 10.8693 33.6271 9.62241C32.4688 8.65536 31.1227 8.23382 29.6102 8.32592C28.8982 8.36843 28.211 8.52075 27.5344 8.72975C27.4068 8.76871 27.2829 8.87498 27.1412 8.77226L27.1093 8.76517Z" fill="#12C1B0"/>
<path d="M16.8118 44.2733C16.9074 44.1493 17.0031 44.0289 17.0952 43.9049C17.1483 43.8376 17.2085 43.7561 17.1589 43.6746C17.0987 43.579 17.0102 43.6428 16.9322 43.6746C16.5213 43.8305 16.0927 43.912 15.657 43.9899C15.0796 44.0926 14.5943 43.9828 14.1267 43.5932C12.7381 42.4348 11.4842 41.1561 10.4108 39.7002C10.2172 39.438 10.2739 39.2373 10.5809 39.098C11.3106 38.7685 12.0722 38.5702 12.8834 38.5879C13.2801 38.595 13.5458 38.7615 13.7406 39.1051C14.0913 39.725 14.2047 40.4051 14.279 41.0958C14.3322 41.5847 14.3286 41.6059 14.7998 41.7264C15.9014 42.0027 16.9606 41.9106 17.956 41.3332C18.381 41.0852 18.3952 41.0356 18.296 40.5503C18.1614 39.8844 18.0729 39.2149 18.0764 38.5277C18.0764 37.2206 18.6786 36.2606 19.7413 35.5557C20.0955 35.3219 20.4745 35.1377 20.9244 34.9181C19.3127 34.2769 18.0481 33.3311 17.4069 31.6166C17.1767 32.1409 17.3183 32.5837 17.2404 33.0831C17.0208 32.7679 16.9216 32.4809 16.833 32.1905C16.6276 31.5139 16.6134 30.8267 16.6949 30.1289C16.7055 30.0438 16.7162 29.9588 16.7303 29.8774C16.7551 29.7357 16.702 29.6754 16.5532 29.6577C16.1175 29.6152 15.6818 29.5621 15.2461 29.509C14.9521 29.4735 14.6616 29.4098 14.3428 29.3141C14.5447 29.0839 14.8989 29.098 15.069 28.7934C14.8352 28.7119 14.6333 28.758 14.4314 28.7934C13.645 28.928 12.8586 28.9882 12.0686 28.8253C11.7959 28.7686 11.5196 28.7119 11.2575 28.5419C11.5196 28.3648 11.8207 28.2833 12.0084 28.007C11.7923 27.8582 11.5869 27.9787 11.3991 28.0141C10.9351 28.0991 10.4746 28.1487 10.007 28.0672C9.57486 27.9928 9.16395 27.8653 8.79201 27.543C9.07539 27.465 9.33398 27.5217 9.56777 27.4296C9.65633 27.3942 9.77323 27.38 9.76968 27.249C9.76968 27.1462 9.67758 27.1108 9.6032 27.0789C9.09665 26.8522 8.62906 26.5582 8.16856 26.2536C7.71869 25.9525 7.31841 25.5947 6.9996 25.1519C6.73747 24.7835 6.6064 24.3974 6.6985 23.9227C6.99251 22.3606 7.4353 20.8445 8.06583 19.3815C8.20044 19.0698 8.20753 19.0698 8.48737 19.2363C9.06831 19.5834 9.55715 20.0262 9.92909 20.593C10.4108 21.3227 10.3542 21.8824 9.72718 22.4881C9.52526 22.6865 9.30564 22.8671 9.11081 23.0726C8.67865 23.5366 8.72116 23.8979 9.23125 24.277C9.4615 24.447 9.71655 24.5674 9.98222 24.6702C11.6684 25.3149 13.4147 25.7293 15.1894 26.0269C15.409 26.0623 15.6535 26.2004 15.8518 26.0871C16.0502 25.9737 16.0183 25.6868 16.0962 25.4778C16.33 24.865 16.6418 24.2947 17.035 23.774C17.1767 23.5898 17.1519 23.4799 16.9995 23.317C16.2769 22.5271 15.7349 21.6131 15.4657 20.763C15.7562 20.7276 15.9829 20.9897 16.2911 20.933C16.2627 20.7169 16.0998 20.6248 15.9652 20.515C15.4622 20.097 14.9627 19.6826 14.5766 19.1477C14.3216 18.797 14.07 18.4428 13.9779 17.9716C14.2897 17.9716 14.5483 18.2125 14.8742 18.0921C14.7785 17.8583 14.5731 17.7733 14.4101 17.6493C13.939 17.2951 13.5387 16.8806 13.2837 16.3457C13.1632 16.0907 13.0463 15.8321 13.0676 15.5345C13.1986 15.4814 13.2376 15.6018 13.3049 15.6514C13.3935 15.7187 13.4749 15.8002 13.567 15.864C13.6662 15.9313 13.776 16.0553 13.9036 15.9561C14.0098 15.8746 13.9425 15.74 13.9106 15.6373C13.7902 15.2441 13.7016 14.8438 13.6273 14.44C13.5422 13.9688 13.4183 13.5013 13.3935 13.0195C13.3651 12.3535 13.567 11.8257 14.1232 11.4007C15.3276 10.4726 16.5886 9.64368 17.956 8.97418C18.2323 8.83957 18.2393 8.83957 18.3421 9.11587C18.5936 9.78891 18.6998 10.4797 18.6007 11.1988C18.5086 11.886 18.1543 12.2508 17.4636 12.3713C17.1944 12.4173 16.9287 12.4102 16.6595 12.4138C16.4611 12.4138 16.2627 12.4315 16.0821 12.5236C15.7456 12.6936 15.611 12.9451 15.6747 13.3241C15.7633 13.8449 15.951 14.3337 16.1529 14.8154C16.9216 16.6504 17.8922 18.3719 19.0151 20.012C19.1958 20.2777 19.1851 20.2989 19.4721 20.1183C20.2266 19.633 21.0661 19.3957 21.9517 19.3213C22.189 19.3 22.4264 19.2823 22.6885 19.1229C22.1465 18.7828 21.5479 18.9387 20.9386 18.8041C21.5514 18.3932 22.1642 18.3188 22.7912 18.34C23.2871 18.3578 23.776 18.4357 24.2648 18.5207C25.0973 18.6659 25.4302 18.4463 25.5507 17.6103C25.6499 16.9338 25.8305 16.8806 24.9804 16.9869C24.2506 17.079 23.5174 17.1427 22.8054 17.3482C22.6779 17.3836 22.5964 17.3588 22.5291 17.2313C22.3838 16.9585 22.2528 16.3918 22.2776 16.0411C22.8266 16.2643 23.3651 16.1403 23.8822 15.9454C24.364 15.7648 24.5482 15.3539 24.3959 14.9359C24.2648 14.5746 24.0877 14.4364 23.6945 14.4506C22.9648 14.4789 22.3945 14.7694 22.0969 15.5027C21.9446 15.4318 21.8631 15.2972 21.7781 15.1732C21.6152 14.9394 21.4735 14.695 21.3814 14.4258C21.2609 14.0716 21.1122 13.7421 20.7792 13.5367C20.7544 13.5225 20.7402 13.4977 20.719 13.4765C20.3718 13.1081 20.3718 13.023 20.7438 12.6971C21.1936 12.304 21.6825 11.9674 22.2103 11.6876C22.4122 11.5813 22.5858 11.4503 22.7452 11.2802C23.3155 10.6674 23.9921 10.2104 24.8032 9.98728C24.9945 9.93415 25.076 9.81725 25.1752 9.67556C26.0466 8.41804 27.297 7.91149 28.7813 7.83356C28.7742 7.98942 28.6608 7.99296 28.5829 8.02484C28.2287 8.17008 27.8709 8.30114 27.5237 8.457C27.3643 8.52785 27.166 8.56682 27.1022 8.77581C27.088 8.78998 27.0739 8.80769 27.0632 8.82186C27.0739 8.82186 27.088 8.82895 27.0987 8.82186C27.1305 8.80415 27.127 8.78644 27.0987 8.76873C27.2439 8.87145 27.3679 8.76518 27.4919 8.72622C28.1684 8.51368 28.8556 8.3649 29.5677 8.3224C31.0802 8.2303 32.4263 8.65183 33.5846 9.61888C35.0795 10.8658 35.9048 12.4775 36.1245 14.4045C36.167 14.7694 36.1953 15.1378 36.1776 15.5062C36.1776 15.5841 36.2024 15.6727 36.1351 15.74C36.0005 15.7117 36.0324 15.5877 36.004 15.5027C35.7206 14.61 35.2106 13.8484 34.6261 13.1329C34.5233 13.0053 34.5163 13.0124 34.2648 12.9203C34.2648 13.2391 34.4171 13.4942 34.5517 13.7492C34.9413 14.4931 35.2283 15.2724 35.3912 16.0978C35.579 17.0542 35.6179 18.0071 35.3487 18.9564C35.1574 19.6401 34.7784 20.2316 34.3675 20.8126C34.3356 20.2175 34.4171 19.6294 34.3002 19.0556C34.1833 18.4995 34.0983 17.9256 33.7653 17.3695C33.5811 17.6706 33.6413 17.9291 33.6767 18.1665C33.7547 18.6872 33.7582 19.2115 33.7334 19.7322C33.7051 20.3875 33.5634 21.0216 33.3508 21.6379C32.9931 22.6723 32.3059 23.4374 31.4026 24.0219C31.3813 24.0042 31.3601 23.9829 31.3388 23.9652C31.6789 23.1788 31.8808 22.3606 31.8737 21.4962C31.8737 21.3475 31.8914 21.1916 31.8312 21.0499C31.6682 21.0499 31.6541 21.1668 31.6257 21.2518C31.5549 21.4821 31.4982 21.7159 31.438 21.9461C31.1723 22.9769 30.7118 23.9086 30.0034 24.7056C29.6208 25.1342 29.1745 25.4707 28.6431 25.6974C28.1614 25.9029 27.6796 26.1083 27.1801 26.2677C26.9995 26.3244 26.8932 26.3953 26.9145 26.622C27.0987 28.5879 27.924 30.1962 29.5464 31.3616C29.6775 31.4572 29.8262 31.4926 29.9786 31.521C30.478 31.6166 30.981 31.6981 31.4805 31.8008C32.862 32.0878 34.0168 32.7502 34.8705 33.8908C34.9378 33.9829 35.0086 34.0714 35.1149 34.121C35.9261 34.5001 36.755 34.6418 37.6264 34.3584C39.2452 33.8341 39.5003 32.1267 38.891 31.1313C38.551 30.5716 38.1471 30.0616 37.7398 29.555C37.1872 28.8713 36.6629 28.17 36.1989 27.4225C34.4773 24.6595 36.1386 21.1952 39.309 20.6426C41.236 20.306 43.1241 21.1774 44.1584 22.8282C44.9873 24.1565 45.1644 25.5982 44.9909 27.1143C44.9696 27.295 44.9306 27.4757 44.8952 27.6563C44.8881 27.6953 44.8598 27.7307 44.8173 27.8193C44.7571 27.3907 44.6969 27.0116 44.5693 26.6503C44.5091 26.4767 44.4418 26.3032 44.3285 26.1544C44.2718 26.08 44.2116 25.9666 44.0947 26.0304C44.0026 26.08 44.0522 26.1792 44.0663 26.2607C44.1974 26.9302 44.2186 27.6067 44.1974 28.2904C44.1832 28.8572 44.0344 29.3779 43.7652 29.8703C43.3685 30.5964 42.8726 31.2482 42.32 31.861C42.2952 31.8894 42.2527 31.9071 42.1818 31.9496C41.6434 30.9613 41.1652 29.9765 41.3777 28.8147C41.4734 28.2904 41.739 27.837 42.0153 27.3871C42.1464 27.1746 42.3058 26.9797 42.4227 26.6645C41.9445 26.7991 41.693 27.0896 41.4592 27.4048C41.236 27.7095 41.0802 28.0531 40.8676 28.4533C40.6586 28.0318 40.6126 27.667 40.6338 27.2844C40.6622 26.7707 40.8641 26.328 41.1616 25.9206C41.5513 25.3928 41.9976 24.9146 42.5042 24.5072C43.0249 24.0892 42.9895 23.5154 42.7238 23.069C42.3235 22.396 41.7461 21.9886 40.9881 21.8115C39.2488 21.4077 37.4493 22.4066 36.9357 24.0715C36.6523 24.9925 36.7833 25.8639 37.2686 26.6822C37.7504 27.504 38.3455 28.2443 38.9441 28.9776C39.3373 29.4594 39.7057 29.9588 40.0423 30.4866C41.1439 32.2117 40.4567 34.8614 38.1967 35.7788C37.4918 36.0658 36.7656 36.1012 36.0253 36.002C35.7879 35.9701 35.5542 35.9276 35.3204 35.8887C35.2531 36.0233 35.3239 36.1295 35.3629 36.2216C35.7667 37.2524 36.4716 37.9467 37.5839 38.1734C37.846 38.2266 38.1117 38.2726 38.3738 38.3364C38.9371 38.4745 39.4188 38.7579 39.851 39.2113C39.6278 39.3034 39.4365 39.2113 39.2523 39.229C39.1035 39.2468 38.8875 39.1972 38.852 39.3814C38.8131 39.5974 39.0398 39.6293 39.1957 39.6789C39.4117 39.7462 39.6349 39.7852 39.8545 39.8454C40.1096 39.9127 40.3044 40.0615 40.4532 40.3236C40.3115 40.4086 40.1556 40.2953 40.0387 40.3803C39.9785 40.5291 40.0989 40.6141 40.1627 40.7133C40.3752 41.0498 40.6161 41.3651 40.8074 41.7122C41.0624 42.1727 40.9845 42.6332 40.5913 42.9804C39.0646 44.33 37.3678 45.4245 35.5081 46.2641C35.4691 46.2818 35.4266 46.2853 35.3664 46.2995C35.0122 45.4493 34.8811 44.5886 35.1503 43.6924C35.3274 43.1043 35.6852 42.8387 36.3051 42.8139C36.5602 42.8032 36.8152 42.8209 37.0703 42.8032C37.3714 42.7855 37.6618 42.7288 37.8779 42.488C38.0904 42.2506 38.0905 42.0629 37.8708 41.822C37.2828 41.1773 36.5779 40.6779 35.8375 40.228C35.5329 40.0402 35.1893 39.9481 34.828 39.9304C34.2754 39.9021 33.7263 39.934 33.1737 39.9836C32.2988 40.058 31.4238 40.1005 30.5489 39.9623C29.2205 39.7533 28.303 39.0236 27.754 37.8086C27.6973 37.6811 27.6371 37.5535 27.5627 37.3835C27.2616 37.5571 26.9818 37.7377 26.6771 37.8794C25.749 38.3116 24.7607 38.5596 23.776 38.8323C23.4217 38.9315 23.064 39.0201 22.731 39.183C22.0544 39.516 21.7781 40.0934 21.9411 40.8337C21.9588 40.9152 21.9659 41.0073 22.0048 41.0781C22.228 41.4572 22.0686 41.7618 21.856 42.0877C21.392 42.7997 20.7508 43.2885 19.9751 43.6888C19.9609 43.3417 20.2443 43.0866 20.1912 42.7359C19.9007 42.7997 19.805 43.0583 19.6244 43.2212C19.4331 43.3913 19.2595 43.579 19.0505 43.7242C18.8415 43.8695 18.6361 44.0218 18.3385 44.1139C18.42 43.9049 18.4909 43.7313 18.5546 43.5578C18.5723 43.5046 18.5794 43.4444 18.5334 43.3983C18.4661 43.3346 18.3987 43.3806 18.3492 43.4231C18.2323 43.5259 18.1295 43.6428 18.0056 43.742C17.6584 44.0183 17.2723 44.2237 16.8366 44.3193C16.8189 44.3016 16.8012 44.2839 16.7835 44.2662L16.8118 44.2733ZM29.348 13.0585C30.2549 13.1612 30.8606 12.7928 31.0554 12.0702C31.229 11.429 30.8819 10.7418 30.2513 10.4726C29.6704 10.2246 28.9832 10.3876 28.6962 10.8445C29.4437 10.6497 29.8652 10.8622 30.1061 11.553C30.3505 12.2579 30.1415 12.7007 29.3445 13.0585H29.348ZM23.1561 12.1304C23.3013 12.1871 23.3757 12.1375 23.4536 12.1056C23.7441 11.9922 24.0133 11.9497 24.2719 12.2083C24.4278 12.3642 24.6616 12.3606 24.8776 12.3217C25.1327 12.2756 25.285 12.1339 25.3169 11.9249C25.3488 11.7053 25.2248 11.4857 25.0016 11.3759C24.7855 11.2696 24.5553 11.2838 24.3392 11.3511C23.8858 11.4892 23.5138 11.7584 23.1596 12.1304H23.1561ZM23.0923 12.1941L23.0746 12.2119H23.0994L23.0888 12.1941H23.0923Z" fill="white"/>
<path d="M21.679 15.6408C21.1689 15.5983 20.7438 15.8002 20.3471 16.0907C20.1664 16.2253 19.9822 16.3563 19.7945 16.4839C19.1746 16.8983 18.583 16.8062 18.041 16.1757C18.5865 16.289 18.9974 16.0588 19.4048 15.8073C19.6103 15.6833 19.8157 15.5593 20.0176 15.4318C20.5844 15.0705 21.307 15.2157 21.6754 15.6479L21.679 15.6408Z" fill="white"/>
<path d="M31.4132 24.0254C31.3813 24.0538 31.353 24.1246 31.3069 24.0821C31.268 24.0467 31.2999 23.99 31.3495 23.9652C31.3707 23.9829 31.392 24.0042 31.4132 24.0219V24.0254Z" fill="white"/>
<path d="M21.6754 15.6479L21.6825 15.6585L21.679 15.6408L21.6754 15.6479Z" fill="white"/>
<path d="M16.8649 44.3229C16.8366 44.3512 16.7941 44.376 16.7657 44.3406C16.7303 44.2981 16.7835 44.2839 16.8118 44.2698C16.8295 44.2875 16.8472 44.3052 16.8649 44.3229Z" fill="white"/>
<path d="M29.348 13.0585C30.1486 12.7043 30.354 12.2579 30.1096 11.553C29.8687 10.8622 29.4472 10.6497 28.6998 10.8445C28.9867 10.3876 29.6704 10.2246 30.2548 10.4726C30.8854 10.7418 31.229 11.429 31.0589 12.0702C30.8641 12.7928 30.2584 13.1612 29.3516 13.0585H29.348Z" fill="#12C1B0"/>
<path d="M23.1561 12.1303C23.5103 11.7584 23.8822 11.4892 24.3357 11.351C24.5517 11.2837 24.782 11.2731 24.9981 11.3758C25.2212 11.4856 25.3488 11.7053 25.3133 11.9249C25.2815 12.1339 25.1291 12.2756 24.8741 12.3216C24.658 12.3606 24.4278 12.3641 24.2684 12.2083C24.0098 11.9497 23.7405 11.9922 23.4501 12.1055C23.3721 12.1374 23.2978 12.187 23.1525 12.1303H23.1561Z" fill="#12C1B0"/>
<path d="M27.1093 8.7652C27.1376 8.78291 27.1412 8.80416 27.1093 8.81833C27.1022 8.82187 27.088 8.81833 27.0739 8.81833C27.088 8.80416 27.1022 8.78645 27.1128 8.77228L27.1057 8.76874L27.1093 8.7652Z" fill="#12C1B0"/>
<path d="M23.0923 12.1942L23.0994 12.2189L23.0746 12.2119L23.0923 12.1942Z" fill="#12C1B0"/>
</svg>
