<svg version="1.1" xmlns="http://www.w3.org/2000/svg" x="0px" y="0px" width="119px" height="34px" viewBox="-0.281 2.74 119 34" enable-background="new -0.281 2.74 119 34" xml:space="preserve" role="img" aria-label="Avinor logo">
  <switch>
    <g>
      <path transform="matrix(1.25,0,0,-1.25,0,2550)" fill="#FFFFFF" d="M11.121,2036.891c-1.422,0.496-2.976-0.256-3.472-1.677
	      c-0.469-1.345,0.178-2.808,1.453-3.381l-5.48-15.262c-1.37,0.372-2.813-0.373-3.287-1.734c-0.495-1.422,0.256-2.976,1.677-3.472
	      c1.422-0.495,2.976,0.255,3.472,1.677c0.468,1.343-0.177,2.804-1.448,3.38l5.476,15.265c1.369-0.372,2.813,0.373,3.287,1.734
	      C13.294,2034.842,12.543,2036.396,11.121,2036.891 M20.02,2020.839l1.077,3.207c0.66,1.965,0.893,2.796,0.893,2.796h0.094
	      c0,0,0.336-1.044,0.948-2.733l1.148-3.27H20.02z M20.721,2030.667l-5.742-15.995h2.977l1.281,3.796h5.77l1.359-3.796h3.025
	      l-6.111,15.995H20.721 M34.788,2018.647h-0.086c0,0-0.497,1.528-1.011,3.015l-3.172,9.005h-3.09l6.008-15.995h2.617l5.782,15.995
	      h-3.093l-3.026-9.007C35.226,2020.246,34.788,2018.647,34.788,2018.647 M43.954,2014.672h2.876v15.995h-2.876V2014.672z
	       M60.382,2020.003l-0.054-0.013l-7.544,10.677h-2.126v-15.995h2.801v4.664c0,2.526-0.101,5.999-0.101,5.999l0.061,0.011
	      l7.524-10.674h2.126v15.995h-2.801v-5.102C60.267,2023.65,60.382,2020.003,60.382,2020.003 M91.171,2025.592
	      c0-1.425-0.943-2.347-2.404-2.347h-2.179v4.694h2.179C90.228,2027.939,91.171,2027.017,91.171,2025.592 M91.476,2021.077
	      c1.535,0.875,2.612,2.154,2.612,4.515c0,2.941-2.191,5.076-5.208,5.076h-5.169v-15.994h2.877v5.987h2.244l2.89-5.987h3.138
	      L91.476,2021.077 M73.389,2028.057c-3.025,0-5.198-2.286-5.198-5.387c0-3.143,2.22-5.386,5.2-5.386c3.044,0,5.196,2.309,5.196,5.386
	      C78.587,2025.847,76.329,2028.057,73.389,2028.057 M81.57,2022.669c0-4.519-3.664-8.183-8.184-8.183s-8.185,3.664-8.185,8.183
	      s3.665,8.182,8.185,8.182S81.57,2027.188,81.57,2022.669"></path>
    </g>
  </switch>
</svg>