<svg xmlns="http://www.w3.org/2000/svg" fill="none" aria-hidden="true" class="bn-logo bn-logo--banenor" viewBox="0 0 208 34"><path fill="currentColor" d="m208 24.686-6.047-10.655c2.965-1.292 3.757-3.728 3.757-6.663 0-3.17-1.849-6.575-7.632-6.575h-10.215v23.923h5.812v-9.892h3.229l4.785 9.892H208zM193.705 5.342h3.845a2.46 2.46 0 0 1 2.466 2.466 2.46 2.46 0 0 1-2.466 2.466h-3.845zM166.681 0C159.695 0 154 5.665 154 12.68c0 6.987 5.665 12.682 12.681 12.682a12.666 12.666 0 0 0 12.681-12.681C179.332 5.665 173.667 0 166.681 0m0 19.843c-3.963 0-7.192-3.229-7.192-7.192s3.229-7.191 7.192-7.191 7.191 3.229 7.191 7.191c-.029 3.992-3.228 7.192-7.191 7.192m-24.345 4.873L128.863 9.54v15.176h-5.812V.793h4.696l11.976 13.502V.793h5.812v23.923zm-56.418 0V.793h14.354v4.726H91.73v4.49h6.957v4.726H91.73v5.284h8.806v4.726H85.918v-.03Zm-14.06 0L58.384 9.54v15.176h-5.812V.793h4.697l11.976 13.502V.793h5.812v23.923h-3.2Zm-44.412-5.9L16.379 34.197h7.192l8.454-15.381zm13.62 0h-4.58l8.455 15.381h7.191zm-11.654-4.08V10.01a4.817 4.817 0 0 1 4.814-4.814 4.817 4.817 0 0 1 4.814 4.814v4.726zm-11.448 3.316c0-4.843-3.64-6.164-3.64-6.164s2.143-1.233 2.143-4.403c0-3.581-1.996-6.722-7.749-6.722H0v23.923h11.037c3.64.03 6.927-2.553 6.927-6.634M5.812 5.254h2.495a2.556 2.556 0 0 1 2.554 2.554 2.556 2.556 0 0 1-2.554 2.554H5.812zm6.164 12.27a2.725 2.725 0 0 1-2.73 2.73H5.812v-5.43h3.464c1.467-.03 2.7 1.203 2.7 2.7"></path></svg>