<svg width="88" height="24" viewBox="0 0 88 24" fill="none" xmlns="http://www.w3.org/2000/svg">
  <path d="M59.3055 6.8155L59.4158 9.23843C58.7985 8.73182 58.1592 8.33534 57.5639 8.04899C56.9246 7.74062 56.153 7.58643 55.2932 7.58643C54.4334 7.58643 53.5957 7.78467 52.802 8.1371C52.0304 8.51155 51.325 9.04019 50.7297 9.72301C50.1345 10.4058 49.6495 11.2428 49.2968 12.212C48.944 13.1812 48.7456 14.2825 48.7456 15.494C48.7456 17.983 49.3188 19.9433 50.4431 21.309C51.5675 22.6746 53.0886 23.3575 54.9846 23.3575C55.8664 23.3575 56.7041 23.1372 57.4757 22.7187C58.2473 22.3002 58.9308 21.7936 59.526 21.2429H59.548L59.7685 22.983H61.9731V1.00049H59.3055V6.8155ZM59.3055 11.353V19.1063C58.7103 19.7892 58.093 20.2958 57.4978 20.6262C56.9026 20.9566 56.2412 21.1328 55.5578 21.1328C54.2791 21.1328 53.265 20.6262 52.5595 19.657C51.8541 18.6658 51.5013 17.2561 51.5013 15.4719C51.5013 14.6129 51.6116 13.842 51.832 13.1592C52.0525 12.4763 52.3611 11.8816 52.7359 11.375C53.1107 10.8904 53.5736 10.4939 54.0807 10.2296C54.5877 9.9653 55.1389 9.81112 55.7341 9.81112C56.3294 9.81112 56.9466 9.92125 57.5198 10.1635C58.071 10.4058 58.6883 10.8023 59.3055 11.353Z" fill="#012A4C"/>
  <path d="M73.5251 1.15451C73.1724 1.00032 72.7756 0.890188 72.3567 0.802081C71.9378 0.713975 71.4749 0.669922 71.0119 0.669922C69.5128 0.669922 68.3885 1.11045 67.6609 2.01354C66.9555 2.89461 66.5807 4.12809 66.5807 5.66996V7.98275L64.5525 8.13693V10.1414H66.5807V23.0049H69.2042V10.1414H72.3788V7.98275H69.2042V5.66996C69.2042 3.77567 69.8655 2.82853 71.2324 2.82853C71.8056 2.82853 72.3567 2.96069 72.9079 3.20298L72.974 3.22501L73.5692 1.17653L73.5251 1.15451Z" fill="#012A4C"/>
  <path d="M85.7607 10.2077L87.4362 8.2033L86.2457 7.23413L84.7025 9.10639C84.1073 8.59978 83.4459 8.22533 82.7404 7.98303C81.9909 7.71872 81.2192 7.58656 80.4476 7.58656C79.5217 7.58656 78.6399 7.76277 77.8022 8.11519C76.9644 8.46762 76.2149 8.99626 75.5755 9.65705C74.9362 10.3399 74.4291 11.1769 74.0323 12.1461C73.6575 13.1152 73.4591 14.2386 73.4591 15.4941C73.4591 16.5954 73.6135 17.6086 73.9 18.4677C74.1866 19.3267 74.5835 20.0756 75.0905 20.7364L73.415 22.7408L74.6496 23.71L76.1487 21.8598C77.3833 22.851 78.8163 23.3356 80.4036 23.3356C81.3295 23.3356 82.2113 23.1593 83.0491 22.8069C83.8868 22.4545 84.6364 21.9479 85.2757 21.2651C85.915 20.6043 86.4221 19.7673 86.8189 18.7981C87.1937 17.8289 87.3921 16.7056 87.3921 15.4721C87.3921 14.3707 87.2378 13.3575 86.9512 12.4544C86.6646 11.6174 86.2677 10.8465 85.7607 10.2077ZM80.4476 9.74516C81.5499 9.74516 82.4979 10.1416 83.2254 10.9126L76.744 18.754C76.303 17.8289 76.0826 16.7056 76.0826 15.384C76.0826 14.547 76.1928 13.776 76.4133 13.0932C76.6337 12.3883 76.9424 11.7936 77.3171 11.309C77.6919 10.8245 78.1549 10.428 78.706 10.1637C79.2351 9.87732 79.8083 9.74516 80.4476 9.74516ZM80.4476 21.243C79.3674 21.243 78.4415 20.8466 77.6699 20.0976L84.1293 12.2121C84.5923 13.1593 84.8127 14.2826 84.8127 15.6042C84.8127 16.4412 84.7025 17.2122 84.482 17.895C84.2616 18.5778 83.9529 19.1725 83.5782 19.6791C83.1813 20.1637 82.7184 20.5602 82.1893 20.8245C81.6381 21.0888 81.0649 21.243 80.4476 21.243Z" fill="#012A4C"/>
  <path d="M44.0384 1H25.1711V7.27623H44.0384V1Z" fill="#009FE3"/>
  <path d="M44.0608 16.7238H12.5857V23H44.0608V16.7238Z" fill="#A6DDF5"/>
  <path d="M44.0385 8.87305H0V15.1493H44.0385V8.87305Z" fill="#012A4C"/>
</svg>
