<svg xmlns="http://www.w3.org/2000/svg" viewBox="0 0 675.78 147.38" fill="#222038" stroke-width="0">
    <path d="M338,2.28c42.85,0,69.82,27.57,69.82,71.41s-26.98,71.41-69.82,71.41h-52.27V2.28h52.27ZM310.33,126.56h27.27c28.66,0,45.62-20.13,45.62-52.86s-16.96-52.86-45.62-52.86h-27.27v105.73Z" />
    <path d="M480.21,0c34.61,0,54.95,16.96,56.63,41.66v2.98h-23.11c-.59-19.14-14.98-26.78-33.13-26.78s-30.15,7.93-30.15,21.42,10.71,18.84,27.57,21.92l18.65,3.57c26.38,4.96,44.04,15.57,44.04,40.27s-19.74,42.35-56.24,42.35-59.31-17.36-61.2-42.55v-2.98h23.31c2.28,19.44,17.85,27.67,37.69,27.67s32.33-8.23,32.33-22.91-11.8-19.24-29.66-22.61l-18.65-3.57c-25.39-4.76-41.95-17.36-41.95-40.17S445.5,0,480.21,0Z" />
    <path d="M626.49,2.28c25.99,0,44.93,12.3,44.93,36.1s-15.57,29.85-23.61,31.84v1.98c9.62,1.88,27.97,9.42,27.97,33.82s-19.74,39.08-47.01,39.08h-67.05V2.28h64.77ZM586.32,63.38h35.51c14.68,0,25.79-6.55,25.59-21.42,0-14.78-11.11-21.42-25.59-21.42h-35.51v42.85ZM586.32,126.85h38.09c15.47,0,27.27-6.94,27.27-22.51s-11.8-22.71-27.27-22.71h-38.09v45.23Z" />
    <path d="M81.23,95.86l-7.94,20.23c-.67,1.7-3.07,1.7-3.73,0l-8.94-22.76-.84-2.14c-1.05-2.67-3.16-4.78-5.83-5.83l-2.14-.84-22.76-8.94c-1.7-.67-1.7-3.07,0-3.73l22.76-8.94,2.14-.84c2.67-1.05,4.78-3.16,5.83-5.83l.84-2.14,8.94-22.76c.67-1.7,3.07-1.7,3.73,0l8.94,22.76.73,1.57c1.13,2.42,3.14,4.3,5.62,5.28l54.27,21.25v-7.44c0-4.97-3.05-9.44-7.67-11.25l-34.25-13.45c-2.67-1.05-4.78-3.16-5.83-5.83l-14.63-37.26c-1.1-2.81-3.81-4.65-6.83-4.65h-4.42c-3.02,0-5.72,1.85-6.83,4.65l-14.64,37.26c-1.05,2.67-3.16,4.78-5.83,5.83l-37.26,14.63c-2.81,1.1-4.65,3.81-4.65,6.83v4.42c0,3.02,1.85,5.72,4.65,6.83l37.26,14.63c2.67,1.05,4.78,3.16,5.83,5.83l14.64,37.26c1.1,2.81,3.81,4.65,6.83,4.65h4.42c3.02,0,5.73-1.85,6.83-4.65l15.3-38.96h0s-14.53-5.66-14.53-5.66h0Z" />
    <path d="M81.23,95.86l-7.94,20.23c-.67,1.7-3.07,1.7-3.73,0l-8.94-22.76-.84-2.14c-1.05-2.67-3.16-4.78-5.83-5.83l-2.14-.84-22.76-8.94c-1.7-.67-1.7-3.07,0-3.73l22.76-8.94,2.14-.84c2.67-1.05,4.78-3.16,5.83-5.83l.84-2.14,8.94-22.76c.67-1.7,3.07-1.7,3.73,0l8.94,22.76.73,1.57c1.13,2.42,3.14,4.3,5.62,5.28l54.27,21.25v-7.44c0-4.97-3.05-9.44-7.67-11.25l-34.25-13.45c-2.67-1.05-4.78-3.16-5.83-5.83l-14.63-37.26c-1.1-2.81-3.81-4.65-6.83-4.65h-4.42c-3.02,0-5.72,1.85-6.83,4.65l-14.64,37.26c-1.05,2.67-3.16,4.78-5.83,5.83l-37.26,14.63c-2.81,1.1-4.65,3.81-4.65,6.83v4.42c0,3.02,1.85,5.72,4.65,6.83l37.26,14.63c2.67,1.05,4.78,3.16,5.83,5.83l14.64,37.26c1.1,2.81,3.81,4.65,6.83,4.65h4.42c3.02,0,5.73-1.85,6.83-4.65l15.3-38.96h0s-14.53-5.66-14.53-5.66h0Z" />
    <path d="M133.03,51.57l7.94-20.23c.67-1.7,3.07-1.7,3.73,0l8.94,22.76.84,2.14c1.05,2.67,3.16,4.78,5.83,5.83l2.14.84,22.76,8.94c1.7.67,1.7,3.07,0,3.73l-22.76,8.94-2.14.84c-2.67,1.05-4.78,3.16-5.83,5.83l-.84,2.14-8.94,22.76c-.67,1.7-3.07,1.7-3.73,0l-8.94-22.76-.73-1.57c-1.13-2.42-3.14-4.3-5.62-5.28l-54.27-21.25v7.44c0,4.97,3.05,9.44,7.67,11.25l34.25,13.45c2.67,1.05,4.78,3.16,5.83,5.83l14.63,37.26c1.1,2.81,3.81,4.65,6.83,4.65h4.42c3.02,0,5.72-1.85,6.83-4.65l14.64-37.26c1.05-2.67,3.16-4.78,5.83-5.83l37.26-14.63c2.81-1.1,4.65-3.81,4.65-6.83v-4.42c0-3.02-1.85-5.72-4.65-6.83l-37.26-14.63c-2.67-1.05-4.78-3.16-5.83-5.83l-14.64-37.26c-1.1-2.81-3.81-4.65-6.83-4.65h-4.42c-3.02,0-5.73,1.85-6.83,4.65l-15.3,38.96h0s14.53,5.66,14.53,5.66h0Z" />
    <path d="M133.03,51.57l7.94-20.23c.67-1.7,3.07-1.7,3.73,0l8.94,22.76.84,2.14c1.05,2.67,3.16,4.78,5.83,5.83l2.14.84,22.76,8.94c1.7.67,1.7,3.07,0,3.73l-22.76,8.94-2.14.84c-2.67,1.05-4.78,3.16-5.83,5.83l-.84,2.14-8.94,22.76c-.67,1.7-3.07,1.7-3.73,0l-8.94-22.76-.73-1.57c-1.13-2.42-3.14-4.3-5.62-5.28l-54.27-21.25v7.44c0,4.97,3.05,9.44,7.67,11.25l34.25,13.45c2.67,1.05,4.78,3.16,5.83,5.83l14.63,37.26c1.1,2.81,3.81,4.65,6.83,4.65h4.42c3.02,0,5.72-1.85,6.83-4.65l14.64-37.26c1.05-2.67,3.16-4.78,5.83-5.83l37.26-14.63c2.81-1.1,4.65-3.81,4.65-6.83v-4.42c0-3.02-1.85-5.72-4.65-6.83l-37.26-14.63c-2.67-1.05-4.78-3.16-5.83-5.83l-14.64-37.26c-1.1-2.81-3.81-4.65-6.83-4.65h-4.42c-3.02,0-5.73,1.85-6.83,4.65l-15.3,38.96h0s14.53,5.66,14.53,5.66h0Z" />
</svg>