<svg xmlns="http://www.w3.org/2000/svg" viewBox="-2 -4 112 112" overflow="hidden">
  <path fill="#3D4574" d="M82.52,34.76c-.37,4.2-4.07,7.29-8.27,6.9-4.19-.36-7.28-4.07-6.91-8.26.38-4.19,4.08-7.29,8.28-6.93,4.19.4,7.29,4.09,6.9,8.28M84.1,24.64h0s-.01-.01-.01-.01c-11.57-11.69-34.9-14.36-80.22,5.23-.2.07-.85.37-.85.4-1.2.75-2.01,2.07-2.01,3.57,0,2.33,1.9,4.4,4.22,4.23.75-.07,1.31-.31,2.03-.55,6.66-2.44,39.45-11.37,56.7,4.21.56.46,1.08.93,1.61,1.43.49.52.97,1.04,1.42,1.61,15.54,17.28,6.56,50.06,4.11,56.7-.25.72-.5,1.27-.56,2.03-.19,2.34,1.88,4.23,4.22,4.23,1.5,0,2.83-.81,3.57-2.01.02,0,.33-.64.4-.85,19.66-45.29,17.05-68.62,5.37-80.21"/>
  <path fill="#3D4574" d="M106.61,12.72c-.5,5.44-5.3,9.47-10.76,8.98-5.44-.49-9.46-5.3-8.97-10.76.49-5.44,5.29-9.46,10.74-8.98,5.45.48,9.46,5.3,8.98,10.75"/>
  <path fill="#3D4574" d="M61.5,53.12c-.25,2.85-2.77,4.96-5.63,4.69-2.85-.25-4.96-2.77-4.71-5.63.25-2.84,2.78-4.95,5.63-4.69,2.86.26,4.97,2.77,4.71,5.63"/>
  <path fill="#3D4574" d="M46.9,66.27c-.2,2.15-2.09,3.74-4.24,3.54-2.14-.19-3.72-2.09-3.53-4.23.19-2.13,2.08-3.73,4.23-3.53,2.14.19,3.72,2.07,3.53,4.22"/>
</svg>