<svg id="Layer_1" xmlns="http://www.w3.org/2000/svg" viewBox="0 0 331 162"><defs><style>.cls-1{fill:#3D4574;stroke-width:0px;}</style></defs><path class="cls-1" d="M82.52,34.76c-.37,4.2-4.07,7.29-8.27,6.9-4.19-.36-7.28-4.07-6.91-8.26.38-4.19,4.08-7.29,8.28-6.93,4.19.4,7.29,4.09,6.9,8.28M84.1,24.64h0s-.01-.01-.01-.01c-11.57-11.69-34.9-14.36-80.22,5.23-.2.07-.85.37-.85.4-1.2.75-2.01,2.07-2.01,3.57,0,2.33,1.9,4.4,4.22,4.23.75-.07,1.31-.31,2.03-.55,6.66-2.44,39.45-11.37,56.7,4.21.56.46,1.08.93,1.61,1.43.49.52.97,1.04,1.42,1.61,15.54,17.28,6.56,50.06,4.11,56.7-.25.72-.5,1.27-.56,2.03-.19,2.34,1.88,4.23,4.22,4.23,1.5,0,2.83-.81,3.57-2.01.02,0,.33-.64.4-.85,19.66-45.29,17.05-68.62,5.37-80.21"/><path class="cls-1" d="M106.61,12.72c-.5,5.44-5.3,9.47-10.76,8.98-5.44-.49-9.46-5.3-8.97-10.76.49-5.44,5.29-9.46,10.74-8.98,5.45.48,9.46,5.3,8.98,10.75"/><path class="cls-1" d="M61.5,53.12c-.25,2.85-2.77,4.96-5.63,4.69-2.85-.25-4.96-2.77-4.71-5.63.25-2.84,2.78-4.95,5.63-4.69,2.86.26,4.97,2.77,4.71,5.63"/><path class="cls-1" d="M46.9,66.27c-.2,2.15-2.09,3.74-4.24,3.54-2.14-.19-3.72-2.09-3.53-4.23.19-2.13,2.08-3.73,4.23-3.53,2.14.19,3.72,2.07,3.53,4.22"/><path class="cls-1" d="M241.83,25.18h-9.32c-1.28,0-2.33,1.2-2.33,2.67v31.21h-32.24v-31.21c0-1.47-1.04-2.67-2.33-2.67h-9.43c-1.24,0-2.33,1.25-2.33,2.67v78.97c0,1.42,1.09,2.67,2.33,2.67h9.43c1.28,0,2.33-1.2,2.33-2.67v-32.52h32.24v32.52c0,1.47,1.04,2.67,2.33,2.67h9.32c1.24,0,2.33-1.25,2.33-2.67V27.86c0-1.42-1.09-2.67-2.33-2.67Z"/><path class="cls-1" d="M173.95,25.18h-41.25c-1.28,0-2.33,1.2-2.33,2.67v78.97c0,1.47,1.05,2.67,2.33,2.67h9.32c1.24,0,2.33-1.25,2.33-2.67v-32.52h24.63c1.24,0,2.33-1.25,2.33-2.67v-9.78c0-1.42-1.09-2.67-2.33-2.67h-24.63v-18.88h29.6c1.28,0,2.33-1.2,2.33-2.67v-9.78c0-1.47-1.05-2.67-2.33-2.67Z"/><path class="cls-1" d="M271.71,25.18h-9.43c-1.24,0-2.33,1.25-2.33,2.67v78.97c0,1.42,1.09,2.67,2.33,2.67h9.43c1.24,0,2.33-1.25,2.33-2.67V27.86c0-1.42-1.09-2.67-2.33-2.67Z"/><rect class="cls-1" x="38.56" y="124.9" width="291.18" height=".58"/><path class="cls-1" d="M38.56,137.59c0-.32.26-.62.62-.62h12.95c.36,0,.62.29.62.62v1.81c0,.32-.26.62-.62.62h-10.23v7.48h8.65c.32,0,.62.29.62.62v1.78c0,.32-.29.62-.62.62h-8.65v8.52c0,.32-.29.62-.62.62h-2.1c-.36,0-.62-.29-.62-.62v-21.44Z"/><path class="cls-1" d="M60.38,144.36c4.18,0,7.61,3.56,7.61,7.77s-3.43,7.87-7.61,7.87-7.64-3.59-7.64-7.87,3.43-7.77,7.64-7.77ZM60.38,156.92c2.49,0,4.44-2.04,4.44-4.79s-1.94-4.7-4.44-4.7-4.47,2.01-4.47,4.7,1.94,4.79,4.47,4.79Z"/><path class="cls-1" d="M71.16,137.69c0-.36.32-.71.71-.71h1.81c.36,0,.71.36.71.71v21.24c0,.39-.36.71-.71.71h-1.81c-.39,0-.71-.32-.71-.71v-21.24Z"/><path class="cls-1" d="M80,137.69c0-.36.32-.71.71-.71h1.81c.36,0,.71.36.71.71v12.66l5.76-5.21c.26-.23.55-.45.94-.45h2.36c.65,0,.74.71.39,1.04l-6.05,5.7,6.35,7.25c.29.36.23.97-.42.97h-2.65c-.29,0-.55-.13-.68-.29l-5.99-6.96v6.54c0,.39-.36.71-.71.71h-1.81c-.39,0-.71-.32-.71-.71v-21.24Z"/><path class="cls-1" d="M102.54,144.36c3.89,0,6.83,2.88,6.83,6.86,0,.26-.03.78-.06,1.04-.03.39-.36.65-.68.65h-10.33c.03,2.01,1.85,4.08,4.47,4.08,1.72,0,2.75-.62,3.66-1.26.32-.23.61-.32.87.06l.87,1.36c.26.32.39.62-.06,1-1.07.94-3.04,1.85-5.54,1.85-4.53,0-7.48-3.56-7.48-7.84s2.95-7.8,7.45-7.8ZM106.17,150.51c-.06-1.81-1.49-3.4-3.69-3.4-2.36,0-3.79,1.52-4.01,3.4h7.71Z"/><path class="cls-1" d="M113.22,137.69c0-.36.32-.71.71-.71h1.81c.36,0,.71.36.71.71v8.22c.36-.26,1.98-1.55,4.34-1.55,4.24,0,5.8,2.98,5.8,7.06v7.51c0,.39-.36.71-.71.71h-1.81c-.39,0-.71-.32-.71-.71v-7.58c0-2.46-1.04-3.92-2.98-3.92-2.3,0-3.59,1.52-3.92,2.17v9.33c0,.42-.29.71-.74.71h-1.78c-.39,0-.71-.32-.71-.71v-21.24Z"/><path class="cls-1" d="M137.51,144.36c3.89,0,6.83,2.88,6.83,6.86,0,.26-.03.78-.06,1.04-.03.39-.36.65-.68.65h-10.33c.03,2.01,1.85,4.08,4.47,4.08,1.72,0,2.75-.62,3.66-1.26.32-.23.61-.32.87.06l.87,1.36c.26.32.39.62-.06,1-1.07.94-3.04,1.85-5.54,1.85-4.53,0-7.48-3.56-7.48-7.84s2.95-7.8,7.45-7.8ZM141.14,150.51c-.06-1.81-1.49-3.4-3.69-3.4-2.36,0-3.79,1.52-4.01,3.4h7.71Z"/><path class="cls-1" d="M148.39,137.69c0-.36.32-.71.71-.71h1.81c.36,0,.71.36.71.71v21.24c0,.39-.36.71-.71.71h-1.81c-.39,0-.71-.32-.71-.71v-21.24Z"/><path class="cls-1" d="M156.06,158.48c-.23-.16-.42-.45-.26-.78l.68-1.39c.16-.32.58-.42.97-.19.87.49,1.94,1.1,3.72,1.1,1.26,0,1.98-.62,1.98-1.46,0-1-1.13-1.65-3.21-2.59-2.3-1.04-4.05-2.27-4.05-4.73,0-1.88,1.33-4.08,4.95-4.08,2.07,0,3.63.62,4.37,1.1.36.26.52.71.32,1.1l-.52,1.04c-.23.45-.68.42-.97.29-1.04-.45-2.04-.75-3.21-.75-1.29,0-1.91.65-1.91,1.33,0,.97,1.07,1.55,2.56,2.2,2.75,1.17,4.82,2.17,4.82,4.95,0,2.33-2.01,4.37-5.34,4.37-2.36,0-4.08-.94-4.92-1.52Z"/><path class="cls-1" d="M176.43,144.36c3.89,0,6.83,2.88,6.83,6.86,0,.26-.03.78-.06,1.04-.03.39-.36.65-.68.65h-10.33c.03,2.01,1.85,4.08,4.47,4.08,1.72,0,2.75-.62,3.66-1.26.32-.23.62-.32.87.06l.87,1.36c.26.32.39.62-.06,1-1.07.94-3.04,1.85-5.54,1.85-4.53,0-7.48-3.56-7.48-7.84s2.95-7.8,7.45-7.8ZM180.05,150.51c-.06-1.81-1.49-3.4-3.69-3.4-2.36,0-3.79,1.52-4.01,3.4h7.71Z"/><path class="cls-1" d="M186.69,139.31c0-1.23.94-2.2,2.14-2.2s2.2.97,2.2,2.2-.97,2.17-2.2,2.17-2.14-.97-2.14-2.17ZM187.21,145.4c0-.36.32-.71.71-.71h1.81c.36,0,.71.36.71.71v13.53c0,.39-.36.71-.71.71h-1.81c-.39,0-.71-.32-.71-.71v-13.53Z"/><path class="cls-1" d="M195.4,145.4c0-.36.32-.71.71-.71h.78c.32,0,.55.16.62.45l.45,1.29c.32-.39,2.04-2.07,5.02-2.07,4.57,0,5.8,3.17,5.8,7.06v7.51c0,.39-.36.71-.71.71h-1.81c-.39,0-.71-.32-.71-.71v-7.64c0-2.43-1-3.85-2.95-3.85-2.36,0-3.72,1.65-3.95,2.17v9.33c0,.49-.26.71-.87.71h-1.65c-.39,0-.71-.32-.71-.71v-13.53Z"/><path class="cls-1" d="M212.99,158.48c-.23-.16-.42-.45-.26-.78l.68-1.39c.16-.32.58-.42.97-.19.87.49,1.94,1.1,3.72,1.1,1.26,0,1.97-.62,1.97-1.46,0-1-1.13-1.65-3.21-2.59-2.3-1.04-4.05-2.27-4.05-4.73,0-1.88,1.33-4.08,4.95-4.08,2.07,0,3.63.62,4.37,1.1.36.26.52.71.32,1.1l-.52,1.04c-.23.45-.68.42-.97.29-1.04-.45-2.04-.75-3.21-.75-1.29,0-1.91.65-1.91,1.33,0,.97,1.07,1.55,2.56,2.2,2.75,1.17,4.83,2.17,4.83,4.95,0,2.33-2.01,4.37-5.34,4.37-2.36,0-4.08-.94-4.92-1.52Z"/><path class="cls-1" d="M228.17,147.44h-1.72c-.42,0-.71-.36-.71-.71v-1.33c0-.42.29-.71.71-.71h1.72v-4.18c0-.39.32-.71.71-.71h1.85c.39,0,.68.32.68.71v4.18h3.95c.39,0,.71.29.71.71v1.33c0,.36-.32.71-.71.71h-3.95v7.97c0,1.26.49,1.52,1.2,1.52.94,0,1.85-.39,2.4-.71.45-.26.74,0,.87.32l.58,1.52c.16.39,0,.65-.36.87-.62.39-2.36,1.07-4.14,1.07-2.98,0-3.79-1.81-3.79-4.47v-8.09Z"/><path class="cls-1" d="M239.31,139.31c0-1.23.94-2.2,2.14-2.2s2.2.97,2.2,2.2-.97,2.17-2.2,2.17-2.14-.97-2.14-2.17ZM239.83,145.4c0-.36.32-.71.71-.71h1.81c.36,0,.71.36.71.71v13.53c0,.39-.36.71-.71.71h-1.81c-.39,0-.71-.32-.71-.71v-13.53Z"/><path class="cls-1" d="M248.86,147.44h-1.72c-.42,0-.71-.36-.71-.71v-1.33c0-.42.29-.71.71-.71h1.72v-4.18c0-.39.32-.71.71-.71h1.85c.39,0,.68.32.68.71v4.18h3.95c.39,0,.71.29.71.71v1.33c0,.36-.32.71-.71.71h-3.95v7.97c0,1.26.49,1.52,1.2,1.52.94,0,1.85-.39,2.4-.71.45-.26.75,0,.87.32l.58,1.52c.16.39,0,.65-.36.87-.62.39-2.36,1.07-4.14,1.07-2.98,0-3.79-1.81-3.79-4.47v-8.09Z"/><path class="cls-1" d="M260.19,145.4c0-.36.36-.71.71-.71h1.81c.39,0,.71.36.71.71v7.97c0,2.46,1,3.56,2.91,3.56,2.17,0,3.37-1.78,3.5-2.46v-9.07c0-.61.29-.71.84-.71h1.65c.39,0,.74.36.74.71v13.53c0,.39-.36.71-.74.71h-.78c-.39,0-.55-.26-.68-.62l-.39-1.07c-.32.32-1.68,2.04-4.73,2.04-4.47,0-5.57-2.95-5.57-6.86v-7.74Z"/><path class="cls-1" d="M278.91,147.44h-1.72c-.42,0-.71-.36-.71-.71v-1.33c0-.42.29-.71.71-.71h1.72v-4.18c0-.39.32-.71.71-.71h1.85c.39,0,.68.32.68.71v4.18h3.95c.39,0,.71.29.71.71v1.33c0,.36-.32.71-.71.71h-3.95v7.97c0,1.26.49,1.52,1.2,1.52.94,0,1.85-.39,2.4-.71.45-.26.75,0,.87.32l.58,1.52c.16.39,0,.65-.36.87-.62.39-2.36,1.07-4.14,1.07-2.98,0-3.79-1.81-3.79-4.47v-8.09Z"/><path class="cls-1" d="M292.06,147.44h-1.72c-.42,0-.71-.36-.71-.71v-1.33c0-.42.29-.71.71-.71h1.72v-4.18c0-.39.32-.71.71-.71h1.85c.39,0,.68.32.68.71v4.18h3.95c.39,0,.71.29.71.71v1.33c0,.36-.32.71-.71.71h-3.95v7.97c0,1.26.49,1.52,1.2,1.52.94,0,1.85-.39,2.4-.71.45-.26.74,0,.87.32l.58,1.52c.16.39,0,.65-.36.87-.62.39-2.36,1.07-4.14,1.07-2.98,0-3.79-1.81-3.79-4.47v-8.09Z"/><path class="cls-1" d="M309.96,144.36c3.89,0,6.83,2.88,6.83,6.86,0,.26-.03.78-.06,1.04-.03.39-.36.65-.68.65h-10.33c.03,2.01,1.85,4.08,4.47,4.08,1.72,0,2.75-.62,3.66-1.26.32-.23.62-.32.87.06l.87,1.36c.26.32.39.62-.06,1-1.07.94-3.04,1.85-5.54,1.85-4.53,0-7.48-3.56-7.48-7.84s2.95-7.8,7.45-7.8ZM313.59,150.51c-.07-1.81-1.49-3.4-3.69-3.4-2.36,0-3.79,1.52-4.01,3.4h7.71Z"/><path class="cls-1" d="M321.55,147.44h-1.72c-.42,0-.71-.36-.71-.71v-1.33c0-.42.29-.71.71-.71h1.72v-4.18c0-.39.32-.71.71-.71h1.85c.39,0,.68.32.68.71v4.18h3.95c.39,0,.71.29.71.71v1.33c0,.36-.32.71-.71.71h-3.95v7.97c0,1.26.49,1.52,1.2,1.52.94,0,1.85-.39,2.4-.71.45-.26.75,0,.87.32l.58,1.52c.16.39,0,.65-.36.87-.62.39-2.36,1.07-4.14,1.07-2.98,0-3.79-1.81-3.79-4.47v-8.09Z"/></svg>