<?xml version='1.0' encoding='utf-8'?>
<svg overflow="hidden" xmlns="http://www.w3.org/2000/svg" fill="none" viewBox="-15.5 0 72 72"><path d="M117.811 33.019C115.304 32.5801 114.09 31.9628 114.09 30.2604 114.09 28.664 115.304 27.8635 117.346 27.8635 119.65 27.8635 120.68 28.9438 120.71 31.1092H123.526C123.526 31.1092 123.598 29.0209 123.095 28.0178 122.592 27.0147 121.077 25.2109 117.375 25.2109 113.673 25.2109 110.935 26.8844 110.935 30.2363 110.935 33.5881 112.952 35.1555 117.216 35.8789 119.906 36.3419 121.092 36.8579 121.092 38.6086 121.092 40.3592 119.698 41.0827 117.651 41.0827 116.374 41.0827 115.406 40.8994 114.791 40.3544V38.3289H111.089C111.089 38.3289 110.988 40.0747 111.491 41.0827 111.994 42.0858 113.509 43.7545 117.646 43.7545 121.784 43.7545 124.242 42.0617 124.242 38.6616 124.242 35.2616 122.069 33.7665 117.806 33.019H117.811ZM64.9199 28.1213V40.8244 43.5059H69.9574V40.8244H67.9976V36.1608H74.8836V33.4794H67.9976V28.1213H74.3271 77.376V25.4688H64.9199V28.1213ZM104.609 36.1898C107.014 35.5966 108.486 33.8941 108.486 30.9329 108.486 27.1953 106.105 25.4688 102.485 25.4688H95.376V43.5059H98.454V28.1213H102.359C104.145 28.1213 105.282 28.9701 105.282 30.9281 105.282 32.8862 104.145 33.735 102.359 33.735H99.988V36.4164H101.246L105.33 43.5011H109.298V40.8196H107.319L104.605 36.1801 104.609 36.1898ZM85.442 25.2109C81.073 25.2109 78.305 27.4776 78.305 31.7024V37.2437C78.305 41.4974 81.073 43.7641 85.389 43.7641 89.706 43.7641 92.527 41.4974 92.527 37.2437V31.7024C92.527 27.4776 89.759 25.2109 85.442 25.2109ZM89.449 37.2437C89.449 39.7419 87.896 41.0826 85.389 41.0826 82.882 41.0826 81.382 39.7419 81.382 37.2437V31.7024C81.382 29.2283 82.936 27.8635 85.442 27.8635 87.949 27.8635 89.449 29.2283 89.449 31.7024V37.2437ZM148.306 25.4688H144.503L138.019 43.5059H141.178L146.264 29.0279 148.771 35.5146H145.437L144.546 38.196H149.623L151.558 43.5059H155.797V40.8244H153.862L148.306 25.4688ZM198.739 34.386C200.109 33.6385 200.912 32.2496 200.912 30.2626 200.912 27.0651 198.923 25.4688 195.739 25.4688H188.5V43.5059H196.049C199.257 43.5059 201.222 41.8806 201.222 38.7121 201.222 36.5466 200.317 35.0805 198.739 34.3812V34.386ZM195.531 40.8293H191.578V28.1261H195.221C196.93 28.1261 197.728 29.0038 197.728 30.6243 197.728 32.2447 196.925 33.1514 195.221 33.1514H193.015V35.8039H195.531C197.264 35.8039 198.067 36.7058 198.067 38.3552 198.067 40.0046 197.239 40.8293 195.531 40.8293ZM211.611 36.8842 218.638 25.4688H215.202L210.058 33.9954 204.909 25.4688H201.459L208.534 36.8842V40.8244H207.179V43.5059H212.966V40.8244H211.611V36.8842ZM166.536 36.1898C168.941 35.5966 170.412 33.8941 170.412 30.9329 170.412 27.1953 168.031 25.4688 164.411 25.4688H157.303V43.5059H160.438L160.376 40.8244V28.1213H164.281C166.066 28.1213 167.203 28.9701 167.203 30.9281 167.203 32.8862 166.066 33.735 164.281 33.735H161.885V36.4164H163.168L167.252 43.5011H171.254V40.8196H169.246L166.531 36.1801 166.536 36.1898ZM229.638 33.5254H225.461V36.2213H229.638V37.2437C229.638 39.7419 228.084 41.0826 225.578 41.0826 223.071 41.0826 221.571 39.7419 221.571 37.2437V31.7024C221.571 29.2283 223.124 27.8635 225.631 27.8635 227.925 27.8635 229.429 29.0547 229.618 31.2346H232.701C232.502 27.3137 229.783 25.2109 225.631 25.2109 221.261 25.2109 218.493 27.4776 218.493 31.7024V37.2437C218.493 41.4974 221.261 43.7641 225.578 43.7641 229.894 43.7641 232.715 41.4974 232.715 37.2437V33.5254H229.638ZM246.148 33.5224H241.769V36.2183H245.945V37.2407C245.945 39.7389 244.392 41.0797 241.885 41.0797 239.379 41.0797 237.878 39.7389 237.878 36.8019V31.2605C237.878 29.2253 239.432 27.8556 241.938 27.8556 244.232 27.8556 245.737 29.0469 245.926 31.2268H249.008C248.81 27.3058 246.09 25.2031 241.938 25.2031 237.569 25.2031 234.801 27.4698 234.801 31.2605V36.8019C234.801 41.4896 237.569 43.7563 241.885 43.7563 246.202 43.7563 249.023 41.4896 249.023 37.2359V33.5176H246.148V33.5224ZM137.908 25.4688 132.652 39.9804 129.289 30.8124 127.358 25.5073H124.058L130.61 43.5445H134.409L141.116 25.4688H137.908ZM179.756 33.019C177.25 32.5801 176.035 31.9628 176.035 30.2604 176.035 28.664 177.25 27.8635 179.292 27.8635 181.595 27.8635 182.626 28.9438 182.655 31.1092H185.471C185.471 31.1092 185.544 29.0209 185.04 28.0178 184.537 27.0147 183.023 25.2109 179.321 25.2109 175.619 25.2109 172.88 26.8844 172.88 30.2363 172.88 33.5881 174.898 35.1555 179.161 35.8789 181.852 36.3419 183.037 36.8579 183.037 38.6086 183.037 40.3592 181.643 41.0827 179.597 41.0827 178.319 41.0827 177.351 40.8994 176.737 40.3544V38.3289H173.035C173.035 38.3289 172.933 40.0747 173.436 41.0827 173.94 42.0858 175.454 43.7545 179.592 43.7545 183.729 43.7545 186.187 42.0617 186.187 38.6616 186.187 35.2616 184.015 33.7665 179.751 33.019H179.756Z" fill="#000" /><path d="M36.8321 16.9586C38.008 12.4493 38.1386 12.16 29.2831 12.16C29.2831 12.16 29.2831 12.16 29.2879 12.1648C28.6105 11.4751 26.6265 11.6102 21.7148 12.2613V12.2516L21.6858 12.2613C22.9197 11.8706 23.8198 10.7228 23.8198 9.35801C23.8198 7.93041 22.8326 6.73441 21.5067 6.40641V3.99501H23.2004V2.56751H21.5116V0.773407H20.0308V2.40841V2.56751H18.3371V3.99501H20.0308V6.40641C18.7 6.73441 17.7177 7.93041 17.7177 9.35801C17.7177 10.7083 18.5984 11.8465 19.8179 12.2468V12.2757V12.2516C14.9498 11.6247 12.9222 11.4366 12.2157 12.1552C3.95542 12.2757 3.39412 12.0539 4.70062 16.9538C4.46352 17.0069 4.22152 17.0888 3.98932 17.1949C4.39092 18.2656 5.64422 23.3343 5.93462 25.0898H35.6175C35.903 23.3343 37.1611 18.2704 37.5628 17.1949C37.3257 17.084 37.0837 17.002 36.8466 16.949L36.8321 16.9586ZM12.4528 20.0741C12.4528 20.0741 12.5593 20.1802 12.5931 20.214C12.4673 20.7204 11.6931 22.2058 11.2576 22.553C10.1349 23.0208 8.60572 22.9678 7.72992 22.553C7.52182 22.3987 6.58302 21.111 6.27332 20.5082C6.27332 20.5082 6.37982 20.4069 6.45232 20.3297C10.1881 24.2362 10.1881 15.5697 6.45232 19.452L6.27332 19.2736C7.14432 18.1209 6.91212 17.3686 6.23462 17.0503C5.27162 13.1728 5.42162 13.3271 11.8866 13.3271C11.9108 14.0602 12.1383 15.0729 12.3609 16.4233C11.5963 16.7561 11.2576 17.5904 12.5931 18.9215C12.5399 18.9745 12.4528 19.0614 12.4528 19.0614C8.99772 15.6131 8.99772 23.5176 12.4528 20.0693V20.0741ZM20.0792 19.8812C20.1179 19.9198 20.2098 20.0066 20.2389 20.0404C20.0985 20.5082 19.3049 22.1286 18.7484 22.5434C17.6645 22.9292 16.5321 22.9774 15.395 22.5434C14.9594 22.1961 14.0158 20.7156 13.89 20.2043C13.9239 20.1706 14.0061 20.0886 14.0303 20.0645C17.4854 23.5079 17.4854 15.6083 14.0303 19.0565C14.0303 19.0565 13.9432 18.9697 13.89 18.9167C15.3708 17.4216 14.7465 16.5535 13.7932 16.3172C13.2658 12.4445 12.7383 12.4349 19.8759 13.2403C19.8759 13.221 19.8759 13.2065 19.8759 13.1872L20.0695 16.0954C19.1065 16.3847 18.5646 17.301 20.2437 18.8443L20.084 19.0035C16.4499 14.962 16.4499 23.9179 20.084 19.8764L20.0792 19.8812ZM27.512 20.0741C27.512 20.0741 27.6185 20.1802 27.6475 20.214C27.5217 20.7204 26.7474 22.2058 26.3119 22.553C25.0876 22.9389 24.0182 22.9581 22.8036 22.553C22.2423 22.1335 21.4535 20.5178 21.3132 20.05C21.347 20.0163 21.4341 19.9294 21.4728 19.8909C25.107 23.9323 25.107 14.9765 21.4728 19.0179L21.3132 18.8588C23.0068 17.3059 22.4358 16.3847 21.4632 16.105L21.6422 13.2692C28.8669 12.3674 28.1459 12.6326 27.662 16.3558C26.7523 16.621 26.2006 17.4795 27.6427 18.936C27.5894 18.989 27.5072 19.0758 27.5072 19.0758C24.0521 15.6275 24.0521 23.5321 27.5072 20.0838L27.512 20.0741ZM35.0755 20.3297C35.1481 20.4021 35.2545 20.5082 35.2545 20.5082C34.94 21.111 34.0012 22.3987 33.798 22.553C32.7866 22.9678 31.4559 23.0208 30.2896 22.553C29.8541 22.2058 29.0799 20.7252 28.9541 20.214C28.9541 20.214 29.0702 20.0982 29.0944 20.0741C32.5495 23.5176 32.5495 15.6179 29.0944 19.0662C29.0944 19.0662 29.0073 18.9794 28.9541 18.9263C30.3429 17.5422 29.917 16.6982 29.0895 16.3895C29.2879 15.0681 29.5347 14.065 29.5831 13.3319C36.174 13.3319 36.2465 13.2403 35.2981 17.0503C34.6254 17.3686 34.3883 18.1209 35.2594 19.2736L35.0803 19.452C31.3494 15.5648 31.3494 24.2314 35.0803 20.3297H35.0755Z" fill="#FFD600" /><path d="M37.5873 17.1205C37.3792 17.024 37.1614 16.9469 36.9485 16.8938C37.447 14.9695 37.7518 13.8072 37.1953 13.0935C36.4743 12.1627 34.3499 12.0711 29.3173 12.0662C28.6205 11.4248 26.8155 11.502 22.3055 12.0903C23.2636 11.5502 23.9072 10.5278 23.9072 9.36069C23.9072 7.91869 22.9249 6.70329 21.5941 6.33679V4.08939H23.2878V2.47379H21.599V0.679688H19.9343V2.40619C19.9343 2.40619 19.9343 2.44479 19.9343 2.47379H18.2407V4.08939H19.9343V6.33679C18.6036 6.70329 17.6213 7.91869 17.6213 9.36069C17.6213 10.5278 18.2649 11.5454 19.2133 12.0855C14.7469 11.5164 12.8983 11.3862 12.1725 12.0662L11.1514 12.0807C6.96557 12.1337 5.05417 12.1627 4.36217 13.0694C3.85887 13.7301 4.01857 14.7863 4.57507 16.889C4.36217 16.942 4.14927 17.0192 3.94117 17.1157L3.86377 17.1542L3.89277 17.2362C4.30407 18.3358 5.55257 23.4142 5.83327 25.1118L5.84777 25.189H35.6904L35.7049 25.1118C35.9807 23.4142 37.234 18.3358 37.6454 17.2362L37.6744 17.1542L37.597 17.1157L37.5873 17.1205ZM37.0453 13.2092C37.5437 13.8507 37.2486 14.9792 36.7646 16.8504C36.2953 16.7588 35.8355 16.7732 35.4678 16.889C35.4581 16.889 35.4436 16.8938 35.4339 16.8986C35.8113 15.3891 36.0194 14.4631 35.5984 13.9278C35.0807 13.2671 33.7112 13.2382 30.4738 13.2382C30.3335 13.2382 30.1932 13.2382 30.048 13.2382H29.6851C29.6851 13.2092 29.6851 13.1803 29.6851 13.1562V13.1321C29.6851 13.0742 29.6851 13.0163 29.6851 12.9536C29.6851 12.9006 29.6802 12.8523 29.6706 12.8041V12.7848C29.6609 12.7366 29.6512 12.6884 29.6415 12.6401V12.6112C29.6222 12.563 29.6125 12.5196 29.5931 12.4762C29.5786 12.4328 29.5593 12.3894 29.5399 12.3508L29.5254 12.3267C29.5109 12.3025 29.4964 12.2784 29.4818 12.2543C34.229 12.2543 36.392 12.3556 37.0502 13.2092H37.0453ZM34.8193 17.2941C34.7516 17.3761 34.6838 17.487 34.6403 17.6365C33.4015 16.5321 31.6739 15.746 29.3754 15.2444C29.3947 15.1287 29.4189 15.0178 29.4383 14.9068C29.5447 14.3378 29.6318 13.841 29.6657 13.4263H30.0383C33.4112 13.4263 34.9548 13.4262 35.4387 14.0436C35.8162 14.5258 35.5888 15.4566 35.2065 16.9903C35.0516 17.0674 34.9161 17.1687 34.8145 17.2941H34.8193ZM6.31227 16.9903C5.90587 15.365 5.71707 14.4921 6.08487 14.0194C6.55907 13.4166 8.00117 13.4166 11.1563 13.4214H11.795C11.824 13.9133 11.9257 14.5162 12.0612 15.2589C9.92707 15.7605 8.23347 16.5369 6.88337 17.6269C6.83977 17.4822 6.77207 17.3713 6.70427 17.2893C6.60267 17.1639 6.47197 17.0674 6.31227 16.9854V16.9903ZM13.8371 13.243C14.3452 12.7173 15.8792 12.8909 19.5908 13.3153L19.7892 13.3394L19.8666 14.5258C17.3454 14.55 15.3759 14.685 13.6919 14.9454C13.5758 14.0821 13.5564 13.5324 13.8371 13.243ZM20.4182 12.4762C20.4182 12.4762 20.457 12.4762 20.4763 12.481C20.5005 12.481 20.5247 12.481 20.5441 12.4858C20.6167 12.4906 20.6892 12.4955 20.7618 12.4955C20.9941 12.4955 21.2167 12.4713 21.4345 12.4231C21.507 12.4086 21.5651 12.3942 21.6087 12.3797L21.4732 14.521V14.5789L21.449 14.8924C21.4296 15.2203 21.3957 15.746 21.3812 15.9775C21.1925 15.9341 20.9893 15.91 20.7763 15.91C20.5537 15.91 20.3457 15.9341 20.1521 15.9823L19.9634 13.1899C19.9489 12.9006 19.9247 12.5533 19.9101 12.3749C20.0553 12.4135 20.2005 12.4472 20.3553 12.4665C20.3747 12.4665 20.3941 12.4713 20.4182 12.4762ZM27.7736 14.9502C26.0461 14.6946 24.0476 14.5548 21.6619 14.5258L21.7393 13.3491C25.6057 12.8668 27.1204 12.7366 27.6333 13.2575C27.9237 13.5565 27.8946 14.0966 27.7785 14.9502H27.7736ZM29.2205 12.2302C29.2447 12.2543 29.2689 12.2833 29.2883 12.3074L29.298 12.317C29.3173 12.3459 29.3367 12.3797 29.356 12.4086L29.3657 12.4279C29.3851 12.4617 29.3996 12.4955 29.4141 12.534C29.4286 12.5726 29.4383 12.6064 29.448 12.645V12.6691C29.4625 12.7077 29.4722 12.7511 29.477 12.7945V12.8138C29.4867 12.8572 29.4915 12.9006 29.4915 12.9584C29.4915 13.0018 29.4915 13.0501 29.4915 13.0983C29.4915 13.1079 29.4915 13.1176 29.4915 13.1272V13.1369C29.4915 13.1948 29.4915 13.2526 29.4867 13.3105C29.4576 13.7301 29.3657 14.2509 29.2544 14.8586C29.235 14.9647 29.2157 15.0756 29.1963 15.1866L29.177 15.283C29.1479 15.447 29.1141 15.6447 29.0754 15.8617C29.0754 15.8714 29.0754 15.881 29.0754 15.8907C29.056 16.0016 29.0366 16.1174 29.0221 16.2331C29.0221 16.2427 29.0221 16.2476 29.0221 16.2572C28.6398 16.1366 28.1898 16.1222 27.793 16.2138C27.793 16.1945 27.7978 16.1704 27.8027 16.1511C27.8172 16.0498 27.8317 15.9486 27.8462 15.8521C27.8511 15.8135 27.8559 15.7749 27.8656 15.7364C27.8801 15.6399 27.8946 15.5434 27.9091 15.4518C27.9091 15.4373 27.9091 15.4229 27.914 15.4084C27.9333 15.2878 27.9478 15.1769 27.9624 15.066L27.9769 14.9744C28.1027 14.0629 28.1317 13.4793 27.7833 13.1224C27.2123 12.5437 25.7558 12.6594 21.7684 13.1562L21.8216 12.3411C26.5155 11.719 28.5914 11.5695 29.2399 12.2302H29.2205ZM23.5878 8.47809H21.5941V6.52969C22.5426 6.80459 23.2927 7.54249 23.5878 8.47809ZM18.4245 3.90129V2.66179H20.1231V2.57019C20.1231 2.57019 20.1231 2.52199 20.1231 2.47379V0.867786H21.4151V2.66179H23.1039V3.90129H21.4103V6.28859C21.2022 6.24519 20.9893 6.22099 20.7667 6.22099C20.5441 6.22099 20.3311 6.24519 20.1231 6.28859V3.90129H18.4294H18.4245ZM19.9343 6.52969V8.47809H17.9406C18.2358 7.54249 18.9859 6.80939 19.9343 6.52969ZM17.8923 8.66619H20.1182V6.48149C20.3263 6.43319 20.5392 6.40909 20.7618 6.40909C20.9844 6.40909 21.1973 6.43319 21.4054 6.48149V8.66619H23.6362C23.6895 8.88799 23.7233 9.11949 23.7233 9.36069C23.7233 9.56319 23.704 9.76099 23.6653 9.95389H17.8681C17.8293 9.76099 17.81 9.56319 17.81 9.36069C17.81 9.11949 17.8439 8.88799 17.8971 8.66619H17.8923ZM17.9164 10.1419H23.6169C23.3507 11.1065 22.6055 11.8781 21.6474 12.1772H21.6329C21.5506 12.2013 21.4683 12.2206 21.3861 12.2399C21.3619 12.2447 21.3377 12.2495 21.3086 12.2543C21.2699 12.264 21.2264 12.2688 21.1877 12.2736C21.0667 12.2881 20.9215 12.3025 20.7667 12.3025C20.7328 12.3025 20.6989 12.3025 20.6699 12.3025C20.6021 12.3025 20.5344 12.3025 20.4715 12.2929C20.4666 12.2929 20.4618 12.2929 20.457 12.2929C20.3747 12.2833 20.2973 12.2736 20.215 12.2543C20.1763 12.2447 20.1424 12.2398 20.1085 12.2302C20.0553 12.2206 20.0069 12.2061 19.9537 12.1916C19.9295 12.1868 19.9101 12.182 19.8956 12.1772C19.8956 12.1772 19.8521 12.1627 19.8472 12.1627C18.9085 11.8589 18.1778 11.0969 17.9164 10.1419ZM19.7263 12.3411L19.7795 13.1514L19.615 13.1321C15.734 12.6932 14.2823 12.5292 13.7064 13.1176C13.3677 13.4697 13.3871 14.058 13.5129 14.984L13.5274 15.0756C13.5274 15.0853 13.5274 15.1046 13.5322 15.119C13.5419 15.201 13.5564 15.283 13.5661 15.365C13.5903 15.529 13.6193 15.7267 13.6435 15.91C13.6581 16.0257 13.6774 16.1318 13.6871 16.2138C13.2709 16.1366 12.8161 16.1656 12.4386 16.3054C12.3805 15.9534 12.3225 15.6254 12.2644 15.3168C12.1144 14.4776 11.9983 13.8169 11.9837 13.3009C11.9837 13.2623 11.9837 13.2189 11.9837 13.1803V13.1417C11.9837 13.0935 11.9837 13.0453 11.9886 13.0018V12.9584C11.9983 12.915 12.0031 12.8716 12.0079 12.8282V12.8138C12.0176 12.7752 12.0225 12.7366 12.0321 12.698L12.0418 12.6691C12.0515 12.6305 12.066 12.5919 12.0757 12.5582V12.5437C12.095 12.5147 12.1096 12.481 12.1241 12.4569L12.1386 12.4328C12.1579 12.4038 12.1725 12.3701 12.1967 12.3411L12.2112 12.3218C12.2112 12.3218 12.2499 12.2784 12.2692 12.2543C12.9225 11.5598 14.9453 11.7383 19.7311 12.3556L19.7263 12.3411ZM4.75897 16.8504C4.21697 14.8056 4.05727 13.7831 4.51217 13.1851C5.15097 12.346 7.15427 12.3218 11.1563 12.2688L12.0128 12.2591C12.0128 12.2591 11.9837 12.3025 11.9692 12.3267L11.9547 12.3556C11.9353 12.3894 11.9208 12.4231 11.9063 12.4665V12.481C11.8821 12.5244 11.8724 12.563 11.8579 12.6112L11.8482 12.645C11.8386 12.6884 11.8289 12.7318 11.8192 12.7752V12.7945C11.8095 12.8379 11.8047 12.8861 11.7999 12.9343V12.9826C11.7902 13.0308 11.7902 13.0838 11.7902 13.1321V13.161V13.1755C11.7902 13.1755 11.7902 13.2189 11.7902 13.243H11.1611C7.94307 13.243 6.47197 13.2382 5.94457 13.9134C5.53327 14.4342 5.70747 15.3071 6.10427 16.9035C6.09457 16.9035 6.08007 16.8986 6.07037 16.8938C6.07037 16.8938 6.06547 16.8938 6.06067 16.8938C5.85257 16.8311 5.62037 16.7974 5.37357 16.7974C5.35417 16.7974 5.32997 16.7974 5.31067 16.7974C5.24767 16.7974 5.18477 16.7974 5.12187 16.807C5.08807 16.807 5.04927 16.8118 5.01057 16.8167C4.94287 16.8263 4.87507 16.8359 4.80737 16.8456C4.79287 16.8456 4.77347 16.8456 4.75897 16.8504ZM35.5307 25.0057H6.00257C5.70747 23.2695 4.53157 18.4902 4.09597 17.2555C4.27507 17.1784 4.45897 17.1157 4.64287 17.0674L4.67667 17.0578C4.67667 17.0578 4.70577 17.053 4.72027 17.0481C4.78797 17.0337 4.85087 17.0192 4.91377 17.0096C5.39777 16.9324 5.85257 16.9806 6.18647 17.135L6.25427 17.1687C6.37517 17.2314 6.47197 17.3134 6.55427 17.4099C6.64617 17.5256 6.70427 17.6606 6.72847 17.8101C6.73327 17.8535 6.73817 17.897 6.73817 17.9404C6.73817 17.9404 6.73817 17.9452 6.73817 17.95C6.73817 17.9982 6.73817 18.0465 6.72847 18.0995C6.72847 18.1043 6.72847 18.114 6.72847 18.1188C6.72367 18.1622 6.71397 18.2104 6.69947 18.2587C6.69947 18.2635 6.69947 18.2731 6.69457 18.2779C6.68007 18.331 6.66077 18.3841 6.64137 18.4419C6.64137 18.4467 6.63657 18.4564 6.63167 18.4612C6.61237 18.5094 6.59297 18.5577 6.56877 18.6107C6.56397 18.6204 6.55907 18.6348 6.55427 18.6445C6.52527 18.7024 6.49617 18.7554 6.46237 18.8133C6.46237 18.8229 6.45267 18.8277 6.44777 18.8374C6.41877 18.8856 6.38487 18.9387 6.35587 18.9869C6.34617 19.0014 6.33647 19.0207 6.32197 19.0351C6.28327 19.093 6.24457 19.1509 6.20097 19.2087C6.20097 19.2087 6.20097 19.2087 6.20097 19.2136L6.18647 19.2329L6.15267 19.2763L6.30747 19.4306L6.45747 19.5801L6.52527 19.5126C6.57847 19.4547 6.63167 19.4017 6.68487 19.3534C6.69947 19.339 6.71397 19.3245 6.72847 19.3148C6.76717 19.2811 6.80107 19.2473 6.83977 19.2136C6.88337 19.175 6.92687 19.1364 6.96557 19.1026C6.97527 19.0978 6.98007 19.0882 6.98977 19.0833C7.43497 18.712 7.84627 18.5191 8.18987 18.5191C8.22857 18.5191 8.26247 18.5191 8.30117 18.5287C8.31087 18.5287 8.31567 18.5287 8.32537 18.5287C8.35927 18.5336 8.38827 18.5384 8.41727 18.548C8.41727 18.548 8.42217 18.548 8.42697 18.548C8.45607 18.5577 8.48507 18.5673 8.51407 18.577C8.52857 18.5818 8.54317 18.5866 8.55277 18.5963C8.56727 18.6011 8.58187 18.6107 8.59637 18.6204C8.61087 18.63 8.63027 18.6397 8.64477 18.6493C8.64477 18.6493 8.64477 18.6493 8.64957 18.6493C8.71737 18.6927 8.77537 18.7506 8.82867 18.8133C8.82867 18.8133 8.82867 18.8181 8.83347 18.8229C8.84797 18.8422 8.86737 18.8663 8.88187 18.8856C8.88187 18.8904 8.89157 18.8953 8.89157 18.9049C8.90607 18.9242 8.92057 18.9435 8.93027 18.9676C8.94477 18.9965 8.96417 19.0255 8.97867 19.0544C9.08027 19.2618 9.13837 19.5078 9.15287 19.7537C9.15287 19.7537 9.15287 19.7585 9.15287 19.7634C9.15287 19.7923 9.15287 19.8212 9.15287 19.855C9.15287 19.8695 9.15287 19.8791 9.15287 19.8936C9.15287 20.1395 9.10927 20.3951 9.02217 20.6122C9.00767 20.6459 8.99317 20.6749 8.97867 20.7086C8.97867 20.7086 8.97867 20.7183 8.97377 20.7231C8.95927 20.752 8.94477 20.781 8.92537 20.8099C8.91087 20.834 8.89637 20.8533 8.88187 20.8774C8.88187 20.8774 8.87707 20.8871 8.87217 20.8919C8.85767 20.916 8.83827 20.9353 8.82377 20.9546C8.82377 20.9546 8.82377 20.9546 8.81897 20.9594C8.75117 21.0414 8.67377 21.1041 8.58667 21.1571C8.57217 21.1668 8.55767 21.1716 8.54317 21.1813C8.52857 21.1861 8.51897 21.1957 8.50437 21.2005C8.48987 21.2054 8.47057 21.215 8.45117 21.2198C8.43667 21.2247 8.41727 21.2295 8.40277 21.2343C8.38347 21.2391 8.36407 21.2439 8.34477 21.2488C8.33017 21.2488 8.31087 21.2536 8.29637 21.2584C8.28177 21.2584 8.26247 21.2584 8.24797 21.2584C7.88017 21.2825 7.43497 21.08 6.94627 20.6604C6.94627 20.6604 6.94627 20.6604 6.94137 20.6604C6.90267 20.6266 6.85917 20.5881 6.82037 20.5495C6.81077 20.5398 6.80107 20.535 6.79137 20.5254C6.75747 20.4916 6.71877 20.4578 6.68007 20.4241C6.67037 20.4144 6.66077 20.4048 6.65107 20.3951C6.60747 20.3517 6.55907 20.3035 6.51557 20.2553L6.45267 20.1878L6.25907 20.3807L6.15747 20.482L6.17197 20.5109L6.18647 20.5398C6.51067 21.162 7.44947 22.4496 7.67207 22.6136H7.68177L7.68657 22.6233C8.29637 22.9126 9.13837 23.0187 9.94647 22.9416C9.97547 22.9416 10.0046 22.9367 10.0336 22.9319C10.0771 22.9271 10.1255 22.9223 10.1691 22.9174C10.4788 22.874 10.7788 22.8065 11.0498 22.7149C11.0595 22.7149 11.0692 22.7101 11.0788 22.7052C11.1175 22.6908 11.1563 22.6763 11.195 22.6618C11.224 22.6522 11.2579 22.6377 11.2869 22.6281L11.3111 22.6136C11.7853 22.2374 12.5596 20.7231 12.6806 20.2263L12.6951 20.1733L12.6564 20.1347C12.6225 20.101 12.5402 20.019 12.5209 19.9997L12.4531 19.9322L12.3854 19.9997C12.3854 19.9997 12.3805 20.0045 12.3757 20.0093C12.3128 20.072 12.2499 20.1299 12.187 20.1878C12.1725 20.1974 12.1628 20.2071 12.1483 20.2215C12.0902 20.2746 12.0273 20.3276 11.9692 20.371C11.9692 20.371 11.9692 20.371 11.9644 20.3758C11.5579 20.699 11.1901 20.8629 10.8756 20.8629C10.832 20.8629 10.7885 20.863 10.7498 20.8533C10.7449 20.8533 10.7353 20.8533 10.7304 20.8533C10.6917 20.8485 10.6578 20.8388 10.624 20.8292C10.6191 20.8292 10.6143 20.8292 10.6094 20.8244C10.5901 20.8195 10.5707 20.8099 10.5514 20.8003C10.5175 20.7858 10.4836 20.7665 10.4546 20.7472C10.4449 20.7424 10.4401 20.7376 10.4304 20.7327C10.3917 20.7038 10.353 20.6749 10.3191 20.6411C10.3191 20.6411 10.3094 20.6315 10.3046 20.6266C10.2707 20.5929 10.2368 20.5543 10.2078 20.5109C10.2078 20.5109 10.2078 20.5109 10.2078 20.5061C10.1836 20.4723 10.1642 20.4337 10.1449 20.4C10.1207 20.3566 10.1013 20.3132 10.082 20.2698C10.0771 20.2553 10.0675 20.236 10.0626 20.2215C10.0433 20.1685 10.0288 20.1154 10.0142 20.0575C10.0142 20.0431 10.0046 20.0334 10.0046 20.019C9.98997 19.9659 9.98517 19.908 9.97547 19.8502C9.97547 19.8309 9.97067 19.8164 9.96577 19.7971C9.96577 19.7634 9.96577 19.7296 9.96097 19.6958C9.96097 19.6573 9.95617 19.6139 9.95617 19.5753C9.95617 19.5367 9.95617 19.4981 9.96097 19.4595C9.96097 19.4209 9.96097 19.3872 9.96577 19.3486C9.96577 19.3341 9.97067 19.3197 9.97067 19.3052C9.98037 19.2473 9.98997 19.1846 9.99967 19.1268C9.99967 19.1171 10.0046 19.1075 10.0094 19.093C10.0239 19.0351 10.0433 18.9772 10.0626 18.9194C10.0675 18.9049 10.0723 18.8904 10.082 18.876C10.1013 18.8277 10.1255 18.7795 10.1497 18.7361C10.1691 18.7024 10.1884 18.6638 10.2126 18.6348C10.2126 18.6348 10.2175 18.6252 10.2223 18.6204C10.2513 18.5818 10.2804 18.548 10.3094 18.5143C10.3143 18.5094 10.3191 18.4998 10.3288 18.495C10.3626 18.4612 10.3965 18.4323 10.4352 18.4033C10.4449 18.3985 10.4546 18.3937 10.4643 18.3841C10.4933 18.3648 10.5223 18.3503 10.5562 18.3358C10.5756 18.3262 10.5949 18.3165 10.6191 18.3069C10.6191 18.3069 10.624 18.3069 10.6288 18.3069C10.6627 18.2972 10.7014 18.2876 10.7401 18.2779C10.7401 18.2779 10.7498 18.2779 10.7546 18.2779C10.7933 18.2731 10.8369 18.2683 10.8804 18.2683C11.195 18.2683 11.5676 18.4371 11.9692 18.7554C11.9692 18.7554 11.9692 18.7554 11.9741 18.7602C12.0321 18.8085 12.095 18.8567 12.1531 18.9097C12.1628 18.9194 12.1773 18.929 12.187 18.9387C12.2499 18.9965 12.3128 19.0544 12.3805 19.1219L12.3999 19.1412L12.4483 19.1894L12.5547 19.0833L12.7241 18.9194L12.6564 18.8519C12.6031 18.7988 12.5596 18.7506 12.5112 18.7024C12.5015 18.6927 12.4918 18.6782 12.4822 18.6686C12.4483 18.63 12.4144 18.5914 12.3805 18.5528C12.3709 18.5384 12.3563 18.5287 12.3467 18.5143C12.308 18.4709 12.2692 18.4226 12.2354 18.3792C12.2257 18.3648 12.216 18.3503 12.2015 18.3358C12.1773 18.3069 12.1579 18.278 12.1386 18.249C12.1241 18.2249 12.1096 18.2056 12.0902 18.1815C12.0757 18.1622 12.066 18.1429 12.0515 18.1236C12.037 18.0995 12.0176 18.0706 12.0031 18.0465C11.9644 17.9789 11.9305 17.9114 11.9015 17.8487C11.9015 17.8439 11.9015 17.8391 11.8966 17.8343C11.8821 17.8005 11.8676 17.7716 11.8579 17.7378C11.8579 17.7378 11.8579 17.733 11.8579 17.7282C11.8095 17.5979 11.7853 17.4677 11.7805 17.352C11.7805 17.2941 11.7805 17.2362 11.795 17.1784C11.8095 17.0915 11.8434 17.0096 11.8821 16.942C11.887 16.9324 11.8966 16.9179 11.9063 16.9083C11.9208 16.889 11.9305 16.8649 11.9499 16.8456C11.9644 16.8263 11.9837 16.807 11.9983 16.7877C12.0079 16.7781 12.0176 16.7684 12.0273 16.7588C12.0612 16.7298 12.095 16.6961 12.1289 16.672C12.1386 16.6623 12.1483 16.6575 12.1628 16.6479C12.187 16.6286 12.2112 16.6141 12.2402 16.5996C12.2596 16.59 12.2789 16.5755 12.2983 16.5659C12.3128 16.5562 12.3322 16.5466 12.3515 16.5418C12.366 16.5321 12.3854 16.5273 12.3999 16.5176C12.7919 16.344 13.3145 16.3054 13.7694 16.4212C13.8855 16.4501 13.992 16.4887 14.0887 16.5321C14.0887 16.5321 14.0887 16.5321 14.0936 16.5321C14.1371 16.5514 14.1807 16.5755 14.2194 16.5996C14.2291 16.5996 14.2339 16.6093 14.2436 16.6141C14.2775 16.6382 14.3113 16.6575 14.3404 16.6816C14.35 16.6913 14.3597 16.6961 14.3694 16.7057C14.3984 16.7298 14.4275 16.754 14.4517 16.7781C14.4517 16.7781 14.4565 16.7829 14.4613 16.7877C14.4904 16.8167 14.5146 16.8456 14.5339 16.8793C14.5339 16.8842 14.5436 16.889 14.5436 16.8938C14.563 16.9228 14.5823 16.9565 14.5968 16.9854C14.5968 16.9903 14.6017 16.9999 14.6065 17.0096C14.621 17.0433 14.6356 17.0723 14.6452 17.106C14.6452 17.1157 14.6452 17.1205 14.6501 17.1301C14.6549 17.1542 14.6597 17.1784 14.6646 17.1977C14.6646 17.2025 14.6646 17.2121 14.6646 17.2169C14.6791 17.2989 14.6743 17.3906 14.6646 17.4822C14.6646 17.4822 14.6646 17.4822 14.6646 17.487C14.6646 17.516 14.6549 17.5449 14.6501 17.5738C14.6501 17.5835 14.6501 17.5883 14.6452 17.5979C14.6404 17.6269 14.6307 17.6558 14.621 17.6847C14.621 17.6896 14.621 17.6992 14.6162 17.704C14.5968 17.7619 14.5726 17.8246 14.5436 17.8873C14.5436 17.8921 14.5388 17.9018 14.5339 17.9066C14.5243 17.9307 14.5097 17.9596 14.4952 17.9838C14.4855 18.003 14.4759 18.0175 14.4662 18.0368C14.4517 18.0609 14.4372 18.085 14.4226 18.1092C14.4081 18.1333 14.3936 18.1526 14.3791 18.1767C14.3646 18.196 14.35 18.2201 14.3355 18.2394C14.3065 18.2828 14.2775 18.3214 14.2436 18.3648C14.2339 18.3792 14.2194 18.3937 14.2049 18.413C14.1807 18.4467 14.1565 18.4757 14.1274 18.5094C14.1129 18.5287 14.0984 18.5432 14.0839 18.5625C14.0549 18.5963 14.0258 18.63 13.9968 18.6638C13.9823 18.6782 13.9678 18.6927 13.9532 18.712C13.9097 18.7602 13.8613 18.8085 13.8129 18.8615L13.7452 18.929L13.8032 18.9821L14.0161 19.1943L14.0839 19.1268C14.0839 19.1268 14.1033 19.1123 14.1081 19.1026C14.1662 19.0448 14.2194 18.9917 14.2775 18.9435C14.292 18.929 14.3065 18.9194 14.321 18.9049C14.3791 18.8519 14.4372 18.8036 14.4904 18.7602C14.4904 18.7602 14.5001 18.7554 14.5001 18.7506C14.9017 18.4323 15.2743 18.2635 15.5888 18.2635C15.6276 18.2635 15.6614 18.2635 15.7001 18.2731C15.705 18.2731 15.7098 18.2731 15.7147 18.2731C15.7437 18.2731 15.7727 18.2828 15.8018 18.2924C15.8066 18.2924 15.8114 18.2924 15.8163 18.2924C15.8453 18.3021 15.8695 18.3117 15.8937 18.3214C15.9373 18.3406 15.9808 18.3648 16.0195 18.3889C16.0195 18.3889 16.0244 18.3889 16.0292 18.3937C16.1115 18.4516 16.1889 18.5287 16.2518 18.6155C16.2518 18.6155 16.2518 18.6155 16.2518 18.6204C16.3099 18.7072 16.3583 18.8036 16.4018 18.9146C16.4067 18.929 16.4163 18.9483 16.4212 18.9628C16.4357 19.0062 16.4502 19.0544 16.4599 19.1026C16.4647 19.1219 16.4696 19.146 16.4744 19.1653C16.4841 19.2184 16.4938 19.2666 16.4986 19.3197C16.4986 19.3341 16.4986 19.3438 16.4986 19.3582C16.5034 19.4209 16.5083 19.4836 16.5083 19.5512C16.5083 19.6139 16.5083 19.6814 16.4986 19.7392C16.4986 19.7537 16.4986 19.7682 16.4986 19.7778C16.4938 19.8309 16.4841 19.8839 16.4744 19.9322C16.4744 19.9514 16.4647 19.9756 16.4599 19.9949C16.4502 20.0431 16.4357 20.0913 16.4212 20.1347C16.4163 20.154 16.4115 20.1685 16.4018 20.1878C16.3631 20.2939 16.3147 20.3951 16.2518 20.482C16.2518 20.482 16.2518 20.482 16.2518 20.4868C16.1889 20.5784 16.1115 20.6507 16.0292 20.7086C16.0292 20.7086 16.0244 20.7086 16.0195 20.7134C15.9808 20.7424 15.9373 20.7617 15.8937 20.781C15.8695 20.7906 15.8405 20.8003 15.8163 20.8099C15.8114 20.8099 15.8066 20.8099 15.7969 20.8099C15.7679 20.8195 15.7437 20.8244 15.7147 20.8292C15.7098 20.8292 15.705 20.8292 15.6953 20.8292C15.6614 20.8292 15.6227 20.8388 15.584 20.8388C15.2695 20.8388 14.9017 20.67 14.4952 20.3517C14.4952 20.3517 14.4904 20.3469 14.4855 20.3421C14.4275 20.2987 14.3694 20.2456 14.3113 20.1974C14.2968 20.1829 14.2823 20.1733 14.2678 20.1588C14.2146 20.1106 14.1565 20.0575 14.1033 20.0045C14.0936 19.9949 14.0839 19.9852 14.0742 19.9756L14.0065 19.908L13.9484 19.9659L13.9387 19.9756C13.9387 19.9756 13.8807 20.0334 13.8468 20.0672C13.8419 20.072 13.8371 20.0768 13.8274 20.0865C13.8177 20.0961 13.8081 20.1058 13.7984 20.1154L13.7597 20.154L13.7742 20.2071C13.7887 20.2746 13.8177 20.3566 13.8613 20.4482C13.8758 20.4771 13.8903 20.5109 13.9049 20.5446C13.9145 20.5591 13.9194 20.5784 13.929 20.5929C13.9726 20.6845 14.0258 20.7858 14.0839 20.8871C14.0887 20.9015 14.0984 20.9112 14.1033 20.9256C14.1274 20.9642 14.1516 21.0076 14.1758 21.0462C14.1855 21.0655 14.1952 21.0848 14.2097 21.0993C14.563 21.7021 15.042 22.3677 15.3179 22.5847L15.3421 22.5991C15.8211 22.7824 16.3099 22.8837 16.8083 22.9078C16.8809 22.9078 16.9486 22.9126 17.0212 22.9126C17.0599 22.9126 17.0986 22.9126 17.1422 22.9126C17.6455 22.8982 18.1584 22.8065 18.6713 22.6329C18.7004 22.6233 18.7294 22.6136 18.7633 22.604L18.7875 22.5895C19.0343 22.4014 19.3198 22.0059 19.5763 21.5767C19.9295 20.9787 20.2344 20.3083 20.3166 20.0383L20.3311 19.9852L20.2924 19.9466C20.2586 19.9129 20.1715 19.8261 20.1327 19.7875L20.065 19.72L19.9972 19.7923C19.9972 19.7923 19.9876 19.8068 19.9779 19.8116C19.9343 19.8598 19.8908 19.9032 19.8521 19.9466C19.8327 19.9659 19.8134 19.9852 19.794 20.0093C19.765 20.0383 19.7408 20.0624 19.7166 20.0865C19.6634 20.1395 19.6053 20.1926 19.5521 20.2408C19.1891 20.5639 18.8504 20.7617 18.5504 20.8147C18.5213 20.8195 18.4971 20.8244 18.4681 20.8244C18.4633 20.8244 18.4584 20.8244 18.4487 20.8244C18.4294 20.8244 18.4052 20.8244 18.3858 20.8244C18.3762 20.8244 18.3713 20.8244 18.3616 20.8244C18.3278 20.8244 18.2987 20.8244 18.2697 20.8195C18.2649 20.8195 18.26 20.8195 18.2503 20.8195C18.2165 20.8147 18.1874 20.8051 18.1584 20.8003C18.1487 20.8003 18.139 20.7954 18.1294 20.7906C18.1148 20.7858 18.0955 20.7761 18.081 20.7713C18.0616 20.7617 18.0471 20.7568 18.0277 20.7472C18.0181 20.7472 18.0132 20.7376 18.0036 20.7327C17.6648 20.5398 17.4858 20.0817 17.4471 19.6283C17.4471 19.6235 17.4471 19.6139 17.4471 19.609C17.4471 19.5801 17.4471 19.5512 17.4422 19.5222C17.4422 19.4981 17.4422 19.4788 17.4422 19.4547C17.4422 19.4402 17.4422 19.4258 17.4422 19.4113C17.4422 19.4017 17.4422 19.392 17.4422 19.3824C17.4422 19.3534 17.4422 19.3245 17.4422 19.2956C17.4422 19.2666 17.4422 19.2425 17.4471 19.2136C17.4471 19.2087 17.4471 19.1991 17.4471 19.1943C17.4761 18.8808 17.5729 18.5625 17.7422 18.331C17.7422 18.331 17.7471 18.3214 17.7519 18.3165C17.7664 18.2972 17.781 18.2779 17.7955 18.2635C17.8051 18.249 17.8197 18.2394 17.8342 18.2249C17.8439 18.2153 17.8487 18.2056 17.8584 18.2008C17.931 18.1333 18.0181 18.0754 18.1245 18.0416C18.1245 18.0416 18.1245 18.0416 18.1294 18.0416C18.1971 18.0175 18.2794 18.0031 18.3616 18.0031H18.3713C18.3955 18.0031 18.4245 18.0031 18.4487 18.0031C18.8117 18.0368 19.2424 18.2972 19.7069 18.7506C19.7311 18.7747 19.7553 18.7988 19.7795 18.8229C19.7988 18.8422 19.8182 18.8663 19.8424 18.8856C19.8859 18.929 19.9247 18.9724 19.9682 19.0207C19.9731 19.0255 19.9779 19.0351 19.9876 19.0399L20.0553 19.1123L20.1231 19.0448L20.3602 18.8133L20.336 18.7892L20.2924 18.7458C20.2295 18.6879 20.1666 18.6252 20.1085 18.5721C20.0892 18.5528 20.0747 18.5336 20.0553 18.5143C20.0214 18.4757 19.9827 18.4419 19.9489 18.4082C19.9198 18.3792 19.8956 18.3503 19.8714 18.3214C19.8521 18.2972 19.8327 18.278 19.8134 18.2538C19.7843 18.2201 19.7553 18.1863 19.7263 18.1526C19.7166 18.1381 19.7021 18.1236 19.6924 18.1092C19.6634 18.0706 19.6343 18.032 19.6101 17.9982C19.6053 17.9886 19.5956 17.9789 19.5908 17.9741C19.5617 17.9355 19.5375 17.897 19.5133 17.8584C19.5133 17.8584 19.5085 17.8487 19.5037 17.8439C19.4795 17.8053 19.4553 17.7619 19.4359 17.7233C19.2859 17.4484 19.2424 17.2266 19.2472 17.0481C19.2472 17.0385 19.2472 17.0289 19.2472 17.0192C19.2472 17.0047 19.2472 16.9903 19.2472 16.9758C19.2472 16.9613 19.2472 16.9469 19.252 16.9372C19.252 16.9276 19.252 16.9179 19.2569 16.9083C19.2569 16.8938 19.2617 16.8842 19.2666 16.8697C19.2666 16.8552 19.2762 16.8408 19.2811 16.8263C19.2811 16.8167 19.2859 16.8022 19.2907 16.7925C19.2907 16.7829 19.3004 16.7732 19.3004 16.7636C19.3101 16.7443 19.3198 16.7202 19.3295 16.7009C19.3295 16.6961 19.3343 16.6864 19.3391 16.6816C19.494 16.4067 19.8134 16.2283 20.1666 16.1415C20.1811 16.1415 20.1957 16.1318 20.2102 16.1318C20.2295 16.1318 20.2489 16.1222 20.2682 16.1174C20.5344 16.0643 20.8151 16.0547 21.0812 16.0884C21.1054 16.0884 21.1296 16.0981 21.1586 16.0981C21.178 16.0981 21.1973 16.1029 21.2215 16.1077C21.5941 16.18 21.9474 16.3392 22.1361 16.6044C22.1361 16.6044 22.141 16.6141 22.1458 16.6141C22.1603 16.6334 22.1748 16.6575 22.1845 16.6768C22.1845 16.6864 22.1942 16.6961 22.199 16.7009C22.2087 16.7202 22.2184 16.7347 22.2232 16.754C22.2281 16.7636 22.2329 16.7781 22.2377 16.7877C22.2377 16.7974 22.2426 16.8022 22.2474 16.8118C22.2523 16.8311 22.2571 16.8456 22.2619 16.8649C22.2619 16.8745 22.2619 16.8842 22.2668 16.8938C22.2668 16.9083 22.2716 16.9179 22.2765 16.9324C22.2765 16.942 22.2765 16.9517 22.2765 16.9613C22.2765 16.9758 22.2765 16.9951 22.2813 17.0144C22.2813 17.0144 22.2813 17.024 22.2813 17.0289C22.291 17.2073 22.2426 17.434 22.0926 17.7137C22.0732 17.7523 22.049 17.7957 22.02 17.8343C22.02 17.8343 22.02 17.8439 22.0151 17.8439C21.9909 17.8825 21.9668 17.9211 21.9377 17.9645C21.9329 17.9741 21.928 17.9789 21.9232 17.9886C21.8942 18.0272 21.87 18.0657 21.8361 18.1043C21.8264 18.1188 21.8167 18.1284 21.8022 18.1429C21.7732 18.1767 21.7442 18.2153 21.7151 18.249C21.6958 18.2683 21.6764 18.2924 21.6619 18.3117C21.6329 18.3406 21.6087 18.3744 21.5796 18.4033C21.5506 18.4371 21.5167 18.4709 21.4828 18.5046C21.4635 18.5239 21.4441 18.548 21.4199 18.5673C21.3619 18.6252 21.299 18.6831 21.2361 18.7409L21.1635 18.8085L21.2893 18.9338L21.4635 19.1075L21.5312 19.0351C21.5312 19.0351 21.5361 19.0255 21.5409 19.0255C21.5893 18.9724 21.6329 18.929 21.6764 18.8808C21.6958 18.8615 21.7151 18.8422 21.7345 18.8229C21.7587 18.794 21.7877 18.7699 21.8119 18.7458C22.2765 18.2924 22.7023 18.0368 23.0652 18.0031C23.0652 18.0031 23.0701 18.0031 23.0749 18.0031C23.0991 18.0031 23.1233 18.0031 23.1475 18.0031C23.1523 18.0031 23.1572 18.0031 23.1668 18.0031C23.2007 18.0031 23.2346 18.0031 23.2636 18.0079H23.2733C23.3072 18.0127 23.3362 18.0223 23.3701 18.0272C23.3798 18.0272 23.3846 18.032 23.3943 18.0368C23.4136 18.0416 23.433 18.0513 23.4475 18.0561C23.462 18.0609 23.4814 18.0706 23.4959 18.0802C23.5056 18.085 23.5153 18.0899 23.5249 18.0995C23.8346 18.278 24.0088 18.6831 24.0669 19.0978C24.0669 19.1316 24.0766 19.1653 24.0766 19.1943C24.0766 19.2087 24.0766 19.2232 24.0766 19.2377C24.0766 19.257 24.0766 19.2811 24.0766 19.3004C24.0766 19.339 24.0766 19.3727 24.0766 19.4113C24.0766 19.4499 24.0766 19.4885 24.0766 19.527C24.0766 19.5463 24.0766 19.5704 24.0766 19.5946C24.0766 19.609 24.0766 19.6235 24.0766 19.638C24.0766 19.6717 24.0718 19.7007 24.0669 19.7344C24.0088 20.1492 23.8346 20.5543 23.5201 20.7376C23.5104 20.7424 23.5007 20.7472 23.4959 20.752C23.4814 20.7617 23.462 20.7665 23.4427 20.7761C23.4282 20.781 23.4088 20.7906 23.3943 20.7954C23.3846 20.7954 23.3749 20.8003 23.3652 20.8051C23.3362 20.8147 23.3023 20.8195 23.2733 20.8244C23.2685 20.8244 23.2636 20.8244 23.2588 20.8244C23.2298 20.8244 23.1959 20.8292 23.1668 20.8292C23.1572 20.8292 23.1523 20.8292 23.1426 20.8292C23.1233 20.8292 23.0991 20.8292 23.0797 20.8292C23.0749 20.8292 23.0701 20.8292 23.0652 20.8292C22.7507 20.7954 22.3829 20.5977 21.9861 20.2456C21.9861 20.2456 21.9764 20.236 21.9716 20.2312C21.9232 20.1878 21.8748 20.1444 21.8264 20.0961C21.7974 20.0672 21.7635 20.0334 21.7296 20.0045C21.7151 19.99 21.6958 19.9707 21.6812 19.9563C21.6329 19.9032 21.5796 19.8502 21.5312 19.7923L21.507 19.7634L21.4683 19.72L21.2457 19.9418L21.1973 19.99L21.2119 20.0431C21.2264 20.0913 21.2506 20.1492 21.2748 20.2215C21.2941 20.2746 21.3183 20.3324 21.3474 20.4C21.3474 20.4 21.3474 20.4096 21.3522 20.4144C21.3861 20.4916 21.4248 20.5832 21.4683 20.6749C21.7877 21.35 22.3152 22.2905 22.7362 22.604L22.7604 22.6184C22.8378 22.6425 22.9104 22.6667 22.9878 22.6908C23.5153 22.8451 24.0185 22.9223 24.5218 22.9223C25.025 22.9223 25.538 22.8451 26.0896 22.6908C26.1671 22.6667 26.2493 22.6474 26.3268 22.6184L26.3413 22.6136L26.3558 22.604C26.3848 22.5799 26.4139 22.5557 26.4429 22.522C26.4574 22.5075 26.4719 22.4882 26.4913 22.4689C26.7623 22.1747 27.0865 21.6346 27.3333 21.1378C27.5027 20.8003 27.6382 20.4916 27.6962 20.289C27.7059 20.2649 27.7107 20.236 27.7156 20.2167L27.7301 20.1685L27.6914 20.1299C27.6914 20.1299 27.6381 20.0768 27.6043 20.0431L27.5801 20.019L27.4881 19.9225L27.4204 19.99C27.4204 19.99 27.4204 19.99 27.4156 19.99C27.3526 20.0527 27.2849 20.1154 27.222 20.1733C27.2123 20.1829 27.1978 20.1926 27.1881 20.2071C27.13 20.2601 27.0671 20.3132 27.0091 20.3566C27.0091 20.3566 27.0091 20.3566 27.0042 20.3614C26.5977 20.6845 26.23 20.8485 25.9154 20.8485C25.8767 20.8485 25.8429 20.8485 25.809 20.8388C25.8041 20.8388 25.7945 20.8388 25.7896 20.8388C25.7606 20.8388 25.7316 20.8292 25.7074 20.8195C25.7025 20.8195 25.6928 20.8195 25.688 20.8195C25.659 20.8099 25.6348 20.8003 25.6106 20.7906C25.567 20.7713 25.5235 20.7472 25.4848 20.7231C25.4848 20.7231 25.4799 20.7231 25.4751 20.7183C25.3928 20.6604 25.3154 20.5832 25.2525 20.4916C25.1944 20.4048 25.1412 20.3035 25.1025 20.1974C25.0976 20.1829 25.0928 20.1685 25.088 20.154C25.0734 20.1058 25.0589 20.0576 25.0492 20.0093C25.0492 19.99 25.0396 19.9707 25.0347 19.9514C25.025 19.8984 25.0154 19.8453 25.0105 19.7875C25.0105 19.7778 25.0105 19.7634 25.0105 19.7537C25.0057 19.691 25.0009 19.6235 25.0009 19.556C25.0009 19.556 25.0009 19.5512 25.0009 19.5463C25.0009 19.4692 25.0057 19.3872 25.0154 19.3148C25.0154 19.2956 25.0202 19.2763 25.025 19.257C25.0347 19.1991 25.0444 19.1412 25.0589 19.0833C25.0638 19.0641 25.0686 19.0448 25.0734 19.0255C25.088 18.9724 25.1073 18.9194 25.1267 18.8711C25.1363 18.8519 25.1412 18.8326 25.1509 18.8181C25.1702 18.7699 25.1944 18.7265 25.2235 18.6831C25.2331 18.6638 25.2476 18.6445 25.2573 18.6252C25.2573 18.6204 25.267 18.6107 25.2718 18.6059C25.3009 18.5673 25.3299 18.5287 25.3638 18.495C25.3686 18.4902 25.3783 18.4805 25.3831 18.4757C25.417 18.4467 25.446 18.4178 25.4848 18.3937C25.4896 18.3937 25.4944 18.3841 25.4993 18.3841C25.5332 18.3599 25.5719 18.3406 25.6106 18.3214C25.6686 18.2972 25.7267 18.2779 25.7945 18.2635H25.8041C25.8429 18.2587 25.8816 18.2538 25.9251 18.2538C26.2397 18.2538 26.6123 18.4226 27.0139 18.7409C27.0139 18.7409 27.0139 18.7409 27.0187 18.7458C27.0768 18.794 27.1397 18.8422 27.1978 18.8953C27.2075 18.9049 27.222 18.9146 27.2317 18.9242C27.2946 18.9821 27.3623 19.0448 27.4301 19.1123L27.4978 19.1798L27.5559 19.1219L27.5656 19.1123C27.5656 19.1123 27.5752 19.1026 27.5849 19.093C27.614 19.0641 27.6672 19.011 27.7011 18.9773L27.7349 18.9435L27.7688 18.9097L27.7059 18.8422C27.6962 18.8326 27.6865 18.8229 27.6769 18.8133C27.6381 18.7747 27.6043 18.7361 27.5704 18.7024C27.551 18.6831 27.5317 18.6589 27.5123 18.6397C27.4881 18.6107 27.4639 18.5866 27.4446 18.5577C27.4252 18.5336 27.4059 18.5143 27.3865 18.4902C27.3672 18.466 27.3478 18.4419 27.3284 18.4178C27.2946 18.3744 27.2607 18.331 27.2317 18.2876C27.2172 18.2683 27.2026 18.249 27.193 18.2297C27.1736 18.2008 27.1542 18.1767 27.1397 18.1477C27.13 18.1333 27.1204 18.1188 27.1107 18.1043C27.0913 18.0754 27.0768 18.0465 27.0575 18.0175C27.0526 18.0079 27.0478 17.9982 27.0429 17.9886C26.9897 17.8873 26.9413 17.786 26.9123 17.6896C26.9123 17.6896 26.9123 17.6896 26.9123 17.6847C26.9026 17.651 26.8929 17.6172 26.8833 17.5835C26.8494 17.4533 26.8445 17.3279 26.8591 17.2073C26.8591 17.2073 26.8591 17.2025 26.8591 17.1977C26.8591 17.1687 26.8687 17.1398 26.8736 17.1157C26.8881 17.0674 26.9074 17.0192 26.9268 16.9758C26.9268 16.971 26.9316 16.9662 26.9365 16.9565C26.98 16.8697 27.0381 16.7974 27.1059 16.7298C27.1204 16.7154 27.1397 16.7009 27.1591 16.6864C27.1784 16.6671 27.2026 16.6527 27.222 16.6334C27.2317 16.6237 27.2462 16.6189 27.2607 16.6093C27.4059 16.5128 27.5656 16.4501 27.6817 16.4164C28.1124 16.291 28.635 16.3054 29.0415 16.4549C29.085 16.4742 29.1286 16.4887 29.1721 16.508C29.177 16.508 29.1818 16.5128 29.1915 16.5176C29.2254 16.5369 29.2641 16.5562 29.2931 16.5755C29.3028 16.5803 29.3125 16.59 29.327 16.5948C29.356 16.6141 29.3851 16.6286 29.4093 16.6527C29.4189 16.6575 29.4238 16.6671 29.4334 16.6768C29.5883 16.8022 29.6899 16.9613 29.7286 17.1398C29.7335 17.1687 29.7383 17.1977 29.7431 17.2218C29.7431 17.2507 29.7431 17.2796 29.7431 17.3086C29.7431 17.3086 29.7431 17.3086 29.7431 17.3134C29.7431 17.434 29.719 17.5642 29.6706 17.6944C29.6706 17.6944 29.6706 17.6944 29.6706 17.6992C29.6367 17.7957 29.5883 17.9018 29.5254 18.0079C29.5254 18.0079 29.5254 18.0127 29.5205 18.0175C29.5012 18.0465 29.4867 18.0754 29.4673 18.1092C29.4576 18.1236 29.448 18.1381 29.4431 18.1477C29.4238 18.1767 29.4044 18.2056 29.3851 18.2345C29.3754 18.249 29.3609 18.2683 29.3463 18.2876C29.3173 18.331 29.2834 18.3744 29.2496 18.413C29.2302 18.4371 29.2109 18.4612 29.1867 18.4853C29.1673 18.5094 29.1479 18.5287 29.1286 18.5528C29.1044 18.5818 29.0802 18.6059 29.056 18.6348C29.0366 18.6541 29.0173 18.6782 28.9979 18.6975C28.9641 18.7361 28.9302 18.7699 28.8915 18.8085C28.8818 18.8181 28.8721 18.8277 28.8624 18.8374L28.8092 18.8953L28.7995 18.9049L28.9447 19.0496L29.0705 19.175H29.0754L29.1334 19.1075C29.1383 19.1026 29.1479 19.0978 29.1528 19.0882C29.2108 19.0303 29.2689 18.9724 29.327 18.9194C29.3415 18.9049 29.356 18.8953 29.3657 18.8856C29.4238 18.8326 29.4818 18.7843 29.5399 18.7409C29.5399 18.7409 29.5447 18.7361 29.5496 18.7313C29.9561 18.413 30.3238 18.2442 30.6384 18.2442C30.6771 18.2442 30.711 18.2442 30.7497 18.2538C30.7545 18.2538 30.7594 18.2538 30.7642 18.2538C30.7932 18.2538 30.8223 18.2635 30.8513 18.2731C30.8513 18.2731 30.861 18.2731 30.8658 18.2731C30.8948 18.2828 30.919 18.2924 30.9481 18.3021C30.9916 18.3214 31.0352 18.3406 31.0739 18.3696C31.0739 18.3696 31.0787 18.3744 31.0836 18.3744C31.1658 18.4323 31.2384 18.5094 31.3062 18.5963C31.3062 18.5963 31.3062 18.6011 31.311 18.6059C31.3449 18.6493 31.3739 18.7024 31.3981 18.7506C31.4223 18.794 31.4417 18.8422 31.4562 18.8953C31.461 18.9146 31.4707 18.929 31.4755 18.9483C31.4901 18.9917 31.5046 19.0399 31.5142 19.0882C31.5191 19.1075 31.5239 19.1316 31.5288 19.1557C31.5384 19.2039 31.5481 19.257 31.553 19.31C31.553 19.3245 31.553 19.339 31.553 19.3534C31.5578 19.4161 31.5626 19.4788 31.5626 19.5415C31.5626 19.6042 31.5626 19.6669 31.553 19.7296C31.553 19.7441 31.553 19.7585 31.553 19.773C31.5481 19.8261 31.5384 19.8791 31.5288 19.9273C31.5288 19.9514 31.5191 19.9707 31.5142 19.9949C31.5046 20.0431 31.4901 20.0913 31.4755 20.1347C31.4707 20.154 31.461 20.1685 31.4562 20.1878C31.4368 20.236 31.4175 20.2842 31.3981 20.3324C31.3739 20.3855 31.34 20.4337 31.311 20.4771C31.311 20.4771 31.311 20.482 31.3062 20.4868C31.2433 20.5784 31.1658 20.6507 31.0836 20.7086C31.0836 20.7086 31.0787 20.7086 31.0739 20.7134C31.0352 20.7424 30.9916 20.7617 30.9481 20.781C30.9239 20.7906 30.8948 20.8003 30.8707 20.8099C30.8658 20.8099 30.8561 20.8099 30.8513 20.8147C30.8271 20.8195 30.7981 20.8292 30.769 20.834C30.7642 20.834 30.7545 20.834 30.7497 20.834C30.7158 20.834 30.6771 20.8437 30.6432 20.8437C30.3287 20.8437 29.9609 20.6749 29.5544 20.3566C29.5544 20.3566 29.5447 20.3517 29.5447 20.3469C29.4867 20.3035 29.4286 20.2505 29.3705 20.2022C29.356 20.1878 29.3415 20.1781 29.327 20.1637C29.2689 20.1106 29.2108 20.0575 29.1528 19.9997C29.1431 19.99 29.1383 19.9852 29.1286 19.9756L29.0608 19.908L29.0028 19.9659L28.9931 19.9756L28.8576 20.1106L28.8189 20.1492L28.8334 20.2022C28.8431 20.2456 28.8576 20.2939 28.877 20.3469C28.9399 20.5302 29.0463 20.7713 29.177 21.0414C29.477 21.6491 29.898 22.3532 30.2029 22.5895L30.2271 22.604C30.2948 22.6329 30.3674 22.657 30.4351 22.6811C31.5191 23.0573 32.7579 23.0284 33.8031 22.604L33.8225 22.5943C33.8467 22.575 33.8854 22.5413 33.9289 22.493C34.258 22.141 35.0226 21.0655 35.3081 20.5157L35.342 20.453L35.0855 20.1974L35.0468 20.1588L35.0177 20.1878L34.979 20.2263C34.9306 20.2746 34.8871 20.3228 34.8435 20.3662C34.8339 20.3759 34.829 20.3807 34.8193 20.3903C34.7806 20.4289 34.7419 20.4675 34.7032 20.5012C34.6984 20.5061 34.6887 20.5109 34.6838 20.5205C34.1564 21.0028 33.6725 21.2488 33.2805 21.2343C33.2466 21.2343 33.2176 21.2343 33.1886 21.2247C33.1741 21.2247 33.1595 21.2198 33.145 21.215C33.1208 21.2102 33.0918 21.2054 33.0676 21.1957C33.0531 21.1957 33.0434 21.1861 33.0289 21.1861C32.995 21.1716 32.9611 21.162 32.9321 21.1427C32.9321 21.1427 32.9321 21.1427 32.9273 21.1427C32.8982 21.1282 32.874 21.1089 32.8498 21.0944C32.8402 21.0896 32.8305 21.08 32.8208 21.0703C32.8014 21.0559 32.7869 21.0414 32.7724 21.0269C32.7627 21.0173 32.7531 21.0125 32.7434 21.0028C32.724 20.9835 32.7047 20.9642 32.6901 20.9449C32.6901 20.9449 32.6805 20.9353 32.6805 20.9305C32.6611 20.9064 32.6369 20.8774 32.6224 20.8533C32.6224 20.8533 32.6224 20.8485 32.6176 20.8437C32.603 20.8195 32.5837 20.7954 32.5692 20.7713C32.4966 20.6459 32.4385 20.4964 32.4046 20.3421C32.3853 20.2697 32.3756 20.1974 32.3659 20.1202C32.3659 20.1106 32.3659 20.1058 32.3659 20.0961C32.3563 20.0286 32.3562 19.9611 32.3562 19.8936C32.3562 19.8839 32.3562 19.8743 32.3562 19.8598C32.3562 19.8453 32.3562 19.8309 32.3562 19.8212C32.3562 19.7537 32.3563 19.691 32.3659 19.6235C32.3659 19.6139 32.3659 19.6042 32.3659 19.5994C32.395 19.3631 32.4627 19.1364 32.5692 18.9483C32.6127 18.8711 32.6756 18.7892 32.7482 18.712C32.7531 18.7072 32.7627 18.7024 32.7676 18.6927C32.7869 18.6734 32.8063 18.6589 32.8256 18.6445C32.8353 18.6397 32.8402 18.6348 32.8498 18.6252C32.9079 18.5866 32.9708 18.548 33.0434 18.5239C33.0482 18.5239 33.0531 18.5239 33.0579 18.5191C33.0918 18.5094 33.1305 18.4998 33.1741 18.4902C33.1741 18.4902 33.1837 18.4902 33.1886 18.4902C33.2321 18.4853 33.2757 18.4805 33.3192 18.4805C33.6676 18.4805 34.0741 18.6734 34.5242 19.0448C34.5774 19.0882 34.6306 19.1364 34.6838 19.1846C34.7129 19.2136 34.7419 19.2377 34.7758 19.2666C34.7951 19.2859 34.8097 19.3004 34.829 19.3197C34.8774 19.3679 34.9306 19.4209 34.9839 19.474L35.0516 19.5415L35.1 19.4933L35.3516 19.2425L35.3032 19.1798C35.2549 19.1171 35.2161 19.0592 35.1726 18.9965C35.1629 18.9869 35.1581 18.9724 35.1484 18.9628C35.1097 18.9049 35.0758 18.8519 35.0419 18.794C35.0419 18.794 35.0419 18.7892 35.0419 18.7843C35.0081 18.7216 34.9742 18.6638 34.9452 18.6059C34.9452 18.6011 34.9452 18.5963 34.9403 18.5914C34.9161 18.5384 34.8919 18.4853 34.8726 18.4371C34.8726 18.4275 34.8677 18.4226 34.8629 18.413C34.8435 18.3599 34.8242 18.3021 34.8097 18.249C34.8097 18.249 34.8097 18.2442 34.8097 18.2394C34.7951 18.1911 34.7855 18.1477 34.7806 18.0995C34.7806 18.085 34.7806 18.0754 34.7758 18.0609C34.7709 18.0175 34.7661 17.9789 34.7661 17.9355C34.7661 17.9307 34.7661 17.9211 34.7661 17.9162C34.7661 17.8728 34.7661 17.8294 34.7709 17.7909C34.7903 17.6317 34.8484 17.487 34.9452 17.3616C35.0226 17.2652 35.1242 17.1832 35.2452 17.1205L35.3129 17.0867C35.6952 16.9083 36.2323 16.8745 36.7888 16.9999L36.8663 17.0192C37.0453 17.0626 37.2292 17.1253 37.4082 17.2025C36.9727 18.4371 35.7968 23.2165 35.5016 24.9527L35.5307 25.0057Z" fill="#E40032" /><path d="M0.717773 25.0078V25.0994C0.737073 35.2899 1.30327 43.6092 3.99377 51.0893C6.95527 59.3169 12.2638 65.7987 20.7128 71.4896L20.7661 71.5234L20.8193 71.4896C29.2296 65.7939 34.5284 59.3073 37.4948 51.07C40.2095 43.5465 40.7805 35.2465 40.8047 25.0994V25.0078H0.722574H0.717773Z" fill="#0065BD" /><path d="M20.7611 57.3144L18.7384 56.1522L19.8562 54.2279L12.8057 50.1719L11.6879 52.0962L9.66511 50.9339V48.6045H11.896V40.4926H9.66511V38.1632L11.6879 37.001L12.8057 38.9252L19.8562 34.8693L18.7384 32.945L20.7611 31.7827L22.7839 32.945L21.6661 34.8693L28.7166 38.9252L29.8344 37.001L31.8571 38.1632V40.4926H29.6263V48.6045H31.8571V50.9339L29.8344 52.0962L28.7166 50.1719L21.6661 54.2279L22.7839 56.1522L20.7611 57.3144ZM34.2767 42.8992V36.7695L28.9489 33.707L27.831 35.6313L24.9711 33.9867L26.089 32.0625L20.7611 29L15.4333 32.0625L16.5512 33.9867L13.6913 35.6313L12.5734 33.707L7.24561 36.7695V42.8992H9.4764V46.1931H7.24561V52.3229L12.5734 55.3902L13.6913 53.4659L16.5512 55.1104L15.4333 57.0347L20.7611 60.0972L26.089 57.0347L24.9711 55.1104L27.831 53.4659L28.9489 55.3902L34.2767 52.3229V46.1931H32.0459V42.8992H34.2767Z" fill="#fff" /></svg>