<svg viewBox="0 0 269 36" fill="none" xmlns="http://www.w3.org/2000/svg">
  <path fill-rule="evenodd" clip-rule="evenodd" d="M19.3994 15.8218L19.4097 15.8269L19.3994 15.8218Z" fill="#F12891"/>
  <path fill-rule="evenodd" clip-rule="evenodd" d="M80.6436 28.5318H77.3568V20.3454H68.8631V28.5318H65.5648V10.0834H68.8631V17.7621H77.3568V10.0834H80.6436V28.5318Z" fill="white"/>
  <path fill-rule="evenodd" clip-rule="evenodd" d="M89.993 17.0401C89.1889 17.0123 88.415 17.3383 87.887 17.9276C87.3008 18.6345 86.9443 19.4942 86.8611 20.3981H92.9003V20.1684C92.8992 19.3193 92.6003 18.4958 92.0525 17.8336C91.519 17.2879 90.7661 16.998 89.993 17.0401ZM90.3801 28.7834C88.3747 28.7834 86.7476 28.1697 85.4983 26.9412C84.2491 25.7127 83.6246 24.0758 83.6246 22.0302V21.6541C83.6014 20.3869 83.8809 19.132 84.4415 17.9878C84.9428 16.9552 85.7364 16.0827 86.7294 15.4721C87.7139 14.873 88.8548 14.5613 90.0162 14.5733C91.9364 14.5733 93.4214 15.1686 94.4721 16.3595C95.5224 17.55 96.0465 19.2347 96.0438 21.4135V22.6578H86.8107C86.8467 23.6607 87.2598 24.6158 87.9721 25.343C88.6558 26.0019 89.5876 26.3591 90.5504 26.332C91.9487 26.3565 93.272 25.7183 94.0966 24.621L95.8038 26.2042C95.239 27.0247 94.4585 27.6827 93.543 28.1103C92.5562 28.5687 91.4737 28.7992 90.3801 28.7834Z" fill="white"/>
  <path fill-rule="evenodd" clip-rule="evenodd" d="M98.6104 28.5318H101.781V9.60962H98.6104V28.5318Z" fill="white"/>
  <path fill-rule="evenodd" clip-rule="evenodd" d="M113.062 24.8051C113.084 24.2956 112.816 23.8146 112.365 23.5529C111.64 23.178 110.855 22.9238 110.042 22.8008C109.108 22.6267 108.199 22.3455 107.333 21.9623C105.748 21.2102 104.957 20.1336 104.959 18.7325C104.956 17.5604 105.532 16.4582 106.508 15.7689C107.63 14.9447 109.012 14.5235 110.418 14.5769C112.106 14.5769 113.47 14.9819 114.51 15.7915C115.514 16.5436 116.089 17.7153 116.058 18.9465H112.892C112.905 18.3809 112.654 17.8394 112.21 17.4724C111.709 17.0618 111.066 16.8508 110.41 16.882C109.806 16.8568 109.21 17.0219 108.711 17.3521C108.287 17.6341 108.039 18.1056 108.053 18.6043C108.037 19.0529 108.271 19.4748 108.664 19.7098C109.444 20.0953 110.279 20.3615 111.142 20.4999C112.157 20.6901 113.141 21.0098 114.069 21.4509C114.702 21.7551 115.245 22.2108 115.648 22.7749C116.005 23.339 116.184 23.9929 116.163 24.6551C116.189 25.8513 115.596 26.9812 114.584 27.6634C113.536 28.4305 112.157 28.8125 110.449 28.8099C109.384 28.8283 108.327 28.6219 107.352 28.2045C106.504 27.8435 105.773 27.2652 105.238 26.5315C104.741 25.8633 104.47 25.0616 104.464 24.2373H107.561C107.567 24.8924 107.879 25.5094 108.409 25.9144C109.023 26.3299 109.764 26.5289 110.511 26.4785C111.179 26.5217 111.844 26.36 112.412 26.0163C112.826 25.7463 113.071 25.2902 113.062 24.8051Z" fill="white"/>
  <path fill-rule="evenodd" clip-rule="evenodd" d="M124.684 17.0401C123.88 17.0123 123.106 17.3383 122.578 17.9276C121.99 18.6334 121.633 19.4934 121.552 20.3981H127.591V20.1684C127.59 19.3193 127.291 18.4958 126.743 17.8336C126.213 17.291 125.465 17.001 124.695 17.0401H124.684ZM125.071 28.7834C123.066 28.7834 121.438 28.1697 120.189 26.9412C118.94 25.7127 118.315 24.0758 118.315 22.0302V21.6541C118.292 20.3869 118.572 19.132 119.132 17.9878C119.634 16.9552 120.427 16.0827 121.42 15.4721C122.405 14.873 123.546 14.5613 124.707 14.5733C126.627 14.5733 128.112 15.1686 129.163 16.3595C130.213 17.55 130.737 19.2347 130.735 21.4135V22.6578H121.513C121.549 23.6606 121.962 24.6158 122.675 25.343C123.358 26.0026 124.29 26.3602 125.253 26.332C126.651 26.3565 127.974 25.7183 128.799 24.621L130.506 26.2042C129.941 27.0235 129.16 27.682 128.245 28.1103C127.255 28.5706 126.168 28.8007 125.071 28.7834Z" fill="white"/>
  <path fill-rule="evenodd" clip-rule="evenodd" d="M135.686 21.842C135.686 23.2371 135.965 24.3243 136.515 25.1064C137.037 25.8664 137.928 26.3094 138.869 26.2755C140.081 26.3267 141.205 25.6607 141.714 24.5912V18.736C141.204 17.6842 140.091 17.0352 138.895 17.0927C137.946 17.0551 137.046 17.5029 136.522 18.2734C135.957 19.0684 135.675 20.2578 135.675 21.842H135.686ZM132.519 21.5751C132.519 19.4644 133.024 17.7684 134.033 16.4873C134.976 15.2384 136.492 14.521 138.086 14.5695C139.467 14.518 140.798 15.07 141.714 16.0736V9.61707H144.885V28.5317H142.012L141.857 27.1107C140.933 28.2159 139.528 28.8356 138.063 28.7837C136.48 28.8168 134.981 28.0929 134.052 26.8475C133.031 25.5535 132.519 23.7963 132.519 21.5751Z" fill="white"/>
  <path fill-rule="evenodd" clip-rule="evenodd" d="M148.504 28.5318H151.671V14.8252H148.504V28.5318Z" fill="white"/>
  <path fill-rule="evenodd" clip-rule="evenodd" d="M162.689 17.638C162.261 17.5696 161.829 17.5358 161.395 17.5365C159.945 17.5365 158.967 18.0769 158.461 19.1572V28.5318H155.291V14.8253H158.318L158.395 16.3595C159.035 15.2393 160.259 14.5527 161.578 14.5733C161.96 14.5606 162.341 14.6207 162.7 14.7501L162.689 17.638Z" fill="white"/>
  <path fill-rule="evenodd" clip-rule="evenodd" d="M169.8 17.0439C168.995 17.0157 168.22 17.3417 167.691 17.9314C167.106 18.6387 166.75 19.4983 166.668 20.4019H172.708V20.1725C172.705 19.3223 172.406 18.4977 171.86 17.8336C171.328 17.2936 170.581 17.0041 169.812 17.0402L169.8 17.0439ZM170.187 28.7876C168.366 28.8567 166.598 28.19 165.302 26.945C164.055 25.7165 163.432 24.0796 163.432 22.0343V21.6583C163.408 20.3906 163.688 19.1358 164.249 17.9915C164.749 16.9582 165.543 16.0854 166.536 15.4758C167.52 14.8753 168.662 14.5632 169.824 14.5771C171.744 14.5771 173.228 15.1724 174.276 16.3633C175.325 17.5516 175.851 19.24 175.851 21.4172V22.6581H166.645C166.684 23.6603 167.097 24.6147 167.807 25.3431C168.487 26.0037 169.419 26.3617 170.381 26.332C171.781 26.3587 173.106 25.7198 173.931 24.6211L175.638 26.2079C175.07 27.0258 174.291 27.6835 173.377 28.1144C172.382 28.5766 171.29 28.8071 170.187 28.7876Z" fill="white"/>
  <path fill-rule="evenodd" clip-rule="evenodd" d="M182.812 22.6543L181.403 24.0606V28.5317H178.236V9.61328H181.403V20.3003L182.394 19.0932L186.296 14.8252H190.105L184.86 20.5409L190.667 28.5317H187.004L182.812 22.6543Z" fill="white"/>
  <path fill-rule="evenodd" clip-rule="evenodd" d="M196.067 11.4937V14.8253H198.556V17.1079H196.067V24.7565C196.031 25.1573 196.144 25.5571 196.384 25.8846C196.702 26.1568 197.125 26.2843 197.546 26.2343C197.919 26.2321 198.29 26.1892 198.653 26.1061V28.4864C197.975 28.6763 197.272 28.7752 196.567 28.7801C194.133 28.7801 192.916 27.4752 192.916 24.8655V17.1079H190.593V14.8253H192.916V11.4937H196.067Z" fill="white"/>
  <path fill-rule="evenodd" clip-rule="evenodd" d="M203.078 21.8196C203.078 23.2308 203.377 24.3349 203.976 25.1325C204.55 25.9165 205.492 26.3662 206.481 26.3283C207.473 26.3659 208.415 25.9071 208.978 25.1137C209.574 24.3014 209.872 23.1169 209.872 21.5526C209.872 20.1684 209.567 19.0707 208.955 18.2585C208.385 17.4696 207.445 17.0127 206.454 17.0439C205.478 17.0161 204.554 17.4651 203.991 18.2397C203.38 19.0369 203.078 20.2327 203.078 21.8196ZM199.908 21.5526C199.888 20.2974 200.169 19.0553 200.728 17.9238C201.236 16.8923 202.043 16.0282 203.051 15.4382C204.086 14.8508 205.267 14.5515 206.465 14.5733C208.204 14.5045 209.892 15.1532 211.111 16.3595C212.301 17.5478 212.946 19.1271 213.047 21.0976V21.8196C213.069 23.0703 212.795 24.3093 212.246 25.4408C211.747 26.4655 210.948 27.3251 209.949 27.9114C208.905 28.5074 207.711 28.8108 206.501 28.7875C204.51 28.7875 202.917 28.143 201.719 26.8547C200.522 25.566 199.924 23.8498 199.927 21.7068L199.908 21.5526Z" fill="white"/>
  <path fill-rule="evenodd" clip-rule="evenodd" d="M223.019 17.638C222.592 17.5696 222.159 17.5357 221.726 17.5365C220.276 17.5365 219.298 18.0768 218.792 19.1572V28.5318H215.621V14.8253H218.649L218.726 16.3595C219.366 15.2393 220.589 14.5526 221.908 14.5733C222.291 14.5601 222.672 14.6203 223.031 14.75L223.019 17.638Z" fill="white"/>
  <path fill-rule="evenodd" clip-rule="evenodd" d="M242.91 11.4937V14.8253H245.403V17.1079H242.91V24.7565C242.875 25.1577 242.989 25.5574 243.232 25.8846C243.549 26.1572 243.972 26.2847 244.393 26.2343C244.766 26.2317 245.137 26.1888 245.5 26.1061V28.4864C244.821 28.6763 244.12 28.7752 243.413 28.7801C240.977 28.7801 239.76 27.4752 239.763 24.8655V17.1079H237.44V14.8253H239.763V11.4937H242.91Z" fill="white"/>
  <path fill-rule="evenodd" clip-rule="evenodd" d="M253.548 17.0439C252.744 17.0146 251.97 17.341 251.443 17.9314C250.857 18.6383 250.5 19.4979 250.416 20.4019H256.46V20.1725C256.458 19.3223 256.158 18.4977 255.612 17.8336C255.08 17.2913 254.33 17.0018 253.56 17.0401L253.548 17.0439ZM253.936 28.7876C251.93 28.7876 250.303 28.1735 249.054 26.945C247.805 25.7165 247.176 24.0796 247.169 22.0343V21.6583C247.145 20.3906 247.425 19.1358 247.985 17.9915C248.485 16.9582 249.279 16.0854 250.273 15.4758C251.257 14.8753 252.398 14.5632 253.56 14.5771C255.48 14.5771 256.966 15.1724 258.016 16.3633C259.061 17.5516 259.588 19.24 259.588 21.4172V22.6581H250.378C250.414 23.661 250.827 24.6162 251.54 25.3431C252.226 26.0086 253.168 26.3655 254.137 26.3283C255.536 26.355 256.86 25.7161 257.683 24.6173L259.39 26.2042C258.823 27.0228 258.043 27.6805 257.129 28.1107C256.134 28.5747 255.04 28.8064 253.936 28.7876Z" fill="white"/>
  <path fill-rule="evenodd" clip-rule="evenodd" d="M266.335 11.4937V14.8253H268.848V17.1079H266.355V24.7565C266.318 25.1577 266.432 25.5586 266.676 25.8846C266.988 26.1516 267.401 26.2787 267.814 26.2343C268.188 26.2321 268.561 26.1892 268.925 26.1061V28.4864C268.247 28.6759 267.545 28.7748 266.839 28.7801C264.405 28.7801 263.187 27.4752 263.184 24.8655V17.1079H260.861V14.8253H263.184V11.4937H266.335Z" fill="white"/>
  <path fill-rule="evenodd" clip-rule="evenodd" d="M150.087 9.6134C151.069 9.6134 151.864 10.3862 151.864 11.3394C151.864 12.2927 151.069 13.0654 150.087 13.0654C149.106 13.0654 148.31 12.2927 148.31 11.3394C148.31 10.3862 149.106 9.6134 150.087 9.6134Z" fill="white"/>
  <path fill-rule="evenodd" clip-rule="evenodd" d="M231.262 25.8692C231.788 25.5993 232.221 25.1845 232.508 24.6772V22.0938H230.801C229.624 22.0938 228.741 22.2924 228.153 22.688C227.574 23.061 227.239 23.6995 227.266 24.373C227.242 24.9081 227.463 25.4259 227.87 25.7869C228.326 26.1543 228.908 26.3423 229.5 26.3133C230.114 26.3137 230.722 26.1614 231.262 25.8692ZM232.617 27.2493C230.679 29.1509 227.568 29.3043 225.443 27.6032C224.571 26.8736 224.079 25.8057 224.1 24.6889C224.031 23.3637 224.663 22.0965 225.776 21.3267C226.891 20.5446 228.488 20.1539 230.569 20.1539H232.504V19.2548C232.536 18.6317 232.316 18.0206 231.892 17.5517C231.392 17.091 230.714 16.8586 230.026 16.9124C229.391 16.8846 228.764 17.0704 228.253 17.4385C227.813 17.748 227.554 18.2458 227.56 18.7738H224.537C224.544 18.0059 224.817 17.2633 225.311 16.6642C225.801 15.9904 226.47 15.459 227.247 15.1262C228.181 14.7434 229.187 14.5528 230.2 14.5659C231.852 14.5659 233.17 14.9694 234.153 15.7764C235.136 16.5838 235.641 17.7183 235.667 19.1799V25.362C235.627 26.4412 235.808 27.5178 236.201 28.5282H232.965C232.797 28.1206 232.675 27.69 232.617 27.2493Z" fill="white"/>
  <g clip-path="url(#clip0_150_3765)">
  <path d="M11.7759 4.62393L11.8529 4.65805C12.2533 4.83326 12.7078 4.84525 13.1171 4.69141C13.5264 4.53757 13.8573 4.2304 14.0376 3.83698L14.7686 2.32524C14.9457 1.93128 14.9577 1.48438 14.802 1.08174C14.6464 0.679095 14.3357 0.353275 13.9375 0.175141L13.8606 0.141025C13.4601 -0.0349926 13.0052 -0.0475845 12.5954 0.106004C12.1855 0.259593 11.8541 0.566858 11.6736 0.960579L10.9426 2.4708C10.7643 2.86533 10.7519 3.31337 10.908 3.71689C11.0642 4.12041 11.3763 4.44654 11.7759 4.62393Z" fill="white"/>
  <path d="M17.6089 9.81185C17.5597 9.78683 17.5081 9.75953 17.4619 9.73603C12.4362 7.20838 3.045 2.30621 1.94151 1.76566C0.90805 1.25315 0.671809 1.5602 0.293206 2.18794C-0.0853972 2.81569 -0.205442 3.19628 0.572542 3.75048C1.07965 4.11212 3.39437 5.51696 4.93109 6.65266C6.10076 7.51467 7.22272 8.68373 7.5236 9.88463L11.6382 26.7966C11.8906 27.7973 12.4539 27.77 13.018 27.6874C13.6297 27.5964 14.1645 27.5486 14.1191 26.3113L13.5597 13.2652C13.5035 12.0264 14.3846 11.4942 15.5074 12.0749L17.6089 13.1007L19.2772 13.9157C19.2806 13.91 19.2837 13.9042 19.2865 13.8982C19.5054 12.9834 19.8038 12.0888 20.1783 11.2243V11.2197C19.5173 10.8626 18.4007 10.2205 17.6089 9.81185Z" fill="white"/>
  <path d="M35.6095 1.19177C34.1549 1.19116 32.7063 1.37669 31.3002 1.7437C31.3056 1.88472 31.3117 2.02573 31.3171 2.16675C31.3756 4.12883 31.5618 6.97642 31.7457 8.39491C31.8843 9.44266 32.0859 10.3919 32.8646 11.2865C33.5279 12.0446 34.2344 12.4131 35.3802 12.943C36.526 13.473 40.4998 15.0203 41.6371 15.4737C42.7745 15.9271 42.686 16.313 42.4267 17.0506C42.1673 17.7883 41.9195 17.9498 40.8153 17.6337C39.711 17.3175 34.8015 15.7383 33.6449 15.4494C32.9777 15.2834 32.6022 15.2917 32.0882 15.9081C30.9424 17.3789 30.9901 20.2144 31.8235 22.6321C32.1936 23.6935 32.7884 25.5388 33.174 26.7147C33.5595 27.8906 32.9431 28.0521 32.553 28.2189C31.7919 28.5426 31.3918 28.5411 30.92 27.5926C30.4406 26.6222 29.2448 23.3637 27.9012 20.808C26.5576 18.2523 25.0956 17.1295 22.3137 15.5124L21.7928 15.2387L19.2818 13.918C19.1116 14.6383 18.99 15.369 18.9179 16.1052C18.864 16.6359 18.8301 17.1765 18.8301 17.7224C18.8301 26.8527 26.3422 34.2537 35.6095 34.2537C44.8768 34.2537 52.385 26.8527 52.385 17.7262C52.385 8.59961 44.876 1.19177 35.6095 1.19177ZM38.3197 8.62159L37.1878 9.75881C36.9021 10.0584 36.5078 10.2345 36.0909 10.2487C35.674 10.2629 35.2683 10.114 34.9623 9.83462L34.9031 9.78079C34.5988 9.49936 34.4199 9.11073 34.4055 8.69977C34.3911 8.28882 34.5423 7.88895 34.8261 7.58748L35.9581 6.45027C36.2437 6.15047 36.6382 5.97422 37.0553 5.96002C37.4724 5.94581 37.8783 6.0948 38.1843 6.37445L38.2428 6.42828C38.5461 6.70947 38.7244 7.09734 38.7388 7.50743C38.7532 7.91752 38.6026 8.31661 38.3197 8.6178V8.62159Z" fill="white"/>
  <path d="M21.1618 9.3221C20.7932 9.9323 20.4652 10.5654 20.1799 11.2175C20.5562 11.407 21.2903 11.7739 21.7912 12.0234L22.3122 12.2834C22.3037 12.2834 25.0163 13.5321 25.8666 13.8702C27.8712 14.6693 28.8423 11.6413 28.8423 9.31148C28.8423 7.95592 28.8808 3.56551 28.8808 2.99159V2.57385C25.6546 3.97227 22.9549 6.33247 21.1618 9.3221Z" fill="white"/>
  <path d="M19.2772 13.9158L19.2833 13.9188L19.2772 13.9158Z" fill="#E83D8E"/>
  <path d="M19.2872 13.8983C19.2842 13.9046 19.2809 13.9108 19.2772 13.9168H19.2822L19.2872 13.8983Z" fill="#E83D8E"/>
  </g>
  <defs>
  <clipPath id="clip0_150_3765">
  <rect width="52.3881" height="34.2537" fill="white"/>
  </clipPath>
  </defs>
  </svg>
  