<?xml version="1.0" encoding="utf-8"?>
<svg width="160" height="48" viewBox="0 0 160 48" fill="currentColor" xmlns="http://www.w3.org/2000/svg">
  <g>
    <path d="M137.258 14.1124H131.616C131.543 16.5595 132.827 18.0146 134.569 18.0146C135.73 18.0146 136.494 17.5756 137.118 16.7399C137.167 16.6798 137.246 16.6557 137.319 16.6798L137.368 16.6978C137.448 16.7279 137.491 16.8181 137.466 16.8962C136.971 18.5497 135.687 19.674 133.701 19.674C131.121 19.674 129.397 17.8041 129.397 15.1105C129.397 12.1163 131.353 10.054 133.792 10.054C136.231 10.054 137.417 11.6112 137.417 13.7096V13.914C137.417 13.914 137.417 13.9862 137.38 14.0523C137.344 14.1124 137.264 14.1124 137.264 14.1124M131.842 13.4631H135.045C135.137 13.4631 135.217 13.3849 135.217 13.2947C135.186 11.7435 134.734 10.6973 133.621 10.6973C132.509 10.6973 131.861 11.7615 131.684 13.2767C131.671 13.3729 131.751 13.4631 131.849 13.4631"/>
    <path d="M139.44 14.395V13.9561C139.44 13.7757 139.593 13.6254 139.777 13.6254H143.731C143.915 13.6254 144.068 13.7757 144.068 13.9561V14.395C144.068 14.5754 143.915 14.7257 143.731 14.7257H139.777C139.593 14.7257 139.44 14.5754 139.44 14.395Z"/>
    <path d="M77.0551 14.1124H71.4132C71.3399 16.5595 72.6235 18.0146 74.3656 18.0146C75.527 18.0146 76.291 17.5756 76.9145 16.7399C76.9634 16.6798 77.0429 16.6557 77.1162 16.6798L77.1651 16.6978C77.2446 16.7279 77.2874 16.8181 77.2629 16.8962C76.7678 18.5497 75.4903 19.674 73.4976 19.674C70.9181 19.674 69.1943 17.8041 69.1943 15.1105C69.1943 12.1163 71.1504 10.054 73.5893 10.054C76.0282 10.054 77.214 11.6112 77.214 13.7096V13.914C77.214 13.914 77.214 13.9862 77.1774 14.0523C77.1407 14.1124 77.0612 14.1124 77.0612 14.1124M71.6394 13.4631H74.8424C74.934 13.4631 75.0135 13.3849 75.0074 13.2947C74.9768 11.7435 74.5245 10.6973 73.412 10.6973C72.2995 10.6973 71.6516 11.7615 71.4743 13.2767C71.4621 13.3729 71.5416 13.4631 71.6394 13.4631Z"/>
    <path d="M81.8969 17.9663C81.8969 18.3391 82.3187 18.4834 83.2967 18.8382C83.3639 18.8622 83.4067 18.9223 83.4067 18.9945V19.2891C83.4067 19.3793 83.3333 19.4514 83.2417 19.4514H78.4922C78.4005 19.4514 78.3271 19.3793 78.3271 19.2891V18.9825C78.3271 18.9163 78.3699 18.8562 78.4311 18.8321C78.8651 18.6518 79.458 18.4774 79.4519 18.1046V12.2484C79.4519 12.1883 79.4213 12.1342 79.3663 12.1041L78.4677 11.587C78.4188 11.557 78.3822 11.5029 78.3822 11.4427V11.3165C78.3822 11.2503 78.4249 11.1902 78.4861 11.1601L81.4996 10.0057C81.4996 10.0057 81.5424 9.99371 81.5607 9.99371H81.7685C81.8602 9.99371 81.9397 10.0719 81.9336 10.1621L81.903 12.5911C82.7588 10.6852 83.2906 9.99973 84.3358 9.99973C84.6659 9.99973 84.9165 10.0959 85.0693 10.2402C85.0999 10.2703 85.1243 10.3124 85.1243 10.3605V12.0199C85.1243 12.1101 85.051 12.1883 84.9532 12.1883H84.782C83.6818 12.1883 82.8077 12.2424 81.903 13.1323V17.9543L81.8969 17.9663Z"/>
    <path d="M59.2125 16.836L59.2369 16.824L59.2736 16.812L61.3213 16.0183C61.4436 15.9702 61.5658 16.0664 61.5475 16.1927C61.5108 16.4512 61.4803 16.7218 61.4803 17.0164C61.4803 18.279 61.9632 19.0486 62.9228 19.0486C63.9559 19.0486 64.4021 18.261 64.4021 16.5835V9.04378C64.4021 8.08178 64.5855 8.34032 63.0818 7.75109C63.0818 7.75109 62.9778 7.68495 62.9778 7.60077C62.9778 7.55869 62.9778 7.4685 62.9778 7.38432C62.9778 7.29414 63.0512 7.22198 63.149 7.22198H68.2469C68.3386 7.22198 68.4119 7.29414 68.4119 7.38432V7.62482C68.4119 7.67894 68.3202 7.73906 68.3202 7.73906C67.0549 8.22608 66.9938 8.07576 66.9938 9.03777V15.7718C66.9938 18.4294 65.4473 19.6739 62.8311 19.6739C60.5389 19.6739 59.1514 18.8142 59.1514 17.2629C59.1514 17.1427 59.1636 17.0284 59.1819 16.9142C59.1819 16.8962 59.188 16.8781 59.1942 16.8541C59.1942 16.8481 59.1942 16.842 59.2064 16.836"/>
    <path d="M92.8929 13.0001C92.8929 11.984 92.5016 11.4789 91.5236 11.4789C90.8085 11.4789 90.1605 11.7855 89.6043 12.1463C89.5554 12.1764 89.5309 12.2305 89.5309 12.2846V18.1107C89.5309 18.5436 89.7754 18.5677 90.5089 18.8382C90.5762 18.8623 90.619 18.9224 90.619 18.9946V19.2952C90.619 19.3854 90.5456 19.4575 90.4478 19.4575H86.1262C86.0345 19.4575 85.9551 19.3854 85.9551 19.2952V18.9946C85.9551 18.9284 85.9979 18.8683 86.059 18.8382C86.8108 18.5436 87.0737 18.4895 87.0737 18.1107V12.1283L86.0896 11.5631C86.0345 11.533 86.004 11.4789 86.004 11.4188V11.2925C86.004 11.2264 86.0468 11.1662 86.1079 11.1362L89.0297 10.0179C89.0297 10.0179 89.0725 10.0058 89.0908 10.0058H89.4148C89.5126 10.0058 89.586 10.084 89.586 10.1802L89.5309 11.4909C89.5309 11.5691 89.6226 11.6052 89.6776 11.5511C90.4234 10.7394 91.4014 10.0118 92.8134 10.0118C94.4821 10.0118 95.3562 10.9558 95.3562 12.8618V18.1107C95.3562 18.5316 95.6557 18.5857 96.3526 18.8382C96.4198 18.8623 96.4626 18.9224 96.4626 18.9946V19.2952C96.4626 19.3854 96.3893 19.4575 96.2914 19.4575H91.9699C91.8782 19.4575 91.7987 19.3854 91.7987 19.2952V18.9946C91.7987 18.9284 91.8415 18.8623 91.9087 18.8382C92.6239 18.5617 92.8867 18.5256 92.8867 18.1107V13.0061L92.8929 13.0001Z"/>
    <path d="M124.837 13.0001C124.837 11.984 124.446 11.4789 123.468 11.4789C122.753 11.4789 122.105 11.7855 121.549 12.1463C121.5 12.1764 121.475 12.2305 121.475 12.2846V18.1107C121.475 18.5436 121.72 18.5677 122.453 18.8382C122.521 18.8623 122.563 18.9224 122.563 18.9946V19.2952C122.563 19.3854 122.49 19.4575 122.392 19.4575H118.071C117.979 19.4575 117.899 19.3854 117.899 19.2952V18.9946C117.899 18.9284 117.942 18.8683 118.003 18.8382C118.755 18.5436 119.018 18.4895 119.018 18.1107V12.1283L118.034 11.5631C117.979 11.533 117.948 11.4789 117.948 11.4188V11.2925C117.948 11.2264 117.991 11.1662 118.058 11.1362L120.98 10.0179C120.98 10.0179 121.023 10.0058 121.041 10.0058H121.365C121.463 10.0058 121.536 10.084 121.53 10.1802L121.475 11.4909C121.475 11.5691 121.567 11.6052 121.622 11.5511C122.368 10.7394 123.346 10.0118 124.758 10.0118C126.426 10.0118 127.301 10.9558 127.301 12.8618V18.1107C127.301 18.5316 127.6 18.5857 128.297 18.8382C128.364 18.8623 128.407 18.9224 128.407 18.9946V19.2952C128.407 19.3854 128.334 19.4575 128.236 19.4575H123.914C123.823 19.4575 123.743 19.3854 123.743 19.2952V18.9946C123.743 18.9284 123.786 18.8623 123.853 18.8382C124.568 18.5617 124.831 18.5256 124.831 18.1107V13.0061L124.837 13.0001Z"/>
    <path d="M110.864 12.8678L109.648 13.3368C109.611 13.3548 109.568 13.3548 109.526 13.3368C109.079 13.1684 108.804 12.8077 108.804 12.2545C108.804 10.8055 110.332 10.054 112.307 10.054C114.581 10.054 115.828 10.8777 115.828 12.9219V17.5576C115.828 18.1528 115.956 18.5376 116.414 18.5376C116.61 18.5376 116.793 18.4895 116.958 18.4294C117.05 18.3933 117.154 18.4475 117.179 18.5376L117.209 18.6579C117.221 18.712 117.209 18.7721 117.172 18.8142C116.665 19.3674 116.011 19.674 115.204 19.674C114.299 19.674 113.682 19.1629 113.462 18.3032C113.444 18.237 113.364 18.219 113.315 18.2671C112.741 18.9585 111.854 19.6379 110.65 19.6379C109.208 19.6379 108.248 18.7781 108.248 17.3832C108.248 15.8801 109.348 15.2668 110.681 14.7798L113.254 13.8599C113.321 13.8358 113.364 13.7757 113.364 13.7036V12.3327C113.364 11.3406 113.028 10.6251 112.111 10.6191C111.512 10.6191 111.017 11.0701 110.938 11.6533C110.889 12.002 110.901 12.3387 110.956 12.6935C110.968 12.7716 110.925 12.8438 110.852 12.8738M113.364 17.6418V14.7016C113.364 14.5814 113.242 14.5032 113.132 14.5453L111.836 15.0624C111.09 15.345 110.626 15.7478 110.626 16.7219C110.626 17.6298 111.054 18.2791 111.995 18.2791C112.484 18.2791 112.832 18.1047 113.297 17.768C113.34 17.738 113.364 17.6839 113.364 17.6358"/>
    <path d="M110.516 33.6231C110.516 30.6469 112.49 28.6026 115.137 28.6026C117.783 28.6026 119.709 30.4545 119.709 33.2202C119.709 36.1964 117.735 38.2227 115.088 38.2227C112.441 38.2227 110.516 36.4009 110.516 33.6231ZM117.074 33.8155C117.074 31.2301 116.469 29.252 115.045 29.252C113.731 29.252 113.126 30.719 113.126 33.0098C113.126 35.5952 113.749 37.5913 115.167 37.5913C116.482 37.5913 117.068 36.1062 117.068 33.8155"/>
    <path d="M65.1542 25.4639V25.3076C65.1542 25.2414 65.197 25.1813 65.2643 25.1512L68.2717 23.9788C68.2717 23.9788 68.3144 23.9668 68.3328 23.9668H68.5223C68.614 23.9668 68.6873 24.0389 68.6873 24.1291V35.6191C68.6934 35.9377 68.6751 36.0941 68.8157 36.1482L69.5981 36.545C69.6776 36.5871 69.7448 36.6171 69.7448 36.7194V36.8757C69.7448 36.9358 69.7142 36.9839 69.6103 37.038L67.532 37.8437C67.532 37.8437 66.5846 38.2105 66.5662 38.2105H66.3706C66.2728 38.2105 66.1995 38.1323 66.1995 38.0361V36.8576C66.2056 36.7795 66.1017 36.7434 66.0528 36.8035C65.3682 37.6754 64.5063 38.2165 63.351 38.2165C61.1994 38.2165 59.7568 36.5029 59.7568 33.8454C59.7568 30.5385 61.7495 28.6325 64.2924 28.6325C65.032 28.6325 65.6494 28.8189 66.0772 29.1315C66.1323 29.1736 66.2117 29.1315 66.2117 29.0654V26.1914C66.2117 26.1313 66.175 26.0712 66.12 26.0471L65.2337 25.5962C65.1787 25.5661 65.142 25.512 65.142 25.4459M62.1896 32.9976C62.1896 35.132 63.076 36.7254 64.6958 36.7254C65.2704 36.7254 65.7533 36.551 66.1506 36.2143C66.1873 36.1842 66.2056 36.1361 66.2056 36.088V31.5486C66.2056 30.1837 65.6188 29.378 64.5491 29.378C63.0576 29.378 62.1835 30.815 62.1835 32.9976"/>
    <path d="M79.9467 36.5813C79.9467 36.954 80.3685 37.0923 81.3465 37.4531C81.4137 37.4771 81.4565 37.5373 81.4565 37.6094V37.904C81.4565 37.9942 81.3832 38.0664 81.2915 38.0664H76.542C76.4503 38.0664 76.377 37.9942 76.377 37.904V37.5974C76.377 37.5312 76.4197 37.4711 76.4809 37.4471C76.9149 37.2667 77.5078 37.0923 77.5017 36.7196V30.8633C77.5017 30.8032 77.4711 30.7491 77.4161 30.719L76.5175 30.202C76.4686 30.1719 76.432 30.1178 76.432 30.0577V29.9314C76.432 29.8653 76.4748 29.8051 76.5359 29.7751L79.5494 28.6207C79.5494 28.6207 79.5922 28.6086 79.6105 28.6086H79.8183C79.91 28.6086 79.9895 28.6868 79.9834 28.777L79.9528 31.2061C80.8086 29.3001 81.3404 28.6207 82.3917 28.6207C82.7218 28.6207 82.9724 28.7169 83.1191 28.8612C83.1497 28.8912 83.1741 28.9393 83.1741 28.9814V30.6409C83.1741 30.7311 83.1008 30.8092 83.003 30.8092H82.8318C81.7316 30.8092 80.8575 30.8633 79.9528 31.7532V36.5753L79.9467 36.5813Z"/>
    <path d="M91.8412 32.6611H86.1993C86.126 35.1082 87.4096 36.5632 89.1517 36.5632C90.3131 36.5632 91.0772 36.1243 91.7007 35.2885C91.7496 35.2284 91.829 35.2044 91.9024 35.2284L91.9513 35.2465C92.0307 35.2765 92.0735 35.3667 92.0491 35.4449C91.554 37.0983 90.2703 38.2227 88.2837 38.2227C85.7042 38.2227 83.9805 36.3528 83.9805 33.6591C83.9805 30.6649 85.9365 28.6026 88.3754 28.6026C90.8143 28.6026 92.0002 30.1598 92.0002 32.2582V32.4566C92.0002 32.4566 92.0002 32.5288 91.9635 32.5949C91.9268 32.655 91.8474 32.655 91.8474 32.655M86.4255 32.0057H89.6285C89.7202 32.0057 89.7996 31.9335 89.7996 31.8373C89.7691 30.2861 89.3167 29.2399 88.1981 29.2399C87.0795 29.2399 86.4377 30.3041 86.2605 31.8193C86.2482 31.9155 86.3277 32.0057 86.4255 32.0057Z"/>
    <path d="M152.637 32.6611H146.995C146.922 35.1082 148.206 36.5632 149.948 36.5632C151.109 36.5632 151.873 36.1243 152.497 35.2885C152.545 35.2284 152.625 35.2044 152.698 35.2284L152.747 35.2465C152.827 35.2765 152.869 35.3667 152.845 35.4449C152.35 37.0983 151.066 38.2227 149.08 38.2227C146.5 38.2227 144.776 36.3528 144.776 33.6591C144.776 30.6649 146.732 28.6026 149.171 28.6026C151.61 28.6026 152.796 30.1598 152.796 32.2582V32.4566C152.796 32.4566 152.796 32.5288 152.759 32.5949C152.723 32.655 152.643 32.655 152.643 32.655M147.221 32.0057H150.424C150.516 32.0057 150.596 31.9335 150.589 31.8373C150.559 30.2861 150.107 29.2399 148.988 29.2399C147.869 29.2399 147.228 30.3041 147.05 31.8193C147.038 31.9155 147.117 32.0057 147.215 32.0057"/>
    <path d="M124.404 36.5813C124.404 36.954 124.826 37.0923 125.804 37.4531C125.871 37.4771 125.914 37.5373 125.914 37.6094V37.904C125.914 37.9942 125.84 38.0664 125.749 38.0664H120.999C120.907 38.0664 120.834 37.9942 120.834 37.904V37.5974C120.834 37.5312 120.877 37.4711 120.938 37.4471C121.372 37.2667 121.965 37.0923 121.953 36.7196V30.8633C121.953 30.8032 121.922 30.7491 121.867 30.719L120.968 30.202C120.92 30.1719 120.883 30.1178 120.883 30.0577V29.9314C120.883 29.8653 120.926 29.8051 120.987 29.7751L124 28.6207C124 28.6207 124.043 28.6086 124.061 28.6086H124.269C124.361 28.6086 124.44 28.6868 124.434 28.777L124.404 31.2061C125.259 29.3001 125.791 28.6207 126.837 28.6207C127.167 28.6207 127.417 28.7169 127.57 28.8612C127.601 28.8912 127.619 28.9393 127.619 28.9814V30.6409C127.619 30.7311 127.546 30.8092 127.454 30.8092H127.283C126.182 30.8092 125.308 30.8633 124.404 31.7532V36.5753V36.5813Z"/>
    <path d="M131.072 31.4165L129.856 31.8854C129.819 31.9035 129.77 31.9035 129.734 31.8854C129.287 31.7171 129.012 31.3563 129.012 30.8032C129.012 29.3542 130.54 28.6026 132.515 28.6026C134.789 28.6026 136.036 29.4263 136.036 31.4706V36.1062C136.036 36.7015 136.164 37.0863 136.622 37.0863C136.818 37.0863 137.001 37.0382 137.166 36.9781C137.258 36.948 137.362 36.9961 137.387 37.0863L137.417 37.2065C137.435 37.2607 137.417 37.3208 137.38 37.3629C136.873 37.916 136.219 38.2227 135.412 38.2227C134.508 38.2227 133.89 37.7116 133.67 36.8518C133.652 36.7857 133.566 36.7676 133.523 36.8157C132.949 37.5072 132.062 38.1866 130.858 38.1866C129.416 38.1866 128.456 37.3268 128.456 35.9319C128.456 34.4287 129.556 33.8155 130.895 33.3285L133.468 32.4085C133.536 32.3845 133.578 32.3244 133.578 32.2522V30.8814C133.578 29.8893 133.242 29.1738 132.325 29.1678C131.726 29.1678 131.231 29.6187 131.152 30.2019C131.103 30.5507 131.121 30.8874 131.17 31.2421C131.182 31.3203 131.139 31.3924 131.066 31.4225M133.578 36.1844V33.2443C133.578 33.124 133.456 33.0459 133.346 33.088L132.05 33.605C131.305 33.8876 130.84 34.2844 130.84 35.2645C130.84 36.1724 131.268 36.8217 132.209 36.8217C132.698 36.8217 133.047 36.6474 133.511 36.3107C133.554 36.2806 133.578 36.2325 133.578 36.1784"/>
    <path d="M74.2553 36.7194C74.2553 37.1042 74.5304 37.1644 75.27 37.4469C75.3372 37.471 75.38 37.5311 75.38 37.5973V37.8979C75.38 37.9881 75.3067 38.0602 75.2089 38.0602H70.8506C70.7589 38.0602 70.6855 37.9881 70.6855 37.8979V37.5973C70.6855 37.5311 70.7283 37.471 70.7956 37.4469C71.5413 37.1583 71.8103 37.1102 71.8103 36.7194V30.6227C71.8103 30.5626 71.7797 30.5085 71.7247 30.4784L70.8261 29.9613C70.7772 29.9313 70.7406 29.8772 70.7406 29.817V29.6908C70.7406 29.6246 70.7833 29.5645 70.8445 29.5344L73.8335 28.3861C73.8335 28.3861 73.8763 28.374 73.8946 28.374H74.0903C74.1819 28.374 74.2614 28.4462 74.2614 28.5364V36.7074L74.2553 36.7194ZM71.5535 26.1915C71.5535 25.4399 72.1403 24.8086 72.9961 24.8086C73.8519 24.8086 74.4509 25.4399 74.4509 26.1915C74.4509 26.943 73.8641 27.5744 72.9961 27.5744C72.1281 27.5744 71.5535 26.925 71.5535 26.1915Z"/>
    <path d="M94.1271 26.1194L93.1491 25.6264C93.0941 25.5963 93.0574 25.5422 93.0574 25.4821V25.3258C93.0574 25.2596 93.1002 25.1935 93.1613 25.1695L96.1749 24.009C96.1749 24.009 96.2176 23.997 96.236 23.997H96.4255C96.5172 23.997 96.5905 24.0692 96.5905 24.1654V36.7195C96.5905 37.1043 96.8533 37.1645 97.5869 37.4471C97.6541 37.4711 97.6969 37.5312 97.6969 37.6034V37.904C97.6969 37.9942 97.6235 38.0663 97.5257 38.0663H93.1858C93.0941 38.0663 93.0146 37.9942 93.0146 37.904V37.6034C93.0146 37.5372 93.0574 37.4771 93.1186 37.4471C93.8093 37.1825 94.1149 37.1043 94.1149 36.7195V26.1194H94.1271ZM99.549 30.5988C99.9035 30.3042 100.062 30.0937 100.062 29.8652C100.062 29.5526 99.7996 29.4865 99.0722 29.3963C98.9866 29.3842 98.9255 29.3181 98.9255 29.2339V28.9694C98.9255 28.8792 98.9989 28.807 99.0906 28.807H102.544C102.636 28.807 102.715 28.8792 102.715 28.9694V29.246C102.715 29.3241 102.66 29.3903 102.581 29.4083C102.018 29.5225 101.67 29.6548 101.273 30.0276L99.0233 32.0779C98.9622 32.138 98.95 32.2342 99.005 32.3003L103.076 37.6274C103.076 37.6274 103.113 37.6936 103.113 37.7296V37.91C103.113 38.0002 103.039 38.0724 102.941 38.0724H100.564C100.509 38.0724 100.46 38.0483 100.429 38.0062L96.8533 33.2263C96.7983 33.1541 96.8106 33.0579 96.8778 33.0038L99.5551 30.6048L99.549 30.5988Z"/>
    <path d="M97.0312 7.01153V6.64477L100.179 5.43024H100.57V11.7013C101.157 10.8235 102.135 10.0539 103.559 10.0539C105.729 10.0539 107.099 11.6111 107.099 14.3047C107.099 17.7319 104.947 19.6739 102.209 19.6739C100.644 19.6739 99.1156 19.2711 98.101 18.4474V7.55266L97.0374 7.01153H97.0312ZM104.605 15.1645C104.605 13.012 103.804 11.5269 102.135 11.5269C101.548 11.5269 100.98 11.7735 100.57 12.1402V17.0224C100.57 18.3512 101.102 19.0306 102.19 19.0306C103.7 19.0306 104.611 17.317 104.611 15.1645"/>
    <path d="M106.518 26.5042H106.885C106.976 26.5042 107.056 26.5764 107.056 26.6726V28.6327C107.056 28.7228 107.129 28.795 107.221 28.795H109.195C109.287 28.795 109.36 28.8671 109.36 28.9573V29.4143C109.36 29.5045 109.287 29.5826 109.195 29.5826H107.221C107.129 29.5826 107.056 29.6548 107.056 29.745V35.3667C107.056 36.4309 107.465 36.8879 108.303 36.8879C108.749 36.8879 109.11 36.7616 109.501 36.4971C109.58 36.4429 109.684 36.467 109.733 36.5391L109.788 36.6173C109.825 36.6714 109.825 36.7436 109.788 36.7977C109.22 37.6274 108.346 38.2106 107.111 38.2106C105.65 38.2106 104.586 37.4591 104.586 35.499V29.7329C104.586 29.6428 104.513 29.5706 104.421 29.5706H103.657C103.566 29.5706 103.492 29.4985 103.492 29.4023V29.1317C103.492 29.0656 103.529 29.0114 103.59 28.9814C103.914 28.8311 104.22 28.6507 104.519 28.4463C104.568 28.4162 104.592 28.3621 104.592 28.302V27.346C104.592 27.2798 104.635 27.2137 104.696 27.1896L106.518 26.4862"/>
    <path d="M140.779 26.5042H141.146C141.237 26.5042 141.317 26.5764 141.317 26.6726V28.6327C141.317 28.7228 141.39 28.795 141.482 28.795H143.456C143.548 28.795 143.621 28.8671 143.621 28.9573V29.4143C143.621 29.5045 143.548 29.5826 143.456 29.5826H141.482C141.39 29.5826 141.317 29.6548 141.317 29.745V35.3667C141.317 36.4309 141.726 36.8879 142.564 36.8879C143.01 36.8879 143.371 36.7616 143.762 36.4971C143.841 36.4429 143.945 36.467 143.994 36.5391L144.049 36.6173C144.086 36.6714 144.086 36.7436 144.049 36.7977C143.481 37.6274 142.607 38.2106 141.372 38.2106C139.911 38.2106 138.847 37.4591 138.847 35.499V29.7329C138.847 29.6428 138.774 29.5706 138.682 29.5706H137.918C137.827 29.5706 137.747 29.4985 137.747 29.4023V29.1317C137.747 29.0656 137.784 29.0114 137.845 28.9814C138.169 28.8311 138.474 28.6507 138.774 28.4463C138.823 28.4162 138.847 28.3621 138.847 28.302V27.346C138.847 27.2798 138.89 27.2137 138.951 27.1896L140.773 26.4862"/>
    <path d="M156.702 26.5042H157.069C157.16 26.5042 157.24 26.5764 157.24 26.6726V28.6327C157.24 28.7228 157.313 28.795 157.405 28.795H159.379C159.471 28.795 159.55 28.8671 159.55 28.9573V29.4143C159.55 29.5045 159.477 29.5826 159.379 29.5826H157.405C157.313 29.5826 157.24 29.6548 157.24 29.745V35.3667C157.24 36.4309 157.649 36.8879 158.487 36.8879C158.933 36.8879 159.294 36.7616 159.685 36.4971C159.758 36.4429 159.868 36.467 159.917 36.5391L159.972 36.6173C160.009 36.6714 160.009 36.7436 159.972 36.7977C159.404 37.6274 158.529 38.2106 157.295 38.2106C155.834 38.2106 154.77 37.4591 154.77 35.499V29.7329C154.77 29.6428 154.697 29.5706 154.605 29.5706H153.841C153.749 29.5706 153.67 29.4985 153.67 29.4023V29.1317C153.67 29.0656 153.707 29.0114 153.768 28.9814C154.092 28.8311 154.397 28.6507 154.697 28.4463C154.746 28.4162 154.77 28.3621 154.77 28.302V27.346C154.77 27.2798 154.813 27.2137 154.88 27.1896L156.702 26.4862"/>
    <path d="M37.8796 26.0773C37.8063 25.3919 37.7635 24.7005 37.7635 24.003C37.7635 23.3056 37.8063 22.6081 37.8796 21.9287C41.4922 20.3774 44.8419 18.2189 47.7943 15.5013L46.6695 14.401C44.1145 16.7459 41.2538 18.6518 38.173 20.0888C38.9004 16.6557 40.5997 13.4931 43.112 10.9077L43.057 10.8536L41.9629 9.77133C39.2366 12.3026 36.0948 14.1605 32.7512 15.3269C33.9309 12.0381 35.8197 8.9416 38.387 6.254L37.2928 5.17775L37.2439 5.12965C34.5544 7.67296 31.2964 9.30235 27.8734 10.0058C29.3098 6.99354 31.2414 4.15562 33.662 1.60631L32.5373 0.5C29.7316 3.45216 27.5555 6.77108 26.0029 10.3004C24.597 10.4507 23.185 10.4507 21.7791 10.3004C20.2265 6.77108 18.0504 3.45216 15.2448 0.5L14.1201 1.60631C16.5406 4.15562 18.4661 6.99354 19.9087 10.0058C16.4856 9.30235 13.2276 7.67296 10.5381 5.12965L9.39503 6.254C11.9684 8.9416 13.8511 12.0381 15.0369 15.3269C11.6934 14.1605 8.5515 12.3026 5.82529 9.77133L4.67612 10.9017C7.1945 13.4871 8.88769 16.6497 9.6212 20.0828C6.54046 18.6518 3.67977 16.7399 1.12471 14.395L0 15.5013C2.95238 18.2189 6.30207 20.3774 9.9146 21.9287C9.98795 22.6141 10.0307 23.3056 10.0307 24.003C10.0307 24.7005 9.98795 25.3979 9.9146 26.0773C6.30818 27.6286 2.95849 29.7871 0.00611258 32.5047L1.12471 33.611C3.67977 31.2662 6.54046 29.3542 9.6212 27.9232C8.8938 31.3563 7.19451 34.5189 4.68224 37.1043L5.8314 38.2347C8.55761 35.7034 11.6995 33.8455 15.0431 32.6791C13.8633 35.968 11.9745 39.0644 9.40115 41.752L10.5442 42.8764C13.2337 40.3331 16.4917 38.7037 19.9148 38.0002C18.4783 41.0125 16.5468 43.8504 14.1323 46.3997L15.257 47.5C18.0627 44.5478 20.2387 41.2289 21.7913 37.7056C23.1972 37.5553 24.6092 37.5553 26.0151 37.7056C27.5677 41.2289 29.7438 44.5539 32.5434 47.5L33.6681 46.3937C31.2536 43.8444 29.322 41.0065 27.8856 37.9942C31.3086 38.6976 34.5605 40.327 37.2501 42.8703L38.3931 41.746C35.8197 39.0584 33.937 35.9619 32.7573 32.6731C36.1009 33.8395 39.2428 35.6974 41.969 38.2287L43.1181 37.0983C40.5997 34.5129 38.9066 31.3503 38.173 27.9172C41.2538 29.3482 44.1145 31.2601 46.6695 33.605L47.7943 32.4987C44.8419 29.7811 41.4983 27.6226 37.8796 26.0773ZM38.6743 14.2386C37.5435 16.2889 36.7794 18.5075 36.4187 20.8344C34.7622 21.4898 33.0507 22.0129 31.2964 22.4037C31.4064 20.636 31.6998 18.8803 32.1766 17.1607C34.4322 16.4753 36.6205 15.5013 38.6743 14.2386ZM36.2231 25.416C34.6278 24.8267 32.9835 24.3517 31.3086 23.997C32.9835 23.6423 34.6278 23.1673 36.2231 22.578C36.1926 23.047 36.1681 23.522 36.1681 23.997C36.1681 24.472 36.1926 24.947 36.2231 25.416ZM27.1154 11.7254C29.4504 11.3707 31.7304 10.6251 33.8515 9.49475C32.5739 11.521 31.5837 13.6675 30.8869 15.8921C29.1325 16.3671 27.3354 16.6557 25.5261 16.7639C25.9173 15.0503 26.4369 13.3668 27.1093 11.7254M29.6766 22.7103C28.0567 22.9869 26.4002 23.1492 24.7254 23.1853C24.7621 21.5679 24.9271 19.9506 25.2083 18.3512C26.9565 18.2731 28.6924 18.0265 30.404 17.6297C30.0005 19.3012 29.756 21.0028 29.6766 22.7103ZM30.404 30.3583C28.6924 29.9614 26.9565 29.7149 25.2083 29.6368C24.9271 28.0374 24.7682 26.42 24.7254 24.8027C26.4002 24.8448 28.0506 25.0011 29.6766 25.2837C29.756 26.9912 30.0005 28.6928 30.404 30.3643M23.8941 11.9779C24.377 11.9779 24.8599 11.9539 25.3366 11.9238C24.7315 13.5232 24.2486 15.1586 23.8941 16.812C23.5395 15.1586 23.0566 13.5232 22.4515 11.9238C22.9344 11.9599 23.4173 11.9779 23.8941 11.9779ZM18.1116 22.7163C18.0321 21.0088 17.7876 19.3072 17.3842 17.6357C19.0957 18.0326 20.8317 18.2791 22.5799 18.3572C22.861 19.9566 23.02 21.5739 23.0628 23.1913C21.3879 23.1492 19.7375 22.9929 18.1116 22.7163ZM23.0628 24.8087C23.02 26.4261 22.861 28.0434 22.5799 29.6428C20.8317 29.7209 19.0957 29.9674 17.3842 30.3643C17.7876 28.6928 18.0321 26.9912 18.1116 25.2837C19.7375 25.0071 21.3879 24.8448 23.0628 24.8027M13.9428 9.49475C16.0639 10.6251 18.35 11.3707 20.6789 11.7254C21.3512 13.3668 21.8708 15.0564 22.262 16.7639C20.4527 16.6557 18.6617 16.3611 16.9013 15.8921C16.2106 13.6675 15.2203 11.515 13.9428 9.49475ZM9.11997 14.2386C11.1738 15.4953 13.356 16.4693 15.6176 17.1547C16.0944 18.8743 16.3878 20.63 16.4978 22.3977C14.7435 22.0129 13.032 21.4898 11.3755 20.8284C11.0149 18.5075 10.2508 16.2829 9.11997 14.2326M11.5711 22.578C13.1665 23.1673 14.8108 23.6423 16.4856 23.997C14.8108 24.3517 13.1665 24.8267 11.5711 25.416C11.6017 24.947 11.6261 24.472 11.6261 23.997C11.6261 23.522 11.6017 23.047 11.5711 22.578ZM9.11997 33.7614C10.2508 31.7111 11.0149 29.4864 11.3755 27.1656C13.032 26.5102 14.7435 25.9871 16.4978 25.5963C16.3878 27.364 16.0944 29.1197 15.6176 30.8393C13.3621 31.5247 11.1799 32.4987 9.11997 33.7614ZM20.6789 36.2686C18.35 36.6233 16.0639 37.3689 13.9428 38.4992C15.2203 36.479 16.2106 34.3265 16.9013 32.1019C18.6556 31.6269 20.4527 31.3383 22.262 31.2301C21.8708 32.9436 21.3512 34.6272 20.6789 36.2686ZM23.9002 36.0221C23.4173 36.0221 22.9344 36.0461 22.4515 36.0762C23.0566 34.4768 23.5395 32.8414 23.8941 31.188C24.2486 32.8414 24.7315 34.4768 25.3366 36.0762C24.8537 36.0461 24.3709 36.0221 23.8941 36.0221M33.8453 38.4992C31.7243 37.3689 29.4382 36.6233 27.1093 36.2686C26.443 34.6272 25.9173 32.9376 25.5261 31.2301C27.3354 31.3383 29.1264 31.6329 30.8869 32.1019C31.5776 34.3265 32.5678 36.473 33.8515 38.4992M38.6743 33.7553C36.6205 32.4987 34.4383 31.5187 32.1766 30.8393C31.6998 29.1197 31.4064 27.364 31.2964 25.5963C33.0507 25.9871 34.7622 26.5042 36.4187 27.1656C36.7794 29.4864 37.5435 31.7111 38.6743 33.7614"/>
  </g>
</svg>