<svg xmlns="http://www.w3.org/2000/svg" viewBox="11.061 9.168 52 62"><g fill="#FFF"><path d="M36.946 9.756c.318.163.633.451.957.466.66.031 1.265.142 1.114.918-.069.349-.626.604-1.145 1.064.037.035.282.455.55.469.896.045 1.851.926 2.896-.154-.376-.109-.699-.104-.784-.246-.199-.323-.283-.719-.413-1.083.778-.236 1.555-.636 2.335-.647.441-.007.935.578 1.321.977.148.154.196.677.08.771-.314.256-.743.369-1.32.631.154.162.358.571.595.591.953.083 1.96.942 2.992-.164-.297-.073-.553-.06-.651-.179-.224-.265-.511-.605-.493-.898.01-.191.516-.51.791-.501.729.025 1.459.199 2.26.325-.607.941-1.225 1.896-1.842 2.854 1.313.725 1.563 1.578.659 2.745-.7.903-.888 1.816-.791 2.899.147 1.697-.271 3.295-.987 4.828-.626 1.34-1.282 2.671-1.83 4.043-.471 1.18-.807 2.412-1.24 3.73l-.591-.072c0 .871-.026 1.685.007 2.498.083 2.092.195 4.187.289 6.281.034.75.311 1.121 1.111 1.437 1.357.535 2.596 1.382 3.855 2.153 2.057 1.26 4.03 2.678 6.16 3.798.845.444 2.062.507 3.029.323 2.183-.414 3.037-2.556 1.832-4.43-.575-.901-1.336-1.703-2.103-2.462-1.407-1.405-2.938-2.688-4.312-4.121-2.795-2.913-2.76-5.66.1-8.526 1.991-1.997 4.085-3.887 6.098-5.863 1.722-1.686 3.059-3.592 2.952-6.153-.114-2.793-3.117-4.51-5.486-3.114-.493.289-.889.829-1.181 1.34-.354.627-.321 1.238.512 1.568 1.369.549 1.835 1.632 1.731 3.038-.102 1.353-.224 2.7-1.104 4.211-.238-1.474.162-2.835-1.093-3.788.974 2.91-.876 4.146-2.819 5.443-1.067.712-1.934 1.725-2.896 2.599-.147.134-.314.246-.67.518.702-3.372 3.483-5.554 3.819-8.883l-1.869 1.604-.315-.235c.685-1.144 1.383-2.28 2.049-3.437.244-.427.535-.879.606-1.35.469-3.117 2.34-4.729 5.377-4.564 2.769.151 4.947 2.459 5.007 5.293.037 1.805-.57 3.423-1.577 4.871-1.111 1.601-2.341 3.121-3.507 4.687-.358.481-.675.997-1.113 1.649h5.424c-.317.247-.565.494-.858.655-1.678.923-3.371 1.815-5.046 2.741-.29.161-.518.434-.823.696h6.251c-.186.175-.396.462-.682.624-1.348.77-2.722 1.496-4.076 2.258-.312.174-.588.413-.878.623.037.082.071.164.108.248h5.21l.158.164a4102.8 4102.8 0 00-4.306 2.533c.816 1.218 1.605 2.4 2.398 3.586.698 1.045 1.16 2.18 1.015 3.457-.347 3.119-3.078 4.946-6.339 4.188-3.494-.816-6.362-2.861-9.223-4.894-.614-.438-1.137-1.018-1.771-1.426-.311-.202-.777-.165-1.087-.22 1.668 1.798 3.255 3.566 4.909 5.266a23.835 23.835 0 002.753 2.414c.525.396 1.203.621 1.843.825 1.151.364 2.411 1.925 2.517 3.126.036.412.178.842.378 1.205 1.584 2.874 3.197 5.732 4.793 8.6.03.054-.005.141-.024.434-.619-.113-1.218-.268-1.826-.324a10.783 10.783 0 00-1.806-.004c-1.122.08-1.729.62-1.725 1.844.001.348-.458 1.002-.699.999-1.033-.011-1.406.563-1.575 1.444-.105.004-.212.007-.316.009-.063-.609-.256-1.241-.161-1.825.102-.621.472-1.199.527-1.959-.311.298-.622.599-.937.893-.56.521-1.091.775-1.938.416-.436-.184-1.125.236-1.777.404.419-2.094 1.847-2.974 4.023-2.974l-.063-.308c-.227-.09-.472-.147-.672-.275-.38-.243-.729-.535-1.101-.793-.42-.293-.848-.572-1.262-.849.521-.614 2.151-.886 3.134-.366.599.316 1.202.697 1.67 1.18.558.575 1.062.658 1.88.119-.836-1.132-1.639-2.273-2.499-3.367-.446-.566-1.093-.985-1.472-1.584-1.638-2.572-4.208-2.58-6.799-2.6a92.626 92.626 0 01-4.219-.117c-.333-.018-.674-.234-.973-.42-.275-.167-.492-.424-.745-.63-2.035-1.646-3.025-3.511-1.839-6.208.672-1.532.913-3.26 1.299-4.91.311-1.338.135-1.807-.595-2.225-.582 2.362-.951 4.834-1.819 7.117-.979 2.576-.539 4.556 1.674 6.197-.424.443-.729.737-1.006 1.055-.826.953-1.397 1.984-1.255 3.332.125 1.184-.792 2.183-1.959 2.416-.539.107-1.101.32-1.546.631a168.884 168.884 0 00-4.992 3.646c-.829.624-1.607 1.315-2.391 1.962-.014-.062-.113-.416-.172-.775-.118-.719-.626-.878-1.248-.961-.701-.094-.812.347-.965.875-.396 1.355-1.734 2.238-3.235 2.111.671-.561 1.252-1.087.587-1.996-.114-.156.193-.705.407-.997.213-.292.554-.491 1.071-.929-.57 0-.837-.035-1.088.006-.896.158-1.655.18-2.221-.807-.161-.279-1.039-.147-1.588-.205.053-.624.922-1.402 2.203-1.402.909 0 1.82.424 3.023.733-.388-.518-.545-.794-.766-1.007-.578-.551-.864-1.037-.305-1.86.205-.302-.181-1.007-.357-1.797.579.341 1.296.528 1.591.989.511.79.768 1.746 1.114 2.64.156.401.243 1.157.416 1.173.592.057 1.373.055 1.781-.285 1.128-.949 2.108-2.074 3.141-3.135.694-.717 1.379-1.446 2.134-2.238-1.163-1.314-.565-3.033-.624-4.65-.028-.857.155-1.725.22-2.59.115-1.582.807-2.771 2.168-3.655 1.452-.942 2.829-2.006 4.202-3.063.211-.16.393-.637.307-.861-.5-1.334-1.014-2.671-1.665-3.932-.277-.539-.322-.857.031-1.34 1.03-1.395 1.999-2.836 3.024-4.236.381-.521.435-.887-.371-1.195-3.186 4.486-6.392 9.003-9.744 13.727-.227-.736-.309-1.232-.534-1.654-.157-.301-.476-.633-.777-.7-.217-.048-.584.269-.784.508-.524.624-.436 1.722-1.529 1.938-.096.02-.125.527-.131.807-.015 1.041-.005 2.083-.005 3.17h-1.405v-4.195l-1.099 1.302c-.195-1.128.188-1.985.735-2.777.639-.929.574-1.61-.279-2.267-.109-.086-.236-.202-.271-.326-.284-1.062-1.044-1.346-2.219-1.162.885-1.146 2.02-1.006 3.1-1.154v-12.76c-.673-.097-1.298-.309-1.89-.234-.478.061-.912.465-1.577.834.273-2.234 1.751-3.168 3.67-3.727a29.705 29.705 0 01-.145-.312c-.28-.06-.576-.087-.84-.189-.317-.124-.807-.254-.88-.486-.303-.994-.963-1.439-1.98-1.57 1.103-.885 2.33-.621 3.619-.447v-3.832c-.939-.229-1.71.049-2.4.64-1.344 1.149-2.683 2.302-3.961 3.401-1.324-1.923-2.504-7.371-2.195-11.092 2.681 1.666 4.915 4.283 8.517 3.869.066-.414.114-.73.179-1.134.332-.022.672-.046.762-.053.473.546.797.944 1.146 1.317.403.428.163 2.638-.311 3.038-.169.145-.351.389-.357.591a70.89 70.89 0 00.002 3.689c.005.229.204.453.416.893.393-1.08.285-2.102 1.406-2.521.298-.112.317-.967.529-1.707 1.199 2.084.748 3.765-.766 5.217.097.181.121.291.163.299 1.948.325 3.099 2.104 4.899 2.719.104.037.159.518.08.734-.324.914-.706 1.807-1.096 2.771-1.75-.919-2.637-2.999-4.642-3.233-.158-.45-.309-.871-.458-1.293l-.368.088c-.028.303-.083.607-.083.91-.007 4.414.01 8.826-.02 13.238-.003.785.264 1.285 1.197 1.706-.154-.513-.224-.841-.349-1.145-.264-.63-.315-1.135.135-1.798.277-.405.003-1.187-.023-1.783 1.049.314 1.862 1.74 1.81 3.256-.018.506-.095 1.01-.082 1.514.003.211.17.417.264.625.196-.111.484-.176.568-.343 1.366-2.7 2.707-5.411 4.141-8.296l-2.147-.186c1.017-2.572 1.812-5.172 3.041-7.545 1.471-2.838 4.291-3.817 7.275-4.299.878-.141 1.361-.566 1.379-1.557-1.162-.159-2.335-.323-3.617-.5.581-.752.418-1.354-.074-2.051-.801-1.125-.778-1.713.264-2.613 1.165-1.006 1.533-2.061.931-3.487-.236-.556-.333-1.172-.493-1.76.219-.005.437-.005.652-.005zm8.387 5.288c-2.479-.428-4.734-.922-7.018-1.137-.556-.052-1.402.697-1.744 1.291-.386.671.424.443.785.598 1.67.715 1.789.705 2.628-.902 1.114.258 2.294.443 3.41.82.789.265 1.287.08 1.939-.67zm-9.061 10.008c-3.155.125-4.977 1.793-5.348 4.635.703.299.97-.159 1.188-.688.624-1.505 1.365-2.849 3.263-3.01.272-.021.507-.511.897-.937zm.106-7.281c.403.488.598.961.874 1.016.971.187 1.971.23 2.979.33-.095-1.188-.75-1.427-3.853-1.346zm9.529-.215l.357.004c.046-.486.092-.975.135-1.462l-1.358.179c.396.581.63.931.866 1.279z"/><path d="M31.094 16.598c1.019 1.079 2.683.417 3.766 1.616-2.198.463-3.978-.248-3.766-1.616z"/></g></svg>