<svg width="330" height="83" viewBox="0 0 330 83" fill="none" xmlns="http://www.w3.org/2000/svg">
<g clip-path="url(#clip0)">
<path d="M0 53.8378C0 71.7158 15.6622 79.7371 24.9637 82.932L25.1005 83L25.2373 82.932C29.8197 81.3006 36.4539 78.2416 41.6518 73.2113C47.2601 67.7731 50.1326 61.3153 50.1326 53.8378V8.56511V8.36118L49.9275 8.2932C41.7886 2.78706 33.3762 0 25.0321 0C16.6881 0 8.34404 2.78706 0.136788 8.2932L0 8.36118V8.56511V53.8378ZM0.478756 8.83702C8.61762 3.39885 16.8249 0.679771 25.0321 0.679771C33.2394 0.679771 41.515 3.39885 49.5855 8.83702L49.4487 8.56511V53.8378C49.4487 61.1114 46.6446 67.4333 41.1731 72.7355C36.0435 77.6978 29.4777 80.6888 24.9637 82.3202H25.1689C16.0041 79.2613 0.683938 71.3759 0.683938 53.9058V8.56511L0.478756 8.83702Z" fill="#00066D"/>
<path d="M14.6363 19.1014C11.7638 20.1891 9.84873 21.4806 9.43836 21.8885C8.54924 22.7042 8.89121 23.5199 8.89121 23.5199H8.95961C8.95961 23.5199 8.89121 22.9082 9.71194 22.1604C10.0539 21.8205 11.9005 20.5969 14.8415 19.4413L14.6363 19.1014Z" fill="#00066D"/>
<path d="M25.7845 17.0621C25.7845 17.0621 25.4425 17.0621 25.1689 17.0621C24.8954 17.0621 24.485 17.0621 24.485 17.0621C21.9544 17.1981 18.5347 17.8099 15.5254 18.8295L15.6622 19.1694C18.6031 18.1498 22.0228 17.606 24.5534 17.47C24.5534 17.47 24.827 17.47 25.1689 17.47C25.4425 17.47 25.7845 17.47 25.7845 17.47C28.3151 17.606 31.6664 18.2177 34.6757 19.1694L34.8125 18.8295C31.7347 17.8099 28.3151 17.1981 25.7845 17.0621Z" fill="#00066D"/>
<path d="M35.6332 19.1014C38.5057 20.1891 40.4208 21.4806 40.8311 21.8885C41.7202 22.7042 41.3783 23.5199 41.3783 23.5199H41.3099C41.3099 23.5199 41.3783 22.9082 40.5575 22.1604C40.2156 21.8205 38.3689 20.5969 35.428 19.4413L35.6332 19.1014Z" fill="#00066D"/>
<path d="M44.114 20.2571C42.6777 18.3537 39.5316 17.6739 36.4539 17.47C36.3171 14.3431 30.6404 14.1391 26.3316 14.9548C25.9213 14.3431 24.4166 14.411 24.0062 14.9548C19.629 14.1391 14.0208 14.3431 13.884 17.47C10.7378 17.6739 7.59174 18.3537 6.15547 20.2571C4.78759 22.1604 7.52334 24.1317 7.52334 24.1317L8.13889 23.5879C8.13889 23.5879 3.5565 19.8492 13.884 18.0138C14.3627 19.3734 15.3202 20.0531 15.3202 20.0531L15.8674 19.7132C15.8674 19.7132 12.7213 13.8672 23.9378 15.7026L24.6218 18.0818C24.6218 18.0818 24.6218 17.9458 24.827 17.9458C24.827 17.9458 24.5534 15.7026 24.6218 15.4987C24.7586 15.1588 25.5109 15.1588 25.6477 15.4987C25.7161 15.7026 25.4425 17.9458 25.4425 17.9458C25.7161 17.9458 25.6477 18.0818 25.6477 18.0818L26.3316 15.7026C37.5482 13.8672 34.4021 19.7132 34.4021 19.7132L34.9492 20.0531C34.9492 20.0531 35.9068 19.3734 36.3855 18.0138C46.7814 19.8492 42.1306 23.5879 42.1306 23.5879L42.7461 24.1317C42.7461 24.1317 45.5503 22.1604 44.114 20.2571ZM7.72852 23.52C7.79692 23.5879 7.79692 23.5879 7.86531 23.6559C7.86531 23.6559 7.72852 23.5879 7.59174 23.7239C7.38655 23.5879 7.18137 23.384 6.97619 23.1801C5.7451 21.7526 4.85598 18.6256 13.7472 17.8779C4.17205 19.5093 7.11298 22.9082 7.72852 23.52ZM15.5938 19.6453C15.5938 19.7812 15.3202 19.6453 15.3202 19.7132C14.6363 18.9655 14.2943 18.1498 14.2943 17.402C14.2259 15.5666 16.4145 14.0032 22.2964 15.0228C22.4332 15.0228 22.5016 15.0228 22.6384 15.0908C22.57 15.0908 22.57 15.0908 22.5016 15.0908C22.8435 15.1588 23.2539 15.2268 23.6643 15.2947C13.1316 14.1391 15.1834 18.6256 15.5938 19.6453ZM35.0176 19.7812C35.0176 19.7812 35.0176 19.7132 35.0176 19.7812C34.9492 19.7132 34.9492 19.7812 34.9492 19.7812C35.0176 19.5773 34.6757 19.8492 34.6757 19.6453V19.5773V19.5093C35.1544 18.4897 37.2062 14.0711 26.6736 15.2947C27.0156 15.2268 27.3575 15.1588 27.6995 15.0908H27.7679C32.6239 14.1391 35.086 15.0908 35.77 16.5183C35.9752 16.8582 36.0435 17.2661 35.9752 17.6739C35.9068 18.4217 35.5648 19.1694 35.0176 19.7812ZM42.8145 23.7239C42.8145 23.7239 42.8145 23.6559 42.8145 23.7239C42.7461 23.7239 42.7461 23.7239 42.7461 23.7239C42.6777 23.6559 42.6094 23.6559 42.6094 23.6559H42.541C42.4726 23.6559 42.4726 23.6559 42.4042 23.6559C42.4042 23.6559 42.4726 23.5879 42.541 23.52C42.6094 23.52 42.541 23.52 42.541 23.52C42.8145 23.248 43.3617 22.6363 43.4985 21.8885C43.7037 20.5969 42.6093 18.8975 36.6591 17.8099C47.1917 18.6936 44.0456 22.9082 42.8145 23.7239Z" fill="#00066D"/>
<path d="M43.8218 24.5005C43.8218 24.5005 43.4798 24.1606 42.8642 23.8887C39.7181 22.4612 40.4705 25.6561 40.4705 25.928C40.1969 25.1123 38.2819 23.8887 37.8031 26.132C37.3244 28.5112 39.2394 27.8994 39.5813 27.8994C39.1026 28.5791 38.1451 28.5791 36.0249 27.6954C33.6311 26.7438 33.2207 26.064 33.7679 24.9084C33.9731 26.3359 35.7513 26.6758 36.2984 25.2483C37.5979 22.0533 34.8622 22.937 34.5202 23.073C34.9306 22.3252 35.6829 21.9854 35.6829 21.1017C35.7513 19.7421 33.7679 19.4022 33.1523 19.8781C32.1264 20.6938 32.742 22.5292 32.742 22.7331C32.4684 22.4612 30.6218 19.946 30.0062 23.3449C29.7326 24.8404 31.3741 25.5202 32.4 24.3646C32.1948 25.5881 31.1689 25.996 28.7067 25.5881C25.0135 25.0443 25.7658 23.2769 25.7658 23.2769C25.8342 23.3449 27.2021 25.5881 28.3648 23.005C29.5959 20.15 26.3813 21.0337 25.9026 21.6455C26.1762 20.3539 27.4073 19.6062 26.7233 18.7904C25.8342 17.7028 24.1244 17.7708 23.372 18.7904C22.6881 19.6741 23.8508 20.3539 24.1927 21.6455C23.714 21.0337 20.4311 20.15 21.7306 23.005C22.8933 25.5881 24.2611 23.3449 24.3295 23.2769C24.3295 23.2769 25.0819 25.0443 21.3886 25.5881C18.9264 25.996 17.9005 25.5881 17.6953 24.3646C18.7212 25.5202 20.3627 24.8404 20.0891 23.3449C19.4736 19.946 17.6269 22.4612 17.3534 22.7331C17.3534 22.5292 18.0373 20.6938 16.943 19.8781C16.2591 19.4022 14.2756 19.7421 14.4124 21.1017C14.4808 21.9854 15.3016 22.3932 15.5751 23.073C15.2332 22.937 12.4974 21.9854 13.7969 25.1803C14.344 26.6078 16.1223 26.2679 16.3275 24.8404C16.8746 26.064 16.4642 26.6758 14.0705 27.6275C11.9503 28.4432 10.9927 28.5112 10.514 27.8314C10.7876 27.7634 12.7026 28.5112 12.2922 26.064C11.8819 23.8207 9.83005 25.0443 9.62487 25.8601C9.62487 25.5881 10.3772 22.3932 7.23109 23.8207C6.61554 24.0927 6.27357 24.4325 6.27357 24.4325L6.13679 24.5685L6 24.7044L11.4715 32.2499C11.4715 32.2499 16.1223 28.3752 24.8767 28.3752C33.6311 28.3752 38.2819 32.2499 38.2819 32.2499L43.7534 24.7044L43.8218 24.5685V24.5005ZM43.001 25.1123C42.3855 25.928 38.487 31.2302 38.4187 31.2982L38.2819 31.5022L38.0767 31.3662C36.2301 30.3465 31.3057 27.8994 24.9451 27.8994C18.6529 27.8994 13.6601 30.2786 11.8135 31.3662L11.6767 31.5022L11.4715 31.2982C11.4031 31.2302 7.50466 25.928 6.88912 25.1123L6.82073 25.0443V24.9084C6.82073 24.8404 6.88912 24.5685 7.23109 24.2966C7.98342 23.8207 8.66736 23.9567 8.87254 24.0247C9.2829 24.2966 9.21451 26.064 9.21451 26.2679C9.55648 25.7921 10.1036 25.1123 10.7192 25.1803C11.1295 25.1803 11.4031 25.4522 11.6083 25.996C11.9503 26.8797 11.6767 27.3556 11.4031 27.5595C10.9927 27.8314 10.3772 27.7634 9.89845 27.5595C9.96684 27.7634 10.1036 28.1033 10.3088 28.2393C10.9244 28.7151 12.1554 28.5791 13.5917 28.1033C15.3016 27.5595 16.3959 26.7438 16.5326 25.8601C16.6694 25.3162 16.4642 24.7724 16.1223 24.4325C15.9171 24.9084 15.5067 25.7241 14.9596 25.7921C14.6176 25.7921 14.2756 25.5881 14.0021 25.0443C13.5917 24.2966 13.5233 23.7528 13.8653 23.4129C14.2756 22.937 15.7119 23.209 15.8487 23.2769C16.0539 23.3449 15.7803 23.005 15.6435 22.937C15.1648 22.3932 14.7544 21.9854 14.7544 21.5095C14.7544 21.0337 14.9596 20.6938 15.3016 20.4899C15.7803 20.218 16.4642 20.2859 16.7378 20.5578C17.0114 20.8298 17.0798 21.3736 16.8746 22.6651C16.8746 22.8011 16.6694 23.4129 16.943 23.073C17.2166 22.8011 18.3109 21.7814 18.9264 22.0533C19.3368 22.1893 19.542 22.6651 19.542 23.4129C19.542 23.9567 19.4052 24.2966 19.0632 24.5005C18.5845 24.7724 17.6953 24.2966 17.285 24.0247C17.2166 24.3646 17.285 24.8404 17.5585 25.1803C18.0373 25.7921 19.2684 26.132 20.9098 25.996C22.6197 25.7921 23.5772 25.2483 24.056 24.5685C24.3295 24.1606 24.6031 23.3449 24.3979 22.6651C24.1244 23.005 23.2352 23.7528 22.8249 23.7528C22.4145 23.7528 22.1409 23.4129 21.8674 22.8691C21.6622 22.3252 21.6622 21.7135 21.9358 21.4415C22.3461 21.0337 23.6456 21.6455 24.3295 21.9174C24.2611 21.6455 24.1927 21.3736 24.056 21.0337C23.9876 20.7618 23.8508 20.4899 23.7824 20.3539C23.6456 20.082 23.3036 19.6741 23.5088 19.2663C23.7824 18.7904 24.2611 18.5185 24.8083 18.5185C25.4238 18.5185 25.9026 18.7904 26.1078 19.2663C26.313 19.6741 26.0394 20.014 25.8342 20.3539C25.7658 20.5578 25.629 20.6938 25.5606 21.0337C25.4238 21.3736 25.3554 21.6455 25.287 21.9174C25.9026 21.6455 27.2021 21.0337 27.6808 21.4415C27.9544 21.7135 27.9544 22.2573 27.7492 22.8691C27.4756 23.4809 27.2021 23.7528 26.7917 23.7528C26.3813 23.7528 25.4238 23.005 25.2187 22.6651C25.0819 23.6848 25.4238 24.2966 25.5606 24.5685C26.0394 25.2483 26.9969 25.8601 28.7067 25.996C30.3482 26.132 31.5793 25.7921 32.058 25.1803C32.3316 24.8404 32.4 24.1606 32.4 23.8207C31.9896 24.0927 31.1005 24.7044 30.5534 24.4325C30.2114 24.2966 30.0746 23.8887 30.0746 23.3449C30.0746 22.5292 30.2798 22.1213 30.6902 21.9854C31.3057 21.7135 32.6052 23.073 32.6736 22.8691C32.742 22.7331 32.6736 22.5292 32.6736 22.3932C32.6052 21.5775 32.5368 20.6258 32.9471 20.4219C33.2891 20.15 33.9047 20.15 34.315 20.3539C34.657 20.5578 34.8622 20.8977 34.8622 21.3736C34.8622 21.8494 34.657 22.1213 34.1782 22.7331C34.1098 22.8691 33.5627 23.2769 33.8363 23.2089C34.1098 23.141 35.4093 22.937 35.7513 23.4129C36.0249 23.7528 36.0249 24.2966 35.6145 25.0443C35.3409 25.5881 34.999 25.7921 34.657 25.7921C34.1098 25.7241 33.7679 24.8404 33.4943 24.4325C33.2891 24.7044 32.8788 25.3842 33.0155 25.928C33.2207 26.7438 34.3834 27.6275 36.0249 28.1713C37.4611 28.6471 38.6238 28.7831 39.2394 28.3072C39.513 28.1033 39.6497 27.7634 39.7181 27.5595C39.2394 27.7634 38.6238 27.8314 38.1451 27.6275C37.8715 27.4915 37.5979 27.0836 37.8715 25.996C38.0083 25.4522 38.4187 25.1803 38.7606 25.1803C39.3078 25.1123 39.8549 25.6561 40.1969 26.132C40.1969 25.928 40.2653 25.7921 40.2653 25.5881C40.1969 24.8404 40.4021 24.2286 40.8124 24.0247C41.0176 23.8887 41.4964 23.7528 42.2487 24.2286C42.6591 24.5005 42.6591 24.8404 42.6591 24.8404V24.9764L43.001 25.1123Z" fill="#00066D"/>
<path d="M25.1689 8.29309C23.5275 8.29309 22.1596 9.65263 22.1596 11.2841C22.1596 12.6436 23.0487 13.7313 24.2798 14.1391L24.4166 14.6829C24.5534 14.615 24.6218 14.615 24.7586 14.615C24.7586 14.479 24.7586 14.3431 24.6902 14.2751C24.827 14.2751 24.9637 14.2751 25.0321 14.2751C25.1689 14.2751 25.3057 14.2751 25.3741 14.2751C25.3741 14.411 25.3741 14.547 25.3057 14.615C25.4425 14.615 25.5793 14.6829 25.6477 14.6829L25.7845 14.1391C27.0156 13.7992 27.9047 12.6436 27.9047 11.2841C28.1783 9.65263 26.8104 8.29309 25.1689 8.29309ZM24.9637 8.83691C24.9637 8.83691 25.0321 8.83691 25.1689 8.83691C25.3057 8.83691 25.3741 8.83691 25.3741 8.83691V11.556H24.9637V8.83691ZM22.6384 11.2841C22.6384 9.99252 23.5959 8.97286 24.827 8.83691V11.556H22.6384C22.6384 11.42 22.6384 11.3521 22.6384 11.2841ZM25.1689 13.7313C24.0746 13.7313 23.1855 13.0515 22.8435 12.1678H27.4943C27.1523 13.0515 26.1948 13.7313 25.1689 13.7313ZM27.5627 11.8279C27.4943 11.9639 27.4943 12.0318 27.4943 12.0318H22.7751C22.7751 12.0318 22.7752 11.9639 22.7068 11.8279C22.7068 11.6919 22.6384 11.624 22.6384 11.624H27.5627C27.6311 11.624 27.6311 11.6919 27.5627 11.8279ZM25.5109 11.488V8.83691C26.742 8.97286 27.6995 10.0605 27.6995 11.2841C27.6995 11.3521 27.6995 11.42 27.6995 11.556L25.5109 11.488Z" fill="#00066D"/>
<path d="M25.8529 5.03022V3.26282H24.4166V5.03022H22.4332V6.45774H24.4166V8.56503H24.5534C24.5534 8.56503 24.9637 8.49705 25.1689 8.49705C25.3741 8.49705 25.7161 8.56503 25.7161 8.56503H25.8529V6.45774H27.8363V5.03022H25.8529Z" fill="#00066D"/>
<path d="M14.9098 45.2046L23.1171 45.8844L23.5275 44.7968L23.3907 45.2726L14.9098 44.8648C14.9098 44.8648 14.4311 44.8647 14.4311 44.3209C14.4311 43.7771 14.9098 43.7091 14.9098 43.7091L23.801 43.4372L24.3482 36.8435C24.3482 36.5716 24.6218 36.3676 25.1689 36.3676C25.6477 36.3676 25.9212 36.5716 25.9212 36.8435L26.4684 43.4372L35.428 43.7091C35.428 43.7091 35.9067 43.7091 35.9067 44.3209C35.9067 44.8647 35.428 44.8648 35.428 44.8648L27.0155 45.2726L27.2207 45.9524L35.428 45.2726C35.4964 45.2726 36.4539 45.2046 36.4539 44.3889C36.4539 43.4372 35.7699 43.3693 35.3596 43.3013L27.1523 42.8254C27.0839 42.0097 26.8104 38.7468 26.742 37.3193C26.6736 35.9598 25.8528 35.6879 25.5109 35.6199C25.5109 35.6199 25.4425 35.6199 25.3057 35.6199H25.2373H25.1689C25.1005 35.6199 24.9637 35.6199 24.9637 35.6199C24.6218 35.6879 23.801 35.9598 23.7326 37.3193C23.6643 38.6788 23.3907 41.9417 23.3223 42.8254L15.115 43.3013C14.7047 43.3013 14.0207 43.4372 14.0207 44.3889C13.8839 45.1367 14.7731 45.2046 14.9098 45.2046ZM35.6332 59.2759L36.9326 59.8877C36.9326 59.8877 36.0435 61.5191 32.829 64.2382L33.1026 64.6461C33.1026 64.6461 33.1026 64.6461 33.171 64.6461C35.9067 62.6747 37.4114 59.7517 37.4114 59.7517L36.2487 59.2759L38.6425 58.3922C38.2321 59.6838 37.2062 62.8107 33.7181 65.3258C33.6497 65.3938 33.5813 65.4618 33.4446 65.5298L33.3762 65.2579C33.3078 65.3258 33.171 65.3938 33.1026 65.4618L33.3762 65.6657C30.914 67.2292 27.9047 67.977 25.2373 67.977C22.5016 67.977 19.4238 67.1612 16.9617 65.5298L17.0984 65.2579C17.0301 65.1899 16.8933 65.1219 16.8249 65.0539L16.7565 65.3258C16.6881 65.3258 16.6881 65.2579 16.6197 65.2579C13.1316 62.6747 12.0373 59.6158 11.6269 58.3242L14.0207 59.2079L12.858 59.6158C12.858 59.6158 14.1575 62.4708 16.9617 64.4421L17.1668 64.0343C13.9523 61.3152 13.2684 59.8197 13.2684 59.8197L14.5679 59.2079L11.2166 57.7804C11.2166 57.7804 11.9005 62.4708 16.3461 65.7337C19.0135 67.705 22.0912 68.8607 25.0321 68.8607C28.0415 68.8607 31.1192 67.705 33.7181 65.7337C38.3005 62.5388 38.9845 57.8484 38.9845 57.8484L35.6332 59.2759ZM27.0839 66.5494C27.9731 66.5494 30.5036 66.0736 32.0083 65.2579L32.487 64.986L32.6238 64.918L32.4187 64.5101L31.8031 64.85C30.3668 65.5978 27.9047 65.9376 27.2207 65.9376C26.6052 65.9376 26.4 65.8017 26.4 65.1219V60.2955L25.6477 59.8197V59.8877L25.9212 60.0236V65.5298C25.9896 66.4135 26.6052 66.5494 27.0839 66.5494ZM23.1171 65.9376C22.5016 65.9376 20.0394 65.6657 18.5347 64.85L17.9192 64.5101L17.714 64.918L18.3295 65.2579C19.8342 66.0736 22.2964 66.5494 23.2539 66.5494C23.7326 66.5494 24.3482 66.4815 24.3482 65.5298V60.0236L24.6218 59.8877V59.8197L23.8694 60.2955V65.1219C23.8694 65.7337 23.7326 65.9376 23.1171 65.9376Z" fill="#00066D"/>
<path d="M38.7793 49.6911H28.657L25.3741 40.4463L25.1689 39.7665L24.9638 40.4463L21.5441 49.6911H11.4218L12.0373 50.099L19.9026 55.7411L16.5513 65.6657L25.1005 59.5478L33.513 65.7337L30.2301 55.7411L38.1638 50.099L38.7793 49.6911ZM29.4777 55.4692L29.341 55.4012V55.4692L29.4777 55.5372V55.4692L32.6239 64.3742L31.5979 62.9467L31.8031 63.4905L32.4871 64.4422L25.2373 58.8001V58.5282L25.1689 58.4602L25.0321 58.5282V58.8001L17.5772 64.4422L18.4663 63.2186L18.056 63.4905L18.1244 63.2186L17.372 64.1703L20.5182 55.4012L12.7897 50.099L13.884 50.4389L13.6788 50.3709H14.0207L12.8581 50.031L21.886 50.235L22.0228 50.3709H22.0912L21.9544 50.3029L25.0321 40.9221V42.4856L25.1005 42.2137L25.2373 42.5535V40.8541L28.1783 50.099L27.9731 50.3709H28.1783L28.315 50.235L37.2062 50.031L36.1119 50.3709H36.3855L36.1119 50.5748L37.4114 50.167L29.4777 55.4692Z" fill="#00066D"/>
<path d="M12.5845 50.099L25.1005 54.2456L25.0321 54.1776L32.6922 64.85L32.829 64.714L25.2373 54.0416H25.1689L12.6529 49.963L12.5845 50.099Z" fill="#00066D"/>
<path d="M17.372 64.714L25.2373 54.1776L25.1689 54.2455L37.8902 49.963L37.8218 49.827L25.1005 54.0416H25.0321L17.2353 64.646L17.372 64.714Z" fill="#00066D"/>
<path d="M25.0321 40.7861V54.1096V58.868H25.2367V54.1096V40.7861H25.0321Z" fill="#00066D"/>
<path d="M19.971 55.809L25.1689 54.2456H25.1005L30.1617 55.809L30.2301 55.6051L25.1689 54.0416H25.1005L19.9026 55.6051L19.971 55.809Z" fill="#00066D"/>
<path d="M21.4757 49.6911L25.0322 54.1776L25.1689 54.2456L25.2373 54.1776L28.7254 49.6911L28.5886 49.6232L25.0322 54.0417H25.2373L21.6125 49.6232L21.4757 49.6911Z" fill="#00066D"/>
<path d="M13.9523 66.6855C13.6788 66.6855 13.3368 66.7534 13.0632 66.8214C13.1316 66.8894 13.2 66.9574 13.2684 67.0254C13.4736 66.9574 13.7472 66.8894 13.9523 66.8894C15.3202 66.8894 16.3461 67.977 16.3461 69.2686C16.3461 69.3366 16.3461 69.4046 16.3461 69.4046C16.4145 69.4046 16.4829 69.4725 16.5513 69.5405C16.5513 69.4046 16.5513 69.3366 16.5513 69.2686C16.6197 67.8411 15.3886 66.6855 13.9523 66.6855ZM15.5938 71.9877C15.115 72.2596 14.4995 72.4635 13.9523 72.4635C12.1741 72.4635 10.8062 71.036 10.8062 69.3366C10.8062 69.0647 10.8746 68.7248 10.943 68.4529C10.8746 68.4529 10.8062 68.3849 10.8062 68.3169C10.7378 68.2489 10.6694 68.181 10.6694 68.113C10.5327 68.4529 10.4643 68.9287 10.4643 69.3366C10.4643 71.3079 12.1057 72.8714 14.0207 72.8714C14.7731 72.8714 15.457 72.6675 16.0042 72.2596C16.0042 72.2596 16.0042 72.2596 15.9358 72.2596C15.799 72.1916 15.6622 72.1236 15.5938 71.9877ZM9.50675 45.8845C9.43836 46.0204 9.36996 46.1564 9.30157 46.1564C9.91711 46.7682 10.1907 47.5159 10.1907 48.3996C10.1907 50.0991 8.89121 51.4586 7.18136 51.5266C7.11297 51.7305 7.04457 51.8665 7.04457 52.0024C9.02799 52.0024 10.6011 50.371 10.6011 48.4676C10.6011 47.448 10.1907 46.5643 9.50675 45.8845ZM7.24976 44.9328C7.18136 44.9328 7.11297 44.9328 7.04457 44.9328C5.06116 44.9328 3.4881 46.4963 3.4881 48.4676C3.4881 49.7592 4.17204 50.8468 5.12955 51.4586C5.06116 51.2547 5.06116 51.0507 5.12955 50.9148C4.37722 50.303 3.89846 49.4193 3.89846 48.4676C3.89846 46.7002 5.33473 45.3407 7.04457 45.3407C7.04457 45.2727 7.11297 45.2047 7.11297 45.1367C7.11297 45.0688 7.18136 45.0008 7.24976 44.9328ZM13.9523 65.8018C13.2684 65.8018 12.6529 66.0057 12.1741 66.2776C12.3109 66.4136 12.3793 66.4815 12.4477 66.5495C12.9264 66.2776 13.4052 66.1417 13.9523 66.1417C15.7306 66.1417 17.0985 67.5692 17.0985 69.2686C17.0985 69.5405 17.0985 69.8124 17.0301 70.0163V70.0843C17.0985 70.0843 17.2352 70.1523 17.4404 70.2203C17.5088 69.9484 17.5772 69.6085 17.5772 69.3366C17.5772 67.3652 15.9358 65.8018 13.9523 65.8018ZM22.2964 36.7756C22.0912 36.7756 21.9544 36.7756 21.886 36.7756C22.228 37.5913 22.8435 38.2031 23.6643 38.6109C23.6643 38.475 23.6643 38.2711 23.6643 38.1351C23.0487 37.7952 22.57 37.3194 22.2964 36.7756ZM5.06116 46.7002C4.65079 47.176 4.37722 47.7878 4.37722 48.4676C4.37722 49.0794 4.5824 49.6232 4.99276 50.0991C4.99276 50.0311 4.99276 49.9631 5.06116 49.8951C5.06116 49.8951 5.06116 49.8951 5.06116 49.8272C4.78758 49.4193 4.65079 48.9435 4.65079 48.4676C4.65079 47.38 5.40312 46.4283 6.49742 46.1564C6.56582 46.0204 6.70261 45.8845 6.83939 45.8165C6.15546 45.8845 5.53991 46.2244 5.06116 46.7002ZM36.3171 71.7837C36.0435 71.7837 35.77 71.7158 35.4964 71.6478C35.428 71.7158 35.428 71.7158 35.3596 71.7837C35.6332 71.9197 35.9751 71.9877 36.3171 71.9877C37.7534 71.9877 38.9845 70.8321 38.9845 69.3366C38.9845 69.0647 38.9161 68.8607 38.8477 68.5888C38.7793 68.5888 38.7793 68.5888 38.7793 68.5888C38.7793 68.5888 38.7793 68.7928 38.7109 68.9967C38.7109 69.1326 38.7109 69.2686 38.7109 69.3366C38.7109 70.6961 37.6166 71.7837 36.3171 71.7837ZM42.8829 51.0507C42.9513 51.0507 42.9513 51.0507 42.8829 51.0507C42.9513 50.9828 42.8829 50.9148 42.8145 50.8468C41.6518 50.6429 40.8311 49.6912 40.8311 48.4676C40.8311 47.9238 41.0363 47.448 41.3099 47.1081C41.2415 47.0401 41.2415 46.9721 41.1731 46.8362C40.8311 47.312 40.6259 47.8558 40.6259 48.3996C40.5575 49.7592 41.5834 50.9148 42.8829 51.0507ZM7.18136 51.0507C8.61763 50.9828 9.71193 49.8272 9.71193 48.3996C9.71193 47.8558 9.50675 47.312 9.23318 46.9041C9.16478 46.9721 9.16478 47.0401 9.09639 47.1081C9.36996 47.5159 9.50675 47.9238 9.50675 48.4676C9.50675 49.7592 8.54924 50.7788 7.24976 50.8468C7.18136 50.9828 7.18136 51.0507 7.18136 51.0507ZM13.9523 71.9197C14.2259 71.9197 14.4995 71.8517 14.7731 71.7837C14.7047 71.7158 14.6363 71.7158 14.6363 71.6478C14.4311 71.7158 14.2259 71.7158 14.0207 71.7158C12.6529 71.7158 11.627 70.6281 11.627 69.3366V69.2686C11.4902 69.1326 11.4902 68.9967 11.4218 68.8607C11.4218 68.9967 11.3534 69.1326 11.3534 69.2686C11.3534 70.7641 12.5161 71.9197 13.9523 71.9197ZM23.0487 36.6396C22.9119 36.6396 22.8435 36.5716 22.7751 36.5716C22.9803 36.9115 23.2539 37.2514 23.6643 37.5233C23.6643 37.4553 23.6643 37.3874 23.6643 37.3194C23.3907 37.1154 23.2539 36.9115 23.0487 36.6396ZM42.8145 51.5946C41.2415 51.3906 40.0104 50.0991 40.0104 48.4676C40.0104 47.5839 40.3523 46.7682 40.9679 46.1564C40.8995 46.0884 40.8311 45.9525 40.7627 45.8165C40.0104 46.4963 39.6 47.38 39.6 48.4676C39.6 50.371 41.1047 51.9344 42.9513 52.0024C42.9513 51.9344 42.8829 51.7985 42.8145 51.5946ZM45.6187 48.4676C45.6187 49.0794 45.4135 49.6232 45.0715 50.0311C45.0715 50.167 45.0715 50.235 45.0715 50.303C45.5503 49.8272 45.8922 49.1474 45.8922 48.3996C45.8922 47.1081 44.9347 46.0204 43.6352 45.8165C43.772 45.8845 43.9088 46.0204 43.9772 46.1564C44.9347 46.4963 45.6187 47.448 45.6187 48.4676ZM39.3264 68.3169C39.4632 68.6568 39.4632 68.9967 39.4632 69.2686C39.4632 71.036 38.027 72.3955 36.3171 72.3955C35.7016 72.3955 35.0176 72.1916 34.5389 71.8517C34.4705 71.9197 34.3337 72.0557 34.1285 72.1236C34.7441 72.5995 35.4964 72.8714 36.3171 72.8714C38.3005 72.8714 39.8736 71.3079 39.8736 69.3366C39.8736 68.8607 39.7368 68.3849 39.6 67.9091C39.5316 68.113 39.4632 68.2489 39.3264 68.3169ZM44.7979 50.6429C44.8663 50.6429 44.8663 50.6429 44.7979 50.6429V50.6429ZM43.2249 44.9328H43.1565C43.2249 45.0008 43.2249 45.0688 43.2933 45.1367C43.2933 45.2047 43.3617 45.2727 43.3617 45.3407C44.1824 45.3407 44.9347 45.6806 45.5503 46.2923C46.1658 46.9041 46.4394 47.6519 46.4394 48.4676C46.4394 49.4873 45.9606 50.4389 45.0715 51.0507C45.0715 51.1867 45.0715 51.3906 44.9347 51.6625C46.0974 51.0507 46.8498 49.8951 46.8498 48.5356C46.7814 46.5643 45.2083 44.9328 43.2249 44.9328ZM27.2207 34.2604C27.3575 34.2604 27.4259 34.2604 27.4943 34.3284C27.084 33.3767 26.1264 32.7649 25.1005 32.7649C24.0062 32.7649 23.0487 33.4447 22.6384 34.3964C22.7067 34.3284 22.8435 34.2604 22.9803 34.2604C23.3907 33.5127 24.2114 33.0368 25.1005 33.0368C26.058 32.9688 26.8104 33.5127 27.2207 34.2604ZM27.4943 36.6396C27.4259 36.6396 27.2891 36.7076 27.1523 36.7076C27.0156 36.9115 26.8104 37.1154 26.6052 37.3194V37.3874C26.6052 37.4553 26.6052 37.5233 26.6052 37.5913C27.0156 37.3194 27.2891 36.9795 27.4943 36.6396ZM28.0415 36.7756C27.7679 37.3194 27.2891 37.7952 26.742 38.1351C26.742 38.2711 26.742 38.407 26.742 38.6109C27.4943 38.2711 28.1099 37.5913 28.4518 36.8435C28.3834 36.8435 28.2466 36.8435 28.1783 36.8435C28.1099 36.7756 28.0415 36.7756 28.0415 36.7756ZM25.1005 31.8132C23.3223 31.8132 21.8176 33.1048 21.5441 34.8042C21.6808 34.6683 21.8176 34.6003 21.9544 34.6003V34.5323C22.2964 33.1728 23.5959 32.1531 25.0321 32.1531C26.4684 32.1531 27.7679 33.1728 28.1099 34.5323C28.2466 34.5323 28.3834 34.6003 28.5886 34.6683C28.315 33.1048 26.8788 31.8132 25.1005 31.8132ZM33.1026 69.3366C33.1026 67.5692 34.5389 66.2096 36.2487 66.2096C36.7275 66.2096 37.2062 66.3456 37.6166 66.4815H37.685C37.7534 66.4136 37.8218 66.2776 37.9586 66.2096C37.4798 65.9377 36.8643 65.8018 36.2487 65.8018C34.2653 65.8018 32.6922 67.3652 32.6922 69.3366C32.6922 69.6765 32.7606 70.0163 32.829 70.3562C32.8974 70.2883 33.0342 70.2203 33.1026 70.1523C33.171 70.1523 33.171 70.0843 33.2394 70.0843V70.0163C33.1026 69.8124 33.1026 69.6085 33.1026 69.3366ZM36.3171 66.9574C36.5223 66.9574 36.6591 66.9574 36.8643 67.0254C36.9327 66.9574 37.001 66.8894 37.1378 66.8214C36.8643 66.7534 36.6591 66.6855 36.3855 66.6855C34.9492 66.6855 33.7181 67.8411 33.7181 69.3366C33.7181 69.5405 33.7182 69.7444 33.7865 70.0163C33.8549 69.9484 33.9233 69.8804 33.9917 69.8124C33.9917 69.6765 33.9233 69.5405 33.9233 69.4046C33.8549 68.045 34.9492 66.9574 36.3171 66.9574Z" fill="#00066D"/>
<path d="M37.8902 41.4659C37.8902 41.4659 37.9586 41.8058 38.3005 42.1457C38.5741 42.4856 39.1212 42.6895 39.1212 42.6895C39.1212 42.6895 39.1896 43.0294 39.3948 43.4373C39.6 43.8451 40.1472 44.049 40.1472 44.049C40.1472 44.049 40.2155 44.5249 40.3523 44.7288C40.4891 45.0007 40.8995 45.2726 40.8995 45.2726C40.8995 45.2726 40.7627 45.4766 40.8311 45.7485C40.9679 46.0884 41.1047 46.2243 41.1047 46.2243C40.8995 47.04 41.5834 47.3119 41.5834 47.3119C42.0622 47.5838 42.8145 47.108 42.8145 47.108C42.8145 47.108 43.4984 47.176 43.9088 46.6322C44.3876 46.0204 43.3617 45.6805 43.3617 45.6805C43.3617 45.6805 43.4984 45.4766 43.2933 45.0687C43.0881 44.6608 42.6093 44.5249 42.6093 44.5249C42.6093 44.5249 42.6093 44.185 42.4725 43.7092C42.3358 43.2333 41.6518 42.8934 41.6518 42.8934C41.6518 42.8934 41.7202 42.6215 41.515 42.2137C41.2415 41.6698 40.5575 41.33 40.5575 41.33C40.5575 41.33 40.4207 41.0581 40.2155 40.6502C39.6684 40.1064 39.0529 40.1064 39.0529 40.1064C39.0529 40.1064 38.9161 39.4946 38.7109 39.2906C38.3689 38.9508 37.685 38.8148 37.685 38.8148C37.685 38.8148 37.6166 38.5429 37.2062 38.135C36.8643 37.7952 36.0435 37.7272 36.0435 37.7272C36.0435 37.7272 35.9751 37.3873 35.5648 37.0474C35.086 36.7075 34.4021 36.7755 34.4021 36.7755C34.4021 36.7755 34.4021 36.5716 33.7865 36.1637C33.171 35.7558 32.6238 35.8918 32.6238 35.8918C32.6238 35.8918 32.4187 35.6199 32.0083 35.416C31.5295 35.144 30.8456 35.28 30.8456 35.28C30.8456 35.28 30.6404 35.0081 30.0249 34.8042C29.4093 34.6002 28.8622 34.8721 28.8622 34.8721C28.315 34.3963 27.8363 34.6682 27.8363 34.6682C27.8363 34.6682 27.7679 34.1924 27.2207 34.2603C26.1264 34.4643 26.4684 35.348 26.4684 35.348C26.4684 35.348 26.2632 35.4839 26.1948 35.9598C26.1264 36.4356 26.4684 36.7075 26.8104 36.7755C27.0839 36.8435 27.6311 36.6395 27.6311 36.6395C27.6311 36.6395 27.8363 36.8435 28.1098 36.8435C28.3834 36.8435 28.7254 36.8435 28.7254 36.8435C28.7254 36.8435 28.9306 37.0474 29.4093 37.1834C29.8881 37.3193 30.4352 37.1834 30.4352 37.1834C30.4352 37.1834 30.4352 37.3873 30.914 37.5912C31.3928 37.7952 31.8715 37.6592 31.8715 37.6592C31.8715 37.6592 32.1451 38.0671 32.6238 38.339C33.0342 38.5429 33.5814 38.4749 33.5814 38.4749C33.5814 38.4749 33.8549 38.8148 34.2653 39.0867C34.6073 39.3586 35.2228 39.4266 35.2228 39.4266C35.2228 39.4266 35.428 39.8345 35.7016 40.1064C35.9751 40.3103 36.6591 40.4463 36.6591 40.4463C36.6591 40.4463 36.9326 40.9221 37.1378 41.126C37.2746 41.194 37.8902 41.4659 37.8902 41.4659ZM42.199 47.244C42.1306 47.3119 41.7886 47.244 41.6518 47.176C41.515 47.108 41.4466 46.9721 41.4466 46.9041C41.4466 46.8361 41.4466 46.8361 41.515 46.7681C41.515 46.7681 41.5834 46.7681 41.6518 46.7681C41.7202 46.8361 41.7886 46.8361 41.9254 46.9041C41.9938 46.9041 42.0622 46.9721 42.1306 46.9721C42.199 47.04 42.2674 47.04 42.2674 47.108C42.2674 47.176 42.2674 47.176 42.199 47.244ZM43.0881 46.1563C43.2249 46.2243 43.4301 46.3603 43.4301 46.5642C43.4301 46.7001 43.3617 46.8361 42.9513 46.9721C42.2674 47.108 41.6518 46.6322 41.4466 46.2923C41.3098 46.0884 41.3098 46.0204 41.3782 45.9524C41.4466 45.8844 41.6518 45.8844 41.857 46.0204C42.2674 46.2243 42.5409 46.2243 42.7461 46.1563C42.8145 46.0884 42.9513 46.0884 43.0881 46.1563ZM42.6093 45.1367C42.6777 45.4766 42.6777 45.6805 42.5409 45.7485C42.4725 45.8164 42.3358 45.8164 42.0622 45.6805H41.9938C41.1731 45.4766 40.8311 45.3406 40.6259 44.5249C40.6259 44.4569 40.6259 44.3209 40.6943 44.3209C40.7627 44.253 40.9679 44.321 41.1731 44.3889C41.3098 44.4569 41.4466 44.4569 41.5834 44.5249C42.2674 44.6608 42.6093 44.9327 42.6093 45.1367ZM41.7886 43.7092C41.9254 44.049 41.9254 44.253 41.857 44.3209C41.7886 44.3889 41.6518 44.3889 41.3782 44.3209H41.2415C40.2839 44.049 39.942 43.9811 39.6 43.1653C39.6 43.0974 39.5316 43.0294 39.6 42.9614C39.6684 42.8934 39.8736 42.9614 40.2155 43.0294C40.3523 43.0974 40.4891 43.0974 40.6259 43.1653C41.3782 43.2333 41.7202 43.4373 41.7886 43.7092ZM40.7627 42.0777C40.8995 42.4176 40.8995 42.5535 40.8311 42.6895C40.7627 42.7575 40.6259 42.7575 40.3523 42.7575H40.2155C39.258 42.6895 38.8477 42.6215 38.5057 41.8738C38.4373 41.8058 38.4373 41.7378 38.5057 41.6698C38.5741 41.5339 38.8477 41.6019 39.1212 41.6698C39.258 41.6698 39.3948 41.7378 39.5316 41.7378C40.2839 41.7378 40.6259 41.8738 40.7627 42.0777ZM39.5316 40.8541C39.6684 41.0581 39.7368 41.194 39.6684 41.262C39.6 41.3979 39.4632 41.3979 39.258 41.3979C38.2321 41.3979 37.685 41.194 37.343 40.7182C37.2746 40.5822 37.2746 40.5142 37.2746 40.4463C37.343 40.3103 37.6166 40.3103 37.9586 40.3103C38.0953 40.3103 38.3005 40.3103 38.4373 40.3103C38.9161 40.3783 39.3264 40.5822 39.5316 40.8541ZM26.742 34.8721C26.742 34.7362 26.8104 34.6682 26.9472 34.6002C27.0839 34.6002 27.1523 34.6002 27.2207 34.6002L27.2891 34.6682C27.2891 34.6682 27.0156 34.8042 26.9472 34.9401C26.8788 35.0081 26.8788 35.0081 26.8788 35.0081C26.742 35.0761 26.742 35.0081 26.742 34.8721ZM27.3575 36.2317C27.3575 36.2997 27.3575 36.3676 27.2891 36.4356C27.1523 36.5036 26.8788 36.5036 26.742 36.3676C26.6052 36.2317 26.5368 36.0957 26.6052 35.8918C26.6052 35.7558 26.742 35.5519 27.0156 35.348C27.5627 35.0081 27.9731 35.0761 27.9731 35.0761C28.0415 35.0761 28.0415 35.144 28.0415 35.212C28.0415 35.28 27.9731 35.348 27.8363 35.4839C27.4943 35.6199 27.2891 36.0957 27.3575 36.2317ZM27.9731 36.3676C27.8363 36.2997 27.7679 36.1637 27.7679 36.0957C27.7679 35.8238 28.1782 35.5519 28.5202 35.416C28.999 35.144 29.3409 35.144 29.6145 35.28C29.6145 35.28 29.6829 35.28 29.6829 35.348C29.8197 35.416 29.9565 35.4839 29.9565 35.6199C29.9565 35.6879 29.8881 35.8238 29.6829 35.8918C29.4093 36.0277 29.1358 36.2317 28.999 36.3676C28.657 36.5036 28.4518 36.6395 27.9731 36.3676ZM29.4093 36.6395C29.3409 36.5716 29.2725 36.5036 29.3409 36.4356C29.4093 36.2317 29.7513 36.0277 30.3668 35.8238C30.7772 35.6879 31.256 35.5519 31.5295 35.7558L31.5979 35.8238C31.7347 35.8918 31.8715 36.0277 31.8715 36.1637C31.8715 36.2317 31.7347 36.2997 31.5979 36.3676C31.3244 36.4356 31.0508 36.5716 30.8456 36.6395C30.2301 36.8435 29.8197 37.0474 29.4093 36.6395ZM30.914 37.1154C30.8456 37.0474 30.8456 36.9794 30.8456 36.9794C30.914 36.7075 31.7347 36.5036 32.0083 36.4356C32.4871 36.2997 32.8974 36.2317 33.1026 36.5036C33.1026 36.5036 33.171 36.5716 33.2394 36.6395C33.3762 36.7755 33.513 36.8435 33.513 36.9794C33.513 37.0474 33.3762 37.1154 33.2394 37.1834C32.9658 37.2513 32.7606 37.3193 32.5554 37.4553C32.0083 37.4553 31.5979 37.6592 30.914 37.1154ZM34.1285 38.0671C33.5814 38.203 33.0342 38.271 32.7606 37.7272C32.6922 37.6592 32.6922 37.5232 32.7606 37.4553C32.8974 37.1834 33.4446 37.1834 34.0601 37.1154H34.1285C34.6757 37.0474 34.9492 37.1834 35.1544 37.3873L35.2228 37.4553C35.3596 37.5912 35.428 37.7272 35.3596 37.7952C35.2912 37.8631 35.2228 37.9311 35.0176 37.9311C34.6757 37.9991 34.4021 37.9991 34.1285 38.0671ZM34.4021 38.6789C34.3337 38.5429 34.3337 38.4749 34.3337 38.4069C34.4705 38.203 34.9492 38.135 35.3596 38.135C35.428 38.135 35.4964 38.135 35.5648 38.135C36.1119 38.0671 36.3855 38.203 36.5907 38.4069L36.6591 38.4749C36.7959 38.6109 36.8643 38.7468 36.7959 38.8148C36.7275 38.8828 36.6591 38.9508 36.4539 38.9508C36.1803 38.9508 35.9067 39.0187 35.7016 39.0187C35.2228 39.1547 34.744 39.2227 34.4021 38.6789ZM35.9067 39.6985C35.8383 39.5626 35.8383 39.4946 35.8383 39.4266C35.9067 39.2227 36.3171 39.2227 36.6591 39.2227C36.7959 39.2227 36.8643 39.2227 36.9326 39.2227C37.4798 39.1547 37.7534 39.2906 37.9586 39.4946L38.0269 39.5626C38.1637 39.6985 38.2321 39.8345 38.1637 39.9024C38.0953 39.9704 38.0269 40.0384 37.8218 40.0384C37.5482 40.0384 37.343 40.1064 37.1378 40.1064C36.6591 40.1743 36.3171 40.2423 35.9067 39.6985ZM35.2912 70.4241C35.2912 70.4241 35.428 70.2202 35.1544 69.8124C34.8808 69.4045 34.5389 69.4045 34.1969 69.5404C33.9233 69.6764 33.5814 70.1522 33.5814 70.1522C33.5814 70.1522 33.3078 70.0843 33.1026 70.2202C32.829 70.3562 32.6238 70.5601 32.6238 70.5601C32.6238 70.5601 32.3503 70.4921 31.8715 70.6961C31.3928 70.9 31.0508 71.3078 31.0508 71.3078C31.0508 71.3078 30.914 71.1719 30.3668 71.2399C29.8197 71.3079 29.5461 71.7157 29.5461 71.7157C29.5461 71.7157 29.0674 71.5118 28.5202 71.6477C28.1099 71.7157 27.6995 72.1236 27.6995 72.1236C27.6995 72.1236 27.2891 71.9876 26.8104 72.0556C26.4 72.0556 25.7845 72.3275 25.7845 72.3275C25.7845 72.3275 25.3741 72.0556 25.0321 72.0556C24.6902 71.9876 24.0746 72.3275 24.0746 72.3275C24.0746 72.3275 23.5275 72.0556 23.2539 72.0556C22.9803 71.9876 22.3648 72.1916 22.3648 72.1916C22.3648 72.1916 22.0912 71.9876 21.6124 71.8517C21.1337 71.7157 20.6549 71.8517 20.6549 71.8517C20.6549 71.8517 20.3814 71.5798 19.971 71.4438C19.5606 71.2399 19.0135 71.3758 19.0135 71.3758C19.0135 71.3758 18.7399 71.0359 18.4663 70.9C18.1928 70.764 17.714 70.764 17.714 70.764C17.714 70.764 17.714 70.4921 17.5088 70.3562C17.1668 70.1522 16.9617 70.0843 16.9617 70.0843C16.6197 69.2685 15.9358 69.4725 15.9358 69.4725C15.3886 69.5404 15.0466 70.3562 15.0466 70.3562C15.0466 70.3562 14.4995 70.6281 14.4311 71.3758C14.4311 72.1236 15.457 71.7837 15.457 71.7837C15.457 71.7837 15.457 71.9876 15.8674 72.1916C16.2093 72.3955 16.6881 72.2595 16.6881 72.2595C16.6881 72.2595 16.8933 72.5314 17.3036 72.8033C17.714 73.0753 18.4663 72.9393 18.4663 72.9393C18.4663 72.9393 18.6031 73.2112 18.9451 73.4151C19.4922 73.687 20.2446 73.5511 20.2446 73.5511C20.2446 73.5511 20.5181 73.755 20.9285 73.891C21.6808 74.1629 22.1596 73.755 22.1596 73.755C22.1596 73.755 22.57 74.1629 22.9119 74.2309C23.3907 74.2988 24.0746 74.0269 24.0746 74.0269C24.0746 74.0269 24.3482 74.2309 24.827 74.2988C25.3057 74.3668 26.058 73.959 26.058 73.959C26.058 73.959 26.3316 74.2309 26.8788 74.2309C27.4943 74.2309 28.0415 73.823 28.0415 73.823C28.0415 73.823 28.1782 73.959 28.8622 73.959C29.6145 73.959 29.9565 73.4831 29.9565 73.4831C29.9565 73.4831 30.2985 73.6191 30.7772 73.5511C31.3244 73.4831 31.8031 72.9393 31.8031 72.9393C31.8031 72.9393 32.1451 73.0753 32.6922 72.8713C33.3078 72.6674 33.5814 72.1236 33.5814 72.1236C34.3337 72.1916 34.5389 71.7157 34.5389 71.7157C34.5389 71.7157 34.8808 72.0556 35.2912 71.7157C36.1803 70.968 35.2912 70.4241 35.2912 70.4241ZM15.5254 70.0843C15.5938 69.9483 15.8674 69.8124 16.0042 69.8124C16.1409 69.8124 16.2777 69.8803 16.2777 69.9483C16.2777 70.0163 16.3461 70.0163 16.2777 70.0843C16.2777 70.0843 16.2093 70.1522 16.1409 70.1522C16.0725 70.1522 15.9358 70.1522 15.8674 70.2202C15.799 70.2202 15.7306 70.2882 15.5938 70.2882C15.5938 70.2202 15.5938 70.1522 15.5254 70.0843C15.5254 70.1522 15.5254 70.1522 15.5254 70.0843ZM15.799 71.2399C15.7306 71.3079 15.5938 71.3758 15.5254 71.4438C15.3886 71.5118 15.115 71.4438 15.0466 71.3078C14.9782 71.2399 14.9099 71.0359 15.1834 70.6961C15.6622 70.1522 16.4145 70.2202 16.8249 70.3562C17.0301 70.4241 17.0985 70.4921 17.0985 70.6281C17.0985 70.764 16.9617 70.832 16.6197 70.9C16.1409 70.9 15.9358 71.1039 15.799 71.2399ZM16.4145 71.9876C16.1409 71.7157 16.0725 71.5798 16.0725 71.4438C16.0725 71.3078 16.2093 71.3078 16.4829 71.1719H16.5513C17.3036 70.9 17.714 70.764 18.3295 71.3758C18.3979 71.4438 18.4663 71.5118 18.3979 71.5798C18.3979 71.7157 18.1928 71.7837 17.9192 71.8517C17.7824 71.9196 17.6456 71.9196 17.5088 71.9876C17.0301 72.1236 16.6197 72.1916 16.4145 71.9876ZM17.9876 72.7354C17.714 72.5314 17.5772 72.3955 17.5772 72.2595C17.5772 72.1236 17.714 72.1236 17.9192 71.9876L18.056 71.9196C18.9451 71.5798 19.3554 71.4438 20.0394 71.9196C20.0394 71.9196 20.1762 71.9876 20.1762 72.1236C20.1762 72.2595 19.9026 72.3275 19.629 72.3955C19.4922 72.4635 19.3554 72.4635 19.2187 72.5314C18.6031 72.8033 18.1928 72.8713 17.9876 72.7354ZM20.9285 73.0753C20.3814 73.4151 19.971 73.4831 19.7658 73.3472C19.4922 73.1432 19.3554 73.0753 19.3554 72.9393C19.3554 72.8033 19.4922 72.7354 19.6974 72.6674L19.7658 72.5994C20.5865 72.1236 20.9285 71.9196 21.6808 72.3275C21.7492 72.3955 21.8176 72.3955 21.8176 72.4635C21.8176 72.5994 21.6124 72.7354 21.3389 72.8713C21.2021 72.9393 21.0653 73.0073 20.9285 73.0753ZM21.5441 73.687C21.3389 73.6191 21.2021 73.4831 21.2021 73.4151C21.2021 73.2792 21.2705 73.1432 21.4757 73.0753C22.2964 72.4635 22.8435 72.2595 23.3907 72.5314C23.5275 72.5994 23.5959 72.6674 23.5959 72.7354C23.5959 72.8713 23.3907 73.0073 23.1171 73.2112C22.9803 73.2792 22.8435 73.4151 22.7751 73.4831C22.2964 73.687 21.8176 73.755 21.5441 73.687ZM24.485 73.5511C24.0746 73.891 23.7326 74.0269 23.4591 73.891C23.4591 73.891 23.3907 73.891 23.3223 73.891C23.1855 73.823 22.9803 73.823 22.9803 73.687C22.9803 73.6191 23.0487 73.4831 23.1855 73.4151C23.3907 73.2792 23.5275 73.1432 23.7327 72.9393C24.143 72.5314 24.485 72.2595 25.0321 72.5314C25.1689 72.5994 25.2373 72.6674 25.2373 72.7354C25.2373 72.9393 24.9637 73.1432 24.6902 73.3472C24.6218 73.4151 24.5534 73.4831 24.485 73.5511ZM26.2632 73.5511C25.8529 73.891 25.5109 74.0269 25.2373 73.891C25.2373 73.891 25.1689 73.891 25.1005 73.891C24.9637 73.823 24.7586 73.823 24.7586 73.687C24.7586 73.6191 24.827 73.4831 24.9637 73.4151C25.1689 73.2112 25.3741 73.0753 25.5109 72.8713C25.9212 72.4635 26.2632 72.1236 26.8104 72.3955C26.9472 72.4635 27.0156 72.5314 27.0156 72.5994C27.0839 72.8713 26.6736 73.1432 26.3316 73.4151C26.4 73.4831 26.3316 73.5511 26.2632 73.5511ZM28.1782 73.4151C27.6995 73.823 27.3575 73.959 27.0839 73.823C27.0839 73.823 27.0156 73.823 26.9472 73.823C26.8104 73.755 26.6052 73.755 26.6052 73.6191C26.6052 73.5511 26.6736 73.4151 26.8104 73.3472C27.0839 73.1432 27.2207 72.9393 27.4259 72.8033C27.8363 72.3955 28.1782 71.9876 28.7938 72.2595C28.9306 72.3275 28.9306 72.3955 28.999 72.4635C29.0674 72.6674 28.657 73.0753 28.1782 73.4151ZM29.2725 73.4831C29.2042 73.4831 29.1358 73.4831 29.1358 73.4831C28.9306 73.4831 28.7938 73.4831 28.7254 73.3472C28.7254 73.2792 28.7254 73.1432 28.8622 73.0753C29.0674 72.8713 29.1358 72.6674 29.2725 72.4635C29.5461 71.9876 29.8197 71.6477 30.6404 71.6477C30.7088 71.6477 30.7772 71.7157 30.7772 71.7157C30.8456 71.9876 30.3668 72.5994 30.1617 72.8713C29.8197 73.2792 29.5461 73.5511 29.2725 73.4831ZM31.8715 72.3955C31.5979 72.7354 31.3244 73.1432 30.9824 73.1432C30.9824 73.1432 30.914 73.1432 30.8456 73.1432C30.7088 73.1432 30.5036 73.1432 30.4352 73.0073C30.3668 72.9393 30.4352 72.8033 30.572 72.6674C30.7772 72.3955 30.914 72.1916 31.0508 71.9876C31.3244 71.5118 31.5295 71.1719 32.1451 71.1719C32.2819 71.1719 32.3503 71.2399 32.3503 71.3078C32.4871 71.4438 32.2819 71.8517 31.8715 72.3955ZM33.6497 71.7157C33.3762 72.1916 33.171 72.4635 32.8974 72.4635C32.8974 72.4635 32.829 72.4635 32.7606 72.4635C32.6238 72.4635 32.4187 72.5314 32.3503 72.3955C32.2819 72.3275 32.3503 72.1916 32.4187 72.0556C32.6238 71.7837 32.6922 71.5118 32.6922 71.2399C32.829 70.832 32.8974 70.5601 33.4446 70.5601C33.5814 70.5601 33.7181 70.6281 33.7865 70.6961C33.9917 70.9 33.8549 71.3758 33.6497 71.7157ZM34.8808 70.764C34.6757 71.3758 34.2653 71.5118 34.2653 71.5118C34.1969 71.5118 34.1285 71.5118 34.1285 71.4438C34.0601 71.3758 34.1285 71.2399 34.1969 71.1039C34.4021 70.764 34.2653 70.2882 34.1285 70.2202C34.0601 70.1522 34.0601 70.0843 34.0601 70.0163C34.1285 69.8803 34.3337 69.7444 34.5389 69.7444C34.744 69.7444 34.8124 69.8803 34.9492 70.0163C34.9492 70.2202 35.0176 70.4241 34.8808 70.764ZM35.2912 71.3758C35.2228 71.4438 35.086 71.5118 35.0176 71.5118C34.9492 71.5118 34.9492 71.5118 34.9492 71.5118C34.9492 71.4438 35.086 71.2399 35.086 71.1039C35.086 71.0359 35.1544 71.0359 35.1544 71.0359C35.2228 71.0359 35.2912 71.1039 35.3596 71.1719C35.428 71.1039 35.428 71.2399 35.2912 71.3758ZM15.115 39.2906C15.115 39.2906 15.7306 39.1547 16.0725 38.9508C16.4145 38.6789 16.7565 38.339 16.7565 38.339C16.7565 38.339 17.3036 38.4069 17.714 38.203C18.1928 37.9991 18.4663 37.5232 18.4663 37.5232C18.4663 37.5232 18.9451 37.6592 19.4238 37.4553C19.9026 37.2513 19.9026 37.0474 19.9026 37.0474C19.9026 37.0474 20.3814 37.2513 20.9285 37.0474C21.4073 36.9114 21.6124 36.7075 21.6124 36.7075C21.6124 36.7075 21.9544 36.7075 22.228 36.7075C22.5016 36.7075 22.7067 36.5036 22.7067 36.5036C22.7067 36.5036 23.2539 36.7075 23.5275 36.6395C23.8694 36.5716 24.2114 36.3676 24.143 35.8238C24.0746 35.348 23.8694 35.212 23.8694 35.212C23.8694 35.212 24.2798 34.3283 23.1171 34.1244C22.57 34.1924 22.5016 34.6682 22.5016 34.6682C22.5016 34.6682 22.0228 34.3963 21.4757 34.8721C21.4757 34.8721 20.9285 34.6002 20.313 34.8042C19.6974 35.0081 19.4922 35.28 19.4922 35.28C19.4922 35.28 18.8083 35.144 18.3295 35.416C17.9192 35.6199 17.714 35.8918 17.714 35.8918C17.714 35.8918 17.1668 35.6879 16.5513 36.1637C15.9358 36.5716 15.9358 36.7755 15.9358 36.7755C15.9358 36.7755 15.2518 36.7075 14.7731 37.0474C14.3627 37.3193 14.2943 37.7272 14.2943 37.7272C14.2943 37.7272 13.4736 37.7952 13.1316 38.135C12.7896 38.4749 12.6529 38.8148 12.6529 38.8148C12.6529 38.8148 11.9005 38.9508 11.627 39.2906C11.4218 39.5626 11.285 40.1064 11.285 40.1064C11.285 40.1064 10.6694 40.1064 10.1907 40.7182C9.91711 41.126 9.84871 41.3979 9.84871 41.3979C9.84871 41.3979 9.09638 41.7378 8.8912 42.2816C8.68602 42.6215 8.75442 42.9614 8.75442 42.9614C8.75442 42.9614 8.07048 43.2333 7.93369 43.7771C7.7969 44.253 7.7969 44.5929 7.7969 44.5929C7.7969 44.5929 7.31815 44.7968 7.11296 45.1367C6.90778 45.5445 7.04457 45.7485 7.04457 45.7485C7.04457 45.7485 6.01866 46.0884 6.49742 46.7001C6.97618 47.3119 7.59172 47.176 7.59172 47.176C7.59172 47.176 8.27566 47.6518 8.82281 47.3799C8.82281 47.3799 9.43835 47.108 9.30157 46.2923C9.30157 46.2923 9.50675 46.1563 9.57514 45.8164C9.64353 45.6125 9.50675 45.3406 9.50675 45.3406C9.50675 45.3406 9.91711 45.0687 10.0539 44.7968C10.1907 44.5249 10.2591 44.117 10.2591 44.117C10.2591 44.117 10.7378 43.8451 11.0114 43.5052C11.2166 43.1653 11.285 42.7575 11.285 42.7575C11.285 42.7575 11.7637 42.5535 12.1057 42.2137C12.3793 41.8738 12.5161 41.5339 12.5161 41.5339C12.5161 41.5339 13.1316 41.33 13.3368 41.126C13.542 40.9221 13.8156 40.4463 13.8156 40.4463C13.8156 40.4463 14.4995 40.3103 14.7731 40.1064C14.9099 39.7665 15.115 39.2906 15.115 39.2906ZM23.0487 34.7362C23.0487 34.7362 23.1171 34.6682 23.0487 34.7362C23.1171 34.6002 23.2539 34.6002 23.3907 34.6682C23.5275 34.6682 23.5959 34.8042 23.5959 34.9401C23.5959 35.0081 23.5959 35.144 23.5275 35.144C23.5275 35.144 23.4591 35.144 23.4591 35.0761C23.3907 34.9401 23.1171 34.8042 23.0487 34.7362ZM22.3648 35.144C22.3648 35.144 22.7751 35.0081 23.3223 35.416C23.6643 35.6199 23.7327 35.8238 23.7327 35.9598C23.7327 36.1637 23.6643 36.2997 23.5959 36.4356C23.4591 36.5716 23.1855 36.5716 23.0487 36.5036C22.9803 36.4356 22.9119 36.3676 22.9803 36.2997C23.0487 36.1637 22.8435 35.6879 22.5016 35.4839C22.3648 35.416 22.2964 35.348 22.2964 35.212C22.2964 35.144 22.3648 35.144 22.3648 35.144ZM20.7233 35.28C20.7917 35.28 20.7917 35.212 20.7917 35.212C21.0653 35.0761 21.4073 35.0761 21.886 35.348C22.228 35.5519 22.57 35.7558 22.6383 36.0277C22.6383 36.1637 22.57 36.2317 22.4332 36.2997C21.9544 36.6395 21.7492 36.4356 21.4073 36.1637C21.2021 36.0277 20.9969 35.8238 20.7233 35.6879C20.5181 35.6199 20.4497 35.5519 20.4497 35.416C20.3814 35.416 20.5865 35.348 20.7233 35.28ZM18.7399 35.8238L18.8083 35.7558C19.0819 35.5519 19.5606 35.6879 19.971 35.8238C20.6549 36.0277 20.9969 36.2317 20.9969 36.4356C20.9969 36.5036 20.9969 36.5716 20.9285 36.6395C20.4497 37.0474 20.1078 36.8435 19.5606 36.6395C19.3554 36.5036 19.0819 36.4356 18.8083 36.3676C18.6031 36.2997 18.5347 36.2317 18.5347 36.1637C18.5347 36.0277 18.6031 35.9598 18.7399 35.8238ZM17.0985 36.5716C17.1668 36.5036 17.1668 36.5036 17.2352 36.4356C17.4404 36.1637 17.8508 36.2997 18.3295 36.3676C18.6031 36.4356 19.4238 36.6395 19.4922 36.9114C19.4922 36.9794 19.4922 36.9794 19.4238 37.0474C18.7399 37.5912 18.3979 37.4553 17.8508 37.2513C17.6456 37.1834 17.4404 37.0474 17.1668 36.9794C16.9617 36.9115 16.8933 36.9114 16.8933 36.7755C16.8249 36.7755 16.9617 36.6395 17.0985 36.5716ZM15.1834 37.4553L15.2518 37.3873C15.457 37.1154 15.7306 37.0474 16.2777 37.1154H16.4145C16.9617 37.1834 17.5772 37.2513 17.714 37.4553C17.7824 37.5232 17.714 37.6592 17.714 37.7272C17.372 38.271 16.8933 38.135 16.3461 38.0671C16.0725 37.9991 15.799 37.9991 15.5254 37.9311C15.3202 37.9311 15.2518 37.8631 15.1834 37.7952C14.9782 37.7272 15.115 37.5912 15.1834 37.4553ZM8.68602 47.176C8.54923 47.244 8.20726 47.3119 8.13887 47.244L8.07048 47.176C8.07048 47.108 8.13887 47.108 8.20726 47.04C8.27566 46.9721 8.34405 46.9721 8.41245 46.9721C8.54923 46.9041 8.61763 46.9041 8.68602 46.8361C8.75441 46.7681 8.75441 46.8361 8.82281 46.8361C8.8912 46.8361 8.8912 46.9041 8.8912 46.9721C8.8912 46.9721 8.82281 47.108 8.68602 47.176ZM8.9596 46.2923C8.75442 46.6322 8.13887 47.108 7.45493 46.9721C7.04457 46.9041 6.97618 46.7001 6.97618 46.5642C6.97618 46.3603 7.18136 46.2243 7.31815 46.1563C7.45493 46.0884 7.59172 46.1563 7.66011 46.1563C7.8653 46.1563 8.13887 46.2243 8.54923 46.0204C8.82281 45.8844 8.9596 45.8844 9.02799 45.9524C9.09638 45.9524 9.09638 46.1563 8.9596 46.2923ZM9.64353 44.5929C9.43835 45.4086 9.09638 45.5445 8.27566 45.7485H8.20726C7.93369 45.8164 7.7969 45.8844 7.72851 45.8164C7.66011 45.7485 7.66011 45.5445 7.66011 45.2047C7.72851 44.9327 8.00208 44.7288 8.61763 44.5929C8.75442 44.5249 8.8912 44.5249 9.02799 44.4569C9.30157 44.3889 9.43835 44.321 9.50675 44.3889C9.64353 44.3889 9.71193 44.4569 9.64353 44.5929ZM10.6694 43.0974C10.3275 43.9131 9.9855 44.049 9.02799 44.253H8.8912C8.61763 44.3209 8.48084 44.3209 8.41245 44.253C8.34405 44.185 8.34405 43.9811 8.48084 43.6412C8.54923 43.3693 8.8912 43.1653 9.57514 43.0294C9.71193 43.0294 9.84872 42.9614 9.9855 42.8934C10.2591 42.8255 10.5327 42.6895 10.601 42.8255C10.7378 42.9614 10.6694 43.0294 10.6694 43.0974ZM11.7637 41.8058C11.4218 42.5535 11.0798 42.6215 10.0539 42.6895H9.91711C9.64353 42.6895 9.50675 42.7575 9.43835 42.6215C9.36996 42.5535 9.43835 42.3496 9.50675 42.0097C9.57514 41.7378 9.9855 41.6019 10.601 41.5339C10.7378 41.5339 10.8746 41.5339 11.0114 41.4659C11.3534 41.3979 11.5586 41.3979 11.627 41.4659C11.8321 41.6698 11.8321 41.7378 11.7637 41.8058ZM13.0632 40.7861C12.7213 41.262 12.1741 41.4659 11.1482 41.4659C10.943 41.4659 10.8062 41.3979 10.7378 41.33C10.6694 41.194 10.7378 41.0581 10.8746 40.9221C11.0798 40.6502 11.4902 40.4463 11.9689 40.5142C12.1057 40.5142 12.2425 40.5142 12.4477 40.5142C12.7896 40.5142 13.0632 40.5142 13.1316 40.6502C13.1316 40.5822 13.1316 40.6502 13.0632 40.7861ZM14.4311 39.6985C14.0891 40.2423 13.6788 40.1743 13.1316 40.1064C12.9264 40.1064 12.7213 40.0384 12.4477 40.0384C12.2425 40.0384 12.1741 39.9704 12.1057 39.9024C12.0373 39.7665 12.1741 39.6305 12.2425 39.5626L12.3109 39.4946C12.5161 39.2227 12.7896 39.1547 13.3368 39.2227C13.4052 39.2227 13.542 39.2227 13.6104 39.2227C13.9523 39.2227 14.3627 39.2227 14.4311 39.4266C14.4995 39.4946 14.4995 39.5626 14.4311 39.6985ZM13.8156 38.9508C13.6104 38.9508 13.542 38.8828 13.4736 38.8148C13.4052 38.6789 13.542 38.5429 13.6104 38.4749L13.6788 38.4069C13.8839 38.135 14.1575 38.0671 14.7047 38.135C14.7731 38.135 14.8415 38.135 14.9099 38.135C15.3202 38.135 15.799 38.203 15.9358 38.4069C16.0042 38.4749 15.9358 38.6109 15.8674 38.6789C15.5254 39.2227 15.0466 39.1547 14.4995 39.0187C14.3627 39.0187 14.0891 38.9508 13.8156 38.9508ZM12.5161 66.6174C12.5161 66.6174 12.4477 66.4135 12.1057 66.2096C11.9005 66.0736 11.6953 66.1416 11.6953 66.1416C11.6953 66.1416 11.4902 65.6658 11.3534 65.4618C11.1482 65.2579 10.7378 65.054 10.7378 65.054C10.7378 65.054 10.6694 64.5101 10.3959 64.1703C10.1223 63.8304 9.78032 63.6944 9.78032 63.6944C9.78032 63.6944 9.71193 63.1506 9.50675 62.7427C9.23317 62.3349 8.9596 62.1309 8.9596 62.1309C8.9596 62.1309 8.9596 61.4512 8.75442 61.2472C8.61763 61.0433 8.20726 60.6354 8.20726 60.6354C8.20726 60.6354 8.27566 59.9557 8.13887 59.6838C8.00208 59.4119 7.66011 59.072 7.66011 59.072C7.66011 59.072 7.72851 58.4602 7.59172 58.0523C7.45493 57.6445 7.24975 57.2366 7.24975 57.2366C7.24975 57.2366 7.45493 56.7608 7.45493 56.3529C7.38654 55.8771 7.04457 55.4692 7.04457 55.4692C7.04457 55.4692 7.31815 55.0613 7.24975 54.5175C7.18136 53.9737 6.97618 53.9057 6.97618 53.9057C6.97618 53.9057 7.24975 53.4979 7.31815 52.954C7.31815 52.4102 7.18136 52.2063 7.18136 52.2063C7.18136 52.2063 7.31815 51.9344 7.38654 51.5945C7.45493 51.3226 7.31815 51.1187 7.31815 51.1187C7.31815 51.1187 7.66011 50.6428 7.66011 50.3709C7.72851 50.031 7.59172 49.6232 7.11296 49.5552C6.63421 49.4872 6.42903 49.6911 6.42903 49.6911C6.42903 49.6911 5.53991 48.9434 5.06115 49.963C4.78758 50.4389 5.26633 50.7108 5.26633 50.7108C5.26633 50.7108 4.85597 51.0507 5.19794 51.7305C5.19794 51.7305 4.78758 52.2063 4.78758 52.8181C4.78758 53.4299 4.99276 53.7018 4.99276 53.7018C4.99276 53.7018 4.65079 54.3136 4.78758 54.8574C4.92436 55.2653 5.06115 55.6051 5.06115 55.6051C5.06115 55.6051 4.71918 56.081 4.99276 56.7608C5.19794 57.4405 5.40312 57.5085 5.40312 57.5085C5.40312 57.5085 5.12955 58.1203 5.33473 58.7321C5.53991 59.2079 5.81348 59.4119 5.81348 59.4119C5.81348 59.4119 5.6083 60.2276 5.88188 60.6354C6.15545 61.1113 6.36063 61.2472 6.36063 61.2472C6.36063 61.2472 6.29224 61.995 6.49742 62.4029C6.63421 62.6748 7.18136 62.9467 7.18136 62.9467C7.18136 62.9467 6.97618 63.5585 7.45493 64.1703C7.72851 64.5101 8.00208 64.7141 8.00208 64.7141C8.00208 64.7141 8.13887 65.5298 8.54923 65.9377C8.82281 66.2096 9.16478 66.2775 9.16478 66.2775C9.16478 66.2775 9.23317 67.0253 9.64353 67.2972C10.0539 67.5691 10.3959 67.6371 10.3959 67.6371C10.3959 67.6371 10.3959 68.1129 10.7378 68.4528C11.0798 68.7247 11.285 68.6567 11.285 68.6567C11.285 68.6567 11.3534 69.7444 12.0373 69.4725C12.7213 69.2006 12.858 68.5888 12.858 68.5888C12.858 68.5888 13.542 68.045 13.4052 67.5011C13.4052 67.4332 13.3368 66.7534 12.5161 66.6174ZM6.15545 50.031C6.42903 49.7591 6.7026 49.7591 6.83939 49.7591C7.04457 49.7591 7.11296 49.8951 7.24975 50.031C7.31815 50.235 7.24975 50.4389 7.11296 50.5748C7.04457 50.6428 6.97618 50.6428 6.90778 50.5748C6.771 50.5069 6.29224 50.5069 6.01866 50.7788C5.88188 50.9147 5.81348 50.9827 5.74509 50.9147C5.6767 50.9147 5.6767 50.8467 5.6767 50.7788C5.6083 50.9147 5.6767 50.4389 6.15545 50.031ZM5.47151 49.8271C5.53991 49.6911 5.6767 49.6911 5.74509 49.6911C5.81348 49.6911 5.88188 49.7591 5.88188 49.8271C5.88188 49.8271 5.88188 49.8951 5.81348 49.8951C5.6767 49.963 5.47151 50.167 5.47151 50.167C5.47151 50.167 5.40312 50.167 5.40312 50.099C5.40312 50.031 5.40312 49.963 5.47151 49.8271ZM5.6767 51.5265C5.95027 51.2546 6.29224 50.9827 6.56581 51.0507C6.7026 51.0507 6.771 51.1866 6.83939 51.3226C7.04457 51.8664 6.771 52.0024 6.42903 52.2063C6.22385 52.3422 6.01866 52.4782 5.74509 52.7501C5.6083 52.8861 5.47151 52.954 5.40312 52.954C5.26633 52.8861 5.26633 52.7501 5.19794 52.6142C5.19794 52.5462 5.19794 52.5462 5.19794 52.4782C5.12955 52.1383 5.26633 51.8664 5.6767 51.5265ZM5.19794 54.5175C5.06115 54.2456 5.33473 53.7698 5.6083 53.4299C6.01866 52.8861 6.36063 52.6142 6.49742 52.6142C6.56581 52.6142 6.63421 52.6821 6.7026 52.7501C6.97618 53.2939 6.63421 53.6338 6.29224 54.0417C6.15545 54.2456 5.95027 54.4495 5.81348 54.7214C5.6767 54.9254 5.6083 54.9934 5.53991 54.9934C5.40312 54.9934 5.33473 54.7894 5.26633 54.6535C5.19794 54.5175 5.19794 54.5175 5.19794 54.5175ZM5.33473 56.2169C5.19794 55.945 5.40312 55.6051 5.6083 55.1973C5.74509 54.9254 6.22385 54.2456 6.49742 54.2456C6.56581 54.2456 6.56581 54.2456 6.63421 54.3816C6.97618 55.1973 6.7026 55.4692 6.36063 55.945C6.22385 56.149 6.08706 56.2849 5.95027 56.5568C5.88188 56.6928 5.74509 56.7608 5.6767 56.7608C5.53991 56.7608 5.47151 56.5568 5.40312 56.4209C5.40312 56.3529 5.40312 56.2849 5.33473 56.2169ZM5.74509 58.4602L5.6767 58.3922C5.47151 58.1203 5.47151 57.8484 5.74509 57.3046L5.81348 57.2366C6.01866 56.6928 6.29224 56.2169 6.56581 56.149C6.63421 56.149 6.771 56.149 6.83939 56.2849C7.24975 56.7608 7.04457 57.1686 6.7026 57.7124C6.56581 57.9164 6.42903 58.1883 6.36063 58.4602C6.29224 58.6641 6.22385 58.7321 6.15545 58.7321C5.95027 58.7321 5.81348 58.5282 5.74509 58.4602ZM6.56581 60.4995C6.42903 60.4995 6.36063 60.3635 6.29224 60.2276L6.22385 60.1596C6.01866 59.8877 6.01866 59.6158 6.29224 59.072C6.29224 59.004 6.36063 58.936 6.36063 58.868C6.49742 58.4602 6.7026 58.0523 6.90778 57.9843C6.97618 57.9843 7.11296 57.9843 7.18136 58.1203C7.59172 58.5961 7.38654 59.004 7.11296 59.4798C6.97618 59.6838 6.90778 59.8877 6.83939 60.1596C6.7026 60.3635 6.63421 60.4995 6.56581 60.4995ZM7.38654 61.859C7.31815 62.063 7.24975 62.1309 7.18136 62.1309C7.04457 62.1309 6.97618 61.995 6.90778 61.859L6.83939 61.7911C6.63421 61.5192 6.63421 61.2472 6.90778 60.7034C6.97618 60.6355 6.97618 60.4995 7.04457 60.4315C7.18136 60.0916 7.31815 59.7517 7.45493 59.6838C7.52333 59.6838 7.59172 59.6838 7.72851 59.8197C8.13887 60.2956 8.00208 60.7034 7.72851 61.1793C7.59172 61.3832 7.52333 61.6551 7.38654 61.859ZM8.07048 63.8304C7.93369 63.8304 7.7969 63.7624 7.66011 63.5585C7.45493 63.2866 7.38654 62.8787 7.59172 62.4029C7.66012 62.2669 7.66011 62.1309 7.72851 61.995C7.7969 61.6551 7.8653 61.3832 8.00208 61.3832C8.07048 61.3832 8.13887 61.3832 8.20726 61.5192C8.61763 61.995 8.61763 62.5388 8.27566 63.4905C8.27566 63.6944 8.20726 63.8304 8.07048 63.8304ZM9.30157 64.85V64.986C9.23317 65.2579 9.23317 65.3938 9.09638 65.3938C8.9596 65.3938 8.82281 65.3259 8.54923 65.1219C8.34405 64.986 8.27566 64.5781 8.41245 63.9663C8.48084 63.8304 8.48084 63.6944 8.48084 63.5585C8.54923 63.2186 8.54923 63.0146 8.68602 62.9467C8.75441 62.9467 8.82281 62.9467 8.8912 63.0146C9.50675 63.4905 9.50675 63.8983 9.30157 64.85ZM10.4643 66.2775V66.4135C10.4643 66.6854 10.4643 66.8214 10.3275 66.8214C10.1907 66.8893 10.0539 66.7534 9.78032 66.5495C9.50675 66.4135 9.43835 66.0056 9.50675 65.3259C9.50675 65.1899 9.50675 65.054 9.50675 64.918C9.50675 64.5781 9.50675 64.3742 9.64353 64.3062C9.71193 64.2382 9.84871 64.3062 9.84871 64.3742C10.4643 64.918 10.4643 65.3259 10.4643 66.2775ZM11.627 67.4332C11.627 67.773 11.627 67.909 11.4902 67.977C11.3534 68.0449 11.2166 67.977 10.8746 67.841C10.601 67.7051 10.5327 67.3652 10.601 66.7534C10.601 66.6174 10.601 66.4815 10.601 66.3455C10.601 66.0736 10.601 65.9377 10.6694 65.8697C10.7378 65.8697 10.8062 65.8697 10.8746 65.8697C11.627 66.2096 11.6953 66.6174 11.627 67.4332ZM12.5845 68.5888C12.3793 68.9287 12.1741 68.9287 12.0373 68.9287C11.8321 68.8607 11.7637 68.6567 11.7637 68.5208C11.7637 68.3848 11.8321 68.2489 11.9005 68.1809C11.9689 67.977 12.1057 67.773 12.0373 67.2972C11.9689 67.0253 12.0373 66.8214 12.1057 66.8214C12.1741 66.7534 12.3109 66.8214 12.4477 67.0253C12.6529 67.2972 12.858 67.977 12.5845 68.5888ZM13.0632 68.0449C12.9948 68.0449 12.9948 68.0449 13.0632 68.0449C12.9264 68.0449 12.9264 67.977 12.9264 67.909C12.9264 67.841 12.9264 67.7051 12.9264 67.6371C12.9264 67.5011 12.9264 67.4332 12.858 67.3652C12.858 67.2972 12.858 67.2972 12.858 67.2292C12.858 67.2292 12.9264 67.1613 12.9948 67.2292C13.0632 67.2292 13.2 67.2972 13.2 67.5011C13.2 67.6371 13.1316 67.977 13.0632 68.0449ZM45.0715 53.6338C45.0715 53.6338 45.2767 53.3619 45.2767 52.7501C45.2767 52.1383 44.8663 51.6625 44.8663 51.6625C45.2083 50.9827 44.7979 50.6428 44.7979 50.6428C44.7979 50.6428 45.2767 50.3709 45.0031 49.8951C44.5244 48.8754 43.772 49.5552 43.772 49.5552C43.772 49.5552 43.6352 49.4192 43.0881 49.4192C42.6093 49.4872 42.4725 49.8271 42.5409 50.235C42.5409 50.5748 42.8829 50.9827 42.8829 50.9827C42.8829 50.9827 42.7461 51.1866 42.8145 51.4585C42.8829 51.7304 43.0197 52.0703 43.0197 52.0703C43.0197 52.0703 42.8829 52.3422 42.8829 52.8181C42.8829 53.3619 43.2249 53.7698 43.2249 53.7698C43.2249 53.7698 43.0197 53.8377 42.9513 54.3816C42.8829 54.9254 43.1565 55.3332 43.1565 55.3332C43.1565 55.3332 42.8145 55.7411 42.7461 56.2169C42.6777 56.6248 42.9513 57.1006 42.9513 57.1006C42.9513 57.1006 42.6777 57.4405 42.6093 57.9164C42.4725 58.3242 42.5409 58.936 42.5409 58.936C42.5409 58.936 42.199 59.2759 42.0622 59.5478C41.9254 59.8197 41.9938 60.4995 41.9938 60.4995C41.9938 60.4995 41.5834 60.9074 41.4466 61.1113C41.3098 61.3152 41.2415 61.995 41.2415 61.995C41.2415 61.995 40.9679 62.1989 40.6943 62.6068C40.4207 63.0146 40.4207 63.5585 40.4207 63.5585C40.4207 63.5585 40.0788 63.6944 39.8052 64.0343C39.5316 64.3742 39.4632 64.918 39.4632 64.918C39.4632 64.918 39.0529 65.1219 38.8477 65.3259C38.6425 65.5298 38.5057 66.0056 38.5057 66.0056C38.5057 66.0056 38.2321 65.9377 38.0953 66.0736C37.7534 66.2775 37.685 66.4815 37.685 66.4815C36.8643 66.5495 36.7959 67.2292 36.7959 67.2292C36.6591 67.773 37.343 68.3169 37.343 68.3169C37.343 68.3169 37.4798 68.9287 38.1637 69.2006C38.8477 69.4725 38.9161 68.3848 38.9161 68.3848C38.9161 68.3848 39.1212 68.4528 39.4632 68.1809C39.8052 67.909 39.8052 67.3652 39.8052 67.3652C39.8052 67.3652 40.1472 67.2292 40.5575 67.0253C40.9679 66.7534 41.0363 66.0056 41.0363 66.0056C41.0363 66.0056 41.3098 65.9377 41.6518 65.6658C42.0622 65.2579 42.199 64.4422 42.199 64.4422C42.199 64.4422 42.4725 64.2382 42.7461 63.8983C43.2249 63.2866 43.0197 62.6748 43.0197 62.6748C43.0197 62.6748 43.5668 62.4029 43.7036 62.1309C43.9772 61.7231 43.8404 60.9753 43.8404 60.9753C43.8404 60.9753 44.114 60.7714 44.3192 60.3635C44.5244 59.9557 44.3876 59.14 44.3876 59.14C44.3876 59.14 44.7295 58.936 44.8663 58.4602C45.0715 57.8484 44.7979 57.2366 44.7979 57.2366C44.7979 57.2366 44.9347 57.1686 45.1399 56.4888C45.3451 55.8091 45.0715 55.3332 45.0715 55.3332C45.0715 55.3332 45.2767 55.0613 45.3451 54.5855C45.4135 54.2456 45.0715 53.6338 45.0715 53.6338ZM44.1824 49.8271C44.1824 49.7591 44.2508 49.6911 44.3192 49.6911C44.456 49.6911 44.5927 49.6911 44.5927 49.8271C44.6611 49.963 44.6611 50.031 44.6611 50.099C44.6611 50.167 44.5927 50.167 44.5927 50.167C44.5927 50.167 44.3876 49.963 44.2508 49.8951C44.1824 49.8951 44.1824 49.8271 44.1824 49.8271ZM42.9513 50.6428C42.8145 50.5069 42.7461 50.3029 42.8145 50.099C42.8829 49.963 43.0197 49.8271 43.2249 49.8271C43.3617 49.8271 43.6352 49.8271 43.9088 50.099C44.3876 50.5069 44.456 50.9147 44.456 50.9147C44.456 50.9827 44.456 51.0507 44.3876 51.0507C44.3192 51.0507 44.1824 51.0507 44.114 50.9147C43.8404 50.6428 43.3617 50.6428 43.2249 50.7108C43.1565 50.7108 43.0197 50.7108 42.9513 50.6428ZM43.2933 51.2546C43.3617 51.1187 43.4301 50.9827 43.5668 50.9827C43.8404 50.9147 44.1824 51.1866 44.456 51.4585C44.7979 51.7984 45.0031 52.1383 44.9347 52.4102C44.9347 52.4102 44.9347 52.4782 44.9347 52.5462C44.9347 52.6821 44.8663 52.8861 44.7295 52.8861C44.6611 52.8861 44.5244 52.8181 44.3876 52.6821C44.1824 52.4102 43.9088 52.2743 43.7036 52.1383C43.2933 52.0024 43.0881 51.7984 43.2933 51.2546ZM37.2746 67.3652C37.2746 67.4332 37.2062 67.5691 37.2062 67.6371C37.2062 67.7051 37.2062 67.773 37.2062 67.909C37.2062 67.977 37.1378 68.0449 37.1378 68.0449H37.0694C37.001 67.977 36.9326 67.6371 36.9326 67.5011C36.9326 67.3652 37.0694 67.2972 37.1378 67.2292C37.2062 67.2292 37.2062 67.2292 37.2746 67.2292C37.2746 67.2972 37.2746 67.2972 37.2746 67.3652ZM38.0269 68.9287C37.8902 68.9287 37.7534 68.9287 37.4798 68.5888C37.1378 67.977 37.4114 67.2292 37.685 66.9573C37.8218 66.8214 37.9586 66.6854 38.0269 66.7534C38.1637 66.8214 38.1637 66.9573 38.0953 67.2292C38.0269 67.7051 38.0953 67.909 38.2321 68.1129C38.3005 68.2489 38.3005 68.3169 38.3689 68.4528C38.3005 68.6567 38.2321 68.8607 38.0269 68.9287ZM39.1212 67.773C38.7793 67.909 38.6425 67.977 38.5057 67.909C38.3689 67.841 38.3689 67.7051 38.3689 67.4332V67.3652C38.3689 66.5495 38.3689 66.1416 39.1212 65.7337C39.1896 65.6658 39.258 65.6658 39.3264 65.7337C39.4632 65.8017 39.3948 66.0056 39.3948 66.2096C39.3948 66.3455 39.3948 66.4815 39.3948 66.6174C39.4632 67.2972 39.3948 67.7051 39.1212 67.773ZM40.2839 66.6174C40.0104 66.8214 39.8052 66.8893 39.7368 66.8893C39.6684 66.8214 39.6 66.6854 39.6 66.4815V66.3455C39.5316 65.3938 39.5316 64.986 40.2155 64.4422C40.2155 64.4422 40.3523 64.3742 40.4207 64.3742C40.5575 64.4422 40.5575 64.6461 40.5575 64.986C40.5575 65.1219 40.5575 65.2579 40.5575 65.3938C40.6259 66.0056 40.5575 66.4815 40.2839 66.6174ZM41.515 65.1219C41.2415 65.3259 41.1047 65.3938 40.9679 65.3938C40.8311 65.3259 40.8311 65.1899 40.7627 64.986V64.85C40.5575 63.8983 40.4891 63.4905 41.1047 62.9467C41.1731 62.8787 41.2415 62.8787 41.3098 62.8787C41.4466 62.9467 41.4466 63.1506 41.515 63.4905C41.515 63.6264 41.5834 63.7624 41.5834 63.8983C41.7202 64.5781 41.7202 64.986 41.515 65.1219ZM42.3358 63.5585C42.199 63.7624 42.0622 63.8304 41.9254 63.8304C41.7886 63.8304 41.7202 63.6944 41.6518 63.4905C41.3098 62.5388 41.3782 61.927 41.7202 61.5192C41.7886 61.4512 41.857 61.3832 41.9254 61.3832C42.0622 61.3832 42.1306 61.6551 42.199 61.995C42.2674 62.1309 42.2674 62.2669 42.3358 62.4029C42.6777 62.8787 42.5409 63.3545 42.3358 63.5585ZM43.2249 61.7911L43.1565 61.859C43.0881 61.995 42.9513 62.1309 42.8829 62.1309C42.8145 62.1309 42.7461 61.995 42.6777 61.859C42.6093 61.5871 42.4725 61.3832 42.4041 61.2472C42.1306 60.7034 41.9938 60.3635 42.4041 59.8877C42.4725 59.8197 42.6093 59.7517 42.6777 59.7517C42.8829 59.8197 42.9513 60.0916 43.0881 60.4995C43.1565 60.6354 43.1565 60.7034 43.2249 60.7714C43.3617 61.2472 43.4301 61.5871 43.2249 61.7911ZM43.8404 60.0916L43.772 60.1596C43.7036 60.2956 43.5668 60.4315 43.4984 60.4315C43.4301 60.4315 43.3617 60.2956 43.2933 60.1596C43.2249 59.8877 43.0881 59.6838 43.0197 59.4798C42.7461 58.936 42.5409 58.5961 42.9513 58.1203C43.0197 58.0523 43.0881 57.9843 43.2249 57.9843C43.4984 58.0523 43.6352 58.4602 43.772 58.868C43.772 58.936 43.8404 59.004 43.8404 59.072C44.0456 59.5478 44.0456 59.8877 43.8404 60.0916ZM44.3876 58.3922L44.3192 58.4602C44.2508 58.5961 44.114 58.7321 44.0456 58.7321C43.9772 58.7321 43.9088 58.5961 43.8404 58.4602C43.772 58.1883 43.6352 57.9164 43.4984 57.7124C43.2249 57.1686 43.0197 56.7608 43.3617 56.2849C43.4301 56.2169 43.4984 56.149 43.6352 56.149C43.9088 56.2169 44.1824 56.8287 44.3876 57.2366L44.456 57.3046C44.5244 57.7804 44.5244 58.1203 44.3876 58.3922ZM44.7295 56.2169C44.7295 56.2849 44.6611 56.2849 44.6611 56.3529C44.5928 56.4888 44.5244 56.6928 44.3876 56.6928C44.3192 56.6928 44.2508 56.6248 44.114 56.4888C43.9772 56.2169 43.8404 56.081 43.7036 55.8771C43.3617 55.4692 43.0881 55.0613 43.4301 54.3136C43.4984 54.2456 43.4984 54.2456 43.5668 54.1776C43.8404 54.1776 44.3192 54.8574 44.456 55.1293C44.6611 55.6051 44.8663 55.945 44.7295 56.2169ZM44.8663 54.5175C44.8663 54.5175 44.8663 54.5855 44.7979 54.5855C44.7295 54.7214 44.6611 54.8574 44.5244 54.9254C44.456 54.9254 44.3192 54.8574 44.2508 54.6535C44.114 54.3816 43.9088 54.1776 43.772 53.9737C43.4301 53.5658 43.1565 53.2259 43.3617 52.6821C43.4301 52.6142 43.4301 52.5462 43.5668 52.5462C43.772 52.5462 44.0456 52.8181 44.456 53.3619C44.7295 53.7698 45.0031 54.1776 44.8663 54.5175Z" fill="#00066D"/>
<path d="M75.5751 30.7256H79.7472V39.7665L87.2021 30.7256H92.3316L83.7824 40.6502L92.6052 51.7985H87.2021L79.7472 42.0098H79.6788V51.7985H75.5067V30.7256H75.5751Z" fill="#00066D"/>
<path d="M108.678 43.4373L101.154 30.7256H106.01L110.866 39.5626L115.859 30.7256H120.236L112.85 43.4373V51.7305H108.678V43.4373Z" fill="#00066D"/>
<path d="M140.823 34.6003C139.523 33.9885 138.087 33.6486 136.582 33.6486C135.146 33.6486 133.299 34.2604 133.299 36.5716C133.299 40.2424 142.396 38.6789 142.396 45.7485C142.396 50.371 138.771 52.1384 134.599 52.1384C132.342 52.1384 131.316 51.8665 129.333 51.3226L129.675 47.5159C131.111 48.2637 132.684 48.8075 134.325 48.8075C135.898 48.8075 138.019 47.9918 138.019 46.0884C138.019 42.0778 128.922 43.7092 128.922 36.7076C128.922 32.0172 132.547 30.2498 136.172 30.2498C137.95 30.2498 139.592 30.5217 141.165 30.9975L140.823 34.6003Z" fill="#00066D"/>
<path d="M158.947 34.0565H152.997V30.7256H169.001V34.0565H163.051V51.7985H158.879V34.0565H158.947Z" fill="#00066D"/>
<path d="M178.576 30.7256H183.022L188.288 47.312H188.356L193.623 30.7256H197.726L190.75 51.7985H185.621L178.576 30.7256Z" fill="#00066D"/>
<path d="M209.011 30.7256H221.254V34.0565H213.183V39.2227H220.57V42.5536H213.183V48.4676H221.322V51.7985H209.08V30.7256H209.011Z" fill="#00066D"/>
<path d="M234.522 30.7256H239.036C243.482 30.7256 248.748 30.5897 248.748 36.4357C248.748 38.8829 247.107 40.9901 244.508 41.33V41.398C245.602 41.466 246.286 42.6216 246.696 43.5733L250.048 51.7985H245.397L242.935 45.2047C242.319 43.6412 241.84 43.0295 240.062 43.0295H238.694V51.7985H234.522V30.7256ZM238.694 39.6986H240.062C242.114 39.6986 244.439 39.4267 244.439 36.7756C244.439 34.2604 242.114 33.9885 240.062 33.9885H238.694V39.6986Z" fill="#00066D"/>
<path d="M262.359 30.7256H266.531V39.7665L273.985 30.7256H279.115L270.566 40.6502L279.389 51.7985H273.985L266.531 42.0098H266.462V51.7985H262.29L262.359 30.7256Z" fill="#00066D"/>
<path d="M290.742 30.7256H302.984V34.0565H294.914V39.2227H302.301V42.5536H294.914V48.4676H302.984V51.7985H290.742V30.7256Z" fill="#00066D"/>
<path d="M319.946 34.0565H313.996V30.7256H330V34.0565H324.05V51.7985H319.878V34.0565H319.946Z" fill="#00066D"/>
</g>
<defs>
<clipPath id="clip0">
<rect width="330" height="83" fill="white"/>
</clipPath>
</defs>
</svg>
