<?xml version='1.0' encoding='utf-8'?>
<svg overflow="hidden" xmlns="http://www.w3.org/2000/svg" viewBox="-61.77 -57.93 325.16 291.61" fill="none"><g><g><polygon points="106.69 84.73 75.32 84.73 75.32 35.03 63.5 35.03 63.5 95.26 106.69 95.26 106.69 84.73" fill="#003B1C" /><path d="M180.3,69.06c-2.29-.92-5.18-1.77-8.66-2.57-2.08-.49-3.77-.96-5.08-1.42-1.31-.46-2.35-1.01-3.11-1.65-.76-.64-1.15-1.48-1.15-2.52,0-1.4.63-2.52,1.88-3.34,1.25-.82,3.01-1.24,5.27-1.24,4.7,0,8.85,1.62,12.46,4.86l6.69-7.42c-2.38-2.26-5.22-3.97-8.52-5.13-3.3-1.16-6.9-1.74-10.81-1.74-5.56,0-10.05,1.33-13.47,3.99-3.42,2.66-5.13,6.18-5.13,10.58,0,2.99.79,5.41,2.38,7.24,1.59,1.83,3.47,3.19,5.63,4.08,2.17.89,4.96,1.76,8.38,2.61,2.2.55,3.99,1.07,5.36,1.56,1.37.49,2.49,1.12,3.34,1.88.85.76,1.28,1.73,1.28,2.89,0,1.53-.67,2.7-2.02,3.53-1.34.82-3.15,1.24-5.41,1.24-2.63,0-5.19-.55-7.7-1.65-2.51-1.1-4.73-2.63-6.69-4.58l-6.6,7.42c2.32,2.63,5.39,4.67,9.21,6.14,3.82,1.47,7.74,2.2,11.77,2.2,5.74,0,10.35-1.3,13.83-3.89,3.48-2.6,5.22-6.18,5.22-10.76,0-3.36-.82-6.01-2.47-7.97-1.65-1.95-3.62-3.39-5.91-4.31Z" fill="#003B1C" /><path d="M236.3,60.13c-1.5-4.18-3.91-7.43-7.24-9.76-3.33-2.32-7.34-3.48-12.05-3.48s-8.81,1.1-12.14,3.3c-3.33,2.2-5.85,5.16-7.56,8.89-1.71,3.73-2.57,7.88-2.57,12.46,0,4.89.92,9.18,2.75,12.87,1.83,3.7,4.49,6.55,7.97,8.57,3.48,2.02,7.57,3.02,12.28,3.02,3.24,0,6.15-.5,8.75-1.51,2.6-1.01,4.81-2.41,6.64-4.21,1.83-1.8,3.17-3.77,4.03-5.91l-9.8-4.12c-.98,2.08-2.29,3.63-3.94,4.67-1.65,1.04-3.57,1.56-5.77,1.56-3.66,0-6.52-1.33-8.57-3.99-1.59-2.06-2.55-4.73-2.91-8.02h31.54c.55-5.37.08-10.15-1.42-14.34ZM206.59,65.58c.2-.94.45-1.83.76-2.66.88-2.38,2.14-4.2,3.76-5.45,1.62-1.25,3.59-1.88,5.91-1.88,2.81,0,5.04.89,6.69,2.66,1.65,1.77,2.53,4.21,2.66,7.33h-19.77Z" fill="#003B1C" /><path d="M125.06,78.47l-11.35-30.83h-11.91l17.84,46.23-3.3,9.29c7.16-1.11,13.49-5.91,18.83-20.86l12.43-34.67h-11.82l-10.73,30.83Z" fill="#003B1C" /></g><path d="M96.73,100.67l-2.69,12.66c18.08,4.96,22.31-10.17,22.31-10.17h0c-9.4,1.46-19.05-2.28-19.61-2.49Z" fill="#003B1C" /></g><g><path d="M95.15,34.56l18.63-26.46c-5.96-2.77-12.83-4.31-20.61-4.31-11.64,0-22.47,3.43-31.56,9.32,13.98,2.15,26.01,10.17,33.54,21.45Z" fill="#008537" /><path d="M35.03,61.94c0-20.47,10.59-38.46,26.58-48.82-2.47-.38-5.01-.58-7.59-.58C26.74,12.53,4.62,34.65,4.62,61.94c0,31.87,26.88,54.21,68.58,55.24.52.01.65-.71.16-.88-7.5-2.64-14.55-6.87-20.63-12.73-11.7-11.29-17.7-26.68-17.7-41.62Z" fill="#008537" /></g></svg>