<?xml version="1.0" encoding="utf-8"?>
<!-- Generator: Adobe Illustrator 25.0.0, SVG Export Plug-In . SVG Version: 6.00 Build 0)  -->
<svg version="1.1" id="Layer_1" xmlns="http://www.w3.org/2000/svg" xmlns:xlink="http://www.w3.org/1999/xlink" x="0px" y="0px"
	 viewBox="0 0 951.3 279.9" style="enable-background:new 0 0 951.3 279.9;" xml:space="preserve">
<style type="text/css">
	.st0{fill:#005E5D;}
</style>
<g>
	<polygon class="st0" points="186.6,0 140,46.6 93.3,0 0,0 0,279.9 93.3,279.9 93.3,248.8 186.6,248.8 186.6,279.9 280,279.9 280,0 
			"/>
	<path class="st0" d="M951.3,195.3h-11.5v-20h-11.2v20H919v9.4h9.6v44.1h11.2v-44.1h11.5V195.3z M869.2,217.5
		c2.1-17.4,30-17.2,31.5,0H869.2z M911.9,221.8c1.2-36.7-55.3-36.1-54.4,0.1c-1.4,29.1,39.2,38.1,52.1,14.5l-8.9-4.5
		c-7.1,11.7-30,9.8-31.6-5.4h42.6C911.8,224.9,911.9,223.3,911.9,221.8 M851.3,195.3h-11.5v-20h-11.2v20H819v9.4h9.6v44.1h11.2
		v-44.1h11.5V195.3z M779,239.3c-21.5,0.7-21.7-35.4,0-34.5C801,204.2,801.5,239.8,779,239.3 M796.2,195.3v7.9
		c-13.7-18.9-46.4-6.5-45,18.8c-1.3,25.1,31.1,38,45,18.8v8h11.2v-53.5L796.2,195.3L796.2,195.3z M737.2,194.2
		c-6.9,0-12.3,3.8-15,13.2v-12h-11.3v53.4h11.3c-0.7-16.6-1.7-53.3,22.2-42l1.9-10.7C744.6,195.1,740.9,194.2,737.2,194.2
		 M673.5,239.3c-21.7,1-22-35.6,0-34.6C695.5,203.7,695.3,240.3,673.5,239.3 M673.5,250c36.8,0.8,37.1-56.8,0-55.8
		C636.5,193.1,636.8,250.8,673.5,250 M639.2,195.3h-11.5v-20h-11.2v20h-9.6v9.4h9.6v44.1h11.2v-44.1h11.5V195.3z M604.7,248.8
		l-27.8-30.4l22.6-23.1h-15.2l-17.5,18.2v-47.2h-11.2v82.5h11.2v-25.4l23.4,25.4H604.7z M499.7,217.5c2.1-17.4,30-17.2,31.5,0H499.7
		z M542.4,221.8c1.2-36.7-55.3-36.1-54.4,0.1c-1.4,29.1,39.2,38.1,52.1,14.5l-8.9-4.5c-7.1,11.7-30,9.8-31.6-5.4h42.6
		C542.3,224.9,542.4,223.3,542.4,221.8 M476.2,194.2c-6.9,0-12.3,3.8-15,13.2v-12h-11.3v53.4h11.3c-0.7-16.6-1.7-53.3,22.2-42
		l1.9-10.7C483.6,195.1,479.9,194.2,476.2,194.2 M421.8,248.8H433v-53.5h-11.2V248.8z M427.4,183.1c10,0.3,10-14.7,0-14.4
		C417.4,168.4,417.4,183.3,427.4,183.1 M376.6,239.3c-21.5,0.7-21.7-35.4,0-34.5C398.6,204.2,399.2,239.8,376.6,239.3 M393.8,166.3
		v36.9c-13.7-18.9-46.4-6.5-45,18.8c-1.3,25.1,31.1,38,45,18.8v8H405v-82.5L393.8,166.3L393.8,166.3z"/>
	<path class="st0" d="M591.5,107.6h36.2V96.9h-36.2V107.6z M568.3,102.2c0.3,14.1-14.7,21.6-25.7,15L566,93.1
		C567.5,95.8,568.3,98.7,568.3,102.2 M534.6,102.2c-0.3-14.3,15.4-21.5,26.2-14.4l-23.5,24.1C535.7,109.2,534.6,106,534.6,102.2
		 M579.7,79.2l-5.4-5.2l-5.6,5.7c-25.6-19.2-60.1,14.7-39.3,40.3l-6.4,6.5l5.4,5.3l6.5-6.6c25.3,18.6,58.8-14.9,39.2-40.2
		L579.7,79.2z M482.9,155.1c16.3,2,27.9-5.7,26.9-23.3V75.6h-11.2v56.1c0.9,10.4-5.5,14.1-15.7,12.8V155.1z M504.2,63.3
		c10,0.3,10-14.7,0-14.4C494.2,48.7,494.2,63.6,504.2,63.3 M469.6,129.1h11.2V46.6h-11.2V129.1z M441.5,129.1h11.2V75.6h-11.2V129.1
		z M447.1,63.3c10,0.3,10-14.7,0-14.4C437.2,48.7,437.2,63.6,447.1,63.3"/>
	<polygon class="st0" points="425.5,129.1 425.5,46.6 415,46.6 415,46.6 387.8,103.4 360.7,46.6 350.1,46.6 350.1,129.1 
		361.3,129.1 361.3,72.7 382.9,116.8 393,116.8 414.3,72.8 414.3,129.1 	"/>
</g>
</svg>
