<?xml version='1.0' encoding='utf-8'?>
<svg overflow="hidden" xmlns="http://www.w3.org/2000/svg" viewBox="0.00 0.00 45.67 45.67"><defs><style>.a{fill:#d3001b;}.b{fill:#ffd800;}.c{fill:#0a3d51;}</style></defs><g transform="translate(-6.558 -5.254)"><g transform="translate(6.558 5.254)"><path class="a" d="M42.108,5.254S46.562,36.3,24.516,50.92h0C2.47,36.3,6.928,5.254,6.928,5.254Z" transform="translate(-6.558 -5.254)" /><path class="b" d="M69.022,46.6a2.111,2.111,0,0,1-.9-1.983V41.876c0-.142,0-.3,0-.459a12,12,0,0,0-.895-5.48,6.539,6.539,0,0,0-5.2-3.563.8.8,0,0,1-.681-.79V28.855c.433.3.866.59,1.336.864,0-.893-.1-1.728-.131-2.6.8-.425,1.6-.764,2.394-1.228-.8-.458-1.6-.791-2.395-1.209.034-.875.134-1.713.132-2.61-.8.464-1.488.99-2.253,1.473-.765-.483-1.455-1.009-2.253-1.473,0,.893.1,1.728.131,2.6-.8.425-1.6.764-2.394,1.228.8.457,1.6.791,2.394,1.209-.034.875-.134,1.713-.132,2.61.471-.273.9-.569,1.336-.864v2.729a.8.8,0,0,1-.681.79,6.539,6.539,0,0,0-5.2,3.563,12,12,0,0,0-.895,5.48c0,.163,0,.317,0,.459v2.738a2.11,2.11,0,0,1-.9,1.983,2.311,2.311,0,0,1-1.024.315h0v2.109a4.408,4.408,0,0,0,2.005-.555,4.086,4.086,0,0,0,2.025-3.852V41.876c0-.15,0-.311,0-.482-.038-3.485.362-6.9,5.588-7.051,5.226.152,5.626,3.566,5.587,7.051,0,.171,0,.333,0,.482v2.738a4.086,4.086,0,0,0,2.025,3.852,4.407,4.407,0,0,0,2.005.555V46.912h0A2.311,2.311,0,0,1,69.022,46.6Z" transform="translate(-42.473 -18.901)" /></g><path class="c" d="M274.428,29.223h2.963l6.051,14.464,6.051-14.464h2.963V45.594h-1.8V31.461l-6.175,14.132h-2.072l-6.154-14.132V45.594h-1.824Z" transform="translate(-217.36 -19.449)" /><path class="c" d="M386,67.839a5.056,5.056,0,0,1-1.917-2.041,6.741,6.741,0,0,1,0-5.916A5.008,5.008,0,0,1,386,57.861a5.717,5.717,0,0,1,5.574,0,5.009,5.009,0,0,1,1.917,2.02,6.738,6.738,0,0,1,0,5.916,5.057,5.057,0,0,1-1.917,2.041,5.648,5.648,0,0,1-5.574,0Zm4.642-1.337a3.6,3.6,0,0,0,1.275-1.492,5.37,5.37,0,0,0,0-4.331,3.531,3.531,0,0,0-1.275-1.482,3.345,3.345,0,0,0-1.854-.528,3.294,3.294,0,0,0-1.844.528,3.557,3.557,0,0,0-1.264,1.482,5.372,5.372,0,0,0,0,4.331,3.626,3.626,0,0,0,1.264,1.492,3.246,3.246,0,0,0,1.844.539A3.3,3.3,0,0,0,390.641,66.5Z" transform="translate(-305.783 -42.099)" /><path class="c" d="M450.882,67.6a3.3,3.3,0,0,1-1.306-2.673h1.679a1.992,1.992,0,0,0,.86,1.637,3.786,3.786,0,0,0,2.228.58,3.29,3.29,0,0,0,1.927-.5,1.529,1.529,0,0,0,.7-1.305,1.214,1.214,0,0,0-.394-.953,2.345,2.345,0,0,0-.984-.508q-.59-.156-1.606-.321a15,15,0,0,1-2.124-.466,3.2,3.2,0,0,1-1.4-.881,2.483,2.483,0,0,1-.58-1.761,2.838,2.838,0,0,1,.549-1.71A3.586,3.586,0,0,1,452,57.561a6.087,6.087,0,0,1,2.363-.425,4.531,4.531,0,0,1,3.057,1.005,3.77,3.77,0,0,1,1.295,2.7h-1.637a2.2,2.2,0,0,0-.829-1.668,3.27,3.27,0,0,0-2.093-.611,2.889,2.889,0,0,0-1.823.518,1.61,1.61,0,0,0-.663,1.326,1.111,1.111,0,0,0,.383.9,2.47,2.47,0,0,0,.953.477q.569.156,1.564.321a14.869,14.869,0,0,1,2.145.477,3.229,3.229,0,0,1,1.43.922,2.638,2.638,0,0,1,.591,1.834,2.773,2.773,0,0,1-1.212,2.342,6.383,6.383,0,0,1-6.642-.083Z" transform="translate(-359.481 -42.099)" /><path class="c" d="M509.346,67.6a3.3,3.3,0,0,1-1.305-2.673h1.678a1.992,1.992,0,0,0,.86,1.637,3.788,3.788,0,0,0,2.228.58,3.289,3.289,0,0,0,1.927-.5,1.53,1.53,0,0,0,.7-1.305,1.216,1.216,0,0,0-.394-.953,2.346,2.346,0,0,0-.984-.508q-.591-.156-1.606-.321a14.983,14.983,0,0,1-2.124-.466,3.2,3.2,0,0,1-1.4-.881,2.484,2.484,0,0,1-.58-1.761,2.838,2.838,0,0,1,.549-1.71,3.585,3.585,0,0,1,1.565-1.181,6.085,6.085,0,0,1,2.362-.425,4.53,4.53,0,0,1,3.056,1.005,3.77,3.77,0,0,1,1.3,2.7h-1.637a2.195,2.195,0,0,0-.829-1.668,3.27,3.27,0,0,0-2.093-.611,2.89,2.89,0,0,0-1.823.518,1.61,1.61,0,0,0-.663,1.326,1.109,1.109,0,0,0,.384.9,2.465,2.465,0,0,0,.953.477q.569.156,1.564.321a14.874,14.874,0,0,1,2.145.477,3.228,3.228,0,0,1,1.43.922,2.637,2.637,0,0,1,.59,1.834,2.772,2.772,0,0,1-1.212,2.342,6.383,6.383,0,0,1-6.641-.083Z" transform="translate(-406.922 -42.099)" /><path class="c" d="M274.59,135.953h1.782v10.154l5.45-4.559h2.4l-5.077,4.186,5.491,6.59h-2.2l-4.559-5.554-1.513,1.243v4.31H274.59Z" transform="translate(-217.491 -106.054)" /><path class="c" d="M332.126,174.569a5.056,5.056,0,0,1-1.917-2.041,6.739,6.739,0,0,1,0-5.916,5.008,5.008,0,0,1,1.917-2.02,5.717,5.717,0,0,1,5.574,0,5.009,5.009,0,0,1,1.917,2.02,6.739,6.739,0,0,1,0,5.916,5.056,5.056,0,0,1-1.917,2.041,5.648,5.648,0,0,1-5.574,0Zm4.642-1.337a3.6,3.6,0,0,0,1.274-1.492,5.372,5.372,0,0,0,0-4.331,3.532,3.532,0,0,0-1.274-1.482,3.346,3.346,0,0,0-1.855-.528,3.294,3.294,0,0,0-1.844.528,3.556,3.556,0,0,0-1.264,1.482,5.37,5.37,0,0,0,0,4.331,3.625,3.625,0,0,0,1.264,1.492,3.245,3.245,0,0,0,1.844.539A3.3,3.3,0,0,0,336.768,173.233Z" transform="translate(-262.067 -128.704)" /><path class="c" d="M398.924,164.2h1.782v1.948a4.5,4.5,0,0,1,1.575-1.679,4.212,4.212,0,0,1,2.259-.6,3.423,3.423,0,0,1,3.647,2.466,4.963,4.963,0,0,1,1.73-1.813,4.533,4.533,0,0,1,2.414-.653,3.663,3.663,0,0,1,2.942,1.161,5.091,5.091,0,0,1,.995,3.4v6.548h-1.782v-6.486a3.481,3.481,0,0,0-.673-2.259,2.307,2.307,0,0,0-1.9-.829,2.989,2.989,0,0,0-1.792.559,3.691,3.691,0,0,0-1.212,1.544,5.456,5.456,0,0,0-.435,2.228v5.243h-1.782v-6.486a3.518,3.518,0,0,0-.663-2.259,2.277,2.277,0,0,0-1.886-.829,3.035,3.035,0,0,0-1.8.559,3.579,3.579,0,0,0-1.212,1.544,5.566,5.566,0,0,0-.425,2.228v5.243h-1.782Z" transform="translate(-318.38 -128.704)" /><path class="c" d="M505.213,164.2H507v1.948a4.5,4.5,0,0,1,1.575-1.679,4.213,4.213,0,0,1,2.259-.6,3.423,3.423,0,0,1,3.647,2.466,4.962,4.962,0,0,1,1.73-1.813,4.532,4.532,0,0,1,2.414-.653,3.663,3.663,0,0,1,2.942,1.161,5.092,5.092,0,0,1,.995,3.4v6.548h-1.782v-6.486a3.482,3.482,0,0,0-.673-2.259,2.307,2.307,0,0,0-1.9-.829,2.989,2.989,0,0,0-1.792.559A3.688,3.688,0,0,0,515.2,167.5a5.453,5.453,0,0,0-.435,2.228v5.243h-1.782v-6.486a3.519,3.519,0,0,0-.663-2.259,2.277,2.277,0,0,0-1.886-.829,3.034,3.034,0,0,0-1.8.559,3.582,3.582,0,0,0-1.212,1.544,5.566,5.566,0,0,0-.425,2.228v5.243h-1.782Z" transform="translate(-404.627 -128.704)" /><path class="c" d="M620.222,176.4H618.44v-1.948a4.5,4.5,0,0,1-1.575,1.679,4.216,4.216,0,0,1-2.259.6,3.662,3.662,0,0,1-2.943-1.16,5.091,5.091,0,0,1-.995-3.4v-6.548h1.783v6.486a3.479,3.479,0,0,0,.673,2.259,2.3,2.3,0,0,0,1.9.829,2.989,2.989,0,0,0,1.792-.559,3.616,3.616,0,0,0,1.2-1.544,5.573,5.573,0,0,0,.425-2.228v-5.243h1.782Z" transform="translate(-490.198 -130.132)" /><path class="c" d="M676.187,164.2h1.782v1.948a4.5,4.5,0,0,1,1.575-1.679,4.214,4.214,0,0,1,2.259-.6,3.662,3.662,0,0,1,2.942,1.161,5.09,5.09,0,0,1,.995,3.4v6.548h-1.782v-6.486a3.518,3.518,0,0,0-.663-2.259,2.277,2.277,0,0,0-1.886-.829,3.034,3.034,0,0,0-1.8.559,3.583,3.583,0,0,0-1.212,1.544,5.566,5.566,0,0,0-.425,2.228v5.243h-1.782Z" transform="translate(-543.362 -128.704)" /><path class="c" d="M740.931,174.569A5.126,5.126,0,0,1,739,172.528a6.65,6.65,0,0,1,0-5.916,5.078,5.078,0,0,1,1.927-2.02,5.434,5.434,0,0,1,2.808-.725,4.624,4.624,0,0,1,2.383.632,4.558,4.558,0,0,1,1.73,1.886,6.408,6.408,0,0,1,.653,2.994v.788h-8.351a4.1,4.1,0,0,0,1.047,2.642,3.6,3.6,0,0,0,4.424.446,2.3,2.3,0,0,0,.974-1.305h1.761a3.632,3.632,0,0,1-.8,1.679,4.493,4.493,0,0,1-1.627,1.222,5.208,5.208,0,0,1-2.2.456A5.375,5.375,0,0,1,740.931,174.569Zm5.792-5.854a3.617,3.617,0,0,0-.912-2.4,2.794,2.794,0,0,0-2.134-.912,3.265,3.265,0,0,0-2.383.891,4.024,4.024,0,0,0-1.119,2.425Z" transform="translate(-593.771 -128.704)" /></g></svg>