<?xml version="1.0" encoding="UTF-8"?><svg id="Layer_1" xmlns="http://www.w3.org/2000/svg" viewBox="0 0 840 250"><path d="M73.13,240.71l-.54-.35c-.3-.19-30.44-19.76-47.24-52.49-14.27-27.8-14.94-78.8-14.93-88.74v-11.56h125.42v11.56c.01,9.94-.66,60.95-14.93,88.74-16.8,32.72-46.94,52.29-47.24,52.49l-.54.35ZM12.42,89.57v9.57c-.01,9.86.65,60.44,14.71,87.83,15.32,29.85,41.89,48.58,46,51.36,4.11-2.78,30.69-21.53,46-51.36,14.06-27.39,14.72-77.97,14.71-87.83v-9.57H12.42Z"/><path d="M71.11,25.79c.66-.12,1.33-.2,2.03-.2.69,0,1.37.07,2.03.2v-6.67h5.41v-3.74h-5.41v-6.1h-4.05v6.1h-5.41v3.74h5.41v6.67Z"/><path d="M73.1,46.78h0s.02,0,.03,0,.02,0,.03,0h0c5.55-.03,10.04-4.54,10.04-10.1s-4.49-10.06-10.04-10.09h0s-.02,0-.03,0-.02,0-.03,0h0c-5.55.03-10.04,4.54-10.04,10.1s4.49,10.06,10.04,10.09ZM64.11,37.18h7.99v-7.28l-.8-2.12c.59-.12,1.2-.19,1.83-.19.63,0,1.24.07,1.83.19l-.8,2.12v7.28h7.99c-.04.67-.15,1.31-.32,1.93h-17.4c-.17-.62-.28-1.26-.32-1.93Z"/><path d="M70.07,47.33l.62,10.07c.74-.2,1.55-.33,2.45-.33.9,0,1.7.13,2.45.33l.62-10.07c-.97.28-2,.44-3.06.45-1.06,0-2.09-.16-3.06-.45Z"/><path d="M48.85,56.44c5.72-.82,12.46-1.23,20.69-1.32l-.09-1.5c-8.24.09-15.02.5-20.79,1.33l.18,1.49Z"/><path d="M26.26,65.23c4.59-3.64,9.76-6.1,16.6-7.69-.06-.47-.13-.98-.2-1.5-6.68,1.53-11.82,3.88-16.38,7.29.09.47.13.95.09,1.47-.01.14-.07.29-.1.43Z"/><path d="M19.17,59.39c.34-.03.67-.08,1.04-.08,1.32,0,2.45.26,3.4.7-.29-1.42-.73-3.56-.97-4.85-.71-3.79,1.15-4.63,5.49-5.4,4.37-.77,8.88-1.13,13.87-1.09.09-.87.34-1.69.89-2.47-4.7-.26-9.38-.23-14.83.19-4.32.33-7.56,1.33-8.93,2.77-1.34,1.41-1.49,2.99-1.06,5.32.14.75.66,3.01,1.11,4.9Z"/><path d="M43.96,58.19c.84-.3,1.8-.46,2.88-.46.42,0,.8.04,1.18.09-.21-1.72-.58-4.65-.75-6.08-.29-2.36.77-3.57,5.17-3.78,4.64-.22,10.26.19,16.73.89l-.11-1.85c-4.95-1.28-11.35-2.52-17.13-2.52-4.33,0-6.48.39-7.85,1.83-1.34,1.41-1.22,3.05-.97,5.37.1.95.57,4.42.86,6.5Z"/><path d="M76.72,55.11c8.23.09,14.98.5,20.69,1.32l.18-1.49c-5.77-.83-12.54-1.24-20.79-1.33l-.09,1.5Z"/><path d="M103.6,56.04c-.07.52-.14,1.03-.2,1.5,6.84,1.59,12.02,4.05,16.6,7.69-.03-.14-.09-.29-.1-.43-.05-.52,0-1,.09-1.47-4.56-3.41-9.7-5.76-16.38-7.29Z"/><path d="M126.93,60.41c-3.35-.52-5.62.86-5.78,3.56-.09,1.45,1.13,3.46,2.28,5.02l-.49.49c-1.39-1.51-3.6-3.6-5.32-3.75-2.7-.25-4.4,1.78-4.4,5.17s1.71,5.42,4.4,5.17c1.51-.14,3.4-1.77,4.78-3.19l.62.64c-1.91,3.41-3.82,6.39-4.98,7.1-3.01,1.83-9.94,1.87-12.43,0-1.54-1.15-3.36-4.59-4.54-7.06l.56-.56c1.37,1.39,3.2,2.94,4.67,3.07,2.7.25,4.4-1.78,4.4-5.17s-1.71-5.42-4.4-5.17c-1.45.13-3.26,1.65-4.62,3.03l-.55-.55c1.48-1.4,3.36-3.46,3.51-5.08.25-2.7-1.78-4.4-5.17-4.4s-5.42,1.71-5.17,4.4c.15,1.62,2.03,3.68,3.51,5.08l-.55.55c-1.37-1.38-3.18-2.89-4.62-3.03-2.7-.25-4.4,1.78-4.4,5.17s1.71,5.42,4.4,5.17c1.46-.13,3.29-1.68,4.67-3.07l.56.56c-1.18,2.47-3,5.91-4.54,7.06-2.49,1.87-10.77,1.83-13.78,0-1.6-.97-3.29-4.35-4.54-7.32l.39-.39c1.48,1.42,3.47,3.03,5.07,3.17,2.9.25,4.73-1.8,4.73-5.25s-1.83-5.5-4.73-5.25c-1.61.14-3.62,1.77-5.1,3.2l-.49-.49c1.6-1.5,3.64-3.74,3.8-5.49.27-2.88-1.89-4.71-5.5-4.73h0s-.02,0-.03,0-.02,0-.03,0h0c-3.61.02-5.76,1.85-5.5,4.73.16,1.76,2.21,3.99,3.8,5.49l-.49.49c-1.48-1.43-3.49-3.06-5.1-3.2-2.9-.25-4.73,1.8-4.73,5.25s1.83,5.5,4.73,5.25c1.59-.14,3.59-1.75,5.07-3.17l.39.39c-1.25,2.96-2.94,6.34-4.54,7.32-3.01,1.83-11.28,1.87-13.78,0-1.54-1.15-3.37-4.59-4.54-7.06l.56-.56c1.37,1.39,3.2,2.94,4.67,3.07,2.7.25,4.4-1.78,4.4-5.17s-1.71-5.42-4.4-5.17c-1.45.13-3.26,1.65-4.62,3.03l-.55-.55c1.48-1.4,3.36-3.46,3.51-5.08.25-2.7-1.78-4.4-5.17-4.4s-5.42,1.71-5.17,4.4c.15,1.62,2.03,3.68,3.51,5.08l-.55.55c-1.37-1.38-3.18-2.89-4.62-3.03-2.7-.25-4.4,1.78-4.4,5.17s1.71,5.42,4.4,5.17c1.46-.13,3.29-1.68,4.67-3.07l.56.56c-1.18,2.47-3,5.91-4.54,7.06-2.49,1.87-9.43,1.83-12.43,0-1.16-.7-3.07-3.69-4.98-7.1l.62-.64c1.38,1.42,3.27,3.05,4.78,3.19,2.7.25,4.4-1.78,4.4-5.17s-1.71-5.42-4.4-5.17c-1.71.16-3.92,2.25-5.32,3.75l-.49-.49c1.15-1.56,2.37-3.57,2.28-5.02-.17-2.7-2.43-4.08-5.78-3.56-.91.14-1.69.4-2.34.74l2.19,8.91s0,0,.01,0l4.48,18.28h98.91l4.48-18.28s0,0,.01,0l2.19-8.91c-.66-.34-1.43-.6-2.34-.74Z"/><path d="M118.15,49.76c4.34.77,6.2,1.61,5.49,5.4-.24,1.29-.68,3.43-.97,4.85.95-.45,2.08-.7,3.4-.7.36,0,.7.04,1.04.08.44-1.89.97-4.15,1.11-4.9.44-2.32.28-3.91-1.06-5.32-1.37-1.44-4.62-2.44-8.93-2.77-5.45-.42-10.14-.45-14.83-.19.55.77.8,1.6.89,2.47,5-.04,9.5.31,13.87,1.09Z"/><path d="M77.1,48.85c6.47-.69,12.09-1.11,16.73-.89,4.4.21,5.46,1.42,5.17,3.78-.18,1.43-.54,4.36-.75,6.08.38-.05.77-.09,1.18-.09,1.08,0,2.04.16,2.88.46.28-2.08.75-5.55.86-6.5.25-2.32.37-3.96-.97-5.37-1.37-1.44-3.52-1.83-7.85-1.83-5.78,0-12.18,1.24-17.13,2.52l-.11,1.85Z"/><path d="M67.99,109.87c2.64.17,4.83.25,4.83.25,0,0-1.45-1.58-1.45-1.58,0,0-.67,0-3.29-.17-1.52-.1-2.52-.42-3.58-1.15-.34-.24-.81-.15-1.04.19s-.15.81.19,1.04c1.28.89,2.54,1.3,4.34,1.42Z"/><path d="M125.36,142.8l-.37-1.03-2.6.62-6.02-1.06-4.01.86c1.05-1.24,2.18-2.43,3.35-3.5,8.33-7.59,15.97-17.75,13.46-27.03-2.43-8.99-10.34-10.34-15.38-8.93-4.55,1.28-8.21,6.08-8.16,12.3l-5.08,8.18.81.63,4.31-3.31s.34,2.13-.69,3.55c-1.29,1.77-6.91,9.52-9.36,14.38l1.13.76s1.06-1.96,4.05-4.49c3.59-3.04,10.75-8,10.75-8,0,0,.87-1.73.71-3.6-.05-.59-.48-1.97-.62-2.45l.46-.06c2.67,3.25,2.64,6.83,2.64,6.83h.99l1.05-8.47-1.98-4.68-4.76-1.47c.11-2.56,1.74-5.72,4.38-6.66,4-1.41,10.41-.02,11.5,6.75,1.52,9.49-8.12,16.74-14.87,21.95-6.75,5.21-14.23,11.08-14.45,17.53-.22,6.46,6.37,16.86,10.93,23.55,4.36,6.4,4.97,13.61-1.58,16.91-6.45,3.25-13.1-6.19-15.15-10.23-2.62-5.17-5.63-13.57-8.01-17.17-.53-.8-1.11-1.51-1.65-2.11l.11-26,1.93.77.33-3.52s4.12-6.77,5.33-9.16c3.27-6.13,3.67-12.32,3.64-15.94,0,0,1.24-1.43,1.47-1.84.63-1.11.62-2.56.62-2.56,0,0-.66-.8-2.06-1.01l3.93-6.19c-.94-.47-2.03-.31-2.79.32-.14-.31-.37-.59-.7-.76-.78-.39-1.72-.08-2.11.7-.39.78-.08,1.72.7,2.11.4.2.83.21,1.22.08,0,.09,0,.17.01.26-.55.48-1.08.88-1.37.96-.82.24-3.07-.16-3.9-.82-.31-.25-.68-.87-1.01-1.53l.32-.26c.13.13.27.26.44.35.8.4,1.78.08,2.19-.72.4-.8.08-1.78-.72-2.19-.42-.21-.87-.22-1.28-.07.1-.85-.42-1.65-1.27-1.86-.85-.21-1.68.28-1.98,1.07-.29-.32-.71-.52-1.17-.52-.9,0-1.63.72-1.64,1.61,0,.9.72,1.63,1.61,1.64.19,0,.38-.05.55-.11l.16.38c-.6.44-1.21.82-1.6.9-1.03.21-3.22-.47-3.84-1.06-.22-.21-.5-.81-.78-1.48.05-.07.09-.15.13-.22.28.3.68.48,1.12.49.87,0,1.58-.69,1.59-1.56,0-.87-.69-1.58-1.56-1.59-.37,0-.7.14-.97.36-.39-.91-1.28-1.55-2.33-1.56l.69,7.59-.15.26-4.4,3.58.08.93.83.06c.25-.11,1.07-.82,1.07-.82l.17.25v.83s-1.08.83-1.08.83l-.76.07.11,1.38,2.2,2.2-2.02,3.08,6.46.26-.81,1.98s-3.32.66-7.17,1.82-7.04,3.25-9.9,5.61c-2.86,2.37-4.62,4.68-4.62,4.68l-1.75,10-1.17,2.65h3.96l-9.68,17.5-1.65-.61-.25-6.08-1.73-3.2-1.82-1.86-1.52-.09s1.5,2.62,1.56,3.71l-1.78,1.88,1.8,4.61-2.5-1.92v-29.77l2.19,1.19-1.14,1.41,1.01.89,1.72.09,10.09,8.43,1.44-8.75-8.46-4.47-.57-1.24-1.7.13-1.25-.86,2.77-3.83.35-3.64-.44-2.57-1.2-.94s-.26,3.01-.82,3.94l-2.3.78-1.28,4.44-.4-.18v-9.64c1.16.02,1.96.06,1.96.06v-6.27s-.81,0-1.96,0v-3h-3.02v2.95c-1.86-.06-3.69-.18-4.4-.41-5.49-1.77-9.36-3.92-14.51-8.03-.86,3.2.03,14.83,5.06,23.24,2.44-3.28,6.19-6.87,8.81-7.82,1.2-.43,3.17-.61,5.04-.68v7.09l-1.12-.7-3.65-.13-2.86.68-.54,1.17s2.6-.05,3.56.47l.85,2.82,3.76.85v.75l-3.76,1.37-2.15,2.84-1.22,3.07.57,1.3s1.98-2.48,2.99-2.89l2.31.75,1.27-.96v25.01l-3.36.49-2.69,1.18-.32,1.25s2.38-.48,3.42-.15l1.42,2.81,1.53.26v3.69l-1.17,1.32-1.64,3.15.47,1.34s1.26-1.34,2.34-2.19v8.35h3.02v-8.31l1.29.45,3.79-4.91,2.81.64.11,2.48.83.77,20.62-25.54.77.64-8.82,10.82.54,1.03,2.04,3.63,2.7,3.41,1.98,7.48c-3.91,1.21-10.73,5.1-10.73,5.1,0,0-1.5,4.73-2.09,7.96-.59,3.23-1.03,8.14-1.03,8.14l1.06,1.98-11.46-1.02-.87-.64-.88-3.67,2.85-3.26.45-3.52-.83-3.39-1.26-.85s.05,2.87-.45,3.83l-2.74.42-.57,4.55-3.34-4.55-2.8-.88-3.82.06-.72,1.06s3.13.74,3.99,1.4l-.76,2.59,3.71,2.05-3.66.57-.41,1.79c-1.02.37-3.15-.21-3.15-.21l.53,1.45,2.46,1.12,2.9.37,3.38-1.62,1.5,2.88-2.6,2.6.33.95h3.59l12.8,3.08,2.49,2.09s1.87-.18,3.74-.66c1.87-.48,2.42-1.43,2.42-1.43l.22-2.86,2.9-5.27-3.49-4.18-.69-9.56,8.3-8.3,3.39-4.92.82.57-3.45,4.99-8.04,8.05.63,8.78,12.72,15.09s.77,4,1.32,10.31c.55,6.31-.19,9.88-.19,9.88l-2.56.46-2.23-4.04-3.5-2.29-2.49-.76-1.38.65s2.58,1.72,3.15,2.65l-.65,3.23,4.21,2.49-.06.47-4.48.7-2.33,1.98-1.44,2.56.5,1.19s1.61-1.82,2.64-2.18l3.18,1.71,3.51-3.18.43.32-1.35,4.09,1.2,3.12,1.33,2.15,1.37.38s-.75-2.86-.43-3.9c0,0,1.95-.97,2.46-1.89l-1.06-4.54c.4-.36,1.96-1.67,2.94-1.57,1.14.12,2.69,2.32,2.69,2.32l1.1-.33s-.48-2.3-.31-4.43c.22-2.83.96-7.05,1.21-14.93l1.32-1.58c.26-1.47.44-3.78.33-5.28,0,0-1.8-1.8-2.2-4.55-.15-1.05-.34-4-.53-7.37l-1.14-15.11-2.02-4.76.92-.39,2.09,5.01.72,9.5c.65,1.02,1.44,2.24,2.01,3.27,3.92,7.19,12.26,15.25,21.78,10.35,9.75-5.02,6.13-16.26,4.63-21.24-.73-2.41-1.66-6.03-2.61-9.6l9.43-4.06-.22-1.14-1.76.4-6.16-1.47-2.27.48-.22-1.03,13.97-6.13-.37-.95-2.82.66-5.58-1.43-4.18.99.22-1.14,15.63-7.01ZM39.64,160.57v-1.31l1.62.28.14.54-1.75.5ZM65.45,125.52c-1.23.15-2.02.73-2.8,2.06-.81,1.37-3.49,6.09-3.49,6.09l-.87-.49s2.69-4.74,3.5-6.1c.66-1.12,1.6-2.3,3.54-2.54,1.54-.19,5.47-.48,5.63-.49l.07,1s-4.07.3-5.58.49ZM93.04,105.82s-.01.79-.54,1.43c-.28.35-1.7,1.92-1.7,1.92l.28-1.61c.06-.33-.07-.66-.34-.86l-1-.76c.96-.31,2.03-.67,3.29-.12ZM75.31,110.34l-.5-2.11,5.65.31.48,2.03-5.63-.23ZM79.55,105.23c-1.05,0-1.61-.43-1.61-1.37,0-.36.14-.68.37-.92l-.16-.18c-1.54.28-2.45.87-2.45.87l-.29-.74,2.52-2.06,13.43,3.25c-.89.1-1.77.32-2.45.57l-.1.02s-1.29-.89-3.45-1.2c-1.52-.22-3.19-.16-4.31-.07.05.15.09.3.09.46,0,.89-.55,1.37-1.6,1.37Z"/><path d="M238.32,155.2l-29.75-55.46v55.46h-9.14v-64.96h13.44l29.66,55.28v-55.28h9.14v64.96h-13.35Z"/><path d="M262.95,142.47c0-11.38,12.9-14.78,32.61-16.93v-1.16c0-8.87-4.84-11.74-10.93-11.74-6.81,0-10.66,3.58-11.02,9.59h-8.42c.72-10.39,10.03-16.22,19.35-16.22,13.53,0,19.26,6.18,19.17,19.89l-.09,11.11c-.09,8.15.27,13.62,1.25,18.19h-8.24c-.27-1.79-.54-3.76-.63-6.63-2.96,5.02-7.88,7.8-16.49,7.8-9.05,0-16.58-5.02-16.58-13.89ZM296.2,131.99c-14.78,1.43-24.19,3.67-24.19,10.3,0,4.57,3.49,7.62,9.32,7.62,7.62,0,14.87-3.49,14.87-14.87v-3.05Z"/><path d="M344.4,121.06c-1.34-5.73-5.65-7.97-11.38-7.97-4.75,0-10.12,1.79-10.12,6.09,0,3.85,2.69,5.55,7.35,6.54l6.81,1.34c8.78,1.61,16.49,5.11,16.49,14.34s-8.6,14.96-19.62,14.96c-12.54,0-19.71-8.33-20.7-16.76h8.6c1.34,6.18,5.11,9.86,12.28,9.86,6.18,0,11.2-2.6,11.2-7.17,0-5.02-4.57-6.81-9.77-7.97l-7.17-1.43c-6.54-1.43-13.71-4.3-13.71-13.35,0-8.51,8.6-13.44,19.26-13.44s17.47,5.73,19,14.96h-8.51Z"/><path d="M364.74,106.99h8.15v50.62c0,10.04-2.06,13.26-11.38,13.26h-4.12v-6.81h2.33c4.21,0,5.02-1.25,5.02-6.27v-50.8ZM372.89,90.24v9.86h-8.15v-9.86h8.15Z"/><path d="M428.89,131.27c0,17.47-11.92,25.09-23.12,25.09s-23.12-7.62-23.12-25.09,11.92-25.09,23.12-25.09,23.12,7.62,23.12,25.09ZM405.77,149.19c7.44,0,14.43-5.56,14.43-17.92s-6.99-17.92-14.43-17.92-14.42,4.75-14.42,17.92,6.99,17.92,14.42,17.92Z"/><path d="M446.81,114.25c2.78-4.57,7.44-8.06,15.59-8.06,11.65,0,15.86,7.53,15.86,18.55v30.46h-8.15v-28.04c0-7.44-1.26-13.89-10.57-13.89-7.89,0-12.72,5.29-12.72,15.77v26.16h-8.15v-48.2h8.15v7.26Z"/><path d="M487.58,142.47c0-11.38,12.9-14.78,32.61-16.93v-1.16c0-8.87-4.84-11.74-10.93-11.74-6.81,0-10.66,3.58-11.02,9.59h-8.42c.72-10.39,10.04-16.22,19.35-16.22,13.53,0,19.27,6.18,19.17,19.89l-.09,11.11c-.09,8.15.27,13.62,1.25,18.19h-8.24c-.27-1.79-.54-3.76-.63-6.63-2.96,5.02-7.88,7.8-16.48,7.8-9.05,0-16.58-5.02-16.58-13.89ZM520.82,131.99c-14.78,1.43-24.19,3.67-24.19,10.3,0,4.57,3.5,7.62,9.32,7.62,7.62,0,14.88-3.49,14.88-14.87v-3.05Z"/><path d="M549.58,155.2h-8.15v-64.96h8.15v64.96Z"/><path d="M559.61,142.47c0-11.38,12.9-14.78,32.61-16.93v-1.16c0-8.87-4.84-11.74-10.93-11.74-6.81,0-10.66,3.58-11.02,9.59h-8.42c.72-10.39,10.03-16.22,19.35-16.22,13.53,0,19.26,6.18,19.17,19.89l-.09,11.11c-.09,8.15.27,13.62,1.25,18.19h-8.24c-.27-1.79-.54-3.76-.63-6.63-2.96,5.02-7.88,7.8-16.49,7.8-9.05,0-16.58-5.02-16.58-13.89ZM592.85,131.99c-14.78,1.43-24.19,3.67-24.19,10.3,0,4.57,3.49,7.62,9.32,7.62,7.62,0,14.87-3.49,14.87-14.87v-3.05Z"/><path d="M637.48,115.5c-1.7-.27-3.23-.36-4.57-.36-7.53,0-11.29,4.03-11.29,14.78v25.27h-8.15v-48.2h7.97v8.42c2.42-5.47,7.26-8.42,13.62-8.69.81,0,1.43,0,2.42.09v8.69Z"/><path d="M653.42,90.24v38.44l19.44-21.68h10.03l-18.37,19.98,20.88,28.22h-9.95l-16.4-22.22-5.64,6.09v16.13h-8.15v-64.96h8.15Z"/><path d="M699.57,90.24v9.86h-8.15v-9.86h8.15ZM699.57,106.99v48.2h-8.15v-48.2h8.15Z"/><path d="M729.04,143.91l13.08-36.91h8.42l-18.19,48.2h-7.26l-18.19-48.2h9.05l13.08,36.91Z"/><path d="M762.47,133.78c.27,10.39,7.8,15.41,14.87,15.41s11.11-3.23,13.17-7.97h8.42c-2.15,8.24-9.86,15.14-21.59,15.14-15.23,0-23.65-10.93-23.65-25.18,0-15.32,10.21-25,23.39-25,14.78,0,23.48,12.28,22.49,27.6h-37.09ZM762.55,126.79h28.4c-.27-6.81-5.2-13.62-13.89-13.62-7.17,0-13.8,3.94-14.52,13.62Z"/><path d="M812.28,94.9h8.15v12.1h9.14v6.54h-9.14v28.58c0,5.02.36,6.27,5.02,6.27h4.12v6.81h-5.91c-9.23,0-11.38-2.06-11.38-12.1v-29.57h-7.62v-6.54h7.62v-12.1Z"/></svg>