<svg width="836" height="258" viewBox="0 0 836 258" fill="none" xmlns="http://www.w3.org/2000/svg">
    <g clip-path="url(#clip0_1_2)">
        <path d="M253.33 240V0H133.33V120L226.67 240H253.33Z" fill="#001538" />
        <path d="M0 0V240H120V120L26.66 0H0Z" fill="#001538" />
        <path d="M333.56 0H343.3L372.2 44.6V0H381.52V59.81H371.86L342.88 15.71V59.81H333.56V0Z"
            fill="#001538" />
        <path
            d="M411.93 15.88C425.03 15.88 434.11 25.04 434.11 38.31C434.11 51.58 425.04 60.65 411.93 60.65C398.82 60.65 389.84 51.58 389.84 38.31C389.84 25.04 398.91 15.88 411.93 15.88ZM411.93 52.76C419.66 52.76 424.7 47.05 424.7 38.23C424.7 29.41 419.66 23.7 411.93 23.7C404.2 23.7 399.25 29.33 399.25 38.23C399.25 47.13 404.29 52.76 411.93 52.76Z"
            fill="#001538" />
        <path
            d="M467.2 16.8V25.03H461.07C453.93 25.03 451.16 29.57 451.16 36.87V59.8H441.92V16.79H450.32L451.41 22.33C453.01 19.31 456.62 16.79 461.57 16.79H467.2V16.8Z"
            fill="#001538" />
        <path
            d="M512.15 16.8V57.12C512.15 69.64 503.75 77.45 490.98 77.45C480.14 77.45 472.33 71.49 470.9 62.5H480.06C481.4 67.46 485.69 69.89 491.06 69.89C498.7 69.89 503.16 65.35 503.16 58.63V51.91C500.72 56.28 495.43 58.88 489.13 58.88C477.96 58.88 469.81 50.73 469.81 37.46C469.81 24.19 477.96 15.96 489.21 15.96C495.51 15.96 500.38 18.48 503.07 22.76L503.99 16.8H512.14H512.15ZM502.99 37.55C502.99 29.57 498.29 24.03 491.06 24.03C483.83 24.03 479.3 29.57 479.3 37.55C479.3 45.53 483.84 50.82 491.06 50.82C498.28 50.82 502.99 45.53 502.99 37.55Z"
            fill="#001538" />
        <path
            d="M562.38 40.82H529.45C529.62 48.88 534.91 53.08 541.63 53.08C546.67 53.08 550.87 50.73 552.63 46.02H561.95C559.68 54.76 551.95 60.64 541.45 60.64C528.6 60.64 520.11 51.74 520.11 38.21C520.11 24.68 528.59 15.87 541.36 15.87C554.13 15.87 562.36 24.44 562.36 37.37V40.81L562.38 40.82ZM529.54 34.44H553.06C552.56 26.96 547.6 23.18 541.38 23.18C535.16 23.18 530.21 26.96 529.54 34.44Z"
            fill="#001538" />
        <path
            d="M576.57 46.79C576.65 51.24 580.77 53.85 586.4 53.85C592.03 53.85 595.39 51.75 595.39 47.97C595.39 44.69 593.71 42.93 588.84 42.17L580.19 40.66C571.79 39.23 568.51 34.86 568.51 28.73C568.51 21 576.15 15.96 585.9 15.96C596.4 15.96 604.04 21 604.13 29.57H595.06C594.98 25.2 591.2 22.77 585.9 22.77C580.6 22.77 577.67 24.87 577.67 28.4C577.67 31.51 579.85 32.94 584.64 33.78L593.12 35.29C601.1 36.72 604.8 40.67 604.8 47.13C604.8 56.03 596.57 60.65 586.57 60.65C575.23 60.65 567.59 55.19 567.42 46.79H576.58H576.57Z"
            fill="#001538" />
        <path
            d="M673.59 43.26C673.59 53.42 666.03 59.81 653.68 59.81H626.8V0H651.75C664.52 0 671.49 6.13001 671.49 15.71C671.49 20.75 669.47 26.29 663.34 28.81C669.89 30.83 673.59 36.37 673.59 43.26ZM651.25 8.23H636.3V25.62H652.01C658.31 25.62 661.92 22.18 661.92 16.88C661.92 11.58 658.39 8.23 651.25 8.23ZM663.68 42.59C663.68 36.79 659.73 33.35 653.18 33.35H636.3V51.58H652.68C659.82 51.58 663.68 48.22 663.68 42.59Z"
            fill="#001538" />
        <path
            d="M721.05 52.92V59.81H715.84C712.31 59.81 709.12 58.47 708.45 54.35C706.01 58.13 700.72 60.65 694 60.65C684.51 60.65 678.46 55.69 678.46 47.46C678.46 40.15 683.08 34.78 694.84 34.78H707.36V32.6C707.36 26.3 703.58 23.36 697.95 23.36C692.32 23.36 688.54 26.22 688.29 30.67H679.81C680.06 21.35 687.71 15.97 698.29 15.97C708.87 15.97 716.6 21.01 716.6 32.69V50.08C716.6 52.43 717.52 52.94 719.46 52.94H721.06L721.05 52.92ZM707.36 41.08H696.1C689.88 41.08 687.95 43.85 687.95 47.04C687.95 51.41 691.39 53.34 696.1 53.34C702.48 53.34 707.36 49.9 707.36 42.84V41.08Z"
            fill="#001538" />
        <path
            d="M766.91 34.1V59.8H757.67V36.03C757.67 27.97 753.55 24.02 747.25 24.02C740.11 24.02 736.25 29.06 736.25 36.7V59.8H727.09V16.79H735.41L736.08 22.59C738.52 18.47 743.14 15.95 749.69 15.95C760.53 15.95 766.91 23.09 766.91 34.09V34.1Z"
            fill="#001538" />
        <path
            d="M775.65 0H784.81V35.87L803.63 16.72H815.05L796.65 35.28L815.21 59.81H803.62L790.1 41.75L785.06 46.87V59.81H775.65V0Z"
            fill="#001538" />
        <path d="M343.05 149.48H333.56V89.67H343.05V149.48Z" fill="#001538" />
        <path
            d="M392.7 123.78V149.48H383.46V125.71C383.46 117.65 379.34 113.7 373.04 113.7C365.9 113.7 362.04 118.74 362.04 126.38V149.48H352.88V106.47H361.2L361.87 112.27C364.31 108.15 368.93 105.63 375.48 105.63C386.32 105.63 392.7 112.77 392.7 123.77V123.78Z"
            fill="#001538" />
        <path
            d="M417.81 139.74L430.49 106.39H440.4L422.76 149.48H412.51L395.29 106.39H404.95L417.8 139.74H417.81Z"
            fill="#001538" />
        <path
            d="M483.67 130.5H450.74C450.91 138.56 456.2 142.76 462.92 142.76C467.96 142.76 472.16 140.41 473.92 135.7H483.24C480.97 144.44 473.24 150.32 462.74 150.32C449.89 150.32 441.4 141.42 441.4 127.89C441.4 114.36 449.88 105.55 462.65 105.55C475.42 105.55 483.65 114.12 483.65 127.05V130.49L483.67 130.5ZM450.83 124.12H474.35C473.85 116.64 468.89 112.86 462.67 112.86C456.45 112.86 451.5 116.64 450.83 124.12Z"
            fill="#001538" />
        <path
            d="M497.86 136.46C497.94 140.91 502.06 143.52 507.69 143.52C513.32 143.52 516.68 141.42 516.68 137.64C516.68 134.36 515 132.6 510.13 131.84L501.48 130.33C493.08 128.9 489.8 124.53 489.8 118.4C489.8 110.67 497.44 105.63 507.19 105.63C517.69 105.63 525.33 110.67 525.42 119.24H516.35C516.27 114.87 512.49 112.44 507.19 112.44C501.89 112.44 498.96 114.54 498.96 118.07C498.96 121.18 501.14 122.61 505.93 123.45L514.41 124.96C522.39 126.39 526.09 130.34 526.09 136.8C526.09 145.7 517.86 150.32 507.86 150.32C496.52 150.32 488.88 144.86 488.71 136.46H497.87H497.86Z"
            fill="#001538" />
        <path
            d="M535.16 137.81V114.63H527.94V106.48H531.64C534.33 106.48 535.17 105.14 535.17 102.45V94.97H544.33V106.48H554.33V114.63H544.33V136.05C544.33 139.49 545.34 141.34 549.37 141.34H554.24V149.49H546.76C539.28 149.49 535.17 145.29 535.17 137.81H535.16Z"
            fill="#001538" />
        <path
            d="M625.54 122.69V149.49H616.22V124.37C616.22 117.06 612.78 113.95 607.32 113.95C601.86 113.95 598.08 117.23 597.83 124.62V149.48H588.84V124.95C588.84 117.47 585.48 113.95 580.02 113.95C574.06 113.95 570.36 117.65 570.36 124.53V149.48H561.2V106.47H569.52L570.61 111.34C572.88 107.56 577.16 105.63 582.2 105.63C588.42 105.63 593.46 108.23 595.98 113.44C598.5 107.98 604.04 105.63 609.42 105.63C618.49 105.63 625.55 111.51 625.55 122.68L625.54 122.69Z"
            fill="#001538" />
        <path
            d="M675.27 130.5H642.34C642.51 138.56 647.8 142.76 654.52 142.76C659.56 142.76 663.76 140.41 665.52 135.7H674.84C672.57 144.44 664.84 150.32 654.34 150.32C641.49 150.32 633 141.42 633 127.89C633 114.36 641.48 105.55 654.25 105.55C667.02 105.55 675.25 114.12 675.25 127.05V130.49L675.27 130.5ZM642.43 124.12H665.95C665.45 116.64 660.49 112.86 654.27 112.86C648.05 112.86 643.1 116.64 642.43 124.12Z"
            fill="#001538" />
        <path
            d="M722.81 123.78V149.48H713.57V125.71C713.57 117.65 709.45 113.7 703.15 113.7C696.01 113.7 692.15 118.74 692.15 126.38V149.48H682.99V106.47H691.31L691.98 112.27C694.42 108.15 699.04 105.63 705.59 105.63C716.43 105.63 722.81 112.77 722.81 123.77V123.78Z"
            fill="#001538" />
        <path
            d="M734.07 137.81V114.63H726.85V106.48H730.55C733.24 106.48 734.08 105.14 734.08 102.45V94.97H743.24V106.48H753.24V114.63H743.24V136.05C743.24 139.49 744.25 141.34 748.28 141.34H753.15V149.49H745.67C738.19 149.49 734.08 145.29 734.08 137.81H734.07Z"
            fill="#001538" />
        <path
            d="M384.55 180.19H395.72V240H386.31V212.7C386.31 207.24 386.48 200.94 387.15 195.9L369.09 240H360.19L342.3 194.89C342.89 200.52 342.97 207.24 342.89 212.7V240H333.57V180.19H345.08L364.82 229.5L384.56 180.19H384.55Z"
            fill="#001538" />
        <path
            d="M446.04 233.11V240H440.83C437.3 240 434.11 238.66 433.44 234.54C431 238.32 425.71 240.84 418.99 240.84C409.5 240.84 403.45 235.88 403.45 227.65C403.45 220.34 408.07 214.97 419.83 214.97H432.35V212.79C432.35 206.49 428.57 203.55 422.94 203.55C417.31 203.55 413.53 206.41 413.28 210.86H404.8C405.05 201.54 412.7 196.16 423.28 196.16C433.86 196.16 441.59 201.2 441.59 212.88V230.27C441.59 232.62 442.51 233.13 444.45 233.13H446.05L446.04 233.11ZM432.35 221.27H421.09C414.87 221.27 412.94 224.04 412.94 227.23C412.94 231.6 416.38 233.53 421.09 233.53C427.47 233.53 432.35 230.09 432.35 223.03V221.27Z"
            fill="#001538" />
        <path
            d="M491.9 214.3V240H482.66V216.23C482.66 208.17 478.54 204.22 472.24 204.22C465.1 204.22 461.24 209.26 461.24 216.9V240H452.08V196.99H460.4L461.07 202.79C463.51 198.67 468.13 196.15 474.68 196.15C485.52 196.15 491.9 203.29 491.9 214.29V214.3Z"
            fill="#001538" />
        <path
            d="M541.12 233.11V240H535.91C532.38 240 529.19 238.66 528.52 234.54C526.08 238.32 520.79 240.84 514.07 240.84C504.58 240.84 498.53 235.88 498.53 227.65C498.53 220.34 503.15 214.97 514.91 214.97H527.43V212.79C527.43 206.49 523.65 203.55 518.02 203.55C512.39 203.55 508.61 206.41 508.36 210.86H499.88C500.13 201.54 507.78 196.16 518.36 196.16C528.94 196.16 536.67 201.2 536.67 212.88V230.27C536.67 232.62 537.59 233.13 539.53 233.13H541.13L541.12 233.11ZM527.43 221.27H516.17C509.95 221.27 508.02 224.04 508.02 227.23C508.02 231.6 511.46 233.53 516.17 233.53C522.55 233.53 527.43 230.09 527.43 223.03V221.27Z"
            fill="#001538" />
        <path
            d="M586.9 196.99V237.31C586.9 249.83 578.5 257.64 565.73 257.64C554.89 257.64 547.08 251.68 545.65 242.69H554.81C556.15 247.65 560.44 250.08 565.81 250.08C573.45 250.08 577.91 245.54 577.91 238.82V232.1C575.47 236.47 570.18 239.07 563.88 239.07C552.71 239.07 544.56 230.92 544.56 217.65C544.56 204.38 552.71 196.15 563.96 196.15C570.26 196.15 575.13 198.67 577.82 202.95L578.74 196.99H586.89H586.9ZM577.74 217.74C577.74 209.76 573.04 204.22 565.81 204.22C558.58 204.22 554.05 209.76 554.05 217.74C554.05 225.72 558.59 231.01 565.81 231.01C573.03 231.01 577.74 225.72 577.74 217.74Z"
            fill="#001538" />
        <path
            d="M636.14 221.02H603.21C603.38 229.08 608.67 233.28 615.39 233.28C620.43 233.28 624.63 230.93 626.39 226.22H635.71C633.44 234.96 625.71 240.84 615.21 240.84C602.36 240.84 593.87 231.94 593.87 218.41C593.87 204.88 602.35 196.07 615.12 196.07C627.89 196.07 636.12 204.64 636.12 217.57V221.01L636.14 221.02ZM603.3 214.64H626.82C626.32 207.16 621.36 203.38 615.14 203.38C608.92 203.38 603.97 207.16 603.3 214.64Z"
            fill="#001538" />
        <path
            d="M708.21 213.2V240H698.89V214.88C698.89 207.57 695.45 204.46 689.99 204.46C684.53 204.46 680.75 207.74 680.5 215.13V239.99H671.51V215.46C671.51 207.98 668.15 204.46 662.69 204.46C656.73 204.46 653.03 208.16 653.03 215.04V239.99H643.87V196.98H652.19L653.28 201.85C655.55 198.07 659.83 196.14 664.87 196.14C671.09 196.14 676.13 198.74 678.65 203.95C681.17 198.49 686.71 196.14 692.09 196.14C701.16 196.14 708.22 202.02 708.22 213.19L708.21 213.2Z"
            fill="#001538" />
        <path
            d="M757.94 221.02H725.01C725.18 229.08 730.47 233.28 737.19 233.28C742.23 233.28 746.43 230.93 748.19 226.22H757.51C755.24 234.96 747.51 240.84 737.01 240.84C724.16 240.84 715.67 231.94 715.67 218.41C715.67 204.88 724.15 196.07 736.92 196.07C749.69 196.07 757.92 204.64 757.92 217.57V221.01L757.94 221.02ZM725.1 214.64H748.62C748.12 207.16 743.16 203.38 736.94 203.38C730.72 203.38 725.77 207.16 725.1 214.64Z"
            fill="#001538" />
        <path
            d="M805.48 214.3V240H796.24V216.23C796.24 208.17 792.12 204.22 785.82 204.22C778.68 204.22 774.82 209.26 774.82 216.9V240H765.66V196.99H773.98L774.65 202.79C777.09 198.67 781.71 196.15 788.26 196.15C799.1 196.15 805.48 203.29 805.48 214.29V214.3Z"
            fill="#001538" />
        <path
            d="M816.73 228.32V205.14H809.51V196.99H813.21C815.9 196.99 816.74 195.65 816.74 192.96V185.48H825.9V196.99H835.9V205.14H825.9V226.56C825.9 230 826.91 231.85 830.94 231.85H835.81V240H828.33C820.85 240 816.74 235.8 816.74 228.32H816.73Z"
            fill="#001538" />
    </g>
    <defs>
        <clipPath id="clip0_1_2">
            <rect width="836" height="258" fill="white" />
        </clipPath>
    </defs>
</svg>