<?xml version="1.0" encoding="UTF-8"?><svg id="Layer_2" xmlns="http://www.w3.org/2000/svg" viewBox="0 0 674.2 200"><defs><style>.cls-1{fill:#020880;}</style></defs><g id="Layer_1-2"><g><path class="cls-1" d="m220.4.1l-44.3,157.5s-5.7.7-8.8-2.5c-10.2-10.6-16.6-43.9-20.4-66.3-4.1-24-7.4-57.1-13-69.7S120.7,0,99.1,0h-43L0,199.8h43L87.8,40.4h4c7.4,0,7.2,6.7,8.3,12.6,1.8,10.7,5.4,37,10.9,66.5,11.9,64.7,39.3,80.3,68,80.3h28.2L263.5,0l-43.1.1Z"/><polygon class="cls-1" points="302.1 0 245.8 199.8 288.9 199.8 345 0 302.1 0"/><path class="cls-1" d="m548.6,40.5h5.8v48c6.5-1.9,13.7-3.4,21.5-4.3,4.8-.6,12.5-.8,21.5-1.2V0h-41.3C537.5,0,520.3,7.7,507.6,20.3c-12.7,12.6-37.6,47.2-52.1,68.8s-37.4,54.3-53.1,66c-4.7,3.4-14.4,2.5-14.4,2.5L428.4,0h-44.6l-53.7,200,49.9-.2c27.2,0,56.6-13.5,100.1-76.3,24.3-35.1,42.5-60.4,50.3-71.1,5.1-6.7,9.9-11.9,18.2-11.9Z"/><path class="cls-1" d="m574.9,118.7c-60.6,7.3-80.4,46.9-80.4,46.9,19.8-8.4,38.4-9.5,59.9-9.9v44.2h43v-46c.3,0,.6,0,.9-.1,64.2-5.8,75.9-56.5,75.9-56.5-23.9,20.1-79.6,19-99.3,21.4Z"/></g></g></svg>