<svg viewBox="0 0 439 36" fill="none" xmlns="http://www.w3.org/2000/svg"><path d="M28.244 7.691l1.94-1.939 3.425 3.426h2.068l-4.46-4.46 4.46-4.395h-2.068l-5.365 5.3v-5.3h-1.422v8.855h1.422V7.69zM1.81 3.167l7.368 6.334V.323H7.756v6.01L.388 0v9.178H1.81V3.167zm2.973 23.267A4.772 4.772 0 000 31.217 4.772 4.772 0 004.783 36a4.772 4.772 0 004.783-4.783 4.772 4.772 0 00-4.783-4.783zm0 8.08a3.31 3.31 0 01-3.296-3.297 3.31 3.31 0 013.296-3.296 3.31 3.31 0 013.296 3.296 3.31 3.31 0 01-3.296 3.296zM16.352 12.15c.13.066.194.195.517.195.194 0 .517.064.647.064l-.194-.258c-.13 0-.259 0-.388-.065-.194 0-.259-.064-.388-.13h-.064c-.065-.064-.13 0-.194 0-.065.066-.065.13.064.195z" fill="#00205B"></path><path d="M24.69 13.637c.71-1.163.258-1.939.194-2.068-.517-.905-1.487-.84-1.745-.71-.97.322-.97 1.227-.97 1.421-.323.388-.775 1.099-.775 1.357.129-.129.646-.581.646-.581s0 .323-.065.581c0 0-.258.388-.323.517-.194.259-.71 1.1-.71 1.616.516-.71 1.744-1.486 1.809-1.55.258-.195.064-.906.064-1.035.065 0 .194.065.194.065.13.194.194.71.065.97.194-.13.388-.647.388-1.229-.065-.452-.065-.517-.259-.71a1.684 1.684 0 00-.452-.195c-.065-.517.323-.775.581-.84.647-.194 1.1.258 1.229.582.387.905-.453 1.874-.647 2.068-.905.97-1.81 1.486-2.197 2.262-.582 1.034-.13 1.68 1.55 3.102.389.323.647.711.712.905.258.97-.776 1.164-1.163 1.099-.84-.194-2.198-1.293-2.392-1.422-.646-.452-1.034-.452-1.034-.452-.13-.84-.13-1.745-.13-2.65v-.194l.26.194v-.647s.516-1.098.71-1.55c.13-.324.259-.712.323-.906.065-.452 0-1.098 0-1.098.13-.13.323-.388.323-.453v-.452a3.013 3.013 0 00-.323-.13l.582-.904c-.13-.065-.259 0-.388.064-.064-.064-.129-.129-.194-.129-.129 0-.258.065-.258.194 0 .13.064.259.194.259h.129l-.194.193-.776-.129-.064-.258a.2.2 0 00.13.064c.128 0 .258-.064.258-.194 0-.129-.065-.258-.194-.258h-.13c0-.13-.064-.194-.193-.259-.13 0-.259.065-.259.194-.065 0-.065-.064-.13-.064-.128 0-.258.064-.258.193 0 .13.065.259.194.259h.194v.065l-.194.194-.775-.13-.065-.258.065.064c.129 0 .258-.064.258-.194 0-.129-.064-.258-.194-.258-.064 0-.194 0-.258.065a.355.355 0 00-.323-.194l.258 1.034s-.582.646-.646.71c0 .065 0 .26.064.389l.259.387-.194.323 1.099.13-.13.323s-1.292.258-1.55.452c-.324.259-.84.776-1.035 1.034l-.452 1.422-.323.582h.71l-1.227 2.52-.194-.064c.064-.194.129-.71.129-.905a1.368 1.368 0 00-.259-.388c-.194-.129-.387-.258-.517-.258.13.13.194.323.259.452-.13.13-.194.259-.259.388 0 .13.13.323.259.517 0 .065.064.065.064.13l-.129.129c-.064-.065-.194-.13-.258-.259v-4.46l.258.194-.129.259.452.065.97.904.323-1.034-.905-.517-.129-.258-.323.064-.065-.064a2.89 2.89 0 00.453-.582v-.452a1.788 1.788 0 00-.324-.518v.518c-.194.064-.323.129-.387.194-.065.064-.065.258-.065.452h-.13v-1.487h.26v-.905h-.26v-.581h-.387v.388h-.453c-.452 0-1.421-.647-2.003-1.164-.065 1.228.194 2.392.71 3.361.26-.323.841-.97 1.035-1.163.258-.194.388-.194.711-.194v1.163c-.065-.064-.13-.129-.194-.129h-.452c-.194.065-.453.194-.517.323h.517c.064.194.129.323.194.388.064.065.258.065.452.065v.193c-.194.065-.453.065-.582.13a2.48 2.48 0 00-.323.387c-.065.194-.13.453-.065.582.065-.13.259-.323.388-.388.194.065.323.13.388.13s.13-.065.13-.13v3.878c-.13 0-.324 0-.453.065a.91.91 0 00-.453.388c.194-.065.388-.065.518-.065.064.194.129.323.193.388h.194v.452a2.016 2.016 0 00-.258.388c-.065.259 0 .452 0 .582l.194-.388v1.163h.387v-1.228h.13c.064-.064.194-.258.323-.452l.13-.194.322.065.259.646 2.779-3.878.194.194-1.163 1.616s.258.323.387.517c.13.323.259.775.259.97-.453.258-1.551 1.033-1.81 1.421-.13.517-.194 1.616-.194 2.262.065.065.259.388.259.388l-1.68 1.616-.453-.065c0-.194 0-.71-.065-.905-.064-.064-.194-.258-.323-.323-.194-.129-.452-.129-.582-.129.13.13.324.259.388.388-.064.13-.129.323-.129.388.065.129.258.323.323.452l-.13.13a5.521 5.521 0 00-.58-.324c-.13 0-.324.065-.453.065-.194.129-.388.323-.388.388.194-.065.388-.065.517-.065.065.194.194.259.259.323.129 0 .452-.064.646-.064l.064.129c-.129.064-.323.194-.387.323 0 .13 0 .258.064.452-.129.065-.258.259-.452.323.13.065.388.065.582 0a2.01 2.01 0 00.387-.258c.065-.13.13-.388.194-.646l.453.064.129.647.517-.711 1.745-1.228c.065 0 .259 0 .388-.065.13-.065.452-.388.452-.388l-.064-.581c.064-.259.452-.712.646-.905-.259-.324-.582-.647-.646-.905v-.065c0-.323.258-1.163.452-1.874v-.065c.13-.388.13-.775.065-1.098l.323.193c.065.259 0 .582-.13.97v.064c-.129.388-.452 1.422-.452 1.746.13.323.776 1.034 1.034 1.163.517.13 2.327.064 2.78.258.452.388 1.292 1.422 1.615 1.94l-.323.129c-.194-.259-.582-.582-.775-.647h-.453c-.194.065-.388.259-.452.323h.517c.064.194.13.324.194.388h.323v.13c-.194 0-.517.064-.646.129l-.324.323c-.064.194-.129.452-.064.582.129-.13.258-.323.387-.388.194.064.324.13.388.13a1.51 1.51 0 00.453-.453l.129.064c-.065.13-.194.194-.194.259 0 .13-.065.323 0 .452.065.194.194.453.323.517v-.517c.194-.064.323-.129.388-.194.065-.129.065-.452.065-.581l.646-.194.905.194-1.551-2.844v-.259c-.065-.194-.388-.581-.517-.646-.13-.065-.324-.065-.453-.13-.646-.322-1.68-1.68-2.585-2.326l.258-.065s.582.453.711.582c.259.194.647.452.84.517 1.229.776 1.81.84 1.94.84.904.065 1.292-.452 1.292-.452.194-.259.582-.905 0-1.68-.129-.194-.71-1.035-.71-1.035l1.357-.775h-.647l-.71-.065-.324.065c0-.065 0-.065-.064-.13l1.81-1.034s-.647.065-.712.065c-.064 0-.775-.065-.775-.065l-.453.13v-.194l2.004-1.099-.711.13-.517-.065-.453.064c.065-.129.647-.905.711-.97.647-.387.97-.84.97-.969zm-10.923 6.076v-.259h.194l.064.194c-.129 0-.193 0-.258.065zm3.878-5.17c-.065 0-.323.064-.453.129-.193.064-.258.129-.323.258-.064.13-.194.388-.387.711h-.259c.194-.388.323-.711.388-.84.064-.194.194-.259.452-.388.13-.065.517-.13.517-.13l.194-.064c-.064.13-.13.194-.13.323zm2.908-2.845c.065 0 .13.065.13.065v.194c-.065.13-.194.258-.194.258 0-.129-.13-.323-.194-.387 0 0 .194-.13.258-.13zm-2.65.776l-.064-.323.97.13.064.258-.97-.065zm.905-1.099c0 .065.065.065.065.13a.544.544 0 01-.453.258.355.355 0 01-.193-.323c-.13.065-.259.065-.388.13l-.065-.13.388-.388 2.198.388-.324.194a3.425 3.425 0 00-1.228-.259zm8.014 15.059v9.178h1.422V29.99l2.973 2.909 2.973-2.909v5.623h1.487v-9.178l-4.46 4.46-4.395-4.46z" fill="#00205B"></path><path d="M65.02 26.434h-.776l-9.5-13.055V25.27h1.874v.905H51.64v-.905h1.874V11.698l-.646-.97h-1.745v-.904h3.62l9.048 12.41V10.728h-1.874v-.905h4.976v.905H65.02v15.705zm12.927-.775l-1.68.517c-.324.13-.647.194-.841.194-.776 0-1.228-.517-1.228-1.487v-.258c-1.034 1.292-2.004 1.81-3.296 1.81-1.68 0-2.973-1.164-2.973-2.844 0-1.293.84-2.327 2.003-2.586l4.201-.97v-2.778c0-.97-.71-1.68-1.745-1.68-.517 0-.84.064-1.55.452v1.163l-2.198.646c-.194-.323-.194-.452-.194-.71 0-1.422 1.68-2.521 3.942-2.521 2.198 0 3.62 1.099 3.62 2.714v7.627h1.874v.71h.065zm-3.749-4.589l-4.201.97v1.227c0 1.035.646 1.68 1.68 1.68.776 0 1.422-.322 2.521-1.292V21.07zm6.269 5.3h-.97v-3.49h1.164v.646c0 1.034 1.357 2.004 2.908 2.004 1.357 0 2.391-.711 2.391-1.68 0-.97-.71-1.552-3.296-2.522-2.391-.904-3.231-1.81-3.231-3.36 0-1.94 1.55-3.232 3.813-3.232 1.099 0 1.939.259 2.65.84l.13-.905h1.033l-.581 3.555h-1.035c.13-.258.13-.581.13-.84 0-.97-1.1-1.745-2.456-1.745-1.293 0-2.133.71-2.133 1.745 0 1.034.194 1.163 3.167 2.391 2.456.97 3.167 1.81 3.167 3.361 0 2.004-1.552 3.361-3.749 3.361-1.357 0-2.456-.323-3.167-.97v.84h.065zm12.215 1.616c-.905 2.133-1.293 2.779-2.844 4.524l-.581-.453c1.422-2.39 1.615-2.973 1.615-5.04V16.351H88.61v-.646l3.555-.97h.453v13.25h.064zM91.648 9.178c.711 0 1.293.581 1.293 1.292 0 .711-.582 1.293-1.293 1.293a1.296 1.296 0 01-1.293-1.293c-.064-.775.582-1.292 1.293-1.292zm3.814 11.375c0-3.296 2.456-5.946 5.429-5.946 2.973 0 5.429 2.65 5.429 5.946s-2.456 5.946-5.429 5.946c-2.973 0-5.43-2.65-5.43-5.946zm2.133 0c0 2.714 1.422 4.847 3.296 4.847 1.874 0 3.296-2.133 3.296-4.847 0-2.78-1.486-4.848-3.296-4.848-1.81 0-3.296 2.133-3.296 4.848zm23.267 5.623h-5.623v-.905h1.874v-7.239c0-1.292-.646-2.133-1.745-2.133-1.034 0-1.68.453-3.813 2.973v6.464h1.874v.905h-5.623v-.905h1.875v-8.92h-2.133v-.646l3.555-.97h.452v2.78c1.874-2.133 2.908-2.844 4.524-2.844 1.81 0 2.973 1.163 2.973 3.102v7.498h1.875v.84h-.065zm11.31-.517l-1.68.517c-.323.13-.646.194-.84.194-.776 0-1.228-.517-1.228-1.487v-.258c-1.035 1.292-2.004 1.81-3.297 1.81-1.68 0-2.973-1.164-2.973-2.844 0-1.293.841-2.327 2.004-2.586l4.201-.97v-2.778c0-.97-.711-1.68-1.745-1.68-.517 0-.84.064-1.551.452v1.163l-2.198.646c-.194-.323-.194-.452-.194-.71 0-1.422 1.681-2.521 3.943-2.521 2.197 0 3.619 1.099 3.619 2.714v7.627h1.875v.71h.064zm-3.813-4.589l-4.201.97v1.227c0 1.035.646 1.68 1.68 1.68.776 0 1.422-.322 2.521-1.292V21.07zm10.535 5.106h-5.623v-.905h1.875V9.566h-2.198v-.647l3.555-.97h.452v17.322h1.875v.905h.064zm12.797 0h-5.623v-.905h1.875V9.566h-2.198v-.647l3.555-.97h.452v17.322h1.875v.905h.064zm6.463 0h-3.037l-5.106-6.075 4.459-4.202h-1.615v-.904h4.912v.904h-1.875l-3.813 3.685 4.718 5.687h1.422v.905h-.065zm.518-5.623c0-3.296 2.456-5.946 5.429-5.946 2.973 0 5.429 2.65 5.429 5.946s-2.456 5.946-5.429 5.946c-2.973 0-5.429-2.65-5.429-5.946zm2.133 0c0 2.714 1.422 4.847 3.296 4.847 1.874 0 3.296-2.133 3.296-4.847 0-2.78-1.486-4.848-3.296-4.848-1.81 0-3.296 2.133-3.296 4.848zm30.7 5.623h-5.623v-.905h1.874v-7.239c0-1.357-.646-2.133-1.745-2.133-.84 0-1.487.388-2.521 1.487l-1.292 1.422v6.463h1.874v.905h-5.623v-.905h1.874v-7.239c0-1.292-.646-2.133-1.745-2.133-1.034 0-1.68.453-3.813 2.973v6.464h1.874v.905h-5.623v-.905h1.875v-8.92h-2.133v-.646l3.555-.97h.452v2.78c1.874-2.133 2.908-2.844 4.524-2.844 1.745 0 2.715.905 2.973 2.844 1.875-2.133 2.909-2.844 4.46-2.844 1.81 0 2.973 1.163 2.973 3.038v7.497h1.874v.905h-.064zm21.651 0h-5.623v-.905h1.874v-7.239c0-1.357-.646-2.133-1.745-2.133-.84 0-1.486.388-2.52 1.487l-1.293 1.422v6.463h1.874v.905H200.1v-.905h1.875v-7.239c0-1.292-.647-2.133-1.745-2.133-1.034 0-1.681.453-3.814 2.973v6.464h1.875v.905h-5.623v-.905h1.874v-8.92h-2.133v-.646l3.555-.97h.452v2.78c1.875-2.133 2.909-2.844 4.525-2.844 1.745 0 2.714.905 2.973 2.844 1.874-2.133 2.908-2.844 4.459-2.844 1.81 0 2.973 1.163 2.973 3.038v7.497h1.875v.905h-.065zm14.091-.711l-3.555.905h-.453v-2.78c-1.809 2.134-2.973 2.91-4.459 2.91-1.875 0-2.973-1.229-2.973-3.168v-6.98h-2.133v-.646l3.555-.97h.452v8.273c0 1.486.582 2.262 1.81 2.262.905 0 1.551-.388 2.65-1.68.258-.259.646-.711 1.163-1.293v-5.946h-1.874v-.776l3.296-.84h.452V24.82h2.133v.646h-.064zm14.219.711h-5.623v-.905h1.874v-7.239c0-1.292-.646-2.133-1.745-2.133-1.034 0-1.681.453-3.813 2.973v6.464h1.874v.905h-5.623v-.905h1.874v-8.92h-2.133v-.646l3.555-.97h.453v2.78c1.874-2.133 2.908-2.844 4.524-2.844 1.809 0 2.973 1.163 2.973 3.102v7.498h1.874v.84h-.064zm6.721 0h-5.623v-.905h1.875v-8.92h-2.133v-.645l3.554-.97h.453v10.535h1.874v.905zm-2.973-16.998c.711 0 1.293.581 1.293 1.292 0 .711-.582 1.293-1.293 1.293a1.297 1.297 0 01-1.293-1.293c.065-.775.582-1.292 1.293-1.292zm9.695 16.998h-5.623v-.905h1.874V9.566h-2.197v-.647l3.555-.97h.452v17.322h1.874v.905h.065zm6.463 0h-3.037l-5.106-6.075 4.459-4.202h-1.616v-.904h4.912v.904h-1.874l-3.813 3.685 4.718 5.687h1.422v.905h-.065zm10.793-.517l-1.68.517c-.323.13-.646.194-.84.194-.776 0-1.228-.517-1.228-1.487v-.258c-1.034 1.292-2.004 1.81-3.296 1.81-1.681 0-2.974-1.164-2.974-2.844 0-1.293.841-2.327 2.004-2.586l4.201-.97v-2.778c0-.97-.711-1.68-1.745-1.68-.517 0-.84.064-1.551.452v1.163l-2.198.646c-.193-.323-.193-.452-.193-.71 0-1.422 1.68-2.521 3.942-2.521 2.198 0 3.619 1.099 3.619 2.714v7.627h1.875v.71h.064zm-3.748-4.589l-4.201.97v1.227c0 1.035.646 1.68 1.68 1.68.776 0 1.422-.322 2.521-1.292V21.07zm6.334 5.3h-.97v-3.49h1.164v.646c0 1.034 1.357 2.004 2.908 2.004 1.357 0 2.392-.711 2.392-1.68 0-.97-.711-1.552-3.297-2.522-2.391-.904-3.231-1.81-3.231-3.36 0-1.94 1.551-3.232 3.813-3.232 1.099 0 1.939.259 2.65.84l.129-.905h1.034l-.581 3.555h-1.034c.129-.258.129-.581.129-.84 0-.97-1.099-1.745-2.456-1.745-1.293 0-2.133.71-2.133 1.745 0 1.034.194 1.163 3.167 2.391 2.456.97 3.167 1.81 3.167 3.361 0 2.004-1.551 3.361-3.749 3.361-1.357 0-2.456-.323-3.167-.97v.84h.065zm12.151 1.616c-.905 2.133-1.293 2.779-2.844 4.524l-.582-.453c1.422-2.39 1.616-2.973 1.616-5.04V16.351h-2.197v-.646l3.554-.97h.453v13.25zm-1.034-18.808c.711 0 1.292.581 1.292 1.292 0 .711-.581 1.293-1.292 1.293a1.297 1.297 0 01-1.293-1.293c0-.775.582-1.292 1.293-1.292zm3.877 11.375c0-3.296 2.456-5.946 5.429-5.946 2.973 0 5.429 2.65 5.429 5.946s-2.456 5.946-5.429 5.946c-3.038 0-5.429-2.65-5.429-5.946zm2.133 0c0 2.714 1.422 4.847 3.296 4.847 1.875 0 3.296-2.133 3.296-4.847 0-2.78-1.486-4.848-3.296-4.848-1.874 0-3.296 2.133-3.296 4.848zm23.203 5.623h-5.623v-.905h1.874v-7.239c0-1.292-.646-2.133-1.745-2.133-1.034 0-1.68.453-3.813 2.973v6.464h1.874v.905h-5.623v-.905h1.874v-8.92h-2.132v-.646l3.554-.97h.453v2.78c1.874-2.133 2.908-2.844 4.524-2.844 1.81 0 2.973 1.163 2.973 3.102v7.498h1.874v.84h-.064zm2.779.194h-.969v-3.49h1.163v.646c0 1.034 1.357 2.004 2.909 2.004 1.357 0 2.391-.711 2.391-1.68 0-.97-.711-1.552-3.296-2.522-2.392-.904-3.232-1.81-3.232-3.36 0-1.94 1.551-3.232 3.813-3.232 1.099 0 1.939.259 2.65.84l.13-.905h1.034l-.582 3.555h-1.034c.129-.258.129-.581.129-.84 0-.97-1.099-1.745-2.456-1.745-1.292 0-2.133.71-2.133 1.745 0 1.034.194 1.163 3.167 2.391 2.456.97 3.167 1.81 3.167 3.361 0 2.004-1.551 3.361-3.748 3.361-1.358 0-2.456-.323-3.167-.97v.84h.064zm29.408-.194h-5.623v-.905h1.874v-7.239c0-1.357-.646-2.133-1.745-2.133-.84 0-1.487.388-2.521 1.487l-1.292 1.422v6.463h1.874v.905h-5.623v-.905h1.874v-7.239c0-1.292-.646-2.133-1.745-2.133-1.034 0-1.68.453-3.813 2.973v6.464h1.874v.905h-5.623v-.905h1.875v-8.92h-2.198v-.646l3.555-.97h.452v2.78c1.875-2.133 2.909-2.844 4.524-2.844 1.746 0 2.715.905 2.974 2.844 1.874-2.133 2.908-2.844 4.459-2.844 1.81 0 2.973 1.163 2.973 3.038v7.497h1.875v.905zm11.31-10.341h-1.034l-4.201 10.858c-.582 1.486-1.486 3.231-2.327 4.46-.194.323-.517.71-.969 1.357l-1.616-1.68c1.357-.776 1.81-1.164 2.585-2.133.711-.905 1.034-1.487 1.616-3.038l-4.007-9.824h-1.034v-.905h4.783v.905h-1.745l2.973 7.303 2.779-7.303H354.7v-.905h3.814v.905h.064zm13.896 10.341h-5.623v-.905h1.875v-7.239c0-1.292-.647-2.133-1.745-2.133-1.034 0-1.681.453-3.814 2.973v6.464h1.875v.905h-5.623v-.905h1.874v-8.92h-2.133v-.646l3.555-.97h.452v2.78c1.875-2.133 2.909-2.844 4.525-2.844 1.809 0 2.973 1.163 2.973 3.102v7.498h1.874v.84h-.065zm13.379-.711l-3.555.97h-.452v-1.746c-1.358 1.358-2.198 1.81-3.491 1.81-2.585 0-4.588-2.52-4.588-5.688 0-3.425 2.649-6.14 5.881-6.14.84 0 1.293.13 2.198.647V9.63h-2.133v-.646l3.555-.97h.452v16.87h2.133v.58zm-4.007-2.004V17.71c0-1.551-.517-2.068-1.939-2.068-2.392 0-4.008 1.874-4.008 4.783 0 2.779 1.228 4.46 3.232 4.46.776 0 1.163-.13 2.004-.841.129-.13.387-.323.711-.582zm10.729 2.715h-5.623v-.905h1.874v-8.92h-2.133v-.645l3.555-.97h.453v10.535h1.874v.905zm-2.909-16.998c.711 0 1.293.581 1.293 1.292 0 .711-.582 1.293-1.293 1.293a1.296 1.296 0 01-1.292-1.293c0-.775.581-1.292 1.292-1.292zm15.383 7.368h-2.133c.582.71.775 1.292.775 2.326 0 2.65-1.809 4.266-4.718 4.266-.711 0-1.034-.065-1.745-.323-.711.776-1.034 1.228-1.034 1.68 0 .453.259.647.711.647h6.205c1.163 0 1.874.84 1.874 2.262 0 2.78-2.844 5.106-6.334 5.106-2.133 0-3.49-.711-4.847-2.52.517-1.358.711-1.681 1.939-3.168-.711-.13-1.099-.388-1.875-1.228.841-1.486 1.228-1.939 2.586-3.102-1.487-.84-2.133-1.94-2.133-3.49 0-2.65 1.809-4.33 4.653-4.33 1.034 0 1.358.129 2.715.71h1.616l1.745-.452v1.616zm-8.338 10.405c-.646.905-.84 1.358-.84 2.069 0 1.486 1.357 2.52 3.361 2.52 2.197 0 4.007-1.486 4.007-3.296 0-.776-.388-1.293-.969-1.293h-5.559zm2.327-4.782c1.616 0 2.714-1.293 2.714-3.297 0-2.003-1.034-3.296-2.714-3.296-1.681 0-2.715 1.293-2.715 3.296.065 2.004 1.099 3.297 2.715 3.297zm20.101 4.007h-5.623v-.905h1.874v-7.239c0-1.292-.646-2.133-1.745-2.133-1.099 0-1.681.453-3.813 2.973v6.464h1.874v.905h-5.623v-.905h1.874V9.63h-2.197v-.646l3.555-.97h.452v9.566c1.874-2.133 2.908-2.844 4.46-2.844 1.809 0 2.973 1.163 2.973 3.102v7.498h1.874v.84h.065zm10.728-1.034c-1.874 1.034-2.714 1.357-4.136 1.357-3.167 0-5.365-2.456-5.365-5.817 0-3.49 2.262-6.01 5.3-6.01 2.65 0 4.524 1.81 4.524 4.524v.646h-7.82v.259c0 3.102 1.616 5.235 4.007 5.235.969 0 1.68-.259 3.038-1.164l.452.97zm-1.745-6.334v-.582c0-1.486-1.034-2.52-2.456-2.52-1.81 0-3.038 1.227-3.296 3.166h5.752v-.064zm10.341 6.334c-1.292 1.034-1.81 1.293-2.714 1.293-1.422 0-2.327-.905-2.327-2.392v-7.627h-2.133v-.646l2.133-.517v-3.425h1.81v3.49h3.037v1.163h-3.037v7.433c0 .97.323 1.292 1.163 1.292.517 0 .84-.129 1.68-.581l.388.517z" fill="#2E2014"></path></svg>