<svg xmlns="http://www.w3.org/2000/svg" viewBox="-1 -1 40 40" overflow="hidden">
  <path d="M28.244 7.691l1.94-1.939 3.425 3.426h2.068l-4.46-4.46 4.46-4.395h-2.068l-5.365 5.3v-5.3h-1.422v8.855h1.422V7.69zM1.81 3.167l7.368 6.334V.323H7.756v6.01L.388 0v9.178H1.81V3.167zm2.973 23.267A4.772 4.772 0 000 31.217 4.772 4.772 0 004.783 36a4.772 4.772 0 004.783-4.783 4.772 4.772 0 00-4.783-4.783zm0 8.08a3.31 3.31 0 01-3.296-3.297 3.31 3.31 0 013.296-3.296 3.31 3.31 0 013.296 3.296 3.31 3.31 0 01-3.296 3.296zM16.352 12.15c.13.066.194.195.517.195.194 0 .517.064.647.064l-.194-.258c-.13 0-.259 0-.388-.065-.194 0-.259-.064-.388-.13h-.064c-.065-.064-.13 0-.194 0-.065.066-.065.13.064.195z" fill="#ffffff"></path>
  <path d="M24.69 13.637c.71-1.163.258-1.939.194-2.068-.517-.905-1.487-.84-1.745-.71-.97.322-.97 1.227-.97 1.421-.323.388-.775 1.099-.775 1.357.129-.129.646-.581.646-.581s0 .323-.065.581c0 0-.258.388-.323.517-.194.259-.71 1.1-.71 1.616.516-.71 1.744-1.486 1.809-1.55.258-.195.064-.906.064-1.035.065 0 .194.065.194.065.13.194.194.71.065.97.194-.13.388-.647.388-1.229-.065-.452-.065-.517-.259-.71a1.684 1.684 0 00-.452-.195c-.065-.517.323-.775.581-.84.647-.194 1.1.258 1.229.582.387.905-.453 1.874-.647 2.068-.905.97-1.81 1.486-2.197 2.262-.582 1.034-.13 1.68 1.55 3.102.389.323.647.711.712.905.258.97-.776 1.164-1.163 1.099-.84-.194-2.198-1.293-2.392-1.422-.646-.452-1.034-.452-1.034-.452-.13-.84-.13-1.745-.13-2.65v-.194l.26.194v-.647s.516-1.098.71-1.55c.13-.324.259-.712.323-.906.065-.452 0-1.098 0-1.098.13-.13.323-.388.323-.453v-.452a3.013 3.013 0 00-.323-.13l.582-.904c-.13-.065-.259 0-.388.064-.064-.064-.129-.129-.194-.129-.129 0-.258.065-.258.194 0 .13.064.259.194.259h.129l-.194.193-.776-.129-.064-.258a.2.2 0 00.13.064c.128 0 .258-.064.258-.194 0-.129-.065-.258-.194-.258h-.13c0-.13-.064-.194-.193-.259-.13 0-.259.065-.259.194-.065 0-.065-.064-.13-.064-.128 0-.258.064-.258.193 0 .13.065.259.194.259h.194v.065l-.194.194-.775-.13-.065-.258.065.064c.129 0 .258-.064.258-.194 0-.129-.064-.258-.194-.258-.064 0-.194 0-.258.065a.355.355 0 00-.323-.194l.258 1.034s-.582.646-.646.71c0 .065 0 .26.064.389l.259.387-.194.323 1.099.13-.13.323s-1.292.258-1.55.452c-.324.259-.84.776-1.035 1.034l-.452 1.422-.323.582h.71l-1.227 2.52-.194-.064c.064-.194.129-.71.129-.905a1.368 1.368 0 00-.259-.388c-.194-.129-.387-.258-.517-.258.13.13.194.323.259.452-.13.13-.194.259-.259.388 0 .13.13.323.259.517 0 .065.064.065.064.13l-.129.129c-.064-.065-.194-.13-.258-.259v-4.46l.258.194-.129.259.452.065.97.904.323-1.034-.905-.517-.129-.258-.323.064-.065-.064a2.89 2.89 0 00.453-.582v-.452a1.788 1.788 0 00-.324-.518v.518c-.194.064-.323.129-.387.194-.065.064-.065.258-.065.452h-.13v-1.487h.26v-.905h-.26v-.581h-.387v.388h-.453c-.452 0-1.421-.647-2.003-1.164-.065 1.228.194 2.392.71 3.361.26-.323.841-.97 1.035-1.163.258-.194.388-.194.711-.194v1.163c-.065-.064-.13-.129-.194-.129h-.452c-.194.065-.453.194-.517.323h.517c.064.194.129.323.194.388.064.065.258.065.452.065v.193c-.194.065-.453.065-.582.13a2.48 2.48 0 00-.323.387c-.065.194-.13.453-.065.582.065-.13.259-.323.388-.388.194.065.323.13.388.13s.13-.065.13-.13v3.878c-.13 0-.324 0-.453.065a.91.91 0 00-.453.388c.194-.065.388-.065.518-.065.064.194.129.323.193.388h.194v.452a2.016 2.016 0 00-.258.388c-.065.259 0 .452 0 .582l.194-.388v1.163h.387v-1.228h.13c.064-.064.194-.258.323-.452l.13-.194.322.065.259.646 2.779-3.878.194.194-1.163 1.616s.258.323.387.517c.13.323.259.775.259.97-.453.258-1.551 1.033-1.81 1.421-.13.517-.194 1.616-.194 2.262.065.065.259.388.259.388l-1.68 1.616-.453-.065c0-.194 0-.71-.065-.905-.064-.064-.194-.258-.323-.323-.194-.129-.452-.129-.582-.129.13.13.324.259.388.388-.064.13-.129.323-.129.388.065.129.258.323.323.452l-.13.13a5.521 5.521 0 00-.58-.324c-.13 0-.324.065-.453.065-.194.129-.388.323-.388.388.194-.065.388-.065.517-.065.065.194.194.259.259.323.129 0 .452-.064.646-.064l.064.129c-.129.064-.323.194-.387.323 0 .13 0 .258.064.452-.129.065-.258.259-.452.323.13.065.388.065.582 0a2.01 2.01 0 00.387-.258c.065-.13.13-.388.194-.646l.453.064.129.647.517-.711 1.745-1.228c.065 0 .259 0 .388-.065.13-.065.452-.388.452-.388l-.064-.581c.064-.259.452-.712.646-.905-.259-.324-.582-.647-.646-.905v-.065c0-.323.258-1.163.452-1.874v-.065c.13-.388.13-.775.065-1.098l.323.193c.065.259 0 .582-.13.97v.064c-.129.388-.452 1.422-.452 1.746.13.323.776 1.034 1.034 1.163.517.13 2.327.064 2.78.258.452.388 1.292 1.422 1.615 1.94l-.323.129c-.194-.259-.582-.582-.775-.647h-.453c-.194.065-.388.259-.452.323h.517c.064.194.13.324.194.388h.323v.13c-.194 0-.517.064-.646.129l-.324.323c-.064.194-.129.452-.064.582.129-.13.258-.323.387-.388.194.064.324.13.388.13a1.51 1.51 0 00.453-.453l.129.064c-.065.13-.194.194-.194.259 0 .13-.065.323 0 .452.065.194.194.453.323.517v-.517c.194-.064.323-.129.388-.194.065-.129.065-.452.065-.581l.646-.194.905.194-1.551-2.844v-.259c-.065-.194-.388-.581-.517-.646-.13-.065-.324-.065-.453-.13-.646-.322-1.68-1.68-2.585-2.326l.258-.065s.582.453.711.582c.259.194.647.452.84.517 1.229.776 1.81.84 1.94.84.904.065 1.292-.452 1.292-.452.194-.259.582-.905 0-1.68-.129-.194-.71-1.035-.71-1.035l1.357-.775h-.647l-.71-.065-.324.065c0-.065 0-.065-.064-.13l1.81-1.034s-.647.065-.712.065c-.064 0-.775-.065-.775-.065l-.453.13v-.194l2.004-1.099-.711.13-.517-.065-.453.064c.065-.129.647-.905.711-.97.647-.387.97-.84.97-.969zm-10.923 6.076v-.259h.194l.064.194c-.129 0-.193 0-.258.065zm3.878-5.17c-.065 0-.323.064-.453.129-.193.064-.258.129-.323.258-.064.13-.194.388-.387.711h-.259c.194-.388.323-.711.388-.84.064-.194.194-.259.452-.388.13-.065.517-.13.517-.13l.194-.064c-.064.13-.13.194-.13.323zm2.908-2.845c.065 0 .13.065.13.065v.194c-.065.13-.194.258-.194.258 0-.129-.13-.323-.194-.387 0 0 .194-.13.258-.13zm-2.65.776l-.064-.323.97.13.064.258-.97-.065zm.905-1.099c0 .065.065.065.065.13a.544.544 0 01-.453.258.355.355 0 01-.193-.323c-.13.065-.259.065-.388.13l-.065-.13.388-.388 2.198.388-.324.194a3.425 3.425 0 00-1.228-.259zm8.014 15.059v9.178h1.422V29.99l2.973 2.909 2.973-2.909v5.623h1.487v-9.178l-4.46 4.46-4.395-4.46z" fill="#ffffff"></path>
</svg>