<svg xmlns="http://www.w3.org/2000/svg" viewBox="-2 -2 42 42" overflow="hidden">
  <path d="M4.58037 30.9994C1.7387 27.7349 0 23.4089 0 18.7872C0 8.48212 8.4392 0 18.7872 0C29.1351 0 37.5743 8.48212 37.5743 18.7872C37.5743 23.4089 35.8356 27.7349 32.994 31.001C35.8356 34.3083 37.5743 38.5915 37.5743 43.2148C37.5743 53.5627 29.178 62.0432 18.7872 62.0432C8.39629 62.0432 0 53.5611 0 43.2132C0 38.5915 1.7387 34.3083 4.58037 30.9994ZM1.90875 18.7872C1.90875 22.9432 3.35025 26.7178 5.85341 29.6437C8.90646 26.7607 12.9783 24.8519 17.4315 24.5118C13.4026 20.9073 7.93222 18.2786 1.91034 18.1514V18.7872H1.90875ZM8.65217 42.3232C8.7364 39.9058 9.20366 37.5314 9.88229 35.2841C8.39788 34.5213 7.08353 33.5025 5.85341 32.4011C3.56322 35.1157 2.12172 38.5502 1.90875 42.3248H8.65217V42.3232ZM5.85341 54.1555C7.12485 52.9683 8.44079 51.9925 9.9252 51.2296C9.20366 48.9823 8.73799 46.6079 8.65376 44.1906H1.90875C2.12013 47.9652 3.56322 51.4426 5.85341 54.1571V54.1555ZM17.8542 22.4346V18.3215C14.7154 15.6928 9.3308 13.0212 3.05464 12.5539C2.58739 13.7411 2.24887 15.0142 2.07881 16.2856C8.65217 16.497 14.3339 19.4245 17.8542 22.4346ZM17.8542 15.9455V12.0437C14.2926 9.62641 10.5593 8.142 6.31907 7.37914C5.38615 8.39629 4.58037 9.49927 3.94465 10.7294C9.71224 11.2809 13.8254 13.231 17.8542 15.9455ZM10.5593 33.5025C11.5765 31.001 13.0196 28.7108 14.7996 26.8449C11.8737 27.5665 9.2863 29.008 7.16617 31.001C8.142 32.0181 9.32922 32.8239 10.5593 33.5025ZM14.8425 59.6688C13.0609 57.7601 11.5765 55.4699 10.5593 52.9683C9.37213 53.6899 8.18492 54.537 7.16617 55.5128C9.2863 57.4629 11.9166 58.9902 14.8425 59.6688ZM17.8542 9.83938V1.86584C14.1226 2.12013 10.6881 3.56163 7.97354 5.76758C11.2396 6.53045 15.2255 8.01486 17.8542 9.83938ZM17.8542 42.3232V37.5314C15.6483 37.4472 13.5282 36.937 11.5781 36.0899C10.9837 38.04 10.6022 40.203 10.518 42.3232H17.8542ZM11.5781 50.3809C13.5711 49.5752 15.6912 49.1095 17.8542 49.0237V44.189H10.518C10.6022 46.3521 10.9424 48.3879 11.5781 50.3809ZM17.8542 35.6656V26.4206C15.394 28.4978 13.4868 31.2123 12.2138 34.3512C13.9525 35.1141 15.8613 35.4955 17.8542 35.6656ZM17.8542 60.0073V50.8466C15.9042 50.9737 13.9954 51.441 12.2567 52.161C13.5282 55.214 15.3956 57.9285 17.8542 60.0058V60.0073ZM29.6008 5.76758C26.8863 3.56163 23.4947 2.12013 19.7614 1.86584V9.83779C22.3901 8.01486 26.3348 6.53045 29.6008 5.76599V5.76758ZM33.7139 10.7294C32.9924 9.49927 32.1866 8.39629 31.2966 7.37914C27.0563 8.142 23.2817 9.58509 19.7614 12.0437V15.9455C23.6631 13.1896 28.0306 11.2809 33.7139 10.7294ZM35.4955 16.2856C35.3255 15.0142 34.9869 13.7411 34.5197 12.5539C28.9222 12.9783 23.4518 15.1826 19.7614 18.3215V22.4346C23.6631 19.1273 29.2607 16.497 35.4955 16.2856ZM25.3605 34.3512C24.1304 31.2123 22.2216 28.4994 19.763 26.4206V35.6656C21.7131 35.4955 23.6218 35.1141 25.3605 34.3512ZM27.0563 42.3232C26.9721 40.203 26.632 38.04 26.0392 36.0899C24.0462 36.9386 21.926 37.4472 19.763 37.5314V42.3232H27.0579H27.0563ZM25.9962 50.3809C26.632 48.3879 27.0134 46.3091 27.0992 44.189H19.763V49.0237C21.926 49.1079 24.0462 49.5752 25.9962 50.3809ZM25.3605 52.1625C23.5789 51.3997 21.6717 50.9324 19.763 50.8482V60.0089C22.2232 57.9317 24.0891 55.2172 25.3605 52.1641V52.1625ZM31.7209 29.6437C34.2225 26.7178 35.7069 22.9432 35.7069 18.7872C35.7069 18.5329 35.7069 18.3199 35.664 18.1514C29.5579 18.2786 24.0446 20.9931 20.1428 24.5118C24.6803 24.8504 28.7092 26.7591 31.7209 29.6437ZM30.4495 55.4699C29.4323 54.494 28.2435 53.604 27.0563 52.9683C25.9962 55.4286 24.5547 57.7601 22.7302 59.6688C25.6561 58.9902 28.3278 57.4629 30.4479 55.4699H30.4495ZM27.0563 33.5025C28.2864 32.8239 29.4307 32.0181 30.4495 31.001C28.3293 29.008 25.699 27.5665 22.816 26.8449C24.639 28.7108 26.0392 31.001 27.0563 33.5025ZM28.9651 42.3232H35.6656C35.4542 38.5486 34.054 35.1141 31.7209 32.3996C30.5337 33.5025 29.1764 34.5197 27.692 35.2825C28.4136 37.5298 28.8792 39.9042 28.9635 42.3216L28.9651 42.3232ZM31.7638 54.1555C34.054 51.3997 35.4526 47.9223 35.6656 44.189H28.9651C28.8808 46.6063 28.4136 48.9808 27.6936 51.228C29.178 51.9909 30.4924 52.9238 31.7654 54.1539L31.7638 54.1555Z" fill="#fff"></path>
</svg>