<svg width="208" height="51" viewBox="0 0 208 51" fill="none" xmlns="http://www.w3.org/2000/svg">
	<path d="M53.8252 51V0H28.3252V25.5L48.1727 51H53.8252Z" fill="#051838"/>
	<path d="M0 0V51H25.5V25.5L5.67375 0H0Z" fill="#051838"/>
	<path d="M70.8047 17.001H73.5672L81.7909 29.6872V17.001H84.4472V34.001H81.7059L73.4609 21.4635V34.001H70.8047V17.001Z" fill="#051838"/>
	<path d="M93.0957 21.5059C96.8144 21.5059 99.4069 24.0984 99.4069 27.8809C99.4069 31.6634 96.8357 34.2346 93.0957 34.2346C89.3982 34.2346 86.8057 31.6634 86.8057 27.8809C86.8057 24.0984 89.3769 21.5059 93.0957 21.5059ZM93.0957 32.0034C95.2844 32.0034 96.7294 30.3884 96.7294 27.8809C96.7294 25.3521 95.3057 23.7584 93.0957 23.7584C90.9282 23.7584 89.4832 25.3521 89.4832 27.8809C89.4832 30.3671 90.9069 32.0034 93.0957 32.0034Z" fill="#051838"/>
	<path d="M108.799 21.7822V24.1197H107.057C105.017 24.1197 104.231 25.416 104.231 27.4772V34.001H101.596V21.7822H103.976L104.294 23.3547C104.741 22.5047 105.782 21.7822 107.184 21.7822H108.799Z" fill="#051838"/>
	<path d="M121.571 21.7821V33.2359C121.571 36.7846 119.191 39.0159 115.557 39.0159C112.476 39.0159 110.266 37.3159 109.841 34.7659H112.434C112.816 36.1684 114.027 36.8696 115.557 36.8696C117.725 36.8696 119 35.5734 119 33.6609V31.7484C118.299 32.9809 116.811 33.7246 115.005 33.7246C111.839 33.7246 109.522 31.4084 109.522 27.6259C109.522 23.8009 111.839 21.5059 115.047 21.5059C116.832 21.5059 118.214 22.2284 118.979 23.4396L119.234 21.7396L121.571 21.7821ZM118.979 27.6684C118.979 25.3946 117.64 23.8221 115.579 23.8221C113.517 23.8221 112.242 25.3946 112.242 27.6684C112.242 29.9421 113.539 31.4509 115.579 31.4509C117.619 31.4509 118.979 29.9421 118.979 27.6684Z" fill="#051838"/>
	<path d="M135.851 28.6036H126.501C126.544 30.8986 128.052 32.0886 129.965 32.0886C131.389 32.0886 132.6 31.4298 133.089 30.0911H135.745C135.107 32.5773 132.897 34.2561 129.922 34.2561C126.267 34.2561 123.866 31.7273 123.866 27.8811C123.866 24.0561 126.267 21.5273 129.901 21.5273C133.45 21.5273 135.872 23.9711 135.872 27.6473V28.6036H135.851ZM126.522 26.7973H133.216C133.067 24.6723 131.665 23.5886 129.901 23.5886C128.137 23.5886 126.714 24.6723 126.522 26.7973Z" fill="#051838"/>
	<path d="M139.888 30.3034C139.909 31.5784 141.078 32.3009 142.672 32.3009C144.266 32.3009 145.222 31.7059 145.222 30.6221C145.222 29.6871 144.754 29.1984 143.352 28.9646L140.887 28.5396C138.507 28.1359 137.572 26.8821 137.572 25.1396C137.572 22.9509 139.739 21.5059 142.523 21.5059C145.498 21.5059 147.687 22.9296 147.708 25.3734H145.137C145.116 24.1409 144.032 23.4396 142.544 23.4396C141.121 23.4396 140.207 24.0346 140.207 25.0334C140.207 25.9259 140.823 26.3296 142.183 26.5634L144.584 26.9884C146.858 27.3921 147.899 28.5184 147.899 30.3459C147.899 32.8746 145.562 34.1921 142.714 34.1921C139.484 34.1921 137.317 32.6409 137.274 30.2609H139.888V30.3034Z" fill="#051838"/>
	<path d="M167.469 29.3047C167.469 32.1947 165.323 34.001 161.817 34.001H154.167V17.001H161.264C164.898 17.001 166.874 18.7435 166.874 21.4635C166.874 22.8872 166.301 24.481 164.558 25.1822C166.407 25.756 167.469 27.3497 167.469 29.3047ZM161.116 19.3385H156.866V24.2897H161.328C163.113 24.2897 164.154 23.3122 164.154 21.8035C164.133 20.3372 163.134 19.3385 161.116 19.3385ZM164.643 29.1135C164.643 27.456 163.517 26.4785 161.668 26.4785H156.866V31.6635H161.519C163.538 31.6635 164.643 30.7072 164.643 29.1135Z" fill="#051838"/>
	<path d="M193.991 26.6905V34.0005H191.356V27.243C191.356 24.948 190.187 23.8218 188.402 23.8218C186.362 23.8218 185.278 25.2455 185.278 27.4343V34.0005H182.686V21.7818H185.044L185.236 23.4393C185.937 22.2705 187.233 21.548 189.103 21.548C192.184 21.5268 193.991 23.5668 193.991 26.6905Z" fill="#051838"/>
	<path d="M196.477 17.001H199.069V27.201L204.424 21.761H207.675L202.448 27.031L207.718 34.001H204.424L200.578 28.8585L199.154 30.3247V34.001H196.477V17.001Z" fill="#051838"/>
	<path d="M181.177 32.0461V34.0011H179.689C178.691 34.0011 177.777 33.6186 177.586 32.4498C176.884 33.5336 175.397 34.2348 173.484 34.2348C170.786 34.2348 169.064 32.8323 169.064 30.4948C169.064 28.4123 170.382 26.8823 173.718 26.8823H177.267V26.2661C177.267 24.4811 176.183 23.6311 174.589 23.6311C172.974 23.6311 171.912 24.4386 171.848 25.7136H169.447C169.511 23.0573 171.699 21.5273 174.696 21.5273C177.564 21.5273 179.902 22.9511 179.902 26.2873V31.2386C179.902 31.8973 180.157 32.0461 180.709 32.0461H181.177ZM177.288 28.6673H174.079C172.316 28.6673 171.763 29.4536 171.763 30.3673C171.763 31.5998 172.741 32.1523 174.079 32.1523C175.886 32.1523 177.288 31.1748 177.288 29.1773V28.6673Z" fill="#051838"/>
</svg>
