<svg xmlns="http://www.w3.org/2000/svg" width="120" height="28" viewBox="0 0 120 28">
  <g fill-rule="evenodd" transform="translate(0 4)">
    <path d="M15.8248451,20 L19.8903882,15.9120571 L10.8667907,15.0146857 L15.8248451,20 Z M15.8248451,0 L14.9324476,9.07331429 L19.8904451,4.08794286 L15.8248451,0 Z M4.06557727,20 L14.0107827,10 L5.88066251,10 L4.06557727,20 Z M3.40978474e-05,4.088 L14.0107827,10 L4.06557727,0 L3.40978474e-05,4.088 Z"/>
    <path fill-opacity=".55" d="M10.8668646,4.98530857 L14.9324646,9.07330857 L15.8248621,-5.71428572e-06 L10.8668646,4.98530857 Z M5.88067956,9.99999429 L14.010743,9.99999429 L-5.68297456e-06,4.08799429 L5.88067956,9.99999429 Z M-5.68297456e-06,15.9120514 L4.06553749,19.9999943 L5.88067956,9.99999429 L-5.68297456e-06,15.9120514 Z M10.8668078,15.01468 L19.8904053,15.9120514 L14.9324078,10.9267371 L10.8668078,15.01468 Z"/>
    <path d="M69.2190791,10.2692514 C68.1427237,10.2692514 67.3314791,9.34370857 67.3314791,7.93199429 C67.3314791,6.50445143 68.1427237,5.56325143 69.2190791,5.56325143 C70.2332059,5.56325143 70.9663665,6.45736571 70.9663665,7.93199429 C70.9663665,9.48479429 70.2955481,10.2692514 69.2190791,10.2692514 Z M69.640358,3.55536571 C68.454719,3.55536571 67.5810753,4.07296571 67.0349983,4.98290857 L66.5982049,3.77508 L65.1473983,3.77508 L65.1473983,15.3829657 L67.4562772,15.3829657 L67.4562772,11.3359371 C68.0023542,11.9477086 68.7511998,12.3085657 69.6559293,12.3085657 C71.9024092,12.3085657 73.2908735,10.7241086 73.2908735,7.93199429 C73.2908735,5.13965143 71.9180374,3.55536571 69.640358,3.55536571 Z M74.3141499,12.0889086 L76.6230288,12.0889086 L76.6230288,3.77508 L74.3141499,3.77508 L74.3141499,12.0889086 Z M60.1043267,10.2692514 C59.0278576,10.2692514 58.216613,9.34370857 58.216613,7.93199429 C58.216613,6.50445143 59.0278576,5.56325143 60.1043267,5.56325143 C61.118283,5.56325143 61.8515572,6.45736571 61.8515572,7.93199429 C61.8515572,9.48479429 61.1807957,10.2692514 60.1043267,10.2692514 Z M60.5254919,3.55536571 C59.3398529,3.55536571 58.4662093,4.07296571 57.9203027,4.98290857 L57.4833956,3.77508 L56.0325322,3.77508 L56.0325322,15.3829657 L58.3414111,15.3829657 L58.3414111,11.3359371 C58.8873745,11.9477086 59.6362201,12.3085657 60.5411769,12.3085657 C62.7876,12.3085657 64.1760643,10.7241086 64.1760643,7.93199429 C64.1760643,5.13965143 62.8032281,3.55536571 60.5254919,3.55536571 Z M53.3137404,0.08868 C52.5181808,0.08868 51.8785052,0.731822857 51.8785052,1.53182286 C51.8785052,2.33176571 52.5181808,2.99068 53.3137404,2.99068 C54.1094137,2.99068 54.7646038,2.33176571 54.7646038,1.53182286 C54.7646038,0.731822857 54.1094137,0.08868 53.3137404,0.08868 Z M90.0037061,7.66536571 C89.2549174,7.66536571 88.7868676,7.19462286 88.7868676,6.44170857 C88.7868676,5.68873714 89.2704887,5.21805143 90.0349056,5.21805143 C90.7837512,5.21805143 91.2206014,5.67308 91.2206014,6.44170857 C91.2206014,7.19462286 90.768123,7.66536571 90.0037061,7.66536571 Z M88.7712394,12.0418229 L90.7369803,12.0418229 C91.5482249,12.0418229 91.9070479,12.3085657 91.9070479,12.8889086 C91.9070479,13.5320514 91.2673723,13.87708 90.0505906,13.87708 C88.9428652,13.87708 88.334446,13.5320514 88.334446,12.9045657 C88.334446,12.5595371 88.4904436,12.2456514 88.7712394,12.0418229 Z M94.5903212,3.55536571 L94.3562963,3.55536571 C93.5451085,3.55536571 93.0146597,3.75925143 92.43744,4.37108 C91.8602202,3.85348 91.0177192,3.55536571 90.0037061,3.55536571 C87.9912511,3.55536571 86.665129,4.70045143 86.665129,6.45736571 C86.665129,7.39856571 87.0552652,8.18290857 87.7260267,8.68490857 C86.961553,9.01428 86.5715873,9.56330857 86.5715873,10.30068 C86.5715873,10.8810229 86.8056122,11.3515371 87.2579769,11.6496514 C86.5247596,11.99468 86.0879093,12.5751943 86.0879093,13.29668 C86.0879093,14.7713086 87.4607455,15.60268 89.9257357,15.60268 C92.6090658,15.60268 94.2626409,14.5045086 94.2626409,12.7476514 C94.2626409,11.1633086 93.1394578,10.2535943 91.1581455,10.2377657 L89.2392892,10.2377657 C88.693269,10.2377657 88.4592441,10.0809657 88.4592441,9.73582286 C88.4592441,9.50062286 88.5996136,9.32799429 88.8960375,9.23382286 C89.2237178,9.31239429 89.5981122,9.35930857 90.0037061,9.35930857 C92.016161,9.35930857 93.3422832,8.19862286 93.3422832,6.45736571 C93.3422832,6.14365143 93.2954555,5.86130857 93.2174282,5.57890857 L94.5903212,5.57890857 L94.5903212,3.55536571 Z M75.4685326,0.08868 C74.6729729,0.08868 74.0332973,0.731822857 74.0332973,1.53182286 C74.0332973,2.33176571 74.6729729,2.99068 75.4685326,2.99068 C76.2642058,2.99068 76.9194528,2.33176571 76.9194528,1.53182286 C76.9194528,0.731822857 76.2642058,0.08868 75.4685326,0.08868 Z M82.5866287,3.55536571 C81.3853615,3.55536571 80.5272892,4.02605143 80.0124685,4.81028 L79.6380742,3.77508 L78.1873244,3.77508 L78.1873244,12.0889086 L80.4961465,12.0889086 L80.4961465,7.24176571 C80.4961465,6.30056571 81.0109103,5.64165143 81.9469531,5.64165143 C82.727055,5.64165143 83.085878,6.04959429 83.085878,6.83382286 L83.085878,12.0889086 L85.3947569,12.0889086 L85.3947569,6.22205143 C85.3947569,4.52799429 84.2402606,3.55536571 82.5866287,3.55536571 Z M7.22981772,7.05353714 L0.849144376,0.0259371429 L0.0535279374,0.0259371429 L0.0535279374,12.0889086 L2.30000778,12.0889086 L2.30000778,5.21805143 L8.66505295,12.2299943 L9.47629757,12.2299943 L9.47629757,0.16708 L7.22981772,0.16708 L7.22981772,7.05353714 Z M21.7334508,4.68479429 L21.3433714,3.77508 L19.7832812,3.77508 L19.7832812,12.0889086 L22.0921601,12.0889086 L22.0921601,5.79862286 L24.5259508,5.79862286 L24.5259508,3.55536571 L24.3386968,3.55536571 C23.2778559,3.55536571 22.4978677,3.94753714 21.7334508,4.68479429 Z M52.1594146,12.0889086 L54.4682935,12.0889086 L54.4682935,3.77508 L52.1594146,3.77508 L52.1594146,12.0889086 Z M29.5930614,7.17902286 L28.1734544,6.67708 C27.5961778,6.48879429 27.3465816,6.25348 27.3465816,5.89262286 C27.3465816,5.45342286 27.6897764,5.17113714 28.2358534,5.17113714 C28.9222431,5.17113714 29.327837,5.51616571 29.5150342,6.26913714 L31.3402919,5.68873714 C30.9659544,4.26125143 29.9363131,3.55536571 28.2513679,3.55536571 C26.4105388,3.55536571 25.2092717,4.57496571 25.2092717,6.11233714 C25.2092717,7.21033714 25.8645186,8.04182286 27.0502144,8.48090857 L28.4386219,8.99868 C28.9222431,9.15548 29.3122088,9.39079429 29.3122088,9.84565143 C29.3122088,10.3319943 28.9066717,10.6927943 28.2982525,10.6927943 C27.5806065,10.6927943 26.9878154,10.1908514 26.7849332,9.39079429 L24.9596186,9.98679429 C25.3653261,11.5085086 26.5197656,12.3085657 28.2982525,12.3085657 C30.2638229,12.3085657 31.5743168,11.1791371 31.5743168,9.46919429 C31.5743168,8.43393714 30.872299,7.61822286 29.5930614,7.17902286 Z M14.6812771,10.2692514 C13.7920053,10.2692514 12.9495611,9.73582286 12.9495611,7.93199429 C12.9495611,6.12793714 13.7920053,5.56325143 14.6812771,5.56325143 C15.5704922,5.56325143 16.4441358,6.25348 16.4441358,7.93199429 C16.4441358,9.76725143 15.5704922,10.2692514 14.6812771,10.2692514 Z M14.6812771,3.55536571 C12.4191691,3.55536571 10.6251677,5.12399429 10.6251677,7.93199429 C10.6251677,10.7397086 12.4191691,12.3085657 14.6812771,12.3085657 C16.9121288,12.3085657 18.7530716,10.7397086 18.7530716,7.93199429 C18.7530716,5.12399429 16.927757,3.55536571 14.6812771,3.55536571 Z M42.7439192,2.42593714 L45.879614,2.42593714 L45.879614,12.0889086 L48.2977197,12.0889086 L48.2977197,2.42593714 L51.181261,2.42593714 L51.181261,0.16708 L42.7439192,0.16708 L42.7439192,2.42593714 Z M40.4050342,3.77508 L37.659305,3.77508 L34.8200341,7.50839429 L34.8200341,0.16708 L32.5110983,0.16708 L32.5110983,12.0889086 L34.8200341,12.0889086 L34.8200341,8.21422286 L37.7373891,12.0889086 L40.5610886,12.0889086 L37.191312,7.85342286 L40.4050342,3.77508 Z" transform="translate(25.46 3.943)"/>
  </g>
</svg>
