<?xml version='1.0' encoding='utf-8'?>
<svg overflow="hidden" xmlns="http://www.w3.org/2000/svg" viewBox="-2 2 24 24">
  <g fill-rule="evenodd" transform="translate(0 4)">
    <path d="M15.8248451,20 L19.8903882,15.9120571 L10.8667907,15.0146857 L15.8248451,20 Z M15.8248451,0 L14.9324476,9.07331429 L19.8904451,4.08794286 L15.8248451,0 Z M4.06557727,20 L14.0107827,10 L5.88066251,10 L4.06557727,20 Z M3.40978474e-05,4.088 L14.0107827,10 L4.06557727,0 L3.40978474e-05,4.088 Z" />
    <path fill-opacity=".55" d="M10.8668646,4.98530857 L14.9324646,9.07330857 L15.8248621,-5.71428572e-06 L10.8668646,4.98530857 Z M5.88067956,9.99999429 L14.010743,9.99999429 L-5.68297456e-06,4.08799429 L5.88067956,9.99999429 Z M-5.68297456e-06,15.9120514 L4.06553749,19.9999943 L5.88067956,9.99999429 L-5.68297456e-06,15.9120514 Z M10.8668078,15.01468 L19.8904053,15.9120514 L14.9324078,10.9267371 L10.8668078,15.01468 Z" />
  </g>
</svg>