<?xml version="1.0" encoding="UTF-8"?>
<svg id="Layer_1" data-name="Layer 1" xmlns="http://www.w3.org/2000/svg" viewBox="0 0 779.67 148.06">
  <defs>
    <style>
      .cls-1 {
        fill: #231f20;
      }

      .cls-2 {
        fill: #00509e;
      }
    </style>
  </defs>
  <g>
    <path class="cls-2" d="M108.9,0H36.28C16.25,0,0,16.24,0,36.3v72.61c0,20.03,16.25,36.28,36.28,36.28h72.62c20.03,0,36.28-16.26,36.28-36.28V36.3c0-20.06-16.25-36.3-36.28-36.3h0ZM36.28,36.3h72.62v72.61H36.28V36.3h0Z"/>
    <path class="cls-2" d="M72.36,42.56c-16.47,0-29.8,13.35-29.8,29.8s13.33,29.77,29.8,29.77,29.77-13.33,29.77-29.77-13.33-29.8-29.77-29.8"/>
  </g>
  <g>
    <polygon class="cls-1" points="274.43 .15 274.43 7.48 294.42 7.48 294.42 101.16 224.94 .15 178.51 .15 178.51 7.48 196.07 7.48 196.07 137.85 178.51 137.85 178.51 145.19 178.51 145.19 225.96 145.19 225.96 145.19 225.96 137.85 205.32 137.85 205.32 11.64 299.1 148.06 303.98 146.56 303.98 7.48 320.25 7.48 320.25 5.08 320.25 .15 274.44 .15 274.43 .15"/>
    <polygon class="cls-1" points="569.81 .15 569.81 7.48 589.84 7.48 589.84 101.17 520.35 .15 513.66 .15 473.92 .15 473.9 .15 473.9 7.48 491.54 7.48 491.54 137.85 473.92 137.85 473.92 145.19 473.92 145.19 521.38 145.19 521.38 145.19 521.38 137.85 500.79 137.85 500.79 11.74 594.52 148.06 599.4 146.77 599.4 7.48 615.67 7.48 615.67 .15 569.86 .15 569.81 .15"/>
    <path class="cls-1" d="M734.27.15h-.02v7.33h19.38s-.04,84.71-.04,100.41-5.01,29.56-39.86,29.56c-38.23,0-38.62-16.11-38.83-36.44l.18-93.54h20.36V.15h-61.22v7.33h17.69l.18,90.66c.21,19.72.62,35.75,18.9,43.56,11.5,4.73,29.59,5.54,37.17,5.54,46.27,0,55-19.04,55-39.28s.04-100.48.04-100.48h16.47V.15h-45.4Z"/>
    <path class="cls-1" d="M333.4,46.56h5.96c.41-6.96,1.04-15.6,7.81-26.48,4.88-7.78,12.01-11,19.48-11h19.56l.2,15.52v94.71l-.18,18.54h-22.2v7.33h0s67.38,0,67.38,0h0v-7.34h-22.22l-.17-18.54V24.6l.19-15.52h17.13c8.87,0,16.72,2.15,21.71,10.59,6.37,10.68,7.19,19.7,7.8,26.89h6.17V.15h-128.6v46.41Z"/>
  </g>
</svg>