<svg width="120" height="40" viewBox="0 0 120 40" xmlns="http://www.w3.org/2000/svg">
<g >
<path d="M28.6668 39.0574C27.3293 39.0574 25.3435 38.5618 23.8737 37.0038C22.4039 35.4457 8.6153 18.7785 8.6153 18.7785V12.1219C8.6153 12.1219 23.7753 30.0076 24.9769 31.3621C26.1786 32.7165 27.5398 34.5088 28.7482 34.5088C29.9567 34.5088 30.8155 33.8502 30.8155 32.4381C30.8155 31.62 30.8257 0.325874 30.8257 0.325874H35.4694C35.4694 0.325874 35.4219 31.121 35.4219 32.3736C35.4219 34.6717 33.9758 39.0608 28.6634 39.0608" />
<path d="M54.2412 26.6674C54.2412 26.8847 54.1733 26.9967 53.9323 26.9967H53.0904C52.9343 26.9967 52.846 26.9526 52.7815 26.8439L46.9226 16.5619C46.4372 15.7302 46.1928 15.2041 46.1724 15.1396V26.6674C46.1724 26.8847 46.0841 26.9967 45.8635 26.9967H45.025C44.7806 26.9967 44.6924 26.8881 44.6924 26.6674V12.4511C44.6924 12.2339 44.7806 12.1219 45.025 12.1219H45.8635C46.0196 12.1219 46.0841 12.166 46.1283 12.2543L52.1196 22.6856C52.2961 22.9945 52.7815 23.9993 52.7815 23.9993V12.4511C52.7815 12.2339 52.8698 12.1219 53.0904 12.1219H53.9323C54.1767 12.1219 54.2412 12.2305 54.2412 12.4511V26.6674Z" />
<path d="M60.7213 23.7787C60.9182 24.3897 61.0099 25.0245 61.0302 25.0924C61.0506 25.0041 61.2271 24.2811 61.3833 23.8228L63.9054 16.5178C63.9699 16.3209 64.0582 16.1885 64.2822 16.1885H65.124C65.3684 16.1885 65.4771 16.3209 65.4126 16.5178L60.3513 31.1957C60.2834 31.3722 60.1952 31.525 59.9745 31.525H59.2888C59.0682 31.525 58.9562 31.396 59.0241 31.1957L60.3513 27.0849L56.6581 16.5178C56.5936 16.3209 56.726 16.1885 56.9466 16.1885H57.853C58.0736 16.1885 58.1619 16.3209 58.2297 16.5178L60.7281 23.7787H60.7213Z" />
<path d="M68.6849 20.6727H73.8141V18.9211C73.8141 17.9367 73.1929 17.2374 71.2478 17.2374C69.3027 17.2374 68.6849 17.9367 68.6849 18.9211V20.6727ZM75.2499 21.5247C75.2499 21.7216 75.1617 21.8302 74.941 21.8302H68.6849V24.2573C68.6849 25.2621 69.2145 25.941 71.2478 25.941C73.2811 25.941 73.8141 25.2621 73.8141 24.2573V23.8873C73.8141 23.6667 73.9023 23.5784 74.123 23.5784H74.9173C75.1379 23.5784 75.2499 23.6667 75.2499 23.8873V24.3456C75.2499 26.0293 74.2553 27.1664 71.2037 27.1664C68.152 27.1664 67.1812 26.0293 67.1812 24.3456V18.8328C67.1812 17.1492 68.1995 16.012 71.2478 16.012C74.2961 16.012 75.2499 17.1492 75.2499 18.8328V21.5247Z" />
<path d="M81.4891 26.6674L77.0898 12.4511C77.0253 12.2339 77.1101 12.1219 77.3308 12.1219H78.3491C78.5698 12.1219 78.658 12.2305 78.7259 12.4511L81.8896 22.7094C82.1103 23.4528 82.3547 24.8106 82.3988 25.0075C82.4226 24.8989 82.6432 23.6497 82.9283 22.7535L86.1124 12.4511C86.1769 12.2339 86.2652 12.1219 86.4892 12.1219H87.4193C87.6603 12.1219 87.752 12.2305 87.6841 12.4511L83.2644 26.6674C83.1999 26.8847 83.0879 26.9967 82.8672 26.9967H81.9168C81.6724 26.9967 81.5637 26.8881 81.4958 26.6674" />
<path d="M89.9652 20.6727H95.0943V18.9211C95.0943 17.9367 94.4731 17.2374 92.5281 17.2374C90.583 17.2374 89.9652 17.9367 89.9652 18.9211V20.6727ZM96.5302 21.5247C96.5302 21.7216 96.442 21.8302 96.2213 21.8302H89.9652V24.2573C89.9652 25.2621 90.4947 25.941 92.5281 25.941C94.5614 25.941 95.0943 25.2621 95.0943 24.2573V23.8873C95.0943 23.6667 95.1826 23.5784 95.4032 23.5784H96.1976C96.4182 23.5784 96.5302 23.6667 96.5302 23.8873V24.3456C96.5302 26.0293 95.5356 27.1664 92.4839 27.1664C89.4323 27.1664 88.4614 26.0293 88.4614 24.3456V18.8328C88.4614 17.1492 89.4798 16.012 92.5281 16.012C95.5764 16.012 96.5302 17.1492 96.5302 18.8328V21.5247Z" />
<path d="M100.78 26.6674C100.78 26.8847 100.692 26.9967 100.471 26.9967H99.5887C99.3443 26.9967 99.256 26.8881 99.256 26.6674V16.5178C99.256 16.3005 99.3443 16.1885 99.5887 16.1885H100.471C100.692 16.1885 100.78 16.2971 100.78 16.5178V26.6674ZM100.78 14.0669C100.78 14.2842 100.692 14.3962 100.471 14.3962H99.5887C99.3443 14.3962 99.256 14.2876 99.256 14.0669V12.0336C99.256 11.8164 99.3443 11.7043 99.5887 11.7043H100.471C100.692 11.7043 100.78 11.813 100.78 12.0336V14.0669Z" />
<path d="M105.227 20.6727H110.356V18.9211C110.356 17.9367 109.735 17.2374 107.79 17.2374C105.845 17.2374 105.227 17.9367 105.227 18.9211V20.6727ZM111.792 21.5247C111.792 21.7216 111.704 21.8302 111.483 21.8302H105.227V24.2573C105.227 25.2621 105.757 25.941 107.79 25.941C109.823 25.941 110.356 25.2621 110.356 24.2573V23.8873C110.356 23.6667 110.444 23.5784 110.665 23.5784H111.459C111.68 23.5784 111.792 23.6667 111.792 23.8873V24.3456C111.792 26.0293 110.797 27.1664 107.746 27.1664C104.694 27.1664 103.723 26.0293 103.723 24.3456V18.8328C103.723 17.1492 104.742 16.012 107.79 16.012C110.838 16.012 111.792 17.1492 111.792 18.8328V21.5247Z" />
<path d="M120 16.3413V17.0609C120 17.2815 119.868 17.3902 119.647 17.3902C117.987 17.4547 116.575 18.4187 116.042 18.8566V26.664C116.042 26.8813 115.954 26.9933 115.733 26.9933H114.847C114.603 26.9933 114.514 26.8847 114.514 26.664V16.5144C114.514 16.2971 114.603 16.1851 114.847 16.1851H115.645C115.886 16.1851 115.954 16.2937 115.977 16.5144L116.042 17.5871C116.663 17.0168 118.011 16.012 119.647 16.012C119.868 16.012 120 16.1206 120 16.3413Z" />
<path d="M6.80603 0C8.14347 0 10.1293 0.495601 11.5991 2.05369C13.0689 3.61178 26.8575 20.2789 26.8575 20.2789V26.9356C26.8575 26.9356 11.6942 9.04981 10.4891 7.6954C9.28743 6.34098 7.92623 4.54867 6.71777 4.54867C5.50932 4.54867 4.6505 5.20721 4.6505 6.61933C4.6505 7.43741 4.64032 38.7316 4.64032 38.7316H0C0 38.7316 0.0475234 7.93641 0.0475234 6.68722C0.0475234 4.38573 1.4902 0 6.80603 0Z" />
</g>
<defs>
<clipPath id="clip0_116_20">
<rect width="120" height="39.0574" />
</clipPath>
</defs>
</svg>
