<?xml version="1.0" encoding="utf-8"?>
<!-- Generator: Adobe Illustrator 21.0.0, SVG Export Plug-In . SVG Version: 6.00 Build 0)  -->
<svg version="1.1" id="Layer_1" xmlns="http://www.w3.org/2000/svg" xmlns:xlink="http://www.w3.org/1999/xlink" x="0px" y="0px"
	 viewBox="0 0 3652 1067.9" style="enable-background:new 0 0 3652 1067.9;" xml:space="preserve">
<style type="text/css">
	.st0{fill:none;}
</style>
<g>
	<polygon points="161.3,345.3 141.4,290.4 175,197.2 208.5,290.4 189,345.2 181,342.3 199.4,290.4 175,222.5 150.5,290.4 
		169.3,342.4 	"/>
	<rect x="131" y="339.5" width="0.2" height="8.6"/>
	<path d="M731.6,1030.5H215.5v-30.6c0-17.5-13.1-32.2-30.6-34.2l-24.3,0.1v-70.2h-32.8V538.9c-49.3-3.5-87.9-47.2-87.9-99.5
		c0-53.8,40.8-98.6,91-99.8h86.7v8.6H131c-45.4,1.1-82.5,42-82.5,91.2c0,49.3,37.1,90.1,82.7,91.2l4.2,0.1l1,4.1V887h32.8v70.2h16.2
		c22.2,2.5,38.7,20.8,38.7,42.7v22H723v-22c0-17.6,12.7-42.5,41-42.5l14.4-0.1v-70.4h32.8v-356l4-0.2c47-1.1,84.1-42,84.1-91.2
		c0-49.3-37.2-90.2-82.8-91.2h-87.8v-8.6h87.9c50.4,1.1,91.3,45.8,91.3,99.8c0,52.8-39.3,96.8-88.1,99.6v356.5H787v70.2l-22.9,0.3
		c-23.7,0-32.5,20.8-32.5,33.9V1030.5L731.6,1030.5z"/>
	<polygon points="758.8,345.3 739.1,290.3 772.7,197.2 806.2,290.3 786.7,345.2 778.7,342.3 797.1,290.3 772.7,222.4 748.2,290.3 
		766.9,342.4 	"/>
</g>
<g>
	<g>
		<path d="M814.1,537.8l-0.7-5.9l2.6-1c16.2-1.5,28.1-15.6,28.1-32.7c0-17.3-12.4-31.6-28.2-32.7l0.4-5.7
			c18.8,1.3,33.6,18.2,33.6,38.4c0,12.9-5.9,24.4-15.1,31.4c37.7-9.8,66-46.8,66-90.1c0-43-27.8-79.7-65-89.8
			c9,7,14.8,18.3,14.8,31.1c0,20.2-14.7,37.1-33.6,38.4l-0.4-5.7c15.8-1.2,28.2-15.5,28.2-32.7c0-17.3-12.1-31.4-28.3-32.7l-2.3-0.2
			l-0.8-5.6l3.2-1.1c49.5,1,89.8,45.2,89.8,98.3s-40.2,97.2-89.7,98.3L814.1,537.8L814.1,537.8z"/>
	</g>
</g>
<path d="M131.1,537.7c-49.5-1.1-89.7-45.2-89.7-98.3c0-53.2,40.3-97.3,89.8-98.3l3.2-0.1l-0.5,5.6l-2.5,1.4
	c-16.1,1.3-28.3,15.4-28.3,32.8c0,17.2,12.4,31.6,28.3,32.7l-0.4,5.7c-18.8-1.3-33.5-18.2-33.5-38.4c0-12.8,5.7-24.2,14.8-31.1
	c-37.2,10.1-65,46.8-65,89.8c0,43.3,28.2,80.2,65.9,90.1c-9.1-7-15-18.4-15-31.4c0-20.1,14.7-37,33.5-38.4l0.4,5.7
	c-15.8,1.1-28.2,15.5-28.2,32.7c0,17.1,12,31.2,27.8,32.7l2.8,0.3l-0.5,6L131.1,537.7L131.1,537.7z"/>
<g>
	<g>
		<path d="M344.8,914h-23.9c-1.6,0-2.9-1.3-2.9-2.9v-23.9c0-1.6,1.3-2.8,2.9-2.8h23.9c1.6,0,2.9,1.3,2.9,2.8v23.9
			C347.7,912.7,346.4,914,344.8,914L344.8,914z M323.8,908.2h18.1V890h-18.1V908.2L323.8,908.2z"/>
	</g>
	<g>
		<path d="M414.9,981.8H391c-1.6,0-2.9-1.3-2.9-2.9V955c0-1.5,1.3-2.8,2.9-2.8h23.9c1.6,0,2.9,1.3,2.9,2.8v23.9
			C417.8,980.5,416.5,981.8,414.9,981.8L414.9,981.8z M393.9,976.1H412v-18.2h-18.1V976.1L393.9,976.1z"/>
	</g>
	<g>
		<path d="M274.6,845.9h-23.8c-1.6,0-2.9-1.3-2.9-2.9v-23.9c0-1.5,1.3-2.8,2.9-2.8h23.8c1.6,0,2.9,1.3,2.9,2.8V843
			C277.5,844.6,276.2,845.9,274.6,845.9L274.6,845.9z M253.6,840.2h18.1V822h-18.1V840.2L253.6,840.2z"/>
		<path d="M274.7,981.8h-23.9c-1.6,0-2.9-1.3-2.9-2.9V955c0-1.5,1.3-2.8,2.9-2.8h23.9c1.6,0,2.9,1.3,2.9,2.8v23.9
			C277.5,980.5,276.2,981.8,274.7,981.8L274.7,981.8z M253.7,976.1h18.1v-18.2h-18.1L253.7,976.1L253.7,976.1z"/>
	</g>
	<g>
		<path d="M554.8,981.8H531c-1.6,0-2.9-1.3-2.9-2.9V955c0-1.5,1.3-2.8,2.9-2.8h23.8c1.6,0,2.9,1.3,2.9,2.8v23.9
			C557.7,980.5,556.4,981.8,554.8,981.8L554.8,981.8z M533.9,976.1H552v-18.2h-18.1V976.1L533.9,976.1z"/>
	</g>
	<g>
		<path d="M625,914h-23.8c-1.6,0-2.9-1.3-2.9-2.9v-23.9c0-1.6,1.3-2.8,2.9-2.8H625c1.6,0,2.8,1.3,2.8,2.8v23.9
			C627.8,912.7,626.6,914,625,914L625,914z M604,908.2h18.1V890H604V908.2L604,908.2z"/>
	</g>
	<g>
		<path d="M695.2,845.9h-23.9c-1.6,0-2.9-1.3-2.9-2.9v-23.9c0-1.5,1.3-2.8,2.9-2.8h23.9c1.6,0,2.9,1.3,2.9,2.8V843
			C698.1,844.6,696.8,845.9,695.2,845.9L695.2,845.9z M674.2,840.2h18.1V822h-18.1V840.2L674.2,840.2z"/>
		<path d="M695.1,981.8h-23.8c-1.6,0-2.9-1.3-2.9-2.9V955c0-1.5,1.3-2.8,2.9-2.8h23.9c1.6,0,2.9,1.3,2.9,2.8v23.9
			C698,980.5,696.7,981.8,695.1,981.8L695.1,981.8z M674.1,976.1h18.2v-18.2h-18.1v18.2H674.1z"/>
	</g>
</g>
<g>
	<path d="M815.5,892.6h-85.7c-1.6,0-2.9-1.3-2.9-2.9v-546c0-1.5,1.3-2.8,2.9-2.8h85.7c1.6,0,2.9,1.3,2.9,2.8v546
		C818.3,891.3,817.1,892.6,815.5,892.6L815.5,892.6z M732.6,886.9h80V346.7h-80V886.9L732.6,886.9z"/>
	<path d="M217.9,892.7h-85.8c-1.6,0-2.9-1.3-2.9-2.9v-546c0-1.6,1.3-2.8,2.9-2.8h85.8c1.6,0,2.9,1.3,2.9,2.8v546
		C220.8,891.4,219.5,892.7,217.9,892.7L217.9,892.7z M135,887h80.1V346.7H135V887L135,887z"/>
	<polygon points="177.9,343.6 172.2,343.6 172.2,210.6 177.9,210.6 	"/>
	<polygon points="203.4,293.2 145.9,293.2 145.9,287.5 203.4,287.5 	"/>
	<g>
		<path d="M185.4,964.3h-20.5c-1.6,0-2.9-1.3-2.9-2.9v-71.6c0-1.5,1.3-2.8,2.9-2.8h20.5c1.6,0,2.9,1.3,2.9,2.8v71.6
			C188.3,963.1,187,964.3,185.4,964.3L185.4,964.3z M167.8,958.6h14.8v-65.9h-14.8V958.6L167.8,958.6z"/>
	</g>
	<path d="M727.3,1029.1H219.8c-1.6,0-2.9-1.3-2.9-2.9v-26.3c0-18.5-13.8-33.8-32.1-35.7l0.6-5.7c21.3,2.2,37.3,19.9,37.3,41.3v23.5
		h501.8v-23.4c0-21.3,16.1-39.1,37.5-41.2l0.6,5.7c-18.4,1.9-32.3,17.2-32.3,35.6v26.3C730.2,1027.8,728.9,1029.1,727.3,1029.1
		L727.3,1029.1z"/>
	<path d="M713.3,1013.9H233.8c-1.6,0-2.9-1.3-2.9-2.9v-11.1c0-25.9-20.2-47.7-45.9-49.7l0.4-5.7c28.7,2.2,51.2,26.6,51.2,55.4v8.3
		h473.7v-8.3c0-28.8,22.5-53.2,51.2-55.4l0.4,5.7c-25.7,2-45.9,23.9-45.9,49.7v11.1C716.1,1012.6,714.8,1013.9,713.3,1013.9
		L713.3,1013.9z"/>
	<g>
		<path d="M220.8,392.7h-91.5v-29.2h91.5V392.7L220.8,392.7z M135,387h80.1v-17.8H135V387L135,387z"/>
	</g>
	<g>
		<polygon points="187.5,467.5 182.8,464.2 215,417.7 214.7,398.8 177.3,452.7 172.6,449.4 220.2,380.7 220.2,419.4 		"/>
		<polygon points="129.7,550.9 129.7,512.3 162.4,464.1 167.1,467.4 134.9,513.9 135.3,532.8 172.7,478.9 177.4,482.1 		"/>
	</g>
	<g>
		<polygon points="187.5,619.3 182.8,616.1 215,569.6 214.7,550.7 177.3,604.6 172.6,601.3 220.2,532.6 220.2,571.3 		"/>
		<polygon points="129.7,702.8 129.7,664.2 162.4,616.1 167.1,619.3 134.9,665.8 135.3,684.8 172.6,630.9 177.3,634.1 		"/>
	</g>
	<g>
		<polygon points="187.7,769 183,765.7 215,720.1 214.7,701 177.3,754.2 172.6,750.9 220.2,683.2 220.2,721.7 		"/>
		<polygon points="129.7,851.4 129.7,812.9 162.3,765.7 166.9,769 134.9,814.5 135.3,833.6 172.6,780.5 177.3,783.8 		"/>
	</g>
	<g>
		<path d="M220.8,868.8h-91.5v-29.2h91.5V868.8L220.8,868.8z M135,863.1h80.1v-17.8H135V863.1L135,863.1z"/>
	</g>
	<g>
		<path d="M220.2,851.4l-90-128.1l-0.5-40.2l90,128.1L220.2,851.4L220.2,851.4z M135.4,701.2v20.5l79.1,111.7v-20.5L135.4,701.2
			L135.4,701.2z"/>
	</g>
	<g>
		<path d="M220.2,702.8l-90-129.9l-0.5-40.3l90,129.9L220.2,702.8L220.2,702.8z M135.4,550.8v20.4l79.1,113.3v-20.4L135.4,550.8
			L135.4,550.8z"/>
	</g>
	<g>
		<path d="M220.2,550.9l-90-129.9l-0.5-40.3l90,129.9L220.2,550.9L220.2,550.9z M135.4,399v20.4l79.1,113.3v-20.4L135.4,399
			L135.4,399z"/>
	</g>
	<g>
		<path d="M782.7,964.3h-20.5c-1.6,0-2.9-1.3-2.9-2.9v-71.7c0-1.5,1.3-2.8,2.9-2.8h20.5c1.6,0,2.9,1.3,2.9,2.8v71.7
			C785.6,963.1,784.3,964.3,782.7,964.3L782.7,964.3z M765.1,958.6h14.8v-66h-14.8V958.6L765.1,958.6z"/>
	</g>
	<g>
		<polygon points="727.4,550.9 727.4,512.2 760.1,464.1 764.8,467.4 732.6,513.8 733,532.8 770.3,478.8 775,482.1 		"/>
		<polygon points="785.3,467.4 780.6,464.1 812.7,417.7 812.4,398.7 775,452.6 770.3,449.4 817.9,380.6 817.9,419.3 		"/>
	</g>
	<g>
		<polygon points="785.4,769 780.7,765.7 812.7,720 812.4,701 775,754.2 770.3,750.9 817.9,683.1 817.9,721.7 		"/>
		<polygon points="727.4,851.6 727.4,813.1 760,765.7 764.7,768.9 732.6,814.7 733,833.8 770.3,780.5 775,783.7 		"/>
	</g>
	<g>
		<polygon points="727.4,702.8 727.4,664.1 760.1,616.1 764.8,619.3 732.6,665.8 733,684.7 770.3,630.8 775,634.1 		"/>
		<polygon points="785.3,619.3 780.6,616 812.7,569.6 812.4,550.6 775.1,604.5 770.4,601.3 817.9,532.6 817.9,571.2 		"/>
	</g>
	<polygon points="775.5,343.5 769.8,343.5 769.8,210.5 775.5,210.5 	"/>
	<polygon points="801.7,293.2 744.3,293.2 744.3,287.5 801.7,287.5 	"/>
	<g>
		<path d="M818.3,392.6h-91.5v-29.2h91.5V392.6L818.3,392.6z M732.5,386.9h80.1v-17.8h-80.1V386.9L732.5,386.9z"/>
	</g>
	<g>
		<path d="M817.9,550.9l-90-129.9l-0.5-40.3l90,129.9L817.9,550.9L817.9,550.9z M733.1,398.9v20.5l79.1,113.3v-20.5L733.1,398.9
			L733.1,398.9z"/>
	</g>
	<g>
		<path d="M817.9,702.8l-90-129.9l-0.5-40.3l90,129.9L817.9,702.8L817.9,702.8z M733.1,550.8v20.4l79.1,113.3v-20.4L733.1,550.8
			L733.1,550.8z"/>
	</g>
	<g>
		<path d="M817.9,851.6l-90-128.3l-0.5-40.2l90,128.3L817.9,851.6L817.9,851.6z M733.1,701.2v20.5l79.1,111.9v-20.5L733.1,701.2
			L733.1,701.2z"/>
	</g>
	<g>
		<path d="M818.3,868.7h-91.5v-29.2h91.5V868.7L818.3,868.7z M732.5,863h80.1v-17.8h-80.1V863L732.5,863z"/>
	</g>
	<g>
		<path d="M345.7,1001.4h-23.8c-1.6,0-2.9-1.3-2.9-2.9v-18.4h-18.4c-1.6,0-2.9-1.3-2.9-2.9v-23.8c0-1.6,1.3-2.8,2.9-2.8H319v-18.4
			c0-1.5,1.3-2.8,2.9-2.8h23.8c1.6,0,2.9,1.3,2.9,2.8v18.4H367c1.6,0,2.9,1.3,2.9,2.8v23.8c0,1.6-1.3,2.9-2.9,2.9h-18.4v18.4
			C348.6,1000.1,347.3,1001.4,345.7,1001.4L345.7,1001.4z M324.8,995.7h18.1v-18.4c0-1.6,1.3-2.9,2.9-2.9h18.4v-18.1h-18.4
			c-1.6,0-2.9-1.3-2.9-2.9V935h-18.1v18.4c0,1.6-1.3,2.9-2.9,2.9h-18.4v18.1h18.4c1.6,0,2.9,1.3,2.9,2.9V995.7L324.8,995.7z"/>
		<g>
			<path d="M485.6,1001.4h-23.8c-1.6,0-2.9-1.3-2.9-2.9v-18.4h-18.4c-1.6,0-2.9-1.3-2.9-2.9v-23.8c0-1.6,1.3-2.8,2.9-2.8h18.4v-18.4
				c0-1.5,1.3-2.8,2.9-2.8h23.8c1.6,0,2.9,1.3,2.9,2.8v18.4h18.4c1.6,0,2.9,1.3,2.9,2.8v23.8c0,1.6-1.3,2.9-2.9,2.9h-18.4v18.4
				C488.5,1000.1,487.2,1001.4,485.6,1001.4L485.6,1001.4z M464.7,995.7h18.1v-18.4c0-1.6,1.3-2.9,2.9-2.9h18.4v-18.1h-18.4
				c-1.6,0-2.9-1.3-2.9-2.9V935h-18.1v18.4c0,1.6-1.3,2.9-2.9,2.9h-18.4v18.1h18.4c1.6,0,2.9,1.3,2.9,2.9V995.7L464.7,995.7z"/>
		</g>
		<g>
			<path d="M275.8,797.9H252c-1.6,0-2.9-1.3-2.9-2.9v-18.4h-18.4c-1.6,0-2.9-1.3-2.9-2.9v-23.8c0-1.6,1.3-2.9,2.9-2.9h18.4v-18.4
				c0-1.6,1.3-2.9,2.9-2.9h23.8c1.6,0,2.9,1.3,2.9,2.9V747h18.4c1.6,0,2.9,1.3,2.9,2.9v23.8c0,1.6-1.3,2.9-2.9,2.9h-18.4V795
				C278.6,796.7,277.4,797.9,275.8,797.9L275.8,797.9z M254.9,792.3h18v-18.4c0-1.5,1.3-2.8,2.9-2.8h18.4v-18.2h-18.4
				c-1.6,0-2.9-1.3-2.9-2.9v-18.4h-18V750c0,1.6-1.3,2.9-2.9,2.9h-18.4V771H252c1.6,0,2.9,1.3,2.9,2.8V792.3L254.9,792.3z"/>
			<path d="M275.8,933.8H252c-1.6,0-2.9-1.3-2.9-2.9v-18.4h-18.4c-1.6,0-2.9-1.3-2.9-2.9v-23.8c0-1.5,1.3-2.8,2.9-2.8h18.4v-18.4
				c0-1.5,1.3-2.8,2.9-2.8h23.8c1.6,0,2.9,1.3,2.9,2.8V883h18.4c1.6,0,2.9,1.3,2.9,2.8v23.8c0,1.6-1.3,2.9-2.9,2.9h-18.4v18.4
				C278.6,932.5,277.4,933.8,275.8,933.8L275.8,933.8z M254.9,928.1h18v-18.4c0-1.6,1.3-2.9,2.9-2.9h18.4v-18.1h-18.4
				c-1.6,0-2.9-1.3-2.9-2.9v-18.4h-18v18.4c0,1.6-1.3,2.9-2.9,2.9h-18.4v18.1H252c1.6,0,2.9,1.3,2.9,2.9V928.1L254.9,928.1z"/>
		</g>
		<path d="M625.5,1001.4h-23.8c-1.6,0-2.9-1.3-2.9-2.9v-18.4h-18.4c-1.6,0-2.9-1.3-2.9-2.9v-23.8c0-1.6,1.3-2.8,2.9-2.8h18.4v-18.4
			c0-1.5,1.3-2.8,2.9-2.8h23.8c1.6,0,2.9,1.3,2.9,2.8v18.4h18.4c1.6,0,2.9,1.3,2.9,2.8v23.8c0,1.6-1.3,2.9-2.9,2.9h-18.4v18.4
			C628.4,1000.1,627.1,1001.4,625.5,1001.4L625.5,1001.4z M604.6,995.7h18.1v-18.4c0-1.6,1.3-2.9,2.9-2.9H644v-18.1h-18.4
			c-1.6,0-2.9-1.3-2.9-2.9V935h-18.1v18.4c0,1.6-1.3,2.9-2.9,2.9h-18.4v18.1h18.4c1.6,0,2.9,1.3,2.9,2.9V995.7L604.6,995.7z"/>
		<g>
			<path d="M695.5,797.9h-23.9c-1.6,0-2.9-1.3-2.9-2.9v-18.4h-18.3c-1.6,0-2.9-1.3-2.9-2.9v-23.8c0-1.6,1.3-2.9,2.9-2.9h18.3v-18.4
				c0-1.6,1.3-2.9,2.9-2.9h23.9c1.6,0,2.9,1.3,2.9,2.9V747h18.4c1.6,0,2.9,1.3,2.9,2.9v23.8c0,1.6-1.3,2.9-2.9,2.9h-18.4V795
				C698.4,796.7,697.1,797.9,695.5,797.9L695.5,797.9z M674.5,792.3h18.1v-18.4c0-1.5,1.3-2.8,2.9-2.8h18.4v-18.2h-18.4
				c-1.6,0-2.9-1.3-2.9-2.9v-18.4h-18.1V750c0,1.6-1.3,2.9-2.9,2.9h-18.3V771h18.3c1.6,0,2.9,1.3,2.9,2.8V792.3L674.5,792.3z"/>
			<path d="M695.5,933.8h-23.9c-1.6,0-2.9-1.3-2.9-2.9v-18.4h-18.3c-1.6,0-2.9-1.3-2.9-2.9v-23.8c0-1.5,1.3-2.8,2.9-2.8h18.3v-18.4
				c0-1.5,1.3-2.8,2.9-2.8h23.9c1.6,0,2.9,1.3,2.9,2.8V883h18.4c1.6,0,2.9,1.3,2.9,2.8v23.8c0,1.6-1.3,2.9-2.9,2.9h-18.4v18.4
				C698.4,932.5,697.1,933.8,695.5,933.8L695.5,933.8z M674.5,928.1h18.1v-18.4c0-1.6,1.3-2.9,2.9-2.9h18.4v-18.1h-18.4
				c-1.6,0-2.9-1.3-2.9-2.9v-18.4h-18.1v18.4c0,1.6-1.3,2.9-2.9,2.9h-18.3v18.1h18.3c1.6,0,2.9,1.3,2.9,2.9V928.1L674.5,928.1z"/>
		</g>
	</g>
</g>
<g>
	<path d="M463.4,184.8c0,0,4.9,1.2,9.8,1.2c5,0,11.6-1.3,11.6-1.3l-2.7,38.6c0,0-4-1.9-8.6-1.9s-8.3,1.8-8.3,1.8L463.4,184.8z"/>
	<path d="M277.9,230.8c0,0-3.5-1.4-7.4-1.4c-3.6,0-7,0.9-7,0.9s-8.7-27.6-3.2-40.7c4.1-9.7,24.5-12.2,42.3-12.9
		c23.2-0.9,52.3,0.4,52.3,0.4s-2,2.4-2.7,5.3c-0.7,2.8-1.1,5.2-1.1,5.2s-25.8-1.7-37.2-1c-11.4,0.7-29.6,2.6-34.6,7.5
		c-4.2,4.1-5,9.8-4.1,17.1C276.1,219.5,277.9,230.8,277.9,230.8z"/>
	<path d="M378.2,226.2c0,0-2.5-0.6-5.1-0.6c-7,0-12.3,3.8-12.3,3.8s-9.3-34.3-2.9-48.1c3.7-8.1,20.2-10.5,43.4-9.7
		c23.2,0.9,57.1,12.1,57.1,12.1v6.1c0,0-28.4-7.8-47.9-8.5c-21.2-0.6-27.1,0.9-30.7,4.8c-4.4,4.9-4.3,14-3.8,20
		C376.7,214.3,378.2,226.2,378.2,226.2z"/>
	<path d="M670.6,230.7c0,0,3.5-1.4,7.4-1.4c3.6,0,6.9,1.1,6.9,1.1s8.8-27.8,3.3-40.8c-4.1-9.7-24.5-12.2-42.3-12.9
		c-23.1-0.9-52.7,0.4-52.7,0.4s2,2.4,2.7,5.3c0.7,2.8,1.1,5.2,1.1,5.2s26.1-1.6,37.5-0.9s29.6,2.6,34.6,7.5c4.2,4.1,5,9.8,4.1,17.1
		C672.3,219.5,670.6,230.7,670.6,230.7z"/>
	<path d="M570.7,225.8c0,0,2.5-0.7,5.1-0.7c7,0,12.2,3.8,12.2,3.8s8.9-33.9,2.6-47.7c-3.7-8.1-20.2-10.5-43.4-9.7
		c-23.2,0.9-57.1,12-57.1,12l-0.1,6.1c0,0,28.5-7.8,48-8.4c21.2-0.6,27.2,0.9,30.7,4.8c4.4,4.9,4.4,14.5,4.1,20.6
		C572.4,215.5,570.7,225.8,570.7,225.8z"/>
</g>
<path d="M422.1,342.7h246.2l23-104.3c-4.9-3.1-13.1-3.7-13.1-3.7s-9.8-1.1-13.4,6.4c-4.4,9.3,7.1,19.2,7.1,19.2l-5.8,7.8
	c0,0-7.9-11.5-16.5-13.5c-3.8-0.8-11,2.2-11,16c0,11.5,2.7,16.1,9.7,15.8c7.6-0.3,19.5-13.5,19.5-13.5l3.4,7.3l-12.9,25.4
	c0,0-13.1,5.6-33.1,5.3c-30.3-0.4-33.1-5.7-33.1-5.7l-12.7-25l3.4-7.3c0,0,11.6,12.7,19.2,13.5c6.9,0.8,10-4.5,10-15.8
	c0-12.8-6.4-17-11.4-15.9c-7.9,1.6-16.2,13.3-16.2,13.3l-5.8-7.7c0,0,11.6-9.5,10.6-17.8c-1.3-11.3-15.3-11.6-15.3-11.6
	s-12.2,0.2-15.2,9.5c-3.1,9.5,10.2,19.9,10.2,19.9L563,268c0,0-8.3-12-16.8-13.5c-2.7-0.4-10.8,1.2-10.7,16.8
	c0,10.8,3.1,15.4,9.8,15.1c7.6-0.4,19.5-13.5,19.5-13.5l3.4,7.3l-12.7,25.1c0,0-2.9,5.7-30.7,5.7l-0.6,0.1c-27.9,0.3-31-4.2-31-4.2
	l-15-28l4.1-7.3c0,0,11.2,13.9,18.7,14.1c7,0.3,11.6-4.5,12.3-15.5c0.9-13.6-7-18.8-12.1-17.7c-7.8,1.7-18.7,13.4-18.7,13.4l-4.2-7
	c0,0,13.7-12.9,10.3-22.5c-3.2-9-15-9.1-15-9.1s-12.2,0.9-14.9,9.1c-3.3,9.6,10.1,22.5,10.1,22.5l-4.3,7c0,0-11.9-12.7-19.5-13.4
	c-5.2-0.5-11.7,5.6-11.4,16c0.4,13,5.3,17.5,12.3,17.3c7.6-0.3,19-14.3,19-14.3l3.9,7.3l-14.7,27.8c0,0-0.2,4.4-31.9,4.4
	c-27.8,0-30.7-5.7-30.7-5.7l-12.7-25.1l3.4-7.3c0,0,12,13.1,19.5,13.5c6.7,0.3,9.7-4.3,9.8-15.1c0.1-15.6-8-17.2-10.7-16.8
	c-8.5,1.5-16.9,13.5-16.9,13.5l-5.9-7.7c0,0,13.2-10.4,10.2-19.9c-3-9.3-15.2-9.5-15.2-9.5s-14,0.4-15.3,11.6
	c-1,8.3,10.6,17.8,10.6,17.8l-5.8,7.7c0,0-8.3-11.7-16.2-13.3c-5.1-1.1-11.4,3.1-11.4,15.9c0,11.3,3.1,16.6,10,15.8
	c7.6-0.8,19.2-13.5,19.2-13.5l3.4,7.3l-12.7,25c0,0-2.8,5.3-33.1,5.7c-20,0.3-33.1-5.3-33.1-5.3l-12.8-25.4l3.3-7.3
	c0,0,12,13.2,19.5,13.5c7,0.3,9.7-4.3,9.7-15.8c0-13.8-7.2-16.8-11-16c-8.7,2-16.5,13.5-16.5,13.5l-5.5-7.8c0,0,11.5-9.8,7.1-19.2
	c-3.6-7.5-13.4-6.4-13.4-6.4s-8.2,0.6-13.2,3.7l23.5,104.3h246.2"/>
<g>
	<g>
		<path d="M474.3,178.7c20.1,0,36.4-16.3,36.4-36.4s-16.3-36.4-36.4-36.4s-36.4,16.3-36.4,36.4S454.2,178.7,474.3,178.7z"/>
		<path d="M474.3,181.6c-21.6,0-39.2-17.6-39.2-39.2s17.6-39.2,39.2-39.2s39.2,17.6,39.2,39.2S495.9,181.6,474.3,181.6L474.3,181.6z
			 M474.3,108.8c-18.5,0-33.5,15-33.5,33.5s15.1,33.5,33.5,33.5c18.5,0,33.5-15,33.5-33.5C507.8,123.9,492.7,108.8,474.3,108.8
			L474.3,108.8z"/>
	</g>
</g>
<g>
	<path d="M531.8,879.7c-2.4,2.1-4.7,4.1-7,6.1h7V879.7z"/>
	<path d="M422.1,885.8c-2.1-1.8-4.2-3.7-6.4-5.6v5.6H422.1z"/>
	<path d="M601.8,807.1c-3.1,3.7-6.1,7.4-9.2,10.9h9.2V807.1z"/>
	<path d="M354.3,818c-2.9-3.3-5.7-6.7-8.6-10.2V818H354.3z"/>
	<path d="M274.6,709.8h-23.8c-1.6,0-2.9-1.3-2.9-2.9V683c0-1.6,1.3-2.8,2.9-2.8h17.5c1.1,0,2.2,0.7,2.6,1.7c2,4.7,4.1,9.2,6.3,13.7
		l0.3,11.3C277.5,708.5,276.2,709.8,274.6,709.8L274.6,709.8z M253.6,704.1h18.1v-7.2c-1.7-2.9-3.5-6.9-5.3-11h-12.8L253.6,704.1
		L253.6,704.1z"/>
	<path d="M695.2,709.8h-23.9c-1.6,0-2.9-1.3-2.9-2.9v-8c2.8-6.4,5.2-11.7,7.5-17c0.5-1,1.5-1.7,2.6-1.7h16.6c1.6,0,2.9,1.3,2.9,2.8
		v23.9C698.1,708.5,696.8,709.8,695.2,709.8L695.2,709.8z M674.1,704.1h18.2v-18.2h-11.9c-2.1,4.8-4.3,9.6-6.6,14.3L674.1,704.1
		L674.1,704.1z"/>
	<path d="M345.7,865.9h-23.8c-1.6,0-2.9-1.3-2.9-2.9v-18.4h-18.4c-1.6,0-2.9-1.3-2.9-2.9v-23.8c0-1.6,1.3-2.8,2.9-2.8H319v-18.4
		c0-1.5,1.3-2.8,2.9-2.8h14.9c0.9,0,1.7,0.4,2.2,1.1c2.9,3.7,5.9,7.4,8.8,11c0.4,0.5,0.6,1.1,0.6,1.8v7.4h5.7c0.8,0,1.6,0.3,2.2,1
		c4.2,4.9,8.4,9.6,12.6,14.2c0.5,0.5,0.7,1.2,0.7,1.9v9.5c0,1.6-1.3,2.9-2.9,2.9h-18.4v18.4C348.6,864.7,347.3,865.9,345.7,865.9
		L345.7,865.9z M324.8,860.2h18.1v-18.4c0-1.5,1.3-2.8,2.9-2.8h18.4v-5.6c-3.7-4-7.4-8.2-11.1-12.5h-7.3c-1.6,0-2.9-1.3-2.9-2.9
		v-9.1c-2.5-3-4.9-6.1-7.4-9.2h-10.7v18.4c0,1.6-1.3,2.9-2.9,2.9h-18.4v18.1h18.4c1.6,0,2.9,1.3,2.9,2.8V860.2L324.8,860.2z"/>
	<path d="M415.7,933.8h-23.8c-1.6,0-2.9-1.3-2.9-2.9v-18.4h-18.4c-1.6,0-2.9-1.3-2.9-2.9v-23.8c0-1.5,1.3-2.8,2.9-2.8H389v-18.4
		c0-1.5,1.3-2.8,2.9-2.8h6.8c0.7,0,1.4,0.3,2,0.8c5.8,5.6,11.5,10.8,17,15.6c0.6,0.5,1,1.3,1,2.1v2.8h3.5c0.7,0,1.3,0.2,1.9,0.7
		c5.2,4.5,10.1,8.6,14.8,12.4c0.7,0.5,1,1.3,1,2.2v11.4c0,1.6-1.3,2.9-2.9,2.9h-18.4v18.2C418.6,932.5,417.3,933.8,415.7,933.8
		L415.7,933.8z M394.7,928.1h18.1v-18.4c0-1.6,1.3-2.9,2.9-2.9h18.4v-7.2c-4.1-3.4-8.5-7-13.1-10.9h-5.3c-1.6,0-2.9-1.3-2.9-2.9
		v-4.3c-4.9-4.4-10.1-9.1-15.3-14.1h-2.8v18.4c0,1.6-1.3,2.9-2.9,2.9h-18.4v18.1h18.4c1.6,0,2.9,1.3,2.9,2.9L394.7,928.1
		L394.7,928.1z"/>
	<path d="M259.9,664.5H252c-1.6,0-2.9-1.3-2.9-2.9v-18.4h-18.4c-1.6,0-2.9-1.3-2.9-2.9v-23.8c0-1.6,1.3-2.9,2.9-2.9h16.9
		c1.3,0,2.5,0.9,2.8,2.2c3.7,16.9,7.9,31.9,12.2,44.7c0.3,0.9,0.2,1.9-0.4,2.6C261.7,664.1,260.8,664.5,259.9,664.5L259.9,664.5z
		 M233.6,637.6h16.2c-1.5-5.8-3-11.8-4.4-18.1h-11.7v18.1H233.6z"/>
	<path d="M555.6,933.8h-23.8c-1.6,0-2.9-1.3-2.9-2.9v-18.4h-18.4c-1.6,0-2.9-1.3-2.9-2.9v-11.9c0-0.8,0.4-1.7,1.1-2.2
		c4.4-3.6,9.2-7.6,14.2-11.9c0.5-0.4,1.2-0.7,1.9-0.7h4.2v-3.3c0-0.8,0.4-1.6,1-2.1c5.2-4.6,10.7-9.7,16.3-15c0.5-0.5,1.2-0.8,2-0.8
		h7.3c1.6,0,2.9,1.3,2.9,2.8v18.4h18.4c1.6,0,2.8,1.3,2.8,2.8v23.8c0,1.6-1.3,2.9-2.8,2.9h-18.4v18.5
		C558.5,932.5,557.2,933.8,555.6,933.8L555.6,933.8z M534.7,928.1h18v-18.4c0-1.6,1.3-2.9,2.9-2.9H574v-18.1h-18.4
		c-1.6,0-2.9-1.3-2.9-2.9v-18.4h-3.3c-5.1,4.8-10,9.3-14.7,13.5v4.8c0,1.6-1.3,2.9-2.9,2.9h-6c-4.3,3.7-8.5,7.2-12.4,10.4v7.7h18.4
		c1.6,0,2.9,1.3,2.9,2.9L534.7,928.1L534.7,928.1z"/>
	<path d="M625.5,865.9h-23.8c-1.6,0-2.9-1.3-2.9-2.9v-18.4h-18.4c-1.6,0-2.9-1.3-2.9-2.9v-10.1c0-0.7,0.3-1.4,0.7-1.9
		c4-4.4,8-8.9,12-13.6c0.5-0.6,1.3-1,2.2-1h6.3V807c0-0.6,0.2-1.3,0.7-1.8c2.7-3.4,5.5-6.8,8.2-10.3c0.5-0.7,1.4-1.1,2.3-1.1h15.5
		c1.6,0,2.9,1.3,2.9,2.8V815h18.4c1.6,0,2.9,1.3,2.9,2.8v23.8c0,1.6-1.3,2.9-2.9,2.9h-18.4v18.4
		C628.4,864.7,627.1,865.9,625.5,865.9L625.5,865.9z M604.6,860.2h18.1v-18.4c0-1.5,1.3-2.8,2.9-2.8H644v-18.1h-18.4
		c-1.6,0-2.9-1.3-2.9-2.9v-18.4h-11.3c-2.3,2.9-4.5,5.7-6.8,8.5v9.9c0,1.6-1.3,2.9-2.9,2.9h-7.9c-3.5,4.1-7,8-10.5,11.9v6.2h18.4
		c1.6,0,2.9,1.3,2.9,2.8V860.2L604.6,860.2z"/>
	<path d="M695.5,664.6h-8.6c-0.9,0-1.8-0.5-2.3-1.2s-0.7-1.7-0.4-2.6c4.4-12.8,8.5-27.8,12.2-44.8c0.3-1.3,1.4-2.2,2.8-2.2h17.5
		c1.6,0,2.9,1.3,2.9,2.9v23.8c0,1.6-1.3,2.9-2.9,2.9h-18.4v18.4C698.4,663.4,697.1,664.6,695.5,664.6L695.5,664.6z M697.1,637.7
		h16.8v-18.1h-12.4C700.1,625.8,698.6,631.9,697.1,637.7L697.1,637.7z"/>
</g>
<path d="M473.4,928.5l-1.5-0.9c-1.4-0.9-140.8-90.1-207.9-247.1c-42.7-99.7-46.3-334.8-46.4-337.1v-2.9h511.7v2.9
	c0,2.4-3.7,237.4-46.3,337.1c-67.1,157-206.5,246.2-207.9,247.1L473.4,928.5L473.4,928.5z M223.4,346.2
	c0.6,27.3,6.2,239.4,45.8,332.1c62.7,146.5,188.9,233.4,204.2,243.5c15.3-10.1,141.6-97,204.2-243.5
	c39.7-92.7,45.3-304.7,45.8-332.1L223.4,346.2L223.4,346.2z"/>
<path d="M470.8,417.5l-18.8-2c-5.9-0.8-9.5-2.9-9.5-2.9c-1.6-0.2-3.1,2.2-2.6,3.6c0,0,6,2.8,11.4,3.6c0.1,0,22.6,1.9,22.6,1.9
	L470.8,417.5z"/>
<path d="M258.3,362.5c0,0-1.8,26.4,2.4,43.1c4.5,17.7,16.8,42.4,16.8,42.4s6.4-7.7,19.6-20s28.8-10.7,28.8-10.7l23-0.1v-23h-23.2
	c0,0-22.4-0.9-35-8.6C277.5,377.7,258.3,362.5,258.3,362.5z"/>
<path class="st0" d="M494.8,396.8c0.3,0,0.7,0.1,1.1,0.2c1.8,0.3,4.1,0.8,6.7,1.2"/>
<g>
	<path d="M484.1,99.8V72.2h21V53.6h-21.4V30.9h-19.2v22.8h-21.4v18.6h21v27.6c3.2-0.8,6.6-1.3,10-1.3
		C477.7,98.6,480.9,99.1,484.1,99.8z"/>
</g>
<path d="M352.7,212.2c0,0-15.4,2.5-35.1,10.9c-18.5,7.9-30.2,17.2-30.2,17.2s1.2,4,0.6,7c0,0,14.5-11.8,33.1-19.5
	c17.5-7.2,32.4-10,32.4-10L352.7,212.2z"/>
<path d="M380.8,208.5l0.6,5.7c0,0,40.1-4.4,77.8-4.9l-0.1-5.5C436.8,204,396.4,206.6,380.8,208.5z"/>
<path d="M595.5,212.5c0,0,15.8,2.1,35.4,10.5c18.5,7.9,28.5,15.9,28.5,15.9s-1.6,3.5-1.2,6.5c0,0-12.3-10-30.9-17.7
	c-17.5-7.2-32.8-9.7-32.8-9.7L595.5,212.5z"/>
<path d="M567.5,208.6l-0.6,5.7c0,0-40.9-4.3-78.6-4.8l0.4-5.7C511,204,551.9,206.7,567.5,208.6z"/>
<g>
	<path d="M495.7,401.6c0.5,0.1,4.3,0.6,5.3,0.3c0.9-0.3,1.5-3.4,1.5-3.4l-7.9-1.3C494.6,397.2,495,401.4,495.7,401.6z M676.8,547.9
		c0,0-10,2.4-17.2-0.8c-2.1-1-11-3.1-12.4-2.9c-6.3,0.3-12,2.2-12,2.2s7.3-13.6,25.6-30c18.3-16.3,43-50.4,35.9-81.1
		c-7.1-30.6-23.8-40.6-45.1-40.3c-23.5,0.3-36.1,6.5-43.5,24.4c-3,7-1,13.8-3.2,22.4c-0.2,1-5,8.7-9.7,15.1
		c-3.9,5.4-10.5,25.3-10.5,25.3l2.6-0.5l17.9-18.2l1.2,10.4c0,0-8.5,11-20.2,25.7c-7.5,9.5-18.3,31.1-20.6,39l4.8-1
		c0,0,9.1-13.3,34.5-32.1c8.2-6.1,22.1-15.3,24.9-24.6c2.9-9.2,0.6-19.4,0.6-19.4s6.8,5.5,9.5,14.4c2.6,8.9,1.2,16.3,1.2,16.3
		s8-21.2,6.4-32.8c-2.4-17.3-6.8-21-15-23.1c-2-0.5-9.4-0.7-9.4-0.7s-5.8-19.8,13.8-26.2c13.7-4.5,30.2-5.2,41.3,13.3
		c11.8,19.5,5.5,42.8-4,54.6c-10.2,12.5-28.4,29.5-61.9,52.6c-24.2,16.6-44.2,38.5-41.1,61.7c4,29.6,28.3,64.8,40.1,82.7
		c11.7,17.8,17.7,39.6,6.9,55c-10.2,14.5-34.4,20.7-50.1,9.5c-12.8-9.2-28.1-34.5-40.8-69.1c-10.4-28.4-23.3-44.3-23.3-44.3
		l2.3-97.5l7,3.3c0,0,0.9-9.7,3.7-17.2c3.7-9.8,16.4-26.5,24.1-45.4c7.7-18.9,7.6-45.5,7.6-45.5s5.3-4.6,8.2-9l0.3-9l-7.8-5.1
		l0.2-0.1l15-22.9c-2.7-1.2-9.4,2.1-9.4,2.1s-6.4-7.8-10.3-0.4c-3,6,3.1,7.7,3.1,7.7l-2.9,4.2l-16.1-4.1l-1.3-5.9
		c0,0,7.3,4.9,9.3-2.6c1.8-6.7-6.3-6.2-6.3-6.2s2.5-4.7-4.4-6.6c-6.7-1.9-6.8,3.8-6.8,3.8s-7-4.6-8.6,2.2c-1.5,6.5,5.7,6.6,5.7,6.6
		l-4.5,4.8l-15.2-2.9l-1.8-5.5c0,0,8.6,0,7.4-6.9c-1.4-8.1-9.5-3.6-9.5-3.6s-2.3-5-7.3-3.6l2.4,24.3l53.7,12.6l-6.1,2.3L486.8,388
		l-16.6,11.9l1.7,12.8l7.9,10l-6.7,11.1l25.4,2.5l-2.8,6.6c0,0-11.7,1.2-31.4,6.2c-5.2,1.3-37.8,23.5-46.8,32
		c-5.2,5-8.3,12.8-8.3,12.8l-37.7-19.5l-2-7.7L361,469l-9-5.3c0,0,8.1-9.5,11.8-19.5c2.8-7.7-2.1-18.8-2.1-18.8l-3.3-2.1l-0.4,13.9
		l-9.2,3.4l-5.7,15.1l-2.9-2v-71.4h-12.6v63.9c0,0-1.1-1.7-10-2.6s-16.3,2.9-16.3,2.9l-2.9,3.5l14.1,1.8l2.5,9.2l12.5,3.4v7.8
		c0,0-5.5-1.4-12.9,4.9c-8.4,7.3-11,17.1-11,17.1l0.9,3.8c2.2-2.5,6.3-9.2,8.1-8.8c5.3,1.2,6.4,1.5,10.1,3.7l4.8-4.1v98.4
		c0,0-7.1-2.5-12.1-0.8c-3,0.9-6.5,1.5-8.8,2.8l-2.1,4.1c0,0,9.5-2.4,13,0.7c2.9,2.6,1.6,5,3.1,7.6c0.8,1.4,4.3,2.7,5.4,4.5
		l-0.2,15.9l-7.3,12.4l-0.7,6.6l9.7-8v34.3h12.6v-32l5.5,0.8l15.9-17.7c0,0,8.8,0.1,10.9,4.3c1.4,2.7,0.5,7.8,2.2,10
		c1.7,0.9,3.3,1.6,3.3,1.6l82.4-98.8l-33.8,40.6l6.4,17.1l16,17.6l5.3,32.1l-40.7,19.2c0,0-3.6,9-6.4,25.4c-2.9,16.4-4.5,29-4.5,29
		l3.3,13.6l-49.3-5.2l-3.6-13.2c0,0,6.2-7.2,10.7-16.9s-0.9-22.4-0.9-22.4l-3.1-3.6l-1.2,14.7l-8.4,1.9l-2,15.4l-4.7-0.4
		c0,0-3.5-9.6-13.4-15.9c-10.2-6.5-21.1-3.6-21.1-3.6l-1.9,2.4l14.5,4.3l-2.3,9.8l16.7,6.8l-2.1,3.7l-15.2,2.6l-1.8,5.3l-14.3-0.7
		l1.5,2.6c0,0,6.7,5.9,17.3,5.9c10.7,0,17.5-4.6,17.5-4.6l6.2,15.5l-7.7,7.8l2.4,2.8l7.1-0.8l55,11.5l10.4,8.9l18-8.1
		c0,0-0.1-8.8,3.5-13.7c2.2-3.2,6.5-8.9,9.3-12.7c-0.5-0.9-8.5-15-9.9-18c-4-8.4-4.4-30.1-3.7-33.7c2.1-9.9,32.5-35.7,32.5-35.7
		l8.5-17.5l3.8,1.7l-8.5,18.7c-19.5,15.1-31.4,30.1-32.1,34.3c-0.4,2.6-0.3,23.2,3.6,30.6c1.6,3.1,8.7,15.9,8.7,15.9
		s7.8,10.9,19.2,21.6c11.4,10.7,16.8,17.6,19.1,27.2c3.7,15.2,5.1,38.2,4.8,55.6c-0.1,7.1,0.1,13.3,0.1,13.3l-12,2.8
		c0,0-9.3-16.8-13.8-18.8c-9.5-4.2-17.6-7.4-17.6-7.4l-4,1.4l10.4,8.6l-1.2,12.8l16.7,10.4c0,0-9.3,3.7-14,3.7
		c-9.9,0-17.6,16.1-17.6,16.1l-0.2,3.3l10.8-5.8l9.3,5l14.1-11.8l2.9,2.4c0,0-2.5,10.5-0.9,18.9c1.7,8.3,7.8,16.7,7.8,16.7l4.3,0.7
		l-3.9-15.5l8.9-7.7l-4-14.3l12.7-8.9l11.7,9.1l1.7-1.9c-2.4-21.4,4.2-71.2,4.2-71.2s5.8-5.7,6.3-10.5c0.4-4,0.4-13.9-0.6-17.1
		c-3-2.9-5.7-10.8-5.7-10.8s-5.2-22.3-3.5-47.2c0.4-5.8,0.5-11.2,0.4-16.2c3,5.2,15.8,26.8,27.1,40.5c20,24.2,43.9,29,57.7,24.9
		c53.2-15.6,40.3-65.6,40.3-65.6c-20.4-50.6-16.6-58.7-16.6-58.7l34.9-14.9l-0.7-2.3l-13,0.6l-15.2-3.1h-9.7l-0.2-5.3l50.1-22.3
		l-0.8-2.8l-9.6,1.1l-20.1-4.4l-17.6,3.7l1.9-8.8L676.8,547.9z M545.6,405.7l4.4,2.2l-0.3,4.9l-5.4,4.8l-1.4-5.4l-3.8-4.1
		L545.6,405.7z M340.5,621.2v-14.3c0,0,9.4-0.8,9.7,4.8C350.5,616.9,340.5,621.2,340.5,621.2z M371.8,602.6l-9.5-6.4l-0.3-22.3
		l-12-19.5l-4.4,0.3l5.9,12.1l-5.9,10.5l5.4,13.6l-4.3,4.2l-7.6-9.3V474.7l10,5.5l-3.5,6.7l5.8,4.2l4.8-1.8l47.5,35.8l-3.1,11.2
		l14.3-1.3L371.8,602.6z M439,484.8c-3.7,1.9-17.1,26.1-17.1,26.1l-3.8-1.9c2.3-4.5,14.1-25.2,18.7-27.8c4.2-2.4,20.1-4,29.8-4.9
		l0.3,4C466.8,480.4,444.2,482.1,439,484.8z M481.9,398.9l9.1-6.4l29.1,6.3l1.2,4.7c-3.4-1.6-14.4-4.1-14.4-4.1
		c-1.4,5.3-3.6,5.8-4.7,6.4c-0.7,0.3-5.5,0.7-7.9-0.3c-3.4-1.6-3.5-7.8-3.5-7.8c-4.1,1-7,3.7-7,3.7L481.9,398.9z M486.8,423.2
		l-2.3-7.1l20.6,2.3l1.6,7.2L486.8,423.2z"/>
</g>
<g>
	<path d="M1078.8,339.4H1256c102.6,0,155,20,155,146.4s-54,148-155.6,148h-71.3V737h-105.3L1078.8,339.4L1078.8,339.4z M1256,550.1
		c23.2,0,49.1-2.2,49.1-63.2s-27-62.7-49.7-62.7h-71.3v125.9H1256z"/>
	<path d="M1443.9,538.2c0-174.5,77.2-205.3,196.1-205.3c119.4,0,195,29.7,195,204.2s-76.7,206.3-196.1,206.3
		C1520,743.5,1443.9,712.7,1443.9,538.2z M1724.2,553.9v-31.3c0-75.1-18.9-99.9-85.3-99.9c-65.9,0-84.3,23.8-84.3,98.8v31.3
		c0,75.1,19.4,103.2,85.3,103.2C1706.4,656,1724.2,629,1724.2,553.9z"/>
	<path d="M1884,339.4h105.9v309h178.8V737H1884V339.4z"/>
	<path d="M2212.3,339.4h106.4v397.5h-106.4V339.4z"/>
	<path d="M2489.3,430.7h-126.4v-91.3h359.2v91.3h-126.9V737h-105.9L2489.3,430.7L2489.3,430.7z"/>
	<path d="M2766.3,339.4h106.4v397.5h-106.4V339.4z"/>
	<path d="M2938.1,339.4h284.6v91.3h-178.8v61h144.2V583h-144.2v65.4h178.8V737h-284.6V339.4z"/>
	<path d="M3379.8,430.7h-126.4v-91.3h359.2v91.3h-126.9V737h-105.9L3379.8,430.7L3379.8,430.7z"/>
</g>
</svg>
