<?xml version="1.0" encoding="UTF-8"?>
	<svg xmlns="http://www.w3.org/2000/svg" viewBox="0 0 803.8 250.4">
		<defs>
			<style>.d{fill:#fff;}.e{fill:#d52b1e;}</style>
		</defs>
		<g id="a">
			<rect class="d" x=".1" y=".1" width="803" height="250.2"/>
		</g>
		<g id="b">
			<g>
				<path d="m248.7,72.6c5.6-.9,14-1.6,23.3-1.6s19.5,1.7,25.1,6.1c4.6,3.7,7.1,9.1,7.1,16.2s-7,16.7-13.7,19.1v.3c5.4,2.2,8.4,7.4,10.3,14.5,2.4,8.7,4.8,18.8,6.3,21.8h-17.9c-1.3-2.2-3.1-8.5-5.4-18-2.1-9.7-5.4-12.3-12.5-12.4h-5.3v30.5h-17.4v-76.4Zm17.4,33.3h6.9c8.7,0,13.9-4.4,13.9-11.1s-4.8-10.7-12.9-10.8c-4.3,0-6.7.3-7.9.6v21.4Z"/><path d="m356,94.5l5.4-7.9,6.1,4.3-5.2,7.7c6,5.2,9.4,12.8,9.4,22.2,0,20-14.7,29.5-29.3,29.5s-9.4-.9-13.3-3l-5.6,8.2-5.7-4.6,5.1-7.5c-6.1-4.9-9.8-12.5-9.8-22.4,0-17.7,12-29.4,29.3-29.4s9.8.9,13.7,3Zm-7.5,11.5c-1.7-1.3-3.7-2.1-6.2-2.1-9.1,0-12.5,9.1-12.5,16.9s.6,6.4,2.1,9h.2c0,.1,16.4-23.8,16.4-23.8Zm-12.1,29.7c1.6,1.5,3.7,2.1,5.9,2.1,7.8,0,12.5-6.7,12.5-16.5s-.5-6.1-1.7-8.7h-.3c0-.1-16.3,23.2-16.3,23.2Z"/><path d="m437.4,67.4v64.8c0,6.3.2,13,.5,16.8h-15.5l-.8-8.3h-.2c-3.6,6.3-10.3,9.5-17.6,9.5-13.3,0-24-11.4-24-28.8-.1-19,11.7-29.9,25.2-29.9s12.3,2.4,14.8,6.3h.2v-30.5h17.5Zm-17.5,49.2c0-.9-.1-2.2-.2-3.1-1-4.7-4.8-8.6-10.2-8.6-7.9,0-12.1,7.1-12.1,16s4.7,15.5,12,15.5,9.1-3.4,10.1-8.4c.3-1.3.5-2.5.5-4v-7.4Z"/><path d="m464.8,126.5c.6,7.2,7.7,10.7,15.9,10.7s10.8-.8,15.5-2.3l2.3,11.8c-5.7,2.3-12.8,3.4-20.3,3.4-19.1,0-30-11-30-28.6s8.8-30,28.4-30,25.1,14.1,25.1,28-.3,5.6-.6,6.9h-36.2Zm20.6-12c0-4.3-1.8-11.4-9.9-11.4s-10.3,6.7-10.8,11.4h20.7Z"/><path d="m535.9,71.6h17.4v34.2h.3c1.7-3,3.6-5.7,5.3-8.5l17.6-25.7h21.5l-25.6,33,27,44.5h-20.5l-19-33.4-6.7,8.2v25.3h-17.4v-77.5Z"/><path d="m659.4,120.3c0,20.6-14.6,30-29.7,30s-29.1-10.8-29.1-29,12-29.8,30-29.8,28.7,11.8,28.7,28.7Zm-40.7.6c0,9.7,4,16.9,11.5,16.9s11.1-6.8,11.1-16.9-3.2-16.9-11.1-16.9-11.5,8.6-11.5,16.9Z"/><path d="m670.2,111.3c0-8.3-.2-13.7-.5-18.5h15.1l.6,10.3h.5c2.9-8.2,9.8-11.6,15.2-11.6s2.4,0,3.7.2v16.4c-1.3-.2-2.8-.5-4.7-.5-6.4,0-10.8,3.4-12,8.8-.2,1.1-.3,2.5-.3,3.9v28.5h-17.5v-37.7Z"/><path d="m713.8,133.7c3.2,2,9.9,4.3,15.1,4.3s7.5-1.8,7.5-4.7-1.7-4.3-8.3-6.4c-11.6-3.9-16.1-10.2-16-16.9,0-10.5,9-18.4,22.9-18.4s12.4,1.5,15.9,3.2l-3.1,12.1c-2.5-1.4-7.4-3.2-12.2-3.2s-6.7,1.7-6.7,4.6,2.2,4,9.1,6.4c10.7,3.7,15.2,9.1,15.3,17.4,0,10.5-8.3,18.2-24.4,18.2s-13.9-1.6-18.2-3.9l3.1-12.5Z"/></g></g><g id="c"><rect class="e" x="99.7" y="50.1" width="50" height="150"/><rect class="e" x="49.7" y="100.1" width="150" height="50"/></g></svg>