<?xml version="1.0" encoding="utf-8"?>
<!-- Generator: Adobe Illustrator 23.0.3, SVG Export Plug-In . SVG Version: 6.00 Build 0)  -->
<svg version="1.1" id="Layer_1" xmlns="http://www.w3.org/2000/svg" xmlns:xlink="http://www.w3.org/1999/xlink" x="0px" y="0px"
	width="572" height="140" viewBox="0 0 572.54 140.74" style="enable-background:new 0 0 572.54 140.74;" xml:space="preserve">
<style type="text/css">
	.st0{fill:#0069B4;}
	.st1{fill:#FFFFFF;}
</style>
<g>
	<path class="st0" d="M180.36,40.19l12.03,19.18h-7.74l-11.73-18.7h-4.82v18.7h-6.55V17.68h14.59c7.8,0,12.33,4.35,12.33,11.5
		C188.46,34.89,185.54,38.82,180.36,40.19z M176.31,34.48c3.34,0,5.48-1.73,5.48-5.3c0-3.57-2.14-5.3-5.48-5.3h-8.22v10.6H176.31z"
		/>
	<path class="st0" d="M194.83,44.36c0-4.35,1.31-8.04,3.99-11.02c2.68-2.98,6.31-4.47,10.78-4.47c4.47,0,8.04,1.49,10.72,4.47
		c2.68,2.98,4.05,6.67,4.05,11.02c0,4.35-1.37,8.04-4.05,11.02c-2.68,2.98-6.25,4.47-10.72,4.47c-4.47,0-8.1-1.49-10.78-4.47
		C196.14,52.4,194.83,48.71,194.83,44.36z M201.38,44.36c0,2.74,0.71,5.12,2.14,7.09c1.49,1.97,3.51,2.92,6.07,2.92
		c2.56,0,4.59-0.95,6.02-2.92c1.49-1.97,2.2-4.35,2.2-7.09s-0.71-5.06-2.2-7.03c-1.43-1.97-3.45-2.98-6.02-2.98
		c-2.56,0-4.59,1.01-6.07,2.98C202.09,39.3,201.38,41.62,201.38,44.36z"/>
	<path class="st0" d="M234.01,31.62c2.03-1.85,4.59-2.74,7.68-2.74c1.97,0,3.81,0.42,5.48,1.31l5.54-2.98l2.5,4.47l-4.05,2.26
		c0.89,1.49,1.31,3.16,1.31,5c0,3.1-1.01,5.54-3.04,7.39c-2.03,1.79-4.59,2.68-7.74,2.68c-1.73,0-3.34-0.3-4.82-0.89
		c-1.07,0.6-1.61,1.49-1.61,2.62c0,1.55,1.01,2.32,3.1,2.32h6.61c6.02,0,9.95,3.04,9.95,8.58c0,3.51-1.25,6.07-3.81,7.8
		c-2.5,1.73-5.6,2.56-9.35,2.56c-7.86,0-13.22-3.51-13.22-9.89c0-2.44,0.83-4.47,2.56-6.07c-1.13-1.13-1.73-2.74-1.73-4.71
		c0-2.68,1.19-4.71,3.63-6.07c-1.37-1.67-2.02-3.75-2.02-6.31C230.97,35.91,231.99,33.46,234.01,31.62z M238.84,58.3
		c-1.07,0-2.08-0.06-3.04-0.18c-0.89,0.89-1.31,2.14-1.31,3.63c0,3.04,2.74,4.88,7.27,4.88c4.29,0,6.85-1.67,6.85-4.53
		c0-2.56-1.67-3.81-4.94-3.81H238.84z M246.46,38.94c0-2.92-1.91-4.88-4.76-4.88c-2.8,0-4.71,1.97-4.71,4.88
		c0,2.92,1.91,4.88,4.71,4.88C244.55,43.83,246.46,41.86,246.46,38.94z"/>
	<path class="st0" d="M271.53,40.91h5.18V39.6c0-3.57-2.44-5.24-5.84-5.24c-2.74,0-4.59,1.31-5.6,3.99l-5.66-1.19
		c1.25-5.06,5.6-8.28,11.32-8.28c7.98,0,11.97,3.93,11.97,11.85v18.64h-5.24l-0.6-3.93c-2.08,2.92-5.18,4.41-9.29,4.41
		c-5.3,0-9.23-3.16-9.23-9.11C258.55,44.6,263.73,40.91,271.53,40.91z M268.85,54.37c2.08,0,3.93-0.66,5.48-1.97
		c1.61-1.37,2.38-3.22,2.38-5.66v-0.66h-5.42c-3.81,0-6.19,1.79-6.19,4.65C265.1,52.88,266.41,54.37,268.85,54.37z"/>
	<path class="st0" d="M290.64,17.2h6.19v42.17h-6.19V17.2z"/>
	<path class="st0" d="M316.49,40.91h5.18V39.6c0-3.57-2.44-5.24-5.84-5.24c-2.74,0-4.59,1.31-5.6,3.99l-5.66-1.19
		c1.25-5.06,5.6-8.28,11.32-8.28c7.98,0,11.97,3.93,11.97,11.85v18.64h-5.24l-0.6-3.93c-2.08,2.92-5.18,4.41-9.29,4.41
		c-5.3,0-9.23-3.16-9.23-9.11C303.51,44.6,308.69,40.91,316.49,40.91z M313.81,54.37c2.08,0,3.93-0.66,5.48-1.97
		c1.61-1.37,2.38-3.22,2.38-5.66v-0.66h-5.42c-3.81,0-6.19,1.79-6.19,4.65C310.06,52.88,311.37,54.37,313.81,54.37z"/>
	<path class="st0" d="M335.73,29.35h6.19v5.12c2.14-3.57,5.72-5.6,9.71-5.6c5.3,0,8.81,3.28,8.81,8.99v21.5h-6.19V39.84
		c0-3.63-1.55-5.48-4.65-5.48c-2.08,0-3.87,1.19-5.42,3.51c-1.49,2.32-2.26,5.42-2.26,9.35v12.15h-6.19V29.35z"/>
	<path class="st0" d="M380.69,28.88c1.49,0,2.98,0.42,4.59,1.19c1.61,0.77,2.74,1.61,3.45,2.62V17.2h6.19v42.17h-6.19v-3.45
		c-1.13,1.97-4.53,3.93-8.16,3.93c-8.76,0-13.4-5.72-13.4-15.49C367.17,34.83,371.87,28.88,380.69,28.88z M373.72,44.36
		c0,3.04,0.71,5.48,2.14,7.33c1.43,1.79,3.28,2.68,5.54,2.68c2.26,0,4.11-0.89,5.54-2.68c1.43-1.85,2.14-4.29,2.14-7.33
		c0-3.04-0.71-5.48-2.14-7.27c-1.43-1.85-3.28-2.74-5.54-2.74c-2.26,0-4.11,0.89-5.54,2.74C374.43,38.88,373.72,41.32,373.72,44.36z
		"/>
	<path class="st0" d="M158.2,96.14v-5.48h3.87v-1.55c0-7.09,3.81-10.6,10.07-10.6c1.97,0,3.57,0.36,4.94,1.07l-1.25,5.24
		c-1.07-0.54-2.26-0.83-3.51-0.83c-2.68,0-4.05,1.55-4.05,4.71v1.97h6.61v5.48h-6.61v24.54h-6.19V96.14H158.2z"/>
	<path class="st0" d="M177.97,90.66h6.55l7.09,20.19l6.85-20.19h6.55l-15.19,42.17h-6.19l4.88-13.64L177.97,90.66z"/>
	<path class="st0" d="M210.43,78.51h6.19v42.17h-6.19V78.51z"/>
	<path class="st0" d="M224.24,78.51h6.19v24.12l10.84-11.97h7.86l-12.57,13.82l13.34,16.2h-7.86l-11.61-14.35v14.35h-6.19V78.51z"/>
	<path class="st0" d="M278.26,107.39H257c0,4.71,2.74,8.28,7.44,8.28c3.34,0,6.37-1.91,7.86-5.06l5.3,2.08
		c-3.04,5.9-6.55,8.46-13.16,8.46c-9.89,0-14-8.34-14-15.49c0-7.15,4.11-15.49,14-15.49c9.59,0,13.82,7.8,13.82,14.53V107.39z
		 M257.12,102.21h14.59c-0.54-3.75-3.04-6.55-7.27-6.55C260.45,95.66,257.83,98.34,257.12,102.21z"/>
	<path class="st0" d="M302.38,94.95l-3.93,3.45c-1.43-1.85-3.16-2.74-5.24-2.74c-1.67,0-2.98,1.07-2.98,2.98
		c0,0.66,0.24,1.31,0.77,1.85c1.01,1.01,2.03,1.49,4.59,2.44c2.08,0.77,2.98,1.07,4.65,2.2c2.38,1.43,3.51,3.22,3.75,6.49
		c0,2.68-0.95,4.94-2.86,6.79c-1.91,1.85-4.41,2.74-7.56,2.74c-5.72,0-9.77-3.69-11.61-8.04l5.24-2.86
		c1.61,3.63,3.81,5.42,6.61,5.42c2.68,0,4.05-1.31,4.05-3.93c0-1.01-0.42-1.73-1.55-2.38c-0.54-0.36-1.07-0.66-1.55-0.83
		c-0.89-0.42-3.1-1.19-4.05-1.61c-4.29-1.79-6.43-4.53-6.43-8.22c0-2.38,0.89-4.41,2.62-6.02c1.73-1.67,3.93-2.5,6.61-2.5
		C297.14,90.18,300.47,92.03,302.38,94.95z"/>
	<path class="st0" d="M309.46,78.51h6.19v24.12l10.84-11.97h7.86l-12.57,13.82l13.34,16.2h-7.86l-11.61-14.35v14.35h-6.19V78.51z"/>
	<path class="st0" d="M335.79,105.67c0-4.35,1.31-8.04,3.99-11.02s6.31-4.47,10.78-4.47c4.47,0,8.04,1.49,10.72,4.47
		c2.68,2.98,4.05,6.67,4.05,11.02c0,4.35-1.37,8.04-4.05,11.02c-2.68,2.98-6.25,4.47-10.72,4.47c-4.47,0-8.1-1.49-10.78-4.47
		S335.79,110.01,335.79,105.67z M342.34,105.67c0,2.74,0.71,5.12,2.14,7.09c1.49,1.97,3.51,2.92,6.07,2.92
		c2.56,0,4.59-0.95,6.02-2.92c1.49-1.97,2.2-4.35,2.2-7.09s-0.71-5.06-2.2-7.03c-1.43-1.97-3.45-2.98-6.02-2.98
		c-2.56,0-4.59,1.01-6.07,2.98C343.05,100.6,342.34,102.93,342.34,105.67z"/>
	<path class="st0" d="M371.58,90.66h6.19v5.12c2.44-3.75,5.42-5.6,9.05-5.6c4.05,0,7.39,2.44,8.28,6.19
		c2.08-3.99,5.48-6.19,9.35-6.19c5.42,0,8.58,3.57,8.58,8.99v21.5h-6.19v-20.13c0-3.16-1.73-4.88-4.41-4.88
		c-3.87,0-7.03,5.06-7.03,12.98v12.03h-6.19v-20.13c0-3.16-1.73-4.88-4.41-4.88c-3.99,0-7.03,5.06-7.03,13.64v11.38h-6.19V90.66z"/>
	<path class="st0" d="M420.77,90.66h6.19v5.12c2.44-3.75,5.42-5.6,9.05-5.6c4.05,0,7.39,2.44,8.28,6.19
		c2.08-3.99,5.48-6.19,9.35-6.19c5.42,0,8.58,3.57,8.58,8.99v21.5h-6.19v-20.13c0-3.16-1.73-4.88-4.41-4.88
		c-3.87,0-7.03,5.06-7.03,12.98v12.03h-6.19v-20.13c0-3.16-1.73-4.88-4.41-4.88c-3.99,0-7.03,5.06-7.03,13.64v11.38h-6.19V90.66z"/>
	<path class="st0" d="M494.55,120.68h-6.19v-5.12c-2.14,3.57-5.72,5.6-9.71,5.6c-5.3,0-8.81-3.28-8.81-8.99v-21.5h6.19v19.54
		c0,3.63,1.55,5.48,4.65,5.48c2.08,0,3.87-1.13,5.36-3.45c1.55-2.32,2.32-5.48,2.32-9.41V90.66h6.19V120.68z"/>
	<path class="st0" d="M502.17,90.66h6.19v5.12c2.14-3.57,5.72-5.6,9.71-5.6c5.3,0,8.81,3.28,8.81,8.99v21.5h-6.19v-19.54
		c0-3.63-1.55-5.48-4.65-5.48c-2.08,0-3.87,1.19-5.42,3.51c-1.49,2.32-2.26,5.42-2.26,9.35v12.15h-6.19V90.66z"/>
	<path class="st0" d="M560.66,107.39h-21.26c0,4.71,2.74,8.28,7.44,8.28c3.34,0,6.37-1.91,7.86-5.06l5.3,2.08
		c-3.04,5.9-6.55,8.46-13.16,8.46c-9.89,0-14-8.34-14-15.49c0-7.15,4.11-15.49,14-15.49c9.59,0,13.82,7.8,13.82,14.53V107.39z
		 M539.51,102.21h14.59c-0.54-3.75-3.04-6.55-7.27-6.55C542.85,95.66,540.23,98.34,539.51,102.21z"/>
</g>
<g>
	<path class="st0" d="M124.8,2.75H11.39c0,0-3.87,63.38,20.75,97.53c19.72,27.35,35.93,37.69,35.96,37.71
		c0.02-0.01,16.24-10.35,35.95-37.71C128.67,66.13,124.8,2.75,124.8,2.75"/>
</g>
<polygon class="st1" points="106.12,39.42 79.13,44.65 85.22,13.01 50.97,13.01 57.07,44.65 30.07,39.42 30.65,71.65 56.77,65.7 
	51.12,99.95 63.31,99.81 66.65,126.22 68.1,128.11 69.55,126.22 72.88,99.81 85.08,99.95 79.42,65.7 105.55,71.65 "/>
</svg>
