<svg xmlns="http://www.w3.org/2000/svg" viewBox="0 0 1324 354">
<path fill="#0F0035" d="M385.8,12.7L385.8,12.7c-47.6,0-90.5,20.3-120.5,52.7l73.4,73.4c21.1,21.1,21.1,55.3,0,76.3l-73.4,73.4c30,32.4,72.9,52.7,120.5,52.7h0c90.7,0,164.3-73.6,164.3-164.3v0C550.1,86.3,476.5,12.7,385.8,12.7z"/>
<path fill="#0F0035" d="M221.5,177c0-43.1,16.6-82.3,43.8-111.6l-48.8-48.8c-21.1-21.1-55.3-21.1-76.3,0L17.8,138.8c-21.1,21.1-21.1,55.3,0,76.3l122.3,122.3c21.1,21.1,55.3,21.1,76.3,0l48.8-48.8C238.1,259.3,221.5,220.1,221.5,177L221.5,177z"/>
<path fill="#0F0035" d="M659.7,227.8h37c4.2,44.9,34.9,66.9,74.8,66.9c37,0,63.2-19.1,63.2-47.8c0-78.1-166.2-36.6-166.2-140c0-46.5,40.3-76.9,95.6-76.9c59.4,0,96.8,31.2,103.9,83.1h-37.4c-5.8-32-30.7-50.3-66.5-50.3c-35.3,0-57.3,16.6-57.3,42.8c0,67.3,166.2,26.6,166.2,139.2c0,49.9-42.4,82.7-101.4,82.7C710,327.5,664.7,293,659.7,227.8z"/>
<path fill="#0F0035" d="M933.1,26.6c14.1,0,24.5,10,24.5,23.7S947.2,74,933.1,74C919.4,74,909,64,909,50.3S919.4,26.6,933.1,26.6z M915.7,114.7h35.7v209.4h-35.7V114.7z"/>
<path fill="#0F0035" d="M1073.5,219l-30.7,28.3v76.9h-35.7V30h35.7v171.2l97.6-86.4h47.8l-88.1,80.2l95.6,129.2h-42.8L1073.5,219z"/>
<path fill="#0F0035" d="M1232.3,262.2v-118h-35.7v-29.5h35.7V61.5h35.3v53.2h53.2v29.5h-53.2v115.1c0,24.5,12.5,36.6,30.7,36.6c7.9,0,16.6-1.7,23.7-4.2v30.3c-7.9,3.7-18.3,5.4-27.8,5.4C1258.4,327.5,1232.3,305,1232.3,262.2z"/>
</svg>
