<svg xmlns="http://www.w3.org/2000/svg" viewBox="-2 -2 556 358">
<path fill="#0F0035" d="M385.8,12.7L385.8,12.7c-47.6,0-90.5,20.3-120.5,52.7l73.4,73.4c21.1,21.1,21.1,55.3,0,76.3l-73.4,73.4c30,32.4,72.9,52.7,120.5,52.7h0c90.7,0,164.3-73.6,164.3-164.3v0C550.1,86.3,476.5,12.7,385.8,12.7z"/>
<path fill="#0F0035" d="M221.5,177c0-43.1,16.6-82.3,43.8-111.6l-48.8-48.8c-21.1-21.1-55.3-21.1-76.3,0L17.8,138.8c-21.1,21.1-21.1,55.3,0,76.3l122.3,122.3c21.1,21.1,55.3,21.1,76.3,0l48.8-48.8C238.1,259.3,221.5,220.1,221.5,177L221.5,177z"/>
</svg>
