<svg width="225" height="97" viewBox="0 0 225 97" fill="none" xmlns="http://www.w3.org/2000/svg">
<path d="M190.975 45.84L208.186 24.135L222.514 6.176H222.41L222.508 6.053H207.242L207.146 6.176H207.098L170.258 52.348L170.236 6.053H157.509V96.001H170.258V71.689L182.953 55.902L208.686 96.001H223.259L190.975 45.84ZM115.828 5.787H84.596V96.002H97.205V63.519H115.828C134.494 63.519 143.891 49.178 143.891 34.715C143.892 20.25 134.494 5.787 115.828 5.787ZM115.828 51.158H101.299V51.168H97.182V18.408H97.205V18.394H115.828C126.337 18.394 131.529 26.554 131.529 34.839C131.529 42.996 126.337 51.158 115.828 51.158ZM32.242 32.514H32.201V45.149L32.242 45.147C42.797 45.147 51.352 53.701 51.352 64.256C51.352 74.811 42.796 83.367 32.242 83.367C23.868 83.367 16.758 77.978 14.174 70.482H1.11099C4.00599 85.033 16.84 96 32.242 96C49.773 96 63.985 81.787 63.985 64.256C63.985 46.725 49.773 32.514 32.242 32.514Z" fill="#010202" stroke="black" stroke-miterlimit="10"/>
<path d="M32.243 64.136L32.283 64.134V51.502L32.243 51.504C21.689 51.504 13.134 42.947 13.134 32.393C13.134 21.839 21.69 13.284 32.243 13.284C40.617 13.284 47.727 18.671 50.31 26.167H63.372C60.477 11.618 47.643 0.649002 32.242 0.649002C14.712 0.648002 0.5 14.861 0.5 32.393C0.5 49.926 14.712 64.136 32.243 64.136Z" fill="#010202" stroke="black" stroke-miterlimit="10"/>
</svg>
