<svg width="59" height="58" viewBox="0 0 59 58" fill="none" xmlns="http://www.w3.org/2000/svg">
<path d="M37.2001 7.2C37.2001 11.2 34 14.4 30 14.4C26 14.4 22.8 11.2 22.8 7.2C22.8 3.2 26 0 30 0C34 0 37.2001 3.2 37.2001 7.2Z" fill="#6CACE4"/>
<path d="M37.2001 29C37.2001 32.9 34 36.2 30 36.2C26 36.2 22.8 33 22.8 29C22.8 25 26 21.8 30 21.8C34 21.8 37.2001 25 37.2001 29Z" fill="#003087"/>
<path d="M15.3 29C15.3 32.9 12.1 36.2 8.10002 36.2C4.10002 36.2 0.900024 33 0.900024 29C0.900024 25 4.10002 21.8 8.10002 21.8C12.1 21.8 15.3 25 15.3 29Z" fill="#6CACE4"/>
<path d="M59 29C59 32.9 55.8 36.2 51.8 36.2C47.8 36.2 44.6 33 44.6 29C44.6 25 47.8 21.8 51.8 21.8C55.8 21.8 59 25 59 29Z" fill="#6CACE4"/>
<path d="M37.2001 50.8C37.2001 54.7 34 58 30 58C26 58 22.8 54.8 22.8 50.8C22.8 46.8 26 43.6 30 43.6C34 43.6 37.2001 46.8 37.2001 50.8Z" fill="#6CACE4"/>
</svg>
