<svg width="209" height="55" viewBox="0 0 209 55" fill="none" xmlns="http://www.w3.org/2000/svg">
<g clip-path="url(#clip0_453_1718)">
<path d="M11.8253 49.5361C11.8253 49.5361 12.0113 49.8405 12.0113 50.3591C12.0113 50.3986 12.0113 50.438 12.0057 50.4775C12.0057 50.438 12.0113 50.3986 12.0113 50.3591C12.0113 49.8405 11.8253 49.5361 11.8253 49.5361C11.8253 49.5361 11.8197 49.4741 11.8479 49.4572C11.8591 49.4516 11.8761 49.4459 11.893 49.4516C11.8761 49.4516 11.8648 49.4516 11.8479 49.4572C11.8197 49.4741 11.8084 49.5079 11.8253 49.5361Z" fill="white"/>
<path d="M26.9555 13.6482C27.4572 14.7869 26.6568 15.5479 26.2002 15.5535C26.6568 15.5535 27.4629 14.7869 26.9555 13.6482C26.7977 13.2931 26.5779 13.1691 26.3411 13.1804C26.5722 13.1747 26.7921 13.2931 26.9499 13.6482H26.9555Z" fill="white"/>
<path d="M10.1346 48.6308C10.1121 48.6027 10.1177 48.5689 10.1458 48.5464C10.1571 48.5352 10.174 48.5352 10.1852 48.5352C10.1683 48.5352 10.1571 48.5352 10.1402 48.5464C10.1177 48.5689 10.1121 48.6027 10.129 48.6308H10.1346Z" fill="white"/>
<path d="M14.3002 51.7785C14.3002 51.7785 14.3002 51.7165 14.3284 51.6995C14.3002 51.7165 14.2889 51.7503 14.3002 51.7785Z" fill="white"/>
<path d="M14.0974 52.6799C13.8155 52.6799 13.6464 52.6235 13.6464 52.6292C13.6126 52.6179 13.5844 52.6348 13.5731 52.6686C13.5619 52.6968 13.5788 52.7306 13.6126 52.7419C13.5844 52.7306 13.5675 52.7025 13.5731 52.6686C13.5844 52.6348 13.6126 52.6179 13.6464 52.6292C13.6464 52.6292 13.8155 52.6855 14.0974 52.6855C14.1876 52.6855 14.2947 52.6743 14.4074 52.6574C13.4886 52.0035 12.6712 51.2932 12.0117 50.6562C12.6769 51.2932 13.4886 51.9978 14.4074 52.6574C14.2947 52.6743 14.1876 52.6799 14.0974 52.6799Z" fill="white"/>
<path d="M24.915 14.8046C25.4956 16.8564 26.9781 16.8508 27.4686 16.8508C26.9725 16.8508 25.4956 16.8508 24.915 14.8046Z" fill="white"/>
<path d="M28.748 15.5448C29.199 15.5448 29.898 14.7105 29.9036 14.6992C29.9036 14.6992 29.2046 15.5391 28.748 15.5448Z" fill="white"/>
<path d="M13.5166 50.5C14.1874 50.6578 15.5741 51.2215 16.025 53.1606C16.0758 53.3748 16.1941 53.5552 16.3407 53.7074C16.1998 53.5552 16.0814 53.3748 16.025 53.1606C15.5797 51.2215 14.1874 50.6578 13.5166 50.5Z" fill="white"/>
<path d="M29.853 13.9801C29.7008 13.8279 29.1202 13.191 28.6016 13.1797C29.1202 13.1966 29.7008 13.8392 29.853 13.9801Z" fill="white"/>
<path d="M11.8935 50.5455H11.8822C11.2396 50.5455 11.0761 50.4327 11.0705 50.4384C11.0423 50.4214 11.0085 50.4327 10.9916 50.4609C10.9747 50.4891 10.9859 50.5229 11.0085 50.5398C11.0085 50.5398 11.0141 50.5398 11.0254 50.5455C11.0198 50.5455 11.0141 50.5398 11.0141 50.5398C10.9859 50.5229 10.9803 50.4891 10.9972 50.4609C11.0141 50.4327 11.0479 50.4271 11.0761 50.4384C11.0761 50.4384 11.2396 50.5455 11.8878 50.5455H11.8991C10.7999 49.4744 10.1348 48.6289 10.1348 48.6289C10.1348 48.6289 10.8056 49.4801 11.8991 50.5455H11.8935Z" fill="white"/>
<path d="M5.30417 41.2656C5.38872 41.2205 5.46764 41.2036 5.54092 41.2036C5.78331 41.1923 6.00879 41.3952 6.17789 41.6151C6.00315 41.4009 5.77767 41.1923 5.54092 41.2036C5.46764 41.2036 5.38872 41.2205 5.30417 41.2656C5.06742 41.3896 4.99414 41.5925 4.99414 41.8405C4.99414 41.5925 5.06742 41.384 5.30417 41.2656Z" fill="white"/>
<path d="M15.834 53.7629C15.6874 53.7629 15.5296 53.7686 15.3605 53.7855C15.2365 53.7967 15.1181 53.8024 14.9997 53.8024C14.3346 53.8024 13.7934 53.6107 13.3594 53.3458C13.7878 53.6107 14.3346 53.8024 14.9997 53.8024C15.1181 53.8024 15.2365 53.7967 15.3605 53.7855C15.5296 53.7686 15.6874 53.7629 15.834 53.7629C15.9805 53.7629 16.1102 53.7742 16.2342 53.7855C15.6423 53.4754 15.0786 53.1259 14.5488 52.7539C15.0786 53.1259 15.648 53.4754 16.2342 53.7855C16.1102 53.7742 15.9805 53.7629 15.834 53.7629Z" fill="white"/>
<path d="M5.23575 42.7383L5.23011 42.7721V42.7383H5.23575Z" fill="white"/>
<path d="M8.31937 44.7569C8.31937 44.7569 10.0725 45.2304 10.3205 47.5923C10.0725 45.2248 8.31937 44.7569 8.31937 44.7569Z" fill="white"/>
<path d="M13.0662 50.3548C12.869 48.8497 11.8994 48.427 11.3301 48.3086C11.8938 48.427 12.869 48.8497 13.0606 50.3548H13.0662Z" fill="white"/>
<path d="M11.9275 51.767C11.5442 51.6994 11.2341 51.5697 10.9805 51.4062C11.2341 51.5697 11.5498 51.6994 11.9331 51.767H11.9838V51.7727L11.9331 51.7614L11.9275 51.767Z" fill="white"/>
<path d="M10.6595 48.0604C10.6088 48.0153 10.5524 47.9702 10.4848 47.9251C10.3777 47.8462 10.2537 47.7673 10.124 47.7109C10.248 47.7673 10.372 47.8462 10.4848 47.9251C10.5524 47.9759 10.6088 48.021 10.6595 48.0661V48.0604Z" fill="white"/>
<path d="M10.9017 48.2806L10.8567 48.2356C10.8567 48.2356 10.8455 48.2244 10.8398 48.2188C10.8455 48.2188 10.8567 48.2356 10.8567 48.2356L10.9017 48.2862V48.2806Z" fill="white"/>
<path d="M6.51038 42.1419L6.56112 42.1531C6.56112 42.1531 8.24655 42.4237 8.25219 44.6616C8.25219 42.4237 6.56675 42.1588 6.56112 42.1531L6.51038 42.1419L6.48784 42.0968C6.48784 42.0968 6.4822 42.0799 6.47656 42.0742C6.47656 42.0855 6.48784 42.0968 6.48784 42.0968L6.51038 42.1419Z" fill="white"/>
<path d="M7.46853 14.8046C8.04913 16.8564 9.53164 16.8508 10.0221 16.8508C9.526 16.8508 8.05477 16.8508 7.46853 14.8046L7.5869 14.7031L7.46289 14.8046H7.46853Z" fill="white"/>
<path d="M9.50925 13.6482C10.0109 14.7869 9.2105 15.5479 8.75391 15.5535C9.20486 15.5535 10.0166 14.7869 9.50925 13.6482C9.35142 13.2931 9.13158 13.1691 8.89483 13.1804C9.13158 13.1747 9.34578 13.2931 9.50362 13.6482H9.50925Z" fill="white"/>
<path d="M8.33108 12.6461C8.40999 12.1895 8.34799 11.5469 7.11914 11.5469C8.34235 11.5469 8.40999 12.1895 8.33108 12.6461Z" fill="white"/>
<path d="M12.4067 13.9801C12.2545 13.8279 11.6739 13.191 11.1553 13.1797C11.6739 13.1966 12.2545 13.8392 12.401 13.9801H12.4067Z" fill="white"/>
<path d="M11.3018 15.5448C11.7583 15.5448 12.4517 14.7105 12.4573 14.6992C12.4573 14.6992 11.7583 15.5391 11.3018 15.5448Z" fill="white"/>
<path d="M25.7774 12.6461C25.7041 13.1027 24.9995 13.7791 24.9995 13.7791C24.9995 13.7791 25.6984 13.1027 25.7774 12.6461Z" fill="white"/>
<path d="M19.3345 11.4092C19.2895 11.398 19.2332 11.3923 19.1826 11.3867C19.2332 11.3923 19.2839 11.4036 19.3289 11.4092H19.3345Z" fill="white"/>
<path d="M9.79656 9.59929C8.22387 9.70639 7.64326 10.0502 7.62635 10.3321C7.60944 10.5576 7.64326 10.9071 7.71654 11.3636V11.4144C7.99275 11.482 8.20132 11.5948 8.34224 11.7639C8.47189 11.9217 8.53953 12.119 8.55081 12.3501C9.3287 11.8822 10.4561 11.3806 12.0626 10.986C11.9893 10.5463 11.9104 9.96005 11.9273 9.49219C11.6906 9.49782 10.9409 9.52037 9.8022 9.59365L9.79656 9.59929Z" fill="white"/>
<path d="M30.3768 11.5469C30.9236 11.5469 31.2449 11.6765 31.4197 11.8625L29.9033 18.2097H29.909L31.4253 11.8625C31.2505 11.6765 30.9349 11.5469 30.3825 11.5469H30.3768Z" fill="white"/>
<path d="M19.4754 8.91797C19.2443 8.98561 19.0076 9.03634 18.7539 9.03634C19.0132 9.03634 19.2612 8.99125 19.498 8.91797C19.498 8.91797 19.4811 8.91797 19.4754 8.91797Z" fill="white"/>
<path d="M15.3266 13.6482C15.834 14.7869 15.0279 15.5479 14.5713 15.5535C15.0279 15.5535 15.834 14.7869 15.3266 13.6482C15.1688 13.2931 14.949 13.1691 14.7122 13.1804C14.9433 13.1747 15.1632 13.2931 15.321 13.6482H15.3266Z" fill="white"/>
<path d="M19.0977 14.8046C19.6783 16.8564 21.1608 16.8508 21.6512 16.8508C21.1551 16.8508 19.6783 16.8508 19.0977 14.8046Z" fill="white"/>
<path d="M21.1382 13.6482C21.6398 14.7869 20.8394 15.5479 20.3828 15.5535C20.8394 15.5535 21.6455 14.7869 21.1382 13.6482C20.9803 13.2931 20.7605 13.1691 20.5237 13.1804C20.7548 13.1747 20.9747 13.2931 21.1325 13.6482H21.1382Z" fill="white"/>
<path d="M24.0356 13.9801C23.8834 13.8279 23.3028 13.191 22.7842 13.1797C23.3028 13.1966 23.8834 13.8392 24.0299 13.9801H24.0356Z" fill="white"/>
<path d="M22.9307 15.5448C23.3816 15.5448 24.075 14.7105 24.0862 14.6992C24.0862 14.6992 23.3873 15.5391 22.9307 15.5448Z" fill="white"/>
<path d="M13.2861 14.8046C13.8667 16.8564 15.3492 16.8508 15.8397 16.8508C15.3436 16.8508 13.8667 16.8508 13.2861 14.8046Z" fill="white"/>
<path d="M17.1191 15.5448C17.5701 15.5448 18.2634 14.7105 18.2747 14.6992C18.2747 14.6992 17.5757 15.5391 17.1191 15.5448Z" fill="white"/>
<path d="M19.9607 12.6461C20.0397 12.1895 19.972 11.5469 18.7432 11.5469C19.9664 11.5469 20.034 12.1895 19.9551 12.6461H19.9607Z" fill="white"/>
<path d="M18.2184 13.9801C18.0662 13.8279 17.4856 13.191 16.9727 13.1797C17.4913 13.1966 18.0719 13.8392 18.2184 13.9801Z" fill="white"/>
<path d="M9.24988 47.6283C9.13714 47.5156 9.0244 47.3916 8.91166 47.2619C8.43816 47.183 7.88574 47.0195 7.88574 47.0195C7.88574 47.0195 8.43816 47.1886 8.91166 47.2619C9.0244 47.3916 9.13714 47.5099 9.24988 47.6283Z" fill="white"/>
<path d="M3.22926 29.0273C3.22926 29.0273 3.22926 29.033 3.22363 29.0442C3.22363 29.033 3.22926 29.0273 3.22926 29.0273Z" fill="white"/>
<path d="M1.97786 29.1818C1.97222 29.1649 1.97222 29.1536 1.97786 29.1367C1.97786 29.1536 1.97222 29.1649 1.97786 29.1818Z" fill="white"/>
<path d="M2.65996 29.7386C2.50776 28.3068 2.45703 27.4218 2.45703 27.4106C2.45703 27.3936 2.45703 27.3824 2.47394 27.3711C2.46267 27.3824 2.45703 27.3993 2.45703 27.4106C2.45703 27.4218 2.50776 28.3068 2.65996 29.733V29.7386Z" fill="white"/>
<path d="M5.11816 40.4339C5.20835 40.231 5.25345 40.045 5.28727 39.8984C5.25909 40.045 5.20835 40.2367 5.11816 40.4339Z" fill="white"/>
<path d="M2.38403 32.4852C2.38403 32.4852 2.64897 32.8685 3.10556 33.1278C3.13374 33.3138 3.16756 33.5055 3.19575 33.7027C3.16192 33.5055 3.13374 33.3194 3.10556 33.1278C2.6546 32.8741 2.38967 32.4908 2.38403 32.4852C2.36712 32.4626 2.37276 32.4288 2.3953 32.4062C2.36712 32.4232 2.36148 32.4626 2.38403 32.4852Z" fill="white"/>
<path d="M5.32617 39.6097C5.32617 39.6097 5.3318 39.5816 5.34305 39.5703C5.3318 39.5816 5.32617 39.5928 5.32617 39.6097Z" fill="white"/>
<path d="M2.48056 26.1385C2.48056 26.1385 2.52565 26.1329 2.55384 26.1329C2.8526 26.1329 3.03298 26.4204 3.13444 26.753C3.23591 27.0855 3.24718 27.4181 3.24718 27.4181V27.4632L3.28664 27.4914C3.28664 27.4914 4.03635 28.0269 4.03071 29.1035C4.03071 29.5038 3.92925 29.9773 3.64176 30.5353L3.60794 30.5973L3.66431 30.6481C3.66431 30.6481 4.49858 31.426 4.49858 32.7901C4.49858 33.2129 4.41402 33.692 4.19982 34.2219C4.41402 33.692 4.49858 33.2072 4.49858 32.7901C4.49858 31.4203 3.66431 30.6481 3.66431 30.6481L3.60794 30.5973L3.64176 30.5353C3.92925 29.9773 4.03071 29.5038 4.03071 29.1035C4.03071 28.0269 3.28664 27.4914 3.28664 27.4914L3.24718 27.4632V27.4181C3.24718 27.4181 3.23027 27.0855 3.1288 26.753C3.02734 26.4147 2.84696 26.1273 2.5482 26.1329C2.52565 26.1329 2.50311 26.1329 2.47492 26.1385C2.26072 26.1611 2.11416 26.2907 2.0127 26.4655C2.10852 26.2907 2.25508 26.1611 2.46929 26.1385H2.48056Z" fill="white"/>
<path d="M4.44141 36.5784C4.44141 36.5784 4.45266 36.5503 4.46391 36.5391C4.45266 36.5503 4.44703 36.5616 4.44141 36.5784Z" fill="white"/>
<path d="M3.21875 33.1042C3.35404 32.9633 3.44986 32.8111 3.52314 32.6758C3.44986 32.8111 3.3484 32.9633 3.21875 33.1042Z" fill="white"/>
<path d="M1.49893 21.3683C1.49893 21.3683 1.49893 21.3063 1.52148 21.2894C1.53276 21.2837 1.54967 21.2837 1.56094 21.2894C1.54403 21.2894 1.53276 21.2894 1.51584 21.2894C1.48766 21.3063 1.47639 21.3401 1.4933 21.3683H1.49893Z" fill="white"/>
<path d="M2.142 19.6393C2.142 19.6393 2.10254 20.1071 2.10254 21.0316C2.10254 21.3022 2.10254 21.6122 2.11381 21.9617C2.10254 21.6122 2.10254 21.2965 2.10254 21.0259C2.10254 20.1015 2.142 19.6336 2.142 19.6336C2.142 19.5998 2.17018 19.5773 2.204 19.5829C2.17018 19.5829 2.142 19.6054 2.142 19.6336V19.6393Z" fill="white"/>
<path d="M1.65764 24.5263C1.65764 24.5263 1.86621 24.9547 2.30589 25.2647C2.32843 25.4902 2.34534 25.7269 2.37353 25.9693C1.9564 26.0821 1.77038 26.4485 1.6971 26.798C1.77038 26.4485 1.9564 26.0764 2.37353 25.9637C2.35098 25.7213 2.32843 25.4846 2.30589 25.2591C1.86621 24.949 1.65764 24.5263 1.65764 24.5206C1.64637 24.4925 1.65764 24.4586 1.68583 24.4417C1.70274 24.4361 1.71401 24.4361 1.73092 24.4417C1.71965 24.4417 1.70274 24.4417 1.68583 24.4417C1.65764 24.453 1.64637 24.4925 1.65764 24.5206V24.5263Z" fill="white"/>
<path d="M2.70029 21.286C2.70029 21.286 2.49736 21.7144 2.23242 21.9737C2.49736 21.7144 2.70592 21.286 2.70592 21.286C2.70592 21.286 2.72283 21.2634 2.73974 21.2578C2.72283 21.2578 2.71156 21.2747 2.70592 21.286H2.70029Z" fill="white"/>
<path d="M2.9192 19.4946C2.9192 19.6355 2.90792 19.7257 2.90792 19.7257V19.7708L2.93047 19.8046C2.93047 19.8046 3.48289 20.4134 3.48289 21.3886C3.48289 21.8227 3.37015 22.33 3.04885 22.8937L3.01503 22.9557L3.06576 23.0064C3.06576 23.0064 3.72528 23.711 3.72528 24.9004C3.72528 25.3852 3.60127 25.9602 3.2856 26.5971C3.6069 25.9602 3.72528 25.3852 3.72528 24.9004C3.72528 23.711 3.06576 23.0064 3.06576 23.0064L3.01503 22.9557L3.04885 22.8937C3.37015 22.33 3.48289 21.8227 3.48289 21.3886C3.48289 20.4134 2.93047 19.8046 2.93047 19.8046L2.90229 19.7708V19.7257C2.90229 19.7257 2.9192 19.6355 2.9192 19.4946C2.9192 19.0888 2.82337 18.4236 2.28223 18.418C2.82337 18.418 2.9192 19.0831 2.9192 19.489V19.4946Z" fill="white"/>
<path d="M2.84149 24.3835C2.84149 24.3835 2.69493 24.7668 2.41309 25.0938C2.70057 24.7668 2.84713 24.3835 2.84713 24.3779C2.8584 24.3497 2.89222 24.3328 2.92041 24.3441C2.89222 24.3328 2.8584 24.3441 2.84713 24.3779L2.84149 24.3835Z" fill="white"/>
<path d="M7.23193 43.9219C7.23193 44.1135 7.22065 44.3616 7.16992 44.6209C7.21502 44.3616 7.23193 44.1135 7.23193 43.9219Z" fill="white"/>
<path d="M3.43808 33.8484C3.96232 33.8146 4.25544 34.8744 4.25544 34.8744V34.9138L4.30053 34.9364C4.30053 34.9364 5.35464 35.5621 5.35464 37.0277C5.35464 37.3208 5.30954 37.6477 5.20808 38.0085L5.19117 38.0705L5.2419 38.11C5.2419 38.11 6.43129 39.0457 6.42565 40.686C6.42565 40.9341 6.38619 41.2103 6.32419 41.4921C6.38619 41.2046 6.42565 40.9341 6.42565 40.686C6.42565 39.0457 5.23626 38.11 5.23626 38.11L5.18553 38.0705L5.20244 38.0085C5.3039 37.6477 5.349 37.3208 5.349 37.0277C5.349 35.5677 4.2949 34.9364 4.2949 34.9364L4.26107 34.9138V34.8744C4.26107 34.8744 3.96232 33.8146 3.43245 33.8484C3.38172 33.8484 3.32535 33.8597 3.26334 33.8766C3.32535 33.8541 3.37608 33.8484 3.43245 33.8484H3.43808Z" fill="white"/>
<path d="M4.79688 41.8414C4.79688 41.9316 4.80815 42.0275 4.82506 42.112C4.80815 42.0218 4.79688 41.9316 4.79688 41.8414Z" fill="white"/>
<path d="M18.1668 11.4075C18.2005 11.4019 18.2399 11.3962 18.2736 11.3906C18.2343 11.3962 18.1949 11.4019 18.1611 11.4075H18.1668Z" fill="white"/>
<path d="M5.72125 42.3145C5.72125 42.3145 5.71563 42.2864 5.72125 42.2695C5.72125 42.2864 5.72125 42.2977 5.72125 42.3145Z" fill="white"/>
<path d="M3.50586 35.0567C3.50586 35.0567 3.50586 35.023 3.51711 35.0117C3.50586 35.023 3.50586 35.0398 3.50586 35.0567Z" fill="white"/>
<path d="M6.07012 44.3736C6.07012 44.3736 6.04762 44.3511 6.04199 44.3398C6.04199 44.3567 6.05324 44.368 6.07012 44.3736Z" fill="white"/>
<path d="M7.06805 44.6738C6.37471 44.5328 6.07595 44.375 6.07031 44.375C6.07031 44.375 6.36907 44.5328 7.06805 44.6738Z" fill="white"/>
<path d="M4.46387 40.2539C4.46387 40.2539 4.49762 40.282 4.52012 40.2989C4.49762 40.282 4.48074 40.2708 4.46387 40.2539Z" fill="white"/>
<path d="M4.72949 40.4453C4.72949 40.4453 4.75762 40.4622 4.76887 40.4678C4.75762 40.4622 4.74074 40.4509 4.72949 40.4453Z" fill="white"/>
<path d="M4.26074 40.0781C4.26074 40.0781 4.30012 40.1175 4.35637 40.1625C4.30012 40.1119 4.26074 40.0781 4.26074 40.0781Z" fill="white"/>
<path d="M5.06769 40.6246C5.06205 40.6246 5.05642 40.6189 5.05078 40.6133C5.05642 40.6133 5.06205 40.6189 5.06769 40.6246Z" fill="white"/>
<path d="M4.44178 36.5781C4.44178 36.5781 4.39105 36.984 4.1543 37.356C4.39105 36.984 4.44178 36.5838 4.44178 36.5781Z" fill="white"/>
<path d="M4.26102 40.0827C4.23852 40.0602 4.23852 40.0264 4.26102 40.0039C4.23852 40.0264 4.23852 40.0602 4.26102 40.0883V40.0827Z" fill="white"/>
<path d="M4.04114 37.3806C3.66347 35.977 3.5 35.0525 3.5 35.0469C3.5 35.0469 3.66347 35.9713 4.04114 37.3806Z" fill="white"/>
<path d="M3.28644 36.9652C3.28644 36.9652 3.61902 37.3203 4.08125 37.5345C4.31236 38.3801 4.61675 39.3834 5.0057 40.4601C4.61675 39.3778 4.31236 38.3744 4.08125 37.5289C3.61902 37.309 3.28644 36.9596 3.28644 36.9539C3.28644 36.9539 3.26389 36.8975 3.28644 36.875C3.26389 36.8975 3.26389 36.9314 3.28644 36.9596V36.9652Z" fill="white"/>
<path d="M8.88352 47.0421C8.87224 46.5066 8.82715 46.1402 8.82715 46.1289C8.82715 46.1289 8.87224 46.5066 8.88352 47.0421Z" fill="white"/>
<path d="M6.73575 11.374C6.57791 10.7878 6.39189 9.83515 6.75829 9.46875C6.39189 9.83515 6.57791 10.7934 6.73575 11.374Z" fill="white"/>
<path d="M34.1308 36.8802C34.1308 36.8802 33.8489 37.1733 33.46 37.3819C33.8545 37.1733 34.1308 36.8802 34.1308 36.8802C34.1308 36.8802 34.1871 36.8576 34.2097 36.8802C34.1871 36.8576 34.1477 36.8576 34.1308 36.8802Z" fill="white"/>
<path d="M7.125 11.3516C7.26592 11.3516 7.39557 11.3628 7.51958 11.3741C7.39557 11.3572 7.27156 11.3516 7.125 11.3516Z" fill="white"/>
<path d="M32.4971 40.4601C32.8747 40.2684 33.1622 39.9978 33.1622 39.9922C33.1622 39.9922 32.8747 40.2628 32.4971 40.4544V40.4601Z" fill="white"/>
<path d="M25.6141 50.5443C25.7666 50.5443 25.891 50.5386 25.9927 50.5273C25.891 50.5386 25.7666 50.5443 25.6084 50.5443H25.6141Z" fill="white"/>
<path d="M34.1644 29.0636C34.1644 29.0636 34.3391 29.5484 34.7112 29.8528C34.6153 30.7209 34.4857 31.775 34.3053 32.9531C34.4857 31.7693 34.6153 30.7152 34.7112 29.8471C34.3391 29.5428 34.1644 29.0636 34.1644 29.058C34.1531 29.0298 34.1644 28.996 34.1982 28.9847C34.2151 28.9791 34.2264 28.9847 34.2433 28.9847C34.232 28.9791 34.2151 28.9791 34.1982 28.9847C34.17 28.996 34.1531 29.0298 34.1644 29.058V29.0636Z" fill="white"/>
<path d="M31.4316 44.3719C31.4598 44.355 31.4711 44.3212 31.4542 44.293C31.4711 44.3212 31.4542 44.355 31.4316 44.3719C31.4316 44.3719 31.1329 44.5297 30.4395 44.6706C29.9266 45.5049 29.3178 46.4068 28.709 47.1227C29.3178 46.4012 29.9209 45.4993 30.4395 44.6706C31.1329 44.5241 31.4316 44.3719 31.4373 44.3719H31.4316Z" fill="white"/>
<path d="M17.8288 9.34544L17.795 8.85503C17.4117 8.74229 16.4591 8.51681 14.8525 8.39844C16.4534 8.51681 17.4117 8.74793 17.795 8.85503L17.8288 9.3398V9.34544Z" fill="white"/>
<path d="M32.2598 41.0859C32.2654 41.0859 32.2766 41.0859 32.2823 41.0972C32.2766 41.0972 32.2654 41.0972 32.2598 41.0859Z" fill="white"/>
<path d="M34.6274 35.2544L34.6386 35.215C34.6386 35.215 34.7006 34.9838 34.7006 34.7076C34.7006 34.4314 34.633 34.1496 34.4244 33.9805C34.633 34.1496 34.695 34.4314 34.7006 34.7076C34.7006 34.9838 34.6386 35.215 34.6386 35.215L34.6274 35.2544L34.6443 35.2882C34.6443 35.2882 34.9656 35.8519 34.9656 36.5904C34.9656 37.2048 34.7514 37.9263 33.9396 38.5689L33.8889 38.6084L33.9115 38.6704C33.9115 38.6704 34.0468 39.0762 34.0468 39.6399C34.0468 40.3953 33.7987 41.4043 32.6826 42.1145C33.7987 41.4043 34.0468 40.3896 34.0468 39.6343C34.0468 39.065 33.9115 38.6647 33.9115 38.6647L33.8889 38.6027L33.9396 38.5633C34.7457 37.9207 34.9656 37.1991 34.9656 36.5847C34.9656 35.8463 34.6443 35.2826 34.6443 35.2826L34.6274 35.2488V35.2544Z" fill="white"/>
<path d="M20.924 7.26562C20.6196 8.17881 19.7628 8.83832 18.7481 8.83832C17.7335 8.83832 16.8767 8.17881 16.5723 7.26562C16.871 8.17881 17.7335 8.83832 18.7481 8.83832C19.7628 8.83832 20.6252 8.17881 20.924 7.26562Z" fill="white"/>
<path d="M12.2319 8.94531C12.1642 9.04114 12.1304 9.22152 12.1191 9.447C12.1304 9.22716 12.1586 9.04678 12.2319 8.94531Z" fill="white"/>
<path d="M33.8044 32.2692C33.8044 32.2692 33.9284 32.7371 34.2836 33.1091C33.9284 32.7427 33.8101 32.2748 33.8044 32.2692C33.7988 32.241 33.8157 32.2072 33.8439 32.2016C33.8608 32.2016 33.8721 32.2016 33.889 32.2072C33.8777 32.2016 33.8608 32.1959 33.8439 32.2016C33.8157 32.2072 33.7931 32.241 33.8044 32.2692Z" fill="white"/>
<path d="M33.1562 39.9973C33.1562 39.9973 33.2125 39.9748 33.235 39.9973C33.2125 39.9748 33.1787 39.9748 33.1562 39.9973Z" fill="white"/>
<path d="M23.0996 51.7273C23.0996 51.7273 23.1165 51.7048 23.1334 51.6992C23.1165 51.6992 23.1052 51.7161 23.0996 51.7273Z" fill="white"/>
<path d="M26.4248 50.4369C26.4248 50.4369 26.4529 50.4256 26.4642 50.4313C26.4529 50.4313 26.4361 50.4313 26.4248 50.4369Z" fill="white"/>
<path d="M27.756 47.6133C27.8857 47.6133 28.004 47.6527 28.1168 47.7655C28.2295 47.8839 28.269 48.0079 28.2746 48.1544C28.2802 48.6448 27.7109 49.2649 27.7165 49.2649L27.694 49.2874V49.3269C27.694 49.3269 27.6207 51.4069 25.5858 51.7733L25.5351 51.7846L25.5125 51.8297C25.5125 51.8297 24.6388 53.8139 22.5137 53.8083C24.6388 53.8083 25.5125 51.8297 25.5125 51.8297L25.5351 51.7846L25.5858 51.7733C27.6207 51.4069 27.6884 49.3325 27.694 49.3269V49.2874L27.7222 49.2649C27.7222 49.2649 28.2915 48.6448 28.2802 48.1544C28.2802 48.0079 28.2351 47.8839 28.1224 47.7655C28.0153 47.6527 27.8969 47.6133 27.7616 47.6133H27.756Z" fill="white"/>
<path d="M29.1818 44.757L29.2776 44.7288L29.2494 44.6442C29.2607 42.4177 30.9405 42.1584 30.9405 42.1527L30.9912 42.1414L31.0138 42.0963C31.0138 42.0963 31.4591 41.1888 31.9608 41.2114C32.034 41.2114 32.113 41.2283 32.1975 41.2734C32.2595 41.3072 32.3046 41.341 32.3441 41.3805C32.3046 41.341 32.2539 41.3015 32.1975 41.2734C32.113 41.2283 32.034 41.217 31.9608 41.2114C31.4591 41.1888 31.0138 42.0907 31.0138 42.0963L30.9912 42.1414L30.9405 42.1527C30.9405 42.1527 29.2607 42.4233 29.2494 44.6442L29.2776 44.7288L29.1818 44.757C29.1818 44.757 27.4287 45.2305 27.1807 47.5923C27.4287 45.2305 29.1818 44.7626 29.1818 44.757Z" fill="white"/>
<path d="M32.0618 39.6145C32.0618 39.6145 32.0843 40.0937 32.3267 40.5841C32.2703 40.7363 32.214 40.8885 32.1519 41.0463C32.0899 41.0294 32.0223 41.0181 31.9603 41.0181C31.6277 41.0294 31.3628 41.2549 31.1768 41.486C31.3684 41.2549 31.6277 41.0237 31.9659 41.0181C32.0279 41.0181 32.0899 41.0294 32.1576 41.0463C32.2196 40.8885 32.276 40.7363 32.3323 40.5841C32.0899 40.0993 32.0674 39.6314 32.0674 39.6145C32.0674 39.5807 32.0899 39.5582 32.1238 39.5525C32.1407 39.5525 32.1519 39.5525 32.1632 39.5638C32.1519 39.5525 32.135 39.5469 32.1238 39.5469C32.0899 39.5469 32.0674 39.5751 32.0674 39.6032L32.0618 39.6145Z" fill="white"/>
<path d="M28.6633 46.0859C28.6633 46.0859 28.6745 46.1141 28.6745 46.131C28.6745 46.131 28.6238 46.5087 28.6182 47.0498C28.6238 46.5087 28.6745 46.1367 28.6745 46.1367C28.6745 46.1198 28.6745 46.1028 28.6633 46.0916V46.0859Z" fill="white"/>
<path d="M26.6114 48.2691L26.5664 48.2578L26.6114 48.2691Z" fill="white"/>
<path d="M31.7579 42.2344C31.7579 42.2344 31.7974 42.2851 31.7861 42.3133C31.7974 42.2851 31.7861 42.2513 31.7579 42.2344Z" fill="white"/>
<path d="M28.325 48.6784C28.3983 48.5149 28.4547 48.3346 28.4603 48.1542C28.4603 47.9682 28.3983 47.7822 28.2461 47.63C28.3588 47.5172 28.4716 47.3932 28.5843 47.2636C29.0578 47.1846 29.6046 47.0212 29.6102 47.0212C29.6384 47.0099 29.661 46.9817 29.6497 46.9479C29.6497 46.931 29.6328 46.9197 29.6215 46.9141C29.6328 46.9197 29.644 46.931 29.6497 46.9479C29.661 46.9761 29.6441 47.0099 29.6102 47.0212C29.6102 47.0212 29.0578 47.1846 28.5843 47.2636C28.4716 47.3932 28.3588 47.5172 28.2461 47.63C28.3983 47.7822 28.4603 47.9682 28.4603 48.1542C28.4603 48.3346 28.4039 48.515 28.325 48.6841V48.6784Z" fill="white"/>
<path d="M21.2676 53.7843C21.3916 53.773 21.5212 53.7617 21.6678 53.7617C21.5212 53.7617 21.3916 53.773 21.2732 53.7843H21.2676Z" fill="white"/>
<path d="M30.3997 43.5724C30.3997 43.5724 30.3997 43.5386 30.3884 43.5273C30.3997 43.5386 30.3997 43.5555 30.3997 43.5668C30.3997 43.5668 30.3828 43.7077 30.3828 43.9163C30.3828 43.7021 30.3997 43.5668 30.3997 43.5668V43.5724Z" fill="white"/>
<path d="M32.9475 36.5894C32.9475 36.5894 33.0038 37.0798 33.3082 37.5026C33.0771 38.3481 32.7727 39.3458 32.3838 40.4225C32.7727 39.3458 33.0771 38.3425 33.3082 37.4969C33.0038 37.0742 32.9475 36.5837 32.9475 36.5837C32.9475 36.5556 32.9644 36.5274 32.9982 36.5217C33.0151 36.5217 33.0264 36.5217 33.0377 36.533C33.0264 36.5217 33.0095 36.5161 32.9926 36.5217C32.9644 36.5217 32.9418 36.5556 32.9418 36.5837L32.9475 36.5894Z" fill="white"/>
<path d="M25.5741 49.4813C25.5741 49.4813 25.3712 49.8195 25.3712 50.3663C25.3712 50.4396 25.3712 50.5129 25.3825 50.5974C24.7173 51.2344 23.9112 51.9334 22.998 52.5816C23.9112 51.9334 24.7229 51.2288 25.3881 50.5918C25.3768 50.5072 25.3768 50.4339 25.3768 50.3607C25.3768 49.8139 25.5741 49.4813 25.5798 49.4757C25.5798 49.4757 25.6023 49.4531 25.6136 49.4531C25.5967 49.4531 25.5854 49.4644 25.5741 49.4813Z" fill="white"/>
<path d="M23.0997 51.7283C23.0997 51.7283 22.908 52.1454 22.8799 52.6697C22.3444 53.0473 21.7694 53.3968 21.1719 53.7068C21.7694 53.3968 22.3444 53.0417 22.8855 52.664C22.9137 52.1398 23.0997 51.7339 23.1053 51.7227L23.0997 51.7283Z" fill="white"/>
<path d="M23.3984 52.799C23.2688 52.799 23.1166 52.7821 22.9531 52.7539C23.1166 52.7877 23.2688 52.799 23.3984 52.799Z" fill="white"/>
<path d="M25.501 50.4855C26.6114 49.4089 27.2766 48.5577 27.2822 48.5577C27.2935 48.5464 27.3048 48.5408 27.3217 48.5352C27.3048 48.5352 27.2935 48.5408 27.2822 48.5577C27.2822 48.5577 26.6114 49.4145 25.5066 50.4855H25.501Z" fill="white"/>
<path d="M33.8832 35.0303C33.8832 35.0022 33.917 34.9796 33.9508 34.9852C33.9677 34.9852 33.979 34.9965 33.9846 35.0078C33.979 34.9965 33.9621 34.9852 33.9452 34.9852C33.917 34.9852 33.8832 35.0022 33.8775 35.0303H33.8832Z" fill="white"/>
<path d="M35.9016 21.3133C35.9016 21.3133 35.9185 21.2908 35.9355 21.2852C35.9185 21.2852 35.9073 21.2964 35.9016 21.3133Z" fill="white"/>
<path d="M35.7379 24.4735C35.7435 24.4566 35.7548 24.4509 35.7717 24.4453C35.7548 24.4453 35.7435 24.4622 35.7379 24.4735Z" fill="white"/>
<path d="M24.3456 11.3561C24.3851 11.1362 24.5204 10.3076 24.464 9.87357C24.402 9.37189 24.3964 9.20842 23.004 9.11259C21.871 9.03931 20.2363 9.25915 19.667 9.33807C20.2307 9.25351 21.871 9.03931 23.004 9.11259C24.3964 9.20842 24.402 9.36625 24.464 9.87357C24.5147 10.3076 24.3851 11.1306 24.3456 11.3561H24.3513C24.4189 11.3561 24.4922 11.3504 24.5655 11.3504C24.5993 11.3504 24.6331 11.3504 24.6669 11.3504C24.6331 11.3504 24.6049 11.3448 24.5655 11.3448C24.4866 11.3448 24.4189 11.3448 24.3456 11.3504V11.3561Z" fill="white"/>
<path d="M34.9258 27.404C34.9258 27.404 34.8751 28.2834 34.7285 29.7095C34.8807 28.2834 34.9314 27.404 34.9314 27.404C34.9314 27.3702 34.9596 27.3477 34.9935 27.3477C34.9653 27.3477 34.9371 27.3702 34.9314 27.404H34.9258Z" fill="white"/>
<path d="M19.165 5.20101L19.4356 4.36111C20.253 4.61477 20.8618 5.31374 21.0027 6.17619C20.8618 5.31374 20.253 4.61477 19.4356 4.35547L19.165 5.19537V5.20101Z" fill="white"/>
<path d="M15.0103 9.30078C14.8356 9.30078 14.6665 9.30078 14.5087 9.31769C13.2911 9.40225 13.2854 9.4868 13.2347 9.88702C13.2122 10.073 13.2291 10.3774 13.2685 10.7326C14.5481 10.5014 16.0757 10.3436 17.8964 10.3042L17.8457 9.54317C17.344 9.46989 16.0644 9.30078 15.0103 9.30078Z" fill="white"/>
<path d="M22.9933 9.31769C22.8354 9.30642 22.6663 9.30078 22.4916 9.30078C21.4318 9.30078 20.1579 9.46989 19.6562 9.54317L19.6055 10.3154C21.4206 10.3774 22.9482 10.5578 24.2277 10.8002C24.2672 10.4902 24.2954 10.1294 24.2672 9.89829C24.2165 9.48116 24.2052 9.39661 22.9933 9.31205V9.31769Z" fill="white"/>
<path d="M27.7161 9.40255C29.1084 9.49274 30.0328 9.79149 30.0723 10.3214C30.0948 10.6258 30.0385 11.0598 29.9877 11.3811C30.0385 11.0654 30.0948 10.6258 30.0723 10.3214C30.0385 9.79149 29.1084 9.49838 27.7217 9.40255H27.7161Z" fill="white"/>
<path d="M17.998 8.92188C18.2348 8.99515 18.4885 9.04025 18.7478 9.04025C18.4997 9.04025 18.263 8.99515 18.0375 8.92188C18.0262 8.92188 18.0093 8.92188 17.998 8.92188Z" fill="white"/>
<path d="M36.1319 23.029L36.0981 22.9726L36.1376 22.9219C36.5096 22.4427 36.6336 21.958 36.6336 21.5126C36.6336 20.56 36.0587 19.7877 36.0587 19.7877L36.0417 19.7652V19.737C36.0417 19.737 36.0305 19.3932 35.9177 19.0606C36.0305 19.3988 36.0417 19.737 36.0417 19.737V19.7652L36.0587 19.7877C36.0587 19.7877 36.6336 20.56 36.6336 21.5126C36.6336 21.958 36.5096 22.4427 36.1376 22.9219L36.0981 22.9726L36.1319 23.029C36.1319 23.029 36.5547 23.7392 36.5547 24.7144C36.5547 25.3401 36.38 26.0673 35.8106 26.8001C36.38 26.0673 36.5547 25.3345 36.5547 24.7088C36.5547 23.7336 36.1376 23.029 36.1376 23.029H36.1319Z" fill="white"/>
<path d="M30.377 11.3516C30.5126 11.3516 30.6482 11.3629 30.7669 11.3742C30.6482 11.3572 30.5182 11.3516 30.377 11.3516Z" fill="white"/>
<path d="M27.705 9.59756C26.5664 9.51864 25.8167 9.50173 25.5799 9.49609C25.5968 9.98651 25.5067 10.6066 25.4277 11.0744C27.0512 11.4916 28.1785 12.0158 28.9508 12.5006C28.9339 12.2075 29.0015 11.9594 29.1537 11.7734C29.2947 11.6043 29.5032 11.4916 29.7738 11.4239V11.3732C29.8583 10.911 29.8865 10.5671 29.8696 10.3416C29.8527 10.0541 29.2721 9.7103 27.6994 9.60883L27.705 9.59756Z" fill="white"/>
<path d="M34.5543 24.4248C34.5543 24.4248 34.7291 24.8871 35.0842 25.2535C34.7347 24.8871 34.5599 24.4305 34.5543 24.4248C34.5543 24.4248 34.5543 24.3628 34.5881 24.3516C34.56 24.3628 34.543 24.3967 34.5543 24.4248Z" fill="white"/>
<path d="M34.2158 26.5931C34.3342 26.2662 34.5484 25.9561 34.9486 25.9336C34.5484 25.9561 34.3342 26.2605 34.2158 26.5875V26.5931Z" fill="white"/>
<path d="M35.6644 27.4896V27.4614C35.6644 27.4614 35.6644 27.422 35.6644 27.3543C35.6644 27.0781 35.608 26.3904 35.2022 26.1875C35.6024 26.3904 35.6644 27.0725 35.6588 27.3543C35.6588 27.422 35.6588 27.4614 35.6588 27.4614V27.4896L35.6757 27.5178C35.6757 27.5178 36.1379 28.2337 36.1379 29.1187C36.1379 29.6317 35.9857 30.1897 35.5066 30.7196L35.4558 30.7703L35.4953 30.8323C35.4953 30.8323 35.873 31.4749 35.873 32.3656C35.873 33.0364 35.6531 33.8424 34.8809 34.6203C35.6475 33.8424 35.873 33.0364 35.873 32.3599C35.873 31.4749 35.4953 30.8267 35.4953 30.8267L35.4558 30.7647L35.5066 30.7139C35.9913 30.1841 36.1379 29.626 36.1379 29.1131C36.1379 28.2281 35.6757 27.5122 35.6757 27.5122L35.6588 27.484L35.6644 27.4896Z" fill="white"/>
<path d="M35.0211 32.417C35.0211 32.417 35.0719 32.3832 35.1 32.4001C35.0719 32.3832 35.038 32.3889 35.0211 32.417Z" fill="white"/>
<path d="M35.4214 29.1304C35.4214 29.1304 35.258 29.4686 34.8408 29.7336C35.258 29.4686 35.4214 29.1248 35.4214 29.1248C35.4214 29.1248 35.4665 29.0853 35.4947 29.0966C35.4665 29.0797 35.4327 29.0966 35.4158 29.1248L35.4214 29.1304Z" fill="white"/>
<path d="M34.6952 21.3292C34.6952 21.3292 34.9376 21.8478 35.2646 22.1184C34.9376 21.8478 34.6952 21.3349 34.6952 21.3292C34.6783 21.3011 34.6952 21.2672 34.7234 21.2503C34.7347 21.2447 34.7516 21.2447 34.7685 21.2503C34.7516 21.2503 34.7403 21.2503 34.7234 21.2503C34.6952 21.2616 34.6839 21.2954 34.6952 21.3292Z" fill="white"/>
<path d="M35.2419 19.644C35.2419 19.644 35.2814 20.1119 35.2814 21.0251C35.2814 21.3013 35.2814 21.6113 35.2701 21.9664C35.2814 21.6113 35.2814 21.2957 35.2814 21.0251C35.2814 20.1119 35.2419 19.6553 35.2419 19.644C35.2419 19.6102 35.2645 19.5877 35.2927 19.582C35.2645 19.582 35.2363 19.6159 35.2419 19.644Z" fill="white"/>
<path d="M18.325 6.45863H16.4648H18.325V5.20159L18.2517 4.96484L18.325 5.20159V6.45863Z" fill="white"/>
<path d="M18.252 4.3125L18.5225 5.1524L18.252 4.3125Z" fill="white"/>
<path d="M18.055 4.36719C17.5138 4.53629 17.0629 4.90833 16.7754 5.38747C17.0572 4.90833 17.5082 4.53629 18.055 4.36719Z" fill="white"/>
<path d="M20.4118 22.7325L19.0815 22.6367H19.042C19.0758 22.8453 19.1378 23.0313 19.1942 23.2173C19.6508 23.2342 20.0905 23.2906 20.5358 23.2962C20.4907 23.1102 20.485 22.9129 20.4118 22.7382V22.7325ZM19.3464 23.0426L19.2787 22.8453C19.5888 22.8453 19.9101 22.8904 20.2201 22.896C20.2652 22.9524 20.2765 23.0257 20.2821 23.0877C19.9834 23.0933 19.6508 23.0708 19.3464 23.0426Z" fill="white"/>
<path d="M19.1939 21.7627C19.301 21.7119 19.4138 21.6161 19.5434 21.6217C19.5942 21.7796 19.5885 21.9487 19.7069 22.0783C19.8816 22.1347 20.0507 22.1065 20.2368 22.0727C20.3326 21.9881 20.372 21.8585 20.389 21.7401C20.6539 21.8078 20.9188 21.8867 21.1781 21.9656L21.195 21.9543V21.7627C20.6032 21.633 20.0226 21.4865 19.4363 21.3906L19.1094 21.633V21.6668C19.1206 21.7063 19.1488 21.757 19.1939 21.7683V21.7627ZM19.7858 21.6161C19.9324 21.6274 20.0564 21.6612 20.1917 21.695C20.2029 21.7683 20.2029 21.8585 20.1578 21.9149C20.062 21.9712 19.9549 21.9656 19.8422 21.9318C19.7689 21.8472 19.7463 21.7458 19.7463 21.6499L19.7858 21.6161Z" fill="white"/>
<path d="M18.2351 26.1641C17.8293 26.2035 17.4291 26.2599 17.0288 26.3275C16.7583 26.3614 16.4877 26.4234 16.3073 26.6657L15.4336 28.0299C15.4843 28.0637 15.5351 28.1144 15.6027 28.1201C15.8733 27.6748 16.1551 27.2351 16.4482 26.801C16.5328 26.7108 16.6173 26.6207 16.7301 26.5925C17.2036 26.4685 17.7053 26.429 18.19 26.3557L18.2408 26.1979V26.1641H18.2351Z" fill="white"/>
<path d="M10.823 33.4688C10.823 33.745 10.8005 33.9817 10.8118 34.2692C11.0372 34.1339 11.2514 34.0043 11.4769 33.8746C11.4769 33.8182 11.4825 33.7562 11.4769 33.6999C11.4769 33.6379 11.46 33.5815 11.4374 33.5308C11.2402 33.4969 11.0316 33.4857 10.823 33.4688Z" fill="white"/>
<path d="M26.7247 44.9477C29.0809 41.8699 32.4461 37.3548 32.7674 18.2118H30.1068L31.6119 11.9097L31.64 11.8082L31.5668 11.7293C31.4258 11.5828 31.2173 11.4813 30.9636 11.4193C31.2455 10.3708 31.2173 9.66622 30.8847 9.32801C30.3436 8.78686 29.2669 8.67976 28.3932 8.58957L28.1113 8.56139C27.8013 8.52757 27.3504 8.51065 26.7698 8.51065C26.099 8.51065 25.4394 8.5332 25.2985 8.53884H25.1576C24.8025 8.27954 24.2726 8.1668 23.4834 8.1668C23.2298 8.1668 22.9479 8.17808 22.6379 8.20062C21.5612 8.27954 20.7777 8.40919 20.2591 8.52193C20.8566 8.06534 21.2456 7.35509 21.2456 6.54901C21.2456 5.42162 20.4902 4.46335 19.453 4.15895V2.78355H20.6199V1.53215H19.453V0.21875H18.0607V1.53215H16.8939V2.78355H18.0607V4.15895C17.0292 4.46335 16.2682 5.41599 16.2682 6.54901C16.2682 7.35509 16.6628 8.06534 17.2546 8.52193C16.736 8.40919 15.9525 8.28518 14.8815 8.20062C14.5715 8.17808 14.284 8.1668 14.036 8.1668C13.2412 8.1668 12.7113 8.27954 12.3562 8.54448H12.2152C12.0743 8.5332 11.4148 8.50502 10.744 8.50502C10.1634 8.50502 9.7068 8.52193 9.40241 8.55575L9.12056 8.58393C8.25248 8.66849 7.17019 8.78123 6.63468 9.32237C6.21755 9.7395 6.35847 10.6809 6.55577 11.408C6.30211 11.47 6.09354 11.5715 5.95262 11.7181L5.87934 11.797L5.90188 11.8984L7.41258 18.2005H4.75195C5.07326 37.3435 8.4385 41.8587 10.7947 44.9364C13.151 48.0142 16.0822 50.7312 18.7653 52.3771C21.4485 50.7255 24.3797 48.0142 26.7359 44.9364L26.7247 44.9477ZM18.5229 49.0063C18.5568 48.809 18.5849 48.5948 18.6526 48.4031C18.6357 48.3467 18.6019 48.296 18.5568 48.2622C18.5117 48.2227 18.4609 48.1945 18.4046 48.1833L18.3595 48.1945C18.1396 48.4144 17.9254 48.6511 17.6718 48.8372C17.5703 48.8202 17.4801 48.7695 17.3956 48.7131C17.311 48.6511 17.2377 48.5835 17.1644 48.5158C17.0122 48.5328 16.8713 48.5891 16.736 48.6568C16.8375 48.4595 17.0235 48.2791 17.1926 48.11C17.2772 48.0254 17.4068 48.0142 17.5083 47.9803L18.3369 47.8451C18.3933 47.7661 18.3877 47.6647 18.3933 47.5688L18.3369 47.5068C18.1002 47.4054 17.8634 47.3152 17.6436 47.1855C17.621 47.1743 17.5985 47.1573 17.5759 47.1404C17.5252 47.1123 17.4745 47.0841 17.4294 47.0446C17.3956 46.8022 17.4801 46.5598 17.5365 46.3287C17.4237 46.1822 17.2941 46.0412 17.1532 45.9172C17.1532 45.906 17.1588 45.8834 17.187 45.889C17.4857 45.9341 17.7394 46.1032 17.9874 46.278C18.0213 46.3005 18.0494 46.3231 18.0833 46.34C18.3031 46.6895 18.4666 47.0333 18.6864 47.3772L18.7315 47.4167C19.0077 47.4167 19.2557 47.3095 19.4869 47.1855C19.5432 47.0503 19.5432 46.8755 19.5432 46.712C19.594 45.7256 19.5038 44.6827 19.3516 43.7245L19.1825 42.7436C19.1205 42.5914 18.9908 42.4618 18.895 42.3321L17.311 40.6129C16.9897 40.2747 16.7248 39.9365 16.4937 39.5532C16.302 39.0064 16.3133 38.3863 16.2738 37.8001L16.302 37.614C16.8713 36.7685 17.8296 36.2105 18.3538 35.3536C18.4553 35.1676 18.5737 34.9873 18.6131 34.7674C18.6131 34.7674 18.6131 34.7674 18.6075 34.7674C18.5455 34.7336 18.4722 34.7618 18.4046 34.7449C18.0494 35.9455 16.7248 36.5036 16.0878 37.5577C16.0483 38.1777 16.1329 38.7753 16.2287 39.3728C16.3189 39.7561 16.6008 40.0605 16.815 40.3818C16.5838 40.782 16.2851 41.154 16.0822 41.5599C16.0483 41.7177 16.0483 41.8812 16.0483 42.0447C15.7665 42.225 15.4508 42.3209 15.1352 42.428H15.0901C14.9097 42.3096 14.7406 42.1574 14.5771 42.0108C13.6977 41.8474 12.8466 41.6163 11.9898 41.4077C11.6628 41.3457 11.3415 41.2499 11.0089 41.3344C11.1499 41.1879 11.4035 41.0187 11.3697 40.7876C11.2626 40.4945 11.1273 40.2183 10.9582 39.9534L10.93 39.9308C10.6482 39.9646 10.4227 40.1789 10.1296 40.1676C9.87591 40.1563 9.66171 40.1281 9.44187 40.0492V40.021C9.54333 39.9816 9.69553 40.021 9.75754 39.9139L9.87591 39.5532C10.1578 39.4799 10.4678 39.4911 10.7665 39.4742C10.8229 39.3784 10.8624 39.2826 10.8962 39.1698C10.5918 38.9556 10.2198 38.8993 9.9041 38.702C9.9041 38.5272 9.99429 38.3919 10.0901 38.2679V38.251C9.9661 38.1214 9.8139 38.0199 9.67862 37.9128C9.79136 37.879 9.93792 37.9241 10.0676 37.9297C10.2592 37.9917 10.4227 38.1045 10.5974 38.2228C10.8173 38.5047 11.0653 38.7922 11.2231 39.1135C11.3246 39.1473 11.4317 39.0853 11.5332 39.074C11.6121 38.7753 11.5726 38.4483 11.6572 38.1552C11.8206 38.1045 12.0067 38.0706 12.1645 38.0594C12.2265 37.9297 12.2547 37.7775 12.3054 37.6366C12.4182 37.9692 12.3731 38.3638 12.2716 38.6851C12.0912 38.9556 11.8883 39.2262 11.6515 39.463C11.753 39.7786 11.8263 40.1168 11.9052 40.4438C12.9086 40.5396 13.8725 40.6411 14.904 40.7256V40.7031C14.8138 40.4494 14.6898 40.207 14.6391 39.9365C14.7124 38.8598 14.9379 37.7775 15.2874 36.7911C16.0145 36.3176 16.8206 36.0244 17.6041 35.6919C17.6436 35.4495 17.5647 35.2296 17.5421 34.9985C17.4463 34.5814 17.3843 34.1643 17.249 33.7584C17.0179 33.3638 16.6628 33.0369 16.364 32.6874C16.2569 32.4055 16.0878 32.1462 16.0427 31.8306L17.4632 30.1959L17.9085 29.6885C17.8747 29.6322 17.8296 29.5702 17.7676 29.542L17.6887 29.6209L16.1667 31.3514L14.5489 33.2454L13.1228 34.8801C13.089 34.8181 13.1228 34.7392 13.1002 34.6603C13.072 34.5194 12.9931 34.3672 12.8748 34.2883C12.8353 34.2601 12.7902 34.2432 12.7395 34.2319C12.5309 34.1417 12.328 34.0515 12.1081 33.9952C11.8432 34.3503 11.6234 34.7449 11.2513 35.0267C11.1048 35.0267 10.9638 34.9703 10.8229 34.9422C10.7947 35.5848 10.8116 36.2443 10.7778 36.8813L10.3269 36.87C10.3269 36.7347 10.3325 36.6276 10.3325 36.4867C10.3325 35.9963 10.3438 35.534 10.3438 35.0323C10.1747 35.0774 10.0337 35.1733 9.89846 35.2916C9.9661 35.0154 10.1859 34.7956 10.372 34.5814L10.3832 33.4146C10.31 33.3695 10.2085 33.3751 10.1239 33.3413C10.0056 33.1271 9.97174 32.879 9.84209 32.6705C9.72371 32.631 9.61098 32.6367 9.48133 32.631C9.47569 32.6254 9.48133 32.6141 9.47005 32.6028C9.59407 32.5408 9.72935 32.507 9.86464 32.4619C10.0507 32.4506 10.2254 32.4788 10.4114 32.4675C10.4509 32.0842 10.4283 31.7009 10.4509 31.3007L10.496 28.4879C10.5072 27.9016 10.5185 27.3436 10.5298 26.7348L10.5185 26.7235L10.0337 27.0392C9.88155 26.9772 9.72371 26.9152 9.58843 26.8024C9.45878 26.8532 9.33477 26.9434 9.2333 27.0392C9.21639 27.0392 9.21075 27.0336 9.19948 27.0223C9.28967 26.7912 9.45878 26.5826 9.59406 26.3684C9.86464 26.1317 10.2198 26.0302 10.5411 25.8724L10.5523 25.8216V25.4158C10.293 25.3876 10.0225 25.3876 9.78008 25.2861C9.66171 25.1114 9.59406 24.9084 9.57152 24.6942L9.52642 24.6604L9.06419 24.5702C9.42496 24.3673 9.87591 24.4575 10.2649 24.5477C10.31 24.5759 10.3607 24.5984 10.4114 24.6266C10.4622 24.6548 10.5072 24.683 10.5523 24.7224C10.5749 24.6942 10.5862 24.6491 10.5862 24.6097C10.5862 24.0798 10.5918 23.4823 10.62 22.9693H11.0653C11.0709 23.6345 11.0371 24.3109 11.0371 24.9648C11.0428 24.9986 11.0653 25.0099 11.0935 25.0099C11.1217 25.0099 11.1499 25.0099 11.1724 25.0155C11.2739 25.0494 11.2908 24.9254 11.3302 24.869L11.6121 24.2207C11.7643 24.0855 12.0518 24.2207 12.142 23.9896C12.1927 23.8938 12.2434 23.798 12.2885 23.6965C12.3787 23.9051 12.2998 24.1644 12.2885 24.4011L12.2096 24.6266C12.0236 24.8803 11.8376 25.1621 11.6234 25.3989C11.6064 25.4383 11.629 25.4665 11.6628 25.4834L12.2096 25.7934L12.5647 25.8104L12.6718 26.0527C13.3933 26.453 14.1374 26.7743 14.8533 27.1745C14.7518 27.6874 14.7011 28.2455 14.6278 28.7641H14.5996L13.6245 27.9975L12.125 26.8306C11.9785 26.7912 11.8263 26.8306 11.6797 26.8137C11.6741 26.8137 11.6684 26.8024 11.6572 26.8024C11.6459 26.7912 11.6346 26.7855 11.6234 26.7799C11.6064 26.7686 11.5895 26.7517 11.5783 26.7348C11.6177 26.6052 11.691 26.5037 11.7305 26.374C11.5783 26.25 11.4035 26.1768 11.2288 26.0922C11.1442 26.1373 11.0653 26.2049 11.0146 26.2839C10.9977 28.4597 10.9244 30.4157 10.8962 32.6141L10.9075 32.6423C11.1273 32.7663 11.3302 32.9241 11.5557 33.02L11.7643 32.8565C11.6741 32.5859 11.567 32.3266 11.4824 32.0504C11.5219 31.8419 11.6515 31.6671 11.8037 31.5093C11.8094 31.3514 11.7474 31.188 11.7135 31.047C11.9728 31.2162 12.0799 31.5149 12.1927 31.7742C12.1983 32.2139 12.2265 32.7156 12.2265 33.1609C12.4463 33.3018 12.6718 33.4202 12.8917 33.5555C13.0439 33.3695 13.1622 33.1553 13.2975 32.958L14.408 31.2049L15.5354 29.3954L15.5072 29.3842C15.2366 29.4123 14.9773 29.4518 14.6898 29.4462C14.8815 28.657 14.8815 27.7833 15.1521 26.9997C15.6087 26.3177 16.3358 25.8442 16.9615 25.365C17.4745 24.9761 18.0213 24.6491 18.6413 24.5364C19.0754 24.4519 19.5038 24.3955 19.9265 24.2997C20.0449 24.1418 20.0675 23.9502 20.1182 23.7698C20.1182 23.7698 20.1182 23.7698 20.1126 23.7698C19.8589 23.736 19.6447 23.736 19.3798 23.7191C19.1825 23.6909 18.957 23.7191 18.7653 23.6627C18.8217 23.5161 18.9344 23.3808 19.0021 23.2286C19.0077 23.1892 19.0697 23.1385 19.0077 23.099L18.5962 22.5071C18.6075 22.4282 18.5399 22.3436 18.5962 22.276C18.6864 22.2196 18.771 22.152 18.8386 22.0843C18.8217 22.0618 18.7935 21.9998 18.7597 21.9829C18.7484 21.9772 18.7315 21.9716 18.7146 21.9829C18.6582 22.028 18.6075 22.0843 18.5399 22.1013L18.5286 21.8701C18.8273 21.6108 19.1543 21.3685 19.4699 21.1317L22.0291 21.6954C22.1193 21.6729 22.2095 21.6447 22.294 21.5996H22.2884L22.2095 21.5658L19.4981 20.9739C19.4643 20.5511 19.4361 20.1002 19.4248 19.6605C19.4756 19.6774 19.5263 19.7056 19.5658 19.7394C19.6109 19.7732 19.6503 19.8183 19.6898 19.8578C19.7574 19.7732 19.8702 19.7338 19.9829 19.7619C20.0167 19.7676 20.0393 19.7845 20.0675 19.8014C20.09 19.8239 20.1126 19.8465 20.1351 19.8747C20.1633 19.9367 20.1915 20.0212 20.1633 20.0945C20.1126 20.1734 20.0336 20.2805 19.9322 20.2749C19.8533 20.3087 19.78 20.1509 19.7405 20.2862C19.7574 20.444 19.8025 20.6018 19.904 20.7315C20.1802 20.833 20.4677 20.9062 20.789 20.9006C20.9412 20.816 21.0596 20.6638 21.1892 20.5398C21.1948 20.5004 21.1892 20.4609 21.1554 20.444C21.0934 20.4947 20.9806 20.4947 20.9074 20.4666C20.8172 20.4215 20.7608 20.3256 20.7552 20.2185C20.7552 20.1396 20.8115 20.0776 20.8735 20.0212C20.9581 19.9649 21.0539 19.9931 21.1328 20.0381C21.1554 20.0551 21.1836 20.0663 21.2005 20.0832C21.2794 19.9818 21.3865 19.8916 21.5274 19.886C21.5838 19.8972 21.6458 19.9254 21.6965 19.9649C21.7473 20.01 21.7867 20.0663 21.798 20.1283C21.798 20.1678 21.8036 20.1847 21.8205 20.1903C21.86 20.2185 21.9558 20.1622 22.0066 20.1903C22.1137 20.2411 22.17 20.3425 22.17 20.4553C22.1531 20.5455 22.1024 20.6357 22.0178 20.6695C21.9615 20.7033 21.8825 20.7202 21.8205 20.7033C21.798 20.6864 21.7698 20.6751 21.7473 20.6526C21.7247 20.63 21.7022 20.6075 21.6909 20.5737C21.674 20.5567 21.6402 20.5737 21.6289 20.5849C21.5725 20.7259 21.6683 20.8668 21.6965 20.9964C21.7134 21.0528 21.7473 21.0923 21.7811 21.1204C21.8544 21.1824 21.9671 21.1994 22.0686 21.2219C22.0798 21.2219 22.0911 21.2219 22.1024 21.2275C22.1306 21.2332 22.1588 21.2388 22.1869 21.2501C22.3335 21.2557 22.4913 21.329 22.6435 21.3008C22.7788 21.2388 22.8972 21.1317 23.0156 21.0302C23.0268 21.0021 23.0156 20.9851 23.0043 20.9739C22.9761 20.9457 22.8746 20.9739 22.8352 20.9401C22.807 20.9288 22.7844 20.9119 22.7675 20.8893C22.7675 20.8893 22.7675 20.8893 22.7619 20.8893C22.7394 20.8611 22.7224 20.833 22.7112 20.7991C22.6943 20.7258 22.7055 20.63 22.745 20.568C22.8126 20.5004 22.9141 20.4496 23.0099 20.4496C23.0381 20.4496 23.0663 20.4609 23.0888 20.4778C23.1621 20.5229 23.2129 20.6075 23.2523 20.6751C23.3143 20.692 23.3481 20.6131 23.4158 20.6131C23.4778 20.5906 23.5623 20.568 23.6356 20.5906C23.4045 20.957 23.1678 21.3628 22.8803 21.6729C22.6492 21.7236 22.4293 21.7856 22.2208 21.8701C22.2489 21.9265 22.2884 21.9772 22.3448 21.9998C22.5533 21.9885 22.7224 21.8307 22.9423 21.8871C23.0043 21.904 23.0607 21.9378 23.117 21.9772C23.1734 22.0167 23.2241 22.0562 23.2805 22.09C23.3143 22.2591 23.3256 22.4677 23.1959 22.5973C23.0888 22.7439 22.9423 22.8622 22.8352 23.0088C22.8352 24.4011 22.4293 25.6694 21.7811 26.8137C21.488 27.3492 21.1385 27.8565 20.9017 28.4202C20.8284 28.6288 20.7664 28.8374 20.7664 29.0741L20.3888 28.8994L20.3662 28.9163C20.3042 30.8385 20.3098 32.8227 20.2591 34.7561C20.5353 35.0323 20.7495 35.348 20.9074 35.675C21.7022 37.3378 22.3786 39.0515 23.4496 40.596C23.5736 40.7707 23.7202 40.9173 23.878 41.0413C24.3571 41.4021 24.9828 41.5261 25.6085 41.419C26.3132 41.2837 27.0685 40.7313 27.2545 39.9928C27.3673 39.3953 27.2094 38.7922 26.9952 38.2623C26.4034 37.0729 25.6649 35.9455 25.0336 34.7674C24.5714 33.8655 24.1317 32.8339 24.4304 31.7573C24.6221 31.047 25.152 30.4721 25.7326 29.9873C26.9445 28.905 28.3312 28.0651 29.5262 26.9265C30.0899 26.3402 30.5803 25.692 30.6705 24.8859C30.8001 24.0291 30.6818 23.1215 30.011 22.5409C29.949 22.4846 29.8813 22.4282 29.8137 22.3775C29.3345 22.0393 28.6919 21.9265 28.1339 22.1182C27.6604 22.2816 27.17 22.6537 27.0403 23.1666C26.9727 23.3977 27.0178 23.6232 27.0516 23.8487C27.108 23.8882 27.1869 23.8882 27.2545 23.8882C27.2658 23.8882 27.2771 23.8882 27.2883 23.8882C27.3053 23.8882 27.3278 23.8882 27.3447 23.8938C27.542 23.9276 27.7449 23.9445 27.931 24.0234C28.0211 24.1136 28.0775 24.2264 28.1452 24.3391C28.2748 24.5871 28.4157 24.8408 28.4721 25.1226C28.4777 25.6074 28.3819 26.0527 28.303 26.5093L28.2579 26.6784C28.2579 26.6784 28.241 26.6841 28.2297 26.6841C28.2241 26.1204 27.9986 25.6243 27.6435 25.2016C27.5758 25.1959 27.5025 25.1847 27.4293 25.1903C27.4856 25.6751 27.7055 26.3684 27.232 26.7348C26.6288 27.3154 25.9468 27.7607 25.3042 28.2455C24.887 28.5781 24.4812 28.9107 24.1599 29.3447C24.1486 29.3447 24.1317 29.3616 24.1204 29.3503C24.4981 28.1497 25.4056 27.1632 26.1722 26.126C26.3075 26.0189 26.2512 25.8385 26.2568 25.7032C26.2342 25.568 26.2173 25.4214 26.1891 25.2918C26.0708 25.3199 25.9693 25.4158 25.8622 25.4778C25.6424 25.6525 25.4056 25.8611 25.214 26.0809C25.2083 26.0809 25.1971 26.0809 25.1914 26.064C25.4338 25.3876 25.7326 24.7337 26.2286 24.1644C26.1441 23.3639 26.3526 22.6311 26.9783 22.1238C27.7055 21.4812 28.8216 21.329 29.7066 21.7179C29.8701 21.7856 30.0335 21.8701 30.1801 21.9829C30.6367 22.3098 31.0087 22.8115 31.1214 23.3301C31.3131 24.0911 31.3469 24.993 31.0651 25.7202C30.6649 26.9828 29.6164 27.9862 28.6694 28.9614C28.2748 29.3672 27.8915 29.7393 27.6209 30.2184L27.6322 30.2297H27.6435C27.8802 30.1846 28.1452 30.1564 28.3763 30.1226C28.8329 30.162 29.2669 30.2691 29.6897 30.3481L29.1993 30.5905L26.9276 31.6615C26.8599 31.8362 26.7923 32.0166 26.781 32.2026C26.781 32.2026 26.7867 32.2026 26.7923 32.2026C26.7923 32.2026 26.7923 32.2082 26.7923 32.2139C26.9276 32.2139 27.0685 32.1632 27.2038 32.135C27.4631 32.0955 27.7168 32.011 27.9873 32.011C28.3932 32.1011 28.7765 32.1688 29.1767 32.2703L29.1147 32.3097L26.6852 33.4709C26.6796 33.6231 26.6796 33.7753 26.719 33.9219H26.7303V33.9275H26.7585C26.9727 33.9219 27.17 33.8317 27.3785 33.8824C27.7449 33.9782 28.1226 34.0572 28.5003 34.1304C27.9591 34.401 27.4067 34.649 26.8712 34.9309C27.0403 36.2612 27.7337 37.3829 27.9366 38.702C28.1113 39.835 27.6435 40.9906 26.657 41.605C25.772 42.1461 24.5319 42.2363 23.6243 41.6726C23.5849 41.6501 23.5454 41.6163 23.5003 41.5937C23.0212 41.295 22.6153 40.844 22.294 40.3818L20.8792 38.3018C20.8228 38.2454 20.8735 38.1496 20.8454 38.0706C20.8341 37.2927 20.8172 36.4923 20.4959 35.8159L20.4677 35.8046C20.4113 35.8835 20.4 35.9737 20.3606 36.0583C20.5466 36.5036 20.5861 37.0053 20.6199 37.5013L20.6706 39.5306C20.6762 40.0605 20.6819 40.5791 20.7552 41.1033C20.8341 41.5317 20.8059 42.0165 21.0708 42.3829L21.3301 42.6986C21.3583 43.0029 21.3019 43.3412 21.2456 43.6343C21.1554 43.7639 21.0483 43.871 20.9412 43.9894C20.8228 44.9533 20.7721 45.9454 20.6819 46.9319C20.6537 47.3772 20.6932 47.7718 20.7326 48.1945C20.5861 48.0987 20.4451 47.9634 20.2929 47.8676C20.2422 47.8338 20.1858 47.8056 20.1295 47.7774C20.0224 47.7267 19.9265 47.8112 19.8307 47.8563L19.2332 48.3073C19.2106 48.4087 19.2501 48.5158 19.2839 48.606C19.3403 48.7977 19.4248 48.9781 19.4587 49.1866C19.2952 49.3388 19.1092 49.429 18.9232 49.5361C18.9232 49.7334 18.9401 49.9364 18.9344 50.1111C18.7371 49.7785 18.4835 49.4403 18.5793 49.0175L18.5229 49.0063ZM18.3595 22.8171C18.4046 22.8848 18.4722 22.9524 18.5229 23.0201C18.072 22.9919 17.5759 22.9412 17.0912 22.8961C16.939 22.8453 16.7811 22.7608 16.6515 22.6537C16.6458 22.5973 16.6458 22.5578 16.6909 22.5184C16.7248 22.4902 16.7755 22.4902 16.8037 22.5184L17.0348 22.6649C17.4688 22.7608 17.9029 22.7551 18.3538 22.8115L18.3595 22.8171ZM11.0258 21.0359L11.0146 21.4136H10.5411C10.558 21.2839 10.5298 21.1373 10.558 21.0133L11.0258 21.0302V21.0359ZM6.40357 19.8972C7.4464 20.6244 8.46105 21.4925 9.76317 21.5827C10.2085 21.6052 10.682 21.6052 11.0991 21.6165C11.1893 21.6334 11.2682 21.6278 11.3528 21.6278C11.3584 21.9998 11.3359 22.3549 11.3359 22.7439C10.8116 22.7608 10.2536 22.7439 9.74626 22.7439C9.0191 22.7495 8.5005 23.2794 8.00445 23.7698L7.46331 24.3729C6.79815 23.1835 6.40921 21.8758 6.38666 20.4327C6.38102 20.3425 6.38102 20.2467 6.38102 20.1565C6.38102 20.0663 6.3923 19.9761 6.39793 19.8916L6.40357 19.8972ZM31.4258 11.8646L29.9095 18.2118H7.60423L6.08227 11.8646C6.25701 11.6786 6.57268 11.549 7.12509 11.549C8.35394 11.549 8.41595 12.1916 8.33703 12.6481C8.25812 13.1047 7.55914 13.7812 7.55914 13.7812L7.64933 13.9785C7.79589 13.8375 8.38213 13.1949 8.89509 13.178C9.13184 13.1724 9.35168 13.2908 9.50951 13.6459C10.0168 14.7845 9.20512 15.5512 8.75416 15.5512C8.29757 15.5512 7.59296 14.7056 7.59296 14.7056L7.47458 14.8071C8.05519 16.8533 9.53206 16.8533 10.0281 16.8533C10.5242 16.8533 12.0067 16.8533 12.5873 14.8071L12.4633 14.7056C12.452 14.7169 11.7643 15.5512 11.3077 15.5512C10.8511 15.5512 10.0507 14.7845 10.5523 13.6459C10.7102 13.2908 10.93 13.1724 11.1611 13.178C11.6741 13.1949 12.2603 13.8263 12.4125 13.9785L12.5027 13.7812C12.5027 13.7812 11.8037 13.1047 11.7248 12.6481C11.6459 12.1916 11.7135 11.549 12.9368 11.549C14.16 11.549 14.2332 12.1916 14.1487 12.6481C14.0698 13.1047 13.3708 13.7812 13.3708 13.7812L13.461 13.9785C13.6075 13.8375 14.1938 13.1949 14.7067 13.178C14.9435 13.1724 15.1633 13.2908 15.3212 13.6459C15.8285 14.7845 15.0224 15.5512 14.5658 15.5512C14.1092 15.5512 13.4103 14.7056 13.4103 14.7056L13.2862 14.8071C13.8668 16.8533 15.3437 16.8533 15.8398 16.8533C16.3302 16.8533 17.8127 16.8533 18.3933 14.8071L18.2693 14.7056C18.258 14.7169 17.5647 15.5512 17.1137 15.5512C16.6571 15.5512 15.851 14.7845 16.3584 13.6459C16.5162 13.2908 16.736 13.1724 16.9672 13.178C17.4801 13.1949 18.0664 13.8263 18.2129 13.9785L18.3031 13.7812C18.3031 13.7812 17.6041 13.1047 17.5252 12.6481C17.4463 12.1916 17.5139 11.549 18.7371 11.549C19.9604 11.549 20.0336 12.1916 19.9547 12.6481C19.8758 13.1047 19.1768 13.7812 19.1768 13.7812L19.267 13.9785C19.4136 13.8375 19.9998 13.1949 20.5128 13.178C20.7495 13.1724 20.9694 13.2908 21.1272 13.6459C21.6345 14.7845 20.8284 15.5512 20.3718 15.5512C19.9153 15.5512 19.2163 14.7056 19.2163 14.7056L19.0923 14.8071C19.6729 16.8533 21.1497 16.8533 21.6458 16.8533C22.1418 16.8533 23.6187 16.8533 24.205 14.8071L24.0809 14.7056C24.0697 14.7169 23.3763 15.5512 22.9254 15.5512C22.4688 15.5512 21.6627 14.7845 22.17 13.6459C22.3279 13.2908 22.5477 13.1724 22.7788 13.178C23.2918 13.1949 23.878 13.8263 24.0302 13.9785L24.1204 13.7812C24.1204 13.7812 23.4214 13.1047 23.3425 12.6481C23.2636 12.1916 23.3312 11.549 24.5544 11.549C25.7833 11.549 25.8509 12.1916 25.7664 12.6481C25.6931 13.1047 24.9885 13.7812 24.9885 13.7812L25.0787 13.9785C25.2252 13.8375 25.8115 13.1949 26.3244 13.178C26.5612 13.1724 26.781 13.2908 26.9389 13.6459C27.4462 14.7845 26.6401 15.5512 26.1835 15.5512C25.7269 15.5512 25.0279 14.7056 25.0279 14.7056L24.9039 14.8071C25.4845 16.8533 26.9614 16.8533 27.4575 16.8533C27.9535 16.8533 29.4304 16.8533 30.011 14.8071L29.887 14.7056C29.8757 14.7169 29.1824 15.5512 28.7314 15.5512C28.2748 15.5512 27.4687 14.7845 27.9761 13.6459C28.1339 13.2908 28.3537 13.1724 28.5848 13.178C29.0978 13.1949 29.684 13.8263 29.8362 13.9785L29.9264 13.7812C29.9264 13.7812 29.2274 13.1047 29.1485 12.6481C29.0696 12.1916 29.1373 11.549 30.3605 11.549C30.9129 11.549 31.2285 11.6786 31.4033 11.8646H31.4258ZM9.44187 15.4102C9.44187 15.4102 9.46442 15.3821 9.47569 15.3651C9.46442 15.3764 9.45314 15.3933 9.44187 15.4102ZM8.55124 12.3494C8.53996 12.1183 8.47232 11.921 8.34267 11.7632C8.20175 11.594 7.99318 11.4813 7.72261 11.4137V11.3629C7.63805 10.9007 7.60987 10.5569 7.62678 10.3314C7.64933 10.0439 8.22993 9.70568 9.79699 9.59858C10.9357 9.51966 11.6797 9.50275 11.9221 9.49711C11.9052 9.96498 11.9841 10.5512 12.0574 10.9909C10.4509 11.3798 9.32349 11.8872 8.5456 12.355L8.55124 12.3494ZM18.7484 9.03489C18.7484 9.03489 18.7484 9.03489 18.7541 9.03489C19.0077 9.03489 19.2445 8.98415 19.4756 8.91651C19.4812 8.91651 19.4925 8.91651 19.4981 8.91651L19.3347 11.408C19.2896 11.3968 19.2388 11.3911 19.1881 11.3855C19.1543 11.3855 19.1261 11.3742 19.0923 11.3686C19.0754 11.3686 19.0584 11.3686 19.0359 11.3686C18.9457 11.3629 18.8555 11.3573 18.7597 11.3573C18.6639 11.3573 18.5737 11.3573 18.4891 11.3686C18.4722 11.3686 18.4497 11.3686 18.4328 11.3686C18.4328 11.3686 18.4271 11.3686 18.4215 11.3686C18.3764 11.3742 18.3313 11.3855 18.2918 11.3911C18.258 11.3968 18.2185 11.4024 18.1847 11.408L18.0156 8.91651C18.0156 8.91651 18.0438 8.91651 18.0551 8.91651C18.2806 8.98415 18.5173 9.03489 18.7653 9.03489H18.7484ZM24.2275 10.8049C22.9479 10.5569 21.426 10.3821 19.6052 10.3201L19.656 9.54785C20.1576 9.47457 21.4316 9.30546 22.4913 9.30546C22.6661 9.30546 22.8352 9.30546 22.993 9.32237C24.2106 9.40692 24.2162 9.49148 24.267 9.90861C24.2951 10.1397 24.267 10.5005 24.2275 10.8105V10.8049ZM13.2693 10.7316C13.2299 10.3708 13.213 10.0721 13.2355 9.88606C13.2862 9.48584 13.2975 9.40129 14.5095 9.31673C14.6673 9.30546 14.8364 9.29982 15.0111 9.29982C16.0652 9.29982 17.3448 9.46893 17.8465 9.54221L17.8972 10.3032C16.0765 10.3427 14.5489 10.5005 13.2693 10.7316ZM29.7855 11.3629V11.4137C29.5093 11.4813 29.3007 11.594 29.1598 11.7632C29.002 11.9492 28.9343 12.1972 28.9569 12.4903C28.1846 12.0055 27.0572 11.4813 25.4338 11.0642C25.5127 10.5963 25.6029 9.97625 25.586 9.48584C25.8227 9.49148 26.5725 9.51403 27.7111 9.58731C29.2838 9.69441 29.8644 10.0383 29.8813 10.3201C29.8982 10.5456 29.8701 10.8951 29.7968 11.3517L29.7855 11.3629ZM26.6514 8.70795C26.7641 8.70795 26.8769 8.70795 26.9896 8.70795C27.3278 8.70795 27.666 8.71922 27.9197 8.74177C27.9761 8.74177 28.0324 8.75304 28.0775 8.75868C28.9738 8.85451 30.1857 8.92215 30.7325 9.46893C31.0989 9.83533 30.9129 10.788 30.7551 11.3742C30.6367 11.3573 30.507 11.3517 30.3661 11.3517C30.2252 11.3517 30.0955 11.3629 29.9715 11.3742C30.0223 11.0585 30.0786 10.6189 30.0561 10.3145C30.0223 9.7846 29.0922 9.49148 27.6998 9.39565C26.5555 9.31673 25.5578 9.28855 25.5578 9.28855C25.5353 9.02925 25.4394 8.84887 25.3492 8.73049C25.3492 8.73049 25.958 8.70795 26.6345 8.70795H26.6514ZM25.2703 8.9447C25.5522 9.33928 25.2365 11.0416 25.1632 11.4137C25.0843 11.3968 24.9998 11.3855 24.9152 11.3686C24.8983 11.3686 24.8814 11.3686 24.8588 11.3686C24.8025 11.3629 24.7348 11.3629 24.6728 11.3573C24.639 11.3573 24.6108 11.3573 24.5714 11.3573C24.4981 11.3573 24.4248 11.3573 24.3571 11.3629H24.3515C24.391 11.1375 24.5263 10.3145 24.4699 9.88042C24.4079 9.37874 24.4022 9.21527 23.0099 9.11944C21.8769 9.04616 20.2422 9.266 19.6729 9.34492L19.7011 8.85451C20.0844 8.74177 21.037 8.51629 22.6435 8.39792C24.3346 8.26827 24.9547 8.49938 25.2703 8.9447ZM21.0032 6.17697C21.0201 6.26716 21.0314 6.36299 21.037 6.45882H19.1655V5.20178L19.4361 4.36188C20.2535 4.61554 20.8679 5.32016 21.0032 6.18261V6.17697ZM17.0855 2.58625V1.72944H18.2524V0.416042H19.2501V1.72944H20.4169V2.58625H19.2501V4.10259C19.1712 4.08567 19.0923 4.0744 19.0077 4.06876C18.9288 4.05749 18.8499 4.05749 18.7653 4.05749C18.7653 4.05749 18.7597 4.05749 18.7541 4.05749H18.7428C18.6639 4.05749 18.5793 4.05749 18.5004 4.06876C18.4158 4.0744 18.3369 4.09131 18.2636 4.10259V2.58625H17.0968H17.0855ZM18.0551 4.36188L18.2467 4.96503L18.32 5.20178V6.45882H16.4598C16.4767 6.06987 16.5895 5.70347 16.7755 5.3878C17.0573 4.90303 17.5083 4.53663 18.0551 4.36188ZM16.4655 6.65611H18.5229V5.14541L18.2524 4.30551C18.4102 4.27169 18.5793 4.24915 18.7484 4.24915C18.9175 4.24915 19.081 4.27169 19.2388 4.29988L18.9683 5.13978V6.65047H21.037C21.0314 6.79139 21.0145 6.92668 20.9806 7.06197H16.5218C16.4937 6.93232 16.4711 6.79139 16.4655 6.65047V6.65611ZM16.5782 7.2649H20.9299C20.6311 8.17808 19.7687 8.83759 18.7541 8.83759C17.7394 8.83759 16.877 8.17808 16.5782 7.2649ZM12.2321 8.9447C12.5478 8.49938 13.1679 8.26827 14.8589 8.39792C16.4598 8.51629 17.4181 8.7474 17.8014 8.85451L17.8352 9.34492C17.2715 9.26036 15.6312 9.04052 14.4982 9.11944C13.1059 9.21527 13.1002 9.37874 13.0382 9.88042C13.0326 9.93679 13.0269 9.99316 13.0269 10.0608C13.0157 10.5118 13.1228 11.1656 13.1566 11.3629C13.0946 11.3629 13.0269 11.3629 12.9593 11.3573C12.9537 11.3573 12.948 11.3573 12.9424 11.3573C12.8409 11.3573 12.7451 11.3629 12.6549 11.3742C12.6549 11.3742 12.6493 11.3742 12.6436 11.3742C12.6324 11.3742 12.6267 11.3742 12.6155 11.3742C12.6155 11.3742 12.6042 11.3742 12.5985 11.3742C12.5084 11.3855 12.4238 11.3968 12.3392 11.4193C12.2885 11.1769 12.142 10.3708 12.1194 9.72823V9.71695C12.1194 9.62676 12.1194 9.53657 12.1194 9.45202C12.1307 9.23218 12.1589 9.0518 12.2321 8.95033V8.9447ZM6.7587 9.46893C7.30548 8.92215 8.51741 8.85451 9.41368 8.75868C9.46442 8.75304 9.51515 8.7474 9.57715 8.74177C9.92101 8.71358 10.4001 8.70795 10.8511 8.70795C11.5275 8.70795 12.1363 8.73049 12.1363 8.73049C12.0461 8.84887 11.9503 9.02925 11.9277 9.28855C11.9277 9.28855 10.9357 9.31673 9.78572 9.39565C8.3934 9.48584 7.46895 9.7846 7.43513 10.3145C7.41258 10.6189 7.46895 11.0529 7.51968 11.3742C7.39567 11.3573 7.27165 11.3517 7.12509 11.3517C6.98981 11.3517 6.8658 11.3629 6.74742 11.3742C6.74742 11.3742 6.74178 11.3742 6.73615 11.3742C6.57831 10.788 6.3923 9.83533 6.7587 9.46893Z" fill="white"/>
<path d="M17.3164 12.4108C17.3164 12.3827 17.322 12.3602 17.322 12.332L17.3164 12.4108Z" fill="white"/>
<path d="M9.48102 15.3711C9.48102 15.3711 9.45852 15.3992 9.44727 15.4161L9.48102 15.3711Z" fill="white"/>
<path d="M17.6378 47.1778C17.6378 47.1778 17.5928 47.1497 17.5703 47.1328L17.6378 47.1778Z" fill="white"/>
<path d="M22.6712 22.3882C22.6769 22.4728 22.6938 22.5686 22.7332 22.6362C22.8573 22.5404 22.97 22.422 22.9531 22.2586C22.8967 22.1796 22.8065 22.1627 22.722 22.1289C22.6318 22.1571 22.5416 22.1796 22.457 22.2135C22.519 22.2811 22.598 22.3318 22.6712 22.3882Z" fill="white"/>
<path d="M36.3302 22.9915C36.6966 22.4954 36.8262 21.9825 36.8262 21.5146C36.8262 20.5789 36.3302 19.8348 36.2344 19.6995C36.2174 19.4797 36.1442 18.2621 35.2253 18.2227C34.47 18.2396 34.3911 19.0851 34.3911 19.4853C34.3911 19.5812 34.3911 19.6544 34.3967 19.6995C34.2783 19.8461 33.8218 20.4605 33.8218 21.3793C33.8218 21.8303 33.9345 22.3545 34.2502 22.9182C34.0923 23.1099 33.585 23.8145 33.585 24.8855C33.585 25.4548 33.7316 26.12 34.1374 26.864C34.0923 27.0783 34.0754 27.2643 34.0698 27.3488C33.9119 27.4785 33.275 28.0534 33.275 29.0906C33.275 29.5078 33.3821 29.9925 33.6583 30.5506C33.4666 30.7535 32.8127 31.5371 32.8127 32.7828C32.8127 33.2732 32.9198 33.8313 33.1904 34.4513C33.134 34.5923 33.0946 34.7163 33.0777 34.7783C32.8973 34.9023 31.9672 35.5956 31.9616 37.0105C31.9616 37.3036 32.001 37.6306 32.0969 37.9857C31.8657 38.1886 30.8849 39.13 30.8849 40.6689C30.8849 40.9845 30.93 41.3227 31.0258 41.6835C30.9526 41.8019 30.8962 41.9033 30.868 41.9597C30.5805 42.0274 29.0924 42.4896 29.0642 44.5809C28.7091 44.7049 27.1533 45.3982 26.9785 47.7037C26.77 47.8446 26.6121 47.9912 26.5501 48.0532C26.2796 48.0532 24.5659 48.1998 24.2672 50.2403C23.85 50.2911 21.8602 50.6744 21.2965 53.1039C21.2176 53.4703 20.8512 53.7521 20.5637 53.9269C20.2988 54.0227 20.1691 54.1242 20.1635 54.1354C20.1297 54.1693 20.1128 54.2087 20.1297 54.2482C20.1466 54.2876 20.1804 54.3046 20.2199 54.3046C20.2311 54.3046 20.2424 54.3046 20.2537 54.2989C20.2819 54.2876 20.3044 54.2764 20.327 54.2651C20.3439 54.2595 20.3608 54.2482 20.389 54.2369C20.5299 54.1749 20.6708 54.1129 20.8117 54.0453C21.026 53.9889 21.3078 53.9438 21.6686 53.9382C21.8095 53.9382 21.9617 53.9494 22.1251 53.9663C22.2548 53.9776 22.3844 53.9832 22.5028 53.9832C24.5716 53.9832 25.5073 52.2471 25.6595 51.937C27.6437 51.5368 27.8523 49.6372 27.8748 49.3553C27.9312 49.2933 28.0721 49.1242 28.2074 48.91C30.6143 48.2505 30.8624 46.1987 30.8906 45.8041C32.2885 45.2122 32.5027 43.9101 32.4971 43.2111C32.4971 42.9856 32.4745 42.8222 32.4689 42.7602C32.4971 42.7038 32.5591 42.5572 32.6155 42.3768C33.9458 41.6271 34.2389 40.4603 34.2389 39.6317C34.2389 39.1694 34.1543 38.803 34.1149 38.6621C34.9322 37.997 35.1633 37.2191 35.1633 36.5765C35.1633 35.8888 34.9097 35.3532 34.8364 35.2123C34.8477 35.156 34.8702 35.0319 34.8871 34.8854C35.8116 34.0286 36.0765 33.1041 36.0765 32.3488C36.0765 31.5709 35.8003 30.9734 35.7045 30.7817C36.1836 30.2349 36.3415 29.6374 36.3415 29.1019C36.3415 28.2507 35.9525 27.563 35.868 27.4221C35.868 27.4052 35.868 27.377 35.868 27.3376C35.868 27.2699 35.868 27.1628 35.851 27.0444C36.5387 26.2327 36.7529 25.3984 36.7529 24.6938C36.7529 23.8257 36.4373 23.1606 36.3358 22.9689L36.3302 22.9915ZM27.7113 49.2652L27.6888 49.2933V49.3328C27.6888 49.3328 27.6155 51.4128 25.5806 51.7792L25.5298 51.7905L25.5073 51.8356C25.5073 51.8356 24.6336 53.8198 22.5085 53.8141C22.3901 53.8141 22.2717 53.8085 22.1477 53.7972C21.9786 53.7803 21.8208 53.7747 21.6742 53.7747C21.5276 53.7747 21.398 53.786 21.274 53.7972C21.8659 53.4872 22.4295 53.1377 22.9594 52.7657C23.1229 52.7995 23.2751 52.8108 23.4047 52.8108C23.7035 52.8108 23.8895 52.7488 23.8951 52.7488C23.9233 52.7375 23.9402 52.7037 23.9346 52.6755C23.9233 52.6473 23.8895 52.6304 23.8613 52.636C23.8613 52.636 23.6922 52.6868 23.4104 52.6868C23.3202 52.6868 23.2131 52.6755 23.1003 52.6642C24.0192 52.0103 24.8365 51.3001 25.496 50.6631H25.62C26.2796 50.6631 26.4769 50.5504 26.4881 50.5391C26.5163 50.5222 26.5219 50.4884 26.5107 50.4602C26.4994 50.4433 26.4881 50.4376 26.4712 50.432C26.4599 50.432 26.443 50.432 26.4318 50.4376C26.4318 50.4376 26.4036 50.4545 26.3472 50.4715C26.3472 50.4715 26.3359 50.4715 26.3303 50.4715C26.3134 50.4715 26.2965 50.4827 26.2683 50.4884C26.2514 50.4884 26.2345 50.494 26.2176 50.4996C26.2006 50.4996 26.1837 50.5053 26.1612 50.5109C26.1443 50.5109 26.1274 50.5109 26.1105 50.5165C26.0823 50.5165 26.0541 50.5222 26.0146 50.5278C26.0146 50.5278 26.0033 50.5278 25.9977 50.5278C25.8962 50.5391 25.7722 50.5447 25.62 50.5447H25.6144C26.7136 49.4737 27.3731 48.6338 27.3788 48.6282C27.3957 48.6 27.3957 48.5662 27.3675 48.5493C27.3562 48.538 27.3393 48.538 27.3224 48.538C27.3055 48.538 27.2942 48.5493 27.2829 48.5605C27.2829 48.5605 26.6121 49.4173 25.5017 50.4884C25.5017 50.4489 25.496 50.4038 25.496 50.3643C25.496 49.8458 25.682 49.5414 25.682 49.5414C25.699 49.5132 25.6877 49.4794 25.6595 49.4624C25.6426 49.4568 25.6313 49.4512 25.6144 49.4568C25.6031 49.4568 25.5862 49.4681 25.5806 49.485C25.5806 49.485 25.3777 49.8232 25.3777 50.37C25.3777 50.4376 25.3777 50.5165 25.3889 50.6011C24.7238 51.2381 23.9121 51.9371 22.9989 52.5909C23.0383 52.14 23.2018 51.7905 23.2018 51.7905C23.2131 51.7623 23.2018 51.7285 23.1736 51.7116C23.1567 51.7059 23.1454 51.7059 23.1285 51.7116C23.1172 51.7116 23.1003 51.7285 23.0947 51.7398C23.0947 51.751 22.903 52.1569 22.8749 52.6811C22.3337 53.0588 21.7644 53.4083 21.1612 53.724C21.3022 53.5718 21.4205 53.3914 21.4713 53.1772C22.0688 50.5898 24.3405 50.4602 24.3461 50.4545H24.425L24.4363 50.37C24.6956 48.3351 26.381 48.2843 26.5614 48.2731L26.6065 48.2843L26.646 48.2449C26.646 48.2449 27.266 47.6192 27.7452 47.6304C27.8748 47.6304 27.9932 47.6699 28.1059 47.7826C28.2187 47.901 28.2581 48.025 28.2638 48.1716C28.2694 48.662 27.7001 49.2821 27.7057 49.2821L27.7113 49.2652ZM28.2468 47.6304C28.3596 47.5177 28.4723 47.3937 28.5851 47.264C29.0586 47.1851 29.6053 47.0217 29.611 47.0217C29.6392 47.0104 29.6617 46.9822 29.6504 46.9484C29.6504 46.9315 29.6335 46.9202 29.6222 46.9146C29.611 46.9089 29.5941 46.9033 29.5772 46.9146C29.5772 46.9146 29.1318 47.0498 28.7091 47.1288C29.3179 46.4072 29.9266 45.5053 30.4396 44.6767C31.1329 44.5301 31.4317 44.3779 31.4317 44.3779C31.4599 44.361 31.4712 44.3272 31.4542 44.299C31.4373 44.2708 31.4035 44.2596 31.3753 44.2765C31.3753 44.2765 31.1217 44.4061 30.5185 44.5414C31.257 43.3351 31.7812 42.3205 31.7812 42.3205C31.7925 42.2923 31.7812 42.2585 31.753 42.2416C31.7248 42.2246 31.691 42.2416 31.6741 42.2641C31.6741 42.2641 31.1499 43.2731 30.4227 44.4681C30.3945 44.2708 30.3832 44.0792 30.3832 43.927C30.3832 43.7128 30.4001 43.5775 30.4001 43.5775C30.4001 43.5606 30.4001 43.5493 30.3889 43.538C30.3776 43.5268 30.3663 43.5211 30.3494 43.5155C30.3212 43.5155 30.2874 43.5324 30.2874 43.5662C30.2874 43.5662 30.2705 43.7128 30.2705 43.9326C30.2705 44.1243 30.2818 44.3723 30.3325 44.6316C29.8195 45.4546 29.222 46.3452 28.6245 47.0555C28.6302 46.5143 28.6809 46.1423 28.6809 46.1367C28.6809 46.1198 28.6809 46.1085 28.6696 46.0916C28.6583 46.0803 28.6471 46.069 28.6302 46.069C28.5963 46.069 28.5681 46.0859 28.5681 46.1198C28.5681 46.1198 28.5118 46.5707 28.5118 47.1908C28.399 47.3204 28.2807 47.4501 28.1679 47.5628C28.0439 47.4726 27.903 47.4275 27.7621 47.4275C27.5648 47.4275 27.3675 47.5008 27.1927 47.5966C27.4408 45.2348 29.1938 44.7669 29.1938 44.7613L29.2897 44.7331L29.2615 44.6485C29.2728 42.4219 30.9526 42.1626 30.9526 42.157L31.0033 42.1457L31.0258 42.1006C31.0258 42.1006 31.4768 41.1931 31.9728 41.2156C32.0461 41.2156 32.125 41.2325 32.2096 41.2776C32.2716 41.3058 32.3167 41.3453 32.3562 41.3847C32.4745 41.5088 32.514 41.6666 32.5196 41.8526C32.5196 42.2641 32.2885 42.7207 32.2885 42.7207L32.2772 42.7489V42.7827C32.2772 42.7827 32.3111 42.9574 32.3111 43.2337C32.3111 43.9101 32.1194 45.1333 30.7665 45.6744L30.7045 45.697V45.759C30.7045 45.759 30.682 47.9461 28.3314 48.6902C28.4047 48.5211 28.461 48.3463 28.4667 48.1603C28.4667 47.9743 28.4047 47.7883 28.2525 47.6361L28.2468 47.6304ZM34.966 36.5877C34.966 37.2022 34.7462 37.9237 33.9401 38.5663L33.8894 38.6057L33.9119 38.6677C33.9119 38.6677 34.0472 39.0736 34.0472 39.6373C34.0472 40.3926 33.7992 41.4073 32.6831 42.1175C32.7 42.0274 32.7113 41.9372 32.7113 41.847C32.7113 41.5651 32.6098 41.2551 32.2941 41.0973C32.2885 41.0973 32.2772 41.0973 32.2716 41.086C32.328 40.9338 32.39 40.776 32.4463 40.6238C32.9029 40.4265 33.2468 40.077 33.2524 40.077C33.275 40.0544 33.275 40.015 33.2524 39.9981C33.2299 39.9755 33.1961 39.9755 33.1735 39.9981C33.1735 39.9981 32.886 40.2743 32.5084 40.4659C32.8973 39.3893 33.2017 38.3859 33.4328 37.5404C33.895 37.3205 34.2276 36.971 34.2332 36.9654C34.2558 36.9429 34.2558 36.909 34.2332 36.8865C34.2107 36.8639 34.1769 36.8639 34.1543 36.8865C34.1543 36.8865 33.8725 37.1796 33.4835 37.3882C33.8612 35.9846 34.019 35.0601 34.019 35.0601C34.019 35.0432 34.019 35.0263 34.0078 35.015C33.9965 35.0038 33.9852 34.9925 33.9739 34.9925C33.9458 34.9868 33.9119 35.0094 33.9063 35.0376C33.9063 35.0376 33.7428 35.962 33.3708 37.36C33.134 36.9879 33.089 36.5821 33.089 36.5821C33.089 36.5652 33.0777 36.5539 33.0664 36.5426C33.0551 36.537 33.0382 36.5314 33.0269 36.5314C32.9988 36.5314 32.9762 36.5652 32.9762 36.5934C32.9762 36.5934 33.0326 37.0838 33.337 37.5065C33.1059 38.3521 32.8015 39.3498 32.4125 40.4321C32.2265 40.0037 32.2096 39.6148 32.2096 39.6148C32.2096 39.5978 32.204 39.5866 32.187 39.5753C32.1758 39.564 32.1645 39.5584 32.1476 39.564C32.1138 39.564 32.0912 39.5922 32.0912 39.626C32.0912 39.6429 32.1138 40.1052 32.3562 40.5956C32.2998 40.7478 32.2434 40.9 32.1814 41.0578C32.1194 41.0409 32.0518 41.0296 31.9898 41.0296C31.6572 41.0409 31.3922 41.2664 31.2006 41.4975C31.1386 41.2156 31.0991 40.9451 31.0991 40.6914C31.0991 39.0511 32.2885 38.1266 32.2885 38.1153L32.3392 38.0759L32.3223 38.0139C32.2209 37.6531 32.1758 37.3205 32.1758 37.033C32.1758 35.5731 33.2355 34.953 33.2299 34.9417L33.2637 34.9192L33.275 34.8797C33.275 34.8797 33.5681 33.82 34.0923 33.8538C34.1431 33.8538 34.1994 33.8595 34.2614 33.882C34.3404 33.9046 34.3967 33.944 34.4474 33.9891C34.656 34.1582 34.7237 34.4401 34.7237 34.7163C34.7237 34.9925 34.6617 35.2236 34.6617 35.2236L34.6504 35.2631L34.6673 35.2969C34.6673 35.2969 34.9886 35.8606 34.9886 36.599L34.966 36.5877ZM36.1442 29.1188C36.1442 29.6318 35.992 30.1898 35.5128 30.7197L35.4621 30.7704L35.5016 30.8324C35.5016 30.8324 35.8792 31.475 35.8792 32.3657C35.8792 33.0365 35.6537 33.8426 34.8871 34.6261C34.8759 34.3668 34.8026 34.068 34.5827 33.8707C34.5376 33.8313 34.4756 33.8031 34.4136 33.7749C34.3798 33.758 34.3516 33.7298 34.3122 33.7129C34.346 33.5156 34.3742 33.3296 34.4024 33.1379C34.8533 32.8843 35.1182 32.501 35.1239 32.4953C35.1408 32.4671 35.1352 32.4333 35.1126 32.4164C35.0844 32.3995 35.0506 32.4051 35.0337 32.4333C35.0337 32.4333 34.8082 32.7546 34.4305 32.9914C34.6109 31.8189 34.7406 30.7704 34.8364 29.9023C35.3381 29.6149 35.5354 29.2034 35.5354 29.1977C35.5466 29.1695 35.5354 29.1357 35.5072 29.1188C35.479 29.1019 35.4452 29.1188 35.4339 29.147C35.4339 29.147 35.2704 29.4909 34.8533 29.7558C35.0055 28.3184 35.0562 27.4334 35.0562 27.4334C35.0562 27.4165 35.0562 27.3996 35.0393 27.3939C35.0281 27.3826 35.0168 27.377 34.9999 27.377C34.9717 27.377 34.9435 27.3996 34.9379 27.4334C34.9379 27.4334 34.8871 28.3127 34.7349 29.7389C34.4305 29.457 34.284 29.0512 34.2783 29.0512C34.2727 29.0343 34.2614 29.023 34.2502 29.0174C34.2389 29.0117 34.222 29.0117 34.2051 29.0174C34.1769 29.0286 34.16 29.0624 34.1712 29.0906C34.1712 29.0906 34.346 29.5754 34.718 29.8798C34.6222 30.7479 34.4925 31.802 34.3122 32.9857C34.0303 32.6532 33.9289 32.2699 33.9232 32.2699C33.9232 32.2529 33.9063 32.2417 33.895 32.236C33.8838 32.2304 33.8668 32.2248 33.8499 32.2304C33.8218 32.236 33.7992 32.2699 33.8105 32.298C33.8105 32.298 33.9345 32.7659 34.2896 33.1379C34.2614 33.324 34.2332 33.5156 34.1994 33.7073C34.1543 33.696 34.1092 33.6847 34.0698 33.6847C33.7034 33.7016 33.461 33.9722 33.3088 34.254C33.1002 33.7242 33.01 33.245 33.01 32.8223C33.01 31.4581 33.8499 30.6859 33.8499 30.6802L33.9007 30.6295L33.8668 30.5619C33.5794 30.0038 33.4779 29.5303 33.4779 29.1301C33.4779 28.0534 34.2276 27.5236 34.2276 27.5179L34.2671 27.4897V27.4447C34.2671 27.4447 34.284 27.1121 34.3798 26.7795C34.4813 26.4413 34.6673 26.1538 34.9604 26.1594C34.983 26.1594 35.0055 26.1594 35.0281 26.1594C35.1013 26.1651 35.1633 26.1876 35.2197 26.2158C35.6199 26.4187 35.6819 27.1064 35.6819 27.3826C35.6819 27.4503 35.6819 27.4897 35.6819 27.4897V27.5179L35.6988 27.5461C35.6988 27.5461 36.1611 28.262 36.1611 29.147L36.1442 29.1188ZM35.8059 26.802C35.7327 26.4526 35.5466 26.0805 35.1295 25.9678C35.1521 25.7254 35.1746 25.4886 35.1915 25.2632C35.6312 24.9531 35.8398 24.5304 35.8398 24.5247C35.851 24.4965 35.8398 24.4627 35.8116 24.4458C35.7947 24.4402 35.7778 24.4402 35.7665 24.4458C35.7552 24.4458 35.7383 24.4627 35.7327 24.474C35.7327 24.474 35.5579 24.8235 35.2028 25.1053C35.3043 23.9216 35.355 22.9295 35.3775 22.1234C35.4565 22.0558 35.789 21.7514 35.9976 21.3681C36.0145 21.3399 35.9976 21.306 35.9751 21.2891C35.9581 21.2835 35.9469 21.2779 35.93 21.2891C35.9187 21.2891 35.9018 21.3004 35.8961 21.3173C35.7439 21.5992 35.5128 21.8416 35.3832 21.9656C35.3945 21.6161 35.3945 21.3004 35.3945 21.0298C35.3945 20.1054 35.355 19.6432 35.355 19.6375C35.355 19.6037 35.3268 19.5812 35.293 19.5812C35.2648 19.5812 35.2423 19.615 35.2423 19.6432C35.2423 19.6544 35.2817 20.111 35.2817 21.0242C35.2817 21.3004 35.2817 21.6104 35.2704 21.9656C35.0055 21.7063 34.8026 21.2779 34.8026 21.2779C34.7969 21.261 34.78 21.2553 34.7688 21.2497C34.7575 21.2497 34.7406 21.2497 34.7237 21.2497C34.6955 21.261 34.6842 21.2948 34.6955 21.3286C34.6955 21.3286 34.9379 21.8472 35.2648 22.1178C35.2423 22.9182 35.1915 23.9103 35.0901 25.0941C34.8026 24.7671 34.6617 24.3838 34.6617 24.3838C34.6504 24.3556 34.6166 24.3387 34.5884 24.35C34.5602 24.3613 34.5433 24.3951 34.5546 24.4233C34.5546 24.4233 34.7293 24.8855 35.0844 25.2519C35.0675 25.4717 35.045 25.7028 35.0224 25.9396C34.9999 25.9396 34.9773 25.9396 34.9548 25.9396C34.5546 25.9621 34.3403 26.2722 34.222 26.5991C33.9063 25.9621 33.7823 25.3928 33.7823 24.9024C33.7823 23.713 34.4475 23.014 34.4418 23.0084L34.4925 22.9577L34.4587 22.8957C34.1374 22.332 34.0247 21.8246 34.0247 21.3906C34.0247 20.4154 34.5827 19.8123 34.5827 19.8066L34.6109 19.7728V19.7277C34.6109 19.7277 34.594 19.6375 34.594 19.4966C34.594 19.0907 34.6898 18.4256 35.231 18.4256C35.6087 18.4256 35.8116 18.7243 35.93 19.0682C36.0427 19.4064 36.054 19.7446 36.054 19.7446V19.7728L36.0709 19.7954C36.0709 19.7954 36.6458 20.5676 36.6458 21.5203C36.6458 21.9656 36.5218 22.4503 36.1498 22.9295L36.1103 22.9802L36.1442 23.0366C36.1442 23.0366 36.5669 23.7468 36.5613 24.7164C36.5613 25.3421 36.3865 26.0749 35.8172 26.802H35.8059Z" fill="white"/>
<path d="M26.1541 50.5117C26.1541 50.5117 26.1204 50.5117 26.1035 50.5173L26.1541 50.5117Z" fill="white"/>
<path d="M26.2625 50.4883C26.2625 50.4883 26.2288 50.4939 26.2119 50.4995L26.2625 50.4883Z" fill="white"/>
<path d="M17.3501 54.145C17.3501 54.145 17.2148 54.0379 16.9442 53.9364C16.6511 53.7617 16.2903 53.4798 16.2114 53.1134C15.6534 50.6839 13.6635 50.3006 13.2408 50.2499C12.9364 48.2093 11.234 48.0628 10.9578 48.0628C10.8958 48.0008 10.7323 47.8486 10.5294 47.7133C10.3547 45.4021 8.79325 44.7088 8.43812 44.5904C8.40994 42.4991 6.92179 42.0369 6.63431 41.9693C6.60613 41.9129 6.54976 41.8114 6.47648 41.693C6.5723 41.3323 6.6174 40.9941 6.6174 40.6784C6.6174 39.1395 5.64221 38.1982 5.40546 37.9952C5.50129 37.6401 5.54075 37.3132 5.54075 37.02C5.54075 35.6052 4.61066 34.9062 4.42464 34.7878C4.40773 34.7258 4.36827 34.6018 4.3119 34.4609C4.58247 33.8408 4.68957 33.2828 4.68957 32.7924C4.68957 31.5466 4.03569 30.7631 3.84404 30.5601C4.12025 30.0077 4.22171 29.5173 4.22171 29.1002C4.22171 28.063 3.58474 27.4824 3.42691 27.3584C3.42127 27.2738 3.40436 27.0822 3.35926 26.8736C3.76512 26.1352 3.91168 25.4644 3.91168 24.9007C3.91168 23.8297 3.40436 23.125 3.24652 22.9278C3.56219 22.3641 3.66929 21.8398 3.66929 21.3889C3.66929 20.4701 3.2127 19.85 3.09433 19.7034C3.09433 19.6583 3.09996 19.5851 3.09996 19.4949C3.09996 19.0946 3.02105 18.2435 2.27134 18.2266C1.35252 18.2604 1.2736 19.478 1.25669 19.6978C1.16087 19.8331 0.664817 20.5828 0.65918 21.5129C0.65918 21.9807 0.788829 22.4937 1.15523 22.9898C1.05376 23.1814 0.738097 23.8466 0.738097 24.7147C0.738097 25.4136 0.946662 26.2535 1.64 27.0596C1.62873 27.178 1.62309 27.2851 1.62309 27.3527C1.62309 27.3866 1.62309 27.4147 1.62309 27.4373C1.53854 27.5782 1.14959 28.2659 1.14959 29.1171C1.14959 29.647 1.30743 30.2445 1.7922 30.7969C1.69637 30.9885 1.42016 31.5804 1.42016 32.3639C1.42016 33.1193 1.6851 34.0437 2.60955 34.8949C2.62083 35.0471 2.64901 35.1655 2.66028 35.2219C2.58701 35.3628 2.33334 35.8983 2.33334 36.586C2.33334 37.2286 2.56446 38.0065 3.38181 38.6717C3.34235 38.8126 3.2578 39.1733 3.2578 39.6356C3.2578 40.4642 3.54528 41.631 4.87559 42.3807C4.93196 42.5611 4.99397 42.7077 5.02215 42.7641C5.01088 42.8317 4.99397 42.9952 4.99397 43.215C4.99397 43.914 5.1969 45.2161 6.60049 45.808C6.62867 46.1969 6.8767 48.2544 9.28366 48.9139C9.41331 49.1338 9.55987 49.2972 9.61624 49.3593C9.63879 49.6411 9.84735 51.5464 11.8315 51.941C11.9837 52.251 12.9195 53.9815 14.9882 53.9872C15.1122 53.9872 15.2362 53.9815 15.3659 53.9702C15.5294 53.9533 15.6816 53.9477 15.8225 53.9477C16.1945 53.9477 16.4764 53.9984 16.6906 54.0604C16.8202 54.1224 16.9555 54.1788 17.0852 54.2352C17.1753 54.2803 17.2374 54.3028 17.2374 54.3028C17.2486 54.3028 17.2599 54.3085 17.2712 54.3085C17.3106 54.3085 17.3445 54.2859 17.3614 54.2465C17.3783 54.207 17.3614 54.1675 17.3275 54.145H17.3501ZM1.56109 19.1341C1.56109 19.1341 1.578 19.0834 1.58363 19.0552C1.70201 18.717 1.90494 18.4126 2.28261 18.4126C2.82939 18.4126 2.91958 19.0777 2.91958 19.4892C2.91958 19.6302 2.90831 19.7203 2.90831 19.7203V19.7654L2.93086 19.7993C2.93086 19.7993 3.48327 20.408 3.48327 21.3832C3.48327 21.8173 3.37054 22.3246 3.04923 22.8883L3.01541 22.9503L3.06614 23.001C3.06614 23.001 3.72566 23.7056 3.72566 24.895C3.72566 25.3798 3.60165 25.9548 3.28598 26.5917C3.16761 26.2648 2.9534 25.9548 2.55318 25.9379C2.53064 25.9379 2.50809 25.9379 2.48554 25.9379C2.46299 25.7011 2.44045 25.47 2.42353 25.2502C2.77866 24.8838 2.94777 24.4215 2.9534 24.4215C2.96468 24.3933 2.9534 24.3595 2.91958 24.3483C2.8914 24.337 2.85758 24.3483 2.8463 24.3821C2.8463 24.3821 2.69974 24.7654 2.41226 25.098C2.3108 23.9142 2.26006 22.9277 2.23752 22.1273C2.56446 21.8567 2.80684 21.3381 2.80684 21.3381C2.81812 21.31 2.80684 21.2761 2.77866 21.2592C2.76175 21.2536 2.75048 21.2536 2.73356 21.2592C2.72229 21.2592 2.70538 21.2761 2.69974 21.2874C2.69974 21.2874 2.49118 21.7214 2.22624 21.9751C2.21497 21.62 2.21497 21.3043 2.21497 21.0337C2.21497 20.1149 2.25443 19.6527 2.25443 19.6527C2.25443 19.6189 2.23188 19.5907 2.20369 19.5907C2.16987 19.5907 2.14169 19.6132 2.14169 19.6414C2.14169 19.6414 2.10223 20.1093 2.10223 21.0337C2.10223 21.3043 2.10223 21.62 2.1135 21.9695C1.98385 21.8455 1.75274 21.6031 1.60054 21.3212C1.59491 21.3043 1.578 21.2987 1.56672 21.293C1.55545 21.293 1.53854 21.293 1.52726 21.293C1.49908 21.31 1.48781 21.3438 1.50472 21.372C1.71328 21.7496 2.04022 22.054 2.12478 22.1273C2.14733 22.9334 2.19806 23.9255 2.29952 25.1092C1.9444 24.8274 1.77529 24.4779 1.76965 24.4779C1.76402 24.461 1.7471 24.4554 1.73583 24.4497C1.72456 24.4497 1.70765 24.4497 1.69074 24.4497C1.66255 24.461 1.65128 24.5005 1.66255 24.5286C1.66255 24.5286 1.87112 24.957 2.3108 25.2671C2.33334 25.4925 2.35025 25.7293 2.37844 25.9717C1.96131 26.0844 1.77529 26.4565 1.70201 26.8059C1.13268 26.0788 0.957936 25.346 0.957936 24.7259C0.957936 23.7507 1.3807 23.0461 1.3807 23.0405L1.41453 22.9841L1.37507 22.9334C1.00303 22.4599 0.879019 21.9751 0.879019 21.5298C0.879019 20.5772 1.45398 19.8105 1.45398 19.8049L1.4709 19.7824V19.7542C1.4709 19.7542 1.48217 19.5174 1.54981 19.2468C1.55545 19.213 1.56672 19.1848 1.578 19.151L1.56109 19.1341ZM2.62083 34.6131C1.85421 33.8352 1.63437 33.0291 1.62873 32.3583C1.62873 31.4733 2.01204 30.8307 2.0064 30.8251L2.04022 30.7631L1.99513 30.7123C1.51035 30.1881 1.35816 29.6244 1.35816 29.1114C1.35816 28.2264 1.82038 27.5106 1.82038 27.5106L1.8373 27.4824V27.4486C1.8373 27.4486 1.8373 27.4091 1.8373 27.3471C1.8373 27.2682 1.8373 27.1554 1.85421 27.0314C1.87675 26.8454 1.92749 26.6256 2.02895 26.4565C2.12478 26.2817 2.27134 26.1521 2.49118 26.1295C2.51373 26.1295 2.53627 26.1239 2.56446 26.1239C2.86321 26.1239 3.0436 26.4114 3.14506 26.7439C3.24652 27.0765 3.2578 27.4091 3.2578 27.4091V27.4542L3.29726 27.4824C3.29726 27.4824 4.04697 28.0179 4.04133 29.0945C4.04133 29.4948 3.93987 29.9683 3.65238 30.5263L3.61856 30.5883L3.67493 30.6391C3.67493 30.6391 4.50919 31.4169 4.50919 32.7811C4.50919 33.2038 4.42464 33.683 4.21044 34.2129C4.0526 33.931 3.81585 33.6604 3.44382 33.6435C3.40436 33.6435 3.35926 33.6548 3.31417 33.6661C3.28598 33.4744 3.25216 33.2828 3.22398 33.0967C3.35926 32.9558 3.45509 32.8036 3.52837 32.6683C3.65238 32.4429 3.69748 32.2568 3.69748 32.2568C3.70311 32.223 3.6862 32.1948 3.65802 32.1892C3.62983 32.1779 3.59601 32.2005 3.59038 32.2287C3.59038 32.2287 3.51146 32.5274 3.30289 32.8205C3.27471 32.86 3.24089 32.9051 3.20707 32.9446C3.02668 31.7608 2.89704 30.7067 2.80121 29.8442C2.94213 29.7315 3.05487 29.5906 3.13942 29.4609C3.28035 29.2467 3.34799 29.0551 3.34799 29.0551C3.35926 29.0269 3.34235 28.9931 3.31417 28.9818C3.28598 28.9705 3.25216 28.9818 3.24089 29.0156C3.24089 29.0156 3.24089 29.0213 3.23525 29.0325C3.20143 29.1171 3.05487 29.4553 2.78993 29.7033C2.63774 28.2772 2.58701 27.3978 2.58701 27.3922C2.58701 27.3584 2.55882 27.3358 2.525 27.3358C2.50809 27.3358 2.49681 27.3471 2.48554 27.3584C2.47427 27.3696 2.46863 27.3809 2.46863 27.3978C2.46863 27.4091 2.51936 28.2941 2.67156 29.7259C2.25443 29.4609 2.09659 29.1171 2.09096 29.1171C2.07405 29.0889 2.04022 29.0776 2.01204 29.0889C1.99513 29.0945 1.98949 29.1058 1.98385 29.1227C1.98385 29.134 1.98385 29.1509 1.98385 29.1678C1.98385 29.1735 2.18115 29.5849 2.68283 29.8724C2.77866 30.7349 2.90831 31.789 3.08869 32.9615C2.71102 32.7247 2.49118 32.4034 2.48554 32.4034C2.46863 32.3752 2.42917 32.3696 2.40662 32.3865C2.38408 32.4034 2.37844 32.4372 2.39535 32.4654C2.39535 32.4654 2.66028 32.8487 3.11688 33.108C3.14506 33.294 3.17888 33.4857 3.20707 33.683C3.09433 33.7224 3.00414 33.7788 2.93086 33.8465C2.71102 34.0437 2.63774 34.3425 2.62646 34.6018L2.62083 34.6131ZM4.82486 42.1158C3.70875 41.4056 3.46636 40.3966 3.46073 39.6356C3.46073 39.0719 3.59601 38.666 3.59601 38.666L3.61856 38.604L3.56783 38.5646C2.75611 37.9219 2.54191 37.2004 2.54191 36.5916C2.54191 35.8532 2.86321 35.2951 2.86321 35.2895L2.88012 35.2557L2.86885 35.2162C2.86885 35.2162 2.80684 34.9851 2.80684 34.7089C2.80684 34.4496 2.85758 34.179 3.0436 34.0043C3.1056 33.9479 3.17888 33.9028 3.27471 33.8746C3.33671 33.8521 3.38745 33.8465 3.44382 33.8465C3.96805 33.8126 4.26117 34.8724 4.26117 34.8724V34.9118L4.30626 34.9344C4.30626 34.9344 5.36037 35.5657 5.36037 37.0257C5.36037 37.3188 5.32091 37.6457 5.21381 38.0065L5.1969 38.0685L5.24763 38.108C5.24763 38.108 6.43702 39.0437 6.43702 40.684C6.43702 40.9321 6.39756 41.2083 6.33555 41.4901C6.1439 41.259 5.87896 41.0335 5.54639 41.0223C5.48438 41.0223 5.42237 41.0335 5.35473 41.0504C5.29836 40.8982 5.23636 40.7404 5.17999 40.5882C5.42801 40.0922 5.44492 39.6243 5.44492 39.6187C5.44492 39.5848 5.42237 39.5623 5.38855 39.5623C5.37164 39.5623 5.36037 39.5623 5.34909 39.5792C5.33782 39.5905 5.33218 39.6017 5.33218 39.6187C5.33218 39.6187 5.33218 39.6412 5.33218 39.6863C5.33218 39.7258 5.32091 39.7821 5.30964 39.8498C5.30964 39.8554 5.30964 39.861 5.30964 39.8667C5.30964 39.878 5.30964 39.8892 5.304 39.9005C5.27581 40.0471 5.22508 40.2387 5.13489 40.436C4.74594 39.3594 4.44155 38.356 4.21044 37.5105C4.51483 37.0877 4.5712 36.5973 4.5712 36.5916C4.5712 36.5578 4.54865 36.5353 4.52047 36.5296C4.50356 36.5296 4.48665 36.5296 4.47537 36.5409C4.4641 36.5522 4.45846 36.5635 4.45282 36.5804C4.45282 36.5804 4.40209 36.9862 4.16534 37.3583C3.79331 35.9603 3.62983 35.0358 3.62983 35.0358C3.6242 35.002 3.59601 34.9851 3.56219 34.9907C3.54528 34.9907 3.53401 35.002 3.52273 35.0133C3.5171 35.0246 3.51146 35.0415 3.51146 35.0584C3.51146 35.0584 3.67493 35.9885 4.0526 37.3921C3.66366 37.1835 3.38181 36.8904 3.38181 36.8904C3.35926 36.8678 3.32544 36.8678 3.30289 36.8904C3.28035 36.9129 3.28035 36.9468 3.30289 36.9693C3.30289 36.9693 3.63547 37.3244 4.0977 37.5386C4.32881 38.3842 4.63321 39.3875 5.02215 40.4698C4.64448 40.2782 4.357 40.002 4.357 40.002C4.33445 39.9794 4.30063 39.9794 4.27808 40.002C4.25553 40.0245 4.25553 40.0583 4.27808 40.0809C4.27808 40.0809 4.31754 40.1147 4.37391 40.1654C4.40209 40.1936 4.44155 40.2218 4.48101 40.2556C4.49792 40.2725 4.51483 40.2838 4.53738 40.3007C4.59938 40.3458 4.66703 40.3966 4.74594 40.4473C4.75722 40.4529 4.77413 40.4642 4.7854 40.4698C4.86996 40.5206 4.96578 40.5713 5.06725 40.6164C5.07289 40.6164 5.07852 40.622 5.08416 40.6277C5.14053 40.7799 5.1969 40.9321 5.2589 41.0899C5.24763 41.0899 5.24199 41.0899 5.23072 41.1012C5.1518 41.1406 5.08416 41.1914 5.03343 41.2421C4.86996 41.4056 4.81359 41.631 4.81359 41.8452C4.81359 41.9354 4.82486 42.0313 4.84177 42.1158H4.82486ZM6.80342 45.746V45.684L6.74141 45.6614C5.38855 45.1259 5.1969 43.9027 5.1969 43.2263C5.1969 42.9501 5.23072 42.7753 5.23072 42.7753V42.7415H5.23636L5.21944 42.7133C5.21944 42.7133 4.98833 42.2567 4.98833 41.8452C4.98833 41.5972 5.06161 41.3887 5.29836 41.2703C5.38292 41.2252 5.46183 41.2083 5.53511 41.2083C5.7775 41.197 6.00298 41.3999 6.17208 41.6198C6.32992 41.8171 6.43702 42.0143 6.47084 42.0707C6.47084 42.082 6.48211 42.0933 6.48211 42.0933L6.50466 42.1384L6.55539 42.1496C6.55539 42.1496 8.24083 42.4202 8.24647 44.6581V44.737L8.31975 44.7595C8.31975 44.7595 10.0728 45.233 10.3209 47.5949C10.1461 47.4991 9.94882 47.4314 9.74589 47.4258C9.60497 47.4258 9.46404 47.4652 9.34003 47.5554C9.22729 47.4427 9.11455 47.3187 8.99618 47.189C8.99618 46.569 8.93981 46.118 8.93981 46.118C8.93981 46.0842 8.90599 46.0673 8.8778 46.0673C8.84398 46.0673 8.82143 46.1011 8.82707 46.1293C8.82707 46.1349 8.87217 46.507 8.88344 47.0425C8.88344 47.0425 8.88344 47.0425 8.88344 47.0481C8.28593 46.3379 7.68278 45.4472 7.17545 44.6242C7.22055 44.3649 7.23746 44.1169 7.23746 43.9253C7.23746 43.7054 7.22055 43.5645 7.22055 43.5589C7.22055 43.525 7.18673 43.5025 7.15854 43.5081C7.12472 43.5081 7.10217 43.542 7.10781 43.5701C7.10781 43.5701 7.12472 43.7111 7.12472 43.9196C7.12472 44.0718 7.11345 44.2635 7.08526 44.4608C6.3581 43.2657 5.83387 42.2567 5.83387 42.2567C5.81696 42.2286 5.78314 42.2173 5.75495 42.2342C5.73804 42.2398 5.7324 42.2567 5.72677 42.268C5.72677 42.2849 5.72677 42.2962 5.72677 42.3131C5.72677 42.3131 6.251 43.3278 6.98944 44.5341C6.38629 44.3988 6.13263 44.2635 6.13263 44.2691C6.10444 44.2522 6.07062 44.2691 6.05371 44.2917C6.04807 44.3086 6.04807 44.3198 6.05371 44.3368C6.05371 44.348 6.06498 44.3649 6.08189 44.3706C6.08189 44.3706 6.38065 44.5284 7.07963 44.6693C7.59259 45.5036 8.20137 46.4055 8.81016 47.127C8.38175 47.0425 7.93644 46.9128 7.93644 46.9128C7.90825 46.9016 7.87443 46.9241 7.86316 46.9523C7.85188 46.9805 7.87443 47.0143 7.90262 47.0256C7.90262 47.0256 8.45503 47.189 8.92854 47.268C9.04127 47.3976 9.15401 47.5216 9.26675 47.6344C9.11455 47.7866 9.05255 47.9726 9.05818 48.1586C9.05818 48.339 9.11455 48.5193 9.18783 48.6885C8.60159 48.5024 8.15628 48.2262 7.82934 47.9162C6.8316 46.9861 6.82033 45.7573 6.82033 45.7573L6.80342 45.746ZM16.3411 53.7109C16.2453 53.6602 16.1551 53.6039 16.0649 53.5531C15.7379 53.3727 15.4279 53.1867 15.1179 52.9894C14.9544 52.8823 14.7853 52.7809 14.6275 52.6681C14.5993 52.1439 14.4076 51.7324 14.4076 51.7268C14.402 51.7098 14.3851 51.6986 14.3738 51.6986C14.3625 51.6986 14.3456 51.6986 14.3287 51.6986C14.3005 51.7155 14.2892 51.7493 14.3005 51.7775C14.3005 51.7775 14.4584 52.127 14.5034 52.5779C13.5903 51.9297 12.7785 51.2251 12.119 50.5881C12.1247 50.5092 12.1303 50.4303 12.1303 50.3626C12.1303 49.8158 11.933 49.4833 11.933 49.4776C11.9274 49.4664 11.9105 49.4551 11.8992 49.4494C11.8823 49.4494 11.871 49.4494 11.8541 49.4551C11.8259 49.472 11.8146 49.5058 11.8315 49.534C11.8315 49.534 12.0176 49.8384 12.0176 50.357C12.0176 50.3964 12.0176 50.4359 12.0119 50.4754C10.9071 49.3987 10.2363 48.5532 10.2363 48.5475C10.225 48.5363 10.2138 48.525 10.1968 48.525C10.1799 48.525 10.1687 48.525 10.1574 48.5363C10.1348 48.5588 10.1292 48.5926 10.1461 48.6208C10.1461 48.6208 10.8113 49.4663 11.9105 50.5374H11.8992C11.2566 50.5374 11.0931 50.4246 11.0875 50.4303C11.0593 50.4134 11.0255 50.4246 11.0086 50.4528C10.9916 50.481 11.0029 50.5148 11.0255 50.5317C11.0255 50.5317 11.0311 50.5317 11.0367 50.5374C11.0931 50.5655 11.313 50.6501 11.8936 50.6501C11.933 50.6501 11.9781 50.6501 12.0176 50.6501C12.6827 51.2871 13.4944 51.9973 14.4133 52.6512C14.3005 52.6681 14.1934 52.6794 14.1032 52.6794C13.8214 52.6794 13.6523 52.623 13.6523 52.623C13.6185 52.6118 13.5903 52.6287 13.579 52.6625C13.5677 52.6907 13.5846 52.7245 13.6185 52.7358C13.6185 52.7358 13.8101 52.7978 14.1032 52.7978C14.2329 52.7978 14.3851 52.7865 14.5485 52.7527C15.0784 53.1247 15.6477 53.4742 16.234 53.7842C16.11 53.773 15.9803 53.7617 15.8338 53.7617C15.6872 53.7617 15.5294 53.7673 15.3603 53.7842C15.2362 53.7955 15.1179 53.8011 14.9995 53.8011C14.3343 53.8011 13.7932 53.6095 13.3592 53.3446C12.4122 52.7583 12.0007 51.8226 11.995 51.8226L11.9725 51.7775L11.9217 51.7719C11.5384 51.7042 11.2284 51.5746 10.9691 51.4111C9.85863 50.7008 9.81353 49.3311 9.81353 49.3254V49.286L9.78535 49.2578C9.78535 49.2578 9.59933 49.0549 9.44713 48.7899C9.32876 48.5926 9.22729 48.3615 9.23293 48.1473C9.23293 48.0008 9.27239 47.8767 9.39076 47.7584C9.49786 47.6456 9.61624 47.6062 9.75153 47.6062C9.8699 47.6062 9.99955 47.64 10.1292 47.6964C10.2588 47.7527 10.3829 47.8316 10.49 47.9106C10.5576 47.9613 10.614 48.0064 10.6647 48.0458C10.7549 48.1191 10.8169 48.1811 10.8395 48.2037C10.8451 48.2093 10.8564 48.2206 10.8564 48.2206L10.9015 48.2657L10.9466 48.2488C11.0029 48.2488 11.1438 48.2601 11.3299 48.2995C11.8936 48.4179 12.8687 48.8407 13.066 50.3457L13.0773 50.4246H13.1562C13.1562 50.4246 13.2971 50.4359 13.5226 50.4866C14.1934 50.6445 15.5801 51.2082 16.0311 53.1473C16.0818 53.3615 16.2002 53.5418 16.3467 53.694L16.3411 53.7109Z" fill="white"/>
<path d="M5.32133 39.6758C5.32133 39.7152 5.31008 39.7714 5.29883 39.8389L5.32133 39.6758Z" fill="white"/>
<path d="M5.29273 39.8594C5.29273 39.8594 5.29273 39.8819 5.28711 39.8931L5.29273 39.8594Z" fill="white"/>
<path d="M58.3877 22.0388V36.847H54.1206V22.0388H49.4307V18.668H63.0776V22.0388H58.3877Z" fill="white"/>
<path d="M73.6916 37.1628C68.2915 37.1628 64.0469 33.6567 64.0469 27.783C64.0469 21.9093 68.2915 18.375 73.6916 18.375C79.0918 18.375 83.3364 21.9037 83.3364 27.783C83.3364 33.6623 79.0918 37.1628 73.6916 37.1628ZM73.6916 22.0164C70.659 22.0164 68.3704 24.2036 68.3704 27.6816C68.3704 31.1595 70.6646 33.3748 73.6916 33.3748C76.7187 33.3748 79.0129 31.1595 79.0129 27.6816C79.0129 24.2036 76.7187 22.0164 73.6916 22.0164Z" fill="white"/>
<path d="M87.0449 36.847V18.668H91.2895V33.3183H97.586V36.847H87.0449Z" fill="white"/>
<path d="M100.827 36.847V18.668H105.072V33.3183H111.368V36.847H100.827Z" fill="white"/>
<path d="M114.604 36.847V18.668H126.38V22.067H118.843V25.7818H124.892V29.1808H118.843V33.3972H126.617V36.847H114.604Z" fill="white"/>
<path d="M137.969 22.0388V36.847H133.702V22.0388H129.012V18.668H142.659V22.0388H137.969Z" fill="white"/>
<path d="M155.624 36.8479L154.333 33.1839H147.851L146.56 36.8479H142.135L148.984 18.6406H153.409L160.257 36.8479H155.618H155.624ZM151.092 23.3305L148.826 29.8637H153.358L151.092 23.3305Z" fill="white"/>
<path d="M168.426 22.0388V36.847H164.159V22.0388H159.469V18.668H173.116V22.0388H168.426Z" fill="white"/>
<path d="M176.192 36.847V18.668H187.968V22.067H180.431V25.7818H186.48V29.1808H180.431V33.3972H188.205V36.847H176.192Z" fill="white"/>
<path d="M204.225 36.8488L196.243 24.5152C196.243 24.5152 196.322 26.7023 196.322 28.6245V36.8431H192.156V18.6641H196.717L204.512 30.8905C204.512 30.8905 204.433 28.8331 204.433 26.9109V18.6641H208.599V36.8431H204.225V36.8488Z" fill="white"/>
<path d="M57.1865 52.3668L51.4988 44.5089C51.4988 44.5089 51.527 45.8392 51.527 47.1244V52.3668H50.1572V42.5078H51.6172L57.2034 50.2529C57.2034 50.2529 57.1921 49.0354 57.1921 47.7389V42.5078H58.5506V52.3668H57.1921H57.1865Z" fill="white"/>
<path d="M65.6927 52.5379C62.9193 52.5379 60.6025 50.6101 60.6025 47.4478C60.6025 44.2855 62.9193 42.3633 65.6927 42.3633C68.466 42.3633 70.7772 44.2911 70.7772 47.4478C70.7772 50.6045 68.4604 52.5379 65.6927 52.5379ZM65.6927 43.5639C63.6747 43.5639 62.0174 45.007 62.0174 47.4196C62.0174 49.8322 63.6916 51.2809 65.6927 51.2809C67.6938 51.2809 69.3623 49.8266 69.3623 47.4196C69.3623 45.0126 67.7051 43.5639 65.6927 43.5639Z" fill="white"/>
<path d="M77.8401 52.3668L75.2697 48.1222H74.2099V52.3668H72.8232V42.5078H75.6079C77.3666 42.5078 78.9393 43.3195 78.9393 45.2812C78.9393 47.0117 77.7386 47.784 76.6958 47.9813L79.5086 52.3668H77.8345H77.8401ZM76.8818 43.9903C76.4365 43.6634 75.9123 43.6352 75.2246 43.6352H74.2099V46.9779H75.2246C75.9123 46.9779 76.4421 46.9497 76.8818 46.634C77.3271 46.3071 77.5132 45.9069 77.5132 45.3037C77.5132 44.7006 77.3271 44.306 76.8818 43.9903Z" fill="white"/>
<path d="M90.388 52.3798H89.0295L86.6563 44.4035L84.3001 52.3798H82.9416L80.1006 42.5039H81.5606L83.6913 50.2772L85.963 42.5039H87.3778L89.6495 50.2772L91.7803 42.5039H93.2402L90.3992 52.3798H90.388Z" fill="white"/>
<path d="M95.1055 52.3668V42.5078H100.878V43.6634H96.4921V46.6059H100.635V47.7783H96.4921V51.1943H100.996V52.3668H95.1055Z" fill="white"/>
<path d="M107.597 52.5379C104.785 52.5379 102.569 50.5086 102.569 47.4365C102.569 44.3644 104.785 42.3633 107.586 42.3633C110.117 42.3633 111.199 43.6936 111.571 44.0769L110.63 44.9506C110.044 44.2629 109.131 43.547 107.586 43.547C105.557 43.547 104.001 45.007 104.001 47.4365C104.001 49.866 105.619 51.326 107.671 51.326C109.723 51.326 110.444 50.4241 110.444 50.4241V48.2369H107.783V47.1096H111.786V50.937C111.6 51.123 110.399 52.5379 107.597 52.5379Z" fill="white"/>
<path d="M114.085 52.3668V42.5078H115.472V52.3668H114.085Z" fill="white"/>
<path d="M125.004 52.3676L123.989 49.7972H119.762L118.747 52.3676H117.287L121.301 42.4805H122.513L126.543 52.3676H124.998H125.004ZM121.876 44.2054L120.145 48.636H123.606L121.876 44.2054Z" fill="white"/>
<path d="M135.409 52.3668L129.721 44.5089C129.721 44.5089 129.75 45.8392 129.75 47.1244V52.3668H128.38V42.5078H129.84L135.426 50.2529C135.426 50.2529 135.409 49.0354 135.409 47.7389V42.5078H136.768V52.3668H135.409Z" fill="white"/>
<path d="M147.699 52.5379C144.824 52.5379 142.671 50.5255 142.671 47.4478C142.671 44.37 144.886 42.3633 147.716 42.3633C149.559 42.3633 150.675 43.1355 151.216 43.6654L150.63 44.7815C150.247 44.2967 149.142 43.5809 147.772 43.5809C145.642 43.5809 144.103 45.1085 144.103 47.4252C144.103 49.742 145.658 51.2696 147.772 51.2696C149.074 51.2696 150.072 50.7679 150.715 50.0689L151.312 51.0836C150.698 51.7713 149.57 52.5436 147.699 52.5436V52.5379Z" fill="white"/>
<path d="M159.806 51.3352C159.135 52.1075 158.149 52.5359 156.847 52.5359C155.545 52.5359 154.547 52.1075 153.887 51.3352C153.2 50.5348 153.087 49.5652 153.087 48.3364V42.5078H154.485V48.2124C154.485 49.041 154.496 49.8414 154.941 50.4277C155.342 50.9688 155.984 51.3014 156.841 51.3014C157.698 51.3014 158.329 50.9745 158.741 50.4277C159.18 49.8414 159.197 49.0241 159.197 48.2124V42.5078H160.584V48.3364C160.584 49.5652 160.471 50.5348 159.8 51.3352H159.806Z" fill="white"/>
<path d="M165.635 52.5345C163.905 52.5345 162.918 51.4183 162.45 50.8772L163.268 49.9471C163.769 50.6179 164.699 51.362 165.77 51.362C166.841 51.362 167.698 50.7476 167.698 49.7047C167.698 48.6619 166.599 48.2786 166.097 48.0757C165.584 47.8784 164.897 47.6022 164.525 47.4161C163.51 46.9426 162.896 46.1591 162.896 45.0035C162.896 43.2448 164.496 42.3711 166.069 42.3711C167.642 42.3711 168.628 43.3576 168.899 43.645L168.172 44.5864C167.687 44.0734 166.971 43.5267 166.001 43.5267C165.032 43.5267 164.288 43.9833 164.288 44.8964C164.288 45.8096 164.959 46.1535 165.562 46.3959L167.377 47.1512C168.392 47.6247 169.09 48.4364 169.09 49.6089C169.09 51.5254 167.377 52.5232 165.646 52.5232L165.635 52.5345Z" fill="white"/>
<path d="M174.727 43.6634V52.3668H173.34V43.6634H170.556V42.5078H177.5V43.6634H174.727Z" fill="white"/>
<path d="M183.014 52.5379C180.241 52.5379 177.924 50.6101 177.924 47.4478C177.924 44.2855 180.241 42.3633 183.014 42.3633C185.787 42.3633 188.098 44.2911 188.098 47.4478C188.098 50.6045 185.782 52.5379 183.014 52.5379ZM183.014 43.5639C180.996 43.5639 179.339 45.007 179.339 47.4196C179.339 49.8322 181.013 51.2809 183.014 51.2809C185.015 51.2809 186.684 49.8266 186.684 47.4196C186.684 45.0126 185.026 43.5639 183.014 43.5639Z" fill="white"/>
<path d="M198.966 52.3668L198.323 44.5766H198.278L195.262 52.4513H194.479L191.463 44.5766H191.418L190.787 52.3668H189.417L190.302 42.5078H192.016L194.862 50.1233H194.89L197.731 42.5078H199.434L200.336 52.3668H198.966Z" fill="white"/>
<path d="M205.155 52.5345C203.424 52.5345 202.438 51.4183 201.97 50.8772L202.787 49.9471C203.289 50.6179 204.219 51.362 205.29 51.362C206.361 51.362 207.218 50.7476 207.218 49.7047C207.218 48.6619 206.118 48.2786 205.617 48.0757C205.104 47.8784 204.416 47.6022 204.044 47.4161C203.029 46.9426 202.415 46.1591 202.415 45.0035C202.415 43.2448 204.016 42.3711 205.589 42.3711C207.161 42.3711 208.148 43.3576 208.418 43.645L207.691 44.5864C207.206 44.0734 206.491 43.5267 205.521 43.5267C204.551 43.5267 203.807 43.9833 203.807 44.8964C203.807 45.8096 204.478 46.1535 205.081 46.3959L206.896 47.1512C207.911 47.6247 208.61 48.4364 208.61 49.6089C208.61 51.5254 206.896 52.5232 205.166 52.5232L205.155 52.5345Z" fill="white"/>
</g>
<defs>
<clipPath id="clip0_453_1718">
<rect width="207.923" height="54.0975" fill="white" transform="translate(0.675781 0.21875)"/>
</clipPath>
</defs>
</svg>
