<svg id="Layer_1" data-name="Layer 1" xmlns="http://www.w3.org/2000/svg" width="377.13247" height="96.00002" viewBox="0 0 377.13247 96.00002">
  <defs>
    <style>
      .cls-1 {
        fill: #fff;
      }
    </style>
  </defs>
  <g id="Page-1">
    <g id="_04_UiO_full_logo_NO_neg" data-name=" 04 UiO full logo NO neg">
      <g id="Group">
        <path id="Shape" class="cls-1" d="M0,48.00208A47.80968,47.80968,0,0,1,10.95816,17.46924h0A47.90083,47.90083,0,0,1,47.99377,0h0A48.00506,48.00506,0,0,1,95.99585,48.00208h0A48.00153,48.00153,0,0,1,47.99377,96h0A47.99708,47.99708,0,0,1,0,48.00208Zm.71286,0a47.12741,47.12741,0,0,0,13.85107,33.434h0A47.125,47.125,0,0,0,47.9938,95.28714h0A47.13709,47.13709,0,0,0,81.432,81.43607h0A47.12741,47.12741,0,0,0,95.283,48.00208h0A47.13456,47.13456,0,0,0,81.432,14.56808h0A47.13716,47.13716,0,0,0,47.9938.71707h0A47.18331,47.18331,0,0,0,11.5094,17.9252h0A47.09135,47.09135,0,0,0,.71286,48.00214Z" transform="translate(0.00006 0.00002)"/>
        <g id="Path">
          <path class="cls-1" d="M10.54373,67.47311a1.13525,1.13525,0,1,1-.00009.00779Z" transform="translate(0.00006 0.00002)"/>
          <path class="cls-1" d="M82.78308,68.15283a1.13527,1.13527,0,1,1-.00009.00781Z" transform="translate(0.00006 0.00002)"/>
        </g>
        <path id="Shape-2" class="cls-1" d="M80.82684,34.21317A35.541,35.541,0,1,0,34.24222,80.78952a35.07394,35.07394,0,0,0,4.04922,1.42987l.0373.01245a20.33705,20.33705,0,0,0,2.093.52634,35.74258,35.74258,0,0,0,7.65912.82477,36.20671,36.20671,0,0,0,4.70407-.3067h.01242a8.439,8.439,0,0,0,1.96036-.31913A35.36024,35.36024,0,0,0,73.20505,73.176l-.25281-.25281.25281.25281A35.60988,35.60988,0,0,0,80.82684,34.2132Zm-54.795,40.7864a.32546.32546,0,0,1-.09946-.31085,1.66548,1.66548,0,0,1,.07462-.1492,5.693,5.693,0,0,1,.6134-.87036A12.55928,12.55928,0,0,0,29.762,77.66452a34.09024,34.09024,0,0,1-3.7301-2.66492Zm-.29422-21.0708a2.41956,2.41956,0,0,1,.86206,1.749,1.73629,1.73629,0,0,1-.04559.39374c-.01245.0456-.02072.07874-.029.09946l-.00415.01242a1.24,1.24,0,0,1-1.13559.58853,2.08467,2.08467,0,0,1-.42688-.04559c-1.38013-.26941-2.74784-.804-3.87516-.945-.01657-.00415-.04144,0-.06216-.00415l2.71054-3.71765C24.61862,52.876,25.38531,53.5889,25.73761,53.92877Zm-5.678-6.19607,17.664-17.863L27.13431,54.73279a3.62969,3.62969,0,0,0-.89936-1.318c-.99053-.96148-5.0729-4.67913-6.17532-5.68212Zm4.75794,9.69409a3.0987,3.0987,0,0,0,.56366.058,2.03676,2.03676,0,0,0,1.3677-.48077,1.63515,1.63515,0,0,0,.41031-.51392v-.00827c0-.00415.00415-.0083.0083-.02072l.02072-.04559,10.86286-25.406a6.53781,6.53781,0,0,0,.12017.65482A17.61756,17.61756,0,0,0,39.684,38.05109a14.32876,14.32876,0,0,0,1.119,2.04327c.1575.24039.29425.431.39786.56781.03317.04559.06631.087.09118.12018l-2.53228,8.749a.3542.3542,0,0,0,.12017.37714l.60511.48077a.21058.21058,0,0,1,.04144.2031c-.03729.13263-2.8183,10.4028-2.8183,10.4028L27.872,71.14105A27.68946,27.68946,0,0,1,22.766,64.88278c-2.209-3.42752-2.868-5.591-2.86389-6.8219a1.90845,1.90845,0,0,1,.33572-1.2185l.0083-.0083.0083-.01242c.01246-.01246.02073-.029.03318-.04145a.878.878,0,0,1,.63827-.30255.33542.33542,0,0,1,.06632.00415c.98221.12433,2.37063.65482,3.82534.94495ZM43.555,20.03479a.35191.35191,0,0,0-.43933-.22379c.1575-.14093.31085-.27352.46-.402l1.53348-.19895a.35755.35755,0,1,0-.09143-.70923l-.00388.00052-.23208.03318a10.963,10.963,0,0,1,1.376-.67557c.27352-.11191.50561-.19895.67141-.257.16577-.05389.25281-.08289.257-.08289a.35209.35209,0,0,0,.243-.43457l-.00265-.00891a.36226.36226,0,0,0-.44348-.24038,11.34339,11.34339,0,0,0-1.38013.53048.357.357,0,0,0-.58438-.41031L44.09793,18.12c-.07458.04974-.1492.09533-.21966.145-.10361.07458-.21967.16165-.344.2611l.08289-.16165a.35683.35683,0,0,0-.63413-.32742l-.89938,1.749c-.22379.20725-.431.402-.60925.572a4.51721,4.51721,0,0,1,1.32626-3.36123,4.07577,4.07577,0,0,1,2.59448-.9574,7.12745,7.12745,0,0,1,1.11487.11191c.15335.02072.70456.15335,1.18118.27353.48078.12432.916.23623.916.24038l.09118.01242a1.26281,1.26281,0,0,1,.92838.27768.7582.7582,0,0,1,.19894.54294,1.11806,1.11806,0,0,1-.16162.53464c-.03317.058-.06216.09945-.087.1409l-2.665.29428a.37463.37463,0,0,0-.24454.13675L44.989,20.818l-.82061.00415-.07459.0083a.84977.84977,0,0,0-.34814.17823.92809.92809,0,0,0-.32743.746,1.95188,1.95188,0,0,0,.48078,1.38843c.02487.029.05389.05389.07873.07873L42.88364,24.316a2.25359,2.25359,0,0,1-.70459-.32327,1.69319,1.69319,0,0,1-.73358-1.17707,5.70078,5.70078,0,0,1-.07459-.86206,2.75753,2.75753,0,0,1,.04559-.53878l.01242-.00827s.16166-.15751.41031-.39789l1.50861-.51392a.37585.37585,0,0,0,.20718-.46Zm5.45838,2.72711a.19592.19592,0,0,1-.087.16577.36385.36385,0,0,0-.17822.25281.42.42,0,0,0,.087.29425.12169.12169,0,0,1-.0083.11191c-.02487.04144-.07046.12433-.07046.12433a.34616.34616,0,0,0-.029.286l.00415.01245a1.114,1.114,0,0,1,.03729.28183.39858.39858,0,0,1-.19479.32742,1.86864,1.86864,0,0,1-.65482.11191l-.7543-.01657a.35321.35321,0,0,0-.35642.29013,1.34423,1.34423,0,0,0-.02072.26111,1.68508,1.68508,0,0,0,.18652.78747,1.31059,1.31059,0,0,0,.24866.33158l.00415.00415h0L48.49536,27.81l-3.29077.22381L42.9624,26.2807c.11191-.05386.17407-.087.17407-.087a.35506.35506,0,0,0,.19895-.31913V24.83844l1.43817-1.44229a.36677.36677,0,0,0,.09531-.33985.351.351,0,0,0-.24454-.2528h0c-.06632-.0456-.49735-.18238-.50977-1.06516a.23616.23616,0,0,1,.07047-.19894.22891.22891,0,0,0,.03317-.02487l.93665-.0083a.35533.35533,0,0,0,.28183-.1409s1.49618-1.98108,1.59979-2.10544a.40731.40731,0,0,1,.26111-.1409l2.02667-.21967a.12216.12216,0,0,1,.12021.12021c.01657.18649.03729.41446.06216.66312a.12519.12519,0,0,1-.102.14477l-.00164.00028c-.257.0083-.52637.01657-.81232.02487a1.48147,1.48147,0,0,0-.84134.33157.36017.36017,0,0,0-.03772.508l.02115.02252a1.33914,1.33914,0,0,0,.4559.16577,1.563,1.563,0,0,0,.65485.12433.39178.39178,0,0,0,.2528-.38129.30824.30824,0,0,1,.29709-.319c.006-.00021.01194-.00024.01792-.00012a.1433.1433,0,0,1,.13678.13263c.03729.35642.09945.804.12433,1.061.01245.12432.02072.24038.029.33987.00415.12848-.10776.13678-.1658.14505-.12018.01657-.21137.01657-.21137.02072a.34132.34132,0,0,0-.24866.12018.35514.35514,0,0,0-.09118.26111Zm-4.13626,5.9267a.35185.35185,0,0,0,.21966.07461h.02487l4.15284-.28183a.35162.35162,0,0,0,.3067-.22381.36144.36144,0,0,0-.06217-.373l-.746-.83719c.43518.13263.80817.24866,1.0983.3357a2.51335,2.51335,0,0,1,.974.88278,8.219,8.219,0,0,1,.82476,1.34283,21.92191,21.92191,0,0,1-.58023,2.19248l-1.84018,1.3967-4.00778-2.69809a20.25244,20.25244,0,0,0-2.03082-2.55719,2.55493,2.55493,0,0,0-1.81946-.65482c-.12433,0-.24866.0083-.373.02072.17407-.09533.35229-.19064.52221-.28183.26111-.13678.51392-.26938.73358-.38543Zm-3.49384-.68384a1.8737,1.8737,0,0,1,1.318.44348,14.84326,14.84326,0,0,1,1.34284,1.6081c.38128.51391.63827.89938.63827.9035a.286.286,0,0,0,.09946.09946L49.059,33.93976a.34823.34823,0,0,0,.41446-.01245l5.44592-4.14038.02487-.02073s.12018-.10775.27768-.24038a5.10034,5.10034,0,0,1,.47663-.36472A5.82962,5.82962,0,0,1,57.949,28.241c.06631-.00415.13263-.00415.19479-.00415a1.47042,1.47042,0,0,1,.775.15335c.12848.09118.18653.16577.199.43518,0,.43518.00827,1.07757.00827,1.07757a.32318.32318,0,0,0,.29428.31913c.13263,0,.315.03729.315.24453a.252.252,0,0,1-.22009.2804l-.01615.00143c-.12847.01657-.2528.03315-.30255.0373h-.33572l-.09119.01242s-.46.12021-.95324.23623c-.24451.058-.50147.12018-.70871.16165-.10361.02073-.1948.04145-.26526.0539-.03318.00415-.06217.0083-.08289.01242s-.02487,0-.02487.00415c-.315,0-.80405.05389-.81235.05389a.36669.36669,0,0,0-.25281.1492c0,.00415-.6051.85791-1.3594,1.865a30.94012,30.94012,0,0,1-2.25464,2.76029c-.60925.60925-1.11075,1.06927-1.463,1.376-.10776.09533-.2031.17407-.28183.24038a.24766.24766,0,0,1-.24039.0373c-.52222-.21552-1.63708-.66312-2.97992-1.23508-1.87335-.7999-4.19427-1.84018-5.95157-2.781A5.79367,5.79367,0,0,1,39.655,32.63c-.0539-.058-.10776-.12018-.16165-.18238a.72131.72131,0,0,0-.04975-.058c-.04144-.04975-.07873-.09946-.11606-.14505-.029-.03729-.05389-.07874-.08288-.116a.87827.87827,0,0,1-.06632-.10361c-.02487-.03729-.04974-.07873-.07458-.12017a.30823.30823,0,0,0-.029-.04975,2.22887,2.22887,0,0,1-.12848-.26526c-.00415-.01242-.01242-.02487-.01657-.03729-.02072-.05389-.04145-.10776-.058-.16165h0v-.00415a2.36745,2.36745,0,0,1-.07873-.29425c-.00827-.04144-.01657-.087-.02487-.12848l-.01242-.09946a2.501,2.501,0,0,1-.01658-.25281c0-.058.00416-.1119.00827-.16992.00416-.04559.00831-.0953.01658-.14505v-.02487a2.8182,2.8182,0,0,1,.07458-.35229h0c.02072-.07047.04144-.14505.07047-.21967l.00415-.01242c.02487-.06631.05386-.14093.08288-.21136l.01242-.029q.04473-.1019.09946-.19894a.45494.45494,0,0,0,.02487-.04559c.04559-.07874.09119-.16166.1409-.24454h0a2.57445,2.57445,0,0,1,2.10959-.95343Zm11.182-5.44177c0-.1575.05386-.18237.08288-.17822a1.60719,1.60719,0,0,1,1.032.547,1.47957,1.47957,0,0,1,.228.38959c.02072.0539.03314.09534.04145.12433.00415.01242.00415.02487.0083.029h0a.35991.35991,0,0,0,.35229.2984H61.273a.35338.35338,0,0,0,.3523-.30255.98462.98462,0,0,1,.286-.47247,1.78853,1.78853,0,0,1,1.04858-.43518c.07462-.01657.087.058.087.12433,0,.73773-.02488,2.27536-.02488,4.50509a15.29635,15.29635,0,0,0,.916,4.73307,15.07484,15.07484,0,0,1,.88278,4.73306,7.0499,7.0499,0,0,1-.55121,2.77685,3.73607,3.73607,0,0,0-.73773-.32742.61751.61751,0,0,0-.1492-.02072,1.14652,1.14652,0,0,0-.6424.26111,1.17476,1.17476,0,0,0-.4103.4642.605.605,0,0,0-.04145.21967.97318.97318,0,0,0,.12018.431c-.07458.06216-.16165.13262-.24866.21136a3.711,3.711,0,0,0-.33987.33572,1.15542,1.15542,0,0,0-.257.40616,1.13877,1.13877,0,0,0-.05389.3357,1.38788,1.38788,0,0,0,.16165.6217,8.064,8.064,0,0,1-4.06995.99884,6.94423,6.94423,0,0,1-5.2221-2.006A6.16994,6.16994,0,0,1,50.804,38.23337c.35229-.2984.96981-.84134,1.75314-1.62467.13263-.13263.27768-.29013.431-.4642a4.44616,4.44616,0,0,0,1.40915,2.19663,5.419,5.419,0,0,0,3.35293,1.23507.36457.36457,0,0,0,.06632.0083.0705.0705,0,0,0,.029-.00415c.029,0,.058.00415.087.00415a4.89964,4.89964,0,0,0,4.69577-5.01074,15.42474,15.42474,0,0,0-.53464-3.27832,29.43764,29.43764,0,0,1-.51807-6.17123.35378.35378,0,0,0-.35116-.35642H54.34335a.35378.35378,0,0,0-.35641.35117v.00525a27.82846,27.82846,0,0,1-.32742,4.74136l-1.61637,1.22678c.12848-.46421.24454-.93668.33573-1.41745a.33016.33016,0,0,0,.01242-.06217,10.794,10.794,0,0,0,.19064-1.91891c-.00015-2.36243-.00842-4.23572-.01672-5.13095ZM62.479,42.32a1.04475,1.04475,0,0,1-.2528-.57608.34043.34043,0,0,1,.02072-.12433h0a2.41776,2.41776,0,0,1,.431-.4559c.19064-.16993.36471-.29841.36471-.29841a.3996.3996,0,0,0,.1575-.31912.517.517,0,0,0-.06631-.24869c-.02487-.04974-.04974-.0953-.07047-.13262a.24512.24512,0,0,1,.06632-.27768.30578.30578,0,0,1,.32742-.058,4.56486,4.56486,0,0,1,.55951.27768,2.072,2.072,0,0,1,.73773.6507,1.42074,1.42074,0,0,1,.20725.64239.40257.40257,0,0,1-.10776.27353c-.116.13263-1.16461,1.01126-1.27237,1.07758a6.66265,6.66265,0,0,1-.94079.41031c-.11191.04144-.21967.07873-.315.116-.13263.0539-.15335-.03317-.15335-.03317a.138.138,0,0,1,.02487-.12848,1.65864,1.65864,0,0,0,.17823-.16577.57677.57677,0,0,0,.16992-.38544.34552.34552,0,0,0-.06635-.24456Zm1.04859,24.78021a.1651.1651,0,0,1-.07047.15335c-.08288.04559-2.59448,1.45474-2.59448,1.45474l-.29013-25.07446a7.17716,7.17716,0,0,0,.82062-.31912ZM52.03473,78.69241s.92422,1.19779.96155,1.25165a.10722.10722,0,0,1-.01657.13678,12.32692,12.32692,0,0,1-6.2707,2.22977c.41031-1.88577,1.98523-9.31693,3.15815-16.88486,1.20605-7.8,1.74069-15.20633,1.84433-16.74808,0,0,.93667-.06216,1.10244-.07873.16163-.01657.18238.07873.18238.17822-.00415.09946-1.02787,29.67493-1.02787,29.67493A.337.337,0,0,0,52.03473,78.69241ZM39.58453,49.25787s2.321-8.02383,2.3541-8.13159a.20614.20614,0,0,1,.13678-.13678s1.69925-.47662,1.96866-.56366a3.92009,3.92009,0,0,1,.717-.12018l5.83966-.35641a6.78027,6.78027,0,0,0,1.2641,1.89819A6.63622,6.63622,0,0,0,53.56,43.13638s-.01245,4.443-.01245,4.52585-.04145.17822-.228.1948-5.8728.4103-7.29025.51391a3.46325,3.46325,0,0,0-.659.10776c-.21552.06216-5.16824,1.41742-5.16824,1.41742a.42.42,0,0,1-.25281-.03729c-.08289-.06632-.12848-.10361-.28183-.22382-.15332-.12433-.08289-.37714-.08289-.37714Zm2.19663-9.01022a15.18538,15.18538,0,0,1-2.76026-7.26123c.0373.04559.07874.087.116.12848a6.51662,6.51662,0,0,0,1.67026,1.24338c3.57675,1.91476,9.31692,4.1777,9.32523,4.18185a.01531.01531,0,0,1,.01242.00415,6.20281,6.20281,0,0,0,.19479.70871l-5.38791.32742a5.87184,5.87184,0,0,0-1.09.15751c-.55123.15335-1.81115.51391-1.89407.54293-.10776.029-.16992-.00836-.18649-.03323Zm11.93213,8.25592.26111-.05389a.35852.35852,0,0,0,.286-.34815l.01245-4.62945a8.80053,8.80053,0,0,0,3.31976.6051h.01245a10.2194,10.2194,0,0,0,2.25876-.24866l.33157,28.68436v.087a2.41521,2.41521,0,0,1-.916,1.92722,11.99271,11.99271,0,0,1-6.54007,2.05984ZM53.57239,35.44c.833-1.02371,1.75314-2.27951,2.27121-2.99237v5.95572a4.26275,4.26275,0,0,1-.97812-.6217A3.70953,3.70953,0,0,1,53.57236,35.44Zm2.98407,3.22446V31.97928c.06216-.00415.12433-.00415.17407-.00415a3.28656,3.28656,0,0,0,.52222-.08289c.06631-.01657.13678-.029.21136-.04559v6.9877a5.48607,5.48607,0,0,1-.90768-.17Zm1.62051.17822V31.67258c.32742-.07874.6134-.15335.72116-.17823h.13263v7.19077a3.41764,3.41764,0,0,1-.85382.1575Zm2.21732-8.79056a.56676.56676,0,0,0-.36472-.402c-.06216-.01658-.13263-.03733-.19479-.04975,0-.22378-.00415-.53879-.00415-.78332a1.257,1.257,0,0,0-.08289-.48493V25.45993h1.119a29.85156,29.85156,0,0,0,.53049,5.95984,14.835,14.835,0,0,1,.51806,3.13742,4.49675,4.49675,0,0,1-1.15634,3.00894,3.98448,3.98448,0,0,1-1.01541.81232V31.43634a.51475.51475,0,0,1,.07459-.00827.85686.85686,0,0,1,.087-.0083h.029a.39227.39227,0,0,0,.27353-.11191.77344.77344,0,0,0,.19064-.40616,2.37153,2.37153,0,0,0,.0456-.431,1.4295,1.4295,0,0,0-.04962-.41864Zm-1.36356-4.59216V27.6524a2.545,2.545,0,0,0-.85379-.13262V25.45993Zm-1.56665,0v2.13028a4.84962,4.84962,0,0,0-.90765.2984V25.4599Zm-1.62051,0v2.78513c-.24039.13263-.42276.24865-.52637.31085a7.62153,7.62153,0,0,0-.84134.66727v.00415a30.79675,30.79675,0,0,0,.228-3.7674ZM27.59021,72.55847c.09119-.10361,9.71066-11.1488,9.71066-11.1488a.3101.3101,0,0,0,.07459-.14093s2.84729-10.50641,2.868-10.57688a.146.146,0,0,1,.09534-.0953s5.048-1.38013,5.2387-1.43817a3.26624,3.26624,0,0,1,.47248-.07874l2.80169-.19479c-.03317.32742-.09118.85379-.18237,1.52932-.47662,3.55188-1.93136,11.211-5.47909,15.38453A20.23323,20.23323,0,0,1,27.85129,72.6828h-.17407C27.56949,72.67865,27.499,72.66208,27.59021,72.55847Zm-.17407.82892c.12848.00415.27353.00415.431.00415A20.94108,20.94108,0,0,0,43.729,66.25879c4.52585-5.37546,5.66144-15.62906,5.83966-17.42365l1.41742-.09945c-.04974.73358-.17407,2.4743-.39785,4.82425-.29425,3.154-.75846,7.398-1.434,11.7622s-1.48789,8.6911-2.13031,11.92383c-.47663,2.39139-.85791,4.18186-1.02372,4.95273a.27816.27816,0,0,1-.26938.19894c-.39373,0-.78744.0373-1.18948.03348a21.00853,21.00853,0,0,1-3.97461-.37747c-.69629-.15335-1.38428-.32327-2.06811-.52222a20.9478,20.9478,0,0,1-9.404-5.51638,11.23887,11.23887,0,0,1-1.62882-2.24634c-.04974-.09119-.09116-.17407-.12848-.25281a.08179.08179,0,0,1,.0788-.12851Zm20.51132,9.47443a12.5849,12.5849,0,0,0,5.16-1.96866l1.12317.32327a.42812.42812,0,0,0,.12433.01657s1.04443-.058,1.13147-.06216c.2984-.01657.431.1575.431.21966s.0083.14093.0083.14093a.43662.43662,0,0,1-.10776.3067,7.14081,7.14081,0,0,1-1.2102.42688,35.037,35.037,0,0,1-6.50693.60926.956.956,0,0,0-.15335-.01248ZM80.16785,61.59616a34.99565,34.99565,0,0,1-18.5344,18.53439A34.10165,34.10165,0,0,1,56.631,81.80908l-.04144-.69214c0-.41858-.47247-.62582-.73358-.62582l-1.49619.02487s-.46-.11191-.51806-.12848a.05774.05774,0,0,1-.04035-.071l.00717-.016a.3552.3552,0,0,0,.0083-.44345l-1.14389-1.492.0373-1.061a12.7011,12.7011,0,0,0,6.98355-2.19663,3.13232,3.13232,0,0,0,1.2102-2.50329.64772.64772,0,0,0-.00415-.10776L60.8667,69.5206l.03314-.01242h0l3.183-1.78629a.36469.36469,0,0,0,.18237-.344l-2.08887-23.284c.09119-.029.38544-.13263.72116-.257a6.72642,6.72642,0,0,0,1.09-.48907c.22793-.16162,1.18533-.96567,1.41742-1.20606a1.06992,1.06992,0,0,0,.27768-.73773,2.10529,2.10529,0,0,0-.8082-1.5708,7.676,7.676,0,0,0,.659-3.17886,15.92325,15.92325,0,0,0-.916-4.94443,14.56322,14.56322,0,0,1-.88693-4.5217c0-3.13742.03314-5.00247.03314-5.00662a.37467.37467,0,0,0-.10361-.257.34479.34479,0,0,0-.2528-.10776,2.7,2.7,0,0,0-2.06812.73359,1.812,1.812,0,0,0-.33569.50976H54.56284a2.12676,2.12676,0,0,0-.344-.58023,2.49587,2.49587,0,0,0-2.02255-.84134.34484.34484,0,0,0-.25281.10776.35746.35746,0,0,0-.10361.25281c0,.00415.02073,2.36654.02073,5.678,0,.2611-.01242.51806-.03315.775-.13263-.20721-.27353-.41446-.42276-.6134a3.0825,3.0825,0,0,0-1.33453-1.13147c-.4642-.1409-1.15634-.35642-1.96866-.60511a.78493.78493,0,0,1-.50561-.38128.87369.87369,0,0,1-.09119-.27768l.39374.0083h.02072a2.64236,2.64236,0,0,0,.92007-.1658.94137.94137,0,0,0,.57611-.58023,1.3594,1.3594,0,0,0,.058-.41031,1.60867,1.60867,0,0,0-.03729-.3523l.16992-.2984a.357.357,0,0,0,.02072-.31085.35.35,0,0,0,.11191-.286l-.02487-.36472a.21092.21092,0,0,1,.05389-.0083,1.47737,1.47737,0,0,0,.33984-.09945.65659.65659,0,0,0,.18653-.12848.45832.45832,0,0,0,.13678-.31913c0-.0953-.02073-.32327-.0539-.68383-.07873-.87863-.21551-2.37067-.26111-2.83487a1.96305,1.96305,0,0,0,.40616-1.12317,1.45272,1.45272,0,0,0-.40616-1.04444,1.92913,1.92913,0,0,0-1.38842-.489c-.27768-.07458-1.71585-.4559-2.13443-.51807a7.88245,7.88245,0,0,0-1.21436-.116,4.79852,4.79852,0,0,0-3.02966,1.10659c-1.47962,1.16462-1.5998,3.24933-1.6081,4.17356,0,.17822.00415.31912.01242.39786a3.03567,3.03567,0,0,0-.12432.945,6.03543,6.03543,0,0,0,.08288.974,2.453,2.453,0,0,0,1.22263,1.77387,3.09367,3.09367,0,0,0,.67969.29013v.67969a26.98922,26.98922,0,0,0-3.77152,2.10128,1.74575,1.74575,0,0,0-.31085.26526l-.01242.0083L19.27621,47.49237a.37.37,0,0,0-.1036.26111.36206.36206,0,0,0,.11606.25281c.00415.00415,1.32626,1.206,2.79342,2.54889.36472.33572.74188.67556,1.1066,1.01126l-3.527,4.83667a2.59855,2.59855,0,0,0-.48492,1.6578c.00415,1.47547.73358,3.71765,2.97577,7.21149a28.28823,28.28823,0,0,0,5.23871,6.40747l-.93253,1.06928a8.56623,8.56623,0,0,0-.63828.75845,5.1838,5.1838,0,0,0-.45175.688,1.41652,1.41652,0,0,0-.087.17822c-.63-.54709-1.24335-1.11487-1.84018-1.7117A34.79185,34.79185,0,1,1,80.16782,61.59619Z" transform="translate(0.00006 0.00002)"/>
        <g>
          <path id="Path-2" class="cls-1" d="M7.37314,51.02759a3.14517,3.14517,0,0,1,1.0527.01242,1.61338,1.61338,0,0,1,.746.36056,1.85847,1.85847,0,0,1,.48493.717A4.33236,4.33236,0,0,1,9.91788,53.191a4.24508,4.24508,0,0,1,.01657.99469,1.9499,1.9499,0,0,1-.27353.804,1.74476,1.74476,0,0,1-.601.57608,4.09888,4.09888,0,0,1-.86621.27767c-.058.01246-.15336.029-.21137.03733l-3.14984.41031a.13636.13636,0,0,0-.11191.12017l-.02487.46421a.141.141,0,0,1-.11191.12433l-.1409.01657a.10706.10706,0,0,1-.12018-.09119l-.27768-2.122a.10721.10721,0,0,1,.09281-.1199l.00253-.00031.13678-.01657a.13975.13975,0,0,1,.1409.087l.14505.43518a.1316.1316,0,0,0,.14093.087l3.52286-.46a1.35865,1.35865,0,0,0,.96982-.52221,1.60844,1.60844,0,0,0,.22378-1.19779,1.50377,1.50377,0,0,0-.53879-1.09415,2.97822,2.97822,0,0,0-1.16461-.19894,1.88633,1.88633,0,0,0-.21551.01657L4.302,52.23764a.132.132,0,0,0-.11191.12021l-.029.46417a.13683.13683,0,0,1-.11191.12433l-.13678.01657a.10718.10718,0,0,1-.11987-.0928l-.0003-.00254-.24863-1.90219a.10706.10706,0,0,1,.09119-.12018l.14093-.01657a.13975.13975,0,0,1,.1409.087l.145.44345a.13647.13647,0,0,0,.14093.087Z" transform="translate(0.00006 0.00002)"/>
          <path id="Path-3" class="cls-1" d="M3.57263,46.09558a.23235.23235,0,0,1,.09946-.16165l4.44708-2.6525-3.7218-.27353a.138.138,0,0,0-.13678.09534l-.12018.43933a.138.138,0,0,1-.13678.09531l-.14093-.0083a.1101.1101,0,0,1-.09946-.116L3.9,41.68585a.11009.11009,0,0,1,.116-.09945l.14093.01245a.14063.14063,0,0,1,.12018.11605l.05389.46418a.14065.14065,0,0,0,.12018.116l5.27185.39789a.1101.1101,0,0,1,.09946.116l-.04144.51807a.23235.23235,0,0,1-.09946.16165L4.54239,46.50177l4.331.32742a.138.138,0,0,0,.13678-.09533l.12021-.43933a.13465.13465,0,0,1,.13678-.09531l.1409.0083a.10754.10754,0,0,1,.09952.115l-.00006.001L9.36658,48.1554a.11009.11009,0,0,1-.116.09945l-.14093-.01242a.14069.14069,0,0,1-.12018-.116l-.05389-.46a.14064.14064,0,0,0-.12018-.116l-4.73721-.36057a.138.138,0,0,0-.13678.09534l-.12018.4476a.13464.13464,0,0,1-.13678.0953l-.14093-.0083a.11008.11008,0,0,1-.09946-.116Z" transform="translate(0.00006 0.00002)"/>
          <path id="Path-4" class="cls-1" d="M5.39621,36.22327a.13674.13674,0,0,1,.09946.13263l-.02488.4559a.14162.14162,0,0,0,.09946.13678l4.61289,1.15219a.13116.13116,0,0,0,.1492-.07047l.19064-.41446a.13117.13117,0,0,1,.1492-.07046l.13678.03314a.109.109,0,0,1,.07877.13251l0,.00012-.51807,2.07642a.11.11,0,0,1-.12848.07873l-.13678-.03317a.1333.1333,0,0,1-.09946-.13263l.02488-.4559a.13331.13331,0,0,0-.09946-.13263L5.31744,37.95978a.13117.13117,0,0,0-.1492.07046l-.19479.41446a.13116.13116,0,0,1-.1492.07047l-.13678-.0373a.106.106,0,0,1-.079-.12741l.00024-.00106L5.1268,36.273a.11233.11233,0,0,1,.13263-.07874Z" transform="translate(0.00006 0.00002)"/>
          <path id="Path-5" class="cls-1" d="M12.62427,32.72528a.16778.16778,0,0,1,.03317.17407l-.24866.58853a.16506.16506,0,0,1-.1492.09119l-5.59927-.37714a.22071.22071,0,0,0-.16992.07874l-.20722.28183a.13747.13747,0,0,1-.16165.04559L5.993,33.5542a.11013.11013,0,0,1-.058-.1409l.76675-1.80289a.11172.11172,0,0,1,.1409-.058l.12848.05389a.139.139,0,0,1,.07874.1492l-.06632.36057a.10017.10017,0,0,0,.08225.11532l.00476.00068,4.49682.34814L8.26422,29.42206a.0907.0907,0,0,0-.12829.00058l-.01264.016-.24866.36471a.14167.14167,0,0,1-.16165.04975l-.12848-.0539a.11171.11171,0,0,1-.058-.1409l.69214-1.62466a.11172.11172,0,0,1,.1409-.058l.12848.05389a.1419.1419,0,0,1,.07873.1492l-.087.42276a.21146.21146,0,0,0,.05389.17822Z" transform="translate(0.00006 0.00002)"/>
          <path id="Path-6" class="cls-1" d="M23.86841,17.36148a2.37465,2.37465,0,0,0,.41861-.1575,2.09469,2.09469,0,0,0,.35641-.20309,1.5126,1.5126,0,0,0,.601-.76676.99592.99592,0,0,0-.56366-1.119,1.38767,1.38767,0,0,0-.47248-.09118,2.505,2.505,0,0,0-.51806.04559c-.17823.03317-.35642.06216-.53464.09119-.26938.03729-.50977.06631-.72943.09533a2.23062,2.23062,0,0,1-.5968.00827,1.29836,1.29836,0,0,1-.5015-.16162,1.433,1.433,0,0,1-.43518-.41031,1.38558,1.38558,0,0,1-.26938-.63827,1.45767,1.45767,0,0,1,.07047-.66312,2.17008,2.17008,0,0,1,.38543-.659,4.08059,4.08059,0,0,1,.67142-.62168,2.83619,2.83619,0,0,1,.33988-.21966c.12432-.07459.2528-.14093.38543-.20725.13263-.06216.26111-.12433.38959-.17822s.24869-.09119.24869-.09119a.20191.20191,0,0,1,.12848-.0083.59.59,0,0,1,.07873.116l.45175.79159a.1262.1262,0,0,1-.03317.15751l-.2984.21966a.14988.14988,0,0,1-.16992-.00415l-.55121-.4642a1.03059,1.03059,0,0,0-.344.07873,1.73335,1.73335,0,0,0-.42688.24866,1.30192,1.30192,0,0,0-.51807.68384.81538.81538,0,0,0,.1492.717.93585.93585,0,0,0,.34814.30255.99112.99112,0,0,0,.39786.08289,2.03043,2.03043,0,0,0,.43933-.0456c.15335-.03317.31085-.06216.47248-.09118.22381-.029.4559-.06632.70044-.11191a3.43988,3.43988,0,0,1,.70871-.04975,1.88136,1.88136,0,0,1,.64654.1409,1.18444,1.18444,0,0,1,.52222.44764,1.74726,1.74726,0,0,1,.315.79574,1.49069,1.49069,0,0,1-.10361.72528,2.15143,2.15143,0,0,1-.44348.66727,5.32131,5.32131,0,0,1-.71286.62167,4.90328,4.90328,0,0,1-.77087.46836c-.26941.13263-.61756.27352-.61756.27352-.05389.02073-.1119.029-.12433.01658a.86949.86949,0,0,1-.07873-.11606l-.4559-.78745a.12137.12137,0,0,1,.03317-.1575l.2984-.21966a.14309.14309,0,0,1,.16992.00415Z" transform="translate(0.00006 0.00002)"/>
          <path id="Path-7" class="cls-1" d="M28.129,8.59991a.14021.14021,0,0,1-.03314.16578l-.35645.286a.13422.13422,0,0,0-.03314.16162l2.25049,4.19015a.13626.13626,0,0,0,.15335.06217l.43518-.13678a.13406.13406,0,0,1,.15335.06216l.06631.12433a.10531.10531,0,0,1-.04159.143l-.004.00207-1.88577,1.01126a.10531.10531,0,0,1-.143-.04159l-.00207-.004-.06632-.12433a.13422.13422,0,0,1,.03318-.16165l.35229-.29013a.13307.13307,0,0,0,.03317-.16162l-2.25049-4.186a.129.129,0,0,0-.15335-.06216l-.43518.13678a.13968.13968,0,0,1-.15335-.06217l-.06631-.12433a.10423.10423,0,0,1,.0397-.142l.00589-.00309L27.91354,8.43a.10425.10425,0,0,1,.142.03971l.00308.00589Z" transform="translate(0.00006 0.00002)"/>
          <path id="Path-8" class="cls-1" d="M30.47067,7.23221a.24121.24121,0,0,1,.12433-.09946L34.99237,5.533a.31781.31781,0,0,1,.15335-.02072.211.211,0,0,1,.09119.116l.37713.9408a.10409.10409,0,0,1-.05807.13525l-.00409.00153-.3523.12848a.14358.14358,0,0,1-.16165-.05389l-.31085-.46a.15463.15463,0,0,0-.16165-.058l-.46.13678c-.058.01657-.1492.04559-.2031.06631l-.4476.16166,1.64951,4.54657a.13655.13655,0,0,0,.145.08288l.45175-.07046a.142.142,0,0,1,.145.08288l.04974.13263a.10472.10472,0,0,1-.061.13495l-.00531.00183-2.0101.72943a.10324.10324,0,0,1-.13394-.05813l-.00284-.00818-.04975-.13263a.13182.13182,0,0,1,.0539-.15335l.39374-.23624a.13567.13567,0,0,0,.05389-.1575L32.48077,6.97525l-.4476.16577c-.058.02072-.145.058-.20309.07874l-.43933.19064a.15444.15444,0,0,0-.087.1492l.058.55124a.143.143,0,0,1-.09119.14505l-.3523.12848a.10471.10471,0,0,1-.13494-.061l-.00184-.00531-.30255-.93252A.28193.28193,0,0,1,30.47067,7.23221Z" transform="translate(0.00006 0.00002)"/>
          <path id="Shape-3" class="cls-1" d="M41.23819,7.85391l-1.96451.373-.30255,1.79873a.08983.08983,0,0,0,.09119.10776l.40616.0083a.14091.14091,0,0,1,.12847.10776l.02488.13678a.1082.1082,0,0,1-.087.12433l-1.72.32327a.10818.10818,0,0,1-.12433-.087l-.02487-.13678a.14189.14189,0,0,1,.07873-.1492l.3523-.1492a.24055.24055,0,0,0,.12018-.1492L39.3027,4.50928A.18477.18477,0,0,1,39.427,4.3808l.75431-.1409a.16042.16042,0,0,1,.1575.07458l2.79757,4.91541a.21469.21469,0,0,0,.16162.09534l.373.01242a.137.137,0,0,1,.12848.10775l.02487.13678a.10522.10522,0,0,1-.08285.1236l-.00415.00073-1.96866.373a.11483.11483,0,0,1-.12848-.087l-.02487-.13678a.14188.14188,0,0,1,.07873-.1492l.3523-.1492a.09869.09869,0,0,0,.05337-.129l-.00363-.00781ZM39.81247,5.2677l-.45175,2.49915,1.6578-.31086Z" transform="translate(0.00006 0.00002)"/>
          <path id="Path-9" class="cls-1" d="M46.68,9.06409a2.408,2.408,0,0,0,.431.12018,2.33032,2.33032,0,0,0,.40616.04559,1.511,1.511,0,0,0,.9408-.26111.88134.88134,0,0,0,.33572-.74188.91361.91361,0,0,0-.12848-.489,1.40412,1.40412,0,0,0-.32742-.35641,2.37392,2.37392,0,0,0-.4476-.26941c-.16165-.07874-.32743-.16162-.48493-.24454-.23623-.12848-.45175-.2445-.64654-.35229a2.54131,2.54131,0,0,1-.489-.344,1.288,1.288,0,0,1-.3067-.42688,1.46363,1.46363,0,0,1-.10776-.58853A1.34389,1.34389,0,0,1,46.46445,3.987a2.11956,2.11956,0,0,1,.70044-.30255,3.8474,3.8474,0,0,1,.9118-.10776,3.53281,3.53281,0,0,1,.402.02487c.145.01657.2901.0373.431.06217.145.02487.286.05389.41861.087.13678.03318.25281.07459.25281.07459.05389.02072.10775.04974.1119.06631a.564.564,0,0,1-.00415.14093l-.10775.90351a.128.128,0,0,1-.12018.10775h-.36887a.14183.14183,0,0,1-.13263-.1036l-.17407-.70041a.90294.90294,0,0,0-.32327-.13678,1.888,1.888,0,0,0-.4932-.0539,1.282,1.282,0,0,0-.82062.24451.80628.80628,0,0,0-.30255.66727.89389.89389,0,0,0,.10361.4476.94907.94907,0,0,0,.27353.30255,2.25348,2.25348,0,0,0,.38129.22379c.1409.06631.286.13262.43518.20724.19894.10776.40616.21552.63.32327a3.32056,3.32056,0,0,1,.5968.37717,1.978,1.978,0,0,1,.43933.49319,1.16449,1.16449,0,0,1,.15336.66727,1.79436,1.79436,0,0,1-.21552.82892,1.46625,1.46625,0,0,1-.50977.52222,2.06471,2.06471,0,0,1-.7543.27353,5.187,5.187,0,0,1-.945.07873,5.37279,5.37279,0,0,1-.89935-.07461c-.29425-.0539-.659-.145-.659-.145-.058-.01658-.10776-.04145-.10776-.06217a.63291.63291,0,0,1,.0083-.14093l.09946-.9035a.128.128,0,0,1,.12017-.10776h.36887a.14183.14183,0,0,1,.13263.10361Z" transform="translate(0.00006 0.00002)"/>
          <path id="Shape-4" class="cls-1" d="M62.03961,11.46793a2.83623,2.83623,0,0,1-2.29193.09118,3.38673,3.38673,0,0,1-1.07758-.55536,2.33636,2.33636,0,0,1-.66726-.82061,2.47187,2.47187,0,0,1-.23624-1.06928,4.15253,4.15253,0,0,1,.21967-1.29724,3.99749,3.99749,0,0,1,.6134-1.22678,2.69043,2.69043,0,0,1,.85376-.75015,2.381,2.381,0,0,1,1.0527-.27768,3.71738,3.71738,0,0,1,2.27536.72943,2.35161,2.35161,0,0,1,.67557.82892,2.52943,2.52943,0,0,1,.24039,1.08173,4.01173,4.01173,0,0,1-.21967,1.30966A3.21044,3.21044,0,0,1,62.03961,11.46793ZM62.57425,7.199a1.49531,1.49531,0,0,0-1.032-1.003,1.52975,1.52975,0,0,0-1.434.1865,3.28542,3.28542,0,0,0-1.032,1.70755,3.44971,3.44971,0,0,0-.18237,2.0184,1.48588,1.48588,0,0,0,1.03613,1.003,1.52972,1.52972,0,0,0,1.434-.18649,3.25907,3.25907,0,0,0,1.032-1.70755,3.47663,3.47663,0,0,0,.17828-2.01837Z" transform="translate(0.00006 0.00002)"/>
          <path id="Path-10" class="cls-1" d="M65.52521,13.2128a2.55715,2.55715,0,0,0,.31915.315,2.11747,2.11747,0,0,0,.33569.23624,1.50418,1.50418,0,0,0,.9491.21966.86935.86935,0,0,0,.6507-.489.929.929,0,0,0,.12432-.4932,1.36382,1.36382,0,0,0-.116-.46835,2.46654,2.46654,0,0,0-.26111-.4476c-.10776-.1492-.20725-.29425-.3067-.4476-.145-.228-.27768-.43518-.39374-.62167a2.55665,2.55665,0,0,1-.26111-.53879,1.2501,1.2501,0,0,1-.06216-.52222,1.54183,1.54183,0,0,1,.18649-.56781,1.33724,1.33724,0,0,1,.4642-.51392,1.37713,1.37713,0,0,1,.63413-.21551,2.15012,2.15012,0,0,1,.7626.07046,3.84929,3.84929,0,0,1,.84964.344,2.68868,2.68868,0,0,1,.33984.21551q.18032.12434.34815.26111c.116.09119.22382.18653.32742.27768.10361.09531.18653.18649.18653.18649.04144.0456.07046.09534.06216.11191a.60041.60041,0,0,1-.07046.12021l-.52637.74188a.12363.12363,0,0,1-.1575.0373l-.32328-.17823a.142.142,0,0,1-.06631-.1575l.18649-.69629a1.07518,1.07518,0,0,0-.21551-.27768,1.97279,1.97279,0,0,0-.40616-.28183,1.2932,1.2932,0,0,0-.83719-.17822.79571.79571,0,0,0-.58438.43933.87126.87126,0,0,0-.12433.44348,1.03191,1.03191,0,0,0,.09119.39786,2.31536,2.31536,0,0,0,.228.38129c.09531.12433.18653.25281.28183.38959.12018.18649.25281.38543.39374.58438a3.299,3.299,0,0,1,.344.62167,1.87523,1.87523,0,0,1,.145.6424,1.19853,1.19853,0,0,1-.18653.66311,1.74545,1.74545,0,0,1-.58853.62168,1.516,1.516,0,0,1-.70044.21136,2.1932,2.1932,0,0,1-.79159-.12018,5.70329,5.70329,0,0,1-.86622-.38128,4.90649,4.90649,0,0,1-.75018-.49735c-.23208-.18652-.50976-.44348-.50976-.44348-.0456-.04144-.07459-.087-.06632-.10776.0083-.01657.04144-.07046.07459-.12018l.52221-.746a.1328.1328,0,0,1,.1575-.03732l.32328.17407a.142.142,0,0,1,.06631.1575Z" transform="translate(0.00006 0.00002)"/>
          <path id="Path-11" class="cls-1" d="M71.69641,17.10867a.11082.11082,0,0,0,.0166.15335l.72943.572c.0456.0373.12433.09531.17408.12848l.38958.26941a.15668.15668,0,0,0,.17408-.0083l.47662-.38543a.143.143,0,0,1,.16992,0l.2984.23208a.10577.10577,0,0,1,.017.14865l-.00043.00055-.63.75015a1.07591,1.07591,0,0,1-.10776.116c-.02072.02072-.07873.00415-.12433-.03314L70.11731,16.574a.11035.11035,0,0,1-.01657-.15336l.087-.10775a.14177.14177,0,0,1,.16166-.0373l.40615.20725a.12913.12913,0,0,0,.16166-.03729l2.93432-3.73838a.13689.13689,0,0,0-.00415-.16577l-.2984-.344a.13689.13689,0,0,1-.00415-.16577l.087-.10776a.111.111,0,0,1,.15335-.02072L75.46371,13.217a.11506.11506,0,0,1,.02073.15335l-.087.11191a.14029.14029,0,0,1-.16162.03729l-.40616-.20721a.12793.12793,0,0,0-.16165.03729Z" transform="translate(0.00006 0.00002)"/>
          <path id="Shape-5" class="cls-1" d="M78.71729,23.7648a2.8465,2.8465,0,0,1-2.01841-1.09,3.41228,3.41228,0,0,1-.64239-1.02371,2.36544,2.36544,0,0,1-.1575-1.04858,2.52046,2.52046,0,0,1,.33984-1.04028,4.0419,4.0419,0,0,1,.84964-1.003,4.18,4.18,0,0,1,1.15219-.746,2.59554,2.59554,0,0,1,1.11487-.21136,2.42957,2.42957,0,0,1,1.04858.2984,3.42143,3.42143,0,0,1,.94083.76675,3.513,3.513,0,0,1,.6424,1.01956,2.35168,2.35168,0,0,1,.1575,1.05686,2.52023,2.52023,0,0,1-.344,1.0527,4.11355,4.11355,0,0,1-.85794,1.01541A3.16234,3.16234,0,0,1,78.71729,23.7648Zm2.63177-3.40268a1.48668,1.48668,0,0,0-.37714-1.38843,1.522,1.522,0,0,0-1.32626-.56781,3.31279,3.31279,0,0,0-1.75729.9408A3.46293,3.46293,0,0,0,76.703,20.99207a1.47858,1.47858,0,0,0,.38129,1.39257,1.522,1.522,0,0,0,1.32626.56781,3.28358,3.28358,0,0,0,1.7573-.94079A3.41,3.41,0,0,0,81.34906,20.36212Z" transform="translate(0.00006 0.00002)"/>
          <path id="Path-12" class="cls-1" d="M83.78192,27.49487a.133.133,0,0,0,.029-.16165l-.64239-1.09415-2.11789,1.27652.69214,1.16462c.029.04974.08288.13263.116.18237l.26526.38959a.15465.15465,0,0,0,.16166.058l.58023-.19064a.14591.14591,0,0,1,.1575.058l.19894.33157a.10482.10482,0,0,1-.03821.14325l-.00323.0018-.85791.47248c-.0539.029-.11606.058-.14093.07046-.02487.00827-.07459-.02487-.10361-.07461l-2.22562-3.74668a.1131.1131,0,0,1,.0373-.1492l.12017-.07046a.139.139,0,0,1,.16581.02487l.30255.344a.13708.13708,0,0,0,.16577.02488L84.731,24.12119a.14346.14346,0,0,0,.058-.15751l-.15335-.431a.13421.13421,0,0,1,.058-.1575l.12018-.07046a.11308.11308,0,0,1,.1492.03729l2.122,3.5726a.315.315,0,0,1,.04975.1492.23117.23117,0,0,1-.09531.116l-.85379.54709a.10239.10239,0,0,1-.142-.02835l-.003-.00482-.19479-.32328a.13894.13894,0,0,1,.02487-.16577l.4642-.43518a.1519.1519,0,0,0,.029-.16992l-.21966-.42688c-.02488-.0539-.07459-.13678-.10361-.18652l-.62583-1.05686-1.87335,1.119.64655,1.09a.13565.13565,0,0,0,.1575.05389l.42688-.16162a.13606.13606,0,0,1,.1575.058l.16162.27353a.1121.1121,0,0,1-.03729.1492l-1.38013.82062a.1131.1131,0,0,1-.1492-.03729l-.16165-.27353a.133.133,0,0,1,.029-.16162Z" transform="translate(0.00006 0.00002)"/>
          <path id="Path-13" class="cls-1" d="M13.75162,24.96255a.132.132,0,0,0-.1575.04975l-.69629,1.061L14.97839,27.412l.74189-1.13559c.03314-.04975.08288-.13263.1119-.1865l.23209-.4103a.1501.1501,0,0,0-.02072-.16993l-.42688-.43518a.13734.13734,0,0,1-.01657-.16577l.21139-.32327a.107.107,0,0,1,.14832-.0296l.00088.00061.804.56366c.04974.03317.10361.07873.12433.09533.02072.02073.01242.07459-.02072.12433l-2.379,3.65134a.107.107,0,0,1-.14841.02951l-.00079-.00052-.116-.07461a.1376.1376,0,0,1-.04974-.15751l.17407-.42273a.13761.13761,0,0,0-.04974-.1575l-3.98291-2.59448A.13237.13237,0,0,0,10.15,25.634l-.31912.32743a.13736.13736,0,0,1-.16577.01657l-.116-.07459a.11189.11189,0,0,1-.03314-.1492l2.27121-3.48141a.35361.35361,0,0,1,.11191-.11191.19473.19473,0,0,1,.145.03729l.87036.52637a.10242.10242,0,0,1,.03619.14023l-.003.00482-.20724.315a.14353.14353,0,0,1-.16165.05389l-.59681-.21966a.15174.15174,0,0,0-.16577.04974l-.286.38544c-.03732.04974-.09118.12848-.12433.17822l-.67556,1.02787,1.83187,1.18948.69214-1.061a.126.126,0,0,0-.02072-.16165l-.33157-.315a.14441.14441,0,0,1-.02072-.16577l.17407-.26526a.108.108,0,0,1,.14908-.03323l.00012.00009,1.347.87863a.108.108,0,0,1,.03324.14908l-.00009.00012-.17408.26938a.13027.13027,0,0,1-.1575.04559Z" transform="translate(0.00006 0.00002)"/>
          <path id="Path-14" class="cls-1" d="M89.4765,32.16577a.22458.22458,0,0,1-.029.19064L86.4137,36.559l3.53115-1.23093a.13974.13974,0,0,0,.087-.14093l-.06631-.45175a.1316.1316,0,0,1,.087-.14093l.13263-.04559a.10633.10633,0,0,1,.136.06409l.00076.00222.601,1.73243a.10632.10632,0,0,1-.06408.136l-.00223.00077L90.724,36.53a.13606.13606,0,0,1-.1575-.058l-.23209-.40615a.13763.13763,0,0,0-.1575-.058l-4.99832,1.72827a.108.108,0,0,1-.13678-.06631l-.16992-.4932a.22251.22251,0,0,1,.029-.19064l3.51871-4.8118-4.10724,1.42157a.13453.13453,0,0,0-.087.1409l.06632.45175a.13156.13156,0,0,1-.087.1409l-.13263.0456a.10324.10324,0,0,1-.13394-.05817l-.00284-.00815-.601-1.73242a.10473.10473,0,0,1,.061-.13495l.00531-.00183.13263-.04559a.12877.12877,0,0,1,.15335.058l.23209.402a.13757.13757,0,0,0,.1575.058l4.49268-1.5542a.1345.1345,0,0,0,.087-.14093l-.06631-.46a.1316.1316,0,0,1,.087-.1409l.13263-.04559a.11158.11158,0,0,1,.13675.06631Z" transform="translate(0.00006 0.00002)"/>
          <path id="Path-15" class="cls-1" d="M86.3598,41.25476a2.34825,2.34825,0,0,0-.058.44348,2.11649,2.11649,0,0,0,.01242.41031,1.52189,1.52189,0,0,0,.38959.89108.881.881,0,0,0,.78332.23209.89368.89368,0,0,0,.46832-.19894,1.4201,1.4201,0,0,0,.30671-.373,2.39471,2.39471,0,0,0,.20309-.48077c.05386-.17408.11191-.344.17407-.51392.09531-.25281.18238-.48492.26111-.688a2.57889,2.57889,0,0,1,.27353-.53464,1.263,1.263,0,0,1,.38129-.36056,1.50111,1.50111,0,0,1,.56781-.18652,1.34974,1.34974,0,0,1,.688.06216,1.4123,1.4123,0,0,1,.5512.37714,2.18938,2.18938,0,0,1,.39789.65484,3.81515,3.81515,0,0,1,.26526,1.28482q.00622.21758,0,.43518c-.00415.145-.01657.2901-.029.42688-.01657.14093-.03729.26111-.03729.26111-.01242.058-.03315.11191-.0539.12018a.49219.49219,0,0,1-.1409.01657l-.9118.02072a.12859.12859,0,0,1-.12433-.1036l-.05389-.36472a.14828.14828,0,0,1,.087-.1492l.66727-.26526a.98288.98288,0,0,0,.09118-.33569,1.87984,1.87984,0,0,0-.01657-.49735,1.28212,1.28212,0,0,0-.35641-.77917.81169.81169,0,0,0-.70044-.20725.86488.86488,0,0,0-.431.16577,1.01768,1.01768,0,0,0-.26526.31086,2.29771,2.29771,0,0,0-.16992.41031c-.04559.1492-.09119.30255-.145.4559-.07874.21136-.1575.43518-.23209.66726a3.277,3.277,0,0,1-.29428.64655,1.92871,1.92871,0,0,1-.42688.50149,1.17242,1.17242,0,0,1-.64239.24454,1.72049,1.72049,0,0,1-.84964-.09945,1.53,1.53,0,0,1-.58853-.431,2.13433,2.13433,0,0,1-.37714-.70871,5.6207,5.6207,0,0,1-.21137-.92423,5.48218,5.48218,0,0,1-.04974-.89938c.01242-.2984.0539-.67142.0539-.67142.00827-.058.02487-.11191.04559-.11606.01657-.00415.08288-.0083.1409-.01242l.9118-.02487a.12462.12462,0,0,1,.12433.10361l.05389.36471a.15109.15109,0,0,1-.08288.1492Z" transform="translate(0.00006 0.00002)"/>
          <path id="Path-16" class="cls-1" d="M92.06683,49.262a.137.137,0,0,1-.12848-.1036l-.09118-.44761a.137.137,0,0,0-.12848-.1036l-4.75379.02072a.137.137,0,0,0-.12847.10776l-.08289.4476a.137.137,0,0,1-.12848.10776h-.1409a.10971.10971,0,0,1-.10776-.10776l-.0083-2.13858a.10971.10971,0,0,1,.10776-.10776h.1409a.13692.13692,0,0,1,.12848.10361l.087.4476a.137.137,0,0,0,.12848.10361l4.75379-.02073a.1409.1409,0,0,0,.12848-.10775l.08288-.4476a.1409.1409,0,0,1,.12848-.10776h.14093a.107.107,0,0,1,.10776.10623v.00153l.0083,2.13858a.10969.10969,0,0,1-.10776.10775Z" transform="translate(0.00006 0.00002)"/>
          <path id="Path-17" class="cls-1" d="M86.62506,52.88019a2.45247,2.45247,0,0,0-.18649.40616,2.11541,2.11541,0,0,0-.10776.39373,1.51481,1.51481,0,0,0,.11191.96982.87072.87072,0,0,0,.67972.4476.91922.91922,0,0,0,.50561-.04974,1.41064,1.41064,0,0,0,.402-.26526,2.65839,2.65839,0,0,0,.33572-.39786c.10361-.1492.20725-.29428.31913-.43933.16577-.21136.315-.40616.45175-.58023a2.414,2.414,0,0,1,.41861-.42688,1.30055,1.30055,0,0,1,.47247-.23623,1.42165,1.42165,0,0,1,.5968-.01243,1.39711,1.39711,0,0,1,.6424.26111,1.37355,1.37355,0,0,1,.41446.52634,2.09774,2.09774,0,0,1,.18649.74188,3.66647,3.66647,0,0,1-.04144.916,3.25879,3.25879,0,0,1-.087.39373c-.03729.1409-.08288.27768-.12848.41446-.04559.1409-.09949.26938-.15335.402-.05389.12848-.11191.23624-.11191.23624-.029.05389-.06631.09531-.087.09946a1.13658,1.13658,0,0,1-.14093-.02488l-.87863-.24868a.1267.1267,0,0,1-.087-.13678l.058-.36472a.15032.15032,0,0,1,.12433-.116l.717-.058a1.12686,1.12686,0,0,0,.18653-.29425,2.00424,2.00424,0,0,0,.13263-.47662,1.2827,1.2827,0,0,0-.11191-.84964.80129.80129,0,0,0-.60925-.402.92277.92277,0,0,0-.46.029.976.976,0,0,0-.344.21966,2.319,2.319,0,0,0-.28183.33985c-.087.12848-.17822.26111-.27353.39374-.13678.17822-.27768.36886-.41861.56781a3.428,3.428,0,0,1-.46832.53048,1.89975,1.89975,0,0,1-.55951.3523,1.14158,1.14158,0,0,1-.68384.04559,1.79939,1.79939,0,0,1-.78332-.344,1.518,1.518,0,0,1-.43518-.58853,2.11574,2.11574,0,0,1-.14921-.78745,5.91264,5.91264,0,0,1,.07047-.945,4.73785,4.73785,0,0,1,.21967-.87451c.09945-.28183.24865-.62582.24865-.62582.02487-.0539.058-.09946.07874-.09946a.73736.73736,0,0,1,.13678.029l.87863.24039a.124.124,0,0,1,.087.13678l-.058.36472a.14523.14523,0,0,1-.12433.116Z" transform="translate(0.00006 0.00002)"/>
        </g>
        <g>
          <path id="Path-18" class="cls-1" d="M22.48828,83.48761a.13027.13027,0,0,0,.1575-.04559l2.44528-3.51456-4.55484,2.58206a.17236.17236,0,0,1-.17822-.01657l-.18237-.1492a.19377.19377,0,0,1-.058-.17407l1.318-4.91956L18.6712,80.26321a.1259.1259,0,0,0-.01242.16166l.27768.37713a.131.131,0,0,1-.0083.16577l-.0953.09946a.11012.11012,0,0,1-.15336.00415l-1.347-1.2558a.10639.10639,0,0,1-.00708-.15027l.00293-.00308.09531-.10361a.138.138,0,0,1,.16577-.02072l.38958.24451a.14444.14444,0,0,0,.16578-.02072l3.12912-3.47312a.12063.12063,0,0,0,0-.16165l-.29425-.35229a.13677.13677,0,0,1,0-.16577l.087-.10776a.11081.11081,0,0,1,.15335-.01657l1.40915,1.14389a.19372.19372,0,0,1,.058.17407l-1.12316,4.331,3.85858-2.10128a.17236.17236,0,0,1,.17822.01657l1.3511,1.09829a.10584.10584,0,0,1,.017.14869l-.00042.00051-.087.10776a.13421.13421,0,0,1-.16165.03317l-.40616-.21966a.13307.13307,0,0,0-.16162.03317L23.483,84.04294a.1435.1435,0,0,0,.01242.16992l.315.33572a.131.131,0,0,1,.00831.16578l-.08289.1119a.10733.10733,0,0,1-.1492.02488L21.85,83.57877a.11064.11064,0,0,1-.02488-.1492l.08289-.11191a.1344.1344,0,0,1,.16162-.04145Z" transform="translate(0.00006 0.00002)"/>
          <path id="Shape-6" class="cls-1" d="M32.69214,83.18506a5.47547,5.47547,0,0,1,1.0983.72116,2.72081,2.72081,0,0,1,.70459.89938,2.31322,2.31322,0,0,1,.21136,1.10245,3.36522,3.36522,0,0,1-.402,1.33868,3.502,3.502,0,0,1-.82062,1.09,2.48318,2.48318,0,0,1-1.02371.54294,2.78146,2.78146,0,0,1-1.17291.02487,7.74355,7.74355,0,0,1-1.18118-.402c-.0539-.02487-.14093-.06216-.1948-.09118l-2.05569-1.05274a.10423.10423,0,0,1-.04868-.13916l.00309-.00589.06216-.12433a.13409.13409,0,0,1,.15335-.06631l.44345.12848a.13643.13643,0,0,0,.15335-.06632l2.1593-4.21914a.12911.12911,0,0,0-.03729-.16166l-.36056-.28183a.14031.14031,0,0,1-.0373-.16165l.06217-.12433a.10527.10527,0,0,1,.141-.04766l.004.00207Zm.96567,2.49914a2.05857,2.05857,0,0,0-.02073-.89108,1.65128,1.65128,0,0,0-.4186-.71286,4.779,4.779,0,0,0-.717-.51391,1.691,1.691,0,0,0-.19064-.10361l-.53879-.27768L29.4801,87.66531l.51392.26526a6.00016,6.00016,0,0,0,.717.3067,2.03936,2.03936,0,0,0,.66727.10776,1.98775,1.98775,0,0,0,.99884-.39786,3.20119,3.20119,0,0,0,.89523-1.15634,4.31856,4.31856,0,0,0,.38547-1.1066Z" transform="translate(0.00006 0.00002)"/>
          <path id="Path-19" class="cls-1" d="M42.82971,87.35861c-.01242-.19894-.0083-.23208-.01242-.373-.0083-.17408-.06216-.23624-.23624-.34815a1.879,1.879,0,0,0-.22378-.11191,1.84935,1.84935,0,0,0-.43518-.13263,2.08117,2.08117,0,0,0-.833.00827,1.61864,1.61864,0,0,0-.70044.34815,2.21793,2.21793,0,0,0-.53464.69629,3.82067,3.82067,0,0,0-.33157,1.04443,2.94665,2.94665,0,0,0,.18237,2.0101,1.96654,1.96654,0,0,0,1.44644.90766,3.00417,3.00417,0,0,0,.65485.04144c.2031-.0083.431-.03729.69629-.07047.13678-.01657.1492.08289.1492.08289l.01657.10776a.16529.16529,0,0,1-.09119.16577,3.75759,3.75759,0,0,1-.79159.19064,3.61878,3.61878,0,0,1-1.12732-.04144,3.82,3.82,0,0,1-1.06927-.35641,2.32054,2.32054,0,0,1-.79575-.67142,2.48177,2.48177,0,0,1-.431-1.01541,4.3399,4.3399,0,0,1,.51807-2.74369,2.64837,2.64837,0,0,1,.833-.84134,2.692,2.692,0,0,1,1.09415-.38128,4.10085,4.10085,0,0,1,1.28482.04559,4.1997,4.1997,0,0,1,.84549.24454c.17822.07458.34815.1492.50562.228a.25156.25156,0,0,1,.16165.29425l-.23624.77917s-.058.16992-.20724.145c-.13263-.02487-.21552-.03729-.21552-.03729S42.84213,87.55756,42.82971,87.35861Z" transform="translate(0.00006 0.00002)"/>
          <path id="Path-20" class="cls-1" d="M51.86063,87.55756c-.058-.19065-.06217-.22379-.09946-.36057-.04974-.16577-.12018-.21551-.315-.28183a1.40993,1.40993,0,0,0-.24454-.058,1.98354,1.98354,0,0,0-.45175-.02487,2.09223,2.09223,0,0,0-.80817.20309,1.66631,1.66631,0,0,0-.5968.50562,2.19547,2.19547,0,0,0-.3523.804,3.809,3.809,0,0,0-.07458,1.09415,2.94274,2.94274,0,0,0,.65485,1.91064,1.97633,1.97633,0,0,0,1.62051.53879,2.96225,2.96225,0,0,0,.64655-.11606c.19479-.05389.4103-.13678.659-.23208.12848-.04975.16577.04559.16577.04559l.0373.09946a.16482.16482,0,0,1-.04975.18234,3.70172,3.70172,0,0,1-.72528.373,3.91729,3.91729,0,0,1-2.22562.13263,2.34524,2.34524,0,0,1-.93252-.46005,2.45767,2.45767,0,0,1-.659-.88278,3.82972,3.82972,0,0,1-.30255-1.36356,3.70821,3.70821,0,0,1,.1575-1.42157A2.63089,2.63089,0,0,1,48.574,87.23a2.74535,2.74535,0,0,1,.974-.63,4.14961,4.14961,0,0,1,1.26-.26111,3.811,3.811,0,0,1,.87863.03729q.28606.04353.54709.09946a.253.253,0,0,1,.228.24865l-.04559.81232s-.01242.17822-.16577.19064c-.13678.00831-.21552.01243-.21552.01243S51.92282,87.7482,51.86063,87.55756Z" transform="translate(0.00006 0.00002)"/>
          <path id="Path-21" class="cls-1" d="M60.67194,85.70081c-.09946-.17408-.10776-.20725-.17408-.33158-.08288-.15335-.16165-.18649-.36471-.21136a1.68091,1.68091,0,0,0-.25281-.0083,2.00235,2.00235,0,0,0-.4476.07046,2.0314,2.0314,0,0,0-.746.36887,1.63212,1.63212,0,0,0-.47663.61752,2.1452,2.1452,0,0,0-.17407.86206,3.82179,3.82179,0,0,0,.15335,1.08588,2.938,2.938,0,0,0,1.04029,1.72827,1.9716,1.9716,0,0,0,1.69928.18649,3.1409,3.1409,0,0,0,.6051-.2445c.17822-.09534.373-.21967.5968-.36472.116-.07462.17407.00827.17407.00827l.058.09119a.16089.16089,0,0,1-.00831.18649,3.71044,3.71044,0,0,1-.63.51392,3.52061,3.52061,0,0,1-1.032.4559,3.75908,3.75908,0,0,1-1.11487.14093,2.38058,2.38058,0,0,1-1.00714-.25281,2.47352,2.47352,0,0,1-.82889-.72528,3.71372,3.71372,0,0,1-.58023-1.26825,3.75394,3.75394,0,0,1-.145-1.42572,2.58572,2.58572,0,0,1,1.20193-1.93964,4.29332,4.29332,0,0,1,1.17707-.51806,4.17349,4.17349,0,0,1,.86621-.1492c.19479-.01245.38128-.01657.55536-.01657a.25053.25053,0,0,1,.27356.19479l.12848.804s.02487.17823-.12433.21967c-.13263.03729-.21137.058-.21137.058S60.77142,85.87073,60.67194,85.70081Z" transform="translate(0.00006 0.00002)"/>
          <path id="Path-22" class="cls-1" d="M68.00363,84.26266l-2.6152-1.18533a.33949.33949,0,0,0-.2031-.01242l-.39373.12018a.13969.13969,0,0,1-.15751-.06217l-.07046-.12017a.10959.10959,0,0,1,.04144-.1492l1.88162-1.06928a.1131.1131,0,0,1,.1492.03729l.07047.12433a.14537.14537,0,0,1-.02487.16577l-.23209.21552a.06756.06756,0,0,0,.01657.12018l1.865.88693.22794-2.08057a.06423.06423,0,0,0-.09119-.07458l-.32742.10361a.13969.13969,0,0,1-.1575-.06217l-.07047-.12018a.10862.10862,0,0,1,.03992-.14834l.00153-.00086,1.492-.84964a.10487.10487,0,0,1,.14328.03824l.00177.00321.07047.12017a.14.14,0,0,1-.029.16578l-.33987.2984a.29688.29688,0,0,0-.09119.17822L68.9111,83.554l2.897,1.347a.33946.33946,0,0,0,.20309.01242l.402-.12433a.13968.13968,0,0,1,.1575.06217l.07046.12017a.10486.10486,0,0,1-.03823.14328l-.00321.00177L70.70981,86.194a.10391.10391,0,0,1-.14231-.03659l-.00268-.00485-.07047-.12018a.138.138,0,0,1,.029-.16577l.2528-.228a.06756.06756,0,0,0-.01657-.12018L68.58371,84.474l-.26526,2.437c-.00827.058.03317.09119.09119.07459l.31085-.09531a.13972.13972,0,0,1,.1575.06216l.07047.12018a.10487.10487,0,0,1-.03824.14328l-.00321.00177-1.5003.85376a.10482.10482,0,0,1-.14325-.03821l-.0018-.00323-.07047-.12018a.139.139,0,0,1,.029-.16577l.33985-.2984a.327.327,0,0,0,.09533-.17822Z" transform="translate(0.00006 0.00002)"/>
          <path id="Path-23" class="cls-1" d="M74.48569,76.30515a.13689.13689,0,0,1,.00415.16577l-.28183.36471a.13674.13674,0,0,0,.00415.1658l3.13742,3.556a.13158.13158,0,0,0,.16577.02488l.39374-.23209a.13893.13893,0,0,1,.16577.02487l.09119.10361a.11447.11447,0,0,1-.0083.15335l-1.61222,1.42157a.11028.11028,0,0,1-.15335-.0083l-.09119-.10361a.1312.1312,0,0,1-.00415-.16577l.28183-.36472a.13686.13686,0,0,0-.00415-.16577l-3.13742-3.556a.13167.13167,0,0,0-.16577-.02487l-.39374.23209a.14436.14436,0,0,1-.16577-.02487l-.09118-.10361a.11448.11448,0,0,1,.0083-.15335l1.61221-1.42157a.11027.11027,0,0,1,.15335.0083Z" transform="translate(0.00006 0.00002)"/>
        </g>
        <path id="Shape-7" class="cls-1" d="M21.02112,20.60251a.228.228,0,0,0,.17822-.058l.89523-.94079a.11008.11008,0,0,0-.00415-.15335L21.991,19.355a.13773.13773,0,0,0-.16581-.01245l-.33984.23624a.32348.32348,0,0,1-.19479.04559l-2.67737-.43518a.07881.07881,0,0,1-.06217-.116,3.42766,3.42766,0,0,0,.315-1.07342,1.4377,1.4377,0,0,0-.4932-1.003,1.26045,1.26045,0,0,0-.67968-.373,1.37563,1.37563,0,0,0-.67142.07047,2.22082,2.22082,0,0,0-.63.36471c-.20309.16165-.489.44348-.489.44348l-.15335.15335-1.57492,1.65369a.11008.11008,0,0,0,.00415.15335l.09945.09534a.13685.13685,0,0,0,.16578.01242l.37713-.27353a.13687.13687,0,0,1,.16577.01245l3.44413,3.27832a.14443.14443,0,0,1,.02072.16577l-.25281.38959a.13236.13236,0,0,0,.02072.16577l.10361.09531a.11022.11022,0,0,0,.15335-.00415l1.47546-1.55a.11021.11021,0,0,0-.00415-.15335l-.1036-.09946a.13688.13688,0,0,0-.16578-.01242l-.373.26526a.13688.13688,0,0,1-.16577-.01242l-1.58737-1.50861.23623-.24866a.22721.22721,0,0,1,.18237-.058Zm-3.65964-.601a.894.894,0,0,1-.07046.07046l-1.7117-1.62051.3067-.31913c.04144-.04559.10775-.1119.15335-.15335a4.18727,4.18727,0,0,1,.31912-.28183,1.07929,1.07929,0,0,1,.402-.19064.78158.78158,0,0,1,.42273.029,1.3301,1.3301,0,0,1,.45175.29428,1.23546,1.23546,0,0,1,.48077.945,2.32438,2.32438,0,0,1-.40616.83719,1.821,1.821,0,0,1-.13678.16577Z" transform="translate(0.00006 0.00002)"/>
      </g>
      <g id="Group-2">
        <path id="Path-24" class="cls-1" d="M118.5256,23.72333v-.50562h9.44129v.50562c-2.73541.33987-2.78928.67557-2.78928,3.63476v8.144c0,4.42221,1.492,6.90478,5.32575,6.90478,4.14453,0,5.55368-2.90118,5.63656-7.1286V27.33322c0-2.90118-.058-3.27-2.78927-3.60574v-.50565h6.90478v.50565c-2.73541.33984-2.78927.70456-2.78927,3.60574v7.89121c0,6.11319-2.84729,8.79058-7.89121,8.79058-5.60757,0-8.25592-2.90118-8.25592-8.115V27.36227C121.319,24.45279,121.261,24.05905,118.5256,23.72333Z" transform="translate(0.00006 0.00002)"/>
        <path id="Path-25" class="cls-1" d="M155.9798,23.72333v-.50562h6.90481v.50562c-2.73541.33987-2.78927.70456-2.78927,3.60574V43.64612h-2.36652L145.72623,28.1207V39.53476c0,2.90118.058,3.27,2.78927,3.60574v.50562h-6.90478V43.1405c2.73538-.33987,2.78927-.70459,2.78927-3.60574v-13.134l-.48077-.62168c-.98642-1.29724-1.52106-1.83188-2.31265-2.14273v-.42276h5.24286l11.9197,15.33066V27.3291C158.76907,24.42792,158.71521,24.05905,155.9798,23.72333Z" transform="translate(0.00006 0.00002)"/>
        <path id="Path-26" class="cls-1" d="M171.25662,39.53061c0,2.90118.058,3.27,2.78928,3.60574V43.642h-9.44129v-.50559c2.73542-.33984,2.78928-.70456,2.78928-3.60574V27.3291c0-2.90118-.058-3.27-2.78928-3.60574v-.50562h9.44126v.50562c-2.73541.33987-2.78928.70456-2.78928,3.60574Z" transform="translate(0.00006 0.00002)"/>
        <path id="Path-27" class="cls-1" d="M178.38934,26.48361c-.78744-2.05569-1.12732-2.53647-2.87631-2.76028v-.50562h8.70767v.50562c-1.77386.22381-2.31265.73358-1.80285,2.14273l4.961,13.55264,3.43582-9.9469c1.83188-5.29672,1.04443-5.52466-1.12732-5.74847v-.50562h6.51108v.50562c-1.88993.22381-2.17176.59268-3.63477,4.79107l-5.32574,15.13172h-2.28364Z" transform="translate(0.00006 0.00002)"/>
        <path id="Path-28" class="cls-1" d="M208.11813,43.64615H197.66147v-.50562c2.73538-.33987,2.78927-.70459,2.78927-3.60574V27.33325c0-2.90118-.058-3.27-2.78927-3.60574v-.50565h10.17071c1.94379,0,4.45124,0,6.652-.08288l.67557,6.73489h-.56366c-1.40915-4.76208-3.32391-5.63657-8.79056-5.63657h-1.492v8.25593h3.29907c1.60809,0,2.61935-.78745,2.90118-3.15815h.50562v7.55133h-.50562c-.28183-2.36651-1.29724-3.15814-2.90118-3.15814h-3.29907v7.72128c0,.98639.199,1.21021,1.43817,1.21021H206.821c5.131,0,6.93381-1.15634,8.45487-5.71948h.53464l-1.12732,6.73489C212.43262,43.64615,210.11993,43.64615,208.11813,43.64615Z" transform="translate(0.00006 0.00002)"/>
        <path id="Shape-8" class="cls-1" d="M218.43387,43.13641c2.73541-.33984,2.78924-.70456,2.78924-3.60574V27.3291c0-2.90118-.058-3.27-2.78924-3.60574v-.50562h3.60577c1.38013,0,4.22742-.029,5.10193-.029,5.21381,0,9.24231,1.40915,9.24231,5.38376,0,2.73538-2.05566,4.33932-5.10193,5.07291l4.36835,6.76388c1.29724,2.00183,1.72,2.50745,3.69281,2.73541v.50565H233.031c-.53467-1.04443-1.40912-2.59448-2.33753-4.11554l-1.2102-1.88992c-1.18537-1.8609-1.80286-2.81827-2.36652-3.58087h-2.02667v5.46664c0,2.90118.05389,3.27,3.0711,3.60574v.50565h-9.72308v-.50565ZM226.97159,24.2h-1.88574v8.8486h1.88574c3.241,0,5.13092-1.12731,5.13092-4.42224S230.21268,24.2,226.97159,24.2Z" transform="translate(0.00006 0.00002)"/>
        <path id="Path-29" class="cls-1" d="M241.54385,42.48981V35.614h.56366c.78748,5.24283,2.87629,7.35657,6.22925,7.35657,2.47846,0,4.53827-1.2102,4.53827-3.74667,0-1.9148-1.521-2.90119-3.7757-3.97461L246.59189,34.064c-2.98822-1.40914-4.874-3.27-4.874-6.00128,0-3.241,3.07111-5.49566,7.01673-5.49566a13.44513,13.44513,0,0,1,6.05932,1.40915v5.77749h-.56365c-.78748-4.0285-2.73127-6.14221-5.52466-6.14221-2.28363,0-3.88758,1.06928-3.88758,3.04208,0,1.94379,1.32624,2.84729,2.8183,3.55188l2.98822,1.40915c3.12915,1.46717,5.46662,3.01721,5.46662,6.08832,0,3.69278-3.52289,6.31213-7.75031,6.31213A14.81237,14.81237,0,0,1,241.54385,42.48981Z" transform="translate(0.00006 0.00002)"/>
        <path id="Path-30" class="cls-1" d="M265.41641,39.53061c0,2.90118.0539,3.27,2.78931,3.60574V43.642h-9.44129v-.50559c2.73542-.33984,2.78931-.70456,2.78931-3.60574V27.3291c0-2.90118-.058-3.27-2.78931-3.60574v-.50562h9.44129v.50562c-2.73541.33987-2.78931.70456-2.78931,3.60574Z" transform="translate(0.00006 0.00002)"/>
        <path id="Path-31" class="cls-1" d="M275.53323,43.13641c2.98822-.33984,3.1001-.78744,3.1001-3.60574V24.14609h-.70459c-3.94562,0-5.60754,2.0018-7.01672,6.51108h-.56366l.84546-7.52234c2.1676.08288,4.79107.08288,6.73486.08288h5.24292c1.94379,0,4.56726,0,6.76386-.08288l.84552,7.52234h-.59266c-1.38012-4.50925-3.04211-6.51108-6.98773-6.51108H282.496V39.53061c0,2.8183.11188,3.27,3.1001,3.60574V43.642H275.53732v-.50559Z" transform="translate(0.00006 0.00002)"/>
        <path id="Path-32" class="cls-1" d="M303.37625,43.64615h-10.4566v-.50562c2.73126-.33987,2.7893-.70459,2.7893-3.60574V27.33325c0-2.90118-.058-3.27-2.7893-3.60574v-.50565h10.17486c1.94379,0,4.45124,0,6.652-.08288l.67554,6.73489h-.56366c-1.40912-4.76208-3.32392-5.63657-8.79059-5.63657h-1.492v8.25593h3.29907c1.60809,0,2.61932-.78745,2.90118-3.15815h.50562v7.55133H305.776c-.28186-2.36651-1.29724-3.15814-2.90118-3.15814h-3.29914v7.72128c0,.98639.19892,1.21021,1.43818,1.21021h1.06927c5.13092,0,6.93384-1.15634,8.4549-5.71948h.53466l-1.12732,6.73489C307.68661,43.64615,305.37808,43.64615,303.37625,43.64615Z" transform="translate(0.00006 0.00002)"/>
        <path id="Path-33" class="cls-1" d="M318.70694,43.13641c2.98822-.33984,3.1001-.78744,3.1001-3.60574V24.14609h-.70459c-3.94562,0-5.60755,2.0018-7.01673,6.51108h-.56366l.84552-7.52234c2.17176.08288,4.79108.08288,6.73487.08288h5.24286c1.94378,0,4.56726,0,6.76385-.08288l.84552,7.52234H333.362c-1.38013-4.50925-3.04211-6.51108-6.98767-6.51108h-.70459V39.53061c0,2.8183.11194,3.27,3.10016,3.60574V43.642H318.71115v-.50559Z" transform="translate(0.00006 0.00002)"/>
        <path id="Path-34" class="cls-1" d="M346.55,43.64615H336.09323v-.50562c2.73541-.33987,2.78931-.70459,2.78931-3.60574V27.33325c0-2.90118-.058-3.27-2.78931-3.60574v-.50565H346.264c1.94378,0,4.45123,0,6.652-.08288l.6756,6.73489h-.56366c-1.40912-4.76208-3.32391-5.63657-8.79052-5.63657h-1.49207v8.25593h3.29907c1.6081,0,2.61933-.78745,2.90119-3.15815h.50561v7.55133h-.50561c-.28186-2.36651-1.29725-3.15814-2.90119-3.15814h-3.29907v7.72128c0,.98639.199,1.21021,1.43817,1.21021h1.06928c5.13092,0,6.93383-1.15634,8.45483-5.71948h.53467l-1.12732,6.73489C350.86441,43.64615,348.55173,43.64615,346.55,43.64615Z" transform="translate(0.00006 0.00002)"/>
        <path id="Path-35" class="cls-1" d="M361.88474,43.13641c2.98822-.33984,3.10009-.78744,3.10009-3.60574V24.14609h-.70459c-3.94561,0-5.60754,2.0018-7.01672,6.51108h-.56366l.84546-7.52234c2.17175.08288,4.79108.08288,6.73486.08288H369.523c1.94379,0,4.56317,0,6.76392-.08288l.84546,7.52234h-.59266c-1.38012-4.50925-3.04211-6.51108-6.98767-6.51108h-.70446V39.53061c0,2.8183.11187,3.27,3.10009,3.60574V43.642H361.88889v-.50559Z" transform="translate(0.00006 0.00002)"/>
        <path id="Path-36" class="cls-1" d="M125.71222,68.95685c0,2.90118.058,3.27,2.78928,3.60574v.50565h-9.44126v-.50565c2.73541-.33984,2.78928-.70456,2.78928-3.60574V56.75534c0-2.90118-.058-3.27-2.78928-3.60574V52.644h9.44126v.50562c-2.73539.33984-2.78928.70459-2.78928,3.60574Z" transform="translate(0.00006 0.00002)"/>
        <path id="Shape-9" class="cls-1" d="M149.27393,52.07614c5.52468,0,10.73849,3.71765,10.73849,10.68048,0,6.95868-5.21384,10.68048-10.73852,10.68048s-10.7385-3.71765-10.7385-10.68048C138.53543,55.79794,143.74927,52.07614,149.27393,52.07614Zm0,1.04443c-3.88758,0-6.424,3.69278-6.424,9.636,0,5.94742,2.53647,9.636,6.424,9.636s6.424-3.69278,6.424-9.636S153.16153,53.12057,149.27393,53.12057Z" transform="translate(0.00006 0.00002)"/>
        <path id="Path-37" class="cls-1" d="M163.75909,71.91605v-6.8758h.56366c.78745,5.24286,2.87632,7.35657,6.22925,7.35657,2.47843,0,4.53827-1.21021,4.53827-3.74667,0-1.9148-1.52106-2.90119-3.77566-3.97461l-2.50745-1.18534c-2.98822-1.40915-4.874-3.27-4.874-6.00128,0-3.241,3.0711-5.49566,7.01672-5.49566a13.43234,13.43234,0,0,1,6.05933,1.40914v5.7775h-.56366c-.78745-4.0285-2.73542-6.14221-5.52466-6.14221-2.28363,0-3.88757,1.06927-3.88757,3.04208,0,1.94379,1.32626,2.84729,2.81829,3.55188l2.98822,1.40915c3.12912,1.46717,5.46665,3.01721,5.46665,6.08832,0,3.69278-3.52286,6.31213-7.75031,6.31213A14.82539,14.82539,0,0,1,163.75909,71.91605Z" transform="translate(0.00006 0.00002)"/>
        <path id="Path-38" class="cls-1" d="M180.97968,72.56262c2.73541-.33984,2.78927-.70456,2.78927-3.60574V56.75534c0-2.90118-.058-3.27-2.78927-3.60574V52.644H190.421v.50562c-2.73126.33984-2.78928.70459-2.78928,3.60574V70.92966c0,.92837.28183,1.15634,1.15634,1.15634h.87449c5.10192,0,6.45306-1.23923,7.97409-6.05933h.56366l-.90351,7.07474c-1.3511-.029-4.65017-.029-5.77749-.029H180.97968Z" transform="translate(0.00006 0.00002)"/>
        <path id="Shape-10" class="cls-1" d="M211.02347,52.07614c5.52466,0,10.73852,3.71765,10.73852,10.68048,0,6.95868-5.21383,10.68048-10.73849,10.68048S200.285,69.71945,200.285,62.75662C200.28494,55.79794,205.49878,52.07614,211.02347,52.07614Zm0,1.04443c-3.88758,0-6.424,3.69278-6.424,9.636,0,5.94742,2.53647,9.636,6.424,9.636s6.424-3.69278,6.424-9.636S214.911,53.12057,211.02347,53.12057Z" transform="translate(0.00006 0.00002)"/>
      </g>
    </g>
  </g>
</svg>
