<svg width="139" height="73" viewBox="0 0 139 73" fill="none" xmlns="http://www.w3.org/2000/svg">
<path d="M79.0943 19.0116L80.8309 11.7603C80.8005 11.2119 80.6177 10.6939 80.313 10.2674C78.9724 8.53072 76.2303 9.23148 74.4632 9.74943C73.3359 8.77446 71.6602 9.10961 70.3805 9.44475C70.2282 9.47522 70.0758 9.44475 70.0149 9.32288C69.954 9.20101 70.0454 9.07914 70.1063 9.01821C70.5329 8.71353 70.7766 8.19558 70.7766 7.64716C70.7766 6.855 70.2586 6.18471 69.5274 6.0019V4.41758H70.6243V3.50355H69.5274V2.46765H68.6134V3.50355H67.547V4.41758H68.6134V6.0019C67.8822 6.21518 67.3642 6.855 67.3642 7.64716C67.3642 8.22605 67.6384 8.71353 68.065 9.01821C68.1259 9.04867 68.1564 9.20101 68.1259 9.29242C68.065 9.41429 67.9431 9.47522 67.7908 9.41429C66.5111 9.07914 64.8049 8.77446 63.6471 9.71896C61.88 9.23148 59.1379 8.50025 57.7973 10.2369C57.4927 10.6635 57.3099 11.1814 57.2794 11.7298L59.0161 18.9811H79.0943V19.0116ZM75.56 10.8463C75.621 10.8463 75.6819 10.8158 75.6819 10.8158C76.8397 10.633 78.2717 10.4197 79.2466 11.0595C79.0029 11.1509 78.8201 11.3033 78.6982 11.5775C78.6677 11.6384 78.6677 11.7298 78.6677 11.7908C78.6677 11.9126 78.6677 12.0345 78.7287 12.1564C78.4849 12.1259 78.2717 12.1564 78.0584 12.2782C77.6928 12.522 77.51 13.1618 77.6014 13.8626C77.7232 14.3196 77.9365 14.5938 78.2412 14.7157C78.5459 14.8071 78.8505 14.6547 79.0943 14.5329C78.9724 14.9289 78.5459 15.2946 78.1498 15.4469C77.5709 15.6297 76.8397 15.5992 76.3827 15.3555C76.1998 15.2641 75.6819 14.9594 75.621 14.4719C75.8952 14.6547 76.2608 14.7461 76.5959 14.5938C76.8092 14.4719 77.0225 14.2282 77.1139 13.893C77.2357 13.2227 77.1139 12.6134 76.7787 12.2478C76.535 12.0345 76.2608 12.0345 76.017 12.0954C76.078 11.9736 76.1084 11.8822 76.1084 11.7298C76.1084 11.6689 76.1084 11.6384 76.1084 11.5775C76.0475 11.2423 75.8342 10.9986 75.56 10.9377V10.8463ZM71.0508 14.6852C71.6297 14.3805 71.6602 13.5274 71.5383 12.979C71.4774 12.6439 71.2945 12.4001 71.1422 12.3087C70.9289 12.1564 70.6547 12.1868 70.4719 12.2173C70.5329 12.0954 70.5633 11.9431 70.5633 11.7908C70.5633 11.6384 70.5329 11.4861 70.411 11.3642C70.3196 11.2728 70.2282 11.1509 70.0758 11.09C70.1368 10.9681 70.2586 10.8767 70.411 10.7853C70.8071 10.633 71.325 10.5416 71.843 10.5416C72.3609 10.5416 72.8789 10.633 73.2749 10.7853C73.4273 10.8463 73.5492 10.9681 73.6101 11.09C73.4578 11.1509 73.3664 11.2423 73.2749 11.3642C73.1835 11.4861 73.1226 11.6384 73.1226 11.7908C73.1226 11.9431 73.1531 12.065 73.214 12.2173C73.0007 12.1868 72.757 12.1564 72.5437 12.3087C72.3914 12.4306 72.2086 12.6439 72.1476 12.979C72.0562 13.5579 72.0867 14.3805 72.6351 14.6852C73.0007 14.868 73.3663 14.7157 73.6406 14.5633C73.6101 14.8071 73.3663 15.1422 73.1835 15.2641C72.757 15.5078 72.3 15.6297 71.8125 15.6297C71.3555 15.6297 70.868 15.5078 70.4414 15.2641C70.2586 15.1422 70.0149 14.8071 69.9844 14.5633C70.3196 14.6852 70.6852 14.868 71.0508 14.6852ZM65.9932 12.9485C65.9322 12.6134 65.7494 12.3697 65.5971 12.2782C65.3838 12.1259 65.1096 12.1564 64.9268 12.1868C64.9877 12.065 65.0182 11.9126 65.0182 11.7603C65.0182 11.608 64.9877 11.4556 64.8659 11.3338C64.7745 11.2423 64.6831 11.1205 64.5307 11.0595C64.5917 10.9377 64.7135 10.8463 64.8659 10.7549C65.2619 10.6025 65.7799 10.5111 66.2978 10.5111C66.8158 10.5111 67.3337 10.6025 67.7298 10.7549C67.8822 10.8158 68.004 10.9377 68.065 11.0595C67.9126 11.1205 67.8212 11.2119 67.7298 11.3338C67.6384 11.4556 67.5775 11.608 67.5775 11.7603C67.5775 11.9126 67.608 12.0345 67.6689 12.1868C67.4556 12.1564 67.2119 12.1259 66.9986 12.2782C66.8463 12.4001 66.6635 12.6134 66.6025 12.9485C66.5111 13.5274 66.5111 14.3501 67.09 14.6547C67.4556 14.8375 67.8212 14.6852 68.0954 14.5329C68.065 14.7766 67.8212 15.1117 67.6384 15.2336C67.2119 15.4774 66.7549 15.5992 66.2674 15.5992C65.8104 15.5992 65.3229 15.4774 64.8963 15.2336C64.7135 15.1117 64.4698 14.7766 64.4393 14.5329C64.744 14.6852 65.0791 14.8375 65.4447 14.6547C66.0541 14.3501 66.0846 13.5274 65.9932 12.9485ZM60.0824 12.3087C59.8692 12.1868 59.6559 12.1259 59.4121 12.1868C59.4731 12.065 59.4731 11.9431 59.4731 11.8212C59.4731 11.7603 59.4731 11.6689 59.4426 11.608C59.3512 11.3337 59.1379 11.1814 58.8942 11.09C59.8996 10.4807 61.3011 10.6939 62.4589 10.8463C62.4589 10.8463 62.5198 10.8463 62.5808 10.8767V11.0291C62.3066 11.09 62.0933 11.3338 62.0324 11.6689C62.0324 11.7298 62.0324 11.7603 62.0324 11.8212C62.0324 11.9736 62.0628 12.065 62.1238 12.1868C61.88 12.1259 61.6058 12.0954 61.3621 12.3392C61.0269 12.7048 60.8746 13.3142 61.0269 13.9844C61.1183 14.2891 61.3011 14.5633 61.5449 14.6852C61.88 14.8375 62.2456 14.7461 62.5198 14.5633C62.4589 15.0508 61.941 15.3555 61.7582 15.4469C61.3011 15.6906 60.5699 15.7211 59.991 15.5383C59.6254 15.4164 59.1684 15.0203 59.0465 14.6243C59.2903 14.7461 59.5949 14.8985 59.8996 14.8071C60.2043 14.6852 60.4176 14.411 60.5394 13.954C60.6308 13.1923 60.448 12.5829 60.0824 12.3087ZM79.7341 22.3631C79.6427 22.1803 79.399 21.967 79.0943 21.967H59.0465C58.7418 21.967 58.4981 22.2107 58.4067 22.3631C58.2848 22.7287 58.4067 23.0943 58.5895 23.4294L67.7603 40.0648C68.065 40.5218 68.4611 41.314 69.0399 41.314C69.6188 41.314 70.0149 40.5218 70.3196 40.0648L79.4904 23.4294C79.7341 23.1248 79.856 22.7591 79.7341 22.3631ZM74.0671 26.9637L70.1368 34.0627C70.0149 34.2759 69.7102 34.7939 69.0704 34.7939C68.4001 34.7939 68.1259 34.2759 68.004 34.0322L64.0737 26.9332C63.8604 26.5981 63.7995 26.2325 63.9214 25.8973L63.9518 25.8059L63.9823 25.745C64.1346 25.5012 64.4393 25.1966 64.8659 25.1966H73.2749C73.732 25.1966 74.0976 25.5317 74.2194 25.8059V25.8364V25.8668C74.3413 26.2629 74.2804 26.6285 74.0671 26.9637ZM63.3425 37.3532C64.2565 38.6633 63.6776 39.7601 62.1542 39.6992C60.2348 39.6382 60.509 37.7492 60.4785 37.2922C60.4785 37.2922 59.8996 36.4391 59.3512 35.6165C59.3512 35.6165 55.0248 35.6165 52.1913 35.6165C49.3578 35.6165 50.3023 33.8494 50.7898 32.6916C51.0335 32.0823 50.6374 30.9854 48.8398 30.9854H43.5994C43.1728 30.9854 42.8986 30.6503 42.8986 30.6503L41.4057 28.9745H50.8812C51.2468 28.9745 51.2773 28.2738 50.8507 28.2738C50.8507 28.2738 42.4416 28.2738 40.7659 28.2738L39.212 26.5371H52.0999C52.4655 26.5067 52.5874 25.8973 52.0999 25.8364C52.0999 25.8364 41.2229 25.8364 38.5722 25.8364L37.2012 24.2825C37.0184 24.0692 37.0793 23.8864 37.3535 23.8864H54.6592C54.9943 23.9169 55.0553 23.9778 55.299 24.4349C55.5732 24.8919 56.213 26.0192 56.3654 26.3543C56.5482 26.7199 56.6396 26.9941 56.274 27.6035C55.9083 28.2129 54.4459 30.7721 54.1717 31.2292C53.8975 31.6557 53.5623 32.6611 54.6896 32.6611H59.991C60.4785 32.6611 60.6613 32.7525 60.8746 33.1486C61.2097 33.5752 63.3425 37.3532 63.3425 37.3532ZM100.879 24.313L99.5076 25.8668C96.8874 25.8668 85.98 25.8668 85.98 25.8668C85.4925 25.9278 85.6144 26.5067 85.98 26.5676H98.8678L97.314 28.3043C95.6382 28.3043 87.2292 28.3043 87.2292 28.3043C86.8026 28.3043 86.8635 29.005 87.1987 29.005H96.6741L95.1812 30.6807C95.1812 30.6807 94.907 31.0159 94.4805 31.0159H89.24C87.4729 31.0159 87.0464 32.0823 87.2901 32.7221C87.7776 33.8798 88.7221 35.647 85.8886 35.647C83.0551 35.647 78.7287 35.647 78.7287 35.647C78.1498 36.4696 77.6014 37.3227 77.6014 37.3227C77.5709 37.7797 77.8451 39.6382 75.9256 39.7296C74.4023 39.7906 73.8234 38.6937 74.7374 37.3836C74.7374 37.3836 76.8701 33.6056 77.0834 33.2096C77.2967 32.8135 77.4795 32.7221 77.967 32.7221H83.2684C84.3957 32.7221 84.0605 31.7166 83.7863 31.2901C83.5121 30.8635 82.0496 28.3043 81.684 27.6644C81.3184 27.0551 81.4098 26.7809 81.5926 26.4153C81.7754 26.0496 82.4153 24.9223 82.659 24.4958C82.9332 24.0692 82.9637 23.9778 83.2988 23.9474H100.604C101.001 23.9474 101.062 24.1302 100.879 24.313Z" fill="#FFD520"/>
<path d="M79.6426 19.6821L81.5621 11.8215C81.5926 11.1816 81.3184 10.4504 80.9528 9.902C79.338 7.79973 76.3826 8.53096 74.6155 9.01844C73.8843 8.53096 72.9398 8.31768 71.8429 8.47002C71.8429 8.47002 71.5382 8.53096 71.2945 8.56142C71.4164 8.28721 71.4773 7.95207 71.4773 7.61692C71.4773 6.67243 70.9289 5.8498 70.1063 5.48419V4.93577C70.2891 4.93577 71.1726 4.93577 71.1726 4.93577V2.98583C71.1726 2.98583 70.2891 2.98583 70.1063 2.98583C70.1063 2.80303 70.1063 1.91947 70.1063 1.91947H68.0954C68.0954 1.91947 68.0954 2.80303 68.0954 2.98583C67.9126 2.98583 66.9986 2.98583 66.9986 2.98583V4.96623C66.9986 4.96623 67.8821 4.96623 68.0954 4.96623V5.51465C67.3032 5.88027 66.7243 6.70289 66.7243 7.64739C66.7243 7.98254 66.7853 8.28721 66.9072 8.59189C66.8158 8.56142 66.4806 8.53096 66.3587 8.50049C65.2924 8.31768 64.3479 8.53096 63.5862 9.04891C61.819 8.56142 58.8941 7.8302 57.2489 9.93247C56.8528 10.4504 56.6091 11.2121 56.6395 11.8519L58.559 19.7126H79.6426V19.6821ZM57.8278 10.2676C59.1684 8.53096 61.9104 9.23171 63.6776 9.74966C64.8049 8.7747 66.5415 9.10984 67.8212 9.44499C67.9735 9.47545 68.0954 9.44499 68.1563 9.32312C68.1868 9.23171 68.1563 9.07937 68.0954 9.04891C67.6688 8.74423 67.3946 8.22628 67.3946 7.67786C67.3946 6.8857 67.9126 6.24588 68.6438 6.0326V4.44828H67.5774V3.53425H68.6438V2.46788H69.5578V3.50379H70.6547V4.41782H69.5578V6.00214C70.2891 6.21541 70.807 6.85523 70.807 7.64739C70.807 8.19581 70.5328 8.71376 70.1367 9.01844C70.0758 9.04891 70.0149 9.20125 70.0453 9.32312C70.1063 9.44499 70.2586 9.47545 70.4109 9.44499C71.6906 9.14031 73.3663 8.80516 74.4936 9.74966C76.2607 9.26218 79.0028 8.53096 80.3434 10.2676C80.6481 10.6942 80.8309 11.2121 80.8614 11.7605L79.1247 19.0118H59.077L57.3403 11.7605C57.3403 11.2121 57.5231 10.6942 57.8278 10.2676ZM69.9235 11.6387C70.0453 11.9129 69.9235 12.1261 69.7711 12.3699C69.6492 12.5527 69.436 12.766 69.5274 12.9488C69.5578 13.0402 69.6492 13.1011 69.7102 13.1011C69.8625 13.1316 70.0149 13.0097 70.1672 12.8878C70.2586 12.8269 70.35 12.7355 70.4414 12.705C70.6242 12.6441 70.807 12.705 70.8984 12.8574C71.0508 13.1316 71.0812 13.6191 70.9594 13.9237C70.7765 14.2589 70.5023 14.137 70.1672 13.9542C70.0149 13.8628 69.893 13.7714 69.7406 13.7714C69.5274 13.7714 69.436 14.137 69.436 14.3198C69.4055 14.9901 69.8625 15.5995 70.5328 15.9041C70.9289 16.0869 71.4164 16.1783 71.9039 16.1479C72.3913 16.1479 72.8788 16.0565 73.2749 15.9041C73.9452 15.5995 74.4022 14.9596 74.3717 14.3198C74.3717 14.137 74.2803 13.7714 74.0671 13.7714C73.9147 13.7714 73.7929 13.8628 73.6405 13.9542C73.3054 14.137 73.0312 14.2589 72.8484 13.9237C72.7265 13.6495 72.757 13.1316 72.9093 12.8574C73.0007 12.705 73.214 12.6441 73.3663 12.705C73.4577 12.7355 73.5491 12.7964 73.6405 12.8878C73.7929 13.0097 73.9452 13.1316 74.0975 13.1011C74.1585 13.1011 74.2499 13.0402 74.2803 12.9488C74.3413 12.766 74.128 12.5527 74.0366 12.3699C73.8843 12.1261 73.7624 11.8824 73.8843 11.6387C73.9757 11.5168 74.128 11.4254 74.3413 11.4254H74.4327C74.3413 10.9379 74.1889 10.3285 73.1835 10.0848C72.9093 10.0239 72.5132 9.93247 71.9343 9.93247C71.3859 9.93247 70.9594 10.0239 70.6851 10.0848C69.6797 10.3285 69.5274 10.9379 69.436 11.4254H69.5274C69.6492 11.4254 69.8016 11.5168 69.9235 11.6387ZM70.4109 10.7856C70.807 10.6332 71.325 10.5418 71.8429 10.5418C72.3609 10.5418 72.8788 10.6332 73.2749 10.7856C73.4272 10.8465 73.5491 10.9684 73.61 11.0902C73.4577 11.1512 73.3663 11.2426 73.2749 11.3645C73.1835 11.4863 73.1226 11.6387 73.1226 11.791C73.1226 11.9433 73.153 12.0652 73.214 12.2175C73.0007 12.1871 72.757 12.1566 72.5437 12.309C72.3913 12.4308 72.2085 12.6441 72.1476 12.9792C72.0562 13.5581 72.0867 14.3808 72.6351 14.6854C73.0007 14.8682 73.3663 14.7159 73.6405 14.5636C73.61 14.8073 73.3663 15.1424 73.1835 15.2643C72.757 15.5081 72.2999 15.6299 71.8125 15.6299C71.3554 15.6299 70.868 15.5081 70.4414 15.2643C70.2586 15.1424 70.0149 14.8073 69.9844 14.5636C70.2891 14.7159 70.6242 14.8682 70.9898 14.6854C71.5687 14.3808 71.5992 13.5277 71.4773 12.9792C71.4164 12.6441 71.2336 12.4004 71.0812 12.309C70.868 12.1566 70.5937 12.1871 70.4109 12.2175C70.4719 12.0957 70.5023 11.9433 70.5023 11.791C70.5023 11.6387 70.4719 11.4863 70.35 11.3645C70.2586 11.273 70.1672 11.1512 70.0149 11.0902C70.1367 10.9684 70.2586 10.8465 70.4109 10.7856ZM80.4348 22.15V22.1195L80.4043 22.0891C80.2215 21.693 79.7341 21.2665 79.0942 21.2665H59.0465C58.4371 21.2665 57.9496 21.693 57.7668 22.0891L57.7364 22.15L57.7059 22.211C57.584 22.5766 57.5231 23.1555 57.9496 23.8562L67.3642 40.8876C67.6384 41.3447 68.0649 42.1064 69.0094 42.1064H69.0399H69.0704C70.0149 42.0759 70.4719 41.3142 70.7461 40.8572L80.1911 23.7648C80.5872 23.0945 80.5567 22.5156 80.4348 22.15ZM79.5512 23.4297L70.3805 40.065C70.0758 40.522 69.6797 41.3142 69.1008 41.3142C68.5219 41.3142 68.0954 40.522 67.8212 40.065L58.6504 23.4297C58.4676 23.125 58.3153 22.7594 58.4676 22.3633C58.559 22.1805 58.8027 21.9672 59.1074 21.9672H79.1552C79.4598 21.9672 79.734 22.211 79.795 22.3633C79.8559 22.7594 79.7341 23.125 79.5512 23.4297ZM74.2194 25.8671V25.8366C74.0975 25.5319 73.7319 25.2273 73.2749 25.2273H64.8658C64.4393 25.2273 64.1041 25.5319 63.9823 25.7757L63.9518 25.8366L63.9213 25.928C63.8299 26.2632 63.8909 26.6288 64.0737 26.9639L68.004 34.0629C68.1259 34.2762 68.4305 34.8246 69.0704 34.8246C69.7406 34.8246 70.0149 34.3066 70.1367 34.0934L74.0671 26.9944C74.2803 26.6592 74.3413 26.2936 74.2499 25.928L74.2194 25.8671ZM73.4577 26.5678L69.6188 33.5449C69.4969 33.7277 69.3446 34.0629 69.0704 34.0629C68.7961 34.0629 68.6438 33.7277 68.5219 33.5449L64.6525 26.5678C64.5611 26.446 64.5307 26.2936 64.5611 26.1413C64.5916 26.0804 64.7135 25.9585 64.8353 25.9585H73.2444C73.3663 25.9585 73.4882 26.0804 73.5186 26.1413C73.5796 26.2632 73.5491 26.4155 73.4577 26.5678ZM101.61 23.7343C101.458 23.3992 101.122 23.1859 100.696 23.1859H92.2867V0H45.8844V23.2164H37.4144C36.9879 23.2164 36.6527 23.4297 36.5004 23.7648C36.4395 23.8867 36.4395 24.0085 36.4395 24.1304C36.4395 24.3742 36.5309 24.6179 36.7137 24.8312L42.3502 31.1989C42.4721 31.3513 42.8986 31.7778 43.5994 31.7778H45.8844V46.4632H92.3172V31.7778H94.5413C95.2116 31.7778 95.6687 31.3208 95.7905 31.1989L101.427 24.8312C101.61 24.6179 101.701 24.3742 101.701 24.1304C101.701 23.9781 101.671 23.8562 101.61 23.7343ZM43.5994 31.0161C43.1728 31.0161 42.8986 30.681 42.8986 30.681L41.4057 29.0052H50.8811C51.2468 29.0052 51.2772 28.3045 50.8507 28.3045C50.8507 28.3045 42.4416 28.3045 40.7659 28.3045L39.212 26.5678H52.0999C52.4655 26.5374 52.5873 25.928 52.0999 25.8671C52.0999 25.8671 41.2229 25.8671 38.5722 25.8671L37.2011 24.3132C37.0183 24.1 37.0793 23.9171 37.3535 23.9171H54.6591C54.9943 23.9476 55.0552 24.0085 55.299 24.4656C55.5732 24.9226 56.213 26.0499 56.3653 26.385C56.5481 26.7506 56.6395 27.0248 56.2739 27.6342C55.9083 28.2436 54.4459 30.8028 54.1717 31.2599C53.8974 31.6864 53.5623 32.6918 54.6896 32.6918H59.991C60.4785 32.6918 60.6613 32.7832 60.8745 33.1793C61.0878 33.5754 63.2206 37.3534 63.2206 37.3534C64.1346 38.6635 63.5557 39.7603 62.0323 39.6994C60.1129 39.6385 60.3871 37.7495 60.3566 37.2925C60.3566 37.2925 59.7777 36.4394 59.2293 35.6167C59.2293 35.6167 54.9029 35.6167 52.0694 35.6167C49.2359 35.6167 50.1804 33.8496 50.6679 32.6918C50.9116 32.0825 50.5155 30.9856 48.7179 30.9856H43.5994V31.0161ZM91.586 45.6711H46.6157V31.7169H48.8398C49.6929 31.7169 49.9671 31.9606 50.028 32.113C50.089 32.2653 50.089 32.4481 49.9976 32.6309C49.7538 33.1489 49.4796 33.8191 49.4796 34.459C49.4796 34.7941 49.5406 35.0988 49.7538 35.4035C50.1499 36.0128 50.9421 36.3175 52.1608 36.3175C52.1608 36.3175 58.2543 36.3175 58.9551 36.3175C59.1988 36.6831 59.5949 37.2925 59.7472 37.5057V37.5362C59.7472 39.3643 60.5394 40.3392 62.1237 40.4002C63.1292 40.4306 63.8909 40.065 64.2869 39.3947C64.683 38.694 64.5611 37.7799 63.9518 36.9268L61.6362 32.8442C61.2706 32.113 60.7527 31.9606 60.1129 31.9606H54.7505C54.781 31.8692 54.8115 31.7473 54.9029 31.6255L56.2739 29.249L57.0052 27.9998C57.2489 27.5733 57.3403 27.2381 57.3403 26.9334C57.3403 26.5983 57.2184 26.3241 57.0966 26.0803C56.9137 25.6843 56.2435 24.5265 55.9997 24.0999V24.0695C55.695 23.5515 55.3904 23.2164 54.8115 23.1859H46.6157V0.731225H91.586V23.2164H83.3597C82.7808 23.2469 82.4761 23.582 82.1715 24.0999V24.1304C81.9277 24.557 81.2574 25.7147 81.0746 26.1108C80.9528 26.385 80.8309 26.6288 80.8309 26.9639C80.8309 27.2686 80.9223 27.6037 81.166 28.0303L81.8973 29.2795L83.2683 31.6559C83.3292 31.7778 83.3902 31.8997 83.4206 31.9911H78.0583C77.4185 31.9911 76.9006 32.1434 76.5349 32.8746L74.2194 36.9573C73.61 37.8409 73.4882 38.7244 73.8843 39.4252C74.2499 40.0955 75.042 40.4611 76.0475 40.4306C77.6318 40.3697 78.4239 39.4252 78.4239 37.5667V37.5362C78.5763 37.3229 78.9724 36.7136 79.2161 36.348C79.9169 36.348 86.0104 36.348 86.0104 36.348C87.2291 36.348 88.0213 36.0433 88.4173 35.4339C88.6002 35.1293 88.6916 34.8246 88.6916 34.4894C88.6916 33.8496 88.4173 33.1793 88.1736 32.6614C88.0822 32.4786 88.0822 32.2958 88.1431 32.1434C88.2345 31.9911 88.4783 31.7473 89.3314 31.7473H91.586V45.6711ZM100.879 24.3132L99.5076 25.8671C96.8874 25.8671 85.9799 25.8671 85.9799 25.8671C85.4924 25.928 85.6143 26.5069 85.9799 26.5678H98.8678L97.3139 28.3045C95.6382 28.3045 87.2291 28.3045 87.2291 28.3045C86.8026 28.3045 86.8635 29.0052 87.1986 29.0052H96.6741L95.1812 30.681C95.1812 30.681 94.907 31.0161 94.4804 31.0161H89.24C87.4728 31.0161 87.0463 32.0825 87.29 32.7223C87.7775 33.8801 88.722 35.6472 85.8885 35.6472C83.055 35.6472 78.7286 35.6472 78.7286 35.6472C78.1497 36.4698 77.6013 37.3229 77.6013 37.3229C77.5708 37.7799 77.8451 39.6385 75.9256 39.7299C74.4022 39.7908 73.8233 38.694 74.7374 37.3839C74.7374 37.3839 76.8701 33.6059 77.0834 33.2098C77.2966 32.8137 77.4794 32.7223 77.9669 32.7223H83.2683C84.3956 32.7223 84.0605 31.7169 83.7863 31.2903C83.512 30.8638 82.0496 28.3045 81.684 27.6647C81.3184 27.0553 81.4098 26.7811 81.5926 26.4155C81.7754 26.0499 82.4152 24.9226 82.6589 24.496C82.9332 24.0695 82.9636 23.9781 83.2988 23.9476H100.604C101.001 23.9476 101.061 24.1304 100.879 24.3132ZM64.3479 11.6387C64.4697 11.9129 64.3479 12.1261 64.1955 12.3699C64.0737 12.5527 63.8604 12.766 63.9518 12.9488C63.9823 13.0402 64.0737 13.1011 64.1346 13.1011C64.2869 13.1316 64.4393 13.0097 64.5916 12.8878C64.683 12.8269 64.7744 12.7355 64.8658 12.705C65.0486 12.6441 65.2314 12.705 65.3228 12.8574C65.4752 13.1316 65.5056 13.6191 65.3838 13.9237C65.201 14.2589 64.9268 14.137 64.5916 13.9542C64.4393 13.8628 64.3174 13.7714 64.1651 13.7714C63.9518 13.7714 63.8604 14.137 63.8604 14.3198C63.8299 14.9901 64.2869 15.5995 64.9572 15.9041C65.3533 16.0869 65.8408 16.1783 66.3283 16.1479C66.8157 16.1479 67.3032 16.0565 67.6993 15.9041C68.3696 15.5995 68.8266 14.9596 68.7962 14.3198C68.7962 14.137 68.7047 13.7714 68.4915 13.7714C68.3391 13.7714 68.2173 13.8628 68.0649 13.9542C67.7298 14.137 67.4556 14.2589 67.2728 13.9237C67.1509 13.6495 67.1814 13.1316 67.3337 12.8574C67.4251 12.705 67.6384 12.6441 67.7907 12.705C67.8821 12.7355 67.9735 12.7964 68.0649 12.8878C68.2173 13.0097 68.3696 13.1316 68.5219 13.1011C68.5829 13.1011 68.6743 13.0402 68.7047 12.9488C68.7657 12.766 68.5524 12.5527 68.461 12.3699C68.3087 12.1261 68.1868 11.8824 68.3087 11.6387C68.4001 11.5168 68.5524 11.4254 68.7657 11.4254H68.8571C68.7657 10.9379 68.6133 10.3285 67.6079 10.0848C67.3337 10.0239 66.9376 9.93247 66.3587 9.93247C65.8103 9.93247 65.3838 10.0239 65.1096 10.0848C64.1041 10.3285 63.9518 10.9379 63.8604 11.4254H63.9518C64.0737 11.4254 64.2565 11.5168 64.3479 11.6387ZM64.8658 10.7856C65.2619 10.6332 65.7798 10.5418 66.2978 10.5418C66.8158 10.5418 67.3337 10.6332 67.7298 10.7856C67.8821 10.8465 68.004 10.9684 68.0649 11.0902C67.9126 11.1512 67.8212 11.2426 67.7298 11.3645C67.6384 11.4863 67.5774 11.6387 67.5774 11.791C67.5774 11.9433 67.6079 12.0652 67.6688 12.2175C67.4556 12.1871 67.2118 12.1566 66.9986 12.309C66.8462 12.4308 66.6634 12.6441 66.6025 12.9792C66.5111 13.5581 66.5111 14.3808 67.09 14.6854C67.4556 14.8682 67.8212 14.7159 68.0954 14.5636C68.0649 14.8073 67.8212 15.1424 67.6384 15.2643C67.2118 15.5081 66.7548 15.6299 66.2673 15.6299C65.8103 15.6299 65.3228 15.5081 64.8963 15.2643C64.7135 15.1424 64.4697 14.8073 64.4393 14.5636C64.7439 14.7159 65.0791 14.8682 65.4447 14.6854C66.0236 14.3808 66.0541 13.5277 65.9322 12.9792C65.8712 12.6441 65.6884 12.4004 65.5361 12.309C65.3228 12.1566 65.0486 12.1871 64.8658 12.2175C64.9268 12.0957 64.9572 11.9433 64.9572 11.791C64.9572 11.6387 64.9268 11.4863 64.8049 11.3645C64.7135 11.273 64.6221 11.1512 64.4697 11.0902C64.5916 10.9684 64.7135 10.8465 64.8658 10.7856ZM62.7026 15.4776C63.0682 15.051 63.2206 14.5026 63.0987 14.0151C63.0073 13.68 62.6112 13.8323 62.3979 13.9847C62.2151 14.0761 62.0628 14.1979 61.88 14.137C61.7581 14.1065 61.6667 13.9542 61.6362 13.8628C61.5144 13.4972 61.5753 13.0402 61.7581 12.766C61.819 12.6746 61.9409 12.6746 62.0628 12.6746C62.2151 12.6746 62.3675 12.7964 62.4893 12.8878C62.6721 13.0402 62.9464 13.1925 63.0987 13.0097C63.251 12.8269 63.0682 12.5832 62.9159 12.4004C62.794 12.2175 62.6721 12.0652 62.6721 11.8519C62.6721 11.6996 62.7331 11.5777 62.8549 11.4863C62.9768 11.3645 63.1596 11.3645 63.1596 11.3645H63.2206V11.3035C63.2206 11.0598 63.2815 10.7856 63.3729 10.4504C62.3675 10.1153 61.3316 9.99341 60.1129 10.0543C58.9856 10.1762 58.2543 10.6332 57.9801 11.334C57.9801 11.334 58.3457 11.3645 58.5285 11.4559C58.6199 11.5168 58.8941 11.6691 58.8637 11.9738C58.8332 12.1261 58.7418 12.2785 58.6504 12.4308C58.559 12.6136 58.3457 12.8574 58.4371 13.0097C58.5895 13.2839 58.8637 13.0706 59.0465 12.9183C59.1684 12.8269 59.2902 12.766 59.3816 12.7355C59.473 12.705 59.6863 12.705 59.8082 12.8574C59.991 13.1011 60.0519 13.7409 59.8386 14.0761C59.6254 14.2589 59.4426 14.137 59.1988 14.0151C59.016 13.9542 58.8941 13.8628 58.7113 13.8323C58.6199 13.8019 58.4371 13.8323 58.4371 14.1065C58.4676 14.8987 58.8027 15.569 59.534 15.8737C60.4785 16.3612 61.88 16.3002 62.7026 15.4776ZM59.0465 14.5636C59.2902 14.6854 59.5949 14.8378 59.8996 14.7464C60.2043 14.6245 60.4175 14.3503 60.5394 13.8933C60.6308 13.1925 60.448 12.5832 60.0824 12.309C59.8691 12.1871 59.6558 12.1261 59.4121 12.1871C59.473 12.0652 59.473 11.9433 59.473 11.8215C59.473 11.7605 59.473 11.6691 59.4426 11.6082C59.3512 11.334 59.1379 11.1816 58.8941 11.0902C59.8996 10.4809 61.3011 10.6942 62.4589 10.8465C62.4589 10.8465 62.5198 10.8465 62.5807 10.877V11.0293C62.3065 11.0902 62.0933 11.334 62.0323 11.6691C62.0323 11.7301 62.0323 11.7605 62.0323 11.8215C62.0323 11.9738 62.0628 12.0652 62.1237 12.1871C61.88 12.1261 61.6058 12.0957 61.362 12.3394C61.0269 12.705 60.8745 13.3144 61.0269 13.9847C61.1183 14.2894 61.3011 14.5636 61.5448 14.6854C61.88 14.8378 62.2456 14.7464 62.5198 14.5636C62.4589 15.051 61.9409 15.3557 61.7581 15.4471C61.3011 15.6909 60.5699 15.7213 59.991 15.5385C59.5949 15.3557 59.1684 14.9596 59.0465 14.5636ZM74.9811 11.3645H75.042C75.042 11.3645 75.2248 11.3645 75.3467 11.4863C75.4686 11.5777 75.499 11.6996 75.5295 11.8519C75.56 12.0652 75.4076 12.2175 75.2858 12.4004C75.1639 12.5832 74.9506 12.8269 75.103 13.0097C75.2858 13.223 75.5295 13.0402 75.7123 12.8878C75.8342 12.7964 75.9865 12.6746 76.1389 12.6746C76.2303 12.6746 76.3826 12.6746 76.4435 12.766C76.6263 13.0402 76.6568 13.4972 76.5654 13.8628C76.5349 13.9237 76.4435 14.1065 76.3217 14.137C76.1389 14.1979 75.9865 14.0761 75.8037 13.9847C75.5905 13.8628 75.1639 13.7105 75.103 14.0151C74.9811 14.5026 75.1334 15.051 75.499 15.4776C76.2912 16.3002 77.6927 16.3612 78.6677 15.9346C79.3989 15.5995 79.734 14.9596 79.7645 14.1675C79.7645 13.8933 79.5817 13.8628 79.4903 13.8933C79.3075 13.9237 79.1856 14.0151 79.0028 14.0761C78.7591 14.1675 78.5763 14.3198 78.363 14.137C78.1497 13.8019 78.2107 13.162 78.3935 12.9183C78.4849 12.766 78.6982 12.766 78.82 12.7964C78.9114 12.8269 79.0333 12.9183 79.1552 12.9792C79.338 13.1316 79.6122 13.3144 79.7645 13.0706C79.8559 12.9183 79.6731 12.6746 79.5512 12.4918C79.4598 12.3394 79.3684 12.1871 79.338 12.0347C79.3075 11.7301 79.5817 11.5777 79.6731 11.5168C79.8559 11.4254 80.2215 11.3949 80.2215 11.3949C79.9473 10.6637 79.2466 10.2371 78.0888 10.1153C76.9006 10.0239 75.8647 10.1762 74.8288 10.5114C74.9202 10.8465 74.9811 11.1207 74.9811 11.3645ZM75.56 10.8465C75.6209 10.8465 75.6818 10.816 75.6818 10.816C76.8396 10.6332 78.2716 10.42 79.2466 11.0598C79.0028 11.1512 78.82 11.3035 78.6981 11.5777C78.6677 11.6387 78.6677 11.7301 78.6677 11.791C78.6677 11.9129 78.6677 12.0347 78.7286 12.1566C78.4849 12.1261 78.2716 12.1566 78.0583 12.2785C77.6927 12.5222 77.5099 13.162 77.6013 13.8628C77.7232 14.3198 77.9365 14.594 78.2411 14.7159C78.5458 14.8073 78.8505 14.655 79.0942 14.5331C78.9724 14.9292 78.5458 15.2948 78.1497 15.4471C77.5708 15.6299 76.8396 15.5995 76.3826 15.3557C76.1998 15.2643 75.6819 14.9596 75.6209 14.4722C75.8951 14.655 76.2607 14.7464 76.5959 14.594C76.8092 14.4722 77.0224 14.2284 77.1138 13.8933C77.2357 13.223 77.1138 12.6136 76.7787 12.248C76.5349 12.0347 76.2607 12.0347 76.017 12.0957C76.0779 11.9738 76.1084 11.8824 76.1084 11.7301C76.1084 11.6691 76.1084 11.6387 76.1084 11.5777C76.0475 11.2426 75.8342 10.9988 75.56 10.9379V10.8465Z" fill="#46515A"/>
<path d="M73.5477 26.1107C73.6086 26.263 73.5477 26.4154 73.4563 26.5372L69.6174 33.5143C69.4955 33.6971 69.3432 34.0323 69.0689 34.0323C68.7947 34.0323 68.6424 33.6971 68.5205 33.5143L64.6511 26.5372C64.5597 26.4154 64.5293 26.263 64.5597 26.1107C64.5902 26.0497 64.7121 25.9279 64.8339 25.9279H73.243C73.3954 25.9279 73.5172 26.0497 73.5477 26.1107ZM81.0428 26.0802C80.9209 26.3544 80.799 26.5982 80.799 26.9333C80.799 27.238 80.8904 27.5731 81.1342 27.9997L81.8654 29.2488L83.2364 31.6253C83.2974 31.7472 83.3583 31.8691 83.3888 31.9605H78.0265C77.3866 31.9605 76.8687 32.1128 76.5031 32.844L74.1875 36.9267C73.5782 37.8103 73.4563 38.6938 73.8524 39.3946C74.218 40.0649 75.0101 40.4305 76.0156 40.4C77.5999 40.3391 78.3921 39.3946 78.3921 37.5361V37.5056C78.5444 37.2923 78.9405 36.683 79.1842 36.3174C79.885 36.3174 85.9785 36.3174 85.9785 36.3174C87.1972 36.3174 87.9894 36.0127 88.3855 35.4033C88.5683 35.0986 88.6597 34.794 88.6597 34.4588C88.6597 33.819 88.3855 33.1487 88.1417 32.6308C88.0503 32.448 88.0503 32.2652 88.1113 32.1128C88.2027 31.9605 88.4464 31.7167 89.2995 31.7167H91.5541V45.6709H46.6143V31.7167H48.8384C49.6915 31.7167 49.9657 31.9605 50.0266 32.1128C50.0876 32.2652 50.0876 32.448 49.9962 32.6308C49.7524 33.1487 49.4782 33.819 49.4782 34.4588C49.4782 34.794 49.5392 35.0986 49.7524 35.4033C50.1485 36.0127 50.9407 36.3174 52.1594 36.3174C52.1594 36.3174 58.2529 36.3174 58.9537 36.3174C59.1974 36.683 59.5935 37.2923 59.7458 37.5056V37.5361C59.7458 39.3641 60.538 40.3391 62.1223 40.4C63.1277 40.4305 63.8894 40.0649 64.2855 39.3946C64.6816 38.6938 64.5597 37.7798 63.9504 36.9267L61.6348 32.844C61.2692 32.1128 60.7513 31.9605 60.1114 31.9605H54.7491C54.7796 31.8691 54.8101 31.7472 54.9015 31.6253L56.2725 29.2488L57.0037 27.9997C57.2475 27.5731 57.3389 27.238 57.3389 26.9333C57.3389 26.5982 57.217 26.3239 57.0951 26.0802C56.9123 25.6841 56.2421 24.5264 55.9983 24.0998V24.0693C55.6936 23.5514 55.389 23.2162 54.8101 23.1858H46.6143V0.731079H91.5846V23.2162H83.3583C82.7794 23.2467 82.4747 23.5819 82.1701 24.0998V24.1303C81.8959 24.5264 81.2256 25.6841 81.0428 26.0802ZM80.4334 22.1499V22.1194L80.4029 22.0889C80.2201 21.6929 79.7326 21.2663 79.0928 21.2663H59.0451C58.4357 21.2663 57.9482 21.6929 57.7654 22.0889L57.735 22.1499L57.7045 22.2108C57.5826 22.5764 57.5217 23.1553 57.9482 23.8561L67.3628 40.8875C67.637 41.3445 68.0635 42.1062 69.008 42.1062H69.0385H69.0689C70.0134 42.0758 70.4705 41.3141 70.7447 40.857L80.1897 23.7647C80.5857 23.0944 80.5553 22.5155 80.4334 22.1499ZM81.5302 11.8518C81.5607 11.212 81.2865 10.4807 80.9209 9.93233C79.3061 7.83005 76.3507 8.56128 74.5836 9.04876C73.8524 8.56128 72.9079 8.34801 71.811 8.50034C71.811 8.50034 71.5064 8.56128 71.2626 8.59175C71.3845 8.31754 71.4454 7.98239 71.4454 7.64725C71.4454 6.70275 70.897 5.88012 70.0744 5.51451V4.96609C70.2572 4.96609 71.1408 4.96609 71.1408 4.96609V2.98569C71.1408 2.98569 70.2572 2.98569 70.0744 2.98569C70.0744 2.80288 70.0744 1.91932 70.0744 1.91932H68.0635C68.0635 1.91932 68.0635 2.80288 68.0635 2.98569C67.8807 2.98569 66.9667 2.98569 66.9667 2.98569V4.96609C66.9667 4.96609 67.8502 4.96609 68.0635 4.96609V5.51451C67.2714 5.88012 66.6925 6.70275 66.6925 7.64725C66.6925 7.98239 66.7534 8.28707 66.8753 8.59175C66.7839 8.56128 66.4487 8.53081 66.3269 8.50034C65.2605 8.31754 64.316 8.53081 63.5543 9.04876C61.7872 8.56128 58.8623 7.83005 57.217 9.93233C56.8209 10.4503 56.5772 11.212 56.6077 11.8518L58.5271 19.7125H79.6108L81.5302 11.8518ZM58.8927 11.0596C59.1365 11.151 59.3193 11.3034 59.4412 11.5776C59.4716 11.6385 59.4716 11.7299 59.4716 11.7909C59.4716 11.9127 59.4716 12.0346 59.4107 12.1565C59.6544 12.126 59.8677 12.1565 60.081 12.2783C60.4466 12.5221 60.6294 13.1619 60.538 13.8627C60.4161 14.3197 60.2029 14.5939 59.8982 14.7158C59.5935 14.8072 59.2888 14.6548 59.0451 14.5329C59.1669 14.929 59.5935 15.2946 59.9896 15.447C60.5685 15.6298 61.2997 15.5993 61.7567 15.3556C61.9395 15.2642 62.4575 14.9595 62.5184 14.472C62.2442 14.6548 61.8786 14.7462 61.5434 14.5939C61.3302 14.472 61.1169 14.2283 61.0255 13.8931C60.9036 13.2228 61.0255 12.6135 61.3606 12.2479C61.6044 12.0346 61.8786 12.0346 62.1223 12.0955C62.0614 11.9737 62.0309 11.8823 62.0309 11.7299C62.0309 11.669 62.0309 11.6385 62.0309 11.5776C62.0918 11.2424 62.3051 10.9987 62.5793 10.9378V10.7854C62.5184 10.7854 62.4575 10.755 62.4575 10.755C61.2997 10.6635 59.8982 10.4503 58.8927 11.0596ZM79.2452 11.0596C78.2397 10.4503 76.8382 10.6636 75.6804 10.8159C75.6804 10.8159 75.6195 10.8159 75.5586 10.8464V10.9987C75.8328 11.0596 76.0461 11.3034 76.107 11.6385C76.107 11.6995 76.107 11.7299 76.107 11.7909C76.107 11.9432 76.0765 12.0346 76.0156 12.1565C76.2593 12.0955 76.5335 12.0651 76.7773 12.3088C77.1124 12.6744 77.2648 13.2838 77.1124 13.9541C77.021 14.2587 76.8382 14.5329 76.5945 14.6548C76.2593 14.8072 75.8937 14.7158 75.6195 14.5329C75.6804 15.0204 76.1984 15.3251 76.3812 15.4165C76.8382 15.6603 77.5694 15.6907 78.1483 15.5079C78.5139 15.386 78.971 14.99 79.0928 14.5939C78.8491 14.7158 78.5444 14.8681 78.2397 14.7767C77.935 14.6548 77.7218 14.3806 77.5999 13.9236C77.5085 13.2228 77.6913 12.6135 78.0569 12.3393C78.2702 12.2174 78.4835 12.1565 78.7272 12.2174C78.6663 12.0955 78.6663 11.9737 78.6663 11.8518C78.6663 11.7909 78.6663 11.6995 78.6967 11.6385C78.8186 11.3034 79.0014 11.151 79.2452 11.0596ZM67.0885 14.6853C66.5097 14.3806 66.4792 13.5275 66.6011 12.9791C66.662 12.644 66.8448 12.4002 66.9971 12.3088C67.2104 12.1565 67.4846 12.1869 67.6674 12.2174C67.6065 12.0955 67.576 11.9432 67.576 11.7909C67.576 11.6385 67.6065 11.4862 67.7284 11.3643C67.8198 11.2729 67.9112 11.151 68.0635 11.0901C68.0026 10.9682 67.8807 10.8768 67.7284 10.7854C67.3323 10.6331 66.8143 10.5417 66.2964 10.5417C65.7784 10.5417 65.2605 10.6331 64.8644 10.7854C64.7121 10.8464 64.5902 10.9682 64.5293 11.0901C64.6816 11.151 64.773 11.2424 64.8644 11.3643C64.9558 11.4862 65.0167 11.6385 65.0167 11.7909C65.0167 11.9432 64.9863 12.0651 64.9253 12.2174C65.1386 12.1869 65.3824 12.1565 65.5956 12.3088C65.748 12.4307 65.9308 12.644 65.9917 12.9791C66.0831 13.558 66.0526 14.3806 65.5042 14.6853C65.1386 14.8681 64.773 14.7158 64.4988 14.5634C64.5293 14.8072 64.773 15.1423 64.9558 15.2642C65.3824 15.5079 65.8698 15.6298 66.3269 15.6298C66.7839 15.6298 67.2714 15.5079 67.6979 15.2642C67.8807 15.1423 68.1244 14.8072 68.1549 14.5634C67.8198 14.6853 67.4542 14.8376 67.0885 14.6853ZM72.6641 14.6853C72.0853 14.3806 72.0548 13.5275 72.1767 12.9791C72.2376 12.644 72.4204 12.4002 72.5727 12.3088C72.786 12.1565 73.0602 12.1869 73.243 12.2174C73.1821 12.0955 73.1516 11.9432 73.1516 11.7909C73.1516 11.6385 73.1821 11.4862 73.304 11.3643C73.3954 11.2729 73.4868 11.151 73.6391 11.0901C73.5782 10.9682 73.4563 10.8768 73.304 10.7854C72.9079 10.6331 72.3899 10.5417 71.872 10.5417C71.354 10.5417 70.8361 10.6331 70.44 10.7854C70.2877 10.8464 70.1658 10.9682 70.1049 11.0901C70.2572 11.151 70.3486 11.2424 70.44 11.3643C70.5314 11.4862 70.5923 11.6385 70.5923 11.7909C70.5923 11.9432 70.5619 12.0651 70.5009 12.2174C70.7142 12.1869 70.9579 12.1565 71.1712 12.3088C71.3236 12.4307 71.5064 12.644 71.5673 12.9791C71.6587 13.558 71.6282 14.3806 71.0798 14.6853C70.7142 14.8681 70.3486 14.7158 70.0744 14.5634C70.1049 14.8072 70.3486 15.1423 70.5314 15.2642C70.9579 15.5079 71.415 15.6298 71.9024 15.6298C72.3595 15.6298 72.8469 15.5079 73.2735 15.2642C73.4563 15.1423 73.7 14.8072 73.7305 14.5634C73.3954 14.6853 73.0297 14.8681 72.6641 14.6853Z" fill="#ED1C2E"/>
<path d="M0.335145 66.2366C1.06637 66.6327 2.10227 66.9374 3.29051 66.9374C4.20454 66.9374 5.05764 66.7546 5.05764 65.9015C5.05764 63.9211 0 65.1702 0 61.2704C0 58.6806 2.52882 57.9799 4.69203 57.9799C5.72793 57.9799 6.73336 58.1322 7.46459 58.3759L7.28178 60.6001C6.55055 60.2649 5.72793 60.1126 4.9053 60.1126C4.17407 60.1126 2.98583 60.1735 2.98583 61.118C2.98583 62.8547 8.07394 61.6969 8.07394 65.5663C8.07394 68.3389 5.75839 69.1006 3.35145 69.1006C2.34601 69.1006 1.09684 68.9482 0.152338 68.6436L0.335145 66.2366Z" fill="white"/>
<path d="M8.86641 60.8743H10.4812V59.0767L13.1928 58.2236V60.8743H15.1428V62.8243H13.1928V65.7796C13.1928 66.7546 13.4366 67.2421 14.2897 67.2421C14.5639 67.2421 14.8685 67.1811 15.1428 67.1507L15.2342 68.9483C14.7162 69.0092 14.1983 69.1006 13.4975 69.1006C11.0296 69.1006 10.4203 68.0038 10.4203 66.1148V62.8547H8.83594V60.8743" fill="white"/>
<path d="M21.6314 68.857C21.601 68.4305 21.5705 68.0039 21.5705 67.6078H21.54C20.9002 68.6133 20.1385 69.0398 19.0112 69.0398C17.4269 69.0398 16.0254 68.2477 16.0254 66.511C16.0254 64.0736 18.6761 63.7689 20.169 63.7689C20.626 63.7689 21.1135 63.8298 21.4791 63.8908C21.4486 62.7939 20.6565 62.4893 19.651 62.4893C18.7675 62.4893 17.8839 62.6721 17.1222 63.0986L17.0613 61.2096C18.0363 60.8135 19.0722 60.6307 20.2604 60.6307C22.3017 60.6307 24.0689 61.5143 24.0689 63.9517V66.9376C24.0689 67.5774 24.0993 68.1867 24.2212 68.8265H21.6314V68.857ZM19.7425 67.2118C20.7784 67.2118 21.4486 66.2673 21.4486 65.3228C21.083 65.2923 20.6869 65.2923 20.2909 65.2923C19.3464 65.2923 18.6151 65.5665 18.6151 66.3587C18.5847 66.8766 19.1026 67.2118 19.7425 67.2118Z" fill="white"/>
<path d="M25.0742 60.8743H26.689V59.0767L29.4311 58.2236V60.8743H31.3506V62.8243H29.4311V65.7796C29.4311 66.7546 29.6444 67.2421 30.5279 67.2421C30.8021 67.2421 31.1068 67.1811 31.381 67.1507L31.4724 68.9483C30.9545 69.0092 30.4365 69.1006 29.7358 69.1006C27.2679 69.1006 26.6585 68.0038 26.6585 66.1148V62.8547H25.0742V60.8743Z" fill="white"/>
<path d="M35.0384 65.688C35.1907 66.7848 36.0438 67.2114 37.3844 67.2114C38.1461 67.2114 38.9992 67.0286 39.8218 66.602V68.552C38.9382 68.8871 37.9023 69.0699 36.8969 69.0699C34.2462 69.0699 32.2354 67.516 32.2354 64.8654C32.2354 62.2147 34.0329 60.6913 36.5313 60.6913C39.4867 60.6913 40.5835 62.7936 40.5835 65.17V65.688H35.0384ZM38.0547 64.1037C38.0547 63.1896 37.6281 62.4279 36.5313 62.4279C35.5259 62.4279 35.0384 63.1896 35.0079 64.1037H38.0547Z" fill="white"/>
<path d="M42.0156 60.8743H44.5444V62.3367H44.5749C45.1233 61.179 46.2202 60.661 47.4998 60.661C49.6935 60.661 50.577 62.2149 50.577 63.8601V68.8568H47.8045V64.9874C47.8045 63.4945 47.2865 62.9766 46.5248 62.9766C45.3975 62.9766 44.8187 63.7687 44.8187 65.4749V68.8568H42.0461V60.8743" fill="white"/>
<path d="M52.1 66.663C52.7398 66.9372 53.7148 67.2114 54.6897 67.2114C55.2686 67.2114 55.817 67.12 55.817 66.5716C55.817 65.231 51.8867 66.1755 51.8867 63.281C51.8867 61.453 53.7148 60.6913 55.2991 60.6913C56.2436 60.6913 57.2186 60.8132 58.1021 61.1483L57.8888 63.0678C57.31 62.7022 56.4264 62.5193 55.7256 62.5193C55.1163 62.5193 54.446 62.6412 54.446 63.0678C54.446 64.3169 58.5591 63.342 58.5591 66.3887C58.5591 68.5215 56.6397 69.0699 54.8116 69.0699C53.5624 69.0699 52.7093 68.948 51.9172 68.6738L52.1 66.663Z" fill="white"/>
<path d="M63.9512 60.8749H66.9065L68.5518 66.5723H68.5823L70.258 60.8749H73.0305L70.0447 68.8574H66.9065L63.9512 60.8749Z" fill="white"/>
<path d="M76.4437 65.688C76.596 66.7848 77.4491 67.2114 78.7897 67.2114C79.5514 67.2114 80.4045 67.0286 81.2271 66.602V68.552C80.3435 68.8871 79.3076 69.0699 78.3022 69.0699C75.6515 69.0699 73.6406 67.516 73.6406 64.8654C73.6406 62.2147 75.4382 60.6913 77.9366 60.6913C80.892 60.6913 81.9888 62.7936 81.9888 65.17V65.688H76.4437ZM79.4904 64.1037C79.4904 63.1896 79.0639 62.4279 77.967 62.4279C76.9616 62.4279 76.5046 63.1896 76.4437 64.1037H79.4904Z" fill="white"/>
<path d="M91.9208 67.9429C91.9208 71.2334 90.3365 72.2998 87.1069 72.2998C85.7663 72.2998 84.6999 72.0255 84.0296 71.8123L84.182 69.6186C85.0046 70.0451 85.7358 70.2889 86.8936 70.2889C88.4779 70.2889 89.331 69.5272 89.331 67.9734V67.5468H89.3006C88.6303 68.4913 87.7162 68.9178 86.6194 68.9178C84.4257 68.9178 83.0547 67.2726 83.0547 64.8961C83.0547 62.5196 84.182 60.722 86.6803 60.722C87.8686 60.722 88.8131 61.3619 89.392 62.3673H89.4224V60.9353H91.9208V67.9429ZM87.4725 66.7546C88.4475 66.7546 89.2396 65.932 89.2396 64.7133C89.2396 63.8297 88.7217 62.8243 87.4725 62.8243C86.4366 62.8243 85.9186 63.7383 85.9186 64.8352C85.8882 66.0539 86.6194 66.7546 87.4725 66.7546Z" fill="white"/>
<path d="M92.9873 60.8749H95.9427L97.6184 66.5723H97.6489L99.3246 60.8749H102.067L99.1113 68.8574H95.9427L92.9873 60.8749Z" fill="white"/>
<path d="M105.479 65.688C105.631 66.7848 106.484 67.2114 107.855 67.2114C108.617 67.2114 109.47 67.0286 110.293 66.602V68.552C109.409 68.8871 108.404 69.0699 107.368 69.0699C104.717 69.0699 102.706 67.516 102.706 64.8654C102.706 62.2147 104.504 60.6913 107.002 60.6913C109.957 60.6913 111.054 62.7936 111.054 65.17V65.688H105.479ZM108.556 64.1037C108.556 63.1896 108.129 62.4279 107.002 62.4279C105.997 62.4279 105.54 63.1896 105.448 64.1037H108.556Z" fill="white"/>
<path d="M112.333 66.663C112.973 66.9372 113.918 67.2114 114.923 67.2114C115.502 67.2114 116.05 67.12 116.05 66.5716C116.05 65.231 112.12 66.1755 112.12 63.281C112.12 61.453 113.918 60.6913 115.533 60.6913C116.477 60.6913 117.452 60.8132 118.336 61.1483L118.122 63.0678C117.543 62.7022 116.66 62.5193 115.99 62.5193C115.38 62.5193 114.71 62.6412 114.71 63.0678C114.71 64.3169 118.823 63.342 118.823 66.3887C118.823 68.5215 116.904 69.0699 115.106 69.0699C113.857 69.0699 113.034 68.948 112.212 68.6738L112.333 66.663Z" fill="white"/>
<path d="M122.572 65.688C122.724 66.7848 123.577 67.2114 124.918 67.2114C125.679 67.2114 126.532 67.0286 127.355 66.602V68.552C126.471 68.8871 125.466 69.0699 124.43 69.0699C121.81 69.0699 119.769 67.516 119.769 64.8654C119.769 62.2147 121.566 60.6913 124.065 60.6913C127.05 60.6913 128.117 62.7936 128.117 65.17V65.688H122.572ZM125.618 64.1037C125.618 63.1896 125.192 62.4279 124.095 62.4279C123.09 62.4279 122.602 63.1896 122.541 64.1037H125.618Z" fill="white"/>
<path d="M129.549 60.8743H132.078V62.3367H132.108C132.657 61.179 133.753 60.661 135.033 60.661C137.227 60.661 138.08 62.2149 138.08 63.8601V68.8568H135.307V64.9874C135.307 63.4945 134.789 62.9766 134.028 62.9766C132.87 62.9766 132.321 63.7687 132.321 65.4749V68.8568H129.549V60.8743Z" fill="white"/>
</svg>
