<svg xmlns="http://www.w3.org/2000/svg" width="310.703" height="74.01" viewBox="0 0 310.703 74.01">
    <defs>
        <style>
            .cls-1{fill:#007096}.cls-2{fill:#d0d0ce}.cls-3{fill:#2c2a29}
        </style>
    </defs>
    <g id="Group_4647" data-name="Group 4647">
        <g id="Group_4643" data-name="Group 4643">
            <path id="Path_2081" d="M60.608 0H.016l30.3 37z" class="cls-1" data-name="Path 2081"/>
            <path id="Path_2082" d="M30.312 74.01c4.93-3.924 11.4-8.975 17-16.239h-34c5.596 7.264 12.07 12.315 17 16.239z" class="cls-1" data-name="Path 2082"/>
            <path id="Path_2083" d="M3.3 37.005a51.022 51.022 0 0 0 2.235 7.246 56.95 56.95 0 0 0 7.777 13.517l17-20.766z" class="cls-1" data-name="Path 2083"/>
            <path id="Path_2084" d="M60.608 0l-30.3 37.005-17 20.766h34a56.95 56.95 0 0 0 7.777-13.517 51.021 51.021 0 0 0 2.235-7.246C61.043 21.365 60.608 0 60.608 0z" class="cls-2" data-name="Path 2084"/>
            <path id="Path_2085" d="M30.312 37.005L.016 0S-.419 21.365 3.3 37.005z" class="cls-2" data-name="Path 2085"/>
        </g>
        <g id="Group_4646" data-name="Group 4646">
            <g id="Group_4644" data-name="Group 4644">
                <path id="Path_2086" d="M90.195 22.134h-2.878L78.875 0H82.8l6.13 16.948h.032L95.159 0h3.731z" class="cls-3" data-name="Path 2086"/>
                <path id="Path_2087" d="M106.69 19.763a4.893 4.893 0 0 0 4.649-2.53l2.276 1.486a7.6 7.6 0 0 1-7.083 3.794c-5.027 0-7.968-3.636-7.968-8.347 0-4.775 3.478-8.411 7.968-8.411a7.211 7.211 0 0 1 7.431 7.431 10.218 10.218 0 0 1-.158 1.77h-11.952c.221 2.625 1.992 4.807 4.837 4.807zm-.09-11.289c-2.467 0-3.985 1.739-4.554 3.984h8.538a4.051 4.051 0 0 0-3.984-3.984z" class="cls-3" data-name="Path 2087"/>
                <path id="Path_2088" d="M125.789 9.644a5.141 5.141 0 0 0-3.162-1.233 1.946 1.946 0 0 0-2.182 1.9c0 1.17 1.454 1.739 2.941 2.34 2.087.822 4.679 1.96 4.679 4.806 0 3.573-2.845 5.059-5.881 5.059a7.346 7.346 0 0 1-5.755-2.561l2.15-1.865a4.845 4.845 0 0 0 3.573 1.739c1.392 0 2.657-.7 2.657-2.182 0-1.233-1.455-1.8-3.036-2.435-2.087-.853-4.458-1.8-4.458-4.648 0-3.257 2.561-4.806 5.312-4.806a7.537 7.537 0 0 1 5.059 1.834z" class="cls-3" data-name="Path 2088"/>
                <path id="Path_2089" d="M135.749 8.949V15.9c0 .411 0 .79.032 1.265.094 1.517.6 2.4 2.023 2.4a3.993 3.993 0 0 0 1.8-.443l.948 2.562a7 7 0 0 1-3.193.758 4.313 4.313 0 0 1-4.4-2.719 8.888 8.888 0 0 1-.474-3.162V8.949H130.4V6.134h2.087l.158-3.763h3.1v3.763h4.4v2.815z" class="cls-3" data-name="Path 2089"/>
                <path id="Path_2090" d="M147.2 22.134h-3.257V0h3.257z" class="cls-3" data-name="Path 2090"/>
                <path id="Path_2091" d="M161.678 22.134l-.1-1.613a5.706 5.706 0 0 1-4.68 1.992c-2.972 0-5.691-1.517-5.691-4.932 0-4.016 3.6-5.281 7.082-5.281a16.42 16.42 0 0 1 3.131.348v-.474c0-2.34-1.075-3.7-3.636-3.7a11.009 11.009 0 0 0-5.023 1.426l-.917-2.624a16.113 16.113 0 0 1 6.45-1.518c4.585 0 6.388 2.53 6.388 6.672v9.707zm-.253-7.209a13.194 13.194 0 0 0-2.72-.285c-1.865 0-4.3.506-4.3 2.783 0 1.8 1.392 2.5 2.972 2.5a6.3 6.3 0 0 0 4.048-1.771z" class="cls-3" data-name="Path 2091"/>
                <path id="Path_2092" d="M172.523 6.134l.1 2.53a6.145 6.145 0 0 1 5.177-2.909 5.351 5.351 0 0 1 4.553 2.023c1.107 1.518 1.423 3.637 1.423 6.04v8.316h-3.257V14.1a8.158 8.158 0 0 0-.759-4.174 2.87 2.87 0 0 0-2.62-1.226 5.59 5.59 0 0 0-4.459 2.845v10.589h-3.257v-16z" class="cls-3" data-name="Path 2092"/>
                <path id="Path_2093" d="M203.385 22.134h-3.1l-.1-2.118a6.213 6.213 0 0 1-5.091 2.5c-4.522 0-7.842-3.731-7.842-8.41a8.083 8.083 0 0 1 7.9-8.348 7.017 7.017 0 0 1 4.965 2.087V0h3.257zM195.7 8.7c-3.478 0-5.123 2.845-5.123 5.47a5.114 5.114 0 0 0 5.06 5.407 4.987 4.987 0 0 0 4.49-2.846V11a5.548 5.548 0 0 0-4.427-2.3z" class="cls-3" data-name="Path 2093"/>
            </g>
            <g id="Group_4645" data-name="Group 4645">
                <path id="Path_2094" d="M89.594 37.092a4.406 4.406 0 0 0-2.087-.475 2.5 2.5 0 0 0-1.707.506c-.633.569-.727 1.581-.727 2.877v1.771h3.205l1.063 2.815h-4.268v13.185h-3.257V44.586h-2.087v-2.815h2.087v-2.055a7.349 7.349 0 0 1 1.043-4.206c.822-1.169 2.15-1.833 4.332-1.833a8.535 8.535 0 0 1 3.352.758z" class="cls-3" data-name="Path 2094"/>
                <path id="Path_2095" d="M94.084 41.771L98 53.281h.063l4.048-11.51h3.541l-9.007 23.241-2.877-1.138 2.53-6.7-5.818-15.4z" class="cls-3" data-name="Path 2095"/>
                <path id="Path_2096" d="M111.823 57.771h-3.257V35.637h3.257z" class="cls-3" data-name="Path 2096"/>
                <path id="Path_2097" d="M120.371 49.423l.063.032 6.166-7.684h3.921l-5.66 6.577 6.134 9.423h-3.921l-4.363-6.893-2.34 2.719v4.174h-3.257V35.637h3.257z" class="cls-3" data-name="Path 2097"/>
                <path id="Path_2098" d="M140.207 55.4a4.892 4.892 0 0 0 4.648-2.53l2.277 1.486a7.6 7.6 0 0 1-7.083 3.794c-5.028 0-7.968-3.636-7.968-8.347 0-4.775 3.478-8.411 7.968-8.411a7.211 7.211 0 0 1 7.431 7.43 10.321 10.321 0 0 1-.158 1.771h-11.953c.222 2.625 1.992 4.807 4.838 4.807zm-.1-11.289c-2.466 0-3.984 1.739-4.553 3.984h8.546a4.05 4.05 0 0 0-3.988-3.984z" class="cls-3" data-name="Path 2098"/>
                <path id="Path_2099" d="M159.3 45.281a5.139 5.139 0 0 0-3.162-1.233 1.947 1.947 0 0 0-2.182 1.9c0 1.17 1.455 1.739 2.941 2.34 2.087.822 4.68 1.96 4.68 4.806 0 3.573-2.846 5.059-5.881 5.059a7.346 7.346 0 0 1-5.755-2.561l2.15-1.865a4.842 4.842 0 0 0 3.573 1.739c1.391 0 2.656-.7 2.656-2.182 0-1.233-1.454-1.8-3.036-2.435-2.087-.853-4.458-1.8-4.458-4.648 0-3.257 2.561-4.806 5.312-4.806a7.539 7.539 0 0 1 5.06 1.834z" class="cls-3" data-name="Path 2099"/>
                <path id="Path_2100" d="M168.854 49.423l.064.032 6.166-7.684H179l-5.659 6.577 6.134 9.423h-3.921l-4.364-6.893-2.34 2.719v4.174h-3.25V35.637h3.257z" class="cls-3" data-name="Path 2100"/>
                <path id="Path_2101" d="M196.933 49.771a8.223 8.223 0 1 1-8.221-8.379 8.162 8.162 0 0 1 8.221 8.379zm-8.221-5.438c-2.846 0-4.9 2.434-4.9 5.438 0 2.972 2.056 5.439 4.9 5.439s4.9-2.467 4.9-5.439c.001-3.004-2.055-5.438-4.9-5.438z" class="cls-3" data-name="Path 2101"/>
                <path id="Path_2102" d="M221.407 57.771V49.74a8.5 8.5 0 0 0-.7-4.174 2.848 2.848 0 0 0-2.592-1.233 5.517 5.517 0 0 0-4.111 2.434 23.619 23.619 0 0 1 .158 2.688v8.316h-3.257V49.74c0-1.455-.031-3.194-.79-4.3a2.565 2.565 0 0 0-2.34-1.106c-1.518 0-3.131 1.264-4.111 2.592v10.845h-3.257v-16h3.1l.063 2.308a6.459 6.459 0 0 1 4.965-2.687 5.046 5.046 0 0 1 4.4 2.182 3.784 3.784 0 0 1 .379.695 6.58 6.58 0 0 1 5.5-2.877 5.124 5.124 0 0 1 4.364 1.929c1.17 1.517 1.486 3.7 1.486 6.134v8.316z" class="cls-3" data-name="Path 2102"/>
                <path id="Path_2103" d="M250.4 57.771V49.74a8.5 8.5 0 0 0-.7-4.174 2.849 2.849 0 0 0-2.593-1.233A5.517 5.517 0 0 0 243 46.767a23.619 23.619 0 0 1 .158 2.688v8.316H239.9V49.74c0-1.455-.032-3.194-.791-4.3a2.563 2.563 0 0 0-2.34-1.106c-1.517 0-3.13 1.264-4.11 2.592v10.845h-3.257v-16h3.1l.063 2.308a6.458 6.458 0 0 1 4.964-2.687 5.048 5.048 0 0 1 4.4 2.182 3.784 3.784 0 0 1 .379.695 6.579 6.579 0 0 1 5.5-2.877 5.122 5.122 0 0 1 4.363 1.929c1.171 1.517 1.487 3.7 1.487 6.134v8.316z" class="cls-3" data-name="Path 2103"/>
                <path id="Path_2104" d="M269.47 57.771l-.1-2.529a6.143 6.143 0 0 1-5.185 2.908 5.349 5.349 0 0 1-4.554-2.023c-1.107-1.518-1.423-3.636-1.423-6.04v-8.316h3.257V49.8a8.161 8.161 0 0 0 .759 4.174 2.873 2.873 0 0 0 2.625 1.233 5.589 5.589 0 0 0 4.458-2.846v-10.59h3.257v16z" class="cls-3" data-name="Path 2104"/>
                <path id="Path_2105" d="M280.569 41.771l.094 2.53a6.145 6.145 0 0 1 5.186-2.909 5.348 5.348 0 0 1 4.553 2.023c1.107 1.518 1.423 3.637 1.423 6.04v8.316h-3.257V49.74a8.168 8.168 0 0 0-.758-4.174 2.872 2.872 0 0 0-2.625-1.233 5.586 5.586 0 0 0-4.458 2.845v10.593h-3.257v-16z" class="cls-3" data-name="Path 2105"/>
                <path id="Path_2106" d="M303.43 55.4a4.892 4.892 0 0 0 4.648-2.53l2.277 1.486a7.6 7.6 0 0 1-7.083 3.794c-5.028 0-7.968-3.636-7.968-8.347 0-4.775 3.478-8.411 7.968-8.411a7.211 7.211 0 0 1 7.431 7.43 10.321 10.321 0 0 1-.158 1.771h-11.953c.221 2.625 1.992 4.807 4.838 4.807zm-.1-11.289c-2.466 0-3.984 1.739-4.553 3.984h8.537a4.05 4.05 0 0 0-3.979-3.984z" class="cls-3" data-name="Path 2106"/>
            </g>
        </g>
    </g>
</svg>
