<svg width="1000" height="500" xmlns="http://www.w3.org/2000/svg">
<rect width="100%" height="100%" fill="white"/>
<text x="500.0" y="30" font-family="Arial" font-size="18" font-weight="bold" text-anchor="middle">Figure 3: K8s Distribution Counts (2024 vs 2026)</text>
<line x1="60" y1="420.0" x2="960" y2="420.0" stroke="#e0e0e0" stroke-width="1"/>
<text x="52" y="424.0" font-family="Arial" font-size="11" text-anchor="end">0</text>
<line x1="60" y1="346.0" x2="960" y2="346.0" stroke="#e0e0e0" stroke-width="1"/>
<text x="52" y="350.0" font-family="Arial" font-size="11" text-anchor="end">3</text>
<line x1="60" y1="272.0" x2="960" y2="272.0" stroke="#e0e0e0" stroke-width="1"/>
<text x="52" y="276.0" font-family="Arial" font-size="11" text-anchor="end">6</text>
<line x1="60" y1="198.0" x2="960" y2="198.0" stroke="#e0e0e0" stroke-width="1"/>
<text x="52" y="202.0" font-family="Arial" font-size="11" text-anchor="end">10</text>
<line x1="60" y1="124.0" x2="960" y2="124.0" stroke="#e0e0e0" stroke-width="1"/>
<text x="52" y="128.0" font-family="Arial" font-size="11" text-anchor="end">13</text>
<line x1="60" y1="50.0" x2="960" y2="50.0" stroke="#e0e0e0" stroke-width="1"/>
<text x="52" y="54.0" font-family="Arial" font-size="11" text-anchor="end">16</text>
<line x1="60" y1="420" x2="960" y2="420" stroke="black" stroke-width="2"/>
<line x1="60" y1="50" x2="60" y2="420" stroke="black" stroke-width="2"/>
<rect x="90" y="188.75" width="30" height="231.25" fill="#aec7e8" rx="2"/>
<text x="105.0" y="184.75" font-family="Arial" font-size="10" text-anchor="middle">10</text>
<rect x="120" y="50.0" width="30" height="370.0" fill="#1f77b4" rx="2"/>
<text x="135.0" y="46.0" font-family="Arial" font-size="10" text-anchor="middle">16</text>
<text x="120" y="436" font-family="Arial" font-size="11" text-anchor="middle">AKS</text>
<rect x="170" y="304.375" width="30" height="115.625" fill="#aec7e8" rx="2"/>
<text x="185.0" y="300.375" font-family="Arial" font-size="10" text-anchor="middle">5</text>
<rect x="200" y="211.875" width="30" height="208.125" fill="#1f77b4" rx="2"/>
<text x="215.0" y="207.875" font-family="Arial" font-size="10" text-anchor="middle">9</text>
<text x="200" y="436" font-family="Arial" font-size="11" text-anchor="middle">OpenShift</text>
<rect x="250" y="327.5" width="30" height="92.5" fill="#aec7e8" rx="2"/>
<text x="265.0" y="323.5" font-family="Arial" font-size="10" text-anchor="middle">4</text>
<rect x="280" y="235.0" width="30" height="185.0" fill="#1f77b4" rx="2"/>
<text x="295.0" y="231.0" font-family="Arial" font-size="10" text-anchor="middle">8</text>
<text x="280" y="436" font-family="Arial" font-size="11" text-anchor="middle">GKE</text>
<rect x="330" y="304.375" width="30" height="115.625" fill="#aec7e8" rx="2"/>
<text x="345.0" y="300.375" font-family="Arial" font-size="10" text-anchor="middle">5</text>
<rect x="360" y="304.375" width="30" height="115.625" fill="#1f77b4" rx="2"/>
<text x="375.0" y="300.375" font-family="Arial" font-size="10" text-anchor="middle">5</text>
<text x="360" y="436" font-family="Arial" font-size="11" text-anchor="middle">Vanilla K8s</text>
<rect x="410" y="350.625" width="30" height="69.375" fill="#aec7e8" rx="2"/>
<text x="425.0" y="346.625" font-family="Arial" font-size="10" text-anchor="middle">3</text>
<rect x="440" y="350.625" width="30" height="69.375" fill="#1f77b4" rx="2"/>
<text x="455.0" y="346.625" font-family="Arial" font-size="10" text-anchor="middle">3</text>
<text x="440" y="436" font-family="Arial" font-size="11" text-anchor="middle">Tanzu</text>
<rect x="490" y="396.875" width="30" height="23.125" fill="#aec7e8" rx="2"/>
<text x="505.0" y="392.875" font-family="Arial" font-size="10" text-anchor="middle">1</text>
<rect x="520" y="350.625" width="30" height="69.375" fill="#1f77b4" rx="2"/>
<text x="535.0" y="346.625" font-family="Arial" font-size="10" text-anchor="middle">3</text>
<text x="520" y="436" font-family="Arial" font-size="11" text-anchor="middle">EKS</text>
<rect x="570" y="420.0" width="30" height="0.0" fill="#aec7e8" rx="2"/>
<rect x="600" y="350.625" width="30" height="69.375" fill="#1f77b4" rx="2"/>
<text x="615.0" y="346.625" font-family="Arial" font-size="10" text-anchor="middle">3</text>
<text x="600" y="436" font-family="Arial" font-size="11" text-anchor="middle">Talos</text>
<rect x="650" y="396.875" width="30" height="23.125" fill="#aec7e8" rx="2"/>
<text x="665.0" y="392.875" font-family="Arial" font-size="10" text-anchor="middle">1</text>
<rect x="680" y="373.75" width="30" height="46.25" fill="#1f77b4" rx="2"/>
<text x="695.0" y="369.75" font-family="Arial" font-size="10" text-anchor="middle">2</text>
<text x="680" y="436" font-family="Arial" font-size="11" text-anchor="middle">Nutanix</text>
<rect x="730" y="420.0" width="30" height="0.0" fill="#aec7e8" rx="2"/>
<rect x="760" y="373.75" width="30" height="46.25" fill="#1f77b4" rx="2"/>
<text x="775.0" y="369.75" font-family="Arial" font-size="10" text-anchor="middle">2</text>
<text x="760" y="436" font-family="Arial" font-size="11" text-anchor="middle">ARO</text>
<rect x="860" y="45" width="16" height="16" fill="#aec7e8" rx="2"/>
<text x="882" y="58" font-family="Arial" font-size="13">2024</text>
<rect x="860" y="68" width="16" height="16" fill="#1f77b4" rx="2"/>
<text x="882" y="81" font-family="Arial" font-size="13">2026</text>
</svg>