<svg width="800" height="500" xmlns="http://www.w3.org/2000/svg">
<rect width="100%" height="100%" fill="white"/>
<text x="400.0" y="30" font-family="Arial" font-size="18" font-weight="bold" text-anchor="middle">Figure 4: Operations Maturity (2024 vs 2026)</text>
<line x1="60" y1="420.0" x2="760" y2="420.0" stroke="#e0e0e0" stroke-width="1"/>
<text x="52" y="424.0" font-family="Arial" font-size="11" text-anchor="end">0%</text>
<line x1="60" y1="346.0" x2="760" y2="346.0" stroke="#e0e0e0" stroke-width="1"/>
<text x="52" y="350.0" font-family="Arial" font-size="11" text-anchor="end">10%</text>
<line x1="60" y1="272.0" x2="760" y2="272.0" stroke="#e0e0e0" stroke-width="1"/>
<text x="52" y="276.0" font-family="Arial" font-size="11" text-anchor="end">20%</text>
<line x1="60" y1="198.0" x2="760" y2="198.0" stroke="#e0e0e0" stroke-width="1"/>
<text x="52" y="202.0" font-family="Arial" font-size="11" text-anchor="end">30%</text>
<line x1="60" y1="124.0" x2="760" y2="124.0" stroke="#e0e0e0" stroke-width="1"/>
<text x="52" y="128.0" font-family="Arial" font-size="11" text-anchor="end">40%</text>
<line x1="60" y1="50.0" x2="760" y2="50.0" stroke="#e0e0e0" stroke-width="1"/>
<text x="52" y="54.0" font-family="Arial" font-size="11" text-anchor="end">50%</text>
<line x1="60" y1="420" x2="760" y2="420" stroke="black" stroke-width="2"/>
<line x1="60" y1="50" x2="60" y2="420" stroke="black" stroke-width="2"/>
<rect x="90" y="321.3333333333333" width="40" height="98.66666666666667" fill="#aec7e8" rx="2"/>
<text x="110.0" y="317.3333333333333" font-family="Arial" font-size="10" text-anchor="middle">13%</text>
<rect x="130" y="282.3255813953488" width="40" height="137.67441860465118" fill="#1f77b4" rx="2"/>
<text x="150.0" y="278.3255813953488" font-family="Arial" font-size="10" text-anchor="middle">19%</text>
<text x="130" y="436" font-family="Arial" font-size="11" text-anchor="middle">L1: Provisional</text>
<rect x="200" y="50.0" width="40" height="370.0" fill="#aec7e8" rx="2"/>
<text x="220.0" y="46.0" font-family="Arial" font-size="10" text-anchor="middle">50%</text>
<rect x="240" y="247.90697674418604" width="40" height="172.09302325581396" fill="#1f77b4" rx="2"/>
<text x="260.0" y="243.90697674418604" font-family="Arial" font-size="10" text-anchor="middle">23%</text>
<text x="240" y="436" font-family="Arial" font-size="11" text-anchor="middle">L2: Operationalized</text>
<rect x="310" y="247.33333333333334" width="40" height="172.66666666666666" fill="#aec7e8" rx="2"/>
<text x="330.0" y="243.33333333333334" font-family="Arial" font-size="10" text-anchor="middle">23%</text>
<rect x="350" y="75.81395348837208" width="40" height="344.1860465116279" fill="#1f77b4" rx="2"/>
<text x="370.0" y="71.81395348837208" font-family="Arial" font-size="10" text-anchor="middle">47%</text>
<text x="350" y="436" font-family="Arial" font-size="11" text-anchor="middle">L3: Scalable</text>
<rect x="420" y="321.3333333333333" width="40" height="98.66666666666667" fill="#aec7e8" rx="2"/>
<text x="440.0" y="317.3333333333333" font-family="Arial" font-size="10" text-anchor="middle">13%</text>
<rect x="460" y="333.95348837209303" width="40" height="86.04651162790698" fill="#1f77b4" rx="2"/>
<text x="480.0" y="329.95348837209303" font-family="Arial" font-size="10" text-anchor="middle">12%</text>
<text x="460" y="436" font-family="Arial" font-size="11" text-anchor="middle">L4: Optimizing</text>
<rect x="660" y="45" width="16" height="16" fill="#aec7e8" rx="2"/>
<text x="682" y="58" font-family="Arial" font-size="13">2024</text>
<rect x="660" y="68" width="16" height="16" fill="#1f77b4" rx="2"/>
<text x="682" y="81" font-family="Arial" font-size="13">2026</text>
</svg>