<svg width="800" height="500" xmlns="http://www.w3.org/2000/svg">
<rect width="100%" height="100%" fill="white"/>
<text x="400.0" y="30" font-family="Arial" font-size="18" font-weight="bold" text-anchor="middle">Figure 5: Measurement Maturity (2024 vs 2026)</text>
<line x1="60" y1="420.0" x2="760" y2="420.0" stroke="#e0e0e0" stroke-width="1"/>
<text x="52" y="424.0" font-family="Arial" font-size="11" text-anchor="end">0%</text>
<line x1="60" y1="346.0" x2="760" y2="346.0" stroke="#e0e0e0" stroke-width="1"/>
<text x="52" y="350.0" font-family="Arial" font-size="11" text-anchor="end">11%</text>
<line x1="60" y1="272.0" x2="760" y2="272.0" stroke="#e0e0e0" stroke-width="1"/>
<text x="52" y="276.0" font-family="Arial" font-size="11" text-anchor="end">21%</text>
<line x1="60" y1="198.0" x2="760" y2="198.0" stroke="#e0e0e0" stroke-width="1"/>
<text x="52" y="202.0" font-family="Arial" font-size="11" text-anchor="end">32%</text>
<line x1="60" y1="123.99999999999994" x2="760" y2="123.99999999999994" stroke="#e0e0e0" stroke-width="1"/>
<text x="52" y="127.99999999999994" font-family="Arial" font-size="11" text-anchor="end">43%</text>
<line x1="60" y1="50.0" x2="760" y2="50.0" stroke="#e0e0e0" stroke-width="1"/>
<text x="52" y="54.0" font-family="Arial" font-size="11" text-anchor="end">53%</text>
<line x1="60" y1="420" x2="760" y2="420" stroke="black" stroke-width="2"/>
<line x1="60" y1="50" x2="60" y2="420" stroke="black" stroke-width="2"/>
<rect x="90" y="50.0" width="40" height="370.0" fill="#aec7e8" rx="2"/>
<text x="110.0" y="46.0" font-family="Arial" font-size="10" text-anchor="middle">53%</text>
<rect x="130" y="81.19186046511629" width="40" height="338.8081395348837" fill="#1f77b4" rx="2"/>
<text x="150.0" y="77.19186046511629" font-family="Arial" font-size="10" text-anchor="middle">49%</text>
<text x="130" y="436" font-family="Arial" font-size="11" text-anchor="middle">L1: Provisional</text>
<rect x="200" y="119.375" width="40" height="300.625" fill="#aec7e8" rx="2"/>
<text x="220.0" y="115.375" font-family="Arial" font-size="10" text-anchor="middle">43%</text>
<rect x="240" y="161.86046511627904" width="40" height="258.13953488372096" fill="#1f77b4" rx="2"/>
<text x="260.0" y="157.86046511627904" font-family="Arial" font-size="10" text-anchor="middle">37%</text>
<text x="240" y="436" font-family="Arial" font-size="11" text-anchor="middle">L2: Operationalized</text>
<rect x="310" y="420.0" width="40" height="0.0" fill="#aec7e8" rx="2"/>
<rect x="350" y="339.3313953488372" width="40" height="80.66860465116278" fill="#1f77b4" rx="2"/>
<text x="370.0" y="335.3313953488372" font-family="Arial" font-size="10" text-anchor="middle">12%</text>
<text x="350" y="436" font-family="Arial" font-size="11" text-anchor="middle">L3: Scalable</text>
<rect x="420" y="396.875" width="40" height="23.125" fill="#aec7e8" rx="2"/>
<text x="440.0" y="392.875" font-family="Arial" font-size="10" text-anchor="middle">3%</text>
<rect x="460" y="403.8662790697674" width="40" height="16.13372093023256" fill="#1f77b4" rx="2"/>
<text x="480.0" y="399.8662790697674" font-family="Arial" font-size="10" text-anchor="middle">2%</text>
<text x="460" y="436" font-family="Arial" font-size="11" text-anchor="middle">L4: Optimizing</text>
<rect x="660" y="45" width="16" height="16" fill="#aec7e8" rx="2"/>
<text x="682" y="58" font-family="Arial" font-size="13">2024</text>
<rect x="660" y="68" width="16" height="16" fill="#1f77b4" rx="2"/>
<text x="682" y="81" font-family="Arial" font-size="13">2026</text>
</svg>